<svg width="24" height="24" viewBox="0 0 24 24" fill="none" xmlns="http://www.w3.org/2000/svg">
    <path
        d="M13.9108 13.9108C13.585 14.2367 13.585 14.7633 13.9108 15.0892L19.155 20.3333H15.3333C14.8725 20.3333 14.5 20.7067 14.5 21.1667C14.5 21.6267 14.8725 22 15.3333 22H19.5C20.8783 22 22 20.8783 22 19.5V15.3333C22 14.8733 21.6275 14.5 21.1667 14.5C20.7058 14.5 20.3333 14.8733 20.3333 15.3333V19.155L15.0892 13.9108C14.7633 13.585 14.2367 13.585 13.9108 13.9108ZM4.5 2H8.66667C9.1275 2 9.5 2.37333 9.5 2.83333C9.5 3.29333 9.1275 3.66667 8.66667 3.66667H4.845L10.0892 8.91083C10.415 9.23667 10.415 9.76333 10.0892 10.0892C9.92667 10.2517 9.71333 10.3333 9.5 10.3333C9.28667 10.3333 9.07333 10.2517 8.91083 10.0892L3.66667 4.845V8.66667C3.66667 9.12667 3.29417 9.5 2.83333 9.5C2.3725 9.5 2 9.12667 2 8.66667V4.5C2 3.12167 3.12167 2 4.5 2Z"
        fill="currentColor" fill-opacity="0.8" style="mix-blend-mode:multiply" />
</svg>