<svg id="Layer_1" enable-background="new 0 0 512 512" viewBox="0 0 512 512" xmlns="http://www.w3.org/2000/svg">
<path d="m319.531 312.694-56.667 98.15c-2.938 5.088-7.981 8-13.856 8h-101.55c-4.418 0-8 3.582-8 8s3.582 8 8 8h41.305v58.156c0 1.652-1.348 3-3 3h-166.763c-1.652 0-3-1.348-3-3v-77.42c0-44.231 36.189-80.42 80.42-80.42h11.922c20.621 0 39.492 7.868 53.765 20.747h50.563c5.875 0 10.919-2.912 13.856-8l38.498-66.681c8.654-14.989 27.998-20.172 42.987-11.518 14.991 8.653 20.173 27.999 11.52 42.986zm121.177-69.669c4.418 0 8-3.582 8-8s-3.582-8-8-8h-93.248c-4.418 0-8 3.582-8 8s3.582 8 8 8zm0-131.208h-93.248c-4.418 0-8 3.582-8 8s3.582 8 8 8h93.248c4.418 0 8-3.582 8-8s-3.581-8-8-8zm-101.147 181.579 11.568-3.1 21.154-21.154c1.63-1.63.882-4.422-1.345-5.019l-28.896-7.742-18.42 4.936c9.43 8.308 14.994 19.941 15.939 32.079zm7.9-135.356h93.248c4.418 0 8-3.582 8-8s-3.582-8-8-8h-93.248c-4.418 0-8 3.582-8 8s3.581 8 8 8zm93.247 38.763h-93.248c-4.418 0-8 3.582-8 8s3.582 8 8 8h93.248c4.418 0 8-3.582 8-8s-3.581-8-8-8zm38.609-149.032h-48.228v23.208h41.703v293.911h-164.921l-13.399 23.208h184.845c9.188 0 16.682-7.494 16.682-16.683v-306.962c.001-9.188-7.493-16.682-16.682-16.682zm-131.856 280.24h93.248c4.418 0 8-3.582 8-8s-3.582-8-8-8h-93.248c-4.418 0-8 3.582-8 8s3.581 8 8 8zm-157.825-9.589c2.086 7.783 10.135 12.431 17.918 10.345l13.662-3.661 24.828-43.003-47.577 12.748c-7.783 2.085-12.43 10.134-10.345 17.918zm39.294-247.443h41.703v-23.208h-48.228c-9.188 0-16.682 7.494-16.682 16.682v211.89l23.208-6.219v-199.145zm79.575 122.448h-42.007c-3.016 0-5.484 2.468-5.484 5.484v42.007c0 3.016 2.468 5.484 5.484 5.484h42.007c3.016 0 5.484-2.468 5.484-5.484v-42.007c-.001-3.016-2.468-5.484-5.484-5.484zm-21.872-115.365v-37.375c0-1.652 1.348-3 3-3h33.659c3.001-12.443 14.205-21.687 27.569-21.687s24.568 9.244 27.569 21.687h33.659c1.652 0 3 1.348 3 3v37.375c0 1.653-1.348 3-3 3h-122.456c-1.652 0-3-1.347-3-3zm56.726-38.812c0 4.143 3.359 7.502 7.502 7.502s7.502-3.359 7.502-7.502-3.359-7.502-7.502-7.502-7.502 3.358-7.502 7.502zm97.349 242.539h-57.807c-4.418 0-8 3.582-8 8s3.582 8 8 8h57.807c4.418 0 8-3.582 8-8s-3.581-8-8-8zm-126.72-167.864c0-3.016-2.468-5.483-5.484-5.483h-42.007c-3.016 0-5.484 2.467-5.484 5.483v42.007c0 3.016 2.468 5.484 5.484 5.484h42.007c3.016 0 5.484-2.468 5.484-5.484zm-217.568 200.769c31.153 0 56.407-25.254 56.407-56.407s-25.254-56.407-56.407-56.407-56.407 25.254-56.407 56.407 25.255 56.407 56.407 56.407z" fill="currentColor"/></svg>