<svg width="24" height="24" viewBox="0 0 24 24" fill="none" xmlns="http://www.w3.org/2000/svg">
    <path
        d="M11.9993 23.3151C17.5943 23.3151 22.2448 18.6745 22.2448 13.0697C22.2448 8.12781 18.6289 3.93895 13.9378 3.01538V1.58824C13.9378 0.875097 13.4458 0.683954 12.8933 1.0761L9.68891 3.31581C9.23719 3.63724 9.22691 4.11938 9.68891 4.4511L12.883 6.7011C13.4458 7.10267 13.9378 6.91195 13.9378 6.18853V4.75281C17.7349 5.61638 20.5271 9.00167 20.5271 13.0697C20.5317 14.1913 20.3144 15.3028 19.8876 16.3401C19.4608 17.3774 18.833 18.32 18.0403 19.1137C17.2477 19.9073 16.3058 20.5362 15.269 20.9642C14.2322 21.3923 13.121 21.611 11.9993 21.6077C7.25805 21.6077 3.45148 17.8105 3.46133 13.0697C3.47119 10.2171 4.85762 7.69581 6.99705 6.16924C7.40891 5.85767 7.53962 5.38538 7.27819 4.96367C7.03733 4.55224 6.48491 4.44124 6.04262 4.78281C3.45148 6.66124 1.75391 9.69467 1.75391 13.0697C1.75391 18.6745 6.39448 23.3151 11.9993 23.3151ZM14.4199 17.2984C16.0875 17.2984 17.1825 15.7212 17.1825 13.311C17.1825 10.8801 16.0875 9.28281 14.4199 9.28281C12.7528 9.28281 11.6578 10.8801 11.6578 13.311C11.6578 15.7217 12.7528 17.2984 14.4199 17.2984ZM9.18705 17.178C9.57833 17.178 9.82991 16.9067 9.82991 16.485V10.167C9.82991 9.67452 9.56848 9.36338 9.11634 9.36338C8.84505 9.36338 8.65434 9.45338 8.29262 9.69467L6.89676 10.629C6.67562 10.7897 6.56505 10.9705 6.56505 11.2118C6.56505 11.5431 6.82648 11.8242 7.14791 11.8242C7.33862 11.8242 7.42905 11.784 7.63005 11.6434L8.56434 10.9602V16.4845C8.56434 16.8968 8.81548 17.178 9.18705 17.178ZM14.4195 16.083C13.5358 16.083 12.9632 15.0287 12.9632 13.311C12.9632 11.5628 13.5255 10.4982 14.4195 10.4982C15.3238 10.4982 15.8659 11.553 15.8659 13.311C15.8659 15.0282 15.3135 16.083 14.4195 16.083Z"
        fill="currentColor" fill-opacity="0.8" style="mix-blend-mode:multiply" />
</svg>