<svg width="24" height="24" viewBox="0 0 24 24" fill="none" xmlns="http://www.w3.org/2000/svg">
    <path
        d="M11.4796 6.94945C10.7635 6.55294 9.95436 6.35515 9.13606 6.37657C7.20912 6.37657 5.75089 7.26193 5.75089 8.45976V17.3133C5.74671 17.3828 5.75732 17.4524 5.78201 17.5174C5.80671 17.5825 5.84493 17.6416 5.89415 17.6908C5.94337 17.7401 6.00247 17.7783 6.06755 17.803C6.13263 17.8277 6.2022 17.8383 6.27168 17.8341C6.34116 17.8383 6.41074 17.8277 6.47582 17.803C6.5409 17.7783 6.6 17.7401 6.64922 17.6908C6.69844 17.6416 6.73666 17.5825 6.76135 17.5174C6.78605 17.4524 6.79666 17.3828 6.79248 17.3133C6.79248 16.8967 7.72991 16.2717 9.13606 16.2717C9.68997 16.263 10.2393 16.3728 10.7474 16.5936C10.8264 16.6298 10.9132 16.6456 10.9999 16.6394C11.0866 16.6332 11.1703 16.6052 11.2433 16.5581C11.3163 16.5109 11.3762 16.4461 11.4175 16.3697C11.4589 16.2932 11.4802 16.2076 11.4796 16.1207V6.94945Z"
        fill="currentColor" fill-opacity="0.64" style="mix-blend-mode:multiply" />
    <path
        d="M14.8648 6.37657C14.0465 6.35515 13.2374 6.55294 12.5213 6.94945V16.1207C12.5207 16.2076 12.542 16.2932 12.5834 16.3697C12.6247 16.4461 12.6846 16.5109 12.7576 16.5581C12.8306 16.6052 12.9143 16.6332 13.001 16.6394C13.0877 16.6456 13.1745 16.6298 13.2535 16.5936C13.7616 16.3728 14.3109 16.263 14.8648 16.2717C16.271 16.2717 17.2084 16.8967 17.2084 17.3133C17.2084 17.4514 17.2633 17.5839 17.361 17.6816C17.4586 17.7792 17.5911 17.8341 17.7292 17.8341C17.8673 17.8341 17.9998 17.7792 18.0975 17.6816C18.1951 17.5839 18.25 17.4514 18.25 17.3133V8.45976C18.25 7.26193 16.7918 6.37657 14.8648 6.37657Z"
        fill="currentColor" fill-opacity="0.64" style="mix-blend-mode:multiply" />
</svg>