<svg width="24" height="24" viewBox="0 0 24 24" fill="none" xmlns="http://www.w3.org/2000/svg">
    <path
        d="M11.1674 3.91912C10.0216 3.28471 8.72698 2.96824 7.4177 3.00252C4.33459 3.00252 2.00142 4.41908 2.00142 6.33561V20.5013C1.99474 20.6124 2.01171 20.7238 2.05122 20.8279C2.09074 20.932 2.15189 21.0266 2.23064 21.1053C2.30939 21.1841 2.40395 21.2452 2.50807 21.2847C2.6122 21.3243 2.72352 21.3412 2.83469 21.3345C2.94586 21.3412 3.05719 21.3243 3.16131 21.2847C3.26544 21.2452 3.36 21.1841 3.43875 21.1053C3.5175 21.0266 3.57865 20.932 3.61816 20.8279C3.65767 20.7238 3.67465 20.6124 3.66797 20.5013C3.66797 19.8347 5.16786 18.8347 7.4177 18.8347C8.30395 18.8208 9.18294 18.9964 9.99585 19.3497C10.1222 19.4077 10.2612 19.4329 10.3998 19.423C10.5385 19.4131 10.6725 19.3683 10.7893 19.2929C10.9061 19.2175 11.002 19.1138 11.0681 18.9915C11.1342 18.8691 11.1683 18.7321 11.1674 18.5931V3.91912Z"
        fill="currentColor" fill-opacity="0.8" style="mix-blend-mode:multiply" />
    <path
        d="M16.5837 3.00252C15.2745 2.96824 13.9798 3.28471 12.834 3.91912V18.5931C12.8331 18.7321 12.8673 18.8691 12.9334 18.9915C12.9995 19.1138 13.0954 19.2175 13.2122 19.2929C13.329 19.3683 13.4629 19.4131 13.6016 19.423C13.7403 19.4329 13.8792 19.4077 14.0056 19.3497C14.8185 18.9964 15.6975 18.8208 16.5837 18.8347C18.8336 18.8347 20.3335 19.8347 20.3335 20.5013C20.3335 20.7223 20.4213 20.9342 20.5775 21.0905C20.7338 21.2468 20.9458 21.3345 21.1667 21.3345C21.3877 21.3345 21.5997 21.2468 21.756 21.0905C21.9122 20.9342 22 20.7223 22 20.5013V6.33561C22 4.41908 19.6669 3.00252 16.5837 3.00252Z"
        fill="currentColor" fill-opacity="0.8" style="mix-blend-mode:multiply" />
</svg>