<svg xmlns="http://www.w3.org/2000/svg" width="24" height="24" viewBox="0 0 24 24" fill="none">
    <path fill-rule="evenodd" clip-rule="evenodd"
        d="M7.41667 3C6.05797 3 4.77079 3.29248 3.79296 3.81806C2.8439 4.32818 2 5.1756 2 6.33333V20.5C2 20.9602 2.3731 21.3333 2.83333 21.3333C3.29357 21.3333 3.66667 20.9602 3.66667 20.5C3.66667 20.2411 3.86443 19.8385 4.58204 19.4528C5.27088 19.0825 6.27537 18.8333 7.41667 18.8333C8.55797 18.8333 9.56245 19.0825 10.2513 19.4528C10.9689 19.8385 11.1667 20.2411 11.1667 20.5C11.1667 20.9602 11.5398 21.3333 12 21.3333C12.4602 21.3333 12.8333 20.9602 12.8333 20.5C12.8333 20.2411 13.0311 19.8385 13.7487 19.4528C14.4375 19.0825 15.442 18.8333 16.5833 18.8333C17.7246 18.8333 18.7291 19.0825 19.418 19.4528C20.1356 19.8385 20.3333 20.2411 20.3333 20.5C20.3333 20.9602 20.7064 21.3333 21.1667 21.3333C21.6269 21.3333 22 20.9602 22 20.5V6.33333C22 5.1756 21.1561 4.32818 20.207 3.81806C19.2292 3.29248 17.942 3 16.5833 3C15.2246 3 13.9375 3.29248 12.9596 3.81806C12.6139 4.0039 12.2821 4.23449 12 4.50855C11.7179 4.23449 11.3861 4.0039 11.0404 3.81806C10.0625 3.29248 8.77537 3 7.41667 3ZM3.79296 17.9847C3.75063 18.0075 3.70851 18.0309 3.66667 18.055V6.33333C3.66667 6.0744 3.86443 5.67182 4.58204 5.2861C5.27088 4.91585 6.27537 4.66667 7.41667 4.66667C8.55797 4.66667 9.56245 4.91585 10.2513 5.2861C10.9689 5.67182 11.1667 6.0744 11.1667 6.33333V18.055C11.1248 18.0309 11.0827 18.0075 11.0404 17.9847C10.0625 17.4592 8.77537 17.1667 7.41667 17.1667C6.05797 17.1667 4.77079 17.4592 3.79296 17.9847ZM12.8333 18.055C12.8752 18.0309 12.9173 18.0075 12.9596 17.9847C13.9375 17.4592 15.2246 17.1667 16.5833 17.1667C17.942 17.1667 19.2292 17.4592 20.207 17.9847C20.2494 18.0075 20.2915 18.0309 20.3333 18.055V6.33333C20.3333 6.0744 20.1356 5.67182 19.418 5.2861C18.7291 4.91585 17.7246 4.66667 16.5833 4.66667C15.442 4.66667 14.4375 4.91585 13.7487 5.2861C13.0311 5.67182 12.8333 6.0744 12.8333 6.33333V18.055Z"
        fill="currentColor" fill-opacity="0.8" style="mix-blend-mode:multiply" />
</svg>