<svg width="18" height="13" viewBox="0 0 18 13" fill="none" xmlns="http://www.w3.org/2000/svg">
<path d="M16.6387 5.19442C17.0228 5.19442 17.3332 4.88401 17.3332 4.49998V1.02776C17.3332 0.64373 17.0228 0.333313 16.6387 0.333313H1.36095C0.976921 0.333313 0.666504 0.64373 0.666504 1.02776V4.49998C0.666504 4.88401 0.976921 5.19442 1.36095 5.19442C2.12692 5.19442 2.74984 5.81734 2.74984 6.58331C2.74984 7.34929 2.12692 7.9722 1.36095 7.9722C0.976921 7.9722 0.666504 8.28262 0.666504 8.66665V12.1389C0.666504 12.5229 0.976921 12.8333 1.36095 12.8333H16.6387C17.0228 12.8333 17.3332 12.5229 17.3332 12.1389V8.66665C17.3332 8.28262 17.0228 7.9722 16.6387 7.9722C15.8728 7.9722 15.2498 7.34929 15.2498 6.58331C15.2498 5.81734 15.8728 5.19442 16.6387 5.19442ZM12.4721 8.66665H5.52762V7.27776H12.4721V8.66665ZM12.4721 5.88887H5.52762V4.49998H12.4721V5.88887Z" fill="currentColor"/>
</svg>
