<svg width="14" height="12" viewBox="0 0 14 12" fill="none" xmlns="http://www.w3.org/2000/svg">
<path d="M0.75 7.89399V10.4982C0.75 10.6364 0.804875 10.7688 0.902553 10.8665C1.00023 10.9642 1.13271 11.0191 1.27085 11.0191H3.35424C3.49237 11.0191 3.62485 10.9642 3.72253 10.8665C3.82021 10.7688 3.87508 10.6364 3.87508 10.4982V7.89399H0.75Z" fill="currentColor"/>
<path d="M3.87508 6.85229V1.12297C3.87508 0.984833 3.82021 0.852353 3.72253 0.754675C3.62485 0.656998 3.49237 0.602123 3.35424 0.602123H1.27085C1.13271 0.602123 1.00023 0.656998 0.902553 0.754675C0.804875 0.852353 0.75 0.984833 0.75 1.12297V6.85229H3.87508Z" fill="currentColor"/>
<path d="M4.91678 7.89399V10.4982C4.91678 10.6364 4.97165 10.7688 5.06933 10.8665C5.16701 10.9642 5.29949 11.0191 5.43763 11.0191H7.52102C7.65915 11.0191 7.79163 10.9642 7.88931 10.8665C7.98699 10.7688 8.04186 10.6364 8.04186 10.4982V7.89399H4.91678Z" fill="currentColor"/>
<path d="M8.04186 6.85229V1.12297C8.04186 0.984833 7.98699 0.852353 7.88931 0.754675C7.79163 0.656998 7.65915 0.602123 7.52102 0.602123H5.43763C5.29949 0.602123 5.16701 0.656998 5.06933 0.754675C4.97165 0.852353 4.91678 0.984833 4.91678 1.12297V6.85229H8.04186Z" fill="currentColor"/>
<path d="M9.33877 7.07782L12.3753 6.3403L11.0237 0.772961C10.9911 0.638787 10.9066 0.523038 10.7887 0.451156C10.6709 0.379273 10.5293 0.357138 10.3951 0.389617L8.37 0.881297C8.2364 0.914559 8.12141 0.999363 8.05016 1.11717C7.97891 1.23497 7.9572 1.37619 7.98978 1.50996L9.33877 7.07782Z" fill="currentColor"/>
<path d="M13.2352 9.88362L12.6212 7.35283L9.58409 8.08983L10.1987 10.6206C10.2148 10.6871 10.2439 10.7498 10.2842 10.805C10.3246 10.8603 10.3754 10.907 10.4339 10.9426C10.4923 10.9782 10.5572 11.002 10.6248 11.0125C10.6924 11.023 10.7614 11.0201 10.8279 11.004L12.8524 10.5128C12.9866 10.4801 13.1023 10.3955 13.1741 10.2775C13.2459 10.1595 13.2679 10.0178 13.2352 9.88362Z" fill="currentColor"/>
</svg>
