<svg width="20" height="20" viewBox="0 0 20 20" fill="none" xmlns="http://www.w3.org/2000/svg">
    <g id="Icon/filled/suggested/c-check">
        <path id="Vector"
            d="M9.99935 1.66669C8.35117 1.66669 6.74001 2.15543 5.3696 3.07111C3.99919 3.98678 2.93109 5.28827 2.30036 6.81099C1.66963 8.33371 1.5046 10.0093 1.82614 11.6258C2.14769 13.2423 2.94136 14.7271 4.1068 15.8926C5.27223 17.058 6.75709 17.8517 8.3736 18.1732C9.99011 18.4948 11.6657 18.3297 13.1884 17.699C14.7111 17.0683 16.0126 16.0002 16.9283 14.6298C17.8439 13.2594 18.3327 11.6482 18.3327 10C18.3263 7.79185 17.4462 5.67596 15.8848 4.11455C14.3234 2.55313 12.2075 1.6731 9.99935 1.66669V1.66669ZM8.61046 13.7597L4.85074 10L5.83268 9.01807L8.61046 11.7959L14.166 6.2403L15.148 7.22224L8.61046 13.7597Z"
            fill="currentColor" />
    </g>
</svg>