<svg width="65" height="64" viewBox="0 0 65 64" fill="none" xmlns="http://www.w3.org/2000/svg">
<circle cx="32.8751" cy="32.0001" r="26.0465" fill="#C1F7F7"/>
<path fill-rule="evenodd" clip-rule="evenodd" d="M35.3341 33.5002C35.5008 33.917 36.1259 34.4171 36.876 34.7088C39.5848 35.709 40.7517 35.6256 41.5852 38.1261C40.4183 39.3763 39.0014 40.3765 37.3761 41.0016H28.3744C26.9158 40.4182 25.5822 39.5013 24.457 38.4178C24.5404 34.0837 29.3329 36.5841 30.4581 33.5002C30.6665 32.9168 30.6665 31.9999 30.5415 31.4165L32.8753 31.4582L35.209 31.4165C35.084 31.9999 35.084 32.9168 35.3341 33.5002Z" fill="#F0C17D"/>
<path fill-rule="evenodd" clip-rule="evenodd" d="M35.3343 33.5002C35.4593 33.8336 35.876 34.2504 36.4595 34.5004C39.2517 35.709 41.2937 35.6673 41.5854 38.1261C40.4186 39.3763 39.0016 40.3765 37.3763 41.0016H32.8755V31.4582H32.9172L35.2509 31.4165C35.0842 31.9999 35.0842 32.9168 35.3343 33.5002Z" fill="#E0AF6A"/>
<path fill-rule="evenodd" clip-rule="evenodd" d="M30.0831 33.9172L32.8753 34.2089L35.6258 33.9172V33.8755L35.6674 33.9172H35.7091V33.9588C37.2094 35.1674 40.0433 34.584 41.4602 36.6677C42.252 37.7929 42.002 40.085 42.0436 42.7938C35.9175 42.7938 29.7497 42.7938 23.6235 42.7938C23.6652 40.0433 23.4568 37.7929 24.207 36.6677C25.6239 34.584 28.5411 35.2091 29.9997 33.9172H30.0831Z" fill="#134861"/>
<path fill-rule="evenodd" clip-rule="evenodd" d="M32.8755 34.2504L35.6677 33.9587V33.917L35.7093 33.9587H35.751V34.0003C37.2513 35.2089 40.0852 34.6255 41.5021 36.7092C42.2939 37.8344 42.0439 40.1265 42.0855 42.8353H32.8755V34.2504Z" fill="#0F303F"/>
<path fill-rule="evenodd" clip-rule="evenodd" d="M32.9172 32.7921C32.3754 32.7921 32.167 32.7921 31.8753 32.6671C31.6253 32.5421 31.5002 32.292 31.1252 31.9586C30.8334 31.6669 30.2917 31.3752 30.1667 31.0835C30 30.7084 30.0416 30.2916 29.9583 29.7499C29.6666 29.9166 29.3748 29.1248 29.3332 28.833C29.2498 28.458 28.9581 27.7912 28.8747 27.3744C28.8331 27.1244 28.8747 26.916 28.9581 26.8743C29.1248 26.7493 29.3332 26.8327 29.6249 27.2077C29.6249 26.666 29.5832 26.2075 29.6666 25.7908C30.0416 23.5821 35.4176 22.3735 36.0011 25.7908C36.0844 26.2075 36.0844 26.666 36.0427 27.2077C36.3345 26.8327 36.5012 26.7493 36.7095 26.8743C36.7929 26.9577 36.8346 27.1244 36.7929 27.3744C36.7095 27.8328 36.4178 28.458 36.3345 28.833C36.2928 29.0831 36.0011 29.8749 35.7094 29.7499C35.6677 30.2916 35.6677 30.7084 35.5427 31.0835C35.4176 31.4168 34.8759 31.7086 34.5841 32.0003C34.2507 32.3337 34.1257 32.5837 33.8757 32.7088C33.6256 32.7921 33.3756 32.7921 32.9172 32.7921Z" fill="#FFDBA7"/>
<path fill-rule="evenodd" clip-rule="evenodd" d="M32.9172 32.7919H32.8755V23.6652C34.2924 23.5401 35.751 24.0819 36.0427 25.7489C36.1261 26.1656 36.1261 26.6241 36.0844 27.1658C36.3761 26.7908 36.5428 26.7074 36.7512 26.8324C36.8346 26.9158 36.8762 27.0825 36.8346 27.3325C36.7512 27.7909 36.4595 28.4161 36.3761 28.7911C36.3345 29.0412 36.0427 29.833 35.751 29.708C35.7094 30.2497 35.7094 30.6665 35.5843 31.0415C35.4593 31.3749 34.9175 31.6667 34.6258 31.9584C34.2924 32.2918 34.1674 32.5418 33.9173 32.6668C33.6256 32.7919 33.3756 32.7919 32.9172 32.7919Z" fill="#F0C17D"/>
<path fill-rule="evenodd" clip-rule="evenodd" d="M35.1677 32.917C35.2511 33.4171 35.3761 33.6255 35.7095 33.8755L34.3343 36.2926L32.834 34.2089C33.5841 33.7922 34.9177 33.2921 35.1677 32.917Z" fill="#266590"/>
<path fill-rule="evenodd" clip-rule="evenodd" d="M30.5833 32.917C30.4999 33.4171 30.3749 33.6255 30.0415 33.8755L31.4584 36.2509L32.9587 34.1672C32.1669 33.7922 30.875 33.2921 30.5833 32.917Z" fill="#266590"/>
<path fill-rule="evenodd" clip-rule="evenodd" d="M30.4582 25.2071C29.9998 25.7489 29.8747 27.8743 29.9164 28.6244C29.1663 25.8323 28.7495 23.8319 30.4165 22.5816C32.6252 20.9563 35.0424 21.9565 35.4591 22.6233C37.0844 23.4985 36.501 25.9989 36.0425 28.2077C36.0425 27.3742 35.6258 25.3322 35.2924 24.457C34.0422 23.7485 31.6251 25.9989 30.4582 25.2071Z" fill="#703100"/>
<path fill-rule="evenodd" clip-rule="evenodd" d="M32.8755 21.7064C34.1674 21.6647 35.2093 22.2065 35.4593 22.6232C37.0846 23.4984 36.5012 25.9988 36.0427 28.2076C36.0427 27.3741 35.626 25.332 35.2926 24.4569C34.6675 24.0818 33.7923 24.4569 32.8755 24.8319V21.7064Z" fill="#4F2200"/>
<path d="M36.4597 21.5815H29.25V26.2074H36.4597V21.5815Z" fill="#134861"/>
<path d="M36.5012 21.5815H32.8755V26.2074H36.5012V21.5815Z" fill="#0F303F"/>
<path d="M38.4598 21.2065H27.291V21.8733H38.4598V21.2065Z" fill="#266590"/>
<path d="M38.4599 21.2065H32.8755V21.8733H38.4599V21.2065Z" fill="#134861"/>
<path fill-rule="evenodd" clip-rule="evenodd" d="M37.793 24.4154L38.3764 23.2485L38.9182 24.4154H37.793Z" fill="#134861"/>
<path d="M38.4598 21.373H38.2515V23.8318H38.4598V21.373Z" fill="#134861"/>
</svg>
