<svg width="65" height="64" viewBox="0 0 65 64" fill="none" xmlns="http://www.w3.org/2000/svg">
<circle cx="32.3751" cy="32.0001" r="26.0465" fill="#6BE374"/>
<path fill-rule="evenodd" clip-rule="evenodd" d="M34.703 32.8867C34.7559 33.3555 34.9146 33.6159 35.232 33.8242L33.8038 36.168L32.3228 34.1367C33.0633 33.7722 34.3856 33.2513 34.703 32.8867Z" fill="#14BAC6"/>
<path fill-rule="evenodd" clip-rule="evenodd" d="M30.048 32.8867C29.9951 33.3555 29.8364 33.6159 29.519 33.8242L30.9472 36.168L32.4282 34.1367C31.6877 33.7722 30.3654 33.2513 30.048 32.8867Z" fill="#14BAC6"/>
<path fill-rule="evenodd" clip-rule="evenodd" d="M34.8087 33.4598C34.9674 33.8765 35.6021 34.3974 36.3427 34.6578C39.0403 35.6474 40.204 35.5432 41.1032 38.0433C39.9395 39.2933 38.5113 40.2308 36.8716 40.9079H27.8795C26.3985 40.335 25.0761 39.4496 23.9653 38.3558C24.0182 34.0328 28.8316 36.5328 29.9953 33.4598C30.2069 32.8869 30.2069 32.0015 30.1011 31.3765L32.4285 31.4285L34.7558 31.3765C34.5971 32.0015 34.5971 32.8869 34.8087 33.4598Z" fill="#F0C17D"/>
<path fill-rule="evenodd" clip-rule="evenodd" d="M34.8083 33.4598C34.9141 33.7724 35.3901 34.189 35.9191 34.4495C38.7225 35.6474 40.7854 35.5953 41.0499 38.0433C39.8862 39.2933 38.458 40.2308 36.8183 40.9079H32.3223V31.4285L34.6496 31.3765C34.5967 32.0015 34.5967 32.8869 34.8083 33.4598Z" fill="#E0AF6A"/>
<path fill-rule="evenodd" clip-rule="evenodd" d="M29.5718 33.8765L32.3752 34.189L35.2315 33.8765L34.967 42.6267H29.8891L29.5718 33.8765Z" fill="#0EA8B3"/>
<path fill-rule="evenodd" clip-rule="evenodd" d="M32.4283 32.7828C31.8993 32.7828 31.6349 32.7828 31.3704 32.6786C31.1059 32.5744 31.0001 32.314 30.6299 32.0015C30.3125 31.7411 29.7836 31.4286 29.6778 31.1161C29.5191 30.7515 29.572 30.3348 29.4662 29.7619C29.2017 29.9181 28.8843 29.1369 28.8315 28.8764C28.7257 28.5118 28.4612 27.8347 28.3554 27.4181C28.3025 27.1576 28.3554 26.9493 28.4083 26.8972C28.6199 26.741 28.7786 26.8451 29.043 27.2097C29.043 26.6368 29.043 26.2201 29.0959 25.8034C29.4662 23.6159 34.8614 22.4179 35.4433 25.8034C35.4962 26.2201 35.4962 26.6889 35.4962 27.2097C35.7606 26.8451 35.9722 26.741 36.1309 26.8972C36.2367 26.9493 36.2367 27.1576 36.1838 27.4181C36.078 27.8347 35.8135 28.5118 35.7077 28.8764C35.6549 29.1369 35.3375 29.9181 35.073 29.7619C35.0201 30.2827 35.0201 30.6994 34.9143 31.064C34.8085 31.3765 34.2267 31.689 33.9622 31.9494C33.592 32.314 33.4862 32.5223 33.2217 32.6265C33.1159 32.7828 32.9043 32.7828 32.4283 32.7828Z" fill="#FFDBA7"/>
<path fill-rule="evenodd" clip-rule="evenodd" d="M32.4284 32.783H32.3755V23.7203C33.8036 23.6161 35.2847 24.1369 35.5492 25.8036C35.6021 26.2203 35.6021 26.6891 35.6021 27.2099C35.8665 26.8453 36.0781 26.7412 36.2368 26.8974C36.3426 26.9495 36.3426 27.1578 36.2897 27.4183C36.1839 27.8349 35.9194 28.512 35.8136 28.8766C35.7607 29.137 35.4434 29.9183 35.1789 29.7621C35.126 30.2829 35.126 30.6996 35.0202 31.0642C34.9144 31.3767 34.3326 31.6892 34.0681 31.9496C33.6978 32.3142 33.5921 32.5225 33.3276 32.6267C33.116 32.783 32.9044 32.783 32.4284 32.783Z" fill="#F0C17D"/>
<path fill-rule="evenodd" clip-rule="evenodd" d="M29.5718 33.8242C28.0908 35.1263 25.1816 34.5013 23.7534 36.5326C22.96 37.6785 23.1716 39.9181 23.1716 42.6265H31.6347C30.9471 40.3348 30.1008 35.4388 29.5718 33.8242Z" fill="#134861"/>
<path fill-rule="evenodd" clip-rule="evenodd" d="M32.4285 34.2407L33.169 35.3345V35.5949L32.5343 36.2199L33.2219 37.2616L33.0103 42.6263H31.7938L31.5293 37.2616L32.2169 36.1678L31.5822 35.5949V35.3345L32.3227 34.2407H32.4285Z" fill="#266590"/>
<path fill-rule="evenodd" clip-rule="evenodd" d="M32.4284 34.2407L33.1689 35.3345V35.5949L32.5342 36.2199L33.2218 37.2616L33.0102 42.6263H32.3755V34.2407H32.4284Z" fill="#134861"/>
<path fill-rule="evenodd" clip-rule="evenodd" d="M29.5717 33.8242C29.2543 34.0846 28.7254 34.3451 28.1436 34.5534H28.1964L28.1436 37.5743L29.4659 37.418L28.6725 38.4077L29.8362 42.5744H31.5817C30.947 40.3348 30.1007 35.4388 29.5717 33.8242Z" fill="#266590"/>
<path fill-rule="evenodd" clip-rule="evenodd" d="M29.9421 25.2823C29.466 25.8031 29.3602 27.9386 29.4131 28.6678C28.6197 25.9073 28.2494 23.9281 29.8892 22.7301C32.1107 21.1155 34.5439 22.1051 34.967 22.7822C36.6068 23.6677 36.0249 26.1156 35.5489 28.3032C35.5489 27.4698 35.1257 25.4385 34.8084 24.6052C33.5389 23.8239 31.1057 26.0636 29.9421 25.2823Z" fill="#FDB813"/>
<path fill-rule="evenodd" clip-rule="evenodd" d="M32.3755 21.7929C33.645 21.7408 34.7028 22.3137 34.9673 22.7304C36.6071 23.6158 36.0252 26.0638 35.5492 28.2513C35.5492 27.418 35.126 25.3867 34.8086 24.5533C34.2268 24.1888 33.2747 24.5533 32.3755 24.9179V21.7929Z" fill="#FC9E0A"/>
<path fill-rule="evenodd" clip-rule="evenodd" d="M35.1789 33.8242C36.66 35.1263 39.5692 34.5013 40.9973 36.5326C41.7908 37.6785 41.5792 39.9181 41.5792 42.6265H33.1689C33.8037 40.3348 34.65 35.4388 35.1789 33.8242Z" fill="#0F303F"/>
<path fill-rule="evenodd" clip-rule="evenodd" d="M35.1788 33.8242C35.3904 33.9805 36.6069 34.5534 36.6069 34.5534L36.6598 37.5743L35.3375 37.418L36.1309 38.4077L35.073 42.5744H33.2217C33.8035 40.3869 34.6498 35.4388 35.1788 33.8242Z" fill="#134861"/>
<path fill-rule="evenodd" clip-rule="evenodd" d="M47.6093 35.3869C47.7151 35.6994 48.244 36.1161 48.8259 36.3244C50.9416 37.1057 51.8937 37.0536 52.5814 38.9808C51.6822 39.9704 50.5185 40.6995 49.249 41.2204H42.1611C40.9975 40.7516 39.9396 40.0745 39.0933 39.1891C39.1462 35.8036 42.9546 37.7828 43.8538 35.3348C44.0125 34.8661 44.0125 34.189 43.9067 33.7202L45.758 33.7723L47.6093 33.7202C47.4506 34.2411 47.4506 34.9182 47.6093 35.3869Z" fill="#F0C17D"/>
<path fill-rule="evenodd" clip-rule="evenodd" d="M47.6088 35.3869C47.7146 35.6473 48.032 35.9598 48.508 36.1682C50.7296 37.1057 52.3164 37.0536 52.5809 38.9808C51.6817 39.9704 50.518 40.6995 49.2485 41.2204H45.7046V33.7723L47.5559 33.7202C47.4501 34.2411 47.4501 34.9182 47.6088 35.3869Z" fill="#E0AF6A"/>
<path fill-rule="evenodd" clip-rule="evenodd" d="M43.4834 35.6992L45.705 35.9596L47.9794 35.6992L47.7679 42.6265H43.695L43.4834 35.6992Z" fill="#A0E8E8"/>
<path fill-rule="evenodd" clip-rule="evenodd" d="M45.7574 34.8659C45.7045 34.8659 45.7045 34.8659 45.7574 34.8659C45.3343 34.8659 45.1756 34.8659 44.964 34.7617C44.7524 34.6576 44.6466 34.5013 44.3822 34.2409C44.1706 34.0326 43.7474 33.7721 43.6417 33.5638C43.5359 33.2513 43.5359 32.9388 43.483 32.5221C43.2714 32.6263 43.0069 32.0013 43.0069 31.845C42.954 31.5325 42.7424 31.0637 42.6367 30.6992C42.5838 30.4908 42.6367 30.3346 42.6895 30.2825C42.8482 30.1783 43.0069 30.2304 43.2185 30.5429C43.2185 30.1262 43.2185 29.7616 43.2714 29.4491C43.5888 27.7303 47.8203 26.7928 48.2964 29.4491C48.3493 29.7616 48.3493 30.1262 48.3493 30.5429C48.5608 30.2304 48.7195 30.1783 48.8782 30.2825C48.9311 30.3346 48.984 30.4908 48.9311 30.6992C48.8782 31.0637 48.6666 31.5325 48.5608 31.845C48.5079 32.0533 48.2964 32.6263 48.0848 32.5742C48.0319 32.9909 48.0848 33.3034 47.9261 33.6159C47.8203 33.8763 47.3972 34.0846 47.1856 34.293C46.9211 34.5534 46.8153 34.7617 46.6037 34.8659C46.2864 34.8138 46.0748 34.8659 45.7574 34.8659Z" fill="#FFDBA7"/>
<path fill-rule="evenodd" clip-rule="evenodd" d="M45.7575 34.8657C45.7046 34.8657 45.7046 34.8657 45.7575 34.8657L45.7046 27.7301C46.8154 27.626 47.9791 28.0426 48.1906 29.3447C48.2435 29.6573 48.2435 30.0218 48.2435 30.4385C48.4551 30.126 48.6138 30.0739 48.7725 30.1781C48.8254 30.2302 48.8783 30.3864 48.8254 30.5948C48.7725 30.9594 48.5609 31.4281 48.4551 31.7406C48.4022 31.949 48.1906 32.5219 47.9791 32.4698C47.9262 32.8865 47.9791 33.199 47.8204 33.5115C47.7146 33.7719 47.2914 33.9803 47.0799 34.1886C46.8154 34.449 46.7096 34.6574 46.498 34.7615C46.2864 34.8136 46.0749 34.8657 45.7575 34.8657Z" fill="#F0C17D"/>
<path fill-rule="evenodd" clip-rule="evenodd" d="M47.5027 34.918C47.5556 35.2826 47.6614 35.491 47.9258 35.6473L46.815 37.5226L45.6514 35.9077C46.2332 35.5952 47.2911 35.2305 47.5027 34.918Z" fill="#DBFBF6"/>
<path fill-rule="evenodd" clip-rule="evenodd" d="M43.8533 34.918C43.8004 35.2826 43.6946 35.491 43.4302 35.6473L44.541 37.5226L45.7046 35.9077C45.1228 35.5952 44.1178 35.2305 43.8533 34.918Z" fill="#DBFBF6"/>
<path fill-rule="evenodd" clip-rule="evenodd" d="M43.4831 35.6992C42.3195 36.6888 39.9921 36.2201 38.8813 37.8347C38.2466 38.7201 38.4582 40.491 38.4053 42.6265H45.07C44.5939 40.8035 43.9063 36.8972 43.4831 35.6992Z" fill="#5CB0A3"/>
<path fill-rule="evenodd" clip-rule="evenodd" d="M45.7576 36.0117L46.3395 36.8451L46.2866 37.0534L45.8105 37.5222L46.3923 38.3555L46.1808 42.6265H45.2287L45.0171 38.3555L45.546 37.5222L45.07 37.0534V36.8451L45.6518 36.0117H45.7576Z" fill="#70C4B7"/>
<path fill-rule="evenodd" clip-rule="evenodd" d="M45.7575 36.0117L46.3393 36.8451L46.2864 37.0534L45.8104 37.5222L46.3922 38.3555L46.1806 42.6265H45.7046V36.0117H45.7575Z" fill="#5CB0A3"/>
<path fill-rule="evenodd" clip-rule="evenodd" d="M43.4835 35.6992C43.219 35.9076 42.7959 36.1159 42.3727 36.2721L42.3198 38.668L43.3777 38.5639L42.7959 39.3451L43.6951 42.6265H45.0703C44.5414 40.8035 43.9067 36.8972 43.4835 35.6992Z" fill="#70C4B7"/>
<path fill-rule="evenodd" clip-rule="evenodd" d="M43.7475 28.9283C43.3773 29.3449 43.3244 31.0116 43.3244 31.5846C42.7425 29.397 42.3723 27.8866 43.6946 26.897C45.4401 25.5948 47.3443 26.4282 47.6617 26.949C48.9312 27.6261 48.508 29.6053 48.0849 31.3241C48.0849 30.647 47.7675 29.0845 47.503 28.4074C46.6038 27.7824 44.6996 29.5533 43.7475 28.9283Z" fill="#703100"/>
<path fill-rule="evenodd" clip-rule="evenodd" d="M45.7047 26.2198C46.7097 26.1677 47.5561 26.6365 47.7147 26.949C48.9842 27.6261 48.5611 29.6053 48.1379 31.3241C48.1379 30.647 47.8205 29.0845 47.5561 28.4074C47.08 28.0949 46.3395 28.4074 45.6519 28.6678V26.2198H45.7047Z" fill="#4F2200"/>
<path fill-rule="evenodd" clip-rule="evenodd" d="M47.9262 35.6992C49.0899 36.6888 51.4172 36.2201 52.528 37.8347C53.1627 38.7201 52.9512 40.491 53.0041 42.6265H46.3394C46.8154 40.8035 47.503 36.8972 47.9262 35.6992Z" fill="#49998D"/>
<path fill-rule="evenodd" clip-rule="evenodd" d="M47.9264 35.6992C48.085 35.8034 49.0371 36.2721 49.0371 36.2721L49.09 38.668L48.0321 38.5639L48.614 39.3451L47.7677 42.6265H46.2866C46.8156 40.8035 47.5032 36.9492 47.9264 35.6992Z" fill="#5CB0A3"/>
<path fill-rule="evenodd" clip-rule="evenodd" d="M21.003 35.3869C21.1088 35.6994 21.6377 36.1161 22.2196 36.3244C24.3353 37.1057 25.2875 37.0536 25.9751 38.9808C25.0759 39.9704 23.9122 40.6995 22.6427 41.2204H15.502C14.3383 40.7516 13.2804 40.0745 12.4341 39.1891C12.487 35.8036 16.2954 37.7828 17.1946 35.3348C17.3533 34.8661 17.3533 34.189 17.2475 33.7202L19.0988 33.7723L20.9501 33.7202C20.7914 34.2411 20.7914 34.9182 21.003 35.3869Z" fill="#F0C17D"/>
<path fill-rule="evenodd" clip-rule="evenodd" d="M21.0033 35.3869C21.1091 35.6473 21.4265 35.9598 21.9025 36.1682C24.1241 37.1057 25.7109 37.0536 25.9754 38.9808C25.0762 39.9704 23.9125 40.6995 22.6431 41.2204H19.0991V33.7723L20.9504 33.7202C20.7917 34.2411 20.7917 34.9182 21.0033 35.3869Z" fill="#E0AF6A"/>
<path fill-rule="evenodd" clip-rule="evenodd" d="M16.8247 35.6992L19.0463 35.9596L21.3207 35.6992L21.1092 42.6265H17.0892L16.8247 35.6992Z" fill="#A0E8E8"/>
<path fill-rule="evenodd" clip-rule="evenodd" d="M19.0987 34.8659C18.6756 34.8659 18.5169 34.8659 18.3053 34.7617C18.0937 34.6576 17.988 34.5013 17.7235 34.2409C17.5119 34.0326 17.0888 33.7721 16.983 33.5638C16.8772 33.2513 16.8772 32.9388 16.8243 32.5221C16.6127 32.6263 16.3482 32.0013 16.3482 31.845C16.2953 31.5325 16.0838 31.0637 15.978 30.6992C15.9251 30.4908 15.978 30.3346 16.0309 30.2825C16.1895 30.1783 16.3482 30.2304 16.5598 30.5429C16.5598 30.1262 16.5598 29.7616 16.6127 29.4491C16.9301 27.7303 21.1616 26.7928 21.6377 29.4491C21.6906 29.7616 21.6906 30.1262 21.6906 30.5429C21.9022 30.2304 22.0608 30.1783 22.2195 30.2825C22.2724 30.3346 22.3253 30.4908 22.2724 30.6992C22.2195 31.0637 22.0079 31.5325 21.9022 31.845C21.8493 32.0533 21.6377 32.6263 21.4261 32.5742C21.3732 32.9909 21.4261 33.3034 21.2674 33.6159C21.1616 33.8763 20.7385 34.0846 20.5269 34.293C20.2624 34.5534 20.1566 34.7617 19.9451 34.8659C19.6277 34.8138 19.469 34.8659 19.0987 34.8659Z" fill="#FFDBA7"/>
<path fill-rule="evenodd" clip-rule="evenodd" d="M19.0993 34.8657L19.0464 27.7301C20.1572 27.626 21.3209 28.0426 21.5324 29.3447C21.5853 29.6573 21.5853 30.0218 21.5853 30.4385C21.7969 30.126 21.9556 30.0739 22.1143 30.1781C22.1672 30.2302 22.2201 30.3864 22.1672 30.5948C22.1143 30.9594 21.9027 31.4281 21.7969 31.7406C21.744 31.949 21.5324 32.5219 21.3209 32.4698C21.268 32.8865 21.3209 33.199 21.1622 33.5115C21.0564 33.7719 20.6332 33.9803 20.4216 34.1886C20.1572 34.449 20.0514 34.6574 19.8398 34.7615C19.6282 34.8136 19.4695 34.8657 19.0993 34.8657Z" fill="#F0C17D"/>
<path fill-rule="evenodd" clip-rule="evenodd" d="M20.8977 34.918C20.9506 35.2826 21.0564 35.491 21.3209 35.6473L20.2101 37.5226L19.0464 35.9077C19.6282 35.5952 20.6332 35.2305 20.8977 34.918Z" fill="#DBFBF6"/>
<path fill-rule="evenodd" clip-rule="evenodd" d="M17.2479 34.918C17.195 35.2826 17.0892 35.491 16.8247 35.6473L17.9355 37.5226L19.0992 35.9077C18.5173 35.5952 17.4594 35.2305 17.2479 34.918Z" fill="#DBFBF6"/>
<path fill-rule="evenodd" clip-rule="evenodd" d="M16.8245 35.6992C15.6608 36.6888 13.3334 36.2201 12.2226 37.8347C11.5879 38.7201 11.7995 40.491 11.7466 42.6265H18.4113C17.9352 40.8035 17.2476 36.8972 16.8245 35.6992Z" fill="#5CB0A3"/>
<path fill-rule="evenodd" clip-rule="evenodd" d="M19.0989 36.0117L19.6808 36.8451V37.0534L19.2047 37.5222L19.7337 38.3555L19.575 42.6265H18.57L18.3584 38.3555L18.9402 37.5222L18.4642 37.0534L18.4113 36.8451L18.9931 36.0117H19.0989Z" fill="#70C4B7"/>
<path fill-rule="evenodd" clip-rule="evenodd" d="M19.0993 36.0117L19.6811 36.8451V37.0534L19.2051 37.5222L19.734 38.3555L19.5753 42.6265H19.0464V36.0117H19.0993Z" fill="#5CB0A3"/>
<path fill-rule="evenodd" clip-rule="evenodd" d="M16.8243 35.6992C16.5599 35.9076 16.1367 36.1159 15.7135 36.2721L15.6606 38.668L16.7185 38.5639L16.1367 39.3451L17.0359 42.6265H18.4112C17.9351 40.8035 17.2475 36.8972 16.8243 35.6992Z" fill="#70C4B7"/>
<path fill-rule="evenodd" clip-rule="evenodd" d="M17.1416 28.9283C16.7713 29.3449 16.7184 31.0116 16.7184 31.5846C16.1366 29.397 15.7663 27.8866 17.0887 26.897C18.8342 25.5948 20.7384 26.4282 21.0557 26.949C22.3252 27.6261 21.9021 29.6053 21.4789 31.3241C21.4789 30.647 21.1615 29.0845 20.8971 28.4074C19.9979 27.7824 18.0408 29.5533 17.1416 28.9283Z" fill="#703100"/>
<path fill-rule="evenodd" clip-rule="evenodd" d="M19.0461 26.2198C20.0511 26.1677 20.8974 26.6365 21.056 26.949C22.3255 27.6261 21.9024 29.6053 21.4792 31.3241C21.4792 30.647 21.1618 29.0845 20.8974 28.4074C20.4213 28.0949 19.6808 28.4074 18.9932 28.6678V26.2198H19.0461Z" fill="#4F2200"/>
<path fill-rule="evenodd" clip-rule="evenodd" d="M21.2675 35.6992C22.4312 36.6888 24.7585 36.2201 25.8693 37.8347C26.5041 38.7201 26.2925 40.491 26.3454 42.6265H19.6807C20.1567 40.8035 20.8443 36.8972 21.2675 35.6992Z" fill="#49998D"/>
<path fill-rule="evenodd" clip-rule="evenodd" d="M21.2675 35.6992C21.4262 35.8034 22.3783 36.2721 22.3783 36.2721L22.4312 38.668L21.3733 38.5639L21.9551 39.3451L21.1088 42.6265H19.6807C20.2096 40.8035 20.8443 36.9492 21.2675 35.6992Z" fill="#5CB0A3"/>
</svg>
