<svg width="65" height="64" viewBox="0 0 65 64" fill="none" xmlns="http://www.w3.org/2000/svg">
<path d="M58.6716 31.9697C58.6716 33.4319 58.5498 34.8942 58.3061 36.2955C56.2345 48.6029 45.5113 57.9857 32.6556 57.9857C32.1072 57.9857 31.498 57.9857 30.9496 57.9248C17.3019 57.1327 6.57861 45.8002 6.57861 31.9697C6.57861 17.5908 18.2158 5.95361 32.5947 5.95361C46.9736 5.95361 58.6716 17.5908 58.6716 31.9697Z" fill="#CC2027"/>
<path d="M46.6083 40.8041C46.6083 41.2306 46.2427 41.5962 45.8163 41.5962H19.4346C19.0081 41.5962 18.6426 41.2306 18.6426 40.8041V24.963C18.6426 24.5365 19.0081 24.1709 19.4346 24.1709H45.8163C46.2427 24.1709 46.6083 24.5365 46.6083 24.963V40.8041Z" fill="#284962"/>
<path d="M44.8412 25.3892H20.4702V40.3164H44.8412V25.3892Z" fill="white"/>
<path d="M48.6186 43.7286C48.1922 44.277 47.4001 44.277 46.9736 44.277H18.3377C17.9112 44.277 17.3628 44.3379 16.6926 43.7286L15.7787 42.6929C15.535 42.4492 15.535 42.1445 16.5708 42.1445H48.7405C49.7153 42.1445 49.7153 42.4492 49.5326 42.6929L48.6186 43.7286Z" fill="#284962"/>
<path d="M39.6621 37.8191H25.2832V33.8589L32.5336 31.9092L39.6621 33.8589V37.8191Z" fill="#D93D15"/>
<path d="M38.5046 19.7236H26.7456V37.8191H38.5046V19.7236Z" fill="#D5ECFC"/>
<path d="M31.0105 22.526H30.7059V21.4293H30.3403V21.1855H31.3761V21.4293H31.0105V22.526Z" fill="#14B0BF"/>
<path d="M32.4122 22.526H31.6201V21.1855H32.4122V21.4293H31.9248V21.7339H32.4122V21.9776H31.9248V22.3432H32.4122V22.526Z" fill="#14B0BF"/>
<path d="M33.4477 22.1604C33.4477 22.2822 33.3868 22.4041 33.3259 22.465C33.2649 22.526 33.1431 22.5869 32.9603 22.5869C32.8384 22.5869 32.7166 22.5869 32.5947 22.526V22.2822C32.6557 22.3432 32.7775 22.3432 32.8384 22.3432C32.8994 22.3432 32.9603 22.3432 33.0212 22.3432C33.0821 22.3432 33.1431 22.3432 33.1431 22.2822C33.204 22.2822 33.204 22.2213 33.204 22.1604V22.0995L33.1431 22.0385C33.1431 22.0385 33.0821 21.9776 32.9603 21.9167C32.8994 21.8558 32.8384 21.8557 32.7775 21.7948C32.7166 21.7339 32.7166 21.7339 32.6557 21.673C32.6557 21.612 32.5947 21.5511 32.5947 21.4902C32.5947 21.3683 32.6557 21.3074 32.7166 21.1855C32.7775 21.1855 32.8994 21.1855 33.0821 21.1855C33.1431 21.1855 33.204 21.1855 33.2649 21.1855C33.3259 21.1855 33.3868 21.2465 33.4477 21.2465L33.3868 21.4902C33.3259 21.4902 33.2649 21.4293 33.204 21.4293C33.1431 21.4293 33.0821 21.4293 33.0821 21.4293C33.0212 21.4293 32.9603 21.4293 32.9603 21.4902C32.9603 21.4902 32.8994 21.5511 32.8994 21.612V21.673C32.8994 21.673 32.8994 21.7339 32.9603 21.7339C32.9603 21.7339 33.0212 21.7948 33.1431 21.8557C33.2649 21.9167 33.3259 21.9776 33.3868 22.0385C33.4477 21.9776 33.4477 22.0995 33.4477 22.1604Z" fill="#14B0BF"/>
<path d="M34.24 22.526H33.9354V21.4293H33.5698V21.1855H34.6056V21.4293H34.24V22.526Z" fill="#14B0BF"/>
<path d="M28.5123 25.5728H27.4766V26.6085H28.5123V25.5728Z" fill="#A6DAE8"/>
<path d="M28.5123 26.9131H27.4766V27.9489H28.5123V26.9131Z" fill="#A6DAE8"/>
<path d="M28.5123 28.1929H27.4766V29.2286H28.5123V28.1929Z" fill="#A6DAE8"/>
<path d="M28.5123 31.543H27.4766V32.5787H28.5123V31.543Z" fill="#A6DAE8"/>
<path d="M28.5123 32.8228H27.4766V33.8585H28.5123V32.8228Z" fill="#A6DAE8"/>
<path d="M28.5123 34.1631H27.4766V35.1989H28.5123V34.1631Z" fill="#A6DAE8"/>
<path d="M37.3468 23.501H29.1216V24.5367H37.3468V23.501Z" fill="#A6DAE8"/>
<path d="M37.3468 30.02H29.1216V31.0558H37.3468V30.02Z" fill="#A6DAE8"/>
<path d="M37.3468 25.9985H29.1216V26.3032H37.3468V25.9985Z" fill="#A6DAE8"/>
<path d="M37.3468 27.2783H29.1216V27.583H37.3468V27.2783Z" fill="#A6DAE8"/>
<path d="M37.3468 28.5581H29.1216V28.8627H37.3468V28.5581Z" fill="#A6DAE8"/>
<path d="M37.3468 34.4072H29.1216V34.7119H37.3468V34.4072Z" fill="#A6DAE8"/>
<path d="M37.3468 32.0308H29.1216V32.3354H37.3468V32.0308Z" fill="#A6DAE8"/>
<path d="M37.3468 33.1885H29.1216V33.4931H37.3468V33.1885Z" fill="#A6DAE8"/>
<path d="M39.6621 40.0119H25.2832V34.5894L32.4726 37.3311L39.6621 34.5894V40.0119Z" fill="#FFB700"/>
<path d="M38.7482 37.6359C38.7482 37.8187 38.7483 37.9406 38.6873 38.1233C38.6264 38.2452 38.5655 38.3671 38.4436 38.4889C38.3218 38.5498 38.1999 38.6108 38.078 38.6108C38.0171 38.6108 37.8953 38.6108 37.8343 38.5498C37.7734 38.4889 37.7125 38.428 37.7125 38.3671C37.5906 38.5498 37.4078 38.6108 37.2251 38.6108C37.0423 38.6108 36.8595 38.5498 36.7376 38.428C36.6158 38.3061 36.5549 38.1233 36.5549 37.8796C36.5549 37.6359 36.6158 37.3922 36.7986 37.2704C36.9814 37.0876 37.1641 37.0266 37.4078 37.0266C37.5297 37.0266 37.6516 37.0266 37.7734 37.0266C37.8953 37.0266 38.0171 37.0876 38.078 37.0876L38.0171 37.9406C38.0171 38.1233 38.078 38.1843 38.139 38.1843C38.1999 38.1843 38.2608 38.1233 38.3218 38.0015C38.3827 37.8796 38.3827 37.7578 38.3827 37.575C38.3827 37.3922 38.3218 37.2094 38.2608 37.0876C38.1999 36.9657 38.078 36.8439 37.8953 36.722C37.7734 36.6611 37.5906 36.6002 37.4078 36.6002C37.1641 36.6002 36.9814 36.6611 36.7986 36.722C36.6158 36.8439 36.4939 36.9657 36.3721 37.1485C36.2502 37.3313 36.2502 37.575 36.2502 37.8187C36.2502 38.1233 36.3111 38.428 36.4939 38.6108C36.6767 38.7935 36.9204 38.8545 37.286 38.8545C37.4078 38.8545 37.5297 38.8545 37.7125 38.7935C37.8953 38.7935 38.0171 38.7326 38.139 38.6717V39.0373C37.8953 39.1591 37.5906 39.22 37.286 39.22C36.8595 39.22 36.4939 39.0982 36.1893 38.8545C35.9456 38.6108 35.8237 38.3061 35.8237 37.8796C35.8237 37.575 35.8847 37.3313 36.0065 37.0876C36.1284 36.8439 36.3112 36.6611 36.5549 36.5392C36.7986 36.4174 37.0423 36.3564 37.4078 36.3564C37.6516 36.3564 37.8953 36.4174 38.139 36.5392C38.3218 36.6611 38.5045 36.7829 38.6264 37.0266C38.6873 37.1485 38.7482 37.3922 38.7482 37.6359ZM36.9204 37.8796C36.9204 38.1233 37.0423 38.2452 37.2251 38.2452C37.3469 38.2452 37.4078 38.1843 37.4688 38.1233C37.5297 38.0624 37.5297 37.9406 37.5906 37.7578V37.3313C37.5297 37.3313 37.4688 37.3313 37.4078 37.3313C37.286 37.3313 37.1641 37.3922 37.0423 37.4531C36.9814 37.575 36.9204 37.6969 36.9204 37.8796Z" fill="white"/>
</svg>
