<svg width="65" height="64" viewBox="0 0 65 64" fill="none" xmlns="http://www.w3.org/2000/svg">
<ellipse cx="32.1251" cy="32.0001" rx="26.0465" ry="26.0465" fill="#FFA347"/>
<path d="M43.4916 25.355H22.1914C20.8022 25.355 19.6909 26.4663 19.6909 27.8554V42.4415C19.6909 43.8306 20.8022 44.942 22.1914 44.942H43.4916C44.8808 44.942 45.9921 43.8306 45.9921 42.4415V27.8554C45.9921 26.5126 44.8808 25.355 43.4916 25.355Z" fill="#B0BEC5"/>
<path d="M21.821 27.207H21.6821V43.0896H37.7036H43.2602V27.207H21.821Z" fill="#2A445D"/>
<path d="M45.529 35.1717C45.529 35.6811 45.1122 36.0978 44.6029 36.0978C44.0935 36.0978 43.6768 35.6811 43.6768 35.1717C43.6768 34.6623 44.0935 34.2456 44.6029 34.2456C45.1122 34.2456 45.529 34.6623 45.529 35.1717Z" fill="#CFD8DC"/>
<path d="M21.5892 35.1715C21.5892 35.5883 21.265 35.9124 20.8483 35.9124C20.4316 35.9124 20.1074 35.5883 20.1074 35.1715C20.1074 34.7548 20.4316 34.4307 20.8483 34.4307C21.265 34.4307 21.5892 34.7548 21.5892 35.1715Z" fill="#90A4AE"/>
<path d="M27.7942 34.4771H24.3677V40.6819H27.7942V34.4771Z" fill="#A6DAE8"/>
<path d="M31.9153 31.1895H28.4888V40.682H31.9153V31.1895Z" fill="#F94E63"/>
<path d="M35.99 28.1797H32.5635V40.682H35.99V28.1797Z" fill="#17C5CC"/>
<path d="M40.1111 33.5508H36.6846V40.6817H40.1111V33.5508Z" fill="#FFD740"/>
<path d="M24.6917 31.9773C24.5991 31.9773 24.5064 31.931 24.4138 31.8847C24.1823 31.7458 24.136 31.4217 24.2749 31.1902L28.8591 24.4296C28.9517 24.2907 29.0906 24.2444 29.2295 24.1981C29.3685 24.1981 29.5537 24.2444 29.6463 24.337L34.4157 29.1064L39.7408 20.2622C39.8797 20.0307 40.2038 19.9381 40.4353 20.077C40.6669 20.2159 40.7595 20.54 40.6206 20.7716L34.9714 30.1715C34.8787 30.3104 34.7398 30.403 34.6009 30.403C34.462 30.403 34.2768 30.3567 34.1842 30.2641L29.3685 25.4947L25.1084 31.7458C25.0158 31.8847 24.8769 31.9773 24.6917 31.9773Z" fill="#F62F48"/>
<path d="M26.2197 31.6526C26.2197 32.4861 25.5251 33.1806 24.6916 33.1806C23.8581 33.1806 23.1636 32.4861 23.1636 31.6526C23.1636 30.8191 23.8581 30.1245 24.6916 30.1245C25.5251 30.1245 26.2197 30.8191 26.2197 31.6526Z" fill="#F94E63"/>
<path d="M30.8042 25.1238C30.8042 25.9573 30.1096 26.6518 29.2761 26.6518C28.4426 26.6518 27.748 25.9573 27.748 25.1238C27.748 24.2903 28.4426 23.5957 29.2761 23.5957C30.1096 23.5957 30.8042 24.244 30.8042 25.1238Z" fill="#F94E63"/>
<path d="M35.8974 29.6155C35.8974 30.449 35.2029 31.1435 34.3694 31.1435C33.5359 31.1435 32.8413 30.449 32.8413 29.6155C32.8413 28.782 33.5359 28.0874 34.3694 28.0874C35.2029 28.0874 35.8974 28.782 35.8974 29.6155Z" fill="#F94E63"/>
<path d="M41.5469 20.5862C41.5469 21.4197 40.8523 22.1142 40.0188 22.1142C39.1853 22.1142 38.4907 21.4197 38.4907 20.5862C38.4907 19.7527 39.1853 19.0581 40.0188 19.0581C40.8986 19.0581 41.5469 19.7527 41.5469 20.5862Z" fill="#F94E63"/>
</svg>
