<svg version="1.1" id="Layer_1" xmlns="http://www.w3.org/2000/svg" xmlns:xlink="http://www.w3.org/1999/xlink" x="0px" y="0px"
	 width="100%" viewBox="0 0 512 512" enable-background="new 0 0 512 512" xml:space="preserve">
<path fill="#FFFFFF" opacity="1.000000" stroke="none" 
	d="
M1.000000,134.000000 
	C1.000000,89.333336 1.000000,45.166668 1.000000,1.000000 
	C171.666672,1.000000 342.333344,1.000000 513.000000,1.000000 
	C513.000000,171.666672 513.000000,342.333344 513.000000,513.000000 
	C342.333344,513.000000 171.666672,513.000000 1.000000,513.000000 
	C1.000000,386.833344 1.000000,260.666656 1.000000,134.000000 
M447.005005,483.143066 
	C447.312927,480.180573 447.889404,477.218201 447.890228,474.255615 
	C447.931549,329.278229 447.927643,184.300858 447.914001,39.323486 
	C447.912628,24.570896 440.235260,16.997747 425.374115,16.997103 
	C338.554321,16.993340 251.734528,16.995720 164.914734,16.996000 
	C138.918793,16.996084 112.922699,17.045948 86.927010,16.964487 
	C79.529175,16.941305 73.097000,19.414459 69.573242,25.787243 
	C67.292656,29.911715 66.222412,35.227154 66.215805,40.011135 
	C66.040428,166.991089 66.052292,293.971344 66.206383,420.951355 
	C66.210045,423.967865 67.486755,427.563354 69.383369,429.906403 
	C86.568909,451.137360 104.057816,472.122467 121.363731,493.256683 
	C123.709831,496.121857 126.392281,497.066071 130.016830,497.063416 
	C228.834686,496.990753 327.652618,496.985809 426.470520,497.033173 
	C436.194183,497.037811 443.039154,492.980713 447.005005,483.143066 
z"/>
<path fill="#030303" opacity="1.000000" stroke="none" 
	d="
M446.895996,483.533142 
	C443.039154,492.980713 436.194183,497.037811 426.470520,497.033173 
	C327.652618,496.985809 228.834686,496.990753 130.016830,497.063416 
	C126.392281,497.066071 123.709831,496.121857 121.363731,493.256683 
	C104.057816,472.122467 86.568909,451.137360 69.383369,429.906403 
	C67.486755,427.563354 66.210045,423.967865 66.206383,420.951355 
	C66.052292,293.971344 66.040428,166.991089 66.215805,40.011135 
	C66.222412,35.227154 67.292656,29.911715 69.573242,25.787243 
	C73.097000,19.414459 79.529175,16.941305 86.927010,16.964487 
	C112.922699,17.045948 138.918793,16.996084 164.914734,16.996000 
	C251.734528,16.995720 338.554321,16.993340 425.374115,16.997103 
	C440.235260,16.997747 447.912628,24.570896 447.914001,39.323486 
	C447.927643,184.300858 447.931549,329.278229 447.890228,474.255615 
	C447.889404,477.218201 447.312927,480.180573 446.895996,483.533142 
M166.010788,65.997902 
	C166.010788,65.997902 166.007751,66.022339 166.137146,66.471375 
	C166.297836,66.762070 166.539688,66.946129 166.967300,67.011330 
	C166.967300,67.011330 166.970108,67.116592 167.100174,67.788139 
	C167.753876,66.955162 168.917633,66.158424 168.979797,65.283432 
	C169.436905,58.847706 170.027161,52.388107 169.877197,45.952297 
	C169.737320,39.948719 168.737045,33.965191 168.054001,28.008171 
	C168.054001,28.008171 168.024017,27.943897 167.908417,27.276663 
	C166.683838,26.788771 165.442719,25.845097 164.237457,25.888874 
	C157.685913,26.126833 151.140594,26.569899 144.598663,27.022505 
	C141.388733,27.244583 138.190811,27.639927 134.982407,28.008060 
	C134.982407,28.008060 134.945343,27.972343 134.264709,28.020119 
	C133.298447,28.536879 132.332184,29.053640 131.104309,29.710308 
	C132.275452,31.294662 133.287918,32.664349 134.553696,34.923595 
	C134.661896,39.276306 134.770096,43.629017 134.653488,48.891212 
	C134.534332,52.644947 134.415176,56.398685 134.077667,60.455860 
	C134.042343,60.616875 133.950348,60.790749 133.983368,60.936245 
	C134.054214,61.248241 134.189560,61.545586 134.548111,62.655182 
	C134.475632,63.488270 134.403152,64.321358 134.022736,65.665161 
	C133.950790,66.675659 133.878830,67.686157 133.806885,68.696655 
	C134.545181,68.166603 135.283478,67.636551 136.006332,67.019348 
	C136.006332,67.019348 136.094238,67.009071 136.531998,66.796013 
	C136.802948,66.581245 136.952850,66.301567 137.067932,65.461288 
	C137.341797,65.291328 137.615646,65.121361 138.686157,64.989052 
	C142.973633,63.884201 144.873077,61.042461 144.937286,57.008842 
	C144.937286,57.008842 144.694565,56.716640 145.502426,56.870277 
	C149.215271,56.336689 152.800003,53.275681 156.693359,56.303059 
	C156.871185,56.035759 157.049011,55.768456 157.675690,55.708012 
	C157.959625,55.913284 158.125824,56.189423 158.251358,57.159328 
	C158.575104,57.396759 158.898865,57.634190 159.114517,57.885525 
	C159.114517,57.885525 159.150970,57.782814 159.250488,58.334450 
	C159.549866,58.535641 159.849228,58.736832 160.670364,59.172630 
	C161.193604,59.952114 161.716858,60.731602 161.975189,62.155354 
	C160.882492,65.456749 163.319244,64.820282 165.006714,64.989540 
	C165.006714,64.989540 165.049011,64.910660 165.196945,65.394196 
	C165.460678,65.592209 165.724396,65.790230 166.010788,65.997902 
M123.677498,48.678097 
	C123.677498,41.835182 123.677498,34.992268 123.677498,28.002787 
	C111.913177,28.002787 100.922523,28.001915 89.931862,28.003035 
	C79.227180,28.004124 77.081993,30.119139 77.081245,40.852638 
	C77.072578,165.156693 77.072884,289.460754 77.081741,413.764801 
	C77.081856,415.356689 77.224403,416.948578 77.293068,418.385681 
	C78.095894,418.603790 78.408287,418.762268 78.721031,418.763000 
	C90.051003,418.789276 101.403923,419.257263 112.704742,418.689758 
	C124.684242,418.088226 134.897202,427.098328 134.359329,440.486938 
	C133.844711,453.296417 134.255188,466.143066 134.258789,478.973358 
	C134.259430,481.246826 134.258881,483.520325 134.258881,485.997589 
	C136.550415,485.997589 138.206497,485.997620 139.862579,485.997620 
	C234.840210,485.997498 329.817841,485.997681 424.795471,485.996857 
	C434.407990,485.996765 436.929199,483.476227 436.929260,473.863495 
	C436.930145,329.230927 436.930847,184.598343 436.928497,39.965767 
	C436.928345,30.620829 434.340332,28.003958 425.121002,28.003891 
	C344.973206,28.003309 264.825409,28.005396 184.677628,28.006685 
	C183.057602,28.006712 181.437561,28.006689 179.351379,28.006689 
	C179.351379,30.236628 179.351456,32.036171 179.351349,33.835716 
	C179.350403,48.998814 179.388306,64.162086 179.319534,79.324875 
	C179.303497,82.862114 180.349228,87.129257 175.815735,88.811256 
	C171.331207,90.475082 169.286545,86.787010 166.968079,83.990433 
	C161.895309,77.871559 156.815323,71.758675 151.595490,65.471352 
	C148.755630,68.553619 146.215088,71.324852 143.659210,74.081909 
	C139.655762,78.400520 135.769699,82.841057 131.551056,86.938751 
	C130.357864,88.097725 127.556572,89.230103 126.597710,88.624695 
	C125.109077,87.684799 123.788811,85.259537 123.754395,83.438286 
	C123.568939,73.623543 123.802322,63.800884 124.766800,53.813194 
	C126.403473,52.004078 127.144585,50.379642 123.677498,48.678097 
M123.262848,450.505127 
	C123.238533,446.347626 123.306717,442.186920 123.164551,438.033447 
	C123.014641,433.653778 120.655472,430.297028 116.383904,430.124146 
	C105.864182,429.698395 95.315636,429.984741 83.492859,429.984741 
	C96.850952,446.161865 109.419563,461.382935 121.988174,476.603973 
	C122.413094,476.448242 122.838013,476.292511 123.262932,476.136780 
	C123.262932,467.925598 123.262932,459.714386 123.262848,450.505127 
M126.078804,31.520517 
	C126.223946,31.764788 126.369087,32.009060 126.514229,32.253326 
	C126.648666,32.001476 126.944145,31.686245 126.876358,31.513985 
	C126.793442,31.303293 126.405998,31.212446 126.078804,31.520517 
M156.173996,61.752708 
	C156.118912,61.587208 156.063828,61.421703 156.008743,61.256203 
	C155.955170,61.422558 155.901581,61.588917 156.173996,61.752708 
M126.411629,81.482468 
	C126.411629,81.482468 126.523079,81.415703 126.411629,81.482468 
M154.586990,59.518570 
	C154.586990,59.518570 154.477386,59.584373 154.586990,59.518570 
z"/>
<path fill="#FEFEFE" opacity="1.000000" stroke="none" 
	d="
M123.891205,53.980953 
	C123.802322,63.800884 123.568939,73.623543 123.754395,83.438286 
	C123.788811,85.259537 125.109077,87.684799 126.597710,88.624695 
	C127.556572,89.230103 130.357864,88.097725 131.551056,86.938751 
	C135.769699,82.841057 139.655762,78.400520 143.659210,74.081909 
	C146.215088,71.324852 148.755630,68.553619 151.595490,65.471352 
	C156.815323,71.758675 161.895309,77.871559 166.968079,83.990433 
	C169.286545,86.787010 171.331207,90.475082 175.815735,88.811256 
	C180.349228,87.129257 179.303497,82.862114 179.319534,79.324875 
	C179.388306,64.162086 179.350403,48.998814 179.351349,33.835716 
	C179.351456,32.036171 179.351379,30.236628 179.351379,28.006689 
	C181.437561,28.006689 183.057602,28.006712 184.677628,28.006685 
	C264.825409,28.005396 344.973206,28.003309 425.121002,28.003891 
	C434.340332,28.003958 436.928345,30.620829 436.928497,39.965767 
	C436.930847,184.598343 436.930145,329.230927 436.929260,473.863495 
	C436.929199,483.476227 434.407990,485.996765 424.795471,485.996857 
	C329.817841,485.997681 234.840210,485.997498 139.862579,485.997620 
	C138.206497,485.997620 136.550415,485.997589 134.258881,485.997589 
	C134.258881,483.520325 134.259430,481.246826 134.258789,478.973358 
	C134.255188,466.143066 133.844711,453.296417 134.359329,440.486938 
	C134.897202,427.098328 124.684242,418.088226 112.704742,418.689758 
	C101.403923,419.257263 90.051003,418.789276 78.721031,418.763000 
	C78.408287,418.762268 78.095894,418.603790 77.293068,418.385681 
	C77.224403,416.948578 77.081856,415.356689 77.081741,413.764801 
	C77.072884,289.460754 77.072578,165.156693 77.081245,40.852638 
	C77.081993,30.119139 79.227180,28.004124 89.931862,28.003035 
	C100.922523,28.001915 111.913177,28.002787 123.677498,28.002787 
	C123.677498,34.992268 123.677498,41.835182 123.659622,49.365677 
	C123.724907,51.362488 123.808052,52.671719 123.891205,53.980953 
M214.323120,179.469086 
	C210.720932,183.279663 206.326981,186.617386 203.702591,191.011887 
	C199.791214,197.561432 194.960373,202.019547 187.479965,203.822037 
	C175.930069,206.605118 170.128433,214.120102 169.865082,226.025955 
	C169.711517,232.968536 167.505371,238.951538 161.738159,243.435486 
	C151.353897,251.509171 149.239273,261.748505 154.506607,273.632538 
	C157.438675,280.247803 157.486267,286.802124 154.550201,293.428833 
	C149.307907,305.260620 151.276672,315.565430 161.576920,323.697113 
	C167.453339,328.336334 169.602875,334.402924 169.919128,341.534241 
	C170.293396,349.973816 172.923019,357.226196 181.451431,361.251831 
	C178.111526,367.153778 174.950317,372.775848 171.755005,378.378448 
	C166.230423,388.065216 160.533340,397.659149 155.284485,407.492645 
	C154.316605,409.305939 154.321869,412.574402 155.366226,414.235535 
	C156.231079,415.611145 159.258148,415.854462 161.387802,416.127747 
	C162.799469,416.308960 164.322205,415.678497 165.787933,415.375946 
	C174.224350,413.634369 182.658585,411.882172 191.291214,410.092651 
	C194.445816,419.444519 197.271866,428.480286 200.624786,437.316162 
	C201.502121,439.628174 204.004486,442.887451 205.782120,442.901093 
	C208.042679,442.918457 211.151108,440.570099 212.461823,438.383270 
	C219.987656,425.827118 227.085449,413.014557 234.337418,400.294098 
	C236.533493,396.442017 238.758163,392.606262 240.342209,389.853546 
	C249.092209,393.129761 257.085052,398.496490 265.031586,398.428833 
	C272.946838,398.361420 280.815674,392.840729 288.833679,389.660034 
	C291.673004,394.621002 294.729248,399.951874 297.776855,405.287689 
	C304.296600,416.702667 310.690826,428.192810 317.453583,439.461914 
	C318.524384,441.246216 321.237091,442.972290 323.212677,442.997437 
	C324.835083,443.018127 326.947876,440.750549 328.015533,438.994049 
	C329.364929,436.773987 329.884827,434.047119 330.744904,431.532867 
	C333.199280,424.357788 335.644714,417.179688 338.069275,410.074371 
	C348.479279,412.227386 358.214783,414.410553 368.032257,416.123840 
	C369.924988,416.454132 372.966125,415.533966 373.976105,414.119019 
	C375.021149,412.654907 374.724304,409.742920 374.128265,407.726135 
	C373.439758,405.396454 371.782318,403.353333 370.547119,401.184875 
	C363.010498,387.953979 355.474304,374.722839 347.837402,361.315216 
	C355.788452,357.407562 358.838379,350.838226 359.144043,342.868286 
	C359.460632,334.613556 362.254181,327.839539 368.839417,322.509186 
	C377.895386,315.178955 379.896393,305.775970 375.270172,295.216309 
	C371.843323,287.394318 371.875031,279.800995 375.235199,272.073822 
	C379.876526,261.400574 377.813141,252.104172 368.854370,244.775558 
	C362.291412,239.406845 359.313599,232.708755 359.126740,224.424042 
	C358.878571,213.421494 352.951233,206.767838 342.587646,204.112839 
	C334.857422,202.132462 329.184784,198.112411 325.612152,190.796356 
	C320.276489,179.869904 311.273712,176.127228 299.514435,178.511826 
	C292.834015,179.866501 286.716003,178.906387 281.138641,174.604477 
	C270.235596,166.194794 259.190216,166.068405 248.219193,174.596527 
	C242.728760,178.864410 236.607895,179.451782 229.848175,178.673904 
	C224.999939,178.115997 219.992203,178.944168 214.323120,179.469086 
M333.500427,121.637558 
	C267.705017,121.636047 201.909592,121.633171 136.114166,121.639519 
	C134.117233,121.639717 131.777878,121.103256 130.211578,121.950706 
	C128.329300,122.969139 125.787659,125.320801 125.926308,126.882607 
	C126.103386,128.877335 128.359024,131.180145 130.315582,132.363373 
	C131.794571,133.257797 134.209290,132.635681 136.207565,132.636093 
	C174.352249,132.643860 212.496918,132.645447 250.641602,132.645050 
	C293.450256,132.644608 336.258911,132.640991 379.067566,132.638351 
	C380.233551,132.638290 381.399567,132.632095 382.565552,132.630798 
	C386.307739,132.626617 388.807312,130.826385 388.818634,127.059708 
	C388.830261,123.188805 386.200745,121.633614 382.472687,121.638641 
	C366.481964,121.660233 350.491211,121.641586 333.500427,121.637558 
M342.500000,80.921036 
	C308.680542,80.921364 274.861023,80.948112 241.041702,80.886017 
	C237.151306,80.878876 234.276154,82.095314 234.159897,86.253799 
	C234.040985,90.507576 237.036972,91.871376 240.836838,91.871857 
	C287.151154,91.877670 333.465454,91.874016 379.779755,91.892563 
	C383.583130,91.894089 386.696686,90.572815 386.698273,86.452286 
	C386.699951,82.077393 383.587708,80.825424 379.484680,80.871880 
	C367.491119,81.007675 355.495087,80.920708 342.500000,80.921036 
z"/>
<path fill="#B1B1B1" opacity="1.000000" stroke="none" 
	d="
M123.262894,451.004150 
	C123.262932,459.714386 123.262932,467.925598 123.262932,476.136780 
	C122.838013,476.292511 122.413094,476.448242 121.988174,476.603973 
	C109.419563,461.382935 96.850952,446.161865 83.492859,429.984741 
	C95.315636,429.984741 105.864182,429.698395 116.383904,430.124146 
	C120.655472,430.297028 123.014641,433.653778 123.164551,438.033447 
	C123.306717,442.186920 123.238533,446.347626 123.262894,451.004150 
z"/>
<path fill="#FACE3E" opacity="1.000000" stroke="none" 
	d="
M134.296005,60.152420 
	C134.415176,56.398685 134.534332,52.644947 135.087097,48.168266 
	C135.672729,42.813950 135.956924,38.181824 135.930450,33.551472 
	C135.912704,30.449986 136.950134,28.932573 140.250427,28.983236 
	C147.569138,29.095585 154.890747,29.022076 162.211166,29.022415 
	C165.733109,29.022579 167.164093,30.631603 167.076385,34.281914 
	C166.876572,42.595741 167.081772,50.918598 166.973846,59.235859 
	C166.948746,61.171200 166.330444,63.098846 165.752731,64.987236 
	C165.520370,64.944435 165.049011,64.910660 165.049011,64.910660 
	C165.049011,64.910660 165.006714,64.989540 164.949890,64.651787 
	C164.008759,63.379715 163.124435,62.445400 162.240112,61.511086 
	C161.716858,60.731602 161.193604,59.952114 160.341034,58.788963 
	C159.724792,58.197800 159.437881,57.990307 159.150970,57.782814 
	C159.150970,57.782814 159.114517,57.885525 159.103897,57.583992 
	C158.786942,57.033779 158.480606,56.785099 158.174271,56.536423 
	C158.125824,56.189423 157.959625,55.913284 157.359528,55.285744 
	C152.164398,49.336071 149.414551,49.748737 144.694565,56.716640 
	C144.694565,56.716640 144.937286,57.008842 144.527985,56.997391 
	C142.042297,59.641090 139.965897,62.296242 137.889511,64.951393 
	C137.615646,65.121361 137.341797,65.291328 136.793945,65.806969 
	C136.378052,66.438126 136.236145,66.723595 136.094238,67.009071 
	C136.094238,67.009071 136.006332,67.019348 135.660934,67.005676 
	C134.987259,66.379486 134.658966,65.766968 134.330673,65.154449 
	C134.403152,64.321358 134.475632,63.488270 134.570465,61.981617 
	C134.493866,60.922844 134.394928,60.537632 134.296005,60.152420 
z"/>
<path fill="#EDCD64" opacity="1.000000" stroke="none" 
	d="
M165.985092,65.030037 
	C166.330444,63.098846 166.948746,61.171200 166.973846,59.235859 
	C167.081772,50.918598 166.876572,42.595741 167.076385,34.281914 
	C167.164093,30.631603 165.733109,29.022579 162.211166,29.022415 
	C154.890747,29.022076 147.569138,29.095585 140.250427,28.983236 
	C136.950134,28.932573 135.912704,30.449986 135.930450,33.551472 
	C135.956924,38.181824 135.672729,42.813950 135.199493,47.713524 
	C134.770096,43.629017 134.661896,39.276306 134.577835,34.068043 
	C134.716431,31.465775 134.830887,29.719059 134.945343,27.972343 
	C134.945343,27.972343 134.982407,28.008060 135.453644,28.009113 
	C146.624588,27.988075 157.324295,27.965986 168.024017,27.943897 
	C168.024017,27.943897 168.054001,28.008171 168.186493,28.451839 
	C168.304474,40.006409 168.342773,51.117905 168.217636,62.227562 
	C168.199249,63.861717 167.405243,65.487137 166.970123,67.116592 
	C166.970108,67.116592 166.967300,67.011330 166.868622,66.785423 
	C166.582077,66.286568 166.328003,66.107513 166.007751,66.022339 
	C166.007751,66.022339 166.010788,65.997902 166.019821,65.753540 
	C166.028854,65.509171 165.985092,65.030037 165.985092,65.030037 
z"/>
<path fill="#171008" opacity="1.000000" stroke="none" 
	d="
M167.035156,67.452362 
	C167.405243,65.487137 168.199249,63.861717 168.217636,62.227562 
	C168.342773,51.117905 168.304474,40.006409 168.217224,28.434174 
	C168.737045,33.965191 169.737320,39.948719 169.877197,45.952297 
	C170.027161,52.388107 169.436905,58.847706 168.979797,65.283432 
	C168.917633,66.158424 167.753876,66.955162 167.035156,67.452362 
z"/>
<path fill="#171008" opacity="1.000000" stroke="none" 
	d="
M145.098495,56.793457 
	C149.414551,49.748737 152.164398,49.336071 157.135101,55.182312 
	C157.049011,55.768456 156.871185,56.035759 156.693359,56.303055 
	C152.800003,53.275681 149.215271,56.336689 145.098495,56.793457 
z"/>
<path fill="#171008" opacity="1.000000" stroke="none" 
	d="
M167.966217,27.610279 
	C157.324295,27.965986 146.624588,27.988075 135.456161,27.983509 
	C138.190811,27.639927 141.388733,27.244583 144.598663,27.022505 
	C151.140594,26.569899 157.685913,26.126833 164.237457,25.888874 
	C165.442719,25.845097 166.683838,26.788771 167.966217,27.610279 
z"/>
<path fill="#171008" opacity="1.000000" stroke="none" 
	d="
M138.287842,64.970222 
	C139.965897,62.296242 142.042297,59.641090 144.415848,56.844360 
	C144.873077,61.042461 142.973633,63.884201 138.287842,64.970222 
z"/>
<path fill="#171008" opacity="1.000000" stroke="none" 
	d="
M134.605026,27.996231 
	C134.830887,29.719059 134.716431,31.465775 134.451172,33.623260 
	C133.287918,32.664349 132.275452,31.294662 131.104309,29.710308 
	C132.332184,29.053640 133.298447,28.536879 134.605026,27.996231 
z"/>
<path fill="#050505" opacity="1.000000" stroke="none" 
	d="
M124.329002,53.897072 
	C123.808052,52.671719 123.724907,51.362488 123.767639,49.815849 
	C127.144585,50.379642 126.403473,52.004078 124.329002,53.897072 
z"/>
<path fill="#171008" opacity="1.000000" stroke="none" 
	d="
M134.176697,65.409805 
	C134.658966,65.766968 134.987259,66.379486 135.668655,67.049255 
	C135.283478,67.636551 134.545181,68.166603 133.806885,68.696655 
	C133.878830,67.686157 133.950790,66.675659 134.176697,65.409805 
z"/>
<path fill="#171008" opacity="1.000000" stroke="none" 
	d="
M162.107651,61.833218 
	C163.124435,62.445400 164.008759,63.379715 164.986511,64.626060 
	C163.319244,64.820282 160.882492,65.456749 162.107651,61.833218 
z"/>
<path fill="#070707" opacity="1.000000" stroke="none" 
	d="
M126.114517,31.295147 
	C126.405998,31.212446 126.793442,31.303293 126.876358,31.513985 
	C126.944145,31.686245 126.648666,32.001476 126.514221,32.253326 
	C126.369087,32.009060 126.223946,31.764788 126.114517,31.295147 
z"/>
<path fill="#171008" opacity="1.000000" stroke="none" 
	d="
M156.011002,61.753990 
	C155.901581,61.588917 155.955170,61.422558 156.008743,61.256203 
	C156.063828,61.421703 156.118912,61.587208 156.011002,61.753990 
z"/>
<path fill="#171008" opacity="1.000000" stroke="none" 
	d="
M134.186829,60.304138 
	C134.394928,60.537632 134.493866,60.922844 134.445648,61.578491 
	C134.189560,61.545586 134.054214,61.248241 133.983368,60.936245 
	C133.950348,60.790749 134.042343,60.616875 134.186829,60.304138 
z"/>
<path fill="#171008" opacity="1.000000" stroke="none" 
	d="
M158.212814,56.847878 
	C158.480606,56.785099 158.786942,57.033779 159.157944,57.577038 
	C158.898865,57.634190 158.575104,57.396759 158.212814,56.847878 
z"/>
<path fill="#171008" opacity="1.000000" stroke="none" 
	d="
M159.200729,58.058632 
	C159.437881,57.990307 159.724792,58.197800 160.080154,58.671658 
	C159.849228,58.736832 159.549866,58.535641 159.200729,58.058632 
z"/>
<path fill="#070707" opacity="1.000000" stroke="none" 
	d="
M126.467354,81.449081 
	C126.523079,81.415703 126.411629,81.482468 126.467354,81.449081 
z"/>
<path fill="#171008" opacity="1.000000" stroke="none" 
	d="
M166.072449,66.246857 
	C166.328003,66.107513 166.582077,66.286568 166.816330,66.791534 
	C166.539688,66.946129 166.297836,66.762070 166.072449,66.246857 
z"/>
<path fill="#171008" opacity="1.000000" stroke="none" 
	d="
M136.313110,66.902542 
	C136.236145,66.723595 136.378052,66.438126 136.750824,66.054810 
	C136.952850,66.301567 136.802948,66.581245 136.313110,66.902542 
z"/>
<path fill="#171008" opacity="1.000000" stroke="none" 
	d="
M165.752731,64.987236 
	C165.985092,65.030037 166.028854,65.509171 166.008484,65.748703 
	C165.724396,65.790230 165.460678,65.592209 165.122986,65.152428 
	C165.049011,64.910660 165.520370,64.944435 165.752731,64.987236 
z"/>
<path fill="#171008" opacity="1.000000" stroke="none" 
	d="
M154.532196,59.551472 
	C154.477386,59.584373 154.586990,59.518570 154.532196,59.551472 
z"/>
<path fill="#0B0807" opacity="1.000000" stroke="none" 
	d="
M214.689377,179.311523 
	C219.992203,178.944168 224.999939,178.115997 229.848175,178.673904 
	C236.607895,179.451782 242.728760,178.864410 248.219193,174.596527 
	C259.190216,166.068405 270.235596,166.194794 281.138641,174.604477 
	C286.716003,178.906387 292.834015,179.866501 299.514435,178.511826 
	C311.273712,176.127228 320.276489,179.869904 325.612152,190.796356 
	C329.184784,198.112411 334.857422,202.132462 342.587646,204.112839 
	C352.951233,206.767838 358.878571,213.421494 359.126740,224.424042 
	C359.313599,232.708755 362.291412,239.406845 368.854370,244.775558 
	C377.813141,252.104172 379.876526,261.400574 375.235199,272.073822 
	C371.875031,279.800995 371.843323,287.394318 375.270172,295.216309 
	C379.896393,305.775970 377.895386,315.178955 368.839417,322.509186 
	C362.254181,327.839539 359.460632,334.613556 359.144043,342.868286 
	C358.838379,350.838226 355.788452,357.407562 347.837402,361.315216 
	C355.474304,374.722839 363.010498,387.953979 370.547119,401.184875 
	C371.782318,403.353333 373.439758,405.396454 374.128265,407.726135 
	C374.724304,409.742920 375.021149,412.654907 373.976105,414.119019 
	C372.966125,415.533966 369.924988,416.454132 368.032257,416.123840 
	C358.214783,414.410553 348.479279,412.227386 338.069275,410.074371 
	C335.644714,417.179688 333.199280,424.357788 330.744904,431.532867 
	C329.884827,434.047119 329.364929,436.773987 328.015533,438.994049 
	C326.947876,440.750549 324.835083,443.018127 323.212677,442.997437 
	C321.237091,442.972290 318.524384,441.246216 317.453583,439.461914 
	C310.690826,428.192810 304.296600,416.702667 297.776855,405.287689 
	C294.729248,399.951874 291.673004,394.621002 288.833679,389.660034 
	C280.815674,392.840729 272.946838,398.361420 265.031586,398.428833 
	C257.085052,398.496490 249.092209,393.129761 240.342209,389.853546 
	C238.758163,392.606262 236.533493,396.442017 234.337418,400.294098 
	C227.085449,413.014557 219.987656,425.827118 212.461823,438.383270 
	C211.151108,440.570099 208.042679,442.918457 205.782120,442.901093 
	C204.004486,442.887451 201.502121,439.628174 200.624786,437.316162 
	C197.271866,428.480286 194.445816,419.444519 191.291214,410.092651 
	C182.658585,411.882172 174.224350,413.634369 165.787933,415.375946 
	C164.322205,415.678497 162.799469,416.308960 161.387802,416.127747 
	C159.258148,415.854462 156.231079,415.611145 155.366226,414.235535 
	C154.321869,412.574402 154.316605,409.305939 155.284485,407.492645 
	C160.533340,397.659149 166.230423,388.065216 171.755005,378.378448 
	C174.950317,372.775848 178.111526,367.153778 181.451431,361.251831 
	C172.923019,357.226196 170.293396,349.973816 169.919128,341.534241 
	C169.602875,334.402924 167.453339,328.336334 161.576920,323.697113 
	C151.276672,315.565430 149.307907,305.260620 154.550201,293.428833 
	C157.486267,286.802124 157.438675,280.247803 154.506607,273.632538 
	C149.239273,261.748505 151.353897,251.509171 161.738159,243.435486 
	C167.505371,238.951538 169.711517,232.968536 169.865082,226.025955 
	C170.128433,214.120102 175.930069,206.605118 187.479965,203.822037 
	C194.960373,202.019547 199.791214,197.561432 203.702591,191.011887 
	C206.326981,186.617386 210.720932,183.279663 214.689377,179.311523 
M353.674927,244.713043 
	C349.105743,238.819031 348.962585,231.668854 348.274536,224.763245 
	C347.740723,219.405716 345.274048,216.009018 340.083527,214.820984 
	C328.609680,212.194763 320.376251,205.698792 315.379456,194.975464 
	C313.156921,190.205887 309.149933,187.972504 303.920563,189.124939 
	C291.890839,191.775955 281.237213,189.114243 271.544708,181.651093 
	C267.034576,178.178329 262.056488,178.350510 257.646149,181.718002 
	C248.064407,189.034119 237.608292,191.737503 225.734711,189.141235 
	C220.370789,187.968369 216.166412,190.091064 213.841400,195.104263 
	C208.859711,205.845856 200.595779,212.282272 189.093933,214.857956 
	C183.650024,216.077042 181.057281,219.826202 180.943817,225.333069 
	C180.719803,236.205231 177.210663,245.538666 168.298737,252.330490 
	C162.516663,256.737091 161.570084,262.249268 164.400375,268.708649 
	C168.691956,278.502960 169.119476,288.324829 164.543289,298.176086 
	C161.366302,305.015259 162.729446,310.692200 168.745483,315.379639 
	C177.080063,321.873535 180.781403,330.709991 180.851715,341.078949 
	C180.895874,347.595245 184.105362,351.470337 190.168457,352.863586 
	C200.583008,355.256775 208.330963,360.874664 212.847153,370.653534 
	C215.782623,377.009796 220.662125,379.508789 227.415207,377.946838 
	C238.506958,375.381348 248.097153,378.570068 256.927399,385.149658 
	C262.139679,389.033447 267.385498,388.805847 272.621979,385.097443 
	C274.114319,384.040558 275.743073,383.178467 277.262268,382.157166 
	C283.788788,377.769379 290.854767,376.144409 298.654663,377.624817 
	C301.092102,378.087463 303.779968,378.640320 306.079224,378.062195 
	C308.911041,377.350098 311.809784,375.910797 314.019043,374.015717 
	C315.951263,372.358246 317.110901,369.710480 318.363495,367.367432 
	C321.947021,360.664307 327.519470,356.529388 334.652313,354.271240 
	C337.027466,353.519318 339.374268,352.676056 341.724426,351.847290 
	C345.782135,350.416412 348.013367,347.567505 348.082428,343.238281 
	C348.276978,331.047974 352.687775,320.971283 362.468933,313.351654 
	C366.671814,310.077576 367.236664,305.608002 365.585297,300.709351 
	C364.364838,297.088928 363.151520,293.462189 362.084106,289.794891 
	C359.729767,281.706085 362.927704,274.364929 365.431427,266.988129 
	C367.228638,261.692871 366.490814,257.293976 362.177673,253.462479 
	C359.324463,250.927917 356.809601,248.012558 353.674927,244.713043 
M176.196579,392.692566 
	C174.427078,395.914917 172.657578,399.137299 170.448013,403.161041 
	C177.873367,401.601196 184.190231,400.245056 190.520020,398.952240 
	C197.686249,397.488647 198.772003,398.140442 201.117889,404.969116 
	C203.239365,411.144562 205.395218,417.308197 207.889557,424.496124 
	C214.909821,412.178833 221.293457,400.978546 228.044022,389.134460 
	C226.156647,389.134460 225.058701,389.050781 223.976974,389.147827 
	C216.012436,389.862610 210.128342,386.488098 205.852570,379.962952 
	C203.844925,376.899078 202.188675,373.548828 199.838425,370.782745 
	C197.851227,368.443970 195.093155,366.760162 192.333557,364.506622 
	C186.655762,374.452728 181.625473,383.264557 176.196579,392.692566 
M347.145660,382.377563 
	C343.882324,376.656799 340.618958,370.936066 337.441101,365.365143 
	C330.929077,366.560913 328.634766,371.413849 326.175323,375.856720 
	C321.057343,385.102173 314.033142,390.694458 302.840332,389.158691 
	C302.639038,389.131042 302.383057,389.501984 301.740448,390.017670 
	C308.147583,401.248810 314.593933,412.548737 321.459473,424.583435 
	C324.029846,417.011292 326.374451,410.455139 328.466888,403.819458 
	C329.916077,399.223663 332.399078,397.393585 337.395416,398.646027 
	C344.157898,400.341187 351.062988,401.467438 358.904572,403.037476 
	C354.716034,395.675507 351.113953,389.344330 347.145660,382.377563 
z"/>
<path fill="#0B0B0B" opacity="1.000000" stroke="none" 
	d="
M334.000427,121.637581 
	C350.491211,121.641586 366.481964,121.660233 382.472687,121.638641 
	C386.200745,121.633614 388.830261,123.188805 388.818634,127.059708 
	C388.807312,130.826385 386.307739,132.626617 382.565552,132.630798 
	C381.399567,132.632095 380.233551,132.638290 379.067566,132.638351 
	C336.258911,132.640991 293.450256,132.644608 250.641602,132.645050 
	C212.496918,132.645447 174.352249,132.643860 136.207565,132.636093 
	C134.209290,132.635681 131.794571,133.257797 130.315582,132.363373 
	C128.359024,131.180145 126.103386,128.877335 125.926308,126.882607 
	C125.787659,125.320801 128.329300,122.969139 130.211578,121.950706 
	C131.777878,121.103256 134.117233,121.639717 136.114166,121.639519 
	C201.909592,121.633171 267.705017,121.636047 334.000427,121.637581 
z"/>
<path fill="#060606" opacity="1.000000" stroke="none" 
	d="
M343.000000,80.921036 
	C355.495087,80.920708 367.491119,81.007675 379.484680,80.871880 
	C383.587708,80.825424 386.699951,82.077393 386.698273,86.452286 
	C386.696686,90.572815 383.583130,91.894089 379.779755,91.892563 
	C333.465454,91.874016 287.151154,91.877670 240.836838,91.871857 
	C237.036972,91.871376 234.040985,90.507576 234.159897,86.253799 
	C234.276154,82.095314 237.151306,80.878876 241.041702,80.886017 
	C274.861023,80.948112 308.680542,80.921364 343.000000,80.921036 
z"/>
<path fill="#FAB02B" opacity="1.000000" stroke="none" 
	d="
M353.909088,244.990356 
	C356.809601,248.012558 359.324463,250.927917 362.177673,253.462479 
	C366.490814,257.293976 367.228638,261.692871 365.431427,266.988129 
	C362.927704,274.364929 359.729767,281.706085 362.084106,289.794891 
	C363.151520,293.462189 364.364838,297.088928 365.585297,300.709351 
	C367.236664,305.608002 366.671814,310.077576 362.468933,313.351654 
	C352.687775,320.971283 348.276978,331.047974 348.082428,343.238281 
	C348.013367,347.567505 345.782135,350.416412 341.724426,351.847290 
	C339.374268,352.676056 337.027466,353.519318 334.652313,354.271240 
	C327.519470,356.529388 321.947021,360.664307 318.363495,367.367432 
	C317.110901,369.710480 315.951263,372.358246 314.019043,374.015717 
	C311.809784,375.910797 308.911041,377.350098 306.079224,378.062195 
	C303.779968,378.640320 301.092102,378.087463 298.654663,377.624817 
	C290.854767,376.144409 283.788788,377.769379 277.262268,382.157166 
	C275.743073,383.178467 274.114319,384.040558 272.621979,385.097443 
	C267.385498,388.805847 262.139679,389.033447 256.927399,385.149658 
	C248.097153,378.570068 238.506958,375.381348 227.415207,377.946838 
	C220.662125,379.508789 215.782623,377.009796 212.847153,370.653534 
	C208.330963,360.874664 200.583008,355.256775 190.168457,352.863586 
	C184.105362,351.470337 180.895874,347.595245 180.851715,341.078949 
	C180.781403,330.709991 177.080063,321.873535 168.745483,315.379639 
	C162.729446,310.692200 161.366302,305.015259 164.543289,298.176086 
	C169.119476,288.324829 168.691956,278.502960 164.400375,268.708649 
	C161.570084,262.249268 162.516663,256.737091 168.298737,252.330490 
	C177.210663,245.538666 180.719803,236.205231 180.943817,225.333069 
	C181.057281,219.826202 183.650024,216.077042 189.093933,214.857956 
	C200.595779,212.282272 208.859711,205.845856 213.841400,195.104263 
	C216.166412,190.091064 220.370789,187.968369 225.734711,189.141235 
	C237.608292,191.737503 248.064407,189.034119 257.646149,181.718002 
	C262.056488,178.350510 267.034576,178.178329 271.544708,181.651093 
	C281.237213,189.114243 291.890839,191.775955 303.920563,189.124939 
	C309.149933,187.972504 313.156921,190.205887 315.379456,194.975464 
	C320.376251,205.698792 328.609680,212.194763 340.083527,214.820984 
	C345.274048,216.009018 347.740723,219.405716 348.274536,224.763245 
	C348.962585,231.668854 349.105743,238.819031 353.909088,244.990356 
M239.732117,216.137344 
	C239.120148,216.397888 238.510452,216.663925 237.895874,216.918213 
	C206.811691,229.779419 188.109009,262.278229 193.560364,293.959808 
	C200.249359,332.834259 231.535751,357.561432 270.929230,355.108246 
	C311.439423,352.585480 342.906433,312.354797 335.562286,272.474640 
	C327.199280,227.061813 284.567505,201.697769 239.732117,216.137344 
z"/>
<path fill="#F5CB40" opacity="1.000000" stroke="none" 
	d="
M176.395874,392.384460 
	C181.625473,383.264557 186.655762,374.452728 192.333557,364.506622 
	C195.093155,366.760162 197.851227,368.443970 199.838425,370.782745 
	C202.188675,373.548828 203.844925,376.899078 205.852570,379.962952 
	C210.128342,386.488098 216.012436,389.862610 223.976974,389.147827 
	C225.058701,389.050781 226.156647,389.134460 228.044022,389.134460 
	C221.293457,400.978546 214.909821,412.178833 207.889557,424.496124 
	C205.395218,417.308197 203.239365,411.144562 201.117889,404.969116 
	C198.772003,398.140442 197.686249,397.488647 190.520020,398.952240 
	C184.190231,400.245056 177.873367,401.601196 170.448013,403.161041 
	C172.657578,399.137299 174.427078,395.914917 176.395874,392.384460 
z"/>
<path fill="#F5CB40" opacity="1.000000" stroke="none" 
	d="
M347.328766,382.695374 
	C351.113953,389.344330 354.716034,395.675507 358.904572,403.037476 
	C351.062988,401.467438 344.157898,400.341187 337.395416,398.646027 
	C332.399078,397.393585 329.916077,399.223663 328.466888,403.819458 
	C326.374451,410.455139 324.029846,417.011292 321.459473,424.583435 
	C314.593933,412.548737 308.147583,401.248810 301.740448,390.017670 
	C302.383057,389.501984 302.639038,389.131042 302.840332,389.158691 
	C314.033142,390.694458 321.057343,385.102173 326.175323,375.856720 
	C328.634766,371.413849 330.929077,366.560913 337.441101,365.365143 
	C340.618958,370.936066 343.882324,376.656799 347.328766,382.695374 
z"/>
<path fill="#080706" opacity="1.000000" stroke="none" 
	d="
M240.107635,216.022018 
	C284.567505,201.697769 327.199280,227.061813 335.562286,272.474640 
	C342.906433,312.354797 311.439423,352.585480 270.929230,355.108246 
	C231.535751,357.561432 200.249359,332.834259 193.560364,293.959808 
	C188.109009,262.278229 206.811691,229.779419 237.895874,216.918213 
	C238.510452,216.663925 239.120148,216.397888 240.107635,216.022018 
M236.990494,337.753143 
	C237.237946,337.747833 237.485382,337.742554 237.732834,337.737244 
	C237.535522,337.445770 237.338196,337.154297 237.121368,336.140747 
	C234.973297,331.740112 232.825241,327.339478 230.529129,322.635559 
	C227.513199,323.911041 224.735352,325.085815 220.339203,326.944977 
	C226.593918,330.874359 231.668091,334.062103 236.990494,337.753143 
M241.358917,308.789429 
	C257.827332,305.674103 274.315765,306.299286 291.202942,309.189453 
	C292.023285,302.239929 292.771484,295.901642 293.550507,289.302002 
	C273.872192,289.302002 254.993912,289.302002 235.487274,289.302002 
	C236.366257,295.381256 237.108032,301.119843 238.116196,306.811188 
	C238.262970,307.639771 239.682480,308.242889 241.358917,308.789429 
M289.502777,258.266235 
	C272.566772,261.534454 255.601746,261.334503 238.200439,257.990875 
	C237.284866,264.955475 236.453156,271.282166 235.582306,277.906555 
	C255.191162,277.906555 274.065338,277.906555 293.982635,277.906555 
	C292.719391,271.110107 291.526337,264.691254 289.502777,258.266235 
M287.029114,245.824036 
	C283.158783,239.682388 279.935150,232.982529 275.244598,227.548920 
	C270.080475,221.566696 262.266235,221.255142 256.262756,225.568436 
	C248.807220,230.924988 245.018600,238.765640 241.667038,247.436584 
	C255.225067,249.948334 268.242615,250.371658 281.312531,248.422821 
	C283.294281,248.127319 285.189148,247.249252 287.029114,245.824036 
M244.594711,326.846344 
	C247.913391,331.372833 250.727020,336.410736 254.670151,340.304932 
	C260.458405,346.021393 268.329315,345.806519 274.517883,340.563995 
	C280.887238,335.168335 284.580139,328.058105 287.528687,319.857361 
	C271.987549,317.128479 257.012115,316.791534 241.596161,320.031433 
	C242.674789,322.533905 243.460220,324.356171 244.594711,326.846344 
M311.608154,289.125641 
	C309.332092,289.125641 307.056000,289.125641 304.738892,289.125641 
	C303.727203,297.128601 302.778931,304.630157 301.835327,312.094543 
	C306.370422,313.956360 310.601685,315.693420 315.175781,317.571259 
	C320.750702,308.852112 324.454132,299.763306 325.029724,289.125641 
	C320.517242,289.125641 316.544922,289.125641 311.608154,289.125641 
M204.185104,289.434814 
	C204.963364,299.745697 208.413177,309.054352 214.237381,317.612762 
	C218.935928,315.622040 223.182022,313.822998 227.530655,311.980530 
	C226.500076,304.361816 225.486221,296.866699 224.429825,289.057159 
	C217.945953,289.057159 211.477615,289.057159 204.185104,289.434814 
M208.729721,278.008881 
	C214.023941,278.008881 219.318161,278.008881 224.468002,278.008881 
	C225.496292,270.246399 226.470123,262.895172 227.465286,255.382721 
	C223.741547,253.703613 220.039169,251.848160 216.174728,250.436157 
	C215.320984,250.124222 213.391174,251.059647 212.809464,251.967178 
	C207.809723,259.767487 204.963196,268.328705 204.118851,277.811920 
	C205.516617,277.889099 206.655548,277.951965 208.729721,278.008881 
M305.122040,253.870346 
	C304.039917,254.990967 301.941711,256.210327 302.039459,257.216278 
	C302.708160,264.098389 303.837738,270.935669 304.833069,277.887329 
	C311.576660,277.887329 318.269562,277.887329 325.205353,277.887329 
	C324.010681,267.403076 320.991669,258.017914 314.938599,249.682709 
	C311.633148,251.105652 308.754089,252.345047 305.122040,253.870346 
M300.888397,234.631668 
	C297.916199,232.779968 294.944000,230.928253 290.858154,228.382721 
	C293.913269,234.682983 296.263519,239.529572 298.752228,244.661789 
	C301.852600,243.349091 304.667206,242.157379 308.024048,240.736099 
	C305.459351,238.527802 303.456390,236.803162 300.888397,234.631668 
M234.804550,230.607468 
	C230.406326,233.711731 226.008102,236.815979 220.644714,240.601440 
	C224.811859,242.252930 227.746140,243.415833 230.707367,244.589401 
	C233.210968,239.207092 235.426544,234.443985 237.965134,228.986465 
	C236.546524,229.676559 235.960587,229.961594 234.804550,230.607468 
M301.678009,323.819275 
	C300.329834,324.024567 298.164276,323.784760 297.769684,324.509308 
	C295.636536,328.426727 293.941925,332.582916 292.096130,336.656769 
	C292.427612,337.037872 292.759064,337.418945 293.090515,337.800018 
	C297.959015,334.305389 302.827515,330.810760 308.355865,326.842468 
	C305.634003,325.552399 304.029907,324.792145 301.678009,323.819275 
z"/>
<path fill="#FAFAFA" opacity="1.000000" stroke="none" 
	d="
M240.935989,308.869873 
	C239.682480,308.242889 238.262970,307.639771 238.116196,306.811188 
	C237.108032,301.119843 236.366257,295.381256 235.487274,289.302002 
	C254.993912,289.302002 273.872192,289.302002 293.550507,289.302002 
	C292.771484,295.901642 292.023285,302.239929 291.202942,309.189453 
	C274.315765,306.299286 257.827332,305.674103 240.935989,308.869873 
z"/>
<path fill="#FCFCFC" opacity="1.000000" stroke="none" 
	d="
M289.918030,258.269287 
	C291.526337,264.691254 292.719391,271.110107 293.982635,277.906555 
	C274.065338,277.906555 255.191162,277.906555 235.582306,277.906555 
	C236.453156,271.282166 237.284866,264.955475 238.200439,257.990875 
	C255.601746,261.334503 272.566772,261.534454 289.918030,258.269287 
z"/>
<path fill="#F9F9F9" opacity="1.000000" stroke="none" 
	d="
M287.076660,246.232346 
	C285.189148,247.249252 283.294281,248.127319 281.312531,248.422821 
	C268.242615,250.371658 255.225067,249.948334 241.667038,247.436584 
	C245.018600,238.765640 248.807220,230.924988 256.262756,225.568436 
	C262.266235,221.255142 270.080475,221.566696 275.244598,227.548920 
	C279.935150,232.982529 283.158783,239.682388 287.076660,246.232346 
z"/>
<path fill="#FAFAFA" opacity="1.000000" stroke="none" 
	d="
M244.420181,326.512390 
	C243.460220,324.356171 242.674789,322.533905 241.596161,320.031433 
	C257.012115,316.791534 271.987549,317.128479 287.528687,319.857361 
	C284.580139,328.058105 280.887238,335.168335 274.517883,340.563995 
	C268.329315,345.806519 260.458405,346.021393 254.670151,340.304932 
	C250.727020,336.410736 247.913391,331.372833 244.420181,326.512390 
z"/>
<path fill="#F7F7F7" opacity="1.000000" stroke="none" 
	d="
M312.090363,289.125641 
	C316.544922,289.125641 320.517242,289.125641 325.029724,289.125641 
	C324.454132,299.763306 320.750702,308.852112 315.175781,317.571259 
	C310.601685,315.693420 306.370422,313.956360 301.835327,312.094543 
	C302.778931,304.630157 303.727203,297.128601 304.738892,289.125641 
	C307.056000,289.125641 309.332092,289.125641 312.090363,289.125641 
z"/>
<path fill="#FAFAFA" opacity="1.000000" stroke="none" 
	d="
M204.597198,289.245972 
	C211.477615,289.057159 217.945953,289.057159 224.429825,289.057159 
	C225.486221,296.866699 226.500076,304.361816 227.530655,311.980530 
	C223.182022,313.822998 218.935928,315.622040 214.237381,317.612762 
	C208.413177,309.054352 204.963364,299.745697 204.597198,289.245972 
z"/>
<path fill="#F9F9F9" opacity="1.000000" stroke="none" 
	d="
M208.262115,278.011841 
	C206.655548,277.951965 205.516617,277.889099 204.118851,277.811920 
	C204.963196,268.328705 207.809723,259.767487 212.809464,251.967178 
	C213.391174,251.059647 215.320984,250.124222 216.174728,250.436157 
	C220.039169,251.848160 223.741547,253.703613 227.465286,255.382721 
	C226.470123,262.895172 225.496292,270.246399 224.468002,278.008881 
	C219.318161,278.008881 214.023941,278.008881 208.262115,278.011841 
z"/>
<path fill="#F9F9F9" opacity="1.000000" stroke="none" 
	d="
M305.498535,253.727386 
	C308.754089,252.345047 311.633148,251.105652 314.938599,249.682709 
	C320.991669,258.017914 324.010681,267.403076 325.205353,277.887329 
	C318.269562,277.887329 311.576660,277.887329 304.833069,277.887329 
	C303.837738,270.935669 302.708160,264.098389 302.039459,257.216278 
	C301.941711,256.210327 304.039917,254.990967 305.498535,253.727386 
z"/>
<path fill="#E7E7E7" opacity="1.000000" stroke="none" 
	d="
M301.170898,234.855103 
	C303.456390,236.803162 305.459351,238.527802 308.024048,240.736099 
	C304.667206,242.157379 301.852600,243.349091 298.752228,244.661789 
	C296.263519,239.529572 293.913269,234.682983 290.858154,228.382721 
	C294.944000,230.928253 297.916199,232.779968 301.170898,234.855103 
z"/>
<path fill="#ECECEC" opacity="1.000000" stroke="none" 
	d="
M235.089600,230.427048 
	C235.960587,229.961594 236.546524,229.676559 237.965134,228.986465 
	C235.426544,234.443985 233.210968,239.207092 230.707367,244.589401 
	C227.746140,243.415833 224.811859,242.252930 220.644714,240.601440 
	C226.008102,236.815979 230.406326,233.711731 235.089600,230.427048 
z"/>
<path fill="#ECECEC" opacity="1.000000" stroke="none" 
	d="
M302.051941,323.925568 
	C304.029907,324.792145 305.634003,325.552399 308.355865,326.842468 
	C302.827515,330.810760 297.959015,334.305389 293.090515,337.800018 
	C292.759064,337.418945 292.427612,337.037872 292.096130,336.656769 
	C293.941925,332.582916 295.636536,328.426727 297.769684,324.509308 
	C298.164276,323.784760 300.329834,324.024567 302.051941,323.925568 
z"/>
<path fill="#ECEBEC" opacity="1.000000" stroke="none" 
	d="
M236.742249,337.249817 
	C231.668091,334.062103 226.593918,330.874359 220.339203,326.944977 
	C224.735352,325.085815 227.513199,323.911041 230.529129,322.635559 
	C232.825241,327.339478 234.973297,331.740112 237.031799,336.598877 
	C236.942215,337.057007 236.742264,337.249817 236.742249,337.249817 
z"/>
<path fill="#ECEBEC" opacity="1.000000" stroke="none" 
	d="
M237.041550,336.959900 
	C237.338196,337.154297 237.535522,337.445770 237.732834,337.737244 
	C237.485382,337.742554 237.237946,337.747833 236.866379,337.501465 
	C236.742264,337.249817 236.942215,337.057007 237.041550,336.959900 
z"/>
</svg>