<svg width="20" height="20" viewBox="0 0 20 20" fill="none" xmlns="http://www.w3.org/2000/svg">
    <path fill-rule="evenodd" clip-rule="evenodd"
        d="M10 0C4.47715 0 0 4.47715 0 10C0 15.5228 4.47715 20 10 20C15.5228 20 20 15.5228 20 10C20 4.47715 15.5228 0 10 0ZM14.9496 7.79557C15.3401 7.40505 15.3401 6.77188 14.9496 6.38136C14.5591 5.99083 13.9259 5.99083 13.5354 6.38136L8.58564 11.3311L6.46431 9.20979C6.07379 8.81926 5.44063 8.81926 5.0501 9.20979C4.65958 9.60031 4.65958 10.2335 5.0501 10.624L7.80782 13.3817C8.2374 13.8113 8.93388 13.8113 9.36345 13.3817L14.9496 7.79557Z"
        fill="rgba(43, 196, 86, 1)" />
</svg>