<svg width="24" height="24" viewBox="0 0 24 24" fill="none" xmlns="http://www.w3.org/2000/svg">
<g id="Icon/filled/direction/circle-arrow-left">
<g id="Vector">
<path fill-rule="evenodd" clip-rule="evenodd" d="M3.66667 12C3.66667 10.3518 4.15541 8.74066 5.07109 7.37025C5.98677 5.99984 7.28826 4.93174 8.81097 4.30101C10.3337 3.67028 12.0092 3.50525 13.6258 3.82679C15.2423 4.14834 16.7271 4.94201 17.8926 6.10745C19.058 7.27288 19.8517 8.75774 20.1732 10.3743C20.4948 11.9908 20.3297 13.6663 19.699 15.189C19.0683 16.7117 18.0002 18.0132 16.6298 18.9289C15.2593 19.8446 13.6482 20.3333 12 20.3333C9.79061 20.3309 7.6724 19.4522 6.11013 17.8899C4.54785 16.3276 3.6691 14.2094 3.66667 12ZM11.3098 16.1667C11.3098 16.3876 11.2221 16.5996 11.0658 16.7558C10.9096 16.9121 10.6976 16.9998 10.4767 16.9998C10.2557 16.9998 10.0438 16.9121 9.8875 16.7558L6.89917 13.7675C6.66698 13.5353 6.48279 13.2597 6.35713 12.9564C6.23147 12.6531 6.16679 12.3279 6.16679 11.9996C6.16679 11.6712 6.23147 11.3461 6.35713 11.0428C6.48279 10.7394 6.66698 10.4638 6.89917 10.2317L9.8875 7.24417L9.90834 7.22417C9.9863 7.14474 10.0794 7.08173 10.1821 7.03887C10.2848 6.996 10.3951 6.97415 10.5064 6.9746C10.6177 6.97504 10.7278 6.99778 10.8301 7.04147C10.9325 7.08516 11.0251 7.14891 11.1024 7.22897C11.1797 7.30902 11.2403 7.40376 11.2804 7.50758C11.3205 7.6114 11.3394 7.72221 11.336 7.83346C11.3326 7.94471 11.3069 8.05414 11.2605 8.15531C11.2141 8.25648 11.1479 8.34733 11.0658 8.4225L8.32167 11.1667L17 11.1608C17.221 11.1608 17.433 11.2486 17.5893 11.4049C17.7455 11.5612 17.8333 11.7732 17.8333 11.9942C17.8333 12.2152 17.7455 12.4271 17.5893 12.5834C17.433 12.7397 17.221 12.8275 17 12.8275L8.3225 12.8333L11.0658 15.5775C11.2221 15.7338 11.3098 15.9457 11.3098 16.1667Z" fill="#E14242"/>
<path fill-rule="evenodd" clip-rule="evenodd" d="M20.3147 6.4443C21.4135 8.08879 22 10.0222 22 12C21.9971 14.6513 20.9426 17.1932 19.0679 19.0679C17.1932 20.9426 14.6513 21.9971 12 22C10.0222 22 8.08879 21.4135 6.4443 20.3147C4.79981 19.2159 3.51809 17.6541 2.76121 15.8268C2.00433 13.9996 1.8063 11.9889 2.19215 10.0491C2.578 8.10929 3.53041 6.32746 4.92894 4.92894C6.32746 3.53041 8.10929 2.578 10.0491 2.19215C11.9889 1.8063 13.9996 2.00433 15.8268 2.76121C17.6541 3.51809 19.2159 4.79981 20.3147 6.4443ZM5.07109 7.37025C4.15541 8.74066 3.66667 10.3518 3.66667 12C3.6691 14.2094 4.54785 16.3276 6.11013 17.8899C7.6724 19.4522 9.79061 20.3309 12 20.3333C13.6482 20.3333 15.2593 19.8446 16.6298 18.9289C18.0002 18.0132 19.0683 16.7117 19.699 15.189C20.3297 13.6663 20.4948 11.9908 20.1732 10.3743C19.8517 8.75774 19.058 7.27288 17.8926 6.10745C16.7271 4.94201 15.2423 4.14834 13.6258 3.82679C12.0092 3.50525 10.3337 3.67028 8.81097 4.30101C7.28826 4.93174 5.98677 5.99984 5.07109 7.37025Z" fill="#E14242"/>
<path d="M11.0658 16.7558C11.2221 16.5996 11.3098 16.3876 11.3098 16.1667C11.3098 15.9457 11.2221 15.7338 11.0658 15.5775L8.3225 12.8333L17 12.8275C17.221 12.8275 17.433 12.7397 17.5893 12.5834C17.7455 12.4271 17.8333 12.2152 17.8333 11.9942C17.8333 11.7732 17.7455 11.5612 17.5893 11.4049C17.433 11.2486 17.221 11.1608 17 11.1608L8.32167 11.1667L11.0658 8.4225C11.1479 8.34733 11.2141 8.25648 11.2605 8.15531C11.3069 8.05414 11.3326 7.94471 11.336 7.83346C11.3394 7.72221 11.3205 7.6114 11.2804 7.50758C11.2403 7.40376 11.1797 7.30902 11.1024 7.22897C11.0251 7.14891 10.9325 7.08516 10.8301 7.04147C10.7278 6.99778 10.6177 6.97504 10.5064 6.9746C10.3951 6.97415 10.2848 6.996 10.1821 7.03887C10.0794 7.08173 9.9863 7.14474 9.90834 7.22417L9.8875 7.24417L6.89917 10.2317C6.66698 10.4638 6.48279 10.7394 6.35713 11.0428C6.23147 11.3461 6.16679 11.6712 6.16679 11.9996C6.16679 12.3279 6.23147 12.6531 6.35713 12.9564C6.48279 13.2597 6.66698 13.5353 6.89917 13.7675L9.8875 16.7558C10.0438 16.9121 10.2557 16.9998 10.4767 16.9998C10.6976 16.9998 10.9096 16.9121 11.0658 16.7558Z" fill="white"/>
</g>
</g>
</svg>
