<svg width="24" height="24" viewBox="0 0 24 24" fill="none" xmlns="http://www.w3.org/2000/svg">
<g id="Icon/filled/direction/circle-arrow-down">
<g id="Vector">
<path fill-rule="evenodd" clip-rule="evenodd" d="M3.6853 17.5557C2.58649 15.9112 2 13.9778 2 12C2.00287 9.34871 3.05736 6.80684 4.9321 4.9321C6.80684 3.05736 9.34871 2.00287 12 2C13.9778 2 15.9112 2.58649 17.5557 3.6853C19.2002 4.78412 20.4819 6.3459 21.2388 8.17316C21.9957 10.0004 22.1937 12.0111 21.8078 13.9509C21.422 15.8907 20.4696 17.6725 19.0711 19.0711C17.6725 20.4696 15.8907 21.422 13.9509 21.8078C12.0111 22.1937 10.0004 21.9957 8.17316 21.2388C6.3459 20.4819 4.78412 19.2002 3.6853 17.5557ZM18.9289 16.6297C19.8446 15.2593 20.3333 13.6482 20.3333 12C20.3309 9.79061 19.4522 7.6724 17.8899 6.11012C16.3276 4.54785 14.2094 3.66909 12 3.66667C10.3518 3.66667 8.74066 4.15541 7.37025 5.07109C5.99984 5.98676 4.93173 7.28825 4.301 8.81097C3.67027 10.3337 3.50525 12.0092 3.82679 13.6258C4.14833 15.2423 4.94201 16.7271 6.10744 17.8926C7.27288 19.058 8.75774 19.8517 10.3742 20.1732C11.9908 20.4948 13.6663 20.3297 15.189 19.699C16.7117 19.0683 18.0132 18.0002 18.9289 16.6297Z" fill="#E14242"/>
<path fill-rule="evenodd" clip-rule="evenodd" d="M20.3333 12C20.3333 13.6482 19.8446 15.2593 18.9289 16.6297C18.0132 18.0002 16.7117 19.0683 15.189 19.699C13.6663 20.3297 11.9908 20.4948 10.3742 20.1732C8.75774 19.8517 7.27288 19.058 6.10744 17.8926C4.94201 16.7271 4.14833 15.2423 3.82679 13.6258C3.50525 12.0092 3.67027 10.3337 4.301 8.81097C4.93173 7.28825 5.99984 5.98676 7.37025 5.07109C8.74066 4.15541 10.3518 3.66667 12 3.66667C14.2094 3.66909 16.3276 4.54785 17.8899 6.11012C19.4522 7.6724 20.3309 9.79061 20.3333 12ZM12.6902 7.83333C12.6902 7.61236 12.7779 7.40044 12.9342 7.24417C13.0904 7.08794 13.3024 7.00018 13.5233 7.00018C13.7443 7.00018 13.9562 7.08794 14.1125 7.24417L17.1008 10.2325C17.333 10.4647 17.5172 10.7403 17.6429 11.0436C17.7685 11.347 17.8332 11.6721 17.8332 12.0004C17.8332 12.3288 17.7685 12.6539 17.6429 12.9572C17.5172 13.2606 17.333 13.5362 17.1008 13.7683L14.1125 16.7558L14.0917 16.7758C14.0137 16.8553 13.9206 16.9183 13.8179 16.9611C13.7152 17.004 13.6049 17.0259 13.4936 17.0254C13.3823 17.025 13.2722 17.0022 13.1699 16.9585C13.0675 16.9148 12.9749 16.8511 12.8976 16.771C12.8203 16.691 12.7597 16.5962 12.7196 16.4924C12.6795 16.3886 12.6606 16.2778 12.664 16.1665C12.6674 16.0553 12.6931 15.9459 12.7395 15.8447C12.7859 15.7435 12.8521 15.6527 12.9342 15.5775L15.6783 12.8333L7 12.8392C6.77899 12.8392 6.56702 12.7514 6.41074 12.5951C6.25446 12.4388 6.16667 12.2268 6.16667 12.0058C6.16667 11.7848 6.25446 11.5729 6.41074 11.4166C6.56702 11.2603 6.77899 11.1725 7 11.1725L15.6775 11.1667L12.9342 8.4225C12.7779 8.26623 12.6902 8.0543 12.6902 7.83333Z" fill="#E14242"/>
<path d="M12.9342 7.24417C12.7779 7.40044 12.6902 7.61236 12.6902 7.83333C12.6902 8.0543 12.7779 8.26623 12.9342 8.4225L15.6775 11.1667L7 11.1725C6.77899 11.1725 6.56702 11.2603 6.41074 11.4166C6.25446 11.5729 6.16667 11.7848 6.16667 12.0058C6.16667 12.2268 6.25446 12.4388 6.41074 12.5951C6.56702 12.7514 6.77899 12.8392 7 12.8392L15.6783 12.8333L12.9342 15.5775C12.8521 15.6527 12.7859 15.7435 12.7395 15.8447C12.6931 15.9459 12.6674 16.0553 12.664 16.1665C12.6606 16.2778 12.6795 16.3886 12.7196 16.4924C12.7597 16.5962 12.8203 16.691 12.8976 16.771C12.9749 16.8511 13.0675 16.9148 13.1699 16.9585C13.2722 17.0022 13.3823 17.025 13.4936 17.0254C13.6049 17.0259 13.7152 17.004 13.8179 16.9611C13.9206 16.9183 14.0137 16.8553 14.0917 16.7758L14.1125 16.7558L17.1008 13.7683C17.333 13.5362 17.5172 13.2606 17.6429 12.9572C17.7685 12.6539 17.8332 12.3288 17.8332 12.0004C17.8332 11.6721 17.7685 11.347 17.6429 11.0436C17.5172 10.7403 17.333 10.4647 17.1008 10.2325L14.1125 7.24417C13.9562 7.08794 13.7443 7.00018 13.5233 7.00018C13.3024 7.00018 13.0904 7.08794 12.9342 7.24417Z" fill="white"/>
</g>
</g>
</svg>
