<svg width="20" height="20" viewBox="0 0 20 20" fill="none" xmlns="http://www.w3.org/2000/svg">
    <g clip-path="url(#clip0_271_15125)">
        <path
            d="M10.8334 1.70913V0.833298C10.8334 0.612284 10.7456 0.400323 10.5893 0.244043C10.433 0.0877622 10.2211 -3.52147e-05 10.0001 -3.52147e-05C9.77904 -3.52147e-05 9.56708 0.0877622 9.4108 0.244043C9.25452 0.400323 9.16672 0.612284 9.16672 0.833298V1.70913C7.48903 1.85954 5.88541 2.47014 4.53255 3.47365C3.17968 4.47716 2.13008 5.83464 1.49938 7.39653C0.868677 8.95842 0.681355 10.6641 0.958053 12.3256C1.23475 13.9872 1.96473 15.5401 3.06756 16.8133C2.63203 17.0288 2.26808 17.3655 2.01955 17.7831C1.77101 18.2006 1.64848 18.6811 1.66672 19.1666C1.66672 19.3876 1.75452 19.5996 1.9108 19.7559C2.06708 19.9122 2.27904 20 2.50006 20C2.72107 20 2.93303 19.9122 3.08931 19.7559C3.24559 19.5996 3.33339 19.3876 3.33339 19.1666C3.32646 18.9098 3.41868 18.6601 3.59091 18.4694C3.76313 18.2787 4.00215 18.1616 4.25839 18.1425C4.31571 18.1316 4.37162 18.1142 4.42506 18.0908C6.02134 19.3289 7.98409 20.0008 10.0042 20.0008C12.0244 20.0008 13.9871 19.3289 15.5834 18.0908C15.6322 18.1133 15.6829 18.1311 15.7351 18.1441C15.9922 18.1617 16.2326 18.2778 16.4062 18.4683C16.5798 18.6588 16.6731 18.909 16.6667 19.1666C16.6667 19.3876 16.7545 19.5996 16.9108 19.7559C17.0671 19.9122 17.279 20 17.5001 20C17.7211 20 17.933 19.9122 18.0893 19.7559C18.2456 19.5996 18.3334 19.3876 18.3334 19.1666C18.3516 18.6811 18.2291 18.2006 17.9806 17.7831C17.732 17.3655 17.3681 17.0288 16.9326 16.8133C18.0354 15.5401 18.7654 13.9872 19.0421 12.3256C19.3188 10.6641 19.1314 8.95842 18.5007 7.39653C17.87 5.83464 16.8204 4.47716 15.4676 3.47365C14.1147 2.47014 12.5111 1.85954 10.8334 1.70913ZM2.50006 10.8333C2.50006 9.34994 2.93992 7.89989 3.76404 6.66652C4.58815 5.43315 5.75949 4.47186 7.12993 3.9042C8.50038 3.33655 10.0084 3.18802 11.4632 3.47741C12.9181 3.7668 14.2545 4.4811 15.3034 5.53C16.3522 6.57889 17.0666 7.91527 17.3559 9.37012C17.6453 10.825 17.4968 12.333 16.9292 13.7034C16.3615 15.0739 15.4002 16.2452 14.1668 17.0693C12.9335 17.8934 11.4834 18.3333 10.0001 18.3333C8.01168 18.3309 6.10543 17.5399 4.69944 16.1339C3.29344 14.7279 2.50248 12.8217 2.50006 10.8333Z"
            fill="currentColor" style="mix-blend-mode:multiply" />
        <path
            d="M16.0123 -3.84636e-05C15.7913 -3.84636e-05 15.5793 0.0877589 15.4231 0.244039C15.2668 0.40032 15.179 0.612281 15.179 0.833295C15.179 1.05431 15.2668 1.26627 15.4231 1.42255C15.5793 1.57883 15.7913 1.66663 16.0123 1.66663C16.3029 1.64454 16.595 1.68153 16.8709 1.77536C17.1468 1.8692 17.4008 2.01794 17.6177 2.21261C17.8346 2.40729 18.0097 2.64387 18.1327 2.90808C18.2557 3.1723 18.3239 3.45868 18.3331 3.74996C18.3331 3.97098 18.4209 4.18294 18.5772 4.33922C18.7335 4.4955 18.9455 4.58329 19.1665 4.58329C19.3875 4.58329 19.5995 4.4955 19.7557 4.33922C19.912 4.18294 19.9998 3.97098 19.9998 3.74996C19.9891 3.24037 19.877 2.73803 19.6698 2.27232C19.4627 1.80661 19.1648 1.38688 18.7935 1.0377C18.4222 0.688514 17.9849 0.416884 17.5074 0.238698C17.0299 0.0605129 16.5216 -0.0206488 16.0123 -3.84636e-05Z"
            fill="currentColor" style="mix-blend-mode:multiply" />
        <path
            d="M1.66667 3.74996C1.67595 3.45868 1.74414 3.1723 1.8671 2.90808C1.99006 2.64387 2.16526 2.40729 2.38213 2.21261C2.59899 2.01794 2.85304 1.8692 3.12895 1.77536C3.40486 1.68153 3.69691 1.64454 3.9875 1.66663C4.20851 1.66663 4.42048 1.57883 4.57676 1.42255C4.73304 1.26627 4.82083 1.05431 4.82083 0.833295C4.82083 0.612281 4.73304 0.40032 4.57676 0.244039C4.42048 0.0877589 4.20851 -3.84636e-05 3.9875 -3.84636e-05C3.47822 -0.0206488 2.96994 0.0605129 2.4924 0.238698C2.01486 0.416884 1.57765 0.688514 1.20636 1.0377C0.835056 1.38688 0.537122 1.80661 0.329984 2.27232C0.122846 2.73803 0.0106635 3.24037 0 3.74996C0 3.97098 0.0877974 4.18294 0.244078 4.33922C0.400358 4.4955 0.61232 4.58329 0.833333 4.58329C1.05435 4.58329 1.26631 4.4955 1.42259 4.33922C1.57887 4.18294 1.66667 3.97098 1.66667 3.74996Z"
            fill="currentColor" style="mix-blend-mode:multiply" />
        <path
            d="M10.8335 9.65497V5.8333C10.8335 5.61229 10.7457 5.40033 10.5894 5.24405C10.4331 5.08777 10.2212 4.99997 10.0001 4.99997C9.77913 4.99997 9.56716 5.08777 9.41088 5.24405C9.2546 5.40033 9.16681 5.61229 9.16681 5.8333V9.99997C9.16685 10.221 9.25468 10.4329 9.41097 10.5891L11.911 13.0891C12.0681 13.2409 12.2786 13.3249 12.4971 13.323C12.7156 13.3211 12.9246 13.2335 13.0792 13.079C13.2337 12.9245 13.3213 12.7155 13.3232 12.497C13.3251 12.2785 13.2411 12.068 13.0893 11.9108L10.8335 9.65497Z"
            fill="currentColor" style="mix-blend-mode:multiply" />
    </g>
    <defs>
        <clipPath id="clip0_271_15125">
            <rect width="20" height="20" fill="white" />
        </clipPath>
    </defs>
</svg>