<svg width="27" height="28" viewBox="0 0 27 28" fill="none" xmlns="http://www.w3.org/2000/svg">
<path d="M13.3333 0.666672C10.6963 0.666672 8.11839 1.44866 5.92573 2.91374C3.73308 4.37883 2.02411 6.46121 1.01495 8.89756C0.00577715 11.3339 -0.258267 14.0148 0.256202 16.6012C0.770672 19.1876 2.04055 21.5634 3.90525 23.4281C5.76995 25.2928 8.14572 26.5627 10.7321 27.0771C13.3185 27.5916 15.9994 27.3276 18.4358 26.3184C20.8721 25.3092 22.9545 23.6003 24.4196 21.4076C25.8847 19.2149 26.6667 16.6371 26.6667 14C26.6667 10.4638 25.2619 7.0724 22.7614 4.57191C20.2609 2.07143 16.8696 0.666672 13.3333 0.666672V0.666672ZM17.0056 7.05445L18.3122 5.25667C18.398 5.13855 18.5062 5.03849 18.6307 4.9622C18.7552 4.88591 18.8935 4.83488 19.0376 4.81202C19.1818 4.78917 19.3291 4.79494 19.4711 4.82901C19.613 4.86307 19.7469 4.92476 19.865 5.01056C19.9831 5.09636 20.0832 5.20458 20.1595 5.32905C20.2358 5.45351 20.2868 5.59179 20.3096 5.73598C20.3325 5.88017 20.3267 6.02744 20.2927 6.1694C20.2586 6.31136 20.1969 6.44522 20.1111 6.56334L18.8044 8.36111C18.6312 8.59966 18.3702 8.75961 18.079 8.80576C17.7878 8.85192 17.4902 8.7805 17.2517 8.60723C17.0131 8.43395 16.8532 8.17301 16.807 7.88181C16.7609 7.59061 16.8323 7.293 17.0056 7.05445ZM6.80223 5.01112C6.92037 4.92478 7.05441 4.86264 7.19663 4.82825C7.33886 4.79386 7.48648 4.7879 7.63102 4.81072C7.77556 4.83354 7.91416 4.88468 8.03888 4.96121C8.1636 5.03773 8.27197 5.13814 8.35778 5.25667L9.66667 7.05445C9.83994 7.29373 9.91107 7.59205 9.86439 7.88377C9.81772 8.1755 9.65707 8.43673 9.41778 8.61C9.1785 8.78328 8.88018 8.8544 8.58846 8.80772C8.29673 8.76105 8.0355 8.6004 7.86223 8.36111L6.55556 6.56334C6.4698 6.44523 6.40816 6.31139 6.37414 6.16945C6.34013 6.02752 6.33441 5.88027 6.35732 5.73612C6.38022 5.59198 6.4313 5.45376 6.50764 5.32936C6.58398 5.20496 6.68408 5.09682 6.80223 5.01112ZM6.28 17.4556L4.16889 18.1422C4.02852 18.1945 3.87903 18.2178 3.72942 18.2108C3.5798 18.2038 3.43314 18.1666 3.29825 18.1015C3.16337 18.0364 3.04304 17.9447 2.94451 17.8319C2.84597 17.7191 2.77126 17.5875 2.72486 17.4451C2.67847 17.3027 2.66134 17.1523 2.67452 17.0031C2.6877 16.8539 2.7309 16.7089 2.80154 16.5769C2.87219 16.4448 2.9688 16.3284 3.08558 16.2346C3.20237 16.1408 3.33691 16.0716 3.48112 16.0311L5.59223 15.3444C5.73275 15.2916 5.88252 15.2679 6.03249 15.2745C6.18245 15.2812 6.32951 15.3182 6.46478 15.3833C6.60006 15.4484 6.72074 15.5402 6.81954 15.6532C6.91835 15.7663 6.99323 15.8981 7.03966 16.0409C7.08609 16.1836 7.10312 16.3343 7.0897 16.4838C7.07629 16.6333 7.03272 16.7786 6.96162 16.9108C6.89052 17.043 6.79337 17.1595 6.67603 17.2531C6.55869 17.3467 6.42359 17.4156 6.27889 17.4556H6.28ZM14.4444 24C14.4444 24.2947 14.3274 24.5773 14.119 24.7857C13.9106 24.994 13.628 25.1111 13.3333 25.1111C13.0387 25.1111 12.756 24.994 12.5477 24.7857C12.3393 24.5773 12.2222 24.2947 12.2222 24V21.7778C12.2222 21.4831 12.3393 21.2005 12.5477 20.9921C12.756 20.7837 13.0387 20.6667 13.3333 20.6667C13.628 20.6667 13.9106 20.7837 14.119 20.9921C14.3274 21.2005 14.4444 21.4831 14.4444 21.7778V24ZM13.3333 17.5556L9.15112 19.7556L9.95 15.0989L6.56667 11.8011L11.2422 11.1222L13.3333 6.88889L15.4244 11.1222L20.1 11.8011L16.7167 15.0989L17.5156 19.7556L13.3333 17.5556ZM22.5 18.1444L20.3889 17.4578C20.2442 17.4178 20.1091 17.3489 19.9918 17.2553C19.8744 17.1617 19.7773 17.0452 19.7062 16.913C19.6351 16.7808 19.5915 16.6356 19.5781 16.4861C19.5647 16.3365 19.5817 16.1859 19.6281 16.0431C19.6746 15.9003 19.7494 15.7685 19.8482 15.6555C19.947 15.5424 20.0677 15.4506 20.203 15.3855C20.3383 15.3205 20.4853 15.2835 20.6353 15.2768C20.7853 15.2701 20.935 15.2939 21.0756 15.3467L23.1867 16.0333C23.3309 16.0738 23.4654 16.143 23.5822 16.2368C23.699 16.3306 23.7956 16.447 23.8662 16.5791C23.9369 16.7112 23.9801 16.8562 23.9933 17.0054C24.0064 17.1546 23.9893 17.3049 23.9429 17.4473C23.8965 17.5897 23.8218 17.7213 23.7233 17.8341C23.6247 17.9469 23.5044 18.0386 23.3695 18.1037C23.2346 18.1688 23.088 18.206 22.9384 18.213C22.7887 18.22 22.6393 18.1967 22.4989 18.1444H22.5Z" fill="currentColor"/>
</svg>
