<svg width="28" height="28" viewBox="0 0 28 28" fill="none" xmlns="http://www.w3.org/2000/svg">
<path d="M19.5556 18.4445C16.2767 18.4445 13.5523 17.7345 11.7779 16.5422C11.7779 17.3711 11.7779 17.9178 11.7779 18.4445C11.7779 20.2856 15.2601 21.7778 19.5556 21.7778C23.8512 21.7778 27.3334 20.2856 27.3334 18.4445C27.3334 17.9178 27.3334 17.3711 27.3334 16.5422C25.559 17.7345 22.8345 18.4445 19.5556 18.4445Z" fill="currentColor"/>
<path d="M19.5556 24C16.2767 24 13.5523 23.29 11.7779 22.0978C11.7779 22.9267 11.7779 23.4733 11.7779 24C11.7779 25.8411 15.2601 27.3333 19.5556 27.3333C23.8512 27.3333 27.3334 25.8411 27.3334 24C27.3334 23.4733 27.3334 22.9267 27.3334 22.0978C25.559 23.29 22.8345 24 19.5556 24Z" fill="currentColor"/>
<path d="M19.5556 16.2222C23.8512 16.2222 27.3334 14.7298 27.3334 12.8889C27.3334 11.0479 23.8512 9.55556 19.5556 9.55556C15.2601 9.55556 11.7779 11.0479 11.7779 12.8889C11.7779 14.7298 15.2601 16.2222 19.5556 16.2222Z" fill="currentColor"/>
<path d="M8.44453 7.33334C12.7401 7.33334 16.2223 5.84095 16.2223 4.00001C16.2223 2.15906 12.7401 0.666672 8.44453 0.666672C4.14898 0.666672 0.666748 2.15906 0.666748 4.00001C0.666748 5.84095 4.14898 7.33334 8.44453 7.33334Z" fill="currentColor"/>
<path d="M9.55564 20.6367C9.1923 20.6545 8.82341 20.6667 8.44453 20.6667C5.16564 20.6667 2.44119 19.9567 0.666748 18.7645C0.666748 19.5933 0.666748 20.14 0.666748 20.6667C0.666748 22.5078 4.14897 24 8.44453 24C8.8223 24 9.1923 23.9845 9.55564 23.9622V20.6367Z" fill="currentColor"/>
<path d="M9.55564 15.0811C9.1923 15.0989 8.82341 15.1111 8.44453 15.1111C5.16564 15.1111 2.44119 14.4011 0.666748 13.2089C0.666748 14.0378 0.666748 14.5845 0.666748 15.1111C0.666748 16.9522 4.14897 18.4445 8.44453 18.4445C8.8223 18.4445 9.1923 18.4289 9.55564 18.4067V15.0811Z" fill="currentColor"/>
<path d="M11.689 9.29556C10.6867 9.46223 9.6023 9.55556 8.44453 9.55556C5.16564 9.55556 2.44119 8.84556 0.666748 7.65334C0.666748 8.48223 0.666748 9.0289 0.666748 9.55556C0.666748 11.3967 4.14897 12.8889 8.44453 12.8889C8.82341 12.8889 9.19341 12.8733 9.55897 12.8511C9.5723 11.4478 10.3445 10.2289 11.689 9.29556Z" fill="currentColor"/>
</svg>
