<svg width="14" height="13" viewBox="0 0 14 13" fill="none" xmlns="http://www.w3.org/2000/svg">
<path d="M12.2083 0.75H1.79167C1.5154 0.75 1.25045 0.859747 1.0551 1.0551C0.859747 1.25045 0.75 1.5154 0.75 1.79167L0.75 8.5625C0.75 8.83877 0.859747 9.10372 1.0551 9.29907C1.25045 9.49442 1.5154 9.60417 1.79167 9.60417H3.35417V12.7292L7.52083 9.60417H12.2083C12.4846 9.60417 12.7496 9.49442 12.9449 9.29907C13.1403 9.10372 13.25 8.83877 13.25 8.5625V1.79167C13.25 1.5154 13.1403 1.25045 12.9449 1.0551C12.7496 0.859747 12.4846 0.75 12.2083 0.75Z" fill="currentColor"/>
</svg>
