<svg xmlns="http://www.w3.org/2000/svg" width="24" height="24" viewBox="0 0 24 24" fill="none">
    <path
        d="M2 15.0304V19.1972C2 19.4182 2.0878 19.6301 2.24408 19.7864C2.40037 19.9427 2.61234 20.0305 2.83336 20.0305H6.16678C6.3878 20.0305 6.59977 19.9427 6.75605 19.7864C6.91234 19.6301 7.00014 19.4182 7.00014 19.1972V15.0304H2Z"
        fill="currentColor" fill-opacity="0.8" style="mix-blend-mode:multiply" />
    <path
        d="M7.00014 13.3637V4.19675C7.00014 3.97573 6.91234 3.76377 6.75605 3.60748C6.59977 3.4512 6.3878 3.3634 6.16678 3.3634H2.83336C2.61234 3.3634 2.40037 3.4512 2.24408 3.60748C2.0878 3.76377 2 3.97573 2 4.19675V13.3637H7.00014Z"
        fill="currentColor" fill-opacity="0.8" style="mix-blend-mode:multiply" />
    <path
        d="M8.66685 15.0304V19.1972C8.66685 19.4182 8.75465 19.6301 8.91093 19.7864C9.06722 19.9427 9.27918 20.0305 9.5002 20.0305H12.8336C13.0546 20.0305 13.2666 19.9427 13.4229 19.7864C13.5792 19.6301 13.667 19.4182 13.667 19.1972V15.0304H8.66685Z"
        fill="currentColor" fill-opacity="0.8" style="mix-blend-mode:multiply" />
    <path
        d="M13.667 13.3637V4.19675C13.667 3.97573 13.5792 3.76377 13.4229 3.60748C13.2666 3.4512 13.0546 3.3634 12.8336 3.3634H9.5002C9.27918 3.3634 9.06722 3.4512 8.91093 3.60748C8.75465 3.76377 8.66685 3.97573 8.66685 4.19675V13.3637H13.667Z"
        fill="currentColor" fill-opacity="0.8" style="mix-blend-mode:multiply" />
    <path
        d="M15.742 13.7245L20.6005 12.5445L18.4379 3.63674C18.3858 3.42206 18.2506 3.23686 18.062 3.12185C17.8734 3.00684 17.6468 2.97142 17.4321 3.02339L14.192 3.81008C13.9782 3.8633 13.7943 3.99898 13.6803 4.18747C13.5663 4.37596 13.5315 4.60191 13.5836 4.81594L15.742 13.7245Z"
        fill="currentColor" fill-opacity="0.8" style="mix-blend-mode:multiply" />
    <path
        d="M21.9764 18.2138L20.9938 14.1645L16.1346 15.3437L17.1179 19.393C17.1437 19.4994 17.1902 19.5996 17.2548 19.6881C17.3193 19.7765 17.4007 19.8513 17.4942 19.9082C17.5877 19.9652 17.6915 20.0032 17.7996 20.02C17.9078 20.0368 18.0182 20.0322 18.1246 20.0063L21.3639 19.2205C21.5786 19.1682 21.7637 19.0328 21.8786 18.844C21.9934 18.6552 22.0286 18.4285 21.9764 18.2138Z"
        fill="currentColor" fill-opacity="0.8" style="mix-blend-mode:multiply" />
</svg>