<svg width="16" height="16" viewBox="0 0 16 16" fill="none" xmlns="http://www.w3.org/2000/svg">
  <path
    d="M13.6667 1.33325H2.55556C2.40821 1.33325 2.26691 1.39178 2.16272 1.49597C2.05853 1.60016 2 1.74147 2 1.88881V4.66659C2 5.25596 2.23413 5.82119 2.65087 6.23793C3.06762 6.65468 3.63285 6.88881 4.22222 6.88881H4.26667C4.38726 7.71822 4.77258 8.48648 5.36523 9.07913C5.95788 9.67178 6.72614 10.0571 7.55556 10.1777V11.8888H8.66667V10.1777C9.49608 10.0571 10.2643 9.67178 10.857 9.07913C11.4496 8.48648 11.835 7.71822 11.9556 6.88881H12C12.5894 6.88881 13.1546 6.65468 13.5713 6.23793C13.9881 5.82119 14.2222 5.25596 14.2222 4.66659V1.88881C14.2222 1.74147 14.1637 1.60016 14.0595 1.49597C13.9553 1.39178 13.814 1.33325 13.6667 1.33325ZM3.11111 4.66659V2.44436H4.22222V5.7777C3.92754 5.7777 3.64492 5.66063 3.43655 5.45226C3.22817 5.24389 3.11111 4.96127 3.11111 4.66659ZM13.1111 4.66659C13.1111 4.96127 12.994 5.24389 12.7857 5.45226C12.5773 5.66063 12.2947 5.7777 12 5.7777V2.44436H13.1111V4.66659Z"
    fill="currentColor" />
  <path d="M9.22222 12.4444H7C4.22222 12.4444 4.22222 14.6666 4.22222 14.6666H12C12 14.6666 12 12.4444 9.22222 12.4444Z"
    fill="currentColor" />
</svg>