<svg width="26" height="28" viewBox="0 0 26 28" fill="none" xmlns="http://www.w3.org/2000/svg">
<path d="M23.9998 0.666664H1.77762C1.48293 0.666664 1.20031 0.783727 0.991941 0.992101C0.783567 1.20047 0.666504 1.48309 0.666504 1.77778V7.33333C0.666504 8.51207 1.13476 9.64253 1.96825 10.476C2.80175 11.3095 3.93221 11.7778 5.11095 11.7778H5.19984C5.44102 13.4366 6.21167 14.9731 7.39697 16.1584C8.58227 17.3437 10.1188 18.1144 11.7776 18.3556V21.7778H13.9998V18.3556C15.6587 18.1144 17.1952 17.3437 18.3805 16.1584C19.5658 14.9731 20.3364 13.4366 20.5776 11.7778H20.6665C21.8452 11.7778 22.9757 11.3095 23.8092 10.476C24.6427 9.64253 25.111 8.51207 25.111 7.33333V1.77778C25.111 1.48309 24.9939 1.20047 24.7855 0.992101C24.5771 0.783727 24.2945 0.666664 23.9998 0.666664ZM2.88873 7.33333V2.88889H5.11095V9.55555C4.52158 9.55555 3.95635 9.32143 3.5396 8.90468C3.12285 8.48793 2.88873 7.9227 2.88873 7.33333ZM22.8887 7.33333C22.8887 7.9227 22.6546 8.48793 22.2379 8.90468C21.8211 9.32143 21.2559 9.55555 20.6665 9.55555V2.88889H22.8887V7.33333Z" fill="currentColor"/>
<path d="M15.1109 22.8889H10.6665C5.11095 22.8889 5.11095 27.3333 5.11095 27.3333H20.6665C20.6665 27.3333 20.6665 22.8889 15.1109 22.8889Z" fill="#FFA347"/>
</svg>
