<svg width="20" height="20" viewBox="0 0 20 20" fill="none" xmlns="http://www.w3.org/2000/svg">
<path d="M19.6015 17.6773L14.8564 12.9322C16.0466 11.2595 16.5648 9.20063 16.3084 7.16375C16.052 5.12688 15.0396 3.2607 13.472 1.93515C11.9043 0.609604 9.89581 -0.0785371 7.84464 0.00713755C5.79347 0.0928122 3.84937 0.946048 2.39771 2.39771C0.946048 3.84937 0.0928122 5.79347 0.00713755 7.84464C-0.0785371 9.89581 0.609604 11.9043 1.93515 13.472C3.2607 15.0396 5.12688 16.052 7.16375 16.3084C9.20063 16.5648 11.2595 16.0466 12.9322 14.8564L17.6773 19.6015C17.9325 19.8567 18.2786 20 18.6394 20C19.0003 20 19.3463 19.8567 19.6015 19.6015C19.8567 19.3463 20 19.0003 20 18.6394C20 18.2786 19.8567 17.9325 19.6015 17.6773ZM1.86429 8.21163C1.86429 6.95625 2.23655 5.72905 2.93401 4.68524C3.63146 3.64142 4.62278 2.82787 5.78261 2.34745C6.94244 1.86703 8.21868 1.74134 9.44994 1.98625C10.6812 2.23116 11.8122 2.83569 12.6999 3.72338C13.5876 4.61107 14.1921 5.74206 14.437 6.97333C14.6819 8.20459 14.5562 9.48083 14.0758 10.6407C13.5954 11.8005 12.7818 12.7918 11.738 13.4893C10.6942 14.1867 9.46702 14.559 8.21163 14.559C6.5288 14.5571 4.91544 13.8877 3.7255 12.6978C2.53556 11.5078 1.86621 9.89447 1.86429 8.21163Z" fill="currentColor"/>
</svg>
