<svg width="20" height="20" viewBox="0 0 20 20" fill="none" xmlns="http://www.w3.org/2000/svg">
  <g id="Icon/outline/app/flag-points">
    <g id="Vector">
      <path fill-rule="evenodd" clip-rule="evenodd"
        d="M4.72287 2.36111C4.72287 1.97758 4.41196 1.66667 4.02843 1.66667C3.6449 1.66667 3.33398 1.97758 3.33398 2.36111V17.6389C3.33398 18.0224 3.6449 18.3333 4.02843 18.3333C4.41196 18.3333 4.72287 18.0224 4.72287 17.6389V12.7778H16.5284C16.7691 12.7778 16.9926 12.6532 17.1192 12.4484C17.2457 12.2437 17.2572 11.988 17.1496 11.7728L15.2215 7.91667L17.1496 4.06057C17.2572 3.8453 17.2457 3.58964 17.1192 3.38491C16.9926 3.18018 16.7691 3.05556 16.5284 3.05556H4.72287V2.36111ZM13.824 7.6061L15.4048 4.44445H4.72287V11.3889H15.4048L13.824 8.22723C13.7262 8.03173 13.7262 7.80161 13.824 7.6061Z"
        fill="currentColor" style="mix-blend-mode:multiply" />
    </g>
  </g>
</svg>