<svg width="20" height="20" viewBox="0 0 20 20" fill="none" xmlns="http://www.w3.org/2000/svg">
<path d="M16.8168 8.49169C16.2174 8.38323 15.6092 8.33022 15.0001 8.33335C14.6501 8.33335 14.3084 8.33335 13.9668 8.40002C13.5414 7.83242 12.9985 7.36339 12.3751 7.02502C12.9106 6.44023 13.2078 5.67625 13.2084 4.88335C13.2084 4.03024 12.8695 3.21207 12.2663 2.60883C11.6631 2.00558 10.8449 1.66669 9.99178 1.66669C9.13866 1.66669 8.32049 2.00558 7.71725 2.60883C7.11401 3.21207 6.77511 4.03024 6.77511 4.88335C6.77572 5.67625 7.07299 6.44023 7.60844 7.02502C6.98877 7.36515 6.44671 7.83058 6.01678 8.39169C5.69178 8.33335 5.35011 8.33335 5.00011 8.33335C4.39046 8.33572 3.78233 8.3943 3.18344 8.50835C2.98931 8.54385 2.81408 8.64709 2.68894 8.7997C2.56381 8.9523 2.49689 9.14436 2.50011 9.34169V16.2167C2.49991 16.3391 2.52669 16.4601 2.57854 16.571C2.63039 16.6819 2.70604 16.78 2.80011 16.8584C2.89359 16.9372 3.00326 16.9945 3.12136 17.0261C3.23945 17.0578 3.36307 17.0631 3.48344 17.0417C3.98212 16.9331 4.48992 16.8717 5.00011 16.8584C6.61436 16.8566 8.19358 17.3289 9.54178 18.2167L9.65011 18.2584C9.76065 18.3063 9.87962 18.3318 10.0001 18.3334C10.0796 18.3324 10.1585 18.3183 10.2334 18.2917H10.2918L10.4001 18.25C11.7611 17.3394 13.3626 16.855 15.0001 16.8584C15.5092 16.8607 16.017 16.9109 16.5168 17.0084C16.6372 17.0298 16.7608 17.0245 16.8789 16.9928C16.997 16.9611 17.1066 16.9038 17.2001 16.825C17.2942 16.7467 17.3698 16.6486 17.4217 16.5376C17.4735 16.4267 17.5003 16.3058 17.5001 16.1834V9.30835C17.4994 9.11388 17.4307 8.92579 17.3059 8.77664C17.1811 8.62749 17.0081 8.52669 16.8168 8.49169ZM10.0001 3.33335C10.3905 3.36204 10.7556 3.53735 11.022 3.82409C11.2884 4.11083 11.4365 4.48776 11.4365 4.87919C11.4365 5.27061 11.2884 5.64754 11.022 5.93428C10.7556 6.22102 10.3905 6.39634 10.0001 6.42502C9.60974 6.39634 9.24467 6.22102 8.97823 5.93428C8.71178 5.64754 8.56369 5.27061 8.56369 4.87919C8.56369 4.48776 8.71178 4.11083 8.97823 3.82409C9.24467 3.53735 9.60974 3.36204 10.0001 3.33335ZM9.16678 16.1084C7.86067 15.5046 6.439 15.1919 5.00011 15.1917C4.72511 15.1917 4.45011 15.1917 4.16678 15.2334V10C4.86558 9.92185 5.57163 9.93586 6.26678 10.0417H6.35844C7.35144 10.2242 8.30301 10.5856 9.16678 11.1084V16.1084ZM10.0001 9.66669C9.62955 9.45292 9.24539 9.26363 8.85011 9.10002H8.80011C8.52511 8.99169 8.25011 8.88335 7.96678 8.80002C8.54537 8.3395 9.26068 8.08445 10.0001 8.07502C10.7376 8.0797 11.4527 8.32881 12.0334 8.78335C11.326 9.00421 10.6443 9.30035 10.0001 9.66669ZM15.8334 15.2334C14.1223 15.0614 12.3963 15.3491 10.8334 16.0667V11.0667C11.6988 10.5574 12.6509 10.2127 13.6418 10.05H13.8084C14.4784 9.94569 15.1591 9.92888 15.8334 10V15.2334Z" fill="#161C24" fill-opacity="0.8" style="mix-blend-mode:multiply"/>
</svg>
