<svg width="24" height="24" viewBox="0 0 24 24" fill="none" xmlns="http://www.w3.org/2000/svg">
    <path
        d="M11.9993 23.3152C17.5943 23.3152 22.2448 18.6746 22.2448 13.0698C22.2448 9.69475 20.5373 6.66132 17.9556 4.78289C17.5142 4.44132 16.9613 4.55189 16.7102 4.96375C16.4591 5.38547 16.5898 5.85775 16.9913 6.16932C19.1312 7.69589 20.5271 10.2172 20.5373 13.0698C20.5472 17.8115 16.7303 21.6077 11.9993 21.6077C7.25805 21.6077 3.47119 17.8106 3.47119 13.0698C3.47119 9.00175 6.26376 5.61689 10.0609 4.75289V6.19932C10.0609 6.91247 10.5529 7.10361 11.095 6.71146L14.3093 4.46147C14.7615 4.15032 14.7718 3.66818 14.3093 3.33647L11.1053 1.08647C10.5525 0.684894 10.0609 0.875608 10.0609 1.59904V3.01504C5.35948 3.92918 1.75391 8.12789 1.75391 13.0698C1.75391 18.6746 6.39448 23.3152 11.9993 23.3152ZM14.4302 17.2985C16.0973 17.2985 17.1825 15.7213 17.1825 13.311C17.1825 10.8802 16.0973 9.28289 14.4302 9.28289C12.7631 9.28289 11.668 10.8802 11.668 13.311C11.668 15.7218 12.7626 17.2985 14.4302 17.2985ZM9.18662 17.178C9.57834 17.178 9.83976 16.9068 9.83976 16.485V10.167C9.83976 9.67461 9.56848 9.36347 9.11634 9.36347C8.84505 9.36347 8.66462 9.45347 8.29262 9.69475L6.90662 10.629C6.67562 10.7898 6.57534 10.9706 6.57534 11.2119C6.57534 11.5432 6.83633 11.8243 7.15776 11.8243C7.33862 11.8243 7.43891 11.784 7.63991 11.6435L8.57419 10.9603V16.4846C8.57419 16.8969 8.81462 17.178 9.18662 17.178ZM14.4306 16.083C13.5366 16.083 12.9739 15.0288 12.9739 13.311C12.9739 11.5629 13.5268 10.4983 14.4306 10.4983C15.3246 10.4983 15.8668 11.553 15.8668 13.311C15.8668 15.0283 15.3143 16.083 14.4306 16.083Z"
        fill="currentColor" fill-opacity="0.8" style="mix-blend-mode:multiply" />
</svg>