<svg width="18" height="15" viewBox="0 0 18 15" fill="none" xmlns="http://www.w3.org/2000/svg">
<path d="M12.4721 0.333313C11.8437 0.333313 11.2707 0.54998 10.8055 0.901369C11.4131 1.71248 11.7777 2.71595 11.7777 3.80554V4.49998C11.7777 5.16179 11.6437 5.79304 11.4027 6.36873C11.7325 6.50623 12.093 6.58331 12.4721 6.58331C14.0062 6.58331 15.2499 5.33956 15.2499 3.80554V3.11109C15.2499 1.57706 14.0062 0.333313 12.4721 0.333313Z" fill="currentColor"/>
<path d="M6.9165 7.9722C4.99914 7.9722 3.44428 6.41734 3.44428 4.49998V3.80554C3.44428 1.88817 4.99914 0.333313 6.9165 0.333313C8.83387 0.333313 10.3887 1.88817 10.3887 3.80554V4.49998C10.3887 6.41734 8.83387 7.9722 6.9165 7.9722Z" fill="currentColor"/>
<path d="M16.527 8.9479C15.6353 8.53817 14.1068 7.9722 12.4721 7.9722C11.6422 7.9722 10.8402 8.11873 10.1339 8.31595C10.395 8.37012 10.6568 8.42498 10.9186 8.49165C12.9402 9.00692 14.37 10.766 14.5242 12.8333H16.6388C17.0221 12.8333 17.3332 12.5222 17.3332 12.1389V10.209C17.3332 9.66595 17.0207 9.17428 16.527 8.9479Z" fill="currentColor"/>
<path d="M12.4721 14.2222H1.36095C0.977615 14.2222 0.666504 13.9111 0.666504 13.5278V13.1979C0.666504 11.618 1.72692 10.2278 3.25748 9.83748C4.28109 9.57637 5.5422 9.36109 6.9165 9.36109C8.29081 9.36109 9.55192 9.57637 10.5755 9.83748C12.1061 10.2278 13.1665 11.618 13.1665 13.1979V13.5278C13.1665 13.9111 12.8554 14.2222 12.4721 14.2222Z" fill="currentColor"/>
</svg>
