<svg version="1.1" id="Layer_1" xmlns="http://www.w3.org/2000/svg" xmlns:xlink="http://www.w3.org/1999/xlink" x="0px" y="0px"
	 width="100%" viewBox="0 0 512 512" enable-background="new 0 0 512 512" xml:space="preserve">
<path fill="#040304" opacity="1.000000" stroke="none" 
	d="
M1.000005,501.000000 
	C1.000000,393.310699 1.000000,285.621368 1.344265,177.408478 
	C7.983895,162.527740 21.009201,165.490280 33.102570,165.220886 
	C33.102570,152.254578 33.254959,139.642059 33.039707,127.035835 
	C32.928383,120.516174 35.635418,116.553734 41.617996,113.965706 
	C79.316406,97.657593 118.626472,90.193977 159.674149,91.917603 
	C165.872070,92.177864 167.505936,93.559242 168.926575,100.329956 
	C167.291580,106.026436 163.393982,107.170448 158.379852,106.958008 
	C130.251602,105.766243 102.679840,109.079857 75.379425,117.550026 
	C67.795547,120.201195 60.669540,123.017143 53.369072,125.266991 
	C49.121037,126.576149 47.994534,128.837433 48.004276,133.157806 
	C48.149269,197.444778 48.110329,261.732208 48.103603,326.019501 
	C48.102848,333.206421 47.167965,334.557190 40.607506,336.585693 
	C38.497356,335.696320 36.726364,334.953033 34.960587,334.120209 
	C34.965794,334.030670 34.786411,334.033630 34.731972,333.750916 
	C34.384468,332.759705 34.091400,332.051208 33.853317,331.086517 
	C33.731663,330.543396 33.555031,330.256439 33.279846,329.512512 
	C33.161953,281.308929 33.155807,233.562302 33.070351,185.815826 
	C33.067245,184.080719 32.284973,182.347015 31.426682,180.486511 
	C26.682949,180.464508 22.378359,180.568649 17.816025,180.542725 
	C17.065567,180.610703 16.572855,180.808731 15.769326,181.288025 
	C15.305401,183.706177 15.018995,185.842972 15.018320,187.979874 
	C14.986098,289.994751 14.978590,392.009613 14.681774,493.719208 
	C14.263071,491.435486 14.015574,489.457092 14.015236,487.478607 
	C13.998112,387.347870 14.002075,287.217163 14.003754,187.086426 
	C14.003780,185.477951 14.003758,183.869476 14.003758,182.261002 
	C13.668065,182.271484 13.332372,182.281952 12.996678,182.292435 
	C12.996678,183.931137 12.996654,185.569824 12.996681,187.208527 
	C12.998226,279.342133 12.999763,371.475708 13.001308,463.609314 
	C13.001471,473.272522 12.918303,482.937195 13.090282,492.597321 
	C13.116529,494.071594 14.323217,495.524841 15.206923,496.992065 
	C15.429913,496.996338 15.875979,496.996246 15.987465,497.251038 
	C16.398470,497.714020 16.697990,497.922241 16.998081,498.353882 
	C16.998650,498.577301 17.007694,499.024109 17.102768,499.417236 
	C18.869270,500.206543 20.540585,500.949036 22.212151,500.949585 
	C178.746628,501.002502 335.281128,501.002075 491.815613,500.956451 
	C493.539185,500.955963 495.262573,500.318207 496.985168,499.622864 
	C496.966614,498.794128 496.948944,498.320526 496.959595,497.635254 
	C496.987946,497.423615 497.028107,496.998444 497.011169,496.996368 
	C496.994232,496.994293 496.998413,497.028137 497.211426,497.007416 
	C497.424469,496.986694 497.847809,496.923737 498.140137,496.946594 
	C498.627777,496.975983 498.823151,496.982513 499.412170,496.895325 
	C500.203491,494.797607 500.947906,492.793793 500.949066,490.789551 
	C501.007202,389.507538 501.001831,288.225494 501.003387,186.943466 
	C501.003418,185.311661 501.003448,183.679855 501.003448,182.048050 
	C500.849426,182.044617 500.695404,182.041183 500.541382,182.037766 
	C500.039520,184.699570 499.537659,187.361389 499.023590,189.592407 
	C498.693268,186.768692 498.375122,184.375793 497.881165,181.863586 
	C497.705383,181.744308 497.292542,181.643982 497.254242,181.699860 
	C497.215942,181.755737 497.350983,181.744705 497.290588,181.483215 
	C496.800415,181.040573 496.370605,180.859406 495.501984,180.535538 
	C490.750214,180.466980 486.437225,180.541122 481.719971,180.679810 
	C481.169891,182.547897 480.896851,184.351379 480.896484,186.154922 
	C480.876770,277.435608 480.881958,368.716278 480.870667,459.996948 
	C480.870422,461.988647 480.710754,463.980347 480.436798,466.152222 
	C480.229675,466.669952 480.211243,467.007507 480.157715,467.663574 
	C479.961426,468.597931 479.800232,469.213745 479.372009,470.030518 
	C474.634064,475.227539 471.617432,476.019409 465.564697,473.666046 
	C461.875000,472.231445 458.286926,470.509369 454.540161,469.253937 
	C449.611176,467.602356 447.219208,464.462372 447.891083,458.899414 
	C453.082031,449.888855 459.610748,455.929016 465.699005,457.143677 
	C465.699005,447.482330 465.699005,438.218353 465.773895,428.494019 
	C465.859741,335.748352 465.870758,243.462982 465.881622,151.177612 
	C465.882416,144.514389 465.729187,137.846008 465.954620,131.190399 
	C466.050232,128.367264 465.088593,126.995132 462.486603,126.094032 
	C456.987640,124.189713 451.660645,121.764061 446.114990,120.024658 
	C436.567627,117.030136 426.907135,114.396408 416.681030,111.433617 
	C416.681030,114.747261 416.681030,116.890984 416.681030,119.034706 
	C416.680450,202.324936 416.543365,285.615570 416.794403,368.905060 
	C416.844635,385.576324 412.597870,400.061584 400.161346,411.931519 
	C394.291626,415.280731 389.077148,419.554535 383.100555,421.583740 
	C364.537140,427.886566 347.776001,423.667023 332.889160,410.636658 
	C322.333740,400.057404 317.795837,387.563324 317.812958,372.985596 
	C317.912842,287.846649 317.854370,202.707504 317.849335,117.568428 
	C317.849213,115.590057 317.849304,113.611679 317.849304,111.230858 
	C301.024170,114.286598 285.173981,118.967445 269.692383,125.108810 
	C265.637848,126.717178 264.397675,128.742142 264.404175,133.091370 
	C264.547058,228.893463 264.510742,324.695831 264.526123,420.498138 
	C264.526550,423.320740 264.716034,426.143311 264.658264,429.342407 
	C264.499084,438.745331 264.499084,447.771790 264.499084,457.272278 
	C285.471191,448.812073 306.305908,443.385315 327.779602,440.482574 
	C360.904114,436.004944 393.793701,437.248932 426.370026,444.948242 
	C432.460419,446.387665 433.802795,448.313171 433.631622,455.024536 
	C431.200226,459.884827 427.532104,460.284241 422.930511,459.594452 
	C407.159698,457.230316 391.400879,454.051727 375.531219,453.225800 
	C335.992706,451.168060 298.078308,458.904694 261.749451,474.695953 
	C259.071045,475.860199 255.037918,475.917145 252.360260,474.780090 
	C185.103104,446.219604 117.673653,445.165955 49.963955,473.002625 
	C39.593632,477.266083 33.101082,472.962921 33.100426,461.650391 
	C33.098408,426.831604 33.115490,392.012817 33.362915,356.968323 
	C34.194103,355.572418 34.787529,354.402191 35.285233,353.212219 
	C35.189507,353.192413 35.229172,353.383850 35.520576,353.310303 
	C36.254097,352.857544 36.696213,352.478302 37.097702,352.084473 
	C37.057076,352.069885 37.060162,352.156158 37.458961,352.122131 
	C38.885082,351.845703 39.912411,351.603302 41.294670,351.530640 
	C47.103878,352.675995 48.150082,356.488647 48.140053,361.294678 
	C48.077152,391.434753 48.103619,421.574982 48.116646,451.715179 
	C48.117390,453.440094 48.260044,455.164948 48.349899,457.188080 
	C115.596382,431.491638 182.440872,431.287476 249.172897,456.860596 
	C249.172897,447.225891 249.172897,438.093323 249.293060,428.507782 
	C249.438202,329.125610 249.450226,230.196396 249.550583,131.267273 
	C249.553589,128.301010 248.579346,126.907463 245.857224,125.774490 
	C228.432907,118.522301 210.327621,113.743591 191.821762,110.281013 
	C185.356445,109.071297 184.152985,107.501564 183.860321,100.699112 
	C185.847031,96.031815 189.130936,94.268051 193.638367,95.482635 
	C211.389771,100.265961 229.324570,104.522530 246.738419,110.332108 
	C254.124573,112.796257 259.872650,112.964348 267.260223,110.300819 
	C282.187378,104.918953 297.746613,101.299217 313.003876,96.812454 
	C314.981445,96.230896 317.717255,95.269379 318.412048,93.724060 
	C330.534302,66.763199 342.261963,39.624580 354.441528,12.690156 
	C356.388763,8.383942 360.102753,4.876637 363.000000,0.999997 
	C365.041656,1.000000 367.083344,1.000000 369.722260,1.315389 
	C372.937805,3.949165 376.678741,5.757334 378.000214,8.665082 
	C390.854706,36.950150 403.272919,65.433289 415.961365,93.794708 
	C416.601227,95.224968 418.408875,96.581230 419.960938,97.085991 
	C436.513489,102.469078 453.251038,107.310684 469.673370,113.056732 
	C480.191528,116.736954 480.898743,118.662117 480.895813,129.661911 
	C480.892639,141.429825 480.895081,153.197739 480.895081,165.253922 
	C484.066986,165.253922 486.723328,165.476196 489.331329,165.215134 
	C500.150330,164.132050 508.355103,167.729538 513.000000,178.000000 
	C513.000000,285.022644 513.000000,392.045288 512.687500,499.693787 
	C510.598145,506.838074 505.535522,510.149780 500.000000,513.000000 
	C337.977356,513.000000 175.954727,513.000000 13.392924,512.659668 
	C8.902514,508.546173 4.951261,504.773071 1.000005,501.000000 
M360.624023,100.063179 
	C360.944946,99.649765 361.265869,99.236351 361.731171,98.694366 
	C361.731171,98.694366 361.892487,98.587769 362.547363,98.308022 
	C366.524353,95.758118 370.027771,96.483154 373.306122,99.700829 
	C376.001770,102.346611 378.837006,104.850235 381.481018,107.297188 
	C382.176056,107.001266 382.541016,106.943710 382.766693,106.735329 
	C387.281219,102.566437 391.676941,98.260925 396.328766,94.252380 
	C398.370728,92.492821 398.528900,91.082558 397.384705,88.732590 
	C394.771118,83.364601 392.542328,77.810829 390.066589,72.373810 
	C384.463867,60.069611 384.441528,60.078442 370.971649,60.738853 
	C370.645752,60.754829 370.325562,60.887146 369.098083,60.696049 
	C363.625916,60.678616 358.141937,60.457672 352.689056,60.773312 
	C351.143250,60.862785 348.950867,62.166912 348.311340,63.511513 
	C344.258972,72.031677 340.485718,80.688667 336.828461,89.387993 
	C336.322205,90.592140 336.381989,92.876633 337.170197,93.645210 
	C342.100983,98.453087 347.313049,102.972488 352.776398,107.897919 
	C355.120300,105.395645 357.142731,103.236572 359.652893,100.944839 
	C359.830231,100.667984 360.007538,100.391129 360.098541,100.084023 
	C360.098541,100.084023 360.105988,100.175171 360.624023,100.063179 
M356.439941,407.622711 
	C367.682281,411.037262 378.159790,409.580902 387.700043,402.578796 
	C399.897552,393.626312 405.425476,374.974854 400.857819,358.066650 
	C384.951172,358.066650 368.990570,358.066650 352.102386,357.882355 
	C345.840363,357.882355 339.578308,357.882355 333.204498,357.882355 
	C333.204498,365.868408 332.533569,373.235535 333.352722,380.433075 
	C334.788330,393.047974 344.955811,404.457916 356.439941,407.622711 
M374.156799,256.079041 
	C374.150482,213.255005 373.993652,170.429901 374.302399,127.608131 
	C374.347961,121.286270 371.626221,117.904861 367.156860,115.028137 
	C361.481842,118.361923 359.865601,122.879639 359.887787,129.218781 
	C360.130402,198.536407 360.039978,267.855225 360.040100,337.173706 
	C360.040100,338.932312 360.040131,340.690887 360.040131,342.438171 
	C365.128021,342.438171 369.516296,342.438171 374.161224,342.438171 
	C374.161224,340.223602 374.161163,338.401947 374.161224,336.580322 
	C374.161835,320.917023 374.113556,305.253448 374.189209,289.590515 
	C374.216125,284.020172 377.019745,280.904144 381.633789,280.857269 
	C386.346954,280.809418 389.064636,283.819305 389.091125,289.445160 
	C389.153107,302.608734 389.113037,315.772736 389.114044,328.936584 
	C389.114380,333.387146 389.114075,337.837708 389.114075,342.550690 
	C393.427673,342.550690 397.179260,342.550690 401.264954,342.550690 
	C401.264954,265.284546 401.264954,188.171295 401.264954,110.144997 
	C398.516754,112.661469 396.620117,114.788452 394.352417,116.390137 
	C390.153748,119.355667 388.957581,123.080978 388.985352,128.242905 
	C389.214630,170.899200 389.119110,213.557251 389.111176,256.214783 
	C389.110107,261.896179 386.694122,265.214569 382.346649,265.621002 
	C377.876129,266.038879 374.910248,262.900513 374.156799,256.079041 
M332.875122,126.506653 
	C332.875122,198.434662 332.875122,270.362671 332.875122,342.489380 
	C337.199036,342.489380 340.924255,342.489380 345.047516,342.489380 
	C345.047516,340.375580 345.047546,338.571564 345.047516,336.767578 
	C345.046539,267.782837 344.780914,198.795944 345.337372,129.815704 
	C345.418396,119.771614 339.388428,116.275948 332.875092,110.505478 
	C332.875092,116.267128 332.875092,120.888794 332.875122,126.506653 
M367.973022,22.664082 
	C367.533112,22.571108 366.745605,22.316154 366.702728,22.408203 
	C363.238647,29.841047 359.832672,37.300964 356.101959,45.459686 
	C363.959137,45.459686 370.659882,45.459686 378.158997,45.459686 
	C374.770935,37.759541 371.581482,30.510780 367.973022,22.664082 
z"/>
<path fill="#FEFEFE" opacity="1.000000" stroke="none" 
	d="
M362.531342,0.999997 
	C360.102753,4.876637 356.388763,8.383942 354.441528,12.690156 
	C342.261963,39.624580 330.534302,66.763199 318.412048,93.724060 
	C317.717255,95.269379 314.981445,96.230896 313.003876,96.812454 
	C297.746613,101.299217 282.187378,104.918953 267.260223,110.300819 
	C259.872650,112.964348 254.124573,112.796257 246.738419,110.332108 
	C229.324570,104.522530 211.389771,100.265961 193.638367,95.482635 
	C189.130936,94.268051 185.847031,96.031815 183.554016,100.828178 
	C178.420120,100.859169 173.743561,100.429649 169.067001,100.000130 
	C167.505936,93.559242 165.872070,92.177864 159.674149,91.917603 
	C118.626472,90.193977 79.316406,97.657593 41.617996,113.965706 
	C35.635418,116.553734 32.928383,120.516174 33.039707,127.035835 
	C33.254959,139.642059 33.102570,152.254578 33.102570,165.220886 
	C21.009201,165.490280 7.983895,162.527740 1.344265,176.942444 
	C1.000000,118.381058 1.000000,59.762115 1.000000,1.000000 
	C121.354187,1.000000 241.708435,1.000000 362.531342,0.999997 
z"/>
<path fill="#FEFEFE" opacity="1.000000" stroke="none" 
	d="
M513.000000,177.531342 
	C508.355103,167.729538 500.150330,164.132050 489.331329,165.215134 
	C486.723328,165.476196 484.066986,165.253922 480.895081,165.253922 
	C480.895081,153.197739 480.892639,141.429825 480.895813,129.661911 
	C480.898743,118.662117 480.191528,116.736954 469.673370,113.056732 
	C453.251038,107.310684 436.513489,102.469078 419.960938,97.085991 
	C418.408875,96.581230 416.601227,95.224968 415.961365,93.794708 
	C403.272919,65.433289 390.854706,36.950150 378.000214,8.665082 
	C376.678741,5.757334 372.937805,3.949165 370.159760,1.315389 
	C417.601410,1.000000 465.202850,1.000000 513.000000,1.000000 
	C513.000000,59.687416 513.000000,118.375046 513.000000,177.531342 
z"/>
<path fill="#F3F3F3" opacity="1.000000" stroke="none" 
	d="
M500.476654,513.000000 
	C505.535522,510.149780 510.598145,506.838074 512.687500,500.159851 
	C513.000000,504.256317 513.000000,508.512604 513.000000,513.000000 
	C508.986237,513.000000 504.969788,513.000000 500.476654,513.000000 
z"/>
<path fill="#F4F4F4" opacity="1.000000" stroke="none" 
	d="
M1.000005,501.479187 
	C4.951261,504.773071 8.902514,508.546173 12.926883,512.659668 
	C9.078021,513.000000 5.156042,513.000000 1.000000,513.000000 
	C1.000000,509.321411 1.000000,505.639893 1.000005,501.479187 
z"/>
<path fill="#FDF4F3" opacity="1.000000" stroke="none" 
	d="
M168.926575,100.329956 
	C173.743561,100.429649 178.420120,100.859169 183.402985,101.159630 
	C184.152985,107.501564 185.356445,109.071297 191.821762,110.281013 
	C210.327621,113.743591 228.432907,118.522301 245.857224,125.774490 
	C248.579346,126.907463 249.553589,128.301010 249.550583,131.267273 
	C249.450226,230.196396 249.438202,329.125610 248.898483,428.520508 
	C232.753204,424.544250 217.317871,419.132843 201.436798,415.935211 
	C185.816788,412.790192 169.785919,411.078186 153.857437,410.267181 
	C141.368164,409.631287 128.691757,410.734558 116.224457,412.163971 
	C104.459167,413.512909 92.872765,416.382385 81.167732,418.344696 
	C79.620964,418.604004 76.409775,417.500702 76.392105,416.950592 
	C76.259186,412.813202 76.733612,408.656281 77.391182,404.340240 
	C98.953323,397.989319 120.565392,394.497375 142.647629,394.061920 
	C168.640808,393.549347 194.080704,397.191650 219.059189,404.297211 
	C224.242447,405.771667 228.134552,403.944916 229.460831,399.586090 
	C230.742889,395.372589 228.555649,391.482208 223.747055,390.084839 
	C187.297256,379.492889 150.230545,376.030457 112.587944,381.487213 
	C99.961494,383.317566 87.527794,386.477600 75.062454,388.613464 
	C75.404922,386.239502 75.920265,384.283997 75.938049,382.324005 
	C76.024185,372.827759 75.915504,363.329620 76.024010,353.833832 
	C76.048111,351.724396 76.670921,349.621796 77.389626,347.346375 
	C84.687759,345.449371 91.563766,343.477142 98.549217,342.035065 
	C139.144638,333.654755 179.296890,335.985992 219.050735,347.292786 
	C224.270920,348.777496 228.142868,346.969269 229.466492,342.616302 
	C230.784378,338.282288 228.425461,334.512360 223.258850,332.968384 
	C201.785339,326.551270 179.808426,323.110382 157.443619,322.160797 
	C129.783981,320.986450 102.694725,324.765167 76.010010,331.410034 
	C75.948524,318.600769 75.856964,306.252014 75.882401,293.903473 
	C75.884789,292.747314 76.626091,291.592651 77.401947,290.288391 
	C90.617073,287.443695 103.353859,284.045380 116.311508,282.187653 
	C151.106583,277.199097 185.359573,280.768127 219.082916,290.292999 
	C224.292862,291.764526 228.095016,289.982300 229.490417,285.602539 
	C230.848206,281.340820 228.421417,277.497772 223.264343,275.962158 
	C201.460785,269.469757 179.151062,266.008820 156.445801,265.121429 
	C129.124741,264.053558 102.371857,267.860413 76.013283,274.393799 
	C76.017174,260.417389 76.022865,246.900497 76.409424,233.215485 
	C79.213066,232.510223 81.620438,231.886932 84.061188,231.450104 
	C98.122078,228.933670 112.104790,225.660553 126.274544,224.137344 
	C157.769211,220.751770 188.706924,224.684586 219.102905,233.325592 
	C224.294983,234.801605 228.165100,232.950516 229.500824,228.575012 
	C230.795486,224.334030 228.336044,220.482819 223.236176,218.959839 
	C201.280930,212.403214 178.810577,208.960022 155.942429,208.107162 
	C128.788498,207.094482 102.201492,210.884750 76.007690,217.408112 
	C76.010460,203.423523 76.019669,189.899338 76.412033,176.205612 
	C79.707283,175.382858 82.599800,174.620026 85.534866,174.095184 
	C98.941017,171.697937 112.277817,168.603256 125.789192,167.166046 
	C157.618988,163.780319 188.879684,167.619476 219.574142,176.494278 
	C224.327850,177.868744 228.200668,175.817856 229.468185,171.550156 
	C230.705185,167.385223 228.408081,163.417236 223.715271,162.063187 
	C193.397156,153.315323 162.535416,149.531296 130.965286,151.557861 
	C112.300102,152.756042 94.076653,156.258072 76.005676,160.401703 
	C75.919312,145.786911 75.841690,131.632050 75.764069,117.477180 
	C102.679840,109.079857 130.251602,105.766243 158.379852,106.958008 
	C163.393982,107.170448 167.291580,106.026436 168.926575,100.329956 
z"/>
<path fill="#FCC204" opacity="1.000000" stroke="none" 
	d="
M33.125153,357.194031 
	C33.115490,392.012817 33.098408,426.831604 33.100426,461.650391 
	C33.101082,472.962921 39.593632,477.266083 49.963955,473.002625 
	C117.673653,445.165955 185.103104,446.219604 252.360260,474.780090 
	C255.037918,475.917145 259.071045,475.860199 261.749451,474.695953 
	C298.078308,458.904694 335.992706,451.168060 375.531219,453.225800 
	C391.400879,454.051727 407.159698,457.230316 422.930511,459.594452 
	C427.532104,460.284241 431.200226,459.884827 434.017456,455.130829 
	C438.998871,456.398712 443.350647,457.817566 447.702423,459.236420 
	C447.219208,464.462372 449.611176,467.602356 454.540161,469.253937 
	C458.286926,470.509369 461.875000,472.231445 465.564697,473.666046 
	C471.617432,476.019409 474.634064,475.227539 479.741272,469.897491 
	C480.913422,467.041443 481.915680,464.519836 481.917877,461.997406 
	C481.997406,371.367371 481.982147,280.737274 481.988708,190.107162 
	C481.988953,186.943192 482.077087,183.779221 482.124268,180.615250 
	C486.437225,180.541122 490.750214,180.466980 495.576111,180.778412 
	C496.509705,181.357544 496.930328,181.551132 497.350983,181.744705 
	C497.350983,181.744705 497.215942,181.755737 497.144714,182.189178 
	C497.048462,287.424438 497.023438,392.226288 496.998413,497.028137 
	C496.998413,497.028137 496.994232,496.994293 496.540527,496.981018 
	C339.139832,496.969727 182.192886,496.971710 25.245930,496.973541 
	C17.026527,496.973663 17.027987,496.972900 17.026741,488.898010 
	C17.011326,388.932068 16.995462,288.966095 16.987698,188.593872 
	C17.355045,185.682648 17.714409,183.177719 18.073771,180.672791 
	C22.378359,180.568649 26.682949,180.464508 31.462814,180.912506 
	C31.964121,193.949890 32.009228,206.435181 32.012569,218.920456 
	C32.022190,254.879578 31.961630,290.838928 32.133396,326.797241 
	C32.144936,329.213531 33.862385,331.621704 34.786415,334.033630 
	C34.786411,334.033630 34.965794,334.030670 35.015617,334.451843 
	C36.909443,335.941162 38.753441,337.009369 40.699993,338.497009 
	C40.744530,340.925751 40.686516,342.935120 40.372269,345.000488 
	C40.289673,345.725311 40.463314,346.394135 40.732990,347.413635 
	C40.784676,348.483490 40.740326,349.202606 40.365814,349.937439 
	C39.043823,350.687469 38.051994,351.421814 37.060165,352.156158 
	C37.060162,352.156158 37.057076,352.069885 36.761658,352.072266 
	C36.053883,352.511047 35.641533,352.947449 35.229176,353.383850 
	C35.229172,353.383850 35.189507,353.192413 34.909447,353.260315 
	C34.127972,354.616852 33.626564,355.905426 33.125153,357.194031 
z"/>
<path fill="#FDF4F3" opacity="1.000000" stroke="none" 
	d="
M264.817413,428.965912 
	C264.716034,426.143311 264.526550,423.320740 264.526123,420.498138 
	C264.510742,324.695831 264.547058,228.893463 264.404175,133.091370 
	C264.397675,128.742142 265.637848,126.717178 269.692383,125.108810 
	C285.173981,118.967445 301.024170,114.286598 317.849304,111.230858 
	C317.849304,113.611679 317.849213,115.590057 317.849335,117.568428 
	C317.854370,202.707504 317.912842,287.846649 317.812958,372.985596 
	C317.795837,387.563324 322.333740,400.057404 332.645508,410.936890 
	C330.814972,412.018829 329.095490,412.840576 327.336456,412.936340 
	C312.843048,413.725189 299.100952,417.798218 285.438995,422.272949 
	C278.571136,424.522339 271.691650,426.736053 264.817413,428.965912 
z"/>
<path fill="#FFF5F4" opacity="1.000000" stroke="none" 
	d="
M400.467926,411.829224 
	C412.597870,400.061584 416.844635,385.576324 416.794403,368.905060 
	C416.543365,285.615570 416.680450,202.324936 416.681030,119.034706 
	C416.681030,116.890984 416.681030,114.747261 416.681030,111.433617 
	C426.907135,114.396408 436.567627,117.030136 446.114990,120.024658 
	C451.660645,121.764061 456.987640,124.189713 462.486603,126.094032 
	C465.088593,126.995132 466.050232,128.367264 465.954620,131.190399 
	C465.729187,137.846008 465.882416,144.514389 465.881622,151.177612 
	C465.870758,243.462982 465.859741,335.748352 465.394806,428.492157 
	C460.096924,427.368805 455.322357,425.516174 450.396454,424.254608 
	C433.782593,419.999573 417.114990,415.954559 400.467926,411.829224 
z"/>
<path fill="#E7DCD6" opacity="1.000000" stroke="none" 
	d="
M40.695976,349.921753 
	C40.740326,349.202606 40.784676,348.483490 40.848923,347.066467 
	C40.788712,345.893890 40.708607,345.419159 40.628506,344.944458 
	C40.686516,342.935120 40.744530,340.925751 40.827156,338.292175 
	C41.005562,337.368256 41.037193,337.056213 40.946659,336.731812 
	C47.167965,334.557190 48.102848,333.206421 48.103603,326.019501 
	C48.110329,261.732208 48.149269,197.444778 48.004276,133.157806 
	C47.994534,128.837433 49.121037,126.576149 53.369072,125.266991 
	C60.669540,123.017143 67.795547,120.201195 75.379425,117.550026 
	C75.841690,131.632050 75.919312,145.786911 75.689178,160.574738 
	C70.892395,162.465897 67.356468,164.694885 68.092995,170.053101 
	C68.696739,174.445374 71.600220,176.503799 76.028885,176.375137 
	C76.019669,189.899338 76.010460,203.423523 75.690903,217.579834 
	C70.863632,219.457443 67.354607,221.752289 68.083656,227.074249 
	C68.680397,231.430313 71.579819,233.544662 76.028557,233.383591 
	C76.022865,246.900497 76.017174,260.417389 75.704460,274.580841 
	C70.792648,276.391479 67.380539,278.806427 68.100655,284.072144 
	C68.777420,289.020752 72.320816,290.731598 77.024315,290.437317 
	C76.626091,291.592651 75.884789,292.747314 75.882401,293.903473 
	C75.856964,306.252014 75.948524,318.600769 75.704117,331.601135 
	C69.546547,334.228455 67.366539,336.755890 68.040924,341.068970 
	C68.840759,346.184326 72.500961,347.487671 77.018059,347.516052 
	C76.670921,349.621796 76.048111,351.724396 76.024010,353.833832 
	C75.915504,363.329620 76.024185,372.827759 75.938049,382.324005 
	C75.920265,384.283997 75.404922,386.239502 74.831970,388.877686 
	C70.186646,390.693665 67.442665,393.283142 68.069305,398.008881 
	C68.739914,403.066254 72.441658,404.527039 77.018143,404.505463 
	C76.733612,408.656281 76.259186,412.813202 76.392105,416.950592 
	C76.409775,417.500702 79.620964,418.604004 81.167732,418.344696 
	C92.872765,416.382385 104.459167,413.512909 116.224457,412.163971 
	C128.691757,410.734558 141.368164,409.631287 153.857437,410.267181 
	C169.785919,411.078186 185.816788,412.790192 201.436798,415.935211 
	C217.317871,419.132843 232.753204,424.544250 248.778320,428.973511 
	C249.172897,438.093323 249.172897,447.225891 249.172897,456.860596 
	C182.440872,431.287476 115.596382,431.491638 48.349899,457.188080 
	C48.260044,455.164948 48.117390,453.440094 48.116646,451.715179 
	C48.103619,421.574982 48.077152,391.434753 48.140053,361.294678 
	C48.150082,356.488647 47.103878,352.675995 41.353897,351.283325 
	C40.937447,350.551422 40.816711,350.236572 40.695976,349.921753 
z"/>
<path fill="#93D3E1" opacity="1.000000" stroke="none" 
	d="
M374.164276,256.524841 
	C374.910248,262.900513 377.876129,266.038879 382.346649,265.621002 
	C386.694122,265.214569 389.110107,261.896179 389.111176,256.214783 
	C389.119110,213.557251 389.214630,170.899200 388.985352,128.242905 
	C388.957581,123.080978 390.153748,119.355667 394.352417,116.390137 
	C396.620117,114.788452 398.516754,112.661469 401.264954,110.144997 
	C401.264954,188.171295 401.264954,265.284546 401.264954,342.550690 
	C397.179260,342.550690 393.427673,342.550690 389.114075,342.550690 
	C389.114075,337.837708 389.114380,333.387146 389.114044,328.936584 
	C389.113037,315.772736 389.153107,302.608734 389.091125,289.445160 
	C389.064636,283.819305 386.346954,280.809418 381.633789,280.857269 
	C377.019745,280.904144 374.216125,284.020172 374.189209,289.590515 
	C374.113556,305.253448 374.161835,320.917023 374.161224,336.580322 
	C374.161163,338.401947 374.161224,340.223602 374.161224,342.438171 
	C369.516296,342.438171 365.128021,342.438171 360.040131,342.438171 
	C360.040131,340.690887 360.040100,338.932312 360.040100,337.173706 
	C360.039978,267.855225 360.130402,198.536407 359.887787,129.218781 
	C359.865601,122.879639 361.481842,118.361923 367.156860,115.028137 
	C371.626221,117.904861 374.347961,121.286270 374.302399,127.608131 
	C373.993652,170.429901 374.150482,213.255005 374.164276,256.524841 
z"/>
<path fill="#E2D8D2" opacity="1.000000" stroke="none" 
	d="
M400.161346,411.931519 
	C417.114990,415.954559 433.782593,419.999573 450.396454,424.254608 
	C455.322357,425.516174 460.096924,427.368805 465.319916,428.952454 
	C465.699005,438.218353 465.699005,447.482330 465.699005,457.143677 
	C459.610748,455.929016 453.082031,449.888855 447.891083,458.899414 
	C443.350647,457.817566 438.998871,456.398712 434.261261,454.873566 
	C433.802795,448.313171 432.460419,446.387665 426.370026,444.948242 
	C393.793701,437.248932 360.904114,436.004944 327.779602,440.482574 
	C306.305908,443.385315 285.471191,448.812073 264.499084,457.272278 
	C264.499084,447.771790 264.499084,438.745331 264.658264,429.342407 
	C271.691650,426.736053 278.571136,424.522339 285.438995,422.272949 
	C299.100952,417.798218 312.843048,413.725189 327.336456,412.936340 
	C329.095490,412.840576 330.814972,412.018829 332.796478,411.233337 
	C347.776001,423.667023 364.537140,427.886566 383.100555,421.583740 
	C389.077148,419.554535 394.291626,415.280731 400.161346,411.931519 
z"/>
<path fill="#63C6DA" opacity="1.000000" stroke="none" 
	d="
M332.875122,126.008560 
	C332.875092,120.888794 332.875092,116.267128 332.875092,110.505478 
	C339.388428,116.275948 345.418396,119.771614 345.337372,129.815704 
	C344.780914,198.795944 345.046539,267.782837 345.047516,336.767578 
	C345.047546,338.571564 345.047516,340.375580 345.047516,342.489380 
	C340.924255,342.489380 337.199036,342.489380 332.875122,342.489380 
	C332.875122,270.362671 332.875122,198.434662 332.875122,126.008560 
z"/>
<path fill="#F46B58" opacity="1.000000" stroke="none" 
	d="
M353.029968,358.066650 
	C368.990570,358.066650 384.951172,358.066650 400.857819,358.066650 
	C405.425476,374.974854 399.897552,393.626312 387.700043,402.578796 
	C378.159790,409.580902 367.682281,411.037262 356.152527,406.963562 
	C354.917664,399.488647 353.489563,392.697357 353.140320,385.851074 
	C352.668976,376.611755 353.027527,367.330139 353.029968,358.066650 
z"/>
<path fill="#FADC82" opacity="1.000000" stroke="none" 
	d="
M359.165161,101.077492 
	C357.142731,103.236572 355.120300,105.395645 352.776398,107.897919 
	C347.313049,102.972488 342.100983,98.453087 337.170197,93.645210 
	C336.381989,92.876633 336.322205,90.592140 336.828461,89.387993 
	C340.485718,80.688667 344.258972,72.031677 348.311340,63.511513 
	C348.950867,62.166912 351.143250,60.862785 352.689056,60.773312 
	C358.141937,60.457672 363.625916,60.678616 369.795349,61.109486 
	C371.890808,61.870705 373.288971,62.218491 375.643219,62.804089 
	C371.577484,72.038620 367.536591,80.871124 363.830994,89.842125 
	C362.708160,92.560440 362.512726,95.661835 361.892487,98.587769 
	C361.892487,98.587769 361.731171,98.694366 361.345886,98.620102 
	C360.675751,99.088951 360.390869,99.632065 360.105988,100.175171 
	C360.105988,100.175171 360.098541,100.084023 359.889160,100.086510 
	C359.508240,100.418495 359.336700,100.747986 359.165161,101.077492 
z"/>
<path fill="#FAE29F" opacity="1.000000" stroke="none" 
	d="
M362.219910,98.447891 
	C362.512726,95.661835 362.708160,92.560440 363.830994,89.842125 
	C367.536591,80.871124 371.577484,72.038620 375.643219,62.804089 
	C373.288971,62.218491 371.890808,61.870705 370.247681,61.244061 
	C370.325562,60.887146 370.645752,60.754829 370.971649,60.738853 
	C384.441528,60.078442 384.463867,60.069611 390.066589,72.373810 
	C392.542328,77.810829 394.771118,83.364601 397.384705,88.732590 
	C398.528900,91.082558 398.370728,92.492821 396.328766,94.252380 
	C391.676941,98.260925 387.281219,102.566437 382.766693,106.735329 
	C382.541016,106.943710 382.176056,107.001266 381.481018,107.297188 
	C378.837006,104.850235 376.001770,102.346611 373.306122,99.700829 
	C370.027771,96.483154 366.524353,95.758118 362.219910,98.447891 
z"/>
<path fill="#000013" opacity="1.000000" stroke="none" 
	d="
M496.986084,499.977966 
	C495.262573,500.318207 493.539185,500.955963 491.815613,500.956451 
	C335.281128,501.002075 178.746628,501.002502 22.212151,500.949585 
	C20.540585,500.949036 18.869270,500.206543 17.569702,499.412659 
	C166.174026,499.013794 314.406494,498.991394 462.638916,499.053345 
	C474.088104,499.058105 485.537048,499.655853 496.986084,499.977966 
z"/>
<path fill="#E2397D" opacity="1.000000" stroke="none" 
	d="
M352.566162,357.974487 
	C353.027527,367.330139 352.668976,376.611755 353.140320,385.851074 
	C353.489563,392.697357 354.917664,399.488647 355.867493,406.696991 
	C344.955811,404.457916 334.788330,393.047974 333.352722,380.433075 
	C332.533569,373.235535 333.204498,365.868408 333.204498,357.882355 
	C339.578308,357.882355 345.840363,357.882355 352.566162,357.974487 
z"/>
<path fill="#E9C035" opacity="1.000000" stroke="none" 
	d="
M16.979713,189.000153 
	C16.995462,288.966095 17.011326,388.932068 17.026741,488.898010 
	C17.027987,496.972900 17.026527,496.973663 25.245930,496.973541 
	C182.192886,496.971710 339.139832,496.969727 496.557434,496.983093 
	C497.028107,496.998444 496.987946,497.423615 496.498535,497.679993 
	C494.177979,497.960052 492.346832,498.004364 490.515717,498.004364 
	C337.167633,498.005432 183.819565,498.001984 30.471481,498.006378 
	C25.980154,498.006531 21.488829,498.087311 16.997507,498.130463 
	C16.697990,497.922241 16.398470,497.714020 16.063690,496.788635 
	C16.016882,394.543427 16.004936,293.015442 16.000536,191.487457 
	C16.000500,190.658920 16.102549,189.830383 16.362629,189.001328 
	C16.568325,189.000809 16.979713,189.000153 16.979713,189.000153 
z"/>
<path fill="#190300" opacity="1.000000" stroke="none" 
	d="
M16.998077,498.353882 
	C21.488829,498.087311 25.980154,498.006531 30.471481,498.006378 
	C183.819565,498.001984 337.167633,498.005432 490.515717,498.004364 
	C492.346832,498.004364 494.177979,497.960052 496.470184,497.891663 
	C496.948944,498.320526 496.966614,498.794128 496.985168,499.622864 
	C485.537048,499.655853 474.088104,499.058105 462.638916,499.053345 
	C314.406494,498.991394 166.174026,499.013794 17.474628,499.019501 
	C17.007694,499.024109 16.998650,498.577301 16.998077,498.353882 
z"/>
<path fill="#000014" opacity="1.000000" stroke="none" 
	d="
M499.035767,190.023209 
	C499.537659,187.361389 500.039520,184.699570 500.541382,182.037766 
	C500.695404,182.041183 500.849426,182.044617 501.003448,182.048050 
	C501.003448,183.679855 501.003418,185.311661 501.003387,186.943466 
	C501.001831,288.225494 501.007202,389.507538 500.949066,490.789551 
	C500.947906,492.793793 500.203491,494.797607 499.409027,496.523132 
	C499.017273,495.499573 499.022308,494.754547 499.315094,493.707581 
	C499.735626,491.927979 499.984406,490.450287 499.984680,488.972534 
	C500.003021,392.046570 500.006317,295.120605 499.960754,198.194641 
	C499.959930,196.460449 499.352478,194.726532 499.025238,192.621048 
	C499.026855,191.507477 499.031311,190.765335 499.035767,190.023209 
z"/>
<path fill="#000014" opacity="1.000000" stroke="none" 
	d="
M14.983931,496.987793 
	C14.323217,495.524841 13.116529,494.071594 13.090282,492.597321 
	C12.918303,482.937195 13.001471,473.272522 13.001308,463.609314 
	C12.999763,371.475708 12.998226,279.342133 12.996681,187.208527 
	C12.996654,185.569824 12.996678,183.931137 12.996678,182.292435 
	C13.332372,182.281952 13.668065,182.271484 14.003758,182.261002 
	C14.003758,183.869476 14.003780,185.477951 14.003754,187.086426 
	C14.002075,287.217163 13.998112,387.347870 14.015236,487.478607 
	C14.015574,489.457092 14.263071,491.435486 14.688467,494.089233 
	C14.982428,495.505646 14.983178,496.246704 14.983931,496.987793 
z"/>
<path fill="#1D0200" opacity="1.000000" stroke="none" 
	d="
M15.206921,496.992065 
	C14.983178,496.246704 14.982428,495.505646 14.974985,494.394531 
	C14.978590,392.009613 14.986098,289.994751 15.018320,187.979874 
	C15.018995,185.842972 15.305401,183.706177 15.807732,181.731659 
	C16.156948,184.263275 16.156942,186.632568 16.156937,189.001846 
	C16.102549,189.830383 16.000500,190.658920 16.000536,191.487457 
	C16.004936,293.015442 16.016882,394.543427 15.952206,496.533813 
	C15.875979,496.996246 15.429913,496.996338 15.206921,496.992065 
z"/>
<path fill="#1C0300" opacity="1.000000" stroke="none" 
	d="
M499.027374,494.009491 
	C499.022308,494.754547 499.017273,495.499573 499.015350,496.616821 
	C498.823151,496.982513 498.627777,496.975983 498.182434,496.485016 
	C497.955139,493.338318 497.997101,490.676117 497.997681,488.013885 
	C498.019806,386.003540 498.038116,283.993225 498.056976,181.982880 
	C498.375122,184.375793 498.693268,186.768692 499.023590,189.592407 
	C499.031311,190.765335 499.026855,191.507477 499.015320,193.090225 
	C499.014618,293.957062 499.020996,393.983276 499.027374,494.009491 
z"/>
<path fill="#E9C035" opacity="1.000000" stroke="none" 
	d="
M497.881165,181.863586 
	C498.038116,283.993225 498.019806,386.003540 497.997681,488.013885 
	C497.997101,490.676117 497.955139,493.338318 497.890137,496.462158 
	C497.847809,496.923737 497.424469,496.986694 497.211426,497.007416 
	C497.023438,392.226288 497.048462,287.424438 497.183044,182.133301 
	C497.292542,181.643982 497.705383,181.744308 497.881165,181.863586 
z"/>
<path fill="#E9C035" opacity="1.000000" stroke="none" 
	d="
M481.720001,180.679810 
	C482.077087,183.779221 481.988953,186.943192 481.988708,190.107162 
	C481.982147,280.737274 481.997406,371.367371 481.917877,461.997406 
	C481.915680,464.519836 480.913422,467.041443 480.008270,469.696472 
	C479.800232,469.213745 479.961426,468.597931 480.362061,467.489929 
	C480.609497,466.655853 480.617493,466.313965 480.625458,465.972046 
	C480.710754,463.980347 480.870422,461.988647 480.870667,459.996948 
	C480.881958,368.716278 480.876770,277.435608 480.896484,186.154922 
	C480.896851,184.351379 481.169891,182.547897 481.720001,180.679810 
z"/>
<path fill="#6F6A70" opacity="1.000000" stroke="none" 
	d="
M368.182526,22.963051 
	C371.581482,30.510780 374.770935,37.759541 378.158997,45.459686 
	C370.659882,45.459686 363.959137,45.459686 356.101959,45.459686 
	C359.832672,37.300964 363.238647,29.841047 366.702728,22.408203 
	C366.745605,22.316154 367.533112,22.571108 368.182526,22.963051 
z"/>
<path fill="#E9BE33" opacity="1.000000" stroke="none" 
	d="
M34.731972,333.750916 
	C33.862385,331.621704 32.144936,329.213531 32.133396,326.797241 
	C31.961630,290.838928 32.022190,254.879578 32.012569,218.920456 
	C32.009228,206.435181 31.964121,193.949890 31.901955,181.038635 
	C32.284973,182.347015 33.067245,184.080719 33.070351,185.815826 
	C33.155807,233.562302 33.161953,281.308929 33.217285,329.769653 
	C33.434963,330.770081 33.616646,331.056396 33.798328,331.342712 
	C34.091400,332.051208 34.384468,332.759705 34.731972,333.750916 
z"/>
<path fill="#E9BE33" opacity="1.000000" stroke="none" 
	d="
M16.362631,189.001328 
	C16.156942,186.632568 16.156948,184.263275 16.118549,181.450378 
	C16.572855,180.808731 17.065567,180.610703 17.816027,180.542725 
	C17.714409,183.177719 17.355045,185.682648 16.987698,188.593872 
	C16.979713,189.000153 16.568325,189.000809 16.362631,189.001328 
z"/>
<path fill="#E9BE33" opacity="1.000000" stroke="none" 
	d="
M40.607506,336.585693 
	C41.037193,337.056213 41.005562,337.368256 40.724602,337.872742 
	C38.753441,337.009369 36.909443,335.941162 35.010406,334.541382 
	C36.726364,334.953033 38.497356,335.696320 40.607506,336.585693 
z"/>
<path fill="#E9BE33" opacity="1.000000" stroke="none" 
	d="
M40.365814,349.937439 
	C40.816711,350.236572 40.937447,350.551422 40.998962,351.113586 
	C39.912411,351.603302 38.885082,351.845703 37.458961,352.122131 
	C38.051994,351.421814 39.043823,350.687469 40.365814,349.937439 
z"/>
<path fill="#E9BE33" opacity="1.000000" stroke="none" 
	d="
M33.362915,356.968323 
	C33.626564,355.905426 34.127972,354.616852 35.005169,353.280121 
	C34.787529,354.402191 34.194103,355.572418 33.362915,356.968323 
z"/>
<path fill="#E9C035" opacity="1.000000" stroke="none" 
	d="
M497.290588,181.483215 
	C496.930328,181.551132 496.509705,181.357544 496.014923,180.921112 
	C496.370605,180.859406 496.800415,181.040573 497.290588,181.483215 
z"/>
<path fill="#E9BE33" opacity="1.000000" stroke="none" 
	d="
M35.520576,353.310303 
	C35.641533,352.947449 36.053883,352.511047 36.802284,352.086853 
	C36.696213,352.478302 36.254097,352.857544 35.520576,353.310303 
z"/>
<path fill="#FAE29F" opacity="1.000000" stroke="none" 
	d="
M359.408997,101.011162 
	C359.336700,100.747986 359.508240,100.418495 359.932312,100.101631 
	C360.007538,100.391129 359.830231,100.667984 359.408997,101.011162 
z"/>
<path fill="#FAE29F" opacity="1.000000" stroke="none" 
	d="
M360.364990,100.119179 
	C360.390869,99.632065 360.675751,99.088951 361.273712,98.684387 
	C361.265869,99.236351 360.944946,99.649765 360.364990,100.119179 
z"/>
<path fill="#342400" opacity="1.000000" stroke="none" 
	d="
M480.436798,466.152222 
	C480.617493,466.313965 480.609497,466.655853 480.397156,467.171387 
	C480.211243,467.007507 480.229675,466.669952 480.436798,466.152222 
z"/>
<path fill="#362500" opacity="1.000000" stroke="none" 
	d="
M33.853310,331.086517 
	C33.616646,331.056396 33.434963,330.770081 33.315842,330.226624 
	C33.555031,330.256439 33.731663,330.543396 33.853310,331.086517 
z"/>
<path fill="#070606" opacity="1.000000" stroke="none" 
	d="
M76.409424,233.215485 
	C71.579819,233.544662 68.680397,231.430313 68.083656,227.074249 
	C67.354607,221.752289 70.863632,219.457443 75.697350,218.040222 
	C102.201492,210.884750 128.788498,207.094482 155.942429,208.107162 
	C178.810577,208.960022 201.280930,212.403214 223.236176,218.959839 
	C228.336044,220.482819 230.795486,224.334030 229.500824,228.575012 
	C228.165100,232.950516 224.294983,234.801605 219.102905,233.325592 
	C188.706924,224.684586 157.769211,220.751770 126.274544,224.137344 
	C112.104790,225.660553 98.122078,228.933670 84.061188,231.450104 
	C81.620438,231.886932 79.213066,232.510223 76.409424,233.215485 
z"/>
<path fill="#060605" opacity="1.000000" stroke="none" 
	d="
M77.391182,404.340240 
	C72.441658,404.527039 68.739914,403.066254 68.069305,398.008881 
	C67.442665,393.283142 70.186646,390.693665 74.775513,389.294098 
	C87.527794,386.477600 99.961494,383.317566 112.587944,381.487213 
	C150.230545,376.030457 187.297256,379.492889 223.747055,390.084839 
	C228.555649,391.482208 230.742889,395.372589 229.460831,399.586090 
	C228.134552,403.944916 224.242447,405.771667 219.059189,404.297211 
	C194.080704,397.191650 168.640808,393.549347 142.647629,394.061920 
	C120.565392,394.497375 98.953323,397.989319 77.391182,404.340240 
z"/>
<path fill="#060606" opacity="1.000000" stroke="none" 
	d="
M77.389626,347.346375 
	C72.500961,347.487671 68.840759,346.184326 68.040924,341.068970 
	C67.366539,336.755890 69.546547,334.228455 75.706169,332.061707 
	C102.694725,324.765167 129.783981,320.986450 157.443619,322.160797 
	C179.808426,323.110382 201.785339,326.551270 223.258850,332.968384 
	C228.425461,334.512360 230.784378,338.282288 229.466492,342.616302 
	C228.142868,346.969269 224.270920,348.777496 219.050735,347.292786 
	C179.296890,335.985992 139.144638,333.654755 98.549217,342.035065 
	C91.563766,343.477142 84.687759,345.449371 77.389626,347.346375 
z"/>
<path fill="#070605" opacity="1.000000" stroke="none" 
	d="
M76.412033,176.205612 
	C71.600220,176.503799 68.696739,174.445374 68.092995,170.053101 
	C67.356468,164.694885 70.892395,162.465897 75.697922,161.034668 
	C94.076653,156.258072 112.300102,152.756042 130.965286,151.557861 
	C162.535416,149.531296 193.397156,153.315323 223.715271,162.063187 
	C228.408081,163.417236 230.705185,167.385223 229.468185,171.550156 
	C228.200668,175.817856 224.327850,177.868744 219.574142,176.494278 
	C188.879684,167.619476 157.618988,163.780319 125.789192,167.166046 
	C112.277817,168.603256 98.941017,171.697937 85.534866,174.095184 
	C82.599800,174.620026 79.707283,175.382858 76.412033,176.205612 
z"/>
<path fill="#060605" opacity="1.000000" stroke="none" 
	d="
M77.401947,290.288391 
	C72.320816,290.731598 68.777420,289.020752 68.100655,284.072144 
	C67.380539,278.806427 70.792648,276.391479 75.706261,275.040344 
	C102.371857,267.860413 129.124741,264.053558 156.445801,265.121429 
	C179.151062,266.008820 201.460785,269.469757 223.264343,275.962158 
	C228.421417,277.497772 230.848206,281.340820 229.490417,285.602539 
	C228.095016,289.982300 224.292862,291.764526 219.082916,290.292999 
	C185.359573,280.768127 151.106583,277.199097 116.311508,282.187653 
	C103.353859,284.045380 90.617073,287.443695 77.401947,290.288391 
z"/>
<path fill="#E9BE33" opacity="1.000000" stroke="none" 
	d="
M40.372269,345.000488 
	C40.708607,345.419159 40.788712,345.893890 40.752884,346.715759 
	C40.463314,346.394135 40.289673,345.725311 40.372269,345.000488 
z"/>
<path fill="#040304" opacity="1.000000" stroke="none" 
	d="
M499.315094,493.707581 
	C499.020996,393.983276 499.014618,293.957062 499.018188,193.461670 
	C499.352478,194.726532 499.959930,196.460449 499.960754,198.194641 
	C500.006317,295.120605 500.003021,392.046570 499.984680,488.972534 
	C499.984406,490.450287 499.735626,491.927979 499.315094,493.707581 
z"/>
</svg>