<svg width="25" height="24" viewBox="0 0 25 24" fill="none" xmlns="http://www.w3.org/2000/svg">
<path d="M21.679 9.14717L12.9835 2.19076C12.8293 2.06728 12.6376 2 12.4401 2C12.2425 2 12.0508 2.06728 11.8966 2.19076L3.20108 9.14717C3.09928 9.22867 3.01712 9.33202 2.96068 9.44958C2.90423 9.56713 2.87495 9.69588 2.875 9.82628V21.1304C2.875 21.3611 2.96661 21.5822 3.12969 21.7453C3.29276 21.9084 3.51393 22 3.74455 22H9.83141V15.0436H15.0487V22H21.1356C21.3662 22 21.5874 21.9084 21.7504 21.7453C21.9135 21.5822 22.0051 21.3611 22.0051 21.1304V9.82628C22.0052 9.69588 21.9759 9.56713 21.9194 9.44958C21.863 9.33202 21.7808 9.22867 21.679 9.14717Z" fill="currentColor" fill-opacity="0.64" style="mix-blend-mode:multiply"/>
</svg>
