<svg width="56" height="56" viewBox="0 0 56 56" fill="none" xmlns="http://www.w3.org/2000/svg">
<rect width="56" height="56" rx="4" fill="#35AEFF"/>
<path d="M28.5 16.5V38.5M33.5 20.5H26C25.0717 20.5 24.1815 20.8687 23.5251 21.5251C22.8687 22.1815 22.5 23.0717 22.5 24C22.5 24.9283 22.8687 25.8185 23.5251 26.4749C24.1815 27.1313 25.0717 27.5 26 27.5H31C31.9283 27.5 32.8185 27.8687 33.4749 28.5251C34.1313 29.1815 34.5 30.0717 34.5 31C34.5 31.9283 34.1313 32.8185 33.4749 33.4749C32.8185 34.1313 31.9283 34.5 31 34.5H22.5" stroke="white" stroke-width="2" stroke-linecap="round" stroke-linejoin="round"/>
</svg>
