<svg width="56" height="56" viewBox="0 0 56 56" fill="none" xmlns="http://www.w3.org/2000/svg">
<rect width="56" height="56" rx="4" fill="#E14242"/>
<path d="M26.7788 26.966C26.4588 26.966 26.1548 26.9073 25.8668 26.79C25.5895 26.662 25.3441 26.4967 25.1308 26.294C24.9281 26.0807 24.7681 25.8353 24.6508 25.558C24.5335 25.27 24.4748 24.966 24.4748 24.646C24.4748 24.326 24.5335 24.0273 24.6508 23.75C24.7681 23.4727 24.9281 23.2327 25.1308 23.03C25.3441 22.8167 25.5895 22.6513 25.8668 22.534C26.1548 22.406 26.4588 22.342 26.7788 22.342C27.1095 22.342 27.4188 22.406 27.7068 22.534C27.9948 22.6513 28.2401 22.8167 28.4428 23.03C28.6561 23.2327 28.8215 23.4727 28.9388 23.75C29.0561 24.0273 29.1148 24.326 29.1148 24.646C29.1148 24.966 29.0561 25.27 28.9388 25.558C28.8215 25.8353 28.6561 26.0807 28.4428 26.294C28.2401 26.4967 27.9948 26.662 27.7068 26.79C27.4188 26.9073 27.1095 26.966 26.7788 26.966ZM24.7788 33.75L31.7548 22.502H33.7388L26.7628 33.75H24.7788ZM26.7948 25.446C27.0295 25.446 27.2161 25.3713 27.3548 25.222C27.4935 25.0727 27.5628 24.8807 27.5628 24.646C27.5628 24.4113 27.4881 24.2193 27.3388 24.07C27.2001 23.9207 27.0188 23.846 26.7948 23.846C26.5601 23.846 26.3735 23.9207 26.2348 24.07C26.0961 24.2193 26.0268 24.4113 26.0268 24.646C26.0268 24.8807 26.0961 25.0727 26.2348 25.222C26.3735 25.3713 26.5601 25.446 26.7948 25.446ZM31.7068 33.91C31.3868 33.91 31.0828 33.8513 30.7948 33.734C30.5175 33.606 30.2721 33.4407 30.0588 33.238C29.8561 33.0247 29.6908 32.7793 29.5628 32.502C29.4455 32.214 29.3868 31.91 29.3868 31.59C29.3868 31.27 29.4455 30.9713 29.5628 30.694C29.6908 30.4167 29.8561 30.1767 30.0588 29.974C30.2721 29.7607 30.5175 29.5953 30.7948 29.478C31.0828 29.35 31.3868 29.286 31.7068 29.286C32.0375 29.286 32.3415 29.35 32.6188 29.478C32.9068 29.5953 33.1521 29.7607 33.3548 29.974C33.5681 30.1767 33.7335 30.4167 33.8508 30.694C33.9788 30.9713 34.0428 31.27 34.0428 31.59C34.0428 31.91 33.9788 32.214 33.8508 32.502C33.7335 32.7793 33.5681 33.0247 33.3548 33.238C33.1521 33.4407 32.9068 33.606 32.6188 33.734C32.3415 33.8513 32.0375 33.91 31.7068 33.91ZM31.7068 32.39C31.9415 32.39 32.1335 32.3153 32.2828 32.166C32.4321 32.0167 32.5068 31.8247 32.5068 31.59C32.5068 31.366 32.4268 31.1793 32.2668 31.03C32.1175 30.8807 31.9308 30.806 31.7068 30.806C31.4828 30.806 31.2961 30.8807 31.1468 31.03C31.0081 31.1793 30.9388 31.366 30.9388 31.59C30.9388 31.8247 31.0081 32.0167 31.1468 32.166C31.2961 32.3153 31.4828 32.39 31.7068 32.39Z" fill="white"/>
</svg>
