<svg width="20" height="20" viewBox="0 0 20 20" fill="none" xmlns="http://www.w3.org/2000/svg">
  <path
    d="M9.99935 1.66675C8.35117 1.66675 6.74001 2.15549 5.3696 3.07117C3.99919 3.98685 2.93109 5.28833 2.30036 6.81105C1.66963 8.33377 1.5046 10.0093 1.82614 11.6258C2.14769 13.2423 2.94136 14.7272 4.1068 15.8926C5.27223 17.0581 6.75709 17.8517 8.3736 18.1733C9.99011 18.4948 11.6657 18.3298 13.1884 17.6991C14.7111 17.0683 16.0126 16.0002 16.9283 14.6298C17.8439 13.2594 18.3327 11.6483 18.3327 10.0001C18.3303 7.79068 17.4516 5.67245 15.8893 4.11016C14.327 2.54788 12.2088 1.66914 9.99935 1.66675ZM10.7132 14.6695H9.27921V8.61119H10.7132V14.6695ZM10.5945 6.70772C10.5154 6.78023 10.4224 6.83606 10.3213 6.87185C10.2201 6.90765 10.1127 6.92268 10.0056 6.91605C9.89652 6.92331 9.78709 6.90861 9.6838 6.87283C9.5805 6.83704 9.48543 6.7809 9.40421 6.70772C9.33247 6.63048 9.27705 6.53956 9.24125 6.4404C9.20546 6.34125 9.19002 6.23589 9.19588 6.13064C9.18861 6.02293 9.20334 5.91487 9.23915 5.81304C9.27497 5.7112 9.33113 5.61772 9.40421 5.53828C9.48564 5.46543 9.58075 5.40949 9.68399 5.37373C9.78723 5.33796 9.89655 5.32308 10.0056 5.32994C10.1127 5.32371 10.2199 5.33893 10.3211 5.3747C10.4222 5.41048 10.5151 5.46609 10.5945 5.53828C10.6676 5.61772 10.7237 5.7112 10.7595 5.81304C10.7954 5.91487 10.8101 6.02293 10.8028 6.13064C10.8087 6.23589 10.7932 6.34125 10.7574 6.4404C10.7217 6.53956 10.6662 6.63048 10.5945 6.70772Z"
    fill="currentColor" style="mix-blend-mode:multiply" />
</svg>