<svg width="36" height="36" viewBox="0 0 36 36" fill="none" xmlns="http://www.w3.org/2000/svg">
  <path
    d="M27.9682 15.5711V13.1402C27.9682 10.5614 26.9437 8.08818 25.1202 6.26468C23.2967 4.44118 20.8235 3.41675 18.2447 3.41675C15.6659 3.41675 13.1927 4.44118 11.3692 6.26468C9.54572 8.08818 8.52129 10.5614 8.52129 13.1402V15.5711C8.49144 16.3124 8.30907 17.0397 7.98555 17.7074C7.66204 18.3751 7.20433 18.969 6.64102 19.4519C5.62881 20.3144 4.99482 21.5392 4.875 22.8636C4.875 25.9022 9.87285 27.7254 18.2447 27.7254C26.6166 27.7254 31.6145 25.9022 31.6145 22.8636C31.4946 21.5392 30.8607 20.3144 29.8484 19.4519C29.2851 18.969 28.8274 18.3751 28.5039 17.7074C28.1804 17.0397 27.998 16.3124 27.9682 15.5711Z"
    fill="currentColor" />
  <path
    d="M14.7747 30.0347C15.0063 30.7736 15.4678 31.4193 16.092 31.8778C16.7161 32.3362 17.4703 32.5834 18.2447 32.5834C19.0191 32.5834 19.7733 32.3362 20.3975 31.8778C21.0216 31.4193 21.4831 30.7736 21.7148 30.0347C20.6282 30.1149 19.4735 30.1562 18.2447 30.1562C17.0159 30.1562 15.8613 30.1173 14.7747 30.0347Z"
    fill="currentColor" />
</svg>