<svg width="20" height="20" viewBox="0 0 20 20" fill="none" xmlns="http://www.w3.org/2000/svg">
  <path fill-rule="evenodd" clip-rule="evenodd"
    d="M1.6665 4.02782C1.6665 3.64429 1.97742 3.33337 2.36095 3.33337H17.6387C18.0223 3.33337 18.3332 3.64429 18.3332 4.02782V7.50004C18.3332 7.88357 18.0223 8.19448 17.6387 8.19448C16.8417 8.19448 16.2498 8.78635 16.2498 9.58337C16.2498 10.3804 16.8417 10.9723 17.6387 10.9723C18.0223 10.9723 18.3332 11.2832 18.3332 11.6667V15.1389C18.3332 15.5225 18.0223 15.8334 17.6387 15.8334H2.36095C1.97742 15.8334 1.6665 15.5225 1.6665 15.1389V11.6667C1.6665 11.2832 1.97742 10.9723 2.36095 10.9723C3.15797 10.9723 3.74984 10.3804 3.74984 9.58337C3.74984 8.78635 3.15797 8.19448 2.36095 8.19448C1.97742 8.19448 1.6665 7.88357 1.6665 7.50004V4.02782ZM3.05539 4.72226V6.88878C4.27003 7.18768 5.13873 8.26013 5.13873 9.58337C5.13873 10.9066 4.27003 11.9791 3.05539 12.278V14.4445H16.9443V12.278C15.7296 11.9791 14.8609 10.9066 14.8609 9.58337C14.8609 8.26013 15.7296 7.18768 16.9443 6.88878V4.72226H3.05539Z"
    fill="currentColor" fill-opacity="0.8" style="mix-blend-mode:multiply" />
  <path fill-rule="evenodd" clip-rule="evenodd"
    d="M12.5742 7.00899C12.8454 7.28019 12.8454 7.71989 12.5742 7.99109L8.40755 12.1578C8.13635 12.4289 7.69665 12.4289 7.42546 12.1578C7.15426 11.8866 7.15426 11.4469 7.42546 11.1757L11.5921 7.00899C11.8633 6.7378 12.303 6.7378 12.5742 7.00899Z"
    fill="currentColor" fill-opacity="0.8" style="mix-blend-mode:multiply" />
  <path
    d="M8.26373 8.19448C8.83902 8.19448 9.30539 7.72811 9.30539 7.15282C9.30539 6.57752 8.83902 6.11115 8.26373 6.11115C7.68843 6.11115 7.22206 6.57752 7.22206 7.15282C7.22206 7.72811 7.68843 8.19448 8.26373 8.19448Z"
    fill="currentColor" fill-opacity="0.8" style="mix-blend-mode:multiply" />
  <path
    d="M11.7359 13.0556C12.3112 13.0556 12.7776 12.5892 12.7776 12.0139C12.7776 11.4386 12.3112 10.9723 11.7359 10.9723C11.1607 10.9723 10.6943 11.4386 10.6943 12.0139C10.6943 12.5892 11.1607 13.0556 11.7359 13.0556Z"
    fill="currentColor" fill-opacity="0.8" style="mix-blend-mode:multiply" />
</svg>