<svg width="24" height="24" viewBox="0 0 24 24" fill="none" xmlns="http://www.w3.org/2000/svg">
<path fill-rule="evenodd" clip-rule="evenodd" d="M5.45455 4.63636C5.00268 4.63636 4.63636 5.00268 4.63636 5.45455V18.5455C4.63636 18.9973 5.00268 19.3636 5.45455 19.3636H18.5455C18.9973 19.3636 19.3636 18.9973 19.3636 18.5455V5.45455C19.3636 5.00268 18.9973 4.63636 18.5455 4.63636H5.45455ZM3 5.45455C3 4.09894 4.09894 3 5.45455 3H18.5455C19.9011 3 21 4.09894 21 5.45455V18.5455C21 19.9011 19.9011 21 18.5455 21H5.45455C4.09894 21 3 19.9011 3 18.5455V5.45455Z" fill="currentColor"/>
<path d="M17.6839 15.4986L14.8203 9.7713C14.7892 9.70924 14.7429 9.6561 14.6856 9.61689C14.6284 9.57767 14.5621 9.55366 14.493 9.54712C14.4235 9.54217 14.3539 9.55453 14.2903 9.58309C14.2268 9.61164 14.1713 9.65551 14.1289 9.71075L10.7572 14.2058L9.04146 12.1473C9.00006 12.0976 8.94747 12.0585 8.88802 12.0331C8.82857 12.0076 8.76394 11.9967 8.69943 12.0011C8.63492 12.0055 8.57236 12.0251 8.5169 12.0583C8.46144 12.0916 8.41465 12.1375 8.38036 12.1923L6.33491 15.465C6.29621 15.527 6.27479 15.5981 6.27287 15.6711C6.27095 15.7441 6.28861 15.8163 6.32401 15.8802C6.35941 15.944 6.41126 15.9973 6.47418 16.0343C6.5371 16.0714 6.60879 16.0909 6.68182 16.0909H17.3182C17.3879 16.0909 17.4565 16.0731 17.5175 16.0391C17.5784 16.0051 17.6296 15.9561 17.6663 15.8968C17.7029 15.8374 17.7238 15.7697 17.7269 15.7C17.7299 15.6303 17.7152 15.5609 17.6839 15.4986Z" fill="currentColor"/>
<path d="M9.95455 9.54545C10.6323 9.54545 11.1818 8.99599 11.1818 8.31818C11.1818 7.64038 10.6323 7.09091 9.95455 7.09091C9.27674 7.09091 8.72727 7.64038 8.72727 8.31818C8.72727 8.99599 9.27674 9.54545 9.95455 9.54545Z" fill="currentColor"/>
</svg>
