<svg width="20" height="20" viewBox="0 0 20 20" fill="none" xmlns="http://www.w3.org/2000/svg">
  <path fill-rule="evenodd" clip-rule="evenodd"
    d="M19.3475 13.2902C19.518 13.0628 19.5912 12.7771 19.551 12.4958C19.5108 12.2145 19.3605 11.9607 19.1332 11.7902C18.9059 11.6197 18.6201 11.5465 18.3388 11.5866C18.0575 11.6268 17.8037 11.7771 17.6332 12.0044L14.8546 15.7616L12.4975 14.1759C12.3849 14.0914 12.2568 14.03 12.1205 13.9951C11.9842 13.9602 11.8424 13.9525 11.7031 13.9724C11.5638 13.9923 11.4298 14.0394 11.3087 14.1111C11.1877 14.1828 11.0819 14.2776 10.9975 14.3902C10.9131 14.5027 10.8516 14.6308 10.8167 14.7671C10.7818 14.9034 10.7741 15.0452 10.794 15.1845C10.8139 15.3238 10.861 15.4578 10.9327 15.5789C11.0044 15.7 11.0992 15.8057 11.2118 15.8902L14.4261 18.1187C14.5386 18.2031 14.6667 18.2646 14.803 18.2995C14.9393 18.3344 15.0811 18.3421 15.2204 18.3222C15.3597 18.3023 15.4937 18.2552 15.6148 18.1835C15.7359 18.1118 15.8416 18.017 15.9261 17.9044L19.3475 13.2902Z"
    fill="currentColor" style="mix-blend-mode:multiply" />
  <path
    d="M7.08203 9.16634C8.99939 9.16634 10.5543 6.91704 10.5543 4.99967V4.30523C10.5543 2.38787 8.99939 0.833008 7.08203 0.833008C5.16467 0.833008 3.60981 2.38787 3.60981 4.30523V4.99967C3.60981 6.91704 5.16467 9.16634 7.08203 9.16634Z"
    fill="currentColor" style="mix-blend-mode:multiply" />
  <path
    d="M12.1216 11.5229C12.057 11.493 11.9938 11.4618 11.9251 11.4388C10.7827 11.0527 9.04314 10.6097 7.08203 10.6097C5.12092 10.6097 3.38134 11.0527 2.23898 11.4381C1.39453 11.7236 0.832031 12.5187 0.832031 13.4097V16.1652H10.7966C10.6424 15.7305 10.5543 15.2638 10.5543 14.7763C10.5543 13.459 11.1674 12.2861 12.1216 11.5229Z"
    fill="currentColor" style="mix-blend-mode:multiply" />
</svg>