<svg width="41" height="40" viewBox="0 0 41 40" fill="none" xmlns="http://www.w3.org/2000/svg">
<path d="M27.4444 25.5557C23.3458 25.5557 19.9402 24.6682 17.7221 23.1779C17.7221 24.2141 17.7221 24.8974 17.7221 25.5557C17.7221 27.8571 22.0749 29.7224 27.4444 29.7224C32.8138 29.7224 37.1666 27.8571 37.1666 25.5557C37.1666 24.8974 37.1666 24.2141 37.1666 23.1779C34.9485 24.6682 31.543 25.5557 27.4444 25.5557Z" fill="white"/>
<path d="M27.4444 32.5002C23.3458 32.5002 19.9402 31.6127 17.7221 30.1224C17.7221 31.1585 17.7221 31.8418 17.7221 32.5002C17.7221 34.8016 22.0749 36.6668 27.4444 36.6668C32.8138 36.6668 37.1666 34.8016 37.1666 32.5002C37.1666 31.8418 37.1666 31.1585 37.1666 30.1224C34.9485 31.6127 31.543 32.5002 27.4444 32.5002Z" fill="white"/>
<path d="M27.4444 22.7779C32.8138 22.7779 37.1666 20.9125 37.1666 18.6113C37.1666 16.3101 32.8138 14.4446 27.4444 14.4446C22.0749 14.4446 17.7221 16.3101 17.7221 18.6113C17.7221 20.9125 22.0749 22.7779 27.4444 22.7779Z" fill="white"/>
<path d="M13.5555 11.6668C18.9249 11.6668 23.2777 9.80135 23.2777 7.50016C23.2777 5.19898 18.9249 3.3335 13.5555 3.3335C8.18604 3.3335 3.83325 5.19898 3.83325 7.50016C3.83325 9.80135 8.18604 11.6668 13.5555 11.6668Z" fill="white"/>
<path d="M14.9444 28.296C14.4902 28.3182 14.0291 28.3335 13.5555 28.3335C9.45686 28.3335 6.05131 27.446 3.83325 25.9557C3.83325 26.9918 3.83325 27.6752 3.83325 28.3335C3.83325 30.6349 8.18603 32.5002 13.5555 32.5002C14.0277 32.5002 14.4902 32.4807 14.9444 32.4529V28.296Z" fill="white"/>
<path d="M14.9444 21.3516C14.4902 21.3738 14.0291 21.3891 13.5555 21.3891C9.45686 21.3891 6.05131 20.5016 3.83325 19.0113C3.83325 20.0474 3.83325 20.7307 3.83325 21.3891C3.83325 23.6904 8.18603 25.5557 13.5555 25.5557C14.0277 25.5557 14.4902 25.5363 14.9444 25.5085V21.3516Z" fill="white"/>
<path d="M17.611 14.1196C16.3583 14.3279 15.0027 14.4446 13.5555 14.4446C9.45686 14.4446 6.05131 13.5571 3.83325 12.0668C3.83325 13.1029 3.83325 13.7863 3.83325 14.4446C3.83325 16.746 8.18603 18.6113 13.5555 18.6113C14.0291 18.6113 14.4916 18.5918 14.9485 18.5641C14.9652 16.8099 15.9305 15.2863 17.611 14.1196Z" fill="white"/>
</svg>
