<svg width="20" height="20" viewBox="0 0 20 20" fill="none" xmlns="http://www.w3.org/2000/svg">
<g clip-path="url(#clip0_187_19632)">
<path fill-rule="evenodd" clip-rule="evenodd" d="M16.6667 3.33333C17.1087 3.33333 17.5326 3.50893 17.8452 3.82149C18.1577 4.13405 18.3333 4.55797 18.3333 5V15C18.3333 15.442 18.1577 15.8659 17.8452 16.1785C17.5326 16.4911 17.1087 16.6667 16.6667 16.6667H3.33333C2.89131 16.6667 2.46738 16.4911 2.15482 16.1785C1.84226 15.8659 1.66667 15.442 1.66667 15V5C1.66667 4.55797 1.84226 4.13405 2.15482 3.82149C2.46738 3.50893 2.89131 3.33333 3.33333 3.33333H16.6667ZM3.33333 5H16.6667V15H3.33333V5Z" fill="#161C24" fill-opacity="0.64" style="mix-blend-mode:multiply"/>
<path d="M7.08333 6.66667C7.63786 6.66648 8.17672 6.85067 8.61511 7.19025C9.0535 7.52983 9.36655 8.00553 9.505 8.5425C9.55985 8.74903 9.53327 8.96875 9.43074 9.15624C9.32821 9.34373 9.15757 9.48467 8.95408 9.54993C8.7506 9.61519 8.52982 9.59979 8.33737 9.5069C8.14491 9.41401 7.9955 9.25075 7.92 9.05083L7.89083 8.9575C7.8406 8.76047 7.72007 8.5886 7.55193 8.47426C7.38379 8.35992 7.17965 8.311 6.97795 8.33671C6.77625 8.36243 6.59091 8.461 6.45683 8.61386C6.32275 8.76672 6.24919 8.96334 6.25 9.16667V10.8333C6.24974 11.0284 6.3179 11.2173 6.44262 11.3673C6.56734 11.5173 6.74072 11.6187 6.93255 11.654C7.12438 11.6893 7.32251 11.6562 7.49244 11.5605C7.66237 11.4647 7.79333 11.3124 7.8625 11.13L7.89083 11.0425C7.91785 10.9363 7.96557 10.8364 8.03124 10.7486C8.09691 10.6609 8.17926 10.5869 8.27355 10.531C8.36785 10.4751 8.47225 10.4384 8.58077 10.4229C8.68929 10.4074 8.79979 10.4135 8.90596 10.4408C9.01212 10.4681 9.11186 10.5161 9.19945 10.582C9.28705 10.6479 9.36078 10.7304 9.41643 10.8249C9.47207 10.9193 9.50854 11.0238 9.52374 11.1324C9.53894 11.2409 9.53257 11.3514 9.505 11.4575C9.35372 12.0475 8.99221 12.5621 8.48839 12.9044C7.98457 13.2467 7.37309 13.3934 6.7688 13.3167C6.16451 13.2401 5.60899 12.9455 5.20658 12.4882C4.80416 12.0309 4.58254 11.4425 4.58333 10.8333V9.16667C4.58333 8.50362 4.84673 7.86774 5.31557 7.3989C5.78441 6.93006 6.42029 6.66667 7.08333 6.66667Z" fill="#161C24" fill-opacity="0.64" style="mix-blend-mode:multiply"/>
<path d="M12.9167 6.66667C13.4712 6.66648 14.0101 6.85067 14.4484 7.19025C14.8868 7.52983 15.1999 8.00553 15.3383 8.5425C15.3932 8.74903 15.3666 8.96875 15.2641 9.15624C15.1615 9.34373 14.9909 9.48467 14.7874 9.54993C14.5839 9.61519 14.3632 9.59979 14.1707 9.5069C13.9782 9.41401 13.8288 9.25075 13.7533 9.05083L13.7242 8.9575C13.6748 8.76972 13.5615 8.60503 13.4038 8.49181C13.2461 8.3786 13.0538 8.32394 12.8601 8.33727C12.6664 8.3506 12.4834 8.43107 12.3427 8.56483C12.202 8.69858 12.1123 8.87723 12.0892 9.07L12.0833 9.16667V10.8333C12.0831 11.0284 12.1512 11.2173 12.276 11.3673C12.4007 11.5173 12.574 11.6187 12.7659 11.654C12.9577 11.6893 13.1558 11.6562 13.3258 11.5605C13.4957 11.4647 13.6267 11.3124 13.6958 11.13L13.7242 11.0425C13.7512 10.9363 13.7989 10.8364 13.8646 10.7486C13.9302 10.6609 14.0126 10.5869 14.1069 10.531C14.2012 10.4751 14.3056 10.4384 14.4141 10.4229C14.5226 10.4074 14.6331 10.4135 14.7393 10.4408C14.8455 10.4681 14.9452 10.5161 15.0328 10.582C15.1204 10.6479 15.1941 10.7304 15.2498 10.8249C15.3054 10.9193 15.3419 11.0238 15.3571 11.1324C15.3723 11.2409 15.3659 11.3514 15.3383 11.4575C15.1896 12.0347 14.8396 12.5397 14.3514 12.8816C13.8632 13.2235 13.2689 13.3797 12.6757 13.3221C12.0825 13.2645 11.5294 12.9968 11.1161 12.5674C10.7028 12.1379 10.4565 11.575 10.4217 10.98L10.4167 10.8333V9.16667C10.4167 8.50362 10.6801 7.86774 11.1489 7.3989C11.6177 6.93006 12.2536 6.66667 12.9167 6.66667Z" fill="#161C24" fill-opacity="0.64" style="mix-blend-mode:multiply"/>
</g>
<defs>
<clipPath id="clip0_187_19632">
<rect width="20" height="20" fill="white"/>
</clipPath>
</defs>
</svg>
