<svg width="24" height="24" viewBox="0 0 24 24" fill="none" xmlns="http://www.w3.org/2000/svg">
  <path fill-rule="evenodd" clip-rule="evenodd"
    d="M5.66667 2.83333C5.66667 2.3731 5.29357 2 4.83333 2C4.3731 2 4 2.3731 4 2.83333V21.1667C4 21.6269 4.3731 22 4.83333 22C5.29357 22 5.66667 21.6269 5.66667 21.1667V15.3333H19.8333C20.1221 15.3333 20.3904 15.1838 20.5422 14.9381C20.694 14.6924 20.7079 14.3856 20.5787 14.1273L18.265 9.5L20.5787 4.87268C20.7079 4.61435 20.694 4.30757 20.5422 4.06189C20.3904 3.81621 20.1221 3.66667 19.8333 3.66667H5.66667V2.83333ZM16.588 9.12732L18.485 5.33333H5.66667V13.6667H18.485L16.588 9.87268C16.4707 9.63807 16.4707 9.36193 16.588 9.12732Z"
    fill="currentColor" fill-opacity="0.8" style="mix-blend-mode:multiply" />
</svg>