<svg width="33" height="32" viewBox="0 0 33 32" fill="none" xmlns="http://www.w3.org/2000/svg">
  <path
    d="M4.5 5.00011C4.5 4.73489 4.60536 4.48054 4.79289 4.293C4.98043 4.10546 5.23478 4.00011 5.5 4.00011C5.76522 4.00011 6.01957 4.10546 6.20711 4.293C6.39464 4.48054 6.5 4.73489 6.5 5.00011V27.0001C6.5 27.2653 6.39464 27.5197 6.20711 27.7072C6.01957 27.8948 5.76522 28.0001 5.5 28.0001C5.23478 28.0001 4.98043 27.8948 4.79289 27.7072C4.60536 27.5197 4.5 27.2653 4.5 27.0001V5.00011ZM28.5 6.33744C28.5 4.46011 26.396 3.35077 24.8467 4.41211L10.8507 14.0041C10.5392 14.2176 10.2841 14.5036 10.1075 14.8374C9.93085 15.1712 9.83788 15.5429 9.83657 15.9206C9.83526 16.2983 9.92564 16.6706 10.1 17.0057C10.2743 17.3407 10.5273 17.6284 10.8373 17.8441L24.836 27.5801C26.3827 28.6561 28.5013 27.5481 28.5013 25.6641L28.5 6.33744Z"
    fill="currentColor" style="mix-blend-mode:multiply" />
</svg>