<svg width="24" height="24" viewBox="0 0 24 24" fill="none" xmlns="http://www.w3.org/2000/svg">
  <path
    d="M21.1667 6.16723H19.1708C19.3717 5.77022 19.484 5.33436 19.5 4.88973C19.4711 4.10369 19.1346 3.36045 18.5631 2.82007C17.9915 2.27968 17.2306 1.98539 16.4442 2.00056C15.5074 2.0409 14.5993 2.33486 13.8165 2.85104C13.0338 3.36722 12.406 4.08625 12 4.93139C11.5983 4.08862 10.9753 3.37079 10.1974 2.85459C9.41947 2.33838 8.51595 2.04319 7.58333 2.00056C7.55167 2.00056 7.52 2.00056 7.48833 2.00056C6.71316 2.0018 5.96867 2.30354 5.41137 2.84234C4.85408 3.38115 4.52739 4.11504 4.5 4.88973V4.94473C4.51626 5.37018 4.62398 5.78714 4.81583 6.16723H2.83333C2.61232 6.16723 2.40036 6.25502 2.24408 6.4113C2.0878 6.56758 2 6.77954 2 7.00056V9.50056C2 9.72157 2.0878 9.93353 2.24408 10.0898C2.40036 10.2461 2.61232 10.3339 2.83333 10.3339H21.1667C21.3877 10.3339 21.5996 10.2461 21.7559 10.0898C21.9122 9.93353 22 9.72157 22 9.50056V7.00056C22 6.77954 21.9122 6.56758 21.7559 6.4113C21.5996 6.25502 21.3877 6.16723 21.1667 6.16723ZM16.47 3.66723C16.8104 3.6584 17.1412 3.78011 17.3947 4.00742C17.6482 4.23473 17.8051 4.55041 17.8333 4.88973C17.8215 5.23082 17.6784 5.55417 17.4338 5.79223C17.1892 6.03028 16.8621 6.16464 16.5208 6.16723H13.2317C13.75 5.11806 14.7808 3.66723 16.47 3.66723ZM6.16667 4.91723C6.188 4.57622 6.33943 4.25641 6.58971 4.02381C6.83999 3.79121 7.17001 3.66357 7.51167 3.66723C9.23583 3.67389 10.2458 5.10973 10.77 6.16723H7.52C7.17783 6.1698 6.84751 6.04202 6.59614 5.80985C6.34478 5.57768 6.19122 5.25853 6.16667 4.91723Z"
    fill="currentColor" style="mix-blend-mode:multiply" />
  <path
    d="M13.6667 12.0008V22.0008H17.8333C18.4964 22.0008 19.1323 21.7374 19.6011 21.2686C20.0699 20.7997 20.3333 20.1639 20.3333 19.5008V12.0008H13.6667Z"
    fill="currentColor" style="mix-blend-mode:multiply" />
  <path
    d="M10.3333 12.0008H3.66667V19.5008C3.66667 20.1639 3.93006 20.7997 4.3989 21.2686C4.86774 21.7374 5.50363 22.0008 6.16667 22.0008H10.3333V12.0008Z"
    fill="currentColor" style="mix-blend-mode:multiply" />
</svg>