<svg width="20" height="20" viewBox="0 0 20 20" fill="none" xmlns="http://www.w3.org/2000/svg">
  <path
    d="M15 7.22222C16.5278 7.22222 17.7778 5.97222 17.7778 4.44445C17.7778 2.91667 16.5278 1.66667 15 1.66667C13.4722 1.66667 12.2222 2.91667 12.2222 4.44445C12.2222 4.72222 12.2917 4.93056 12.3611 5.13889L7.29167 8.05556C6.73611 7.56945 6.04167 7.22222 5.27778 7.22222C3.75 7.22222 2.5 8.47222 2.5 10C2.5 11.5278 3.75 12.7778 5.27778 12.7778C6.04167 12.7778 6.73611 12.4306 7.29167 11.9444L12.3611 14.8611C12.2917 15.0694 12.2222 15.3472 12.2222 15.5556C12.2222 17.0833 13.4722 18.3333 15 18.3333C16.5278 18.3333 17.7778 17.0833 17.7778 15.5556C17.7778 14.0278 16.5278 12.7778 15 12.7778C14.2361 12.7778 13.5417 13.125 12.9861 13.6111L7.91667 10.6944C7.98611 10.4861 8.05556 10.2778 8.05556 10C8.05556 9.72222 7.98611 9.51389 7.91667 9.30556L12.9861 6.38889C13.5417 6.875 14.2361 7.22222 15 7.22222Z"
    fill="currentColor" style="mix-blend-mode:multiply" />
</svg>