<svg width="100%" height="100%" viewBox="0 0 267 267" version="1.1" xmlns="http://www.w3.org/2000/svg"
    xmlns:xlink="http://www.w3.org/1999/xlink" xml:space="preserve" xmlns:serif="http://www.serif.com/"
    style="fill-rule:evenodd;clip-rule:evenodd;stroke-linejoin:round;stroke-miterlimit:2;">
    <g>
        <path
            d="M50,154.167c56.944,9.876 113.889,9.544 170.833,-0l0,-79.167c0,-0.902 -0.292,-1.779 -0.833,-2.5l-37.5,-50c-0.787,-1.049 -2.022,-1.667 -3.333,-1.667l-116.667,0c-3.315,0 -6.495,1.317 -8.839,3.661c-2.344,2.345 -3.661,5.524 -3.661,8.839c-0,19.42 -0,66.505 -0,95.834c-0,6.188 -1.451,11.433 -1.451,15.614c0,5.78 1.451,9.386 1.451,9.386Z"
            style="fill:#d8dfe3;" />
        <path
            d="M25,143.365c-0,0 0,68.863 0,89.968c-0,3.315 1.317,6.495 3.661,8.839c2.344,2.344 5.524,3.661 8.839,3.661c33.501,0 158.165,0 191.667,0c3.315,0 6.494,-1.317 8.839,-3.661c2.344,-2.344 3.661,-5.524 3.661,-8.839c-0,-15.966 -0,-50.7 -0,-66.666c-0,-3.315 -1.317,-6.495 -3.661,-8.839c-2.345,-2.344 -5.524,-3.661 -8.839,-3.661l-187.5,-0c-5.316,-0 -16.667,-10.802 -16.667,-10.802Z"
            style="fill:#1fb35b;" />
        <path
            d="M37.5,154.167c-3.804,-0 -6.581,-1.543 -8.625,-3.443c-1.923,-1.788 -3.875,-4.939 -3.875,-9.057c-0,-2.643 1.317,-6.495 3.661,-8.839c2.344,-2.344 5.524,-3.661 8.839,-3.661c13.571,-0 12.5,-0 12.5,-0l-0,25c-0,-0 1.071,-0 -12.5,-0Z"
            style="fill:#198043;" />
        <path
            d="M179.167,20.833l-0,41.667c-0,3.315 1.317,6.495 3.661,8.839c2.344,2.344 5.523,3.661 8.839,3.661l29.166,-0c0,-0.902 -0.292,-1.779 -0.833,-2.5l-37.5,-50c-0.787,-1.049 -2.022,-1.667 -3.333,-1.667Z"
            style="fill:#afbdc7;" />
        <path
            d="M87.5,79.167l54.167,-0c2.299,-0 4.166,-1.867 4.166,-4.167c0,-2.3 -1.867,-4.167 -4.166,-4.167l-54.167,0c-2.3,0 -4.167,1.867 -4.167,4.167c0,2.3 1.867,4.167 4.167,4.167Z"
            style="fill:#1fb35b;" />
        <path
            d="M87.5,104.167l95.833,-0c2.3,-0 4.167,-1.867 4.167,-4.167c0,-2.3 -1.867,-4.167 -4.167,-4.167l-95.833,0c-2.3,0 -4.167,1.867 -4.167,4.167c0,2.3 1.867,4.167 4.167,4.167Z"
            style="fill:#1fb35b;" />
        <path
            d="M87.5,129.167l95.833,-0c2.3,-0 4.167,-1.867 4.167,-4.167c0,-2.3 -1.867,-4.167 -4.167,-4.167l-95.833,0c-2.3,0 -4.167,1.867 -4.167,4.167c0,2.3 1.867,4.167 4.167,4.167Z"
            style="fill:#1fb35b;" />
        <path
            d="M156.548,180.714l16.667,41.667c0.632,1.582 2.165,2.619 3.868,2.619c1.704,0 3.236,-1.037 3.869,-2.619l16.667,-41.667c0.854,-2.135 -0.186,-4.562 -2.322,-5.416c-2.135,-0.854 -4.562,0.186 -5.416,2.321l-12.798,31.995c0,0 -12.798,-31.995 -12.798,-31.995c-0.854,-2.135 -3.281,-3.175 -5.416,-2.321c-2.135,0.854 -3.175,3.281 -2.321,5.416Z"
            style="fill:#d8dfe3;" />
        <path
            d="M91.963,175l-2.381,0c-11.506,0 -20.833,9.327 -20.833,20.833c-0,2.745 -0,5.589 -0,8.334c-0,11.506 9.327,20.833 20.833,20.833l2.381,-0c7.433,0 14.183,-4.336 17.273,-11.096c0.431,-0.942 0.516,-1.12 0.793,-1.734c1.091,-2.422 -0.226,-4.633 -1.79,-5.419c-2.612,-1.313 -4.982,0.142 -5.789,1.954c-0.245,0.55 -0.793,1.735 -0.793,1.735c-1.735,3.793 -5.522,6.227 -9.694,6.227l-2.381,-0c-6.904,-0 -12.5,-5.597 -12.5,-12.5l0,-8.334c0,-6.903 5.596,-12.5 12.5,-12.5l2.381,0c4.172,0 7.959,2.434 9.694,6.227c-0,0 0.508,1.138 0.793,1.735c1.252,2.624 4.212,2.997 6.084,1.781c1.315,-0.856 2.557,-2.923 1.495,-5.246c-0.793,-1.734 -0.793,-1.734 -0.793,-1.734c-3.09,-6.76 -9.84,-11.096 -17.273,-11.096Z"
            style="fill:#d8dfe3;" />
        <path
            d="M116.667,210.443l-0,-0.001l-0,2.066c-0,3.313 1.316,6.491 3.658,8.833c2.343,2.343 5.52,3.659 8.833,3.659c3.003,-0 6.39,-0 9.392,-0c3.313,0 6.49,-1.316 8.833,-3.659c2.343,-2.342 3.659,-5.52 3.659,-8.833c-0,-0.56 -0,-1.116 -0,-1.658c-0,-5.111 -3.112,-9.707 -7.858,-11.606l-15.151,-6.06c-1.832,-0.733 -3.033,-2.507 -3.033,-4.48l-0,-1.204c-0,-1.105 0.439,-2.165 1.22,-2.946c0.782,-0.782 1.841,-1.221 2.946,-1.221c0.001,0 9.376,0 9.376,0c1.105,0 2.165,0.439 2.946,1.221c0.781,0.781 1.22,1.841 1.22,2.946c0,0 0,1.372 0,2.058c0,1.176 0.52,2.24 1.043,2.78c0.813,0.923 1.981,1.412 3.124,1.412c2.028,0 4.167,-1.566 4.167,-4.192l-0,-2.058c-0,-3.315 -1.317,-6.495 -3.661,-8.839c-2.345,-2.344 -5.524,-3.661 -8.839,-3.661l-9.375,0c-3.316,0 -6.495,1.317 -8.839,3.661c-2.344,2.344 -3.661,5.524 -3.661,8.839c-0,0.405 -0,0.807 -0,1.204c-0,5.38 3.276,10.219 8.271,12.217l15.151,6.061c1.582,0.632 2.619,2.165 2.619,3.868l0,1.658c0,1.103 -0.438,2.161 -1.218,2.941c-0.779,0.78 -1.837,1.218 -2.94,1.218l-9.392,-0c-1.103,-0 -2.16,-0.438 -2.94,-1.218c-0.78,-0.78 -1.218,-1.838 -1.218,-2.94c-0,-0.001 -0,-0.001 -0,-2.067c-0,-2.748 -2.24,-4.194 -4.094,-4.194c-1.758,0 -4.239,1.363 -4.239,4.169c-0,0.026 0,0.026 0,0.026Z"
            fill="#d8dfe3" />
    </g>
</svg>