<svg width="20" height="20" viewBox="0 0 20 20" fill="none" xmlns="http://www.w3.org/2000/svg">
  <path
    d="M17.7935 3.9721L10.2178 1.69937C10.076 1.6562 9.92464 1.6562 9.7829 1.69937L2.20714 3.9721C2.05102 4.01887 1.91414 4.11475 1.81684 4.24549C1.71953 4.37624 1.66698 4.53487 1.66699 4.69785C1.66699 14.941 9.63821 18.2479 9.71851 18.2804C9.89954 18.3521 10.1011 18.3521 10.2821 18.2804C10.3624 18.2479 18.3337 14.941 18.3337 4.69785C18.3337 4.53487 18.2811 4.37624 18.1838 4.24549C18.0865 4.11475 17.9496 4.01887 17.7935 3.9721ZM12.339 12.6607L10.0003 11.4297L7.65942 12.6607L8.10639 10.0539L6.21245 8.2077L8.82987 7.82892L10.0003 5.45543L11.1708 7.8274L13.7882 8.20619L11.8943 10.0539L12.339 12.6607Z"
    fill="currentColor" fill-opacity="0.64" style="mix-blend-mode:multiply" />
</svg>