<svg width="20" height="20" viewBox="0 0 20 20" fill="none" xmlns="http://www.w3.org/2000/svg">
  <path
    d="M8.06798 10.1994C6.10481 10.1994 4.5128 7.89637 4.5128 5.9332V5.22217C4.5128 3.259 6.10481 1.66699 8.06798 1.66699C10.0312 1.66699 11.6232 3.259 11.6232 5.22217V5.9332C11.6232 7.89637 10.0312 10.1994 8.06798 10.1994Z"
    fill="currentColor" style="mix-blend-mode:multiply" />
  <path
    d="M10.2004 15.1767C10.2004 13.9693 10.6306 12.863 11.3459 12.0012C10.3888 11.7857 9.27036 11.6215 8.06729 11.6215C6.06003 11.6215 4.27889 12.0751 3.10853 12.4698C2.24391 12.7613 1.66797 13.5754 1.66797 14.4877V17.3098H10.686C10.3782 16.6627 10.2004 15.941 10.2004 15.1767Z"
    fill="currentColor" style="mix-blend-mode:multiply" />
  <path
    d="M18.3347 13.0436L17.3293 12.0382L15.1962 14.1713L13.0631 12.0382L12.0577 13.0436L14.1908 15.1767L12.0577 17.3098L13.0631 18.3152L15.1962 16.1821L17.3293 18.3152L18.3347 17.3098L16.2016 15.1767L18.3347 13.0436Z"
    fill="currentColor" style="mix-blend-mode:multiply" />
</svg>