<svg width="24" height="24" viewBox="0 0 24 24" fill="none" xmlns="http://www.w3.org/2000/svg">
  <path
    d="M18.1667 10.3333H6.5C5.83696 10.3333 5.20107 10.5967 4.73223 11.0656C4.26339 11.5344 4 12.1703 4 12.8333V19.5C4 20.163 4.26339 20.7989 4.73223 21.2678C5.20107 21.7366 5.83696 22 6.5 22H18.1667C18.8297 22 19.4656 21.7366 19.9344 21.2678C20.4033 20.7989 20.6667 20.163 20.6667 19.5V12.8333C20.6667 12.1703 20.4033 11.5344 19.9344 11.0656C19.4656 10.5967 18.8297 10.3333 18.1667 10.3333ZM12.3333 17.8333C12.0037 17.8333 11.6815 17.7356 11.4074 17.5524C11.1333 17.3693 10.9197 17.109 10.7935 16.8045C10.6674 16.4999 10.6344 16.1648 10.6987 15.8415C10.763 15.5182 10.9217 15.2212 11.1548 14.9882C11.3879 14.7551 11.6849 14.5963 12.0082 14.532C12.3315 14.4677 12.6666 14.5007 12.9711 14.6269C13.2757 14.753 13.536 14.9666 13.7191 15.2407C13.9022 15.5148 14 15.837 14 16.1667C14 16.6087 13.8244 17.0326 13.5118 17.3452C13.1993 17.6577 12.7754 17.8333 12.3333 17.8333Z"
    fill="currentColor" style="mix-blend-mode:multiply" />
  <path
    d="M17.3333 8.66667H15.6667V7.00001C15.676 6.12593 15.338 5.2839 14.7269 4.65889C14.1158 4.03388 13.2816 3.677 12.4075 3.66667H12.3725C11.937 3.65906 11.5043 3.73734 11.0991 3.89704C10.6939 4.05673 10.3241 4.29472 10.0109 4.5974C9.69767 4.90007 9.44719 5.2615 9.27374 5.66103C9.10029 6.06056 9.00727 6.49035 9 6.92584V8.66667H7.33333V6.91667C7.3467 5.60977 7.87459 4.36079 8.80257 3.44045C9.73056 2.52011 10.9839 2.00257 12.2908 2.00001H12.3417C12.9989 1.99879 13.6499 2.12763 14.2572 2.37909C14.8644 2.63056 15.4159 2.99969 15.8799 3.46522C16.3439 3.93075 16.7112 4.48347 16.9606 5.09156C17.2101 5.69965 17.3367 6.35109 17.3333 7.00834V8.66667Z"
    fill="currentColor" style="mix-blend-mode:multiply" />
</svg>