<svg width="17" height="16" viewBox="0 0 17 16" fill="none" xmlns="http://www.w3.org/2000/svg">
<path d="M15.2515 6.15388H5.002L7.84502 3.15209C8.17302 2.80593 8.35736 2.33637 8.35746 1.84671C8.35757 1.35705 8.17345 0.887394 7.8456 0.541068C7.51775 0.194743 7.07302 0.000115456 6.60926 5.1351e-08C6.1455 -0.000115353 5.70069 0.194291 5.37268 0.540453L1.19267 4.9539C0.428904 5.76255 0 6.85797 0 8C0 9.14202 0.428904 10.2374 1.19267 11.0461L5.37268 15.4595C5.70069 15.8057 6.1455 16.0001 6.60926 16C7.07302 15.9999 7.51775 15.8053 7.8456 15.4589C8.17345 15.1126 8.35757 14.643 8.35746 14.1533C8.35736 13.6636 8.17302 13.1941 7.84502 12.8479L5.002 9.84612H15.2515C15.7153 9.84612 16.16 9.65162 16.4879 9.3054C16.8158 8.95919 17 8.48962 17 8C17 7.51038 16.8158 7.04081 16.4879 6.6946C16.16 6.34838 15.7153 6.15388 15.2515 6.15388Z" fill="#595959"/>
</svg>
