<svg width="16" height="16" viewBox="0 0 16 16" fill="none" xmlns="http://www.w3.org/2000/svg">
  <path
    d="M14.2332 3.17758L8.17264 1.3594C8.05925 1.32486 7.93815 1.32486 7.82476 1.3594L1.76415 3.17758C1.63925 3.215 1.52975 3.2917 1.45191 3.3963C1.37406 3.50089 1.33202 3.6278 1.33203 3.75819C1.33203 11.9527 7.709 14.5982 7.77324 14.6242C7.91807 14.6816 8.07933 14.6816 8.22415 14.6242C8.28839 14.5982 14.6654 11.9527 14.6654 3.75819C14.6654 3.6278 14.6233 3.50089 14.5455 3.3963C14.4676 3.2917 14.3581 3.215 14.2332 3.17758ZM9.86961 10.1285L7.9987 9.14364L6.12597 10.1285L6.48355 8.04304L4.96839 6.56607L7.06233 6.26304L7.9987 4.36425L8.93506 6.26182L11.029 6.56485L9.51385 8.04304L9.86961 10.1285Z"
    fill="currentColor" style="mix-blend-mode:multiply" />
</svg>