<svg width="20" height="20" viewBox="0 0 20 20" fill="none" xmlns="http://www.w3.org/2000/svg">
  <path
    d="M17.6382 8.19436C18.0223 8.19436 18.3327 7.88395 18.3327 7.49992V4.0277C18.3327 3.64367 18.0223 3.33325 17.6382 3.33325H2.36046C1.97643 3.33325 1.66602 3.64367 1.66602 4.0277V7.49992C1.66602 7.88395 1.97643 8.19436 2.36046 8.19436C3.12643 8.19436 3.74935 8.81728 3.74935 9.58325C3.74935 10.3492 3.12643 10.9721 2.36046 10.9721C1.97643 10.9721 1.66602 11.2826 1.66602 11.6666V15.1388C1.66602 15.5228 1.97643 15.8333 2.36046 15.8333H17.6382C18.0223 15.8333 18.3327 15.5228 18.3327 15.1388V11.6666C18.3327 11.2826 18.0223 10.9721 17.6382 10.9721C16.8723 10.9721 16.2493 10.3492 16.2493 9.58325C16.2493 8.81728 16.8723 8.19436 17.6382 8.19436ZM13.4716 11.6666H6.52713V10.2777H13.4716V11.6666ZM13.4716 8.88881H6.52713V7.49992H13.4716V8.88881Z"
    fill="currentColor" style="mix-blend-mode:multiply" />
</svg>