<svg width="61" height="60" viewBox="0 0 61 60" fill="none" xmlns="http://www.w3.org/2000/svg">
  <path
    d="M55.5 16.25L43 22.5V16.25C43 14.5924 42.3415 13.0027 41.1694 11.8306C39.9973 10.6585 38.4076 10 36.75 10H11.75C10.0924 10 8.50268 10.6585 7.33058 11.8306C6.15848 13.0027 5.5 14.5924 5.5 16.25L5.5 41.25C5.5 42.9076 6.15848 44.4973 7.33058 45.6694C8.50268 46.8415 10.0924 47.5 11.75 47.5H36.75C38.4076 47.5 39.9973 46.8415 41.1694 45.6694C42.3415 44.4973 43 42.9076 43 41.25V35L55.5 41.25V16.25Z"
    fill="currentColor" />
</svg>