<svg width="20" height="20" viewBox="0 0 20 20" fill="none" xmlns="http://www.w3.org/2000/svg">
  <path
    d="M16.818 18.3333H2.42408C2.22316 18.3333 2.03046 18.2535 1.88839 18.1114C1.74632 17.9693 1.6665 17.7766 1.6665 17.5757V3.18182C1.6665 2.9809 1.74632 2.78821 1.88839 2.64613C2.03046 2.50406 2.22316 2.42425 2.42408 2.42425H10.7574V3.93939H3.18165V16.8181H16.0604V9.2424H17.5755V17.5757C17.5755 17.7766 17.4957 17.9693 17.3536 18.1114C17.2116 18.2535 17.0189 18.3333 16.818 18.3333Z"
    fill="currentColor" fill-opacity="0.8" style="mix-blend-mode:multiply" />
  <path
    d="M10.268 11.6257L7.72709 12.2727L8.37405 9.73181L16.0468 2.05911C16.1711 1.93469 16.3187 1.83598 16.4812 1.76863C16.6437 1.70129 16.8178 1.66663 16.9937 1.66663C17.1696 1.66663 17.3438 1.70129 17.5063 1.76863C17.6687 1.83598 17.8164 1.93469 17.9407 2.05911C18.0651 2.18343 18.1638 2.33105 18.2312 2.49354C18.2985 2.65602 18.3332 2.83019 18.3332 3.00608C18.3332 3.18197 18.2985 3.35613 18.2312 3.51862C18.1638 3.68111 18.0651 3.82873 17.9407 3.95305L10.268 11.6257Z"
    fill="currentColor" fill-opacity="0.8" style="mix-blend-mode:multiply" />
</svg>