<svg width="24" height="24" viewBox="0 0 24 24" fill="none" xmlns="http://www.w3.org/2000/svg">
<path d="M12 3.50472L20.4518 7.07981C20.4537 7.08109 20.4621 7.08741 20.4725 7.10504C20.4872 7.1299 20.4999 7.16837 20.5 7.21587L12 3.50472ZM12 3.50472L3.54816 7.07982C3.54629 7.0811 3.53793 7.08743 3.52752 7.10505C3.51282 7.12992 3.50005 7.1684 3.5 7.21594C3.49995 7.26344 3.51264 7.302 3.52733 7.32698C3.53784 7.34486 3.54632 7.35123 3.54815 7.35248L12 10.9547L20.4518 7.35248C20.4537 7.35123 20.4621 7.34486 20.4727 7.32699C20.4873 7.30202 20.5 7.26346 20.5 7.21594L12 3.50472ZM19.2334 15.0589V15.3213L19.4495 15.4704C19.6167 15.5858 19.7652 15.8338 19.7652 16.1599C19.7652 16.4858 19.6167 16.7339 19.4495 16.8493L19.2334 16.9983V17.2608V20.3678C19.2334 20.4178 19.2199 20.4552 19.2061 20.4787C19.1922 20.4552 19.1787 20.4178 19.1787 20.3678V17.2608V16.9983L18.9627 16.8492C18.7955 16.7338 18.647 16.4858 18.647 16.1598C18.647 15.8338 18.7955 15.5858 18.9627 15.4704L19.1787 15.3213V15.0589V10.3241L19.2334 10.3008V15.0589ZM11.274 13.0744L11.2741 13.0744C11.5051 13.1728 11.7499 13.224 12 13.224C12.2501 13.224 12.4949 13.1728 12.7259 13.0744L12.726 13.0744L16.793 11.341V13.3664C16.793 13.7041 16.4986 14.1649 15.3513 14.6113C14.399 14.9818 13.2072 15.1916 12 15.1916C10.7928 15.1916 9.60093 14.9818 8.64871 14.6113C7.50144 14.1649 7.20702 13.7041 7.20702 13.3664V11.3409L11.274 13.0744ZM20.4532 7.35189L20.4531 7.35194C20.4532 7.35192 20.4532 7.3519 20.4533 7.35188L20.4532 7.35189ZM12.0195 10.9631L12.0194 10.963L12.0195 10.9631Z" fill="#FFA347" stroke="#FFA347"/>
</svg>
