<svg width="32" height="32" viewBox="0 0 32 32" fill="none" xmlns="http://www.w3.org/2000/svg">
  <g clip-path="url(#clip0_2146_42448)">
    <g filter="url(#filter0_d_2146_42448)">
      <path
        d="M26.6665 6.66667H22.4398L19.9998 4H11.9998L9.55984 6.66667H5.33317C3.8665 6.66667 2.6665 7.86667 2.6665 9.33333V25.3333C2.6665 26.8 3.8665 28 5.33317 28H26.6665C28.1332 28 29.3332 26.8 29.3332 25.3333V9.33333C29.3332 7.86667 28.1332 6.66667 26.6665 6.66667ZM15.9998 24C12.3198 24 9.33317 21.0133 9.33317 17.3333H6.6665L9.99984 14L13.3332 17.3333H10.6665C10.6665 20.28 13.0532 22.6667 15.9998 22.6667C16.7732 22.6667 17.5065 22.4933 18.1598 22.2L19.1465 23.1867C18.1998 23.68 17.1465 24 15.9998 24ZM21.9998 20.6667L18.6665 17.3333H21.3332C21.3332 14.3867 18.9465 12 15.9998 12C15.2265 12 14.4932 12.1733 13.8398 12.4667L12.8532 11.4933C13.7998 10.9867 14.8532 10.6667 15.9998 10.6667C19.6798 10.6667 22.6665 13.6533 22.6665 17.3333H25.3332L21.9998 20.6667Z"
        fill="white" />
    </g>
  </g>
  <defs>
    <filter id="filter0_d_2146_42448" x="-2.3335" y="1" width="36.6665" height="34" filterUnits="userSpaceOnUse"
      color-interpolation-filters="sRGB">
      <feFlood flood-opacity="0" result="BackgroundImageFix" />
      <feColorMatrix in="SourceAlpha" type="matrix" values="0 0 0 0 0 0 0 0 0 0 0 0 0 0 0 0 0 0 127 0"
        result="hardAlpha" />
      <feOffset dy="2" />
      <feGaussianBlur stdDeviation="2.5" />
      <feComposite in2="hardAlpha" operator="out" />
      <feColorMatrix type="matrix" values="0 0 0 0 0.0862745 0 0 0 0 0.109804 0 0 0 0 0.141176 0 0 0 0.25 0" />
      <feBlend mode="normal" in2="BackgroundImageFix" result="effect1_dropShadow_2146_42448" />
      <feBlend mode="normal" in="SourceGraphic" in2="effect1_dropShadow_2146_42448" result="shape" />
    </filter>
    <clipPath id="clip0_2146_42448">
      <rect width="32" height="32" fill="white" />
    </clipPath>
  </defs>
</svg>