<svg width="16" height="16" viewBox="0 0 16 16" fill="none" xmlns="http://www.w3.org/2000/svg">
<path d="M12.6667 9.33346C12.1797 9.33527 11.6992 9.44439 11.2593 9.65307C10.8193 9.86174 10.4308 10.1648 10.1213 10.5408L6.52133 8.91547C6.61291 8.61879 6.66184 8.31061 6.66667 8.00015C6.66235 7.69307 6.615 7.38811 6.526 7.09417L10.122 5.46087C10.6266 6.05466 11.3242 6.45172 12.0924 6.58232C12.8606 6.71292 13.6502 6.56872 14.3227 6.17502C14.9951 5.78133 15.5074 5.16332 15.7695 4.42952C16.0316 3.69571 16.0268 2.89303 15.7559 2.16242C15.485 1.4318 14.9654 0.81997 14.2883 0.434354C13.6112 0.0487385 12.8199 -0.0860069 12.0533 0.0537794C11.2867 0.193566 10.5939 0.598947 10.0965 1.19874C9.59907 1.79853 9.32887 2.55438 9.33333 3.33358C9.33333 3.42824 9.35333 3.51757 9.36133 3.61024L5.4 5.4082C4.816 4.93232 4.08667 4.6707 3.33333 4.66688C2.44928 4.66688 1.60143 5.01807 0.976311 5.64318C0.351189 6.26829 0 7.11612 0 8.00015C0 8.88419 0.351189 9.73202 0.976311 10.3571C1.60143 10.9822 2.44928 11.3334 3.33333 11.3334C4.08341 11.3304 4.81004 11.0717 5.39333 10.6001L9.36133 12.3914C9.35333 12.4841 9.33333 12.5727 9.33333 12.6667C9.33333 13.326 9.52883 13.9704 9.8951 14.5186C10.2614 15.0667 10.782 15.494 11.3911 15.7463C12.0001 15.9986 12.6704 16.0646 13.317 15.936C13.9636 15.8073 14.5575 15.4899 15.0237 15.0237C15.4899 14.5575 15.8073 13.9636 15.936 13.317C16.0646 12.6704 15.9986 12.0002 15.7463 11.3911C15.494 10.7821 15.0667 10.2615 14.5186 9.89522C13.9704 9.52895 13.3259 9.33346 12.6667 9.33346ZM12.6667 2.00027C12.9304 2.00027 13.1882 2.07847 13.4074 2.22497C13.6267 2.37148 13.7976 2.57971 13.8985 2.82334C13.9994 3.06697 14.0258 3.33506 13.9744 3.59369C13.9229 3.85233 13.7959 4.0899 13.6095 4.27637C13.423 4.46283 13.1854 4.58982 12.9268 4.64127C12.6681 4.69271 12.4001 4.66631 12.1564 4.56539C11.9128 4.46448 11.7045 4.29358 11.558 4.07432C11.4115 3.85506 11.3333 3.59728 11.3333 3.33358C11.3333 2.97996 11.4738 2.64083 11.7239 2.39079C11.9739 2.14074 12.313 2.00027 12.6667 2.00027ZM3.33333 9.33346C3.06962 9.33346 2.81184 9.25526 2.59257 9.10876C2.37331 8.96225 2.20241 8.75402 2.10149 8.51039C2.00058 8.26676 1.97417 7.99867 2.02562 7.74004C2.07707 7.4814 2.20405 7.24383 2.39052 7.05736C2.57699 6.8709 2.81457 6.74391 3.07321 6.69247C3.33185 6.64102 3.59994 6.66742 3.84358 6.76834C4.08721 6.86925 4.29545 7.04015 4.44196 7.25941C4.58847 7.47867 4.66667 7.73645 4.66667 8.00015C4.66667 8.35377 4.52619 8.6929 4.27614 8.94294C4.02609 9.19299 3.68696 9.33346 3.33333 9.33346ZM12.6667 14C12.403 14 12.1452 13.9218 11.9259 13.7753C11.7066 13.6288 11.5357 13.4206 11.4348 13.177C11.3339 12.9333 11.3075 12.6653 11.359 12.4066C11.4104 12.148 11.5374 11.9104 11.7239 11.7239C11.9103 11.5375 12.1479 11.4105 12.4065 11.359C12.6652 11.3076 12.9333 11.334 13.1769 11.4349C13.4205 11.5358 13.6288 11.7067 13.7753 11.926C13.9218 12.1452 14 12.403 14 12.6667C14 13.0203 13.8595 13.3595 13.6095 13.6095C13.3594 13.8596 13.0203 14 12.6667 14Z" fill="#121118"/>
</svg>
