<svg width="20" height="20" viewBox="0 0 20 20" fill="none" xmlns="http://www.w3.org/2000/svg">
  <path
    d="M10.0013 1.6665C5.40616 1.6665 1.66797 5.4047 1.66797 9.99984V16.2498C1.66797 17.3984 2.60269 18.3332 3.7513 18.3332H6.52908C6.91311 18.3332 7.22352 18.0221 7.22352 17.6387V12.0832C7.22352 11.6998 6.91311 11.3887 6.52908 11.3887H3.05686V9.99984C3.05686 6.17067 6.17214 3.05539 10.0013 3.05539C13.8305 3.05539 16.9457 6.17067 16.9457 9.99984V11.3887H13.4735C13.0895 11.3887 12.7791 11.6998 12.7791 12.0832V17.6387C12.7791 18.0221 13.0895 18.3332 13.4735 18.3332H16.2513C17.3999 18.3332 18.3346 17.3984 18.3346 16.2498V9.99984C18.3346 5.4047 14.5964 1.6665 10.0013 1.6665Z"
    fill="currentColor" />
</svg>