<svg width="23" height="23" viewBox="0 0 23 23" fill="none" xmlns="http://www.w3.org/2000/svg">
<path d="M11.6001 2.26672C9.7541 2.26672 7.94959 2.81411 6.41474 3.83967C4.87988 4.86523 3.6836 6.3229 2.97719 8.02834C2.27077 9.73379 2.08594 11.6104 2.44607 13.4209C2.80619 15.2314 3.69511 16.8944 5.0004 18.1997C6.30569 19.505 7.96873 20.3939 9.77922 20.754C11.5897 21.1142 13.4663 20.9293 15.1718 20.2229C16.8772 19.5165 18.3349 18.3202 19.3604 16.7854C20.386 15.2505 20.9334 13.446 20.9334 11.6001C20.9262 9.12691 19.9406 6.75711 18.1918 5.00833C16.443 3.25954 14.0732 2.27391 11.6001 2.26672ZM16.2667 12.3778H6.93339V10.8223H16.2667V12.3778Z" fill="#FC3535"/>
<path d="M16.2667 12.3778H6.93339V10.8223H16.2667V12.3778Z" fill="white"/>
</svg>
