<svg width="20" height="20" viewBox="0 0 20 20" fill="none" xmlns="http://www.w3.org/2000/svg">
<path d="M9.85377 1.6665C6.66536 1.6665 3.33203 4.13027 3.33203 8.18824C3.33203 12.0288 9.12913 17.8984 9.34652 18.1158C9.49145 18.2607 9.63638 18.3332 9.85377 18.3332C10.0712 18.3332 10.2161 18.2607 10.361 18.1158C10.5784 17.8984 16.3755 12.0288 16.3755 8.18824C16.3755 4.13027 13.0422 1.6665 9.85377 1.6665ZM9.85377 10.3622C8.62189 10.3622 7.67986 9.42013 7.67986 8.18824C7.67986 6.95636 8.62189 6.01433 9.85377 6.01433C11.0857 6.01433 12.0277 6.95636 12.0277 8.18824C12.0277 9.42013 11.0857 10.3622 9.85377 10.3622Z" fill="currentColor" fill-opacity="0.64" style="mix-blend-mode:multiply"/>
</svg>
