<svg width="16" height="16" viewBox="0 0 16 16" fill="none" xmlns="http://www.w3.org/2000/svg">
  <path fill-rule="evenodd" clip-rule="evenodd"
    d="M3.63636 3.09091C3.33512 3.09091 3.09091 3.33512 3.09091 3.63636V12.3636C3.09091 12.6649 3.33512 12.9091 3.63636 12.9091H12.3636C12.6649 12.9091 12.9091 12.6649 12.9091 12.3636V3.63636C12.9091 3.33512 12.6649 3.09091 12.3636 3.09091H3.63636ZM2 3.63636C2 2.73262 2.73262 2 3.63636 2H12.3636C13.2674 2 14 2.73262 14 3.63636V12.3636C14 13.2674 13.2674 14 12.3636 14H3.63636C2.73262 14 2 13.2674 2 12.3636V3.63636Z"
    fill="currentColor" />
  <path
    d="M11.7893 10.3324L9.88018 6.5142C9.85948 6.47283 9.82859 6.4374 9.79042 6.41126C9.75225 6.38511 9.70806 6.36911 9.662 6.36475C9.61568 6.36145 9.56926 6.36969 9.5269 6.38872C9.48454 6.40776 9.44756 6.43701 9.41927 6.47384L7.17146 9.47056L6.02764 8.0982C6.00004 8.06509 5.96498 8.03899 5.92535 8.02204C5.88571 8.0051 5.84262 7.99779 5.79962 8.00072C5.75661 8.00365 5.71491 8.01673 5.67794 8.03889C5.64096 8.06104 5.60977 8.09165 5.58691 8.1282L4.22327 10.31C4.19747 10.3513 4.18319 10.3987 4.18191 10.4474C4.18063 10.4961 4.19241 10.5442 4.21601 10.5868C4.23961 10.6294 4.27417 10.6648 4.31612 10.6896C4.35807 10.7143 4.40586 10.7273 4.45455 10.7273H11.5455C11.592 10.7273 11.6377 10.7154 11.6783 10.6927C11.7189 10.6701 11.7531 10.6374 11.7775 10.5978C11.8019 10.5583 11.8158 10.5131 11.8179 10.4666C11.82 10.4202 11.8101 10.374 11.7893 10.3324Z"
    fill="currentColor" />
  <path
    d="M6.63636 6.36364C7.08823 6.36364 7.45455 5.99732 7.45455 5.54545C7.45455 5.09359 7.08823 4.72727 6.63636 4.72727C6.18449 4.72727 5.81818 5.09359 5.81818 5.54545C5.81818 5.99732 6.18449 6.36364 6.63636 6.36364Z"
    fill="currentColor" />
</svg>