<svg width="20" height="20" viewBox="0 0 20 20" fill="none" xmlns="http://www.w3.org/2000/svg">
  <path
    d="M9.17302 6.44761L9.16719 17.6102C9.16719 17.802 9.25498 17.9859 9.41126 18.1215C9.56754 18.2571 9.7795 18.3333 10.0005 18.3333C10.2215 18.3333 10.4335 18.2571 10.5898 18.1215C10.7461 17.9859 10.8339 17.802 10.8339 17.6102L10.8397 6.4599L13.2664 8.56618C13.4226 8.70173 13.6345 8.77788 13.8555 8.77788C14.0765 8.77788 14.2884 8.70173 14.4447 8.56618C14.6009 8.43058 14.6887 8.2467 14.6887 8.05497C14.6887 7.86324 14.6009 7.67936 14.4447 7.54377L11.7689 5.21912C11.5367 5.01755 11.261 4.85764 10.9576 4.74855C10.6542 4.63945 10.329 4.58329 10.0005 4.58329C9.67208 4.58329 9.34686 4.63945 9.04344 4.74855C8.74002 4.85764 8.46435 5.01755 8.23219 5.21912L5.55636 7.5416C5.40013 7.67719 5.31237 7.86107 5.31237 8.0528C5.31237 8.24453 5.40013 8.42841 5.55636 8.56401C5.71263 8.69956 5.92455 8.77571 6.14552 8.77571C6.36649 8.77571 6.57841 8.69956 6.73469 8.56401L9.17302 6.44761Z"
    fill="currentColor" fill-opacity="0.8" style="mix-blend-mode:multiply" />
  <path
    d="M3.00638 3.1159C2.60617 3.1159 2.28174 2.79147 2.28174 2.39126C2.28174 1.99106 2.60617 1.66663 3.00638 1.66663H17.4991C17.8993 1.66663 18.2238 1.99106 18.2238 2.39126C18.2238 2.79147 17.8993 3.1159 17.4991 3.1159H3.00638Z"
    fill="currentColor" fill-opacity="0.8" style="mix-blend-mode:multiply" />
</svg>