<svg width="48" height="48" viewBox="0 0 48 48" fill="none" xmlns="http://www.w3.org/2000/svg">
<path d="M42.0795 9.0591C36.3466 1.1871 26.5314 0.695335 25.9246 0.667094C18.1835 0.306827 12.6575 4.26696 10.665 5.74129C9.2186 6.81152 7.21105 8.32288 5.33717 10.9801C4.48211 12.1926 1.50598 16.6909 1.45858 22.7435C1.38491 32.1528 8.44456 38.2765 9.72626 39.3434C16.6592 45.1147 28.7847 47.9884 37.8798 41.4052C48.5616 33.6736 48.4531 17.8108 42.0795 9.0591Z" fill="#F4F7FA"/>
<path d="M30.0278 40.8102C29.7592 40.7159 29.2579 40.2732 29.1747 40.1037C28.6206 38.976 27.4466 36.9322 27.7963 35.6502C27.8561 35.4313 28.887 35.4349 29.0683 35.2607C29.7262 35.103 29.9642 35.0892 30.5162 34.631C32.1458 33.2782 29.8535 29.6033 33.4949 29.2544C36.1622 28.9989 38.0931 30.3115 38.6448 26.3583C39.1965 22.4051 43.7719 15.9584 47.3004 19.5456C49.3253 21.6044 46.2381 24.411 46.9343 27.1116C47.5958 29.6778 46.2117 31.3816 43.4589 32.2539C40.7061 33.1262 41.7941 34.4761 42.0438 36.8345C42.3439 39.6675 38.18 39.2754 36.273 38.9298C34.7373 38.6515 30.6399 38.9823 30.0278 40.8102Z" fill="url(#paint0_linear_3096_46342)"/>
<mask id="mask0_3096_46342" style="mask-type:luminance" maskUnits="userSpaceOnUse" x="27" y="18" width="21" height="24">
<path d="M27.2402 35.1823C27.4467 37.1334 27.5766 39.1274 27.7739 41.0934C28.8436 41.4126 30.1097 41.762 30.6333 40.4707C31.3613 38.6754 34.7426 38.6408 36.2755 38.9271C38.1727 39.2813 42.3446 39.6647 42.0427 36.8341C41.7913 34.4776 40.7051 33.1256 43.4576 32.2538C46.2102 31.382 47.5938 29.6779 46.9328 27.1115C46.2372 24.4107 49.3234 21.6056 47.2989 19.5456C43.7712 15.9562 39.1931 22.409 38.6442 26.3569C38.0954 30.3049 36.1519 29.0139 33.4959 29.2505C29.8699 29.5736 32.1053 33.3427 30.5321 34.5977C29.2988 35.5816 28.5706 35.1997 27.2402 35.1823Z" fill="white"/>
</mask>
<g mask="url(#mask0_3096_46342)">
<path d="M28.4946 37.9948L28.4805 37.9381C33.0234 36.7978 37.0955 34.2921 40.2566 30.6921C43.2644 27.2666 45.4076 22.9229 46.4545 18.1304L46.5113 18.1429C45.4624 22.945 43.3147 27.2978 40.3003 30.7307C37.1314 34.3397 33.049 36.8516 28.4946 37.9948Z" fill="#FCFDFE"/>
<path d="M42.3025 37.9964C40.0971 36.7139 36.1373 35.8522 33.4766 36.0756L33.4717 36.0174C36.1432 35.7929 40.1175 36.6583 42.3317 37.9458L42.3025 37.9964Z" fill="#FCFDFE"/>
<path d="M30.2636 37.5289L30.2344 37.4784C31.435 36.7791 32.2372 35.4979 32.6185 33.6702C32.898 32.3302 32.9491 30.7331 32.7702 28.9232L32.8282 28.9175C33.0076 30.7333 32.9563 32.3364 32.6755 33.6822C32.2906 35.5267 31.4792 36.821 30.2636 37.5289Z" fill="#FCFDFE"/>
<path d="M40.7095 30.2265L40.6777 30.1775C42.8724 28.7433 45.6259 28.8189 47.5494 29.1349L47.54 29.1926C45.6269 28.8782 42.8887 28.8024 40.7095 30.2265Z" fill="#FCFDFE"/>
<path d="M44.023 25.2133L43.967 25.1971C44.3179 23.9758 44.6489 21.4143 42.9229 17.9804L42.9748 17.9541C43.558 19.1142 43.9705 20.3416 44.1677 21.5035C44.3948 22.8408 44.3461 24.089 44.023 25.2133Z" fill="#FCFDFE"/>
</g>
<mask id="mask1_3096_46342" style="mask-type:luminance" maskUnits="userSpaceOnUse" x="33" y="7" width="14" height="32">
<path d="M37.4089 38.7884C35.9778 38.5773 34.5481 38.3331 33.121 38.0561C33.0978 38.0772 32.6287 34.9564 34.1063 33.3198C37.0283 30.1493 35.0601 27.3038 34.4987 25.6177C33.6002 23.2401 34.0607 20.3503 36.6711 20.8915C39.2143 21.3577 39.6 16.1054 39.1611 12.0591C38.7865 10.0897 40.6387 7.70026 42.4871 7.15418C44.374 6.54917 46.257 7.78755 46.8341 11.713C47.7077 16.2581 44.4013 18.999 43.177 21.2777C41.9723 23.5147 44.7748 25.3246 42.5191 27.3066C40.6217 29.0678 38.2305 30.3338 39.1052 32.546C40.004 34.7331 39.7888 36.5213 37.4089 38.7884Z" fill="white"/>
</mask>
<g mask="url(#mask1_3096_46342)">
<path d="M37.4089 38.7884C35.9778 38.5773 34.5481 38.3331 33.121 38.0561C33.0978 38.0772 32.6287 34.9564 34.1063 33.3198C37.0283 30.1493 35.0601 27.3038 34.4987 25.6177C33.6092 23.2418 34.0771 20.6691 36.4875 20.631C39.161 20.5363 39.6457 16.0972 39.1611 12.0591C38.7865 10.0897 40.6387 7.70026 42.4871 7.15418C44.374 6.54917 46.257 7.78755 46.8341 11.713C47.7077 16.2581 44.4013 18.999 43.177 21.2777C41.9723 23.5147 44.7748 25.3246 42.5191 27.3066C40.6217 29.0678 38.2305 30.3338 39.1052 32.546C40.004 34.7331 39.7888 36.5213 37.4089 38.7884Z" fill="url(#paint1_linear_3096_46342)"/>
</g>
<mask id="mask2_3096_46342" style="mask-type:luminance" maskUnits="userSpaceOnUse" x="33" y="7" width="14" height="32">
<path d="M37.4089 38.7884C35.9778 38.5773 34.5481 38.3331 33.121 38.0561C33.0978 38.0772 32.6287 34.9564 34.1063 33.3198C37.0283 30.1493 35.0601 27.3038 34.4987 25.6177C33.6002 23.2401 34.0607 20.3503 36.6711 20.8915C39.2143 21.3577 39.6 16.1054 39.1611 12.0591C38.7865 10.0897 40.6387 7.70026 42.4871 7.15418C44.374 6.54917 46.257 7.78755 46.8341 11.713C47.7077 16.2581 44.4013 18.999 43.177 21.2777C41.9723 23.5147 44.7748 25.3246 42.5191 27.3066C40.6217 29.0678 38.2305 30.3338 39.1052 32.546C40.004 34.7331 39.7888 36.5213 37.4089 38.7884Z" fill="white"/>
</mask>
<g mask="url(#mask2_3096_46342)">
<path d="M35.4937 38.974L35.4355 38.973C35.4352 38.9453 36.803 32.3794 39.161 25.9902C39.4867 24.9555 39.8405 23.9119 40.1827 22.9028C41.0989 20.2006 42.0462 17.4064 42.4961 14.6243C42.999 11.5146 42.8197 8.71373 41.9482 6.06177L42.0035 6.04346C42.8781 8.70455 43.058 11.5144 42.5536 14.6336C42.1029 17.4206 41.1548 20.2171 40.2378 22.9216C39.8957 23.9305 39.542 24.9737 39.2161 26.0091C36.8397 32.4483 35.4973 38.9357 35.4937 38.974Z" fill="#FCFDFE"/>
<path d="M41.8939 17.681L41.8506 17.6419C43.4459 15.8637 45.3709 13.3366 46.405 11.9789C47.2377 10.8858 47.242 10.8875 47.2765 10.8928L47.272 10.9216L47.2839 10.9477C47.2417 10.9768 46.8929 11.4347 46.4513 12.0144C45.4167 13.3727 43.4908 15.901 41.8939 17.681Z" fill="#FCFDFE"/>
<path d="M42.3769 15.2418C42.0468 13.2037 41.2102 11.8632 40.5666 11.0974C39.8558 10.2518 39.2008 9.88308 39.1338 9.87492C39.1341 9.87492 39.1403 9.87567 39.1477 9.87076L39.1152 9.82219C39.1299 9.81238 39.147 9.81474 39.1857 9.83167C39.3624 9.90871 40.0226 10.323 40.7151 11.1864C41.5873 12.2739 42.1818 13.673 42.4343 15.2324L42.3769 15.2418Z" fill="#FCFDFE"/>
<path d="M37.8161 30.1702L37.7583 30.1633C37.9833 28.2671 37.5429 26.2275 36.4491 24.1011C35.8787 22.9921 35.1513 21.9056 34.287 20.8719C34.2243 20.7969 34.2023 20.7704 34.1953 20.7583L34.2457 20.729C34.2508 20.7377 34.2865 20.7803 34.3316 20.8343C35.1987 21.8714 35.9285 22.9615 36.5009 24.0743C37.6001 26.2113 38.0426 28.2623 37.8161 30.1702Z" fill="#FCFDFE"/>
<path d="M38.4606 28.1736L38.4111 28.1428C40.1274 25.3613 43.7446 25.1689 43.7758 25.178L43.7975 25.2054L43.7776 25.2341L43.7684 25.2068L43.7659 25.2353C43.7658 25.2353 43.7656 25.2353 43.7654 25.2353C43.7082 25.2353 40.1493 25.4368 38.4606 28.1736Z" fill="#FCFDFE"/>
<path d="M35.733 37.9035L35.6747 37.9013C35.705 37.0758 35.4108 35.6685 33.8375 33.6525C33.7522 33.5432 33.7522 33.5432 33.7545 33.5269L33.8122 33.5351L33.7834 33.531L33.8101 33.52C33.8145 33.5283 33.8465 33.5692 33.8834 33.6165C35.4675 35.6463 35.7636 37.0682 35.733 37.9035Z" fill="#FCFDFE"/>
<path d="M36.096 36.3481L36.04 36.3319C36.2215 35.7039 36.9355 34.4735 39.6789 33.2887C39.7168 33.2723 39.7412 33.2618 39.7499 33.2573L39.7765 33.3093C39.7673 33.314 39.7418 33.3251 39.702 33.3423C36.9805 34.5176 36.2746 35.73 36.096 36.3481Z" fill="#FCFDFE"/>
</g>
<path d="M43.9394 24.9713C43.9394 34.6272 36.1396 42.8125 26.1884 43.2688C15.8533 43.7428 7.17773 35.7575 7.17773 25.4164C7.17773 15.0753 15.8533 6.87989 26.1884 7.10359C36.1396 7.31895 43.9394 15.3154 43.9394 24.9713Z" fill="url(#paint2_linear_3096_46342)"/>
<path d="M45.0937 24.9713C45.0937 34.6272 37.2939 42.8125 27.3427 43.2688C17.0076 43.7428 8.33203 35.7575 8.33203 25.4164C8.33203 15.0753 17.0076 6.87989 27.3427 7.10359C37.2939 7.31895 45.0937 15.3154 45.0937 24.9713Z" fill="url(#paint3_linear_3096_46342)"/>
<path d="M43.9964 24.984C43.9964 34.082 36.6391 41.78 27.2709 42.1907C17.5633 42.6164 9.43164 35.1064 9.43164 25.4024C9.43164 15.6985 17.5633 7.99162 27.2709 8.18217C36.639 8.36609 43.9964 15.8859 43.9964 24.984Z" fill="url(#paint4_linear_3096_46342)"/>
<path d="M23.4937 25.8561C24.2471 24.8751 24.6239 23.408 24.6239 21.4544C24.6239 19.586 24.2408 18.1484 23.4746 17.142C22.7083 16.1355 21.6098 15.6323 20.1791 15.6323C17.2583 15.6323 15.7979 17.5731 15.7979 21.4544C15.7979 23.3571 16.1788 24.8114 16.9408 25.8178C17.7028 26.8243 18.7822 27.3275 20.1791 27.3275C21.6352 27.3275 22.74 26.837 23.4937 25.8561ZM20.2045 24.6903C19.7811 24.6903 19.4743 24.425 19.2839 23.8941C19.0933 23.3634 18.9981 22.5586 18.9981 21.4799C18.9981 20.4014 19.0933 19.6008 19.2839 19.0785C19.4743 18.5561 19.7811 18.295 20.2045 18.295C21.0173 18.295 21.4237 19.3568 21.4237 21.4799C21.4237 23.6202 21.0173 24.6903 20.2045 24.6903Z" fill="white"/>
<path d="M36.4785 24.5819C35.7122 23.5755 34.6137 23.0723 33.1831 23.0723C30.2622 23.0723 28.8018 25.0131 28.8018 28.8944C28.8018 30.7884 29.1828 32.2386 29.9447 33.245C30.7067 34.2515 31.7862 34.7547 33.1831 34.7547C34.6392 34.7547 35.744 34.2642 36.4976 33.2832C37.251 32.3023 37.6278 30.8394 37.6278 28.8944C37.6279 27.026 37.2447 25.5884 36.4785 24.5819ZM33.2085 32.1303C32.785 32.1303 32.4782 31.865 32.2877 31.334C32.0973 30.8034 32.002 29.9986 32.002 28.9198C32.002 27.8414 32.0973 27.0407 32.2877 26.5184C32.4782 25.9961 32.785 25.7349 33.2085 25.7349C34.0212 25.7349 34.4276 26.7967 34.4276 28.9199C34.4276 31.0601 34.0212 32.1303 33.2085 32.1303Z" fill="white"/>
<path d="M33.0239 16.0938C32.9513 15.9701 32.8189 15.8887 32.6758 15.8887H30.7928C30.4973 15.8887 30.225 16.055 30.0816 16.3143L20.3476 33.9208C20.2782 34.0463 20.2801 34.2035 20.3527 34.3272C20.4253 34.4508 20.5577 34.531 20.7008 34.531H22.8248C22.9716 34.531 23.1068 34.4483 23.178 34.3195L33.0291 16.5002C33.0984 16.3746 33.0965 16.2175 33.0239 16.0938Z" fill="white"/>
<g opacity="0.3">
<path opacity="0.3" d="M19.3337 17.4233C18.7225 15.425 18.7506 12.3899 21.7308 7.90576C14.0427 10.1276 8.33301 17.1215 8.33301 25.4878C8.33301 35.8289 17.0086 43.8142 27.3437 43.3402C31.1545 43.1655 34.6435 41.8605 37.4946 39.79C37.4062 37.0321 36.8081 34.0133 35.1262 31.2288C30.5015 23.5724 21.2513 23.6929 19.3337 17.4233Z" fill="url(#paint5_linear_3096_46342)"/>
</g>
<mask id="mask3_3096_46342" style="mask-type:luminance" maskUnits="userSpaceOnUse" x="0" y="0" width="41" height="30">
<path d="M24.2392 0C6.92509 0 4.96585 14.8371 4.96585 14.8371H0V16.1854L9.76184 29.6536L21.6899 14.019H16.9918L23.6401 6.20084C23.6401 6.20084 31.2807 7.57046 33.9178 8.45896C37.3259 9.71935 40.006 12.5798 40.006 12.5798C40.006 12.5798 37.3444 0 24.2392 0Z" fill="white"/>
</mask>
<g mask="url(#mask3_3096_46342)">
<path d="M39.6398 15.1993V15.2556C39.1233 14.5818 38.1978 13.6457 37.6437 13.1036C37.6333 13.0796 37.6159 13.0556 37.6056 13.0317C37.2964 12.3232 36.8793 11.5563 36.3347 10.7908C35.7938 10.0231 35.1062 9.26749 34.3048 8.57176C34.2089 8.48153 34.098 8.40188 33.9954 8.31658C33.943 8.27499 33.8901 8.23199 33.8369 8.1904L33.7592 8.12696C33.7319 8.10581 33.7038 8.08678 33.6764 8.06634C33.5665 7.98668 33.4565 7.90632 33.3458 7.82526L33.2631 7.76465L33.176 7.70825C33.1184 7.67018 33.0609 7.63211 33.0033 7.59476C32.776 7.43756 32.531 7.30152 32.2919 7.15772C32.1702 7.08795 32.0425 7.0238 31.9185 6.95754C31.8572 6.92441 31.7945 6.89057 31.7318 6.85815C31.6676 6.82785 31.6026 6.79683 31.5392 6.76651C30.5149 6.27237 29.3976 5.91499 28.2515 5.71833C28.1084 5.69577 27.9652 5.6732 27.8205 5.65064C27.6767 5.63162 27.5305 5.61963 27.3873 5.60341L27.1704 5.58016L26.9527 5.56888L26.735 5.55619C26.6627 5.55266 26.5911 5.54562 26.518 5.54703C26.3734 5.54632 26.2288 5.54491 26.0834 5.54422C26.0479 5.54422 26.0096 5.54211 25.9764 5.54422L25.8797 5.54916L25.6863 5.55903L25.4945 5.56818C25.4775 5.56889 25.4657 5.56889 25.4435 5.5703L25.2465 5.5844L24.9831 5.60202L24.786 5.61611L24.7528 5.61822L24.741 5.61894C24.741 5.61965 24.6724 5.61894 24.7875 5.62105L24.3617 5.68097C24.2916 5.69154 24.2208 5.69788 24.1506 5.71269L23.9418 5.75288L23.733 5.79235L23.6289 5.81208C23.5942 5.81843 23.5603 5.8283 23.5263 5.83605C23.3898 5.86918 23.2533 5.90161 23.1175 5.93544C23.0489 5.94954 22.9825 5.97208 22.916 5.99111L22.7168 6.05103L22.5175 6.10812L22.3227 6.1765C22.1928 6.22302 22.0629 6.26391 21.9367 6.31324C21.8113 6.36399 21.6851 6.41475 21.5604 6.46619C20.5678 6.88773 19.6756 7.43262 18.9163 8.05504L18.7731 8.16924L18.6373 8.29119C18.5473 8.37154 18.4543 8.44839 18.3686 8.53085C18.365 8.53367 18.362 8.5379 18.3583 8.54072C18.1915 8.70566 18.0225 8.86076 17.8728 9.03135C17.8329 9.07293 17.7938 9.11523 17.7554 9.15753L17.6964 9.21956L17.6418 9.28582C17.5687 9.37183 17.4964 9.45852 17.4241 9.54382C17.4063 9.56496 17.3872 9.58541 17.3694 9.60726L17.32 9.67352C17.286 9.71793 17.2529 9.76234 17.2196 9.80534C17.1547 9.89416 17.0839 9.97593 17.0256 10.0676C16.5326 10.7725 16.157 11.4774 15.9016 12.1498C15.6441 12.8209 15.4913 13.4504 15.4035 14.0065C15.3939 14.0763 15.3843 14.1447 15.3747 14.2124C15.3666 14.2793 15.3526 14.3449 15.3496 14.4104C15.3386 14.5416 15.3275 14.6663 15.3164 14.7854C15.309 14.9067 15.309 15.023 15.3039 15.1323C15.3017 15.1873 15.298 15.2408 15.2972 15.2923C15.2994 15.3452 15.3009 15.3966 15.3017 15.446C15.3031 15.5454 15.3046 15.6391 15.3061 15.7265C15.3053 15.7512 15.3098 15.7639 15.3112 15.7808C15.3134 15.797 15.3157 15.8132 15.3179 15.8287C15.3208 15.8597 15.3253 15.8555 15.3282 15.8837C15.3304 15.9077 15.3334 15.9189 15.3356 15.9189H20.1937L17.2418 19.0452L10.3794 26.214L0.564453 15.9189H5.72508C5.73247 15.9189 5.74057 15.8344 5.74868 15.7681C5.7686 15.625 5.79001 15.4854 5.81361 15.3155C5.82692 15.2309 5.83869 15.152 5.85275 15.0611C5.86009 15.0167 5.86676 14.9744 5.87415 14.9278C5.88078 14.882 5.8874 14.8327 5.897 14.7925C5.93319 14.6219 5.9708 14.4422 6.01064 14.2504C6.03204 14.1553 6.05274 14.058 6.07485 13.9579C6.09849 13.8578 6.12652 13.7563 6.15454 13.652C6.21062 13.444 6.26524 13.2255 6.33313 13.0006C6.40546 12.7772 6.48072 12.5453 6.5582 12.3042C6.59585 12.183 6.64529 12.0638 6.69105 11.9405C6.73755 11.8192 6.7855 11.6945 6.83422 11.5676C7.23494 10.5631 7.78175 9.46909 8.51309 8.36944C9.24147 7.2691 10.1691 6.17298 11.2701 5.15652C11.4037 5.02611 11.5513 4.90699 11.6937 4.78222C11.7661 4.72089 11.8376 4.65886 11.91 4.59683L12.0199 4.50378L12.1321 4.41496C12.2834 4.29724 12.4361 4.17811 12.5882 4.05899L12.7033 3.97017L12.8228 3.88559C12.9033 3.82848 12.983 3.7721 13.0634 3.71572C13.3785 3.48521 13.7172 3.27727 14.0537 3.06298C14.2235 2.95865 14.3991 2.86137 14.574 2.76058C14.6603 2.71123 14.7482 2.66188 14.836 2.61113C14.926 2.56461 15.0161 2.51809 15.1061 2.47156C16.5422 1.72014 18.1288 1.14987 19.776 0.808708C19.9819 0.76993 20.1892 0.730458 20.3959 0.691697C20.6025 0.655032 20.8128 0.629665 21.0209 0.599342L21.3338 0.557063L21.6489 0.527451L21.9633 0.498549C22.0681 0.489383 22.1721 0.478103 22.2777 0.474569C22.4873 0.465419 22.6976 0.441439 22.9079 0.432289C22.9595 0.430175 23.0127 0.411133 23.0651 0.411133H23.223L23.5367 0.428044L23.8503 0.437921C23.9551 0.437921 24.0599 0.451315 24.1639 0.456253L24.7875 0.49219C24.9292 0.494304 24.8362 0.495725 24.8724 0.496418L24.8886 0.498532L24.9218 0.502067L24.9868 0.510523L25.1181 0.52603L25.3794 0.557046L25.5107 0.572554L25.5757 0.5803L25.6561 0.590887L25.9867 0.63741L26.3173 0.685338L26.4811 0.710012C26.535 0.718468 26.583 0.729748 26.6346 0.739608C26.8361 0.7805 27.0376 0.822086 27.239 0.862251C27.3394 0.881277 27.4383 0.908792 27.5372 0.933449L27.8346 1.00887L28.1298 1.0843L28.4212 1.17241C28.6146 1.23231 28.8087 1.28871 28.9983 1.35357C29.188 1.42123 29.3762 1.48891 29.5643 1.55658C31.0573 2.12332 32.4195 2.87967 33.5907 3.76009C33.6645 3.81438 33.7376 3.86936 33.8106 3.92363C33.8822 3.98003 33.9523 4.03712 34.0224 4.09493C34.1627 4.20911 34.3036 4.31907 34.4386 4.4361C34.705 4.67506 34.9707 4.90417 35.2135 5.15229C35.2755 5.21292 35.336 5.27424 35.398 5.33416L35.4888 5.42438L35.5759 5.51813C35.6917 5.64359 35.8061 5.76837 35.919 5.89172L36.0039 5.98477L36.085 6.08062C36.1375 6.14477 36.1913 6.20822 36.2437 6.27166C36.3485 6.39924 36.4585 6.52048 36.5529 6.6523C37.0879 7.3424 37.5411 8.04166 37.916 8.73106C38.099 9.0659 38.2621 9.39931 38.406 9.7285C38.8509 10.7337 39.1365 11.6902 39.3166 12.5425C39.3365 12.6496 39.3579 12.7546 39.3779 12.8583C39.3971 12.9612 39.4199 13.062 39.4325 13.1628C39.4605 13.3637 39.4886 13.5561 39.5144 13.7415C39.5365 13.9276 39.5483 14.1066 39.5646 14.2765C39.5712 14.3611 39.5801 14.4436 39.5852 14.5254C39.5882 14.6057 39.6059 14.6847 39.6096 14.7622C39.614 14.9159 39.6398 15.0632 39.6398 15.1993Z" fill="url(#paint6_linear_3096_46342)"/>
<path opacity="0.4" d="M39.6399 15.1994V15.2558C39.1233 14.582 38.1979 13.6458 37.6437 13.1038C37.6334 13.0798 37.616 13.0558 37.6057 13.0319C37.2965 12.3234 36.8794 11.5565 36.3347 10.791C35.7938 10.0233 35.1063 9.26767 34.3049 8.57195C34.2089 8.48172 34.098 8.40207 33.9954 8.31677C33.943 8.27518 33.8902 8.23217 33.837 8.19059L33.7593 8.12715C33.732 8.106 33.7038 8.08697 33.6765 8.06652C33.5666 7.98687 33.4565 7.90651 33.3458 7.82545L33.2631 7.76484L33.1761 7.70844C33.1185 7.67037 33.0609 7.6323 33.0034 7.59494C32.7761 7.43775 32.5311 7.30171 32.292 7.15791C32.1702 7.08814 32.0425 7.02399 31.9185 6.95773C31.8573 6.9246 31.7946 6.89076 31.7318 6.85834C31.6676 6.82804 31.6027 6.79702 31.5392 6.7667C30.5149 6.27256 29.3976 5.91518 28.2516 5.71851C28.1084 5.69595 27.9652 5.67339 27.8206 5.65083C27.6767 5.63181 27.5306 5.61982 27.3874 5.6036L27.1705 5.58035L26.9528 5.56907L26.7351 5.55638C26.6627 5.55285 26.5912 5.54581 26.5181 5.54722C26.3734 5.54651 26.2288 5.5451 26.0834 5.54441C26.048 5.54441 26.0096 5.5423 25.9764 5.54441L25.8798 5.54935L25.6864 5.55922L25.4945 5.56837C25.4775 5.56908 25.4658 5.56908 25.4436 5.57049L25.2466 5.58459L24.9831 5.60221L24.7861 5.6163L24.7529 5.61841L24.7411 5.61912C24.7411 5.61983 24.6725 5.61912 24.7876 5.62124L24.3617 5.68116C24.2917 5.69173 24.2208 5.69807 24.1507 5.71288L23.9419 5.75306L23.733 5.79254L23.629 5.81227C23.5943 5.81861 23.5603 5.82849 23.5264 5.83624C23.3899 5.86937 23.2534 5.9018 23.1175 5.93563C23.0489 5.94973 22.9825 5.97227 22.9161 5.9913L22.7169 6.05122L22.5176 6.10831L22.3227 6.17668C22.1929 6.22321 22.063 6.2641 21.9368 6.31343C21.8114 6.36418 21.6852 6.41494 21.5604 6.46638C20.5679 6.88792 19.6756 7.43281 18.9163 8.05523L18.7732 8.16943L18.6373 8.29138C18.5473 8.37173 18.4543 8.44858 18.3687 8.53104C18.365 8.53386 18.3621 8.53809 18.3584 8.54091C20.5391 5.96169 24.0717 4.28613 28.0583 4.28613C32.1429 4.28613 35.7508 6.04486 37.916 8.73125C38.0991 9.06609 38.2621 9.3995 38.4061 9.72868C38.851 10.7339 39.1366 11.6904 39.3167 12.5427C39.3366 12.6498 39.358 12.7548 39.378 12.8585C39.3971 12.9614 39.42 13.0622 39.4326 13.163C39.4606 13.3639 39.4887 13.5563 39.5145 13.7417C39.5366 13.9278 39.5484 14.1068 39.5647 14.2767C39.5713 14.3613 39.5801 14.4438 39.5853 14.5255C39.5882 14.6059 39.606 14.6849 39.6096 14.7624C39.6141 14.9161 39.6399 15.0634 39.6399 15.1994Z" fill="url(#paint7_linear_3096_46342)"/>
</g>
<path d="M3.54688 44.8296V46.3347C3.54688 46.8211 6.57534 47.2153 10.3112 47.2153C14.047 47.2153 17.0754 46.8211 17.0754 46.3347V44.8296H3.54688Z" fill="url(#paint8_linear_3096_46342)"/>
<path d="M17.0754 44.8293C17.0754 45.3157 14.047 45.7099 10.3112 45.7099C6.57534 45.7099 3.54688 45.3157 3.54688 44.8293C3.54688 44.343 6.57534 43.9487 10.3112 43.9487C14.047 43.9487 17.0754 44.343 17.0754 44.8293Z" fill="url(#paint9_linear_3096_46342)"/>
<path d="M10.3111 45.7706C7.00263 45.7706 3.54297 45.4536 3.54297 44.8421C3.54297 44.8085 3.5549 44.7495 3.58839 44.7495C3.62187 44.7495 3.60747 44.7957 3.60747 44.8292C3.60747 45.217 6.36059 45.6491 10.3112 45.6491C14.2617 45.6491 17.0149 45.217 17.0149 44.8292C17.0149 44.7957 17.0206 44.7642 17.0541 44.7642C17.0875 44.7642 17.0794 44.809 17.0794 44.8426C17.0794 45.4541 13.6197 45.7706 10.3111 45.7706Z" fill="url(#paint10_linear_3096_46342)"/>
<path d="M9.67264 44.8788C9.73901 44.8327 9.80964 44.7873 9.88524 44.7424C9.96011 44.6976 10.0577 44.657 10.1758 44.6209C10.2947 44.5847 10.4433 44.5552 10.6217 44.5324C10.8001 44.5096 11.0233 44.4975 11.2896 44.4962C11.5511 44.4949 11.7962 44.5033 12.0259 44.5212C12.2548 44.5391 12.4568 44.5659 12.6313 44.6016C12.805 44.6373 12.947 44.6815 13.0563 44.7339C13.165 44.7865 13.2297 44.8467 13.2506 44.9145L14.0123 44.9223C14.0675 44.9226 14.1164 44.9271 14.1583 44.9358C14.2008 44.9445 14.2214 44.9555 14.2215 44.9689L14.2218 45.0318L13.2427 45.0223C13.2083 45.0994 13.1208 45.1699 12.9801 45.2338C12.8402 45.2978 12.6612 45.3531 12.4432 45.4L12.0866 45.3502C12.0547 45.3453 12.0284 45.3391 12.0079 45.3315C11.9873 45.324 11.9773 45.3158 11.9773 45.3069C11.9772 45.2948 12.0048 45.281 12.06 45.2655C12.1152 45.25 12.1774 45.2308 12.2467 45.2079C12.3161 45.185 12.3839 45.158 12.4511 45.1268C12.5175 45.0957 12.562 45.0584 12.5851 45.0151L10.274 44.9921C10.2133 45.0369 10.1448 45.0809 10.0699 45.1242C9.99429 45.1675 9.89457 45.2065 9.77006 45.2411C9.64554 45.2757 9.49052 45.3037 9.30502 45.3254C9.11877 45.3469 8.88576 45.3584 8.6038 45.3598C8.39195 45.3608 8.18577 45.3527 7.98377 45.3357C7.78177 45.3185 7.60241 45.2929 7.44568 45.2587C7.28894 45.2245 7.1605 45.1823 7.05964 45.1319C6.9595 45.0815 6.90325 45.0237 6.89159 44.9583L6.26457 44.9518C6.2093 44.9515 6.16039 44.9472 6.11643 44.9388C6.07317 44.9304 6.05114 44.9192 6.05109 44.9053L6.05078 44.8424L6.90807 44.8505C6.94602 44.7843 7.02366 44.7265 7.14244 44.6773C7.26122 44.6281 7.40624 44.5843 7.5775 44.546L7.86461 44.5856C7.95182 44.5979 7.99512 44.6122 7.9952 44.6288C7.99523 44.6377 7.97758 44.6487 7.94151 44.6619C7.90473 44.6751 7.86229 44.6909 7.81279 44.7093C7.76399 44.7276 7.71592 44.7491 7.66999 44.7739C7.62333 44.7986 7.58876 44.8265 7.56555 44.8578L9.67264 44.8788ZM7.55755 44.9645C7.57478 45.0058 7.61319 45.0413 7.67144 45.0712C7.72967 45.1012 7.80207 45.1257 7.88929 45.145C7.97653 45.1643 8.07437 45.1784 8.18281 45.1874C8.29196 45.1964 8.40605 45.2006 8.52507 45.2C8.66392 45.1993 8.78505 45.1933 8.88842 45.182C8.9911 45.1706 9.0817 45.1553 9.16024 45.1358C9.2381 45.1164 9.3067 45.0938 9.36468 45.0681C9.42265 45.0424 9.47422 45.0145 9.52083 44.9844L7.55755 44.9645ZM12.5889 44.9083C12.5717 44.8665 12.5297 44.8298 12.4643 44.7984C12.399 44.7669 12.3153 44.7404 12.2139 44.719C12.1124 44.6976 11.9941 44.6817 11.8587 44.6712C11.724 44.6608 11.5752 44.6559 11.4123 44.6567C11.2678 44.6574 11.1424 44.664 11.0383 44.6762C10.9342 44.6885 10.8436 44.7049 10.7665 44.7257C10.6901 44.7464 10.6243 44.7705 10.5713 44.7981C10.5176 44.8257 10.4674 44.8552 10.4215 44.8866L12.5889 44.9083Z" fill="#FCB048"/>
<path d="M10.3121 44.0444C7.29603 44.0444 4.15562 44.3107 3.65332 44.8261C3.67298 44.8443 3.69125 44.8636 3.70822 44.8841C4.13162 44.5262 6.7247 44.1659 10.3121 44.1659C13.9916 44.1659 16.6262 44.545 16.9454 44.9117C16.9611 44.8916 16.9778 44.8723 16.996 44.8542C16.5811 44.3205 13.3817 44.0444 10.3121 44.0444Z" fill="url(#paint11_linear_3096_46342)"/>
<path d="M1.66504 43.249V44.7542C1.66504 45.2405 4.6935 45.6348 8.42932 45.6348C12.1651 45.6348 15.1936 45.2405 15.1936 44.7542V43.249H1.66504Z" fill="url(#paint12_linear_3096_46342)"/>
<path d="M15.1936 43.2488C15.1936 43.7351 12.1651 44.1294 8.42932 44.1294C4.6935 44.1294 1.66504 43.7351 1.66504 43.2488C1.66504 42.7624 4.6935 42.3682 8.42932 42.3682C12.1651 42.3682 15.1936 42.7624 15.1936 43.2488Z" fill="url(#paint13_linear_3096_46342)"/>
<path d="M8.43029 44.1905C5.12177 44.1905 1.66211 43.8735 1.66211 43.262C1.66211 43.2284 1.67405 43.1694 1.70751 43.1694C1.741 43.1694 1.72659 43.2156 1.72659 43.2492C1.72659 43.637 4.47972 44.069 8.43029 44.069C12.3809 44.069 15.134 43.637 15.134 43.2492C15.134 43.2156 15.1397 43.1841 15.1732 43.1841C15.2066 43.1841 15.1986 43.2289 15.1986 43.2625C15.1986 43.874 11.7388 44.1905 8.43029 44.1905Z" fill="url(#paint14_linear_3096_46342)"/>
<path d="M7.79181 43.2982C7.85817 43.2522 7.92881 43.2067 8.00439 43.1618C8.07927 43.117 8.17684 43.0765 8.29498 43.0403C8.41383 43.0041 8.56247 42.9747 8.74089 42.9518C8.91932 42.929 9.14243 42.917 9.40879 42.9157C9.67023 42.9144 9.91539 42.9227 10.145 42.9406C10.374 42.9585 10.576 42.9854 10.7505 43.0211C10.9242 43.0567 11.0661 43.1009 11.1755 43.1533C11.2841 43.206 11.3489 43.2661 11.3698 43.334L12.1314 43.3417C12.1867 43.3421 12.2356 43.3466 12.2774 43.3553C12.32 43.364 12.3406 43.375 12.3407 43.3883L12.341 43.4512L11.3618 43.4418C11.3275 43.5189 11.24 43.5893 11.0993 43.6533C10.9593 43.7173 10.7804 43.7726 10.5624 43.8194L10.2058 43.7697C10.1739 43.7648 10.1476 43.7586 10.127 43.751C10.1064 43.7435 10.0965 43.7353 10.0965 43.7264C10.0964 43.7143 10.124 43.7005 10.1791 43.685C10.2343 43.6695 10.2966 43.6502 10.3659 43.6273C10.4352 43.6045 10.5031 43.5775 10.5702 43.5462C10.6367 43.5151 10.6811 43.4779 10.7043 43.4346L8.39317 43.4116C8.33245 43.4564 8.26395 43.5004 8.18904 43.5437C8.11344 43.587 8.01376 43.6259 7.88924 43.6605C7.76471 43.6951 7.60968 43.7232 7.42418 43.7448C7.23796 43.7664 7.00493 43.7778 6.72296 43.7792C6.51113 43.7803 6.30491 43.7722 6.10291 43.7551C5.90093 43.738 5.72157 43.7123 5.56482 43.6782C5.4081 43.644 5.27964 43.6017 5.1788 43.5514C5.07866 43.501 5.0224 43.4432 5.01075 43.3778L4.38371 43.3713C4.32846 43.371 4.27953 43.3666 4.23558 43.3582C4.19231 43.3498 4.1703 43.3387 4.17023 43.3247L4.16992 43.2618L5.02723 43.27C5.06516 43.2037 5.14281 43.1459 5.26159 43.0968C5.38037 43.0476 5.52539 43.0038 5.69666 42.9655L5.98377 43.005C6.07096 43.0173 6.11426 43.0317 6.11434 43.0482C6.11439 43.0571 6.09672 43.0682 6.06065 43.0814C6.02389 43.0946 5.98147 43.1104 5.93193 43.1287C5.88313 43.1471 5.83508 43.1686 5.78913 43.1933C5.74249 43.218 5.70792 43.2459 5.68469 43.2773L7.79181 43.2982ZM5.67672 43.384C5.69394 43.4252 5.73237 43.4607 5.7906 43.4906C5.84884 43.5206 5.92123 43.5451 6.00847 43.5644C6.0957 43.5837 6.19354 43.5978 6.30198 43.6068C6.41113 43.6158 6.52522 43.6201 6.64423 43.6195C6.78309 43.6188 6.90421 43.6128 7.00758 43.6015C7.11026 43.5901 7.20087 43.5747 7.27943 43.5553C7.35727 43.5358 7.42587 43.5133 7.48384 43.4875C7.5418 43.4618 7.59338 43.4339 7.64002 43.4038L5.67672 43.384ZM10.708 43.3277C10.6908 43.2859 10.6488 43.2493 10.5835 43.2178C10.5182 43.1864 10.4345 43.1599 10.333 43.1385C10.2316 43.117 10.1132 43.1011 9.97787 43.0907C9.8432 43.0802 9.69439 43.0754 9.53146 43.0762C9.38692 43.0769 9.26157 43.0834 9.15747 43.0957C9.05339 43.108 8.96278 43.1244 8.88567 43.1452C8.80927 43.1658 8.74348 43.19 8.69049 43.2176C8.63677 43.2452 8.58661 43.2747 8.54074 43.3061L10.708 43.3277Z" fill="#FCB048"/>
<path d="M8.43124 42.4639C5.41517 42.4639 2.27478 42.7301 1.77246 43.2455C1.79212 43.2637 1.81039 43.2831 1.82736 43.3035C2.25077 42.9456 4.84386 42.5854 8.43124 42.5854C12.1107 42.5854 14.7454 42.9644 15.0645 43.3311C15.0802 43.311 15.097 43.2917 15.1151 43.2736C14.7002 42.74 11.5009 42.4639 8.43124 42.4639Z" fill="url(#paint15_linear_3096_46342)"/>
<path d="M3.28906 41.6724V43.1775C3.28906 43.6639 6.31754 44.0581 10.0534 44.0581C13.7891 44.0581 16.8176 43.6639 16.8176 43.1775V41.6724H3.28906Z" fill="url(#paint16_linear_3096_46342)"/>
<path d="M16.8176 41.6721C16.8176 42.1585 13.7892 42.5527 10.0534 42.5527C6.31755 42.5527 3.28906 42.1585 3.28906 41.6721C3.28906 41.1858 6.31755 40.7915 10.0534 40.7915C13.7892 40.7915 16.8176 41.1858 16.8176 41.6721Z" fill="url(#paint17_linear_3096_46342)"/>
<path d="M10.0533 42.6134C6.74482 42.6134 3.28516 42.2964 3.28516 41.6849C3.28516 41.6513 3.29709 41.5923 3.33056 41.5923C3.36405 41.5923 3.34964 41.6384 3.34964 41.672C3.34964 42.0598 6.10277 42.4919 10.0533 42.4919C14.0039 42.4919 16.757 42.0598 16.757 41.672C16.757 41.6384 16.7627 41.607 16.7962 41.607C16.8297 41.607 16.8216 41.6518 16.8216 41.6854C16.8216 42.2969 13.3619 42.6134 10.0533 42.6134Z" fill="url(#paint18_linear_3096_46342)"/>
<path d="M9.41486 41.7211C9.48122 41.675 9.55184 41.6296 9.62744 41.5847C9.70233 41.5398 9.79987 41.4994 9.91803 41.4631C10.0369 41.427 10.1855 41.3975 10.3639 41.3747C10.5424 41.3519 10.7655 41.3398 11.0318 41.3385C11.2933 41.3372 11.5384 41.3456 11.7681 41.3635C11.997 41.3814 12.1991 41.4083 12.3735 41.4439C12.5473 41.4796 12.6892 41.5238 12.7985 41.5762C12.9072 41.6288 12.9719 41.689 12.9928 41.7569L13.7545 41.7646C13.8097 41.7649 13.8586 41.7694 13.9005 41.7781C13.943 41.7869 13.9636 41.7978 13.9637 41.8112L13.964 41.8741L12.9849 41.8646C12.9505 41.9417 12.863 42.0122 12.7223 42.0761C12.5824 42.1401 12.4034 42.1954 12.1854 42.2423L11.8288 42.1925C11.7969 42.1876 11.7707 42.1814 11.7501 42.1738C11.7295 42.1663 11.7195 42.1581 11.7195 42.1492C11.7194 42.1371 11.747 42.1233 11.8022 42.1079C11.8574 42.0923 11.9196 42.0731 11.9889 42.0502C12.0583 42.0273 12.1261 42.0003 12.1933 41.9691C12.2597 41.938 12.3042 41.9008 12.3273 41.8574L10.0162 41.8344C9.95548 41.8793 9.887 41.9233 9.81209 41.9666C9.73651 42.0098 9.63679 42.0488 9.51228 42.0834C9.38776 42.118 9.23273 42.1461 9.04722 42.1677C8.86099 42.1892 8.62796 42.2007 8.34602 42.2021C8.13417 42.2031 7.92798 42.1951 7.72598 42.178C7.52399 42.1608 7.34461 42.1352 7.18787 42.1011C7.03114 42.0668 6.90268 42.0246 6.80185 41.9743C6.70171 41.9239 6.64545 41.866 6.63378 41.8006L6.00676 41.7942C5.95149 41.7938 5.90258 41.7895 5.85862 41.7811C5.81536 41.7727 5.79333 41.7615 5.79328 41.7476L5.79297 41.6847L6.65027 41.6929C6.68821 41.6266 6.76584 41.5688 6.88464 41.5196C7.0034 41.4704 7.14844 41.4266 7.31969 41.3883L7.60682 41.4279C7.69401 41.4402 7.7373 41.4545 7.73739 41.4711C7.73742 41.48 7.71977 41.491 7.6837 41.5042C7.64692 41.5174 7.6045 41.5332 7.55498 41.5516C7.50618 41.57 7.45813 41.5914 7.41218 41.6162C7.36554 41.6409 7.33097 41.6688 7.30774 41.7001L9.41486 41.7211ZM7.29977 41.8069C7.31699 41.8481 7.35541 41.8836 7.41366 41.9135C7.47187 41.9434 7.54428 41.968 7.63151 41.9873C7.71875 42.0066 7.81659 42.0207 7.92501 42.0297C8.03418 42.0387 8.14825 42.0429 8.26728 42.0423C8.40613 42.0416 8.52726 42.0356 8.63063 42.0243C8.73331 42.013 8.8239 41.9976 8.90247 41.9782C8.98032 41.9587 9.04892 41.9362 9.10688 41.9104C9.16485 41.8847 9.21643 41.8568 9.26304 41.8267L7.29977 41.8069ZM12.3311 41.7506C12.3139 41.7088 12.2719 41.6722 12.2066 41.6407C12.1412 41.6093 12.0575 41.5827 11.9561 41.5614C11.8547 41.5399 11.7363 41.524 11.6009 41.5135C11.4662 41.5031 11.3174 41.4982 11.1545 41.4991C11.01 41.4998 10.8846 41.5063 10.7805 41.5185C10.6764 41.5308 10.5858 41.5472 10.5087 41.568C10.4323 41.5887 10.3665 41.6129 10.3135 41.6404C10.2598 41.668 10.2097 41.6975 10.1638 41.7289L12.3311 41.7506Z" fill="#FCB048"/>
<path d="M10.0543 40.8867C7.03822 40.8867 3.89782 41.1529 3.39551 41.6684C3.41516 41.6865 3.43344 41.706 3.45041 41.7264C3.8738 41.3685 6.46691 41.0082 10.0543 41.0082C13.7338 41.0082 16.3684 41.3873 16.6876 41.754C16.7033 41.7338 16.72 41.7146 16.7382 41.6965C16.3233 41.1628 13.1239 40.8867 10.0543 40.8867Z" fill="url(#paint19_linear_3096_46342)"/>
<path d="M4.27344 40.0913V41.5964C4.27344 42.0828 7.30189 42.477 11.0377 42.477C14.7735 42.477 17.802 42.0828 17.802 41.5964V40.0913H4.27344Z" fill="url(#paint20_linear_3096_46342)"/>
<path d="M11.0377 40.9717C14.7735 40.9717 17.802 40.5774 17.802 40.0911C17.802 39.6047 14.7735 39.2104 11.0377 39.2104C7.3019 39.2104 4.27344 39.6047 4.27344 40.0911C4.27344 40.5774 7.3019 40.9717 11.0377 40.9717Z" fill="url(#paint21_linear_3096_46342)"/>
<path d="M11.0377 41.0323C7.72919 41.0323 4.26953 40.7153 4.26953 40.1038C4.26953 40.0703 4.28147 40.0112 4.31495 40.0112C4.34844 40.0112 4.33403 40.0574 4.33403 40.091C4.33403 40.4787 7.08716 40.9108 11.0377 40.9108C14.9883 40.9108 17.7414 40.4787 17.7414 40.091C17.7414 40.0574 17.7471 40.0259 17.7806 40.0259C17.8141 40.0259 17.806 40.0707 17.806 40.1043C17.806 40.7158 14.3462 41.0323 11.0377 41.0323Z" fill="url(#paint22_linear_3096_46342)"/>
<path d="M10.3982 40.1405C10.4645 40.0944 10.5352 40.049 10.6108 40.0041C10.6857 39.9593 10.7832 39.9188 10.9014 39.8826C11.0202 39.8464 11.1688 39.8169 11.3473 39.7941C11.5257 39.7713 11.7488 39.7593 12.0152 39.7579C12.2766 39.7567 12.5218 39.765 12.7514 39.7829C12.9804 39.8008 13.1824 39.8277 13.3569 39.8634C13.5306 39.899 13.6725 39.9432 13.7819 39.9956C13.8905 40.0482 13.9553 40.1084 13.9762 40.1763L14.7378 40.184C14.7931 40.1844 14.842 40.1889 14.8838 40.1976C14.9264 40.2063 14.947 40.2173 14.9471 40.2306L14.9474 40.2935L13.9682 40.2841C13.9339 40.3612 13.8464 40.4317 13.7057 40.4956C13.5657 40.5595 13.3867 40.6149 13.1688 40.6617L12.8122 40.612C12.7803 40.6071 12.754 40.6009 12.7334 40.5933C12.7129 40.5858 12.7029 40.5776 12.7029 40.5687C12.7028 40.5566 12.7304 40.5428 12.7856 40.5273C12.8407 40.5118 12.903 40.4925 12.9723 40.4696C13.0416 40.4468 13.1095 40.4198 13.1766 40.3885C13.2431 40.3574 13.2876 40.3202 13.3107 40.2769L10.9996 40.2539C10.9389 40.2987 10.8704 40.3427 10.7955 40.386C10.7199 40.4293 10.6202 40.4682 10.4956 40.5028C10.3711 40.5374 10.2161 40.5655 10.0306 40.5871C9.84436 40.6087 9.61134 40.6201 9.32937 40.6215C9.11754 40.6226 8.91134 40.6145 8.70934 40.5974C8.50734 40.5803 8.32799 40.5546 8.17123 40.5205C8.01451 40.4863 7.88606 40.444 7.78521 40.3937C7.68507 40.3433 7.62882 40.2855 7.61716 40.22L6.99012 40.2136C6.93487 40.2132 6.88596 40.2089 6.842 40.2005C6.79874 40.1921 6.77673 40.181 6.77666 40.167L6.77637 40.1041L7.63364 40.1123C7.67159 40.046 7.74922 39.9882 7.868 39.9391C7.9868 39.8899 8.13181 39.8461 8.30309 39.8078L8.5902 39.8473C8.6774 39.8596 8.7207 39.874 8.72078 39.8905C8.72083 39.8994 8.70315 39.9105 8.6671 39.9237C8.63034 39.9369 8.58789 39.9527 8.53837 39.971C8.48958 39.9894 8.44151 40.0109 8.39558 40.0356C8.34894 40.0603 8.31436 40.0882 8.29115 40.1195L10.3982 40.1405ZM8.2831 40.2262C8.30032 40.2675 8.33875 40.303 8.39699 40.3329C8.45524 40.3629 8.52762 40.3874 8.61484 40.4067C8.70208 40.426 8.79992 40.4401 8.90838 40.4491C9.01751 40.4581 9.1316 40.4623 9.25062 40.4618C9.38949 40.4611 9.51059 40.455 9.61398 40.4437C9.71666 40.4324 9.80727 40.417 9.88581 40.3976C9.96365 40.3781 10.0323 40.3556 10.0902 40.3298C10.1482 40.3041 10.1998 40.2762 10.2464 40.2461L8.2831 40.2262ZM13.3144 40.17C13.2972 40.1282 13.2552 40.0915 13.1899 40.0601C13.1246 40.0287 13.0408 40.0021 12.9394 39.9808C12.838 39.9593 12.7196 39.9434 12.5842 39.933C12.4496 39.9225 12.3008 39.9177 12.1378 39.9185C11.9933 39.9192 11.868 39.9257 11.7639 39.9379C11.6598 39.9502 11.5692 39.9666 11.4921 39.9874C11.4156 40.0081 11.3499 40.0323 11.2969 40.0598C11.2432 40.0874 11.193 40.1169 11.1471 40.1483L13.3144 40.17Z" fill="#FCB048"/>
<path d="M11.0387 39.3062C8.0226 39.3062 4.8822 39.5724 4.37988 40.0878C4.39956 40.106 4.41783 40.1254 4.4348 40.1458C4.8582 39.7879 7.45128 39.4276 11.0387 39.4276C14.7182 39.4276 17.3528 39.8067 17.672 40.1734C17.6877 40.1533 17.7044 40.134 17.7226 40.1159C17.3077 39.5822 14.1083 39.3062 11.0387 39.3062Z" fill="url(#paint23_linear_3096_46342)"/>
<path d="M3.54688 38.3857V39.8909C3.54688 40.3772 6.57534 40.7715 10.3112 40.7715C14.047 40.7715 17.0754 40.3772 17.0754 39.8909V38.3857H3.54688Z" fill="url(#paint24_linear_3096_46342)"/>
<path d="M17.0754 38.3855C17.0754 38.8718 14.047 39.2661 10.3112 39.2661C6.57534 39.2661 3.54688 38.8718 3.54688 38.3855C3.54688 37.8991 6.57534 37.5049 10.3112 37.5049C14.047 37.5049 17.0754 37.8992 17.0754 38.3855Z" fill="url(#paint25_linear_3096_46342)"/>
<path d="M10.3111 39.3268C7.00263 39.3268 3.54297 39.0097 3.54297 38.3983C3.54297 38.3647 3.5549 38.3057 3.58839 38.3057C3.62187 38.3057 3.60747 38.3518 3.60747 38.3854C3.60747 38.7732 6.36059 39.2052 10.3112 39.2052C14.2617 39.2052 17.0149 38.7732 17.0149 38.3854C17.0149 38.3518 17.0206 38.3204 17.0541 38.3204C17.0875 38.3204 17.0794 38.3652 17.0794 38.3988C17.0794 39.0102 13.6197 39.3268 10.3111 39.3268Z" fill="url(#paint26_linear_3096_46342)"/>
<path d="M9.67264 38.435C9.73901 38.3889 9.80964 38.3435 9.88524 38.2986C9.96011 38.2537 10.0577 38.2132 10.1758 38.177C10.2947 38.1408 10.4433 38.1114 10.6217 38.0886C10.8001 38.0657 11.0233 38.0537 11.2896 38.0524C11.5511 38.0511 11.7962 38.0594 12.0259 38.0774C12.2548 38.0953 12.4568 38.1221 12.6313 38.1578C12.805 38.1935 12.947 38.2376 13.0563 38.2901C13.165 38.3427 13.2297 38.4029 13.2506 38.4707L14.0123 38.4785C14.0675 38.4788 14.1164 38.4833 14.1583 38.492C14.2008 38.5007 14.2214 38.5117 14.2215 38.5251L14.2218 38.588L13.2427 38.5785C13.2083 38.6556 13.1208 38.7261 12.9801 38.79C12.8402 38.854 12.6612 38.9093 12.4432 38.9562L12.0866 38.9064C12.0547 38.9015 12.0284 38.8953 12.0079 38.8877C11.9873 38.8802 11.9773 38.872 11.9773 38.8631C11.9772 38.851 12.0048 38.8372 12.06 38.8218C12.1152 38.8062 12.1774 38.787 12.2467 38.764C12.3161 38.7412 12.3839 38.7142 12.4511 38.683C12.5175 38.6518 12.562 38.6146 12.5851 38.5713L10.274 38.5483C10.2133 38.5931 10.1448 38.6371 10.0699 38.6804C9.99429 38.7237 9.89457 38.7627 9.77006 38.7973C9.64554 38.8318 9.49052 38.8599 9.30502 38.8815C9.11877 38.9031 8.88576 38.9146 8.6038 38.9159C8.39195 38.917 8.18577 38.9089 7.98377 38.8919C7.78177 38.8747 7.60241 38.849 7.44568 38.8149C7.28894 38.7807 7.1605 38.7384 7.05964 38.6881C6.9595 38.6377 6.90325 38.5799 6.89159 38.5145L6.26457 38.508C6.2093 38.5077 6.16039 38.5033 6.11643 38.4949C6.07317 38.4865 6.05114 38.4754 6.05109 38.4614L6.05078 38.3985L6.90807 38.4067C6.94602 38.3404 7.02366 38.2826 7.14244 38.2335C7.26122 38.1843 7.40624 38.1405 7.5775 38.1022L7.86461 38.1418C7.95182 38.1541 7.99512 38.1684 7.9952 38.185C7.99523 38.1939 7.97758 38.2049 7.94151 38.2181C7.90473 38.2313 7.86229 38.2471 7.81279 38.2654C7.76399 38.2838 7.71592 38.3053 7.66999 38.3301C7.62333 38.3547 7.58876 38.3827 7.56555 38.414L9.67264 38.435ZM7.55755 38.5207C7.57478 38.562 7.61319 38.5975 7.67144 38.6274C7.72967 38.6573 7.80207 38.6819 7.88929 38.7011C7.97653 38.7204 8.07437 38.7345 8.18281 38.7435C8.29196 38.7525 8.40605 38.7568 8.52507 38.7562C8.66392 38.7555 8.78505 38.7495 8.88842 38.7382C8.9911 38.7268 9.0817 38.7115 9.16024 38.692C9.2381 38.6725 9.3067 38.65 9.36468 38.6243C9.42265 38.5986 9.47422 38.5707 9.52083 38.5406L7.55755 38.5207ZM12.5889 38.4644C12.5717 38.4226 12.5297 38.386 12.4643 38.3545C12.399 38.3231 12.3153 38.2966 12.2139 38.2752C12.1124 38.2537 11.9941 38.2378 11.8587 38.2274C11.724 38.2169 11.5752 38.2121 11.4123 38.2129C11.2678 38.2136 11.1424 38.2201 11.0383 38.2324C10.9342 38.2447 10.8436 38.2611 10.7665 38.2819C10.6901 38.3026 10.6243 38.3267 10.5713 38.3543C10.5176 38.3818 10.4674 38.4113 10.4215 38.4428L12.5889 38.4644Z" fill="#FCB048"/>
<path d="M10.3121 37.6006C7.29603 37.6006 4.15562 37.8668 3.65332 38.3822C3.67298 38.4004 3.69125 38.4198 3.70822 38.4402C4.13162 38.0824 6.7247 37.7221 10.3121 37.7221C13.9916 37.7221 16.6262 38.1012 16.9454 38.4678C16.9611 38.4477 16.9778 38.4284 16.996 38.4103C16.5811 37.8767 13.3817 37.6006 10.3121 37.6006Z" fill="url(#paint27_linear_3096_46342)"/>
<path d="M1.66504 36.8052V38.3103C1.66504 38.7967 4.6935 39.1909 8.42932 39.1909C12.1651 39.1909 15.1936 38.7967 15.1936 38.3103V36.8052H1.66504Z" fill="url(#paint28_linear_3096_46342)"/>
<path d="M8.42932 37.6856C12.1651 37.6856 15.1936 37.2913 15.1936 36.8049C15.1936 36.3186 12.1651 35.9243 8.42932 35.9243C4.69351 35.9243 1.66504 36.3186 1.66504 36.8049C1.66504 37.2913 4.69351 37.6856 8.42932 37.6856Z" fill="url(#paint29_linear_3096_46342)"/>
<path d="M8.43029 37.7462C5.12177 37.7462 1.66211 37.4292 1.66211 36.8177C1.66211 36.7841 1.67405 36.7251 1.70751 36.7251C1.741 36.7251 1.72659 36.7713 1.72659 36.8048C1.72659 37.1926 4.47972 37.6247 8.43029 37.6247C12.3809 37.6247 15.134 37.1926 15.134 36.8048C15.134 36.7713 15.1397 36.7398 15.1732 36.7398C15.2066 36.7398 15.1986 36.7846 15.1986 36.8182C15.1986 37.4297 11.7388 37.7462 8.43029 37.7462Z" fill="url(#paint30_linear_3096_46342)"/>
<path d="M7.79181 36.8539C7.85817 36.8078 7.92881 36.7624 8.00439 36.7175C8.07927 36.6726 8.17684 36.6321 8.29498 36.596C8.41383 36.5598 8.56247 36.5303 8.74089 36.5075C8.91932 36.4847 9.14243 36.4726 9.40879 36.4713C9.67023 36.47 9.91539 36.4784 10.145 36.4963C10.374 36.5142 10.576 36.541 10.7505 36.5767C10.9242 36.6124 11.0661 36.6565 11.1755 36.709C11.2841 36.7616 11.3489 36.8218 11.3698 36.8896L12.1314 36.8974C12.1867 36.8977 12.2356 36.9022 12.2774 36.911C12.32 36.9197 12.3406 36.9307 12.3407 36.944L12.341 37.0069L11.3618 36.9974C11.3275 37.0745 11.24 37.145 11.0993 37.2089C10.9593 37.2729 10.7804 37.3282 10.5624 37.3751L10.2058 37.3253C10.1739 37.3205 10.1476 37.3142 10.127 37.3066C10.1064 37.2991 10.0965 37.291 10.0965 37.2821C10.0964 37.2699 10.124 37.2562 10.1791 37.2407C10.2343 37.2251 10.2966 37.2059 10.3659 37.183C10.4352 37.1601 10.5031 37.1331 10.5702 37.1019C10.6367 37.0708 10.6811 37.0336 10.7043 36.9902L8.39317 36.9672C8.33245 37.0121 8.26395 37.0561 8.18904 37.0994C8.11344 37.1426 8.01376 37.1816 7.88924 37.2162C7.76471 37.2508 7.60968 37.2788 7.42418 37.3005C7.23796 37.322 7.00493 37.3335 6.72296 37.3349C6.51113 37.3359 6.30491 37.3278 6.10291 37.3108C5.90093 37.2936 5.72157 37.268 5.56482 37.2338C5.4081 37.1996 5.27964 37.1574 5.1788 37.107C5.07866 37.0567 5.0224 36.9988 5.01075 36.9334L4.38371 36.9269C4.32846 36.9266 4.27953 36.9223 4.23558 36.9139C4.19231 36.9055 4.1703 36.8943 4.17023 36.8804L4.16992 36.8174L5.02723 36.8256C5.06516 36.7594 5.14281 36.7016 5.26159 36.6524C5.38037 36.6032 5.52539 36.5594 5.69666 36.5211L5.98377 36.5606C6.07096 36.5729 6.11426 36.5873 6.11434 36.6038C6.11439 36.6127 6.09672 36.6238 6.06065 36.637C6.02389 36.6502 5.98147 36.666 5.93193 36.6843C5.88313 36.7027 5.83508 36.7242 5.78913 36.7489C5.74249 36.7736 5.70792 36.8016 5.68469 36.8329L7.79181 36.8539ZM5.67672 36.9396C5.69394 36.9809 5.73237 37.0164 5.7906 37.0463C5.84884 37.0762 5.92123 37.1008 6.00847 37.1201C6.0957 37.1393 6.19354 37.1534 6.30198 37.1624C6.41113 37.1714 6.52522 37.1757 6.64423 37.1751C6.78309 37.1744 6.90421 37.1684 7.00758 37.1571C7.11026 37.1458 7.20087 37.1304 7.27943 37.1109C7.35727 37.0915 7.42587 37.0689 7.48384 37.0432C7.5418 37.0175 7.59338 36.9896 7.64002 36.9595L5.67672 36.9396ZM10.708 36.8834C10.6908 36.8416 10.6488 36.8049 10.5835 36.7734C10.5182 36.742 10.4345 36.7155 10.333 36.6941C10.2316 36.6727 10.1132 36.6567 9.97787 36.6463C9.8432 36.6359 9.69439 36.631 9.53146 36.6318C9.38692 36.6325 9.26157 36.6391 9.15747 36.6513C9.05339 36.6636 8.96278 36.68 8.88567 36.7008C8.80927 36.7215 8.74348 36.7456 8.69049 36.7732C8.63677 36.8008 8.58661 36.8302 8.54074 36.8617L10.708 36.8834Z" fill="#FCB048"/>
<path d="M8.43124 36.0195C5.41517 36.0195 2.27478 36.2858 1.77246 36.8012C1.79212 36.8194 1.81039 36.8388 1.82736 36.8592C2.25077 36.5013 4.84386 36.141 8.43124 36.141C12.1107 36.141 14.7454 36.5201 15.0645 36.8868C15.0802 36.8667 15.097 36.8474 15.1151 36.8293C14.7002 36.2956 11.5009 36.0195 8.43124 36.0195Z" fill="url(#paint31_linear_3096_46342)"/>
<path d="M3.28906 35.2285V36.7336C3.28906 37.22 6.31754 37.6143 10.0534 37.6143C13.7891 37.6143 16.8176 37.22 16.8176 36.7336V35.2285H3.28906Z" fill="url(#paint32_linear_3096_46342)"/>
<path d="M10.0533 36.1089C13.7891 36.1089 16.8176 35.7146 16.8176 35.2283C16.8176 34.7419 13.7891 34.3477 10.0533 34.3477C6.31753 34.3477 3.28906 34.7419 3.28906 35.2283C3.28906 35.7146 6.31753 36.1089 10.0533 36.1089Z" fill="url(#paint33_linear_3096_46342)"/>
<path d="M10.0533 36.1695C6.74482 36.1695 3.28516 35.8525 3.28516 35.241C3.28516 35.2075 3.29709 35.1484 3.33056 35.1484C3.36405 35.1484 3.34964 35.1946 3.34964 35.2282C3.34964 35.616 6.10277 36.048 10.0533 36.048C14.0039 36.048 16.757 35.616 16.757 35.2282C16.757 35.1946 16.7627 35.1631 16.7962 35.1631C16.8297 35.1631 16.8216 35.2079 16.8216 35.2415C16.8216 35.853 13.3619 36.1695 10.0533 36.1695Z" fill="url(#paint34_linear_3096_46342)"/>
<path d="M9.41486 35.2777C9.48122 35.2316 9.55184 35.1862 9.62744 35.1413C9.70233 35.0965 9.79987 35.056 9.91803 35.0198C10.0369 34.9836 10.1855 34.9542 10.3639 34.9313C10.5424 34.9085 10.7655 34.8965 11.0318 34.8951C11.2933 34.8939 11.5384 34.9022 11.7681 34.9201C11.997 34.938 12.1991 34.9649 12.3735 35.0006C12.5473 35.0363 12.6892 35.0804 12.7985 35.1328C12.9072 35.1855 12.9719 35.2456 12.9928 35.3135L13.7545 35.3212C13.8097 35.3216 13.8586 35.3261 13.9005 35.3348C13.943 35.3435 13.9636 35.3545 13.9637 35.3678L13.964 35.4307L12.9849 35.4213C12.9505 35.4983 12.863 35.5688 12.7223 35.6327C12.5824 35.6967 12.4034 35.7521 12.1854 35.7989L11.8288 35.7492C11.7969 35.7443 11.7707 35.7381 11.7501 35.7305C11.7295 35.723 11.7195 35.7148 11.7195 35.7059C11.7194 35.6938 11.747 35.68 11.8022 35.6645C11.8574 35.649 11.9196 35.6297 11.9889 35.6068C12.0583 35.584 12.1261 35.5569 12.1933 35.5257C12.2597 35.4946 12.3042 35.4574 12.3273 35.4141L10.0162 35.3911C9.95548 35.4359 9.887 35.4799 9.81209 35.5232C9.73651 35.5665 9.63679 35.6055 9.51228 35.64C9.38776 35.6746 9.23273 35.7027 9.04722 35.7243C8.86099 35.7459 8.62796 35.7573 8.34602 35.7587C8.13417 35.7598 7.92798 35.7517 7.72598 35.7346C7.52399 35.7175 7.34461 35.6918 7.18787 35.6577C7.03114 35.6235 6.90268 35.5812 6.80185 35.5309C6.70171 35.4805 6.64545 35.4227 6.63378 35.3572L6.00676 35.3508C5.95149 35.3504 5.90258 35.3461 5.85862 35.3377C5.81536 35.3293 5.79333 35.3182 5.79328 35.3042L5.79297 35.2413L6.65027 35.2495C6.68821 35.1832 6.76584 35.1254 6.88464 35.0763C7.0034 35.0271 7.14844 34.9833 7.31969 34.945L7.60682 34.9845C7.69401 34.9968 7.7373 35.0112 7.73739 35.0277C7.73742 35.0366 7.71977 35.0477 7.6837 35.0609C7.64692 35.0741 7.6045 35.0899 7.55498 35.1082C7.50618 35.1266 7.45813 35.1481 7.41218 35.1728C7.36554 35.1975 7.33097 35.2255 7.30774 35.2567L9.41486 35.2777ZM7.29977 35.3635C7.31699 35.4047 7.35541 35.4402 7.41366 35.4701C7.47187 35.5001 7.54428 35.5246 7.63151 35.5439C7.71875 35.5632 7.81659 35.5773 7.92501 35.5863C8.03418 35.5953 8.14825 35.5995 8.26728 35.5989C8.40613 35.5983 8.52726 35.5922 8.63063 35.5809C8.73331 35.5696 8.8239 35.5542 8.90247 35.5348C8.98032 35.5153 9.04892 35.4928 9.10688 35.4671C9.16485 35.4413 9.21643 35.4134 9.26304 35.3834L7.29977 35.3635ZM12.3311 35.3072C12.3139 35.2654 12.2719 35.2288 12.2066 35.1973C12.1412 35.1658 12.0575 35.1393 11.9561 35.118C11.8547 35.0965 11.7363 35.0806 11.6009 35.0701C11.4662 35.0597 11.3174 35.0549 11.1545 35.0557C11.01 35.0564 10.8846 35.0629 10.7805 35.0751C10.6764 35.0874 10.5858 35.1039 10.5087 35.1246C10.4323 35.1454 10.3665 35.1695 10.3135 35.1971C10.2598 35.2246 10.2097 35.2541 10.1638 35.2855L12.3311 35.3072Z" fill="#FCB048"/>
<path d="M10.0543 34.4434C7.03822 34.4434 3.89782 34.7096 3.39551 35.225C3.41516 35.2432 3.43344 35.2626 3.45041 35.283C3.8738 34.9252 6.46691 34.5649 10.0543 34.5649C13.7338 34.5649 16.3684 34.9439 16.6876 35.3106C16.7033 35.2905 16.72 35.2712 16.7382 35.2531C16.3233 34.7195 13.1239 34.4434 10.0543 34.4434Z" fill="url(#paint35_linear_3096_46342)"/>
<path d="M2.44336 33.6475V35.1526C2.44336 35.639 5.47183 36.0332 9.20764 36.0332C12.9434 36.0332 15.9719 35.6389 15.9719 35.1526V33.6475H2.44336Z" fill="url(#paint36_linear_3096_46342)"/>
<path d="M9.20763 34.5278C12.9434 34.5278 15.9719 34.1336 15.9719 33.6472C15.9719 33.1609 12.9434 32.7666 9.20763 32.7666C5.47183 32.7666 2.44336 33.1609 2.44336 33.6472C2.44336 34.1336 5.47183 34.5278 9.20763 34.5278Z" fill="url(#paint37_linear_3096_46342)"/>
<path d="M9.20861 34.5885C5.90009 34.5885 2.44043 34.2714 2.44043 33.66C2.44043 33.6264 2.45237 33.5674 2.48583 33.5674C2.51932 33.5674 2.50491 33.6135 2.50491 33.6471C2.50491 34.0349 5.25806 34.467 9.20861 34.467C13.1592 34.467 15.9123 34.0349 15.9123 33.6471C15.9123 33.6135 15.918 33.5821 15.9515 33.5821C15.985 33.5821 15.9769 33.6269 15.9769 33.6605C15.9769 34.2719 12.5172 34.5885 9.20861 34.5885Z" fill="url(#paint38_linear_3096_46342)"/>
<path d="M8.57011 33.6967C8.63648 33.6506 8.70712 33.6051 8.7827 33.5603C8.85759 33.5154 8.95516 33.4749 9.07328 33.4387C9.19213 33.4025 9.34077 33.3731 9.5192 33.3503C9.69761 33.3274 9.92073 33.3154 10.1871 33.3141C10.4485 33.3128 10.6937 33.3211 10.9233 33.3391C11.1523 33.357 11.3543 33.3838 11.5288 33.4195C11.7025 33.4552 11.8444 33.4993 11.9538 33.5518C12.0624 33.6044 12.1272 33.6646 12.1481 33.7324L12.9097 33.7402C12.965 33.7405 13.0139 33.745 13.0557 33.7537C13.0983 33.7624 13.1189 33.7734 13.119 33.7868L13.1193 33.8497L12.1401 33.8402C12.1058 33.9173 12.0183 33.9878 11.8776 34.0517C11.7376 34.1157 11.5587 34.171 11.3407 34.2179L10.9841 34.1681C10.9522 34.1632 10.9259 34.157 10.9053 34.1494C10.8847 34.1419 10.8748 34.1337 10.8748 34.1248C10.8747 34.1127 10.9023 34.0989 10.9574 34.0834C11.0126 34.0679 11.0749 34.0487 11.1442 34.0257C11.2135 34.0029 11.2814 33.9759 11.3486 33.9447C11.415 33.9135 11.4595 33.8763 11.4826 33.833L9.17149 33.81C9.11077 33.8548 9.04227 33.8988 8.96738 33.9421C8.89178 33.9854 8.79208 34.0244 8.66756 34.0589C8.54303 34.0935 8.388 34.1216 8.2025 34.1432C8.01628 34.1648 7.78325 34.1762 7.50129 34.1776C7.28946 34.1787 7.08325 34.1706 6.88125 34.1535C6.67925 34.1364 6.49989 34.1107 6.34314 34.0766C6.18642 34.0424 6.05796 34.0001 5.95712 33.9498C5.85698 33.8994 5.80072 33.8416 5.78907 33.7761L5.16203 33.7697C5.10676 33.7693 5.05785 33.765 5.0139 33.7566C4.97065 33.7482 4.94862 33.7371 4.94855 33.7231L4.94824 33.6602L5.80555 33.6684C5.84346 33.6021 5.92112 33.5443 6.03991 33.4952C6.15869 33.4459 6.30371 33.4022 6.47498 33.3639L6.76209 33.4034C6.84928 33.4157 6.89258 33.4301 6.89266 33.4466C6.89271 33.4555 6.87504 33.4665 6.83897 33.4798C6.80221 33.493 6.75979 33.5088 6.71027 33.5271C6.66147 33.5455 6.6134 33.567 6.56747 33.5917C6.52083 33.6164 6.48626 33.6443 6.46303 33.6756L8.57011 33.6967ZM6.45503 33.7824C6.47225 33.8237 6.51067 33.8592 6.56892 33.889C6.62714 33.919 6.69953 33.9436 6.78677 33.9629C6.87401 33.9821 6.97185 33.9962 7.08029 34.0052C7.18944 34.0142 7.30352 34.0185 7.42253 34.0179C7.5614 34.0172 7.68252 34.0112 7.78589 33.9999C7.88857 33.9885 7.97919 33.9732 8.05774 33.9537C8.13558 33.9342 8.20418 33.9117 8.26216 33.886C8.32011 33.8603 8.37169 33.8324 8.41832 33.8023L6.45503 33.7824ZM11.4863 33.7261C11.4691 33.6843 11.4271 33.6477 11.3618 33.6162C11.2965 33.5848 11.2128 33.5583 11.1113 33.5369C11.0099 33.5154 10.8915 33.4995 10.7562 33.4891C10.6215 33.4786 10.4727 33.4738 10.3098 33.4746C10.1652 33.4753 10.0399 33.4818 9.93579 33.494C9.8317 33.5063 9.7411 33.5228 9.66397 33.5436C9.58757 33.5643 9.52178 33.5884 9.46879 33.616C9.41507 33.6435 9.36493 33.673 9.31904 33.7044L11.4863 33.7261Z" fill="#FCB048"/>
<path d="M9.20956 32.8623C6.19349 32.8623 3.0531 33.1285 2.55078 33.6439C2.57044 33.6621 2.58873 33.6815 2.60569 33.7019C3.02908 33.3441 5.62218 32.9838 9.20956 32.9838C12.8891 32.9838 15.5237 33.3629 15.8429 33.7295C15.8585 33.7094 15.8753 33.6902 15.8935 33.672C15.4786 33.1384 12.2792 32.8623 9.20956 32.8623Z" fill="url(#paint39_linear_3096_46342)"/>
<path d="M17.8974 34.7085L16.6748 35.5809C16.2797 35.8628 17.7149 38.567 19.8802 41.621C22.0456 44.6749 24.1212 46.9221 24.5163 46.6402L25.7389 45.7678L17.8974 34.7085Z" fill="url(#paint40_linear_3096_46342)"/>
<path d="M25.7389 45.7678C25.3439 46.0497 23.2682 43.8025 21.1029 40.7485C18.9375 37.6946 17.5024 34.9903 17.8974 34.7084C18.2925 34.4265 20.3682 36.6737 22.5335 39.7277C24.6989 42.7816 26.134 45.4859 25.7389 45.7678Z" fill="url(#paint41_linear_3096_46342)"/>
<path d="M21.0531 40.7834C19.1354 38.0787 17.3876 35.0668 17.8843 34.7124C17.9116 34.6929 17.9665 34.6684 17.9859 34.6958C18.0053 34.7232 17.9594 34.7382 17.9321 34.7576C17.6171 34.9824 18.862 37.4834 21.1518 40.713C23.4417 43.9425 25.3884 45.9427 25.7034 45.7179C25.7307 45.6984 25.7596 45.6849 25.779 45.7122C25.7984 45.7396 25.7573 45.759 25.73 45.7784C25.2334 46.1329 22.9709 43.4881 21.0531 40.7834Z" fill="url(#paint42_linear_3096_46342)"/>
<path d="M21.4073 39.7437C21.4832 39.7712 21.5611 39.8026 21.6413 39.8384C21.7212 39.8736 21.8106 39.9299 21.9085 40.0055C22.0068 40.0817 22.1168 40.1861 22.2388 40.3188C22.3608 40.4514 22.4999 40.6268 22.6553 40.8438C22.8079 41.0567 22.9432 41.262 23.0618 41.4601C23.1799 41.6576 23.2752 41.8384 23.3474 42.0017C23.4191 42.1644 23.4655 42.306 23.4863 42.4258C23.5065 42.5451 23.4952 42.6329 23.4522 42.6893L23.8873 43.3164C23.9191 43.3618 23.9438 43.4044 23.961 43.4437C23.9785 43.4835 23.9816 43.5067 23.9708 43.5145L23.9198 43.5512L23.36 42.7453C23.2775 42.7619 23.1695 42.7312 23.036 42.6533C22.9029 42.5759 22.7542 42.4617 22.5898 42.3106L22.4236 41.9903C22.409 41.9614 22.3989 41.9363 22.3931 41.9151C22.3873 41.8939 22.3882 41.881 22.3954 41.8758C22.4052 41.8688 22.4323 41.8833 22.4769 41.9195C22.5215 41.9556 22.5732 41.9953 22.632 42.0387C22.6907 42.0821 22.752 42.122 22.8163 42.1588C22.8801 42.1951 22.9361 42.2098 22.9847 42.2036L21.6638 40.301C21.5922 40.2774 21.5167 40.2469 21.4382 40.2107C21.3592 40.174 21.2698 40.1151 21.1695 40.0333C21.0692 39.9516 20.9566 39.8411 20.8315 39.702C20.706 39.5623 20.5617 39.3784 20.3971 39.1487C20.2735 38.9762 20.1605 38.8029 20.0573 38.6279C19.9541 38.4528 19.871 38.2913 19.8079 38.1434C19.7448 37.9954 19.7047 37.8659 19.6871 37.7543C19.67 37.6432 19.6844 37.5638 19.7308 37.5163L19.3726 37C19.3408 36.9546 19.316 36.9121 19.2974 36.8713C19.2791 36.8311 19.2754 36.8066 19.2867 36.7984L19.3376 36.7617L19.8279 37.4673C19.9037 37.4599 19.9956 37.4899 20.1044 37.5585C20.2132 37.6271 20.3329 37.7202 20.4633 37.838L20.5976 38.0957C20.6381 38.1741 20.6515 38.2178 20.6382 38.2274C20.6309 38.2326 20.6118 38.2246 20.5801 38.2028C20.5481 38.1804 20.5107 38.1548 20.4671 38.125C20.4238 38.0958 20.3785 38.0689 20.3318 38.0457C20.2847 38.0219 20.242 38.0098 20.2031 38.009L21.4073 39.7437ZM20.1117 38.0643C20.0881 38.1023 20.0816 38.1543 20.0911 38.2192C20.1005 38.2842 20.1225 38.3576 20.1574 38.4401C20.1923 38.5226 20.2376 38.6107 20.2931 38.7046C20.3491 38.799 20.4117 38.8948 20.4812 38.9917C20.5622 39.1048 20.6373 39.2004 20.7064 39.2783C20.7752 39.3557 20.8402 39.4209 20.9015 39.4738C20.9624 39.5261 21.0205 39.5692 21.075 39.6016C21.1295 39.6341 21.182 39.6601 21.2335 39.6808L20.1117 38.0643ZM23.0737 42.1447C23.0977 42.1064 23.1031 42.0508 23.0908 41.9792C23.0785 41.9076 23.0514 41.8238 23.01 41.7285C22.9687 41.6331 22.913 41.5271 22.843 41.4104C22.7734 41.2943 22.6911 41.1698 22.596 41.0371C22.5116 40.9193 22.4337 40.8206 22.3634 40.7426C22.2931 40.6647 22.2273 40.6001 22.1657 40.5491C22.1046 40.4987 22.0468 40.4589 21.9937 40.4316C21.9402 40.4036 21.8872 40.3797 21.835 40.3604L23.0737 42.1447Z" fill="#FCB048"/>
<path d="M22.4571 39.7833C20.7089 37.3178 18.6724 34.9049 17.9626 34.793C17.9592 34.8196 17.954 34.8458 17.9473 34.8715C18.4834 35.0102 20.2791 36.9211 22.3584 39.8538C24.4911 42.8617 25.7103 45.2352 25.5975 45.7086C25.6229 45.7097 25.6483 45.7123 25.6735 45.7166C25.8665 45.0681 24.2364 42.2927 22.4571 39.7833Z" fill="url(#paint43_linear_3096_46342)"/>
<path d="M36.5635 24.6298C36.6491 24.5608 36.7625 24.4481 36.8275 24.2806C36.8972 24.101 36.8482 24.021 36.9356 23.9088C37.0464 23.7665 37.2732 23.7053 37.4287 23.7748C37.4615 23.7895 37.5014 23.8099 37.5266 23.8525C37.5957 23.9696 37.4422 24.1725 37.3197 24.2806C37.2274 24.3619 37.1893 24.3559 37.0916 24.4251C36.9962 24.4926 36.8761 24.609 36.7795 24.8224L36.5635 24.6298Z" fill="url(#paint44_linear_3096_46342)"/>
<path d="M41.694 23.6472C41.5883 23.6172 41.4401 23.5578 41.315 23.429C41.181 23.2909 41.1951 23.1981 41.071 23.129C40.9136 23.0414 40.681 23.0738 40.5648 23.1987C40.5403 23.225 40.5115 23.2594 40.505 23.3085C40.4868 23.4434 40.7071 23.5701 40.8619 23.6216C40.9785 23.6604 41.0112 23.6399 41.1281 23.6654C41.2422 23.6902 41.3981 23.7504 41.57 23.9091L41.694 23.6472Z" fill="url(#paint45_linear_3096_46342)"/>
<path d="M41.2033 23.8135C41.1352 24.1389 41.4858 24.4283 41.7387 24.7125C42.2461 25.2826 42.7772 26.2999 42.5822 27.1729C42.4757 27.6498 42.1343 28.1654 41.6522 28.4098C41.1333 28.6728 40.8224 28.4335 40.2827 28.7459C40.2429 28.7689 39.5603 29.1749 39.5405 29.7228C39.516 30.3986 40.5066 31.1177 41.3545 31.1727C42.9053 31.2733 44.7738 29.2045 44.6867 27.1516C44.592 24.9167 42.1982 23.1427 41.5096 23.4435C41.4011 23.4909 41.2416 23.6304 41.2033 23.8135Z" fill="url(#paint46_linear_3096_46342)"/>
<path d="M40.5136 46.9555L40.458 47.5217L40.7209 47.4739L40.8976 46.9419L40.5136 46.9555Z" fill="url(#paint47_linear_3096_46342)"/>
<path d="M42.1151 36.4937C42.0878 37.499 41.9628 38.3595 41.8146 39.0619C41.6553 39.8176 41.5625 39.9481 41.5128 40.4706C41.4047 41.6077 41.7699 41.7704 41.837 43.0556C41.9111 44.4747 41.5349 45.6026 41.387 46.0329C41.2578 46.409 41.1225 46.7127 41.0207 46.9237C40.891 47.0371 40.6927 46.9936 40.4836 46.9509C40.4066 45.6638 40.3105 44.4524 40.2335 43.1652C39.9851 41.2289 39.7367 39.2926 39.4883 37.3563C40.3639 37.0687 41.2395 36.7812 42.1151 36.4937Z" fill="url(#paint48_linear_3096_46342)"/>
<path opacity="0.3" d="M40.4836 46.9509C40.4065 45.6638 40.3105 44.4524 40.2335 43.1652C39.9851 41.2289 39.7367 39.2926 39.4883 37.3563C40.3639 37.0687 41.2395 36.7812 42.1151 36.4937C42.1133 36.5602 42.1099 36.6244 42.1073 36.6898C40.8788 37.76 40.6384 38.6078 40.6504 39.1861C40.665 39.8874 41.0473 40.2351 40.9726 41.252C40.9192 41.9791 40.7013 42.1072 40.7014 42.7634C40.7015 43.6082 41.063 44.0833 41.239 44.5715C41.4092 45.0434 41.4697 45.7117 41.141 46.6623C41.0979 46.7605 41.0571 46.8483 41.0207 46.9237C40.891 47.0371 40.6927 46.9936 40.4836 46.9509Z" fill="url(#paint49_linear_3096_46342)"/>
<path d="M40.6114 47.715C40.7358 47.5602 40.8501 47.5716 40.8708 47.4666C40.8872 47.3842 40.8349 47.2846 40.7585 47.248C40.6511 47.1966 40.5243 47.2833 40.4956 47.3028C40.3009 47.4358 40.359 47.6361 40.1747 47.7274C40.1376 47.7458 40.0786 47.7657 40.0172 47.8259C39.9912 47.8515 39.9267 47.9148 39.943 47.9571C39.9619 48.006 40.0793 48.0018 40.1908 47.9977C40.3247 47.9929 40.3917 47.9905 40.4552 47.9488C40.5433 47.891 40.5153 47.8344 40.6114 47.715Z" fill="url(#paint50_linear_3096_46342)"/>
<path d="M40.3477 42.8709L40.8392 43.0639L40.9825 42.8377L40.5982 42.5786L40.3477 42.8709Z" fill="url(#paint51_linear_3096_46342)"/>
<path d="M41.0986 43.184C41.0697 42.9873 41.1555 42.9108 41.0927 42.8243C41.0434 42.7563 40.9351 42.7273 40.8564 42.7588C40.7459 42.803 40.7233 42.9553 40.7182 42.9897C40.6836 43.2235 40.8696 43.3165 40.8114 43.5143C40.7997 43.5541 40.7743 43.6111 40.7768 43.6972C40.7778 43.7337 40.7804 43.8242 40.8225 43.8408C40.8711 43.8601 40.9476 43.7707 41.0204 43.6858C41.1077 43.5838 41.1514 43.5329 41.1639 43.4578C41.1813 43.3536 41.1209 43.3358 41.0986 43.184Z" fill="url(#paint52_linear_3096_46342)"/>
<path d="M38.2203 35.5996C37.3046 37.4729 36.9936 39.035 36.876 40.055C36.8003 40.7108 36.8077 41.1165 36.996 41.524C37.6702 42.9829 40.0233 43.0793 40.3809 43.0894C40.4985 42.8477 40.6162 42.6061 40.7338 42.3644C40.5173 41.9616 40.1395 41.4023 39.4927 40.9942C38.9952 40.6804 38.8007 40.7475 38.6764 40.5366C38.1781 39.6904 40.8682 37.8578 40.4663 36.6377C40.3273 36.2157 39.7922 35.7877 38.2203 35.5996Z" fill="url(#paint53_linear_3096_46342)"/>
<path d="M40.2046 28.8657C39.215 29.0362 38.4616 29.2136 38.1252 29.7336C37.7699 30.2828 38.3348 30.6962 38.4884 31.9011C38.7236 33.7459 37.6663 34.435 37.9705 36.2925C38.0201 36.5956 38.0955 36.8655 38.1766 37.0959C38.3192 37.501 38.5959 37.842 38.9585 38.0706C39.2304 38.2421 39.5609 38.4146 39.9488 38.5508C40.9522 38.9029 41.4472 38.6982 42.7973 38.7756C45.0055 38.9022 45.3362 39.5447 46.3338 39.1496C47.3422 38.7503 48.0719 37.6713 47.8581 37.2102C47.73 36.9341 47.326 37.1065 46.7466 36.7675C45.9998 36.3306 46.1252 35.7343 45.5194 35.2228C44.6491 34.488 43.8119 35.23 43.0676 34.5911C42.3146 33.9448 42.2247 32.3731 42.5448 31.4375C42.7538 30.8264 42.7577 30.1618 42.9128 29.5348C42.9258 29.4827 42.9359 29.3996 42.9036 29.3053C42.7802 28.9449 42.1228 28.8758 41.6259 28.8281C40.8681 28.7555 40.286 28.8516 40.2046 28.8657Z" fill="url(#paint54_linear_3096_46342)"/>
<path opacity="0.3" d="M46.218 38.4497C45.9123 38.2454 46.0779 37.6659 45.625 37.3583C45.2047 37.0728 44.8769 37.4462 44.2575 37.2557C43.4631 37.0114 43.5046 36.2441 42.7433 35.9992C42.1958 35.8231 42.0307 36.1736 41.241 36.1888C40.4527 36.2039 39.4193 35.8775 38.7649 35.0392C38.4868 34.683 38.3315 34.303 38.2469 33.9517C38.0361 34.6348 37.8072 35.2952 37.9705 36.2922C38.0366 36.6957 38.1482 37.0402 38.2583 37.3112C38.3611 37.564 38.5344 37.7811 38.7578 37.9371C39.0619 38.1494 39.4598 38.3788 39.9488 38.5504C40.9522 38.9026 41.4472 38.6979 42.7973 38.7753C45.0056 38.9019 45.3362 39.5444 46.3338 39.1493C46.9783 38.8941 47.5075 38.3616 47.7507 37.8899C46.878 38.5268 46.4399 38.5981 46.218 38.4497Z" fill="url(#paint55_linear_3096_46342)"/>
<path d="M39.6329 27.1479C39.6329 27.1479 39.3602 27.6615 39.343 28.0219C39.3258 28.3822 39.7312 28.356 39.7312 28.356L39.7159 28.5834C39.703 28.7774 39.5774 28.9457 39.3954 29.0128L39.2354 29.0718C39.2354 29.0718 40.2795 29.2961 40.8496 28.892L40.6853 28.8759C40.4527 28.853 40.2683 28.6688 40.2446 28.4355L40.2346 28.3382C40.2346 28.3382 40.4158 27.2149 39.6329 27.1479Z" fill="url(#paint56_linear_3096_46342)"/>
<path d="M37.0621 24.7324C37.217 25.0263 36.9596 25.4015 36.7946 25.7447C36.4636 26.4331 36.2328 27.5578 36.6602 28.343C36.8937 28.7719 37.3636 29.1731 37.8942 29.2746C38.4653 29.3839 38.6983 29.0679 39.303 29.2188C39.3476 29.2299 40.1153 29.4313 40.285 29.9524C40.4943 30.5953 39.7398 31.5605 38.94 31.848C37.477 32.3738 35.1122 30.9022 34.6315 28.9048C34.1082 26.7303 35.9214 24.3629 36.666 24.4615C36.7832 24.477 36.9749 24.567 37.0621 24.7324Z" fill="url(#paint57_linear_3096_46342)"/>
<path d="M39.7963 27.6581C39.8503 27.6537 39.8949 27.585 39.9318 27.6054C39.9706 27.6267 39.9663 27.7268 39.9326 27.7971C39.9049 27.8547 39.8598 27.8872 39.8347 27.9024C39.8764 27.9603 39.9295 28.0502 39.9516 28.1679C40.0005 28.4282 39.8625 28.6376 39.8052 28.7602C39.5466 29.3125 39.9489 30.1857 40.3904 30.6267C40.7493 30.9852 40.9167 30.8411 41.1309 31.1338C41.5479 31.7036 40.9724 32.33 41.188 33.0969C41.5159 34.2631 43.3515 34.61 43.4276 34.6234C43.4576 34.6287 43.4777 34.6321 43.5089 34.637C44.3323 34.7683 45.5804 34.9672 46.4593 34.2892C47.1169 33.7819 47.4185 32.899 47.3687 32.1214C47.3556 31.9169 47.2938 31.1404 46.6631 30.5066C46.563 30.4061 45.9703 29.8118 45.1692 29.8046C44.745 29.8008 44.6594 29.9508 44.335 29.858C43.8908 29.7311 43.6172 29.326 43.4474 29.0747C43.1352 28.6124 43.2621 28.5137 43.0375 28.2863C42.5973 27.8409 42.0809 28.1907 41.6108 27.7976C41.1474 27.4101 41.427 26.8844 40.9796 26.549C40.5182 26.2031 39.6355 26.3239 39.4473 26.7358C39.2856 27.0898 39.6309 27.6718 39.7963 27.6581Z" fill="url(#paint58_linear_3096_46342)"/>
<defs>
<linearGradient id="paint0_linear_3096_46342" x1="49.4343" y1="24.1844" x2="7.05907" y2="51.3745" gradientUnits="userSpaceOnUse">
<stop offset="0.0036" stop-color="#E38DDD"/>
<stop offset="1" stop-color="#9571F6"/>
</linearGradient>
<linearGradient id="paint1_linear_3096_46342" x1="42.4922" y1="7.79263" x2="36.8384" y2="38.3289" gradientUnits="userSpaceOnUse">
<stop stop-color="#FF9085"/>
<stop offset="1" stop-color="#FB6FBB"/>
</linearGradient>
<linearGradient id="paint2_linear_3096_46342" x1="12.6146" y1="49.9907" x2="40.4774" y2="-3.10387" gradientUnits="userSpaceOnUse">
<stop stop-color="#444B8C"/>
<stop offset="0.9964" stop-color="#26264F"/>
</linearGradient>
<linearGradient id="paint3_linear_3096_46342" x1="-4.35994" y1="84.757" x2="23.5029" y2="31.6625" gradientUnits="userSpaceOnUse">
<stop stop-color="#AA80F9"/>
<stop offset="0.9964" stop-color="#6165D7"/>
</linearGradient>
<linearGradient id="paint4_linear_3096_46342" x1="36.4588" y1="14.3613" x2="-11.9658" y2="67.7597" gradientUnits="userSpaceOnUse">
<stop stop-color="#AA80F9"/>
<stop offset="0.9964" stop-color="#6165D7"/>
</linearGradient>
<linearGradient id="paint5_linear_3096_46342" x1="8.33301" y1="25.633" x2="37.4946" y2="25.633" gradientUnits="userSpaceOnUse">
<stop stop-color="#AA80F9"/>
<stop offset="0.9964" stop-color="#6165D7"/>
</linearGradient>
<linearGradient id="paint6_linear_3096_46342" x1="11.6803" y1="27.1663" x2="30.4808" y2="1.48212" gradientUnits="userSpaceOnUse">
<stop stop-color="#FCB148"/>
<stop offset="0.0521" stop-color="#FDBA46"/>
<stop offset="0.1424" stop-color="#FFC244"/>
<stop offset="0.3183" stop-color="#FFC444"/>
<stop offset="0.4849" stop-color="#FDB946"/>
<stop offset="0.7754" stop-color="#F99C4D"/>
<stop offset="0.8658" stop-color="#F8924F"/>
<stop offset="1" stop-color="#F8924F"/>
</linearGradient>
<linearGradient id="paint7_linear_3096_46342" x1="26.8958" y1="14.7902" x2="33.8457" y2="5.29572" gradientUnits="userSpaceOnUse">
<stop stop-color="#FCB148"/>
<stop offset="0.0521" stop-color="#FDBA46"/>
<stop offset="0.1424" stop-color="#FFC244"/>
<stop offset="0.3183" stop-color="#FFC444"/>
<stop offset="0.4849" stop-color="#FDB946"/>
<stop offset="0.7754" stop-color="#F99C4D"/>
<stop offset="0.8658" stop-color="#F8924F"/>
<stop offset="1" stop-color="#F8924F"/>
</linearGradient>
<linearGradient id="paint8_linear_3096_46342" x1="2.39035" y1="46.0225" x2="17.9541" y2="46.0225" gradientUnits="userSpaceOnUse">
<stop stop-color="#FCB148"/>
<stop offset="0.0521" stop-color="#FDBA46"/>
<stop offset="0.1424" stop-color="#FFC244"/>
<stop offset="0.3183" stop-color="#FFC444"/>
<stop offset="0.4849" stop-color="#FDB946"/>
<stop offset="0.7754" stop-color="#F99C4D"/>
<stop offset="0.8658" stop-color="#F8924F"/>
<stop offset="1" stop-color="#F8924F"/>
</linearGradient>
<linearGradient id="paint9_linear_3096_46342" x1="10.2438" y1="44.2634" x2="11.0694" y2="51.1535" gradientUnits="userSpaceOnUse">
<stop stop-color="#FFDB44"/>
<stop offset="1" stop-color="#FEEF06"/>
</linearGradient>
<linearGradient id="paint10_linear_3096_46342" x1="10.2081" y1="43.956" x2="10.4617" y2="46.0721" gradientUnits="userSpaceOnUse">
<stop stop-color="#FFDB44"/>
<stop offset="1" stop-color="#FEEF06"/>
</linearGradient>
<linearGradient id="paint11_linear_3096_46342" x1="10.445" y1="45.8509" x2="10.1923" y2="43.7423" gradientUnits="userSpaceOnUse">
<stop offset="0.0036" stop-color="#F36F56"/>
<stop offset="0.3059" stop-color="#F99C4C"/>
<stop offset="0.545" stop-color="#FDB946"/>
<stop offset="0.6817" stop-color="#FFC444"/>
<stop offset="0.8038" stop-color="#FFC244"/>
<stop offset="0.8667" stop-color="#FEBA46"/>
<stop offset="0.916" stop-color="#FCAD49"/>
<stop offset="0.958" stop-color="#F99A4D"/>
<stop offset="0.9955" stop-color="#F58152"/>
<stop offset="1" stop-color="#F57E53"/>
</linearGradient>
<linearGradient id="paint12_linear_3096_46342" x1="0.508516" y1="44.4419" x2="16.0723" y2="44.4419" gradientUnits="userSpaceOnUse">
<stop stop-color="#FCB148"/>
<stop offset="0.0521" stop-color="#FDBA46"/>
<stop offset="0.1424" stop-color="#FFC244"/>
<stop offset="0.3183" stop-color="#FFC444"/>
<stop offset="0.4849" stop-color="#FDB946"/>
<stop offset="0.7754" stop-color="#F99C4D"/>
<stop offset="0.8658" stop-color="#F8924F"/>
<stop offset="1" stop-color="#F8924F"/>
</linearGradient>
<linearGradient id="paint13_linear_3096_46342" x1="8.36192" y1="42.6829" x2="9.1876" y2="49.573" gradientUnits="userSpaceOnUse">
<stop stop-color="#FFDB44"/>
<stop offset="1" stop-color="#FEEF06"/>
</linearGradient>
<linearGradient id="paint14_linear_3096_46342" x1="8.32725" y1="42.376" x2="8.58083" y2="44.492" gradientUnits="userSpaceOnUse">
<stop stop-color="#FFDB44"/>
<stop offset="1" stop-color="#FEEF06"/>
</linearGradient>
<linearGradient id="paint15_linear_3096_46342" x1="8.56414" y1="44.2703" x2="8.31147" y2="42.1618" gradientUnits="userSpaceOnUse">
<stop offset="0.0036" stop-color="#F36F56"/>
<stop offset="0.3059" stop-color="#F99C4C"/>
<stop offset="0.545" stop-color="#FDB946"/>
<stop offset="0.6817" stop-color="#FFC444"/>
<stop offset="0.8038" stop-color="#FFC244"/>
<stop offset="0.8667" stop-color="#FEBA46"/>
<stop offset="0.916" stop-color="#FCAD49"/>
<stop offset="0.958" stop-color="#F99A4D"/>
<stop offset="0.9955" stop-color="#F58152"/>
<stop offset="1" stop-color="#F57E53"/>
</linearGradient>
<linearGradient id="paint16_linear_3096_46342" x1="2.13253" y1="42.8652" x2="17.6963" y2="42.8652" gradientUnits="userSpaceOnUse">
<stop stop-color="#FCB148"/>
<stop offset="0.0521" stop-color="#FDBA46"/>
<stop offset="0.1424" stop-color="#FFC244"/>
<stop offset="0.3183" stop-color="#FFC444"/>
<stop offset="0.4849" stop-color="#FDB946"/>
<stop offset="0.7754" stop-color="#F99C4D"/>
<stop offset="0.8658" stop-color="#F8924F"/>
<stop offset="1" stop-color="#F8924F"/>
</linearGradient>
<linearGradient id="paint17_linear_3096_46342" x1="9.98597" y1="41.1062" x2="10.8116" y2="47.9963" gradientUnits="userSpaceOnUse">
<stop stop-color="#FFDB44"/>
<stop offset="1" stop-color="#FEEF06"/>
</linearGradient>
<linearGradient id="paint18_linear_3096_46342" x1="9.95029" y1="40.7988" x2="10.2039" y2="42.9149" gradientUnits="userSpaceOnUse">
<stop stop-color="#FFDB44"/>
<stop offset="1" stop-color="#FEEF06"/>
</linearGradient>
<linearGradient id="paint19_linear_3096_46342" x1="10.1872" y1="42.6932" x2="9.93452" y2="40.5846" gradientUnits="userSpaceOnUse">
<stop offset="0.0036" stop-color="#F36F56"/>
<stop offset="0.3059" stop-color="#F99C4C"/>
<stop offset="0.545" stop-color="#FDB946"/>
<stop offset="0.6817" stop-color="#FFC444"/>
<stop offset="0.8038" stop-color="#FFC244"/>
<stop offset="0.8667" stop-color="#FEBA46"/>
<stop offset="0.916" stop-color="#FCAD49"/>
<stop offset="0.958" stop-color="#F99A4D"/>
<stop offset="0.9955" stop-color="#F58152"/>
<stop offset="1" stop-color="#F57E53"/>
</linearGradient>
<linearGradient id="paint20_linear_3096_46342" x1="3.11691" y1="41.2842" x2="18.6807" y2="41.2842" gradientUnits="userSpaceOnUse">
<stop stop-color="#FCB148"/>
<stop offset="0.0521" stop-color="#FDBA46"/>
<stop offset="0.1424" stop-color="#FFC244"/>
<stop offset="0.3183" stop-color="#FFC444"/>
<stop offset="0.4849" stop-color="#FDB946"/>
<stop offset="0.7754" stop-color="#F99C4D"/>
<stop offset="0.8658" stop-color="#F8924F"/>
<stop offset="1" stop-color="#F8924F"/>
</linearGradient>
<linearGradient id="paint21_linear_3096_46342" x1="10.9703" y1="39.5252" x2="11.796" y2="46.4153" gradientUnits="userSpaceOnUse">
<stop stop-color="#FFDB44"/>
<stop offset="1" stop-color="#FEEF06"/>
</linearGradient>
<linearGradient id="paint22_linear_3096_46342" x1="10.9347" y1="39.2178" x2="11.1883" y2="41.3338" gradientUnits="userSpaceOnUse">
<stop stop-color="#FFDB44"/>
<stop offset="1" stop-color="#FEEF06"/>
</linearGradient>
<linearGradient id="paint23_linear_3096_46342" x1="11.1716" y1="41.1126" x2="10.9189" y2="39.0041" gradientUnits="userSpaceOnUse">
<stop offset="0.0036" stop-color="#F36F56"/>
<stop offset="0.3059" stop-color="#F99C4C"/>
<stop offset="0.545" stop-color="#FDB946"/>
<stop offset="0.6817" stop-color="#FFC444"/>
<stop offset="0.8038" stop-color="#FFC244"/>
<stop offset="0.8667" stop-color="#FEBA46"/>
<stop offset="0.916" stop-color="#FCAD49"/>
<stop offset="0.958" stop-color="#F99A4D"/>
<stop offset="0.9955" stop-color="#F58152"/>
<stop offset="1" stop-color="#F57E53"/>
</linearGradient>
<linearGradient id="paint24_linear_3096_46342" x1="2.39035" y1="39.5786" x2="17.9541" y2="39.5786" gradientUnits="userSpaceOnUse">
<stop stop-color="#FCB148"/>
<stop offset="0.0521" stop-color="#FDBA46"/>
<stop offset="0.1424" stop-color="#FFC244"/>
<stop offset="0.3183" stop-color="#FFC444"/>
<stop offset="0.4849" stop-color="#FDB946"/>
<stop offset="0.7754" stop-color="#F99C4D"/>
<stop offset="0.8658" stop-color="#F8924F"/>
<stop offset="1" stop-color="#F8924F"/>
</linearGradient>
<linearGradient id="paint25_linear_3096_46342" x1="10.2438" y1="37.8196" x2="11.0694" y2="44.7097" gradientUnits="userSpaceOnUse">
<stop stop-color="#FFDB44"/>
<stop offset="1" stop-color="#FEEF06"/>
</linearGradient>
<linearGradient id="paint26_linear_3096_46342" x1="10.2081" y1="37.5122" x2="10.4617" y2="39.6283" gradientUnits="userSpaceOnUse">
<stop stop-color="#FFDB44"/>
<stop offset="1" stop-color="#FEEF06"/>
</linearGradient>
<linearGradient id="paint27_linear_3096_46342" x1="10.445" y1="39.407" x2="10.1923" y2="37.2985" gradientUnits="userSpaceOnUse">
<stop offset="0.0036" stop-color="#F36F56"/>
<stop offset="0.3059" stop-color="#F99C4C"/>
<stop offset="0.545" stop-color="#FDB946"/>
<stop offset="0.6817" stop-color="#FFC444"/>
<stop offset="0.8038" stop-color="#FFC244"/>
<stop offset="0.8667" stop-color="#FEBA46"/>
<stop offset="0.916" stop-color="#FCAD49"/>
<stop offset="0.958" stop-color="#F99A4D"/>
<stop offset="0.9955" stop-color="#F58152"/>
<stop offset="1" stop-color="#F57E53"/>
</linearGradient>
<linearGradient id="paint28_linear_3096_46342" x1="0.508516" y1="37.998" x2="16.0723" y2="37.998" gradientUnits="userSpaceOnUse">
<stop stop-color="#FCB148"/>
<stop offset="0.0521" stop-color="#FDBA46"/>
<stop offset="0.1424" stop-color="#FFC244"/>
<stop offset="0.3183" stop-color="#FFC444"/>
<stop offset="0.4849" stop-color="#FDB946"/>
<stop offset="0.7754" stop-color="#F99C4D"/>
<stop offset="0.8658" stop-color="#F8924F"/>
<stop offset="1" stop-color="#F8924F"/>
</linearGradient>
<linearGradient id="paint29_linear_3096_46342" x1="8.36192" y1="36.239" x2="9.1876" y2="43.1292" gradientUnits="userSpaceOnUse">
<stop stop-color="#FFDB44"/>
<stop offset="1" stop-color="#FEEF06"/>
</linearGradient>
<linearGradient id="paint30_linear_3096_46342" x1="8.32725" y1="35.9316" x2="8.58084" y2="38.0477" gradientUnits="userSpaceOnUse">
<stop stop-color="#FFDB44"/>
<stop offset="1" stop-color="#FEEF06"/>
</linearGradient>
<linearGradient id="paint31_linear_3096_46342" x1="8.56414" y1="37.826" x2="8.31147" y2="35.7174" gradientUnits="userSpaceOnUse">
<stop offset="0.0036" stop-color="#F36F56"/>
<stop offset="0.3059" stop-color="#F99C4C"/>
<stop offset="0.545" stop-color="#FDB946"/>
<stop offset="0.6817" stop-color="#FFC444"/>
<stop offset="0.8038" stop-color="#FFC244"/>
<stop offset="0.8667" stop-color="#FEBA46"/>
<stop offset="0.916" stop-color="#FCAD49"/>
<stop offset="0.958" stop-color="#F99A4D"/>
<stop offset="0.9955" stop-color="#F58152"/>
<stop offset="1" stop-color="#F57E53"/>
</linearGradient>
<linearGradient id="paint32_linear_3096_46342" x1="2.13253" y1="36.4214" x2="17.6963" y2="36.4214" gradientUnits="userSpaceOnUse">
<stop stop-color="#FCB148"/>
<stop offset="0.0521" stop-color="#FDBA46"/>
<stop offset="0.1424" stop-color="#FFC244"/>
<stop offset="0.3183" stop-color="#FFC444"/>
<stop offset="0.4849" stop-color="#FDB946"/>
<stop offset="0.7754" stop-color="#F99C4D"/>
<stop offset="0.8658" stop-color="#F8924F"/>
<stop offset="1" stop-color="#F8924F"/>
</linearGradient>
<linearGradient id="paint33_linear_3096_46342" x1="9.98595" y1="34.6624" x2="10.8116" y2="41.5525" gradientUnits="userSpaceOnUse">
<stop stop-color="#FFDB44"/>
<stop offset="1" stop-color="#FEEF06"/>
</linearGradient>
<linearGradient id="paint34_linear_3096_46342" x1="9.95029" y1="34.355" x2="10.2039" y2="36.471" gradientUnits="userSpaceOnUse">
<stop stop-color="#FFDB44"/>
<stop offset="1" stop-color="#FEEF06"/>
</linearGradient>
<linearGradient id="paint35_linear_3096_46342" x1="10.1872" y1="36.2498" x2="9.93452" y2="34.1413" gradientUnits="userSpaceOnUse">
<stop offset="0.0036" stop-color="#F36F56"/>
<stop offset="0.3059" stop-color="#F99C4C"/>
<stop offset="0.545" stop-color="#FDB946"/>
<stop offset="0.6817" stop-color="#FFC444"/>
<stop offset="0.8038" stop-color="#FFC244"/>
<stop offset="0.8667" stop-color="#FEBA46"/>
<stop offset="0.916" stop-color="#FCAD49"/>
<stop offset="0.958" stop-color="#F99A4D"/>
<stop offset="0.9955" stop-color="#F58152"/>
<stop offset="1" stop-color="#F57E53"/>
</linearGradient>
<linearGradient id="paint36_linear_3096_46342" x1="1.28684" y1="34.8403" x2="16.8506" y2="34.8403" gradientUnits="userSpaceOnUse">
<stop stop-color="#FCB148"/>
<stop offset="0.0521" stop-color="#FDBA46"/>
<stop offset="0.1424" stop-color="#FFC244"/>
<stop offset="0.3183" stop-color="#FFC444"/>
<stop offset="0.4849" stop-color="#FDB946"/>
<stop offset="0.7754" stop-color="#F99C4D"/>
<stop offset="0.8658" stop-color="#F8924F"/>
<stop offset="1" stop-color="#F8924F"/>
</linearGradient>
<linearGradient id="paint37_linear_3096_46342" x1="9.14025" y1="33.0813" x2="9.96592" y2="39.9714" gradientUnits="userSpaceOnUse">
<stop stop-color="#FFDB44"/>
<stop offset="1" stop-color="#FEEF06"/>
</linearGradient>
<linearGradient id="paint38_linear_3096_46342" x1="9.10558" y1="32.7739" x2="9.35915" y2="34.89" gradientUnits="userSpaceOnUse">
<stop stop-color="#FFDB44"/>
<stop offset="1" stop-color="#FEEF06"/>
</linearGradient>
<linearGradient id="paint39_linear_3096_46342" x1="9.34247" y1="34.6688" x2="9.0898" y2="32.5602" gradientUnits="userSpaceOnUse">
<stop offset="0.0036" stop-color="#F36F56"/>
<stop offset="0.3059" stop-color="#F99C4C"/>
<stop offset="0.545" stop-color="#FDB946"/>
<stop offset="0.6817" stop-color="#FFC444"/>
<stop offset="0.8038" stop-color="#FFC244"/>
<stop offset="0.8667" stop-color="#FEBA46"/>
<stop offset="0.916" stop-color="#FCAD49"/>
<stop offset="0.958" stop-color="#F99A4D"/>
<stop offset="0.9955" stop-color="#F58152"/>
<stop offset="1" stop-color="#F57E53"/>
</linearGradient>
<linearGradient id="paint40_linear_3096_46342" x1="16.2584" y1="34.4542" x2="25.3174" y2="47.1504" gradientUnits="userSpaceOnUse">
<stop stop-color="#FCB148"/>
<stop offset="0.0521" stop-color="#FDBA46"/>
<stop offset="0.1424" stop-color="#FFC244"/>
<stop offset="0.3183" stop-color="#FFC444"/>
<stop offset="0.4849" stop-color="#FDB946"/>
<stop offset="0.7754" stop-color="#F99C4D"/>
<stop offset="0.8658" stop-color="#F8924F"/>
<stop offset="1" stop-color="#F8924F"/>
</linearGradient>
<linearGradient id="paint41_linear_3096_46342" x1="22.2388" y1="39.8551" x2="17.1028" y2="44.5029" gradientUnits="userSpaceOnUse">
<stop stop-color="#FFDB44"/>
<stop offset="1" stop-color="#FEEF06"/>
</linearGradient>
<linearGradient id="paint42_linear_3096_46342" x1="22.4672" y1="39.6476" x2="20.89" y2="41.0749" gradientUnits="userSpaceOnUse">
<stop stop-color="#FFDB44"/>
<stop offset="1" stop-color="#FEEF06"/>
</linearGradient>
<linearGradient id="paint43_linear_3096_46342" x1="21.0669" y1="40.9389" x2="22.6386" y2="39.5166" gradientUnits="userSpaceOnUse">
<stop offset="0.0036" stop-color="#F36F56"/>
<stop offset="0.3059" stop-color="#F99C4C"/>
<stop offset="0.545" stop-color="#FDB946"/>
<stop offset="0.6817" stop-color="#FFC444"/>
<stop offset="0.8038" stop-color="#FFC244"/>
<stop offset="0.8667" stop-color="#FEBA46"/>
<stop offset="0.916" stop-color="#FCAD49"/>
<stop offset="0.958" stop-color="#F99A4D"/>
<stop offset="0.9955" stop-color="#F58152"/>
<stop offset="1" stop-color="#F57E53"/>
</linearGradient>
<linearGradient id="paint44_linear_3096_46342" x1="37.0137" y1="24.0346" x2="37.2714" y2="25.5323" gradientUnits="userSpaceOnUse">
<stop stop-color="#FFC444"/>
<stop offset="0.9964" stop-color="#F36F56"/>
</linearGradient>
<linearGradient id="paint45_linear_3096_46342" x1="41.048" y1="23.2754" x2="41.3969" y2="24.7544" gradientUnits="userSpaceOnUse">
<stop stop-color="#FFC444"/>
<stop offset="0.9964" stop-color="#F36F56"/>
</linearGradient>
<linearGradient id="paint46_linear_3096_46342" x1="41.773" y1="25.331" x2="43.0824" y2="37.1959" gradientUnits="userSpaceOnUse">
<stop stop-color="#FF9085"/>
<stop offset="1" stop-color="#FB6FBB"/>
</linearGradient>
<linearGradient id="paint47_linear_3096_46342" x1="40.7124" y1="48.2188" x2="40.5171" y2="42.6902" gradientUnits="userSpaceOnUse">
<stop stop-color="#FFC444"/>
<stop offset="0.9964" stop-color="#F36F56"/>
</linearGradient>
<linearGradient id="paint48_linear_3096_46342" x1="40.8537" y1="37.5787" x2="41.6628" y2="47.6867" gradientUnits="userSpaceOnUse">
<stop stop-color="#311944"/>
<stop offset="1" stop-color="#893976"/>
</linearGradient>
<linearGradient id="paint49_linear_3096_46342" x1="40.8537" y1="37.5787" x2="41.6628" y2="47.6867" gradientUnits="userSpaceOnUse">
<stop stop-color="#311944"/>
<stop offset="1" stop-color="#893976"/>
</linearGradient>
<linearGradient id="paint50_linear_3096_46342" x1="40.2571" y1="48.2635" x2="41.0769" y2="45.1824" gradientUnits="userSpaceOnUse">
<stop stop-color="#FF9085"/>
<stop offset="1" stop-color="#FB6FBB"/>
</linearGradient>
<linearGradient id="paint51_linear_3096_46342" x1="41.3411" y1="43.4376" x2="37.626" y2="40.2521" gradientUnits="userSpaceOnUse">
<stop stop-color="#FFC444"/>
<stop offset="0.9964" stop-color="#F36F56"/>
</linearGradient>
<linearGradient id="paint52_linear_3096_46342" x1="41.26" y1="43.8173" x2="39.5476" y2="41.1305" gradientUnits="userSpaceOnUse">
<stop stop-color="#FF9085"/>
<stop offset="1" stop-color="#FB6FBB"/>
</linearGradient>
<linearGradient id="paint53_linear_3096_46342" x1="44.6087" y1="39.587" x2="35.1962" y2="39.1605" gradientUnits="userSpaceOnUse">
<stop stop-color="#311944"/>
<stop offset="1" stop-color="#893976"/>
</linearGradient>
<linearGradient id="paint54_linear_3096_46342" x1="40.8686" y1="24.7468" x2="43.2238" y2="38.4354" gradientUnits="userSpaceOnUse">
<stop stop-color="#FF9085"/>
<stop offset="1" stop-color="#FB6FBB"/>
</linearGradient>
<linearGradient id="paint55_linear_3096_46342" x1="37.1779" y1="30.1535" x2="43.6148" y2="38.3758" gradientUnits="userSpaceOnUse">
<stop stop-color="#FF9085"/>
<stop offset="1" stop-color="#FB6FBB"/>
</linearGradient>
<linearGradient id="paint56_linear_3096_46342" x1="39.4177" y1="27.8711" x2="40.5344" y2="29.5377" gradientUnits="userSpaceOnUse">
<stop stop-color="#FFC444"/>
<stop offset="0.9964" stop-color="#F36F56"/>
</linearGradient>
<linearGradient id="paint57_linear_3096_46342" x1="36.9317" y1="26.3487" x2="38.9556" y2="38.1121" gradientUnits="userSpaceOnUse">
<stop stop-color="#FF9085"/>
<stop offset="1" stop-color="#FB6FBB"/>
</linearGradient>
<linearGradient id="paint58_linear_3096_46342" x1="45.511" y1="34.8139" x2="40.9154" y2="25.8606" gradientUnits="userSpaceOnUse">
<stop stop-color="#444B8C"/>
<stop offset="0.9964" stop-color="#26264F"/>
</linearGradient>
</defs>
</svg>
