<svg width="20" height="20" viewBox="0 0 20 20" fill="none" xmlns="http://www.w3.org/2000/svg">
  <path
    d="M4.678 13.6737C4.7818 13.7854 4.86133 13.9202 4.91094 14.0686C4.96055 14.2169 4.97901 14.3752 4.965 14.5321C4.89455 15.2581 4.76131 15.9756 4.567 16.6752C5.962 16.3291 6.814 15.9283 7.201 15.7183C7.4205 15.5992 7.67329 15.5709 7.911 15.639C8.5923 15.8344 9.29472 15.9324 10 15.9305C13.996 15.9305 17 12.9226 17 9.50103C17 6.07949 13.996 3.07158 10 3.07158C6.004 3.07158 3 6.08056 3 9.50103C3 11.0741 3.617 12.5336 4.678 13.6737ZM4.185 17.8582C3.94806 17.9085 3.71036 17.9546 3.472 17.9965C3.272 18.0308 3.12 17.8079 3.199 17.6086C3.28755 17.3841 3.36893 17.1564 3.443 16.926L3.446 16.9153C3.694 16.1437 3.896 15.2565 3.97 14.4303C2.743 13.1122 2 11.387 2 9.50103C2 5.35832 5.582 2 10 2C14.418 2 18 5.35832 18 9.50103C18 13.6437 14.418 17.0021 10 17.0021C9.20761 17.0039 8.41845 16.8937 7.653 16.6742C7.133 16.956 6.014 17.4693 4.185 17.8582Z"
    fill="currentColor" style="mix-blend-mode:multiply" />
</svg>