<svg width="20" height="18" viewBox="0 0 20 18" fill="none" xmlns="http://www.w3.org/2000/svg">
<path fill-rule="evenodd" clip-rule="evenodd" d="M7.894 13.002L8.12147 16.576C8.20082 17.38 9.04673 17.9293 9.82534 17.4902C12.0104 16.257 14.0168 14.7188 15.9553 13.1321C17.1732 12.1172 18.3535 11.0504 19.4496 9.90374C19.9118 9.41996 19.9575 8.6189 19.4737 8.11244C18.3603 6.94706 16.7862 5.48751 14.8271 3.94049C13.2394 2.69825 11.597 1.53773 9.8571 0.518564C9.02031 0.0417156 8.19023 0.695995 8.11406 1.49112L7.891 5.05196C3.37372 5.52394 0 9.50946 0 14C0 16.6753 1.06759 16.4113 2.91368 14.8247C4.31999 13.6644 6.07832 13.0402 7.894 13.002ZM2.0752 12.9432C3.66428 11.7724 5.57206 11.0906 7.58686 11.0084L7.60656 11.0076L9.31104 10.9716C9.58058 10.966 9.80609 11.175 9.82083 11.4442L10.0177 15.0397C11.6209 14.0186 13.1491 12.8442 14.6817 11.5901C15.6714 10.765 16.6261 9.90365 17.5391 8.99456C16.5348 7.99009 15.2038 6.78654 13.5911 5.51285C12.4254 4.60097 11.2427 3.74514 10.0229 2.96524L9.83136 6.43709C9.81783 6.68226 9.62829 6.88133 9.38408 6.90684L8.02268 7.04909C4.95767 7.41483 2.52633 9.81108 2.0752 12.9432Z" fill="rgba(22, 28, 36, 0.64)"/>
</svg>