<svg id="svg" version="1.1" xmlns="http://www.w3.org/2000/svg" xmlns:xlink="http://www.w3.org/1999/xlink" width="400" height="400" viewBox="0, 0, 400,400"><g id="svgg"><path id="path0" d="M192.800 41.438 C 123.118 46.194,67.561 89.560,48.061 154.417 C 15.038 264.254,106.675 372.045,220.600 357.371 C 322.716 344.217,385.374 237.606,347.500 141.453 C 323.060 79.403,257.506 37.022,192.800 41.438 M215.582 43.038 C 285.384 49.637,343.315 103.254,355.352 172.400 C 374.157 280.425,280.523 374.179,172.600 355.386 C 82.463 339.691,24.442 249.641,47.163 160.704 C 66.387 85.455,137.646 35.670,215.582 43.038 " stroke="none" fill="#282140" fill-rule="evenodd"></path><path id="path1" d="M0.000 200.000 L 0.000 400.000 200.000 400.000 L 400.000 400.000 400.000 200.000 L 400.000 0.000 200.000 0.000 L 0.000 0.000 0.000 200.000 M214.200 41.628 C 243.045 43.990,271.802 54.909,294.899 72.270 C 297.043 73.881,298.863 75.200,298.943 75.200 C 299.023 75.200,299.758 75.832,300.576 76.604 C 301.395 77.376,302.258 77.888,302.494 77.742 C 302.730 77.596,302.810 77.660,302.672 77.884 C 302.533 78.108,303.360 79.076,304.510 80.035 C 312.631 86.809,324.072 99.553,330.873 109.401 C 363.168 156.166,368.098 218.010,343.564 268.600 C 342.177 271.460,341.059 274.037,341.081 274.327 C 341.102 274.616,341.019 274.753,340.896 274.630 C 340.773 274.507,339.563 276.340,338.207 278.703 C 334.417 285.309,328.976 293.877,327.985 294.800 C 327.867 294.910,326.040 297.169,323.924 299.819 C 321.808 302.470,319.792 304.875,319.443 305.164 C 319.094 305.454,318.910 305.855,319.034 306.055 C 319.158 306.256,319.111 306.377,318.930 306.325 C 318.318 306.149,307.112 317.901,307.671 318.132 C 307.962 318.251,307.750 318.316,307.200 318.275 C 306.496 318.222,306.239 318.377,306.333 318.800 C 306.407 319.130,306.341 319.275,306.188 319.121 C 306.035 318.968,304.265 320.230,302.255 321.925 C 252.253 364.099,180.618 371.051,123.200 339.303 C 113.557 333.971,98.101 323.228,96.616 320.826 C 96.467 320.585,96.132 320.509,95.872 320.658 C 95.613 320.806,95.522 320.792,95.671 320.626 C 95.820 320.460,95.280 319.769,94.471 319.091 C 91.479 316.580,84.622 309.675,81.075 305.600 C 79.065 303.290,77.322 301.310,77.201 301.200 C 73.455 297.775,63.683 282.728,57.718 271.200 C 35.166 227.616,35.529 170.348,58.631 127.090 C 60.265 124.030,61.483 121.318,61.337 121.063 C 61.191 120.809,61.221 120.736,61.404 120.901 C 61.857 121.312,63.718 118.114,63.361 117.537 C 63.198 117.273,63.251 117.184,63.486 117.330 C 63.712 117.469,64.578 116.462,65.411 115.092 C 72.467 103.480,85.927 87.881,96.273 79.325 C 97.633 78.200,98.623 77.143,98.473 76.976 C 98.323 76.808,98.417 76.796,98.682 76.949 C 98.966 77.111,99.439 76.807,99.828 76.213 C 100.193 75.656,100.747 75.200,101.059 75.200 C 101.370 75.200,101.729 74.930,101.855 74.600 C 101.982 74.270,102.261 74.000,102.475 74.000 C 102.690 74.000,103.616 73.388,104.533 72.639 C 105.450 71.890,108.761 69.576,111.891 67.496 C 115.020 65.416,117.450 63.570,117.291 63.393 C 117.131 63.216,117.221 63.199,117.491 63.354 C 117.769 63.514,120.112 62.448,122.891 60.897 C 150.822 45.313,181.120 38.919,214.200 41.628 M149.000 78.148 C 147.460 78.658,144.940 79.473,143.400 79.960 C 137.111 81.948,125.147 87.687,120.074 91.149 C 118.905 91.947,117.645 92.780,117.274 93.000 C 116.342 93.553,111.889 96.905,111.400 97.423 C 111.180 97.655,110.280 98.367,109.400 99.003 C 107.545 100.346,98.000 109.929,98.000 110.450 C 98.000 110.642,97.685 111.129,97.300 111.530 C 85.832 123.490,72.298 159.960,76.368 167.936 C 80.580 176.194,90.273 176.155,96.008 167.857 C 99.819 162.343,102.494 158.598,102.765 158.400 C 102.915 158.290,103.918 157.030,104.993 155.600 C 108.349 151.139,113.665 144.448,117.000 140.487 C 118.760 138.396,120.778 135.975,121.485 135.105 C 124.553 131.333,134.110 121.119,141.219 114.014 C 147.948 107.290,150.075 105.259,154.000 101.813 C 163.240 93.700,162.622 94.309,163.689 92.258 C 168.262 83.473,159.201 74.769,149.000 78.148 M98.055 80.133 C 97.721 80.536,97.754 80.667,98.189 80.667 C 98.506 80.667,98.653 80.486,98.517 80.265 C 98.367 80.024,98.542 79.969,98.955 80.127 C 99.363 80.284,99.542 80.230,99.397 79.995 C 99.061 79.451,98.581 79.500,98.055 80.133 " stroke="none" fill="#fbfbfb" fill-rule="evenodd"></path><path id="path2" d="M199.107 41.090 C 199.826 41.179,200.906 41.177,201.507 41.086 C 202.108 40.995,201.520 40.922,200.200 40.924 C 198.880 40.926,198.388 41.001,199.107 41.090 M192.000 42.638 C 176.860 43.677,162.636 46.415,150.000 50.722 C 142.043 53.434,139.600 54.396,139.600 54.816 C 139.600 55.013,139.330 55.071,139.000 54.945 C 138.670 54.818,138.400 54.914,138.400 55.157 C 138.400 55.401,138.265 55.570,138.100 55.534 C 137.446 55.391,135.600 56.112,135.600 56.510 C 135.600 56.743,135.493 56.826,135.361 56.694 C 135.052 56.385,129.122 59.083,128.719 59.717 C 128.550 59.983,128.409 60.072,128.406 59.917 C 128.383 58.864,112.055 69.042,104.000 75.130 C 102.233 76.466,101.911 76.734,100.100 78.381 C 99.605 78.832,98.986 79.200,98.724 79.200 C 98.461 79.200,98.596 79.470,99.024 79.801 C 99.776 80.384,99.777 80.394,99.034 80.133 C 98.565 79.968,98.365 80.019,98.517 80.265 C 98.653 80.486,98.511 80.667,98.200 80.667 C 97.889 80.667,97.743 80.472,97.876 80.233 C 99.115 77.999,83.541 93.793,77.800 100.591 C 71.687 107.830,59.838 126.439,60.719 127.416 C 60.873 127.588,60.803 127.616,60.562 127.479 C 60.144 127.241,58.291 130.582,58.413 131.355 C 58.443 131.551,58.311 131.821,58.118 131.955 C 57.679 132.262,55.467 137.221,55.467 137.899 C 55.467 138.174,55.317 138.400,55.133 138.400 C 54.950 138.400,54.838 138.535,54.885 138.700 C 54.932 138.865,54.743 139.409,54.466 139.908 C 54.190 140.408,54.072 140.993,54.205 141.208 C 54.338 141.424,54.246 141.600,54.000 141.600 C 53.754 141.600,53.664 141.780,53.800 142.000 C 53.936 142.220,53.878 142.400,53.670 142.400 C 53.463 142.400,53.197 142.715,53.078 143.100 C 52.960 143.485,51.947 146.472,50.827 149.739 C 38.835 184.716,40.130 227.905,54.108 259.173 C 54.557 260.178,54.967 261.180,55.018 261.400 C 55.361 262.863,57.924 267.948,58.195 267.702 C 58.378 267.536,58.403 267.618,58.250 267.885 C 57.423 269.326,71.499 292.258,76.568 297.727 C 77.135 298.340,77.600 298.979,77.600 299.148 C 77.600 299.647,79.508 301.158,79.787 300.880 C 79.927 300.739,79.931 300.915,79.795 301.269 C 79.468 302.122,94.699 317.494,100.077 321.739 C 112.621 331.640,132.034 343.383,137.710 344.503 C 137.979 344.556,138.290 344.707,138.400 344.838 C 138.510 344.969,140.490 345.806,142.800 346.697 C 203.953 370.301,272.105 354.373,316.073 306.200 C 318.482 303.560,320.868 300.950,321.373 300.400 C 327.079 294.192,338.106 276.716,342.753 266.515 C 367.919 211.271,360.651 150.268,323.127 101.800 C 319.328 96.893,302.901 80.003,301.921 79.996 C 301.635 79.994,300.975 79.454,300.455 78.796 C 299.935 78.138,299.260 77.600,298.955 77.600 C 298.650 77.600,298.400 77.452,298.400 77.272 C 298.400 75.796,273.090 59.526,271.920 60.250 C 271.673 60.402,271.588 60.343,271.728 60.116 C 271.976 59.716,266.759 57.067,265.723 57.067 C 265.436 57.067,265.200 56.941,265.200 56.788 C 265.200 56.569,262.185 55.208,261.200 54.981 C 261.090 54.955,260.178 54.565,259.173 54.113 C 241.968 46.373,212.048 41.263,192.000 42.638 M99.956 76.100 C 99.486 76.995,99.488 76.996,100.342 76.238 C 101.295 75.391,101.382 75.200,100.814 75.200 C 100.602 75.200,100.216 75.605,99.956 76.100 M158.092 77.870 C 163.424 79.963,166.275 87.291,163.689 92.258 C 162.622 94.309,163.240 93.700,154.000 101.813 C 150.075 105.259,147.948 107.290,141.219 114.014 C 134.110 121.119,124.553 131.333,121.485 135.105 C 120.778 135.975,118.760 138.396,117.000 140.487 C 113.665 144.448,108.349 151.139,104.993 155.600 C 103.918 157.030,102.915 158.290,102.765 158.400 C 102.494 158.598,99.819 162.343,96.008 167.857 C 90.273 176.155,80.580 176.194,76.368 167.936 C 72.298 159.960,85.832 123.490,97.300 111.530 C 97.685 111.129,98.000 110.642,98.000 110.450 C 98.000 109.929,107.545 100.346,109.400 99.003 C 110.280 98.367,111.180 97.655,111.400 97.423 C 111.889 96.905,116.342 93.553,117.274 93.000 C 117.645 92.780,118.905 91.947,120.074 91.149 C 125.147 87.687,137.111 81.948,143.400 79.960 C 144.940 79.473,147.460 78.658,149.000 78.148 C 152.333 77.044,155.722 76.940,158.092 77.870 M91.200 83.800 C 90.228 84.790,89.523 85.600,89.633 85.600 C 89.743 85.600,90.628 84.790,91.600 83.800 C 92.572 82.810,93.277 82.000,93.167 82.000 C 93.057 82.000,92.172 82.810,91.200 83.800 M308.600 84.000 C 309.459 84.880,310.252 85.600,310.362 85.600 C 310.472 85.600,309.859 84.880,309.000 84.000 C 308.141 83.120,307.348 82.400,307.238 82.400 C 307.128 82.400,307.741 83.120,308.600 84.000 M84.185 90.900 L 82.200 93.000 84.300 91.015 C 86.251 89.171,86.583 88.800,86.285 88.800 C 86.222 88.800,85.277 89.745,84.185 90.900 M316.200 91.600 C 317.059 92.480,317.852 93.200,317.962 93.200 C 318.072 93.200,317.459 92.480,316.600 91.600 C 315.741 90.720,314.948 90.000,314.838 90.000 C 314.728 90.000,315.341 90.720,316.200 91.600 M55.665 132.617 C 54.995 134.088,55.123 134.402,55.847 133.065 C 56.186 132.440,56.388 131.854,56.296 131.763 C 56.205 131.671,55.921 132.056,55.665 132.617 M358.946 200.200 C 358.947 202.400,359.014 203.249,359.095 202.087 C 359.176 200.924,359.176 199.124,359.093 198.087 C 359.011 197.049,358.945 198.000,358.946 200.200 M40.931 199.800 C 40.933 201.340,41.005 201.921,41.092 201.091 C 41.179 200.261,41.177 199.001,41.089 198.291 C 41.000 197.581,40.929 198.260,40.931 199.800 M320.800 303.200 C 319.656 304.520,318.811 305.600,318.921 305.600 C 319.031 305.600,320.056 304.520,321.200 303.200 C 322.344 301.880,323.189 300.800,323.079 300.800 C 322.969 300.800,321.944 301.880,320.800 303.200 M83.983 308.900 C 84.964 309.945,85.819 310.800,85.883 310.800 C 86.184 310.800,85.866 310.441,84.100 308.783 L 82.200 307.000 83.983 308.900 M315.978 308.700 L 314.600 310.200 316.100 308.822 C 317.496 307.538,317.784 307.200,317.478 307.200 C 317.412 307.200,316.737 307.875,315.978 308.700 M91.183 316.100 C 92.164 317.145,93.019 318.000,93.083 318.000 C 93.384 318.000,93.066 317.641,91.300 315.983 L 89.400 314.200 91.183 316.100 M308.245 316.354 C 307.237 317.386,306.883 318.004,307.190 318.194 C 307.445 318.351,307.761 318.372,307.893 318.240 C 308.025 318.108,307.887 318.000,307.585 318.000 C 307.284 318.000,307.741 317.280,308.600 316.400 C 309.459 315.520,310.072 314.800,309.962 314.800 C 309.852 314.800,309.080 315.499,308.245 316.354 M304.575 319.700 L 303.400 321.000 304.628 319.894 C 305.303 319.286,306.007 318.926,306.192 319.094 C 306.377 319.262,306.399 319.175,306.241 318.900 C 305.861 318.240,305.921 318.211,304.575 319.700 M197.913 359.095 C 199.076 359.176,200.876 359.176,201.913 359.093 C 202.951 359.011,202.000 358.945,199.800 358.946 C 197.600 358.947,196.751 359.014,197.913 359.095 " stroke="none" fill="#f3d2eb" fill-rule="evenodd"></path><path id="path3" d="M191.500 42.682 C 191.995 42.778,192.805 42.778,193.300 42.682 C 193.795 42.587,193.390 42.509,192.400 42.509 C 191.410 42.509,191.005 42.587,191.500 42.682 M206.300 42.682 C 206.795 42.778,207.605 42.778,208.100 42.682 C 208.595 42.587,208.190 42.509,207.200 42.509 C 206.210 42.509,205.805 42.587,206.300 42.682 M88.592 88.500 L 85.000 92.200 88.700 88.608 C 90.735 86.633,92.400 84.968,92.400 84.908 C 92.400 84.618,91.928 85.064,88.592 88.500 M311.200 88.600 C 313.060 90.470,314.672 92.000,314.782 92.000 C 314.892 92.000,313.460 90.470,311.600 88.600 C 309.740 86.730,308.128 85.200,308.018 85.200 C 307.908 85.200,309.340 86.730,311.200 88.600 M87.781 87.300 L 86.200 89.000 87.900 87.419 C 88.835 86.549,89.600 85.784,89.600 85.719 C 89.600 85.416,89.252 85.719,87.781 87.300 M311.600 87.000 C 312.346 87.770,313.047 88.400,313.157 88.400 C 313.267 88.400,312.746 87.770,312.000 87.000 C 311.254 86.230,310.553 85.600,310.443 85.600 C 310.333 85.600,310.854 86.230,311.600 87.000 M42.501 192.600 C 42.505 193.480,42.587 193.793,42.683 193.295 C 42.779 192.798,42.775 192.078,42.675 191.695 C 42.575 191.313,42.496 191.720,42.501 192.600 M357.324 193.400 C 357.326 194.720,357.401 195.212,357.490 194.493 C 357.579 193.774,357.577 192.694,357.486 192.093 C 357.395 191.492,357.322 192.080,357.324 193.400 M357.314 207.000 C 357.317 208.100,357.395 208.503,357.487 207.895 C 357.579 207.286,357.577 206.386,357.482 205.895 C 357.387 205.403,357.311 205.900,357.314 207.000 M42.509 207.200 C 42.509 208.190,42.587 208.595,42.682 208.100 C 42.778 207.605,42.778 206.795,42.682 206.300 C 42.587 205.805,42.509 206.210,42.509 207.200 M41.293 209.200 C 41.293 209.970,41.375 210.285,41.476 209.900 C 41.576 209.515,41.576 208.885,41.476 208.500 C 41.375 208.115,41.293 208.430,41.293 209.200 M81.200 303.725 C 81.200 303.794,81.785 304.379,82.500 305.025 L 83.800 306.200 82.625 304.900 C 81.530 303.688,81.200 303.416,81.200 303.725 M317.178 305.100 L 315.800 306.600 317.300 305.222 C 318.696 303.938,318.984 303.600,318.678 303.600 C 318.612 303.600,317.937 304.275,317.178 305.100 M311.392 311.300 L 307.800 315.000 311.500 311.408 C 313.535 309.433,315.200 307.768,315.200 307.708 C 315.200 307.418,314.728 307.864,311.392 311.300 M88.400 311.400 C 90.260 313.270,91.872 314.800,91.982 314.800 C 92.092 314.800,90.660 313.270,88.800 311.400 C 86.940 309.530,85.328 308.000,85.218 308.000 C 85.108 308.000,86.540 309.530,88.400 311.400 M312.187 312.500 L 309.800 315.000 312.300 312.613 C 314.622 310.395,314.983 310.000,314.687 310.000 C 314.626 310.000,313.501 311.125,312.187 312.500 M87.583 312.500 C 89.241 314.266,89.600 314.584,89.600 314.283 C 89.600 314.219,88.745 313.364,87.700 312.383 L 85.800 310.600 87.583 312.500 M192.105 357.487 C 192.714 357.579,193.614 357.577,194.105 357.482 C 194.597 357.387,194.100 357.311,193.000 357.314 C 191.900 357.317,191.497 357.395,192.105 357.487 M206.500 357.476 C 206.885 357.576,207.515 357.576,207.900 357.476 C 208.285 357.375,207.970 357.293,207.200 357.293 C 206.430 357.293,206.115 357.375,206.500 357.476 " stroke="none" fill="#9c93af" fill-rule="evenodd"></path><path id="path4" d="M192.300 41.482 C 192.795 41.578,193.605 41.578,194.100 41.482 C 194.595 41.387,194.190 41.309,193.200 41.309 C 192.210 41.309,191.805 41.387,192.300 41.482 M205.900 41.482 C 206.395 41.578,207.205 41.578,207.700 41.482 C 208.195 41.387,207.790 41.309,206.800 41.309 C 205.810 41.309,205.405 41.387,205.900 41.482 M209.300 42.676 C 209.685 42.776,210.315 42.776,210.700 42.676 C 211.085 42.575,210.770 42.493,210.000 42.493 C 209.230 42.493,208.915 42.575,209.300 42.676 M93.375 83.700 L 92.200 85.000 93.500 83.825 C 94.712 82.730,94.984 82.400,94.675 82.400 C 94.606 82.400,94.021 82.985,93.375 83.700 M305.600 82.925 C 305.600 82.994,306.185 83.579,306.900 84.225 L 308.200 85.400 307.025 84.100 C 305.930 82.888,305.600 82.616,305.600 82.925 M90.581 84.900 L 89.000 86.600 90.700 85.019 C 91.635 84.149,92.400 83.384,92.400 83.319 C 92.400 83.016,92.052 83.319,90.581 84.900 M312.200 88.000 C 314.833 90.640,317.077 92.800,317.187 92.800 C 317.297 92.800,315.233 90.640,312.600 88.000 C 309.967 85.360,307.723 83.200,307.613 83.200 C 307.503 83.200,309.567 85.360,312.200 88.000 M85.789 89.700 L 83.000 92.600 85.900 89.811 C 88.594 87.220,88.983 86.800,88.689 86.800 C 88.628 86.800,87.323 88.105,85.789 89.700 M83.775 93.300 L 82.600 94.600 83.900 93.425 C 85.112 92.330,85.384 92.000,85.075 92.000 C 85.006 92.000,84.421 92.585,83.775 93.300 M314.800 92.125 C 314.800 92.194,315.385 92.779,316.100 93.425 L 317.400 94.600 316.225 93.300 C 315.130 92.088,314.800 91.816,314.800 92.125 M42.493 190.000 C 42.493 190.770,42.575 191.085,42.676 190.700 C 42.776 190.315,42.776 189.685,42.676 189.300 C 42.575 188.915,42.493 189.230,42.493 190.000 M357.293 190.000 C 357.293 190.770,357.375 191.085,357.476 190.700 C 357.576 190.315,357.576 189.685,357.476 189.300 C 357.375 188.915,357.293 189.230,357.293 190.000 M358.509 192.800 C 358.509 193.790,358.587 194.195,358.682 193.700 C 358.778 193.205,358.778 192.395,358.682 191.900 C 358.587 191.405,358.509 191.810,358.509 192.800 M41.309 193.200 C 41.309 194.190,41.387 194.595,41.482 194.100 C 41.578 193.605,41.578 192.795,41.482 192.300 C 41.387 191.805,41.309 192.210,41.309 193.200 M41.301 206.600 C 41.305 207.480,41.387 207.793,41.483 207.295 C 41.579 206.798,41.575 206.078,41.475 205.695 C 41.375 205.313,41.296 205.720,41.301 206.600 M358.501 207.400 C 358.505 208.280,358.587 208.593,358.683 208.095 C 358.779 207.598,358.775 206.878,358.675 206.495 C 358.575 206.113,358.496 206.520,358.501 207.400 M42.493 210.000 C 42.493 210.770,42.575 211.085,42.676 210.700 C 42.776 210.315,42.776 209.685,42.676 209.300 C 42.575 208.915,42.493 209.230,42.493 210.000 M357.293 210.000 C 357.293 210.770,357.375 211.085,357.476 210.700 C 357.576 210.315,357.576 209.685,357.476 209.300 C 357.375 208.915,357.293 209.230,357.293 210.000 M83.600 306.600 C 84.346 307.370,85.047 308.000,85.157 308.000 C 85.267 308.000,84.746 307.370,84.000 306.600 C 83.254 305.830,82.553 305.200,82.443 305.200 C 82.333 305.200,82.854 305.830,83.600 306.600 M316.175 306.500 L 315.000 307.800 316.300 306.625 C 317.015 305.979,317.600 305.394,317.600 305.325 C 317.600 305.016,317.270 305.288,316.175 306.500 M314.786 309.500 L 312.600 311.800 314.900 309.614 C 317.037 307.582,317.383 307.200,317.086 307.200 C 317.024 307.200,315.989 308.235,314.786 309.500 M87.800 312.400 C 90.433 315.040,92.677 317.200,92.787 317.200 C 92.897 317.200,90.833 315.040,88.200 312.400 C 85.567 309.760,83.323 307.600,83.213 307.600 C 83.103 307.600,85.167 309.760,87.800 312.400 M308.987 315.300 L 306.600 317.800 309.100 315.413 C 310.475 314.099,311.600 312.974,311.600 312.913 C 311.600 312.617,311.205 312.978,308.987 315.300 M92.000 314.925 C 92.000 314.994,92.585 315.579,93.300 316.225 L 94.600 317.400 93.425 316.100 C 92.330 314.888,92.000 314.616,92.000 314.925 M306.575 316.100 L 305.400 317.400 306.700 316.225 C 307.415 315.579,308.000 314.994,308.000 314.925 C 308.000 314.616,307.670 314.888,306.575 316.100 M189.300 357.476 C 189.685 357.576,190.315 357.576,190.700 357.476 C 191.085 357.375,190.770 357.293,190.000 357.293 C 189.230 357.293,188.915 357.375,189.300 357.476 M208.900 357.476 C 209.285 357.576,209.915 357.576,210.300 357.476 C 210.685 357.375,210.370 357.293,209.600 357.293 C 208.830 357.293,208.515 357.375,208.900 357.476 M191.900 358.682 C 192.395 358.778,193.205 358.778,193.700 358.682 C 194.195 358.587,193.790 358.509,192.800 358.509 C 191.810 358.509,191.405 358.587,191.900 358.682 M206.705 358.683 C 207.202 358.779,207.922 358.775,208.305 358.675 C 208.687 358.575,208.280 358.496,207.400 358.501 C 206.520 358.505,206.207 358.587,206.705 358.683 " stroke="none" fill="#827193" fill-rule="evenodd"></path></g></svg>