<svg width="16" height="16" viewBox="0 0 16 16" fill="none" xmlns="http://www.w3.org/2000/svg">
<path fill-rule="evenodd" clip-rule="evenodd" d="M7.88536 2.49292C5.88622 2.49292 3.82739 3.97 3.82739 6.55089C3.82739 7.1218 4.06669 7.84829 4.48711 8.66023C4.90101 9.45959 5.45954 10.2837 6.02844 11.0339C6.59582 11.7822 7.16461 12.4453 7.59222 12.9219C7.69982 13.0418 7.7983 13.1498 7.88536 13.244C7.97242 13.1498 8.0709 13.0418 8.1785 12.9219C8.60611 12.4453 9.1749 11.7822 9.74228 11.0339C10.3112 10.2837 10.8697 9.45959 11.2836 8.66023C11.704 7.84829 11.9433 7.1218 11.9433 6.55089C11.9433 3.97 9.8845 2.49292 7.88536 2.49292ZM7.88536 14.0871C7.4729 14.4945 7.47283 14.4944 7.47273 14.4943L7.46857 14.4901L7.45763 14.4789C7.44818 14.4693 7.43447 14.4552 7.41678 14.4369C7.3814 14.4004 7.33008 14.347 7.26511 14.2784C7.1352 14.1411 6.95049 13.9428 6.72923 13.6962C6.28727 13.2036 5.69664 12.5152 5.1046 11.7345C4.51408 10.9558 3.91318 10.0733 3.45753 9.19335C3.00838 8.32594 2.66797 7.40027 2.66797 6.55089C2.66797 3.21873 5.36276 1.3335 7.88536 1.3335C10.408 1.3335 13.1028 3.21873 13.1028 6.55089C13.1028 7.40027 12.7623 8.32594 12.3132 9.19335C11.8575 10.0733 11.2566 10.9558 10.6661 11.7345C10.0741 12.5152 9.48345 13.2036 9.04149 13.6962C8.82023 13.9428 8.63552 14.1411 8.50561 14.2784C8.44064 14.347 8.38932 14.4004 8.35394 14.4369C8.33625 14.4552 8.32254 14.4693 8.31309 14.4789L8.30215 14.4901L8.29827 14.494C8.29817 14.4941 8.29781 14.4945 7.88536 14.0871ZM7.88536 14.0871L8.29827 14.494C8.18935 14.6043 8.04036 14.6668 7.88536 14.6668C7.73036 14.6668 7.58165 14.6046 7.47273 14.4943L7.88536 14.0871Z" fill="currentColor" fill-opacity="0.64" style="mix-blend-mode:multiply"/>
<path fill-rule="evenodd" clip-rule="evenodd" d="M7.88536 5.39147C7.24503 5.39147 6.72594 5.91056 6.72594 6.55089C6.72594 7.19122 7.24503 7.71031 7.88536 7.71031C8.52569 7.71031 9.04478 7.19122 9.04478 6.55089C9.04478 5.91056 8.52569 5.39147 7.88536 5.39147ZM5.56652 6.55089C5.56652 5.27023 6.6047 4.23205 7.88536 4.23205C9.16602 4.23205 10.2042 5.27023 10.2042 6.55089C10.2042 7.83155 9.16602 8.86973 7.88536 8.86973C6.6047 8.86973 5.56652 7.83155 5.56652 6.55089Z" fill="currentColor" fill-opacity="0.64" style="mix-blend-mode:multiply"/>
</svg>
