<svg xmlns="http://www.w3.org/2000/svg" xml:space="preserve" width="0.843055in" height="1.00002in" version="1.1"
    style="shape-rendering:geometricPrecision; text-rendering:geometricPrecision; image-rendering:optimizeQuality; fill-rule:evenodd; clip-rule:evenodd"
    viewBox="0 0 843 1000" xmlns:xlink="http://www.w3.org/1999/xlink">
    <g id="Layer_x0020_1">
        <metadata id="CorelCorpID_0Corel-Layer" />
        <path fill="#BFBFBF"
            d="M135 0l576 0 132 162 0 791c0,26 -21,47 -47,47l-661 0c-25,0 -46,-21 -46,-47l0 -153 465 0c11,0 20,-9 20,-20l0 -226c0,-11 -9,-20 -20,-20l-465 0 0 -487c0,-26 21,-47 46,-47z" />
        <rect fill="#00B324" y="534" width="574" height="265" rx="17" ry="20" />
        <path fill="white"
            d="M433 651c-5,-1 -9,-2 -12,-5 -3,-2 -5,-5 -5,-10 0,-4 2,-7 5,-10 4,-3 8,-4 13,-4 6,0 10,1 13,4 4,3 6,6 6,10l37 0c0,-12 -5,-23 -16,-32 -11,-9 -24,-14 -40,-14 -15,0 -28,5 -39,14 -11,9 -17,20 -17,32 0,8 2,14 6,21 8,13 21,21 39,24 1,0 1,0 2,0 4,1 9,1 13,2 4,1 8,3 10,5 3,2 5,5 5,9 0,5 -2,8 -5,11 -4,3 -8,4 -14,4 -5,0 -9,-1 -13,-4 -3,-3 -5,-6 -5,-11l-38 0c0,13 6,24 17,33 11,9 24,14 39,14 16,0 29,-5 40,-14 11,-9 17,-20 17,-33 0,-12 -6,-23 -17,-32 -5,-5 -11,-8 -18,-9 -6,-2 -13,-4 -20,-5 -1,0 -2,0 -3,0z" />
        <polygon fill="white" points="287,712 287,590 250,590 250,744 345,744 345,712 " />
        <polygon fill="white"
            points="215,590 173,590 149,631 125,590 83,590 128,667 83,744 125,744 149,703 173,744 215,744 170,667 " />
        <path fill="#CCCCCC"
            d="M135 0l576 0 132 162 0 430c-102,208 -316,351 -564,351 -66,0 -130,-10 -190,-29l0 -114 465 0c11,0 20,-9 20,-20l0 -226c0,-11 -9,-20 -20,-20l-465 0 0 -487c0,-26 21,-47 46,-47z" />
        <path fill="#00B324" d="M697 0l14 0 132 162 0 10 -143 0c-1,0 -3,-1 -3,-3l0 -169z" />
        <path fill="white"
            d="M218 385c-12,0 -22,-9 -22,-21 0,-12 10,-21 22,-21l336 0c12,0 21,9 21,21 0,12 -9,21 -21,21l-336 0z" />
        <path fill="white"
            d="M218 300c-12,0 -22,-9 -22,-21 0,-12 10,-21 22,-21l336 0c12,0 21,9 21,21 0,12 -9,21 -21,21l-336 0z" />
        <path fill="white"
            d="M500 215c-12,0 -22,-9 -22,-21 0,-12 10,-21 22,-21l54 0c12,0 21,9 21,21 0,12 -9,21 -21,21l-54 0z" />
        <path fill="white"
            d="M218 215c-12,0 -21,-9 -21,-21 0,-12 9,-21 21,-21l205 0c12,0 22,9 22,21 0,12 -10,21 -22,21l-205 0z" />
    </g>
</svg>