<svg width="20" height="20" viewBox="0 0 20 20" fill="none" xmlns="http://www.w3.org/2000/svg">
<path d="M2.5 4.16667H5.83333M5.83333 4.16667C5.83333 5.08714 6.57953 5.83333 7.5 5.83333C8.42047 5.83333 9.16667 5.08714 9.16667 4.16667M5.83333 4.16667C5.83333 3.24619 6.57953 2.5 7.5 2.5C8.42047 2.5 9.16667 3.24619 9.16667 4.16667M17.5 4.16667H9.16667M2.5 10H12.5M12.5 10C12.5 10.9205 13.2462 11.6667 14.1667 11.6667C15.0871 11.6667 15.8333 10.9205 15.8333 10M12.5 10C12.5 9.07953 13.2462 8.33333 14.1667 8.33333C15.0871 8.33333 15.8333 9.07953 15.8333 10M17.5 10H15.8333M2.5 15.8333H4.16667M4.16667 15.8333C4.16667 16.7538 4.91286 17.5 5.83333 17.5C6.75381 17.5 7.5 16.7538 7.5 15.8333M4.16667 15.8333C4.16667 14.9129 4.91286 14.1667 5.83333 14.1667C6.75381 14.1667 7.5 14.9129 7.5 15.8333M17.5 15.8333H7.5" stroke="#161C24" stroke-opacity="0.8" stroke-width="2" stroke-linecap="round" style="mix-blend-mode:multiply"/>
</svg>
