<svg width="24" height="56" viewBox="0 0 24 56" fill="none" xmlns="http://www.w3.org/2000/svg">
<path d="M6.343 20.2981C6.43595 20.3926 6.50969 20.5048 6.56 20.6283C6.61031 20.7518 6.6362 20.8842 6.6362 21.0179C6.6362 21.1516 6.61031 21.284 6.56 21.4075C6.50969 21.531 6.43595 21.6432 6.343 21.7377C4.84287 23.2645 4.00013 25.3352 4.00013 27.4943C4.00013 29.6534 4.84287 31.7241 6.343 33.2509C6.43848 33.3447 6.51464 33.457 6.56704 33.5811C6.61943 33.7052 6.64701 33.8387 6.64816 33.9738C6.64932 34.1089 6.62402 34.2429 6.57376 34.3679C6.52349 34.4929 6.44926 34.6065 6.35539 34.702C6.26153 34.7976 6.14991 34.8731 6.02705 34.9242C5.90419 34.9754 5.77254 35.0011 5.6398 35C5.50706 34.9988 5.37588 34.9707 5.25391 34.9174C5.13194 34.8641 5.02163 34.7866 4.92941 34.6894C1.02353 30.7157 1.02353 24.2719 4.92941 20.2981C5.11688 20.1074 5.37112 20.0003 5.6362 20.0003C5.90129 20.0003 6.15553 20.1074 6.343 20.2981ZM19.0713 20.2981C22.9762 24.2729 22.9762 30.7157 19.0713 34.6894C18.8839 34.8803 18.6296 34.9876 18.3644 34.9877C18.0992 34.9878 17.8448 34.8807 17.6572 34.6899C17.4697 34.4992 17.3642 34.2404 17.3641 33.9705C17.364 33.7007 17.4693 33.4418 17.6567 33.2509C19.1569 31.7241 19.9996 29.6534 19.9996 27.4943C19.9996 25.3352 19.1569 23.2645 17.6567 21.7377C17.4692 21.5468 17.3638 21.2879 17.3638 21.0179C17.3638 20.7479 17.4692 20.489 17.6567 20.2981C17.8443 20.1072 18.0988 20 18.364 20C18.6293 20 18.8838 20.1072 19.0713 20.2981ZM9.30915 23.222C9.49657 23.4127 9.60185 23.6715 9.60185 23.9412C9.60185 24.211 9.49657 24.4697 9.30915 24.6605C8.94521 25.0308 8.65651 25.4705 8.45954 25.9543C8.26257 26.4382 8.1612 26.9568 8.1612 27.4806C8.1612 28.0043 8.26257 28.5229 8.45954 29.0068C8.65651 29.4906 8.94521 29.9303 9.30915 30.3006C9.40197 30.3951 9.47558 30.5073 9.52579 30.6308C9.576 30.7543 9.60181 30.8866 9.60177 31.0202C9.60172 31.1539 9.57581 31.2862 9.52552 31.4096C9.47522 31.533 9.40153 31.6452 9.30865 31.7396C9.21576 31.8341 9.10551 31.909 8.98418 31.9601C8.86284 32.0112 8.73281 32.0375 8.6015 32.0374C8.47019 32.0374 8.34017 32.011 8.21887 31.9598C8.09758 31.9086 7.98737 31.8337 7.89456 31.7391C6.7847 30.6097 6.1612 29.0778 6.1612 27.4806C6.1612 25.8833 6.7847 24.3514 7.89456 23.222C7.9874 23.1274 8.09766 23.0523 8.21902 23.0011C8.34038 22.95 8.47047 22.9236 8.60185 22.9236C8.73323 22.9236 8.86332 22.95 8.98468 23.0011C9.10605 23.0523 9.2163 23.1274 9.30915 23.222ZM16.2651 23.222C17.375 24.3514 17.9985 25.8833 17.9985 27.4806C17.9985 29.0778 17.375 30.6097 16.2651 31.7391C16.0766 31.9245 15.8241 32.027 15.5619 32.0247C15.2998 32.0224 15.0491 31.9154 14.8637 31.7267C14.6784 31.5381 14.5732 31.283 14.571 31.0162C14.5687 30.7495 14.6694 30.4925 14.8516 30.3006C15.2155 29.9303 15.5042 29.4906 15.7012 29.0068C15.8981 28.5229 15.9995 28.0043 15.9995 27.4806C15.9995 26.9568 15.8981 26.4382 15.7012 25.9543C15.5042 25.4705 15.2155 25.0308 14.8516 24.6605C14.6694 24.4686 14.5687 24.2116 14.571 23.9449C14.5732 23.6781 14.6784 23.423 14.8637 23.2344C15.0491 23.0457 15.2998 22.9387 15.5619 22.9364C15.8241 22.9341 16.0766 23.0367 16.2651 23.222ZM12.0804 26.04C12.4781 26.04 12.8595 26.2008 13.1407 26.487C13.4219 26.7731 13.5799 27.1613 13.5799 27.566C13.5799 27.9707 13.4219 28.3589 13.1407 28.6451C12.8595 28.9312 12.4781 29.092 12.0804 29.092C11.6826 29.092 11.3012 28.9312 11.02 28.6451C10.7388 28.3589 10.5808 27.9707 10.5808 27.566C10.5808 27.1613 10.7388 26.7731 11.02 26.487C11.3012 26.2008 11.6826 26.04 12.0804 26.04Z" fill="currentColor"/>
</svg>
