<svg width="24" height="24" viewBox="0 0 24 24" fill="none" xmlns="http://www.w3.org/2000/svg">
  <path
    d="M5.22502 19.6783C5.27202 20.3081 5.55486 20.897 6.01706 21.3274C6.47926 21.7578 7.08681 21.998 7.71835 22H16.2817C16.9132 21.998 17.5208 21.7578 17.983 21.3274C18.4452 20.897 18.728 20.3081 18.775 19.6783L19.5617 8.66667H4.43835L5.22502 19.6783Z"
    fill="currentColor" fill-opacity="0.8" style="mix-blend-mode:multiply" />
  <path
    d="M21.1667 5.33333H16.1667V2.83333C16.1667 2.61232 16.0789 2.40036 15.9226 2.24408C15.7663 2.0878 15.5543 2 15.3333 2H8.66667C8.44565 2 8.23369 2.0878 8.07741 2.24408C7.92113 2.40036 7.83333 2.61232 7.83333 2.83333V5.33333H2.83333C2.61232 5.33333 2.40036 5.42113 2.24408 5.57741C2.0878 5.73369 2 5.94565 2 6.16667C2 6.38768 2.0878 6.59964 2.24408 6.75592C2.40036 6.9122 2.61232 7 2.83333 7H21.1667C21.3877 7 21.5996 6.9122 21.7559 6.75592C21.9122 6.59964 22 6.38768 22 6.16667C22 5.94565 21.9122 5.73369 21.7559 5.57741C21.5996 5.42113 21.3877 5.33333 21.1667 5.33333ZM9.5 3.66667H14.5V5.33333H9.5V3.66667Z"
    fill="currentColor" fill-opacity="0.8" style="mix-blend-mode:multiply" />
</svg>