<svg width="32" height="32" viewBox="0 0 32 32" fill="none" xmlns="http://www.w3.org/2000/svg">
  <path
    d="M20.9998 10.4443H12.2409C11.0509 8.4154 9.04317 8.10095 8.06428 8.23317L6.79762 8.41429L7.93984 12.3354C7.08317 13.0387 6.3765 13.9032 5.85761 14.8887H2.6665V22.6665H5.85095C7.19873 25.2254 9.77206 26.881 12.6665 27.0732V29.3332H14.8887V27.111H19.3332V29.3332H21.5554V27.0832C25.8909 26.7954 29.3332 23.1854 29.3332 18.7776C29.3332 14.1821 25.5954 10.4443 20.9998 10.4443ZM21.5554 17.111H13.7776V14.8887H21.5554V17.111Z"
    fill="currentColor" />
  <path
    d="M17.6665 8.22206C19.2006 8.22206 20.4443 6.97841 20.4443 5.44428C20.4443 3.91016 19.2006 2.6665 17.6665 2.6665C16.1324 2.6665 14.8887 3.91016 14.8887 5.44428C14.8887 6.97841 16.1324 8.22206 17.6665 8.22206Z"
    fill="currentColor" />
</svg>