<svg width="24" height="24" viewBox="0 0 24 24" fill="none" xmlns="http://www.w3.org/2000/svg">
<path d="M13.6667 12.8333H10.3333C9.87333 12.8333 9.5 13.2067 9.5 13.6667V21.1667C9.5 21.6267 9.87333 22 10.3333 22H13.6667C14.1267 22 14.5 21.6267 14.5 21.1667V13.6667C14.5 13.2067 14.1267 12.8333 13.6667 12.8333Z" fill="#2BC456"/>
<path d="M6.16667 16.1667H2.83333C2.37333 16.1667 2 16.54 2 17V21.1667C2 21.6267 2.37333 22 2.83333 22H6.16667C6.62667 22 7 21.6267 7 21.1667V17C7 16.54 6.62667 16.1667 6.16667 16.1667Z" fill="#2BC456"/>
<path d="M21.1667 9.5H17.8333C17.3733 9.5 17 9.87333 17 10.3333V21.1667C17 21.6267 17.3733 22 17.8333 22H21.1667C21.6267 22 22 21.6267 22 21.1667V10.3333C22 9.87333 21.6267 9.5 21.1667 9.5Z" fill="#2BC456"/>
<path d="M12.5891 10.0892L17.8333 4.845V7.83333H19.5V2.83333C19.5 2.37333 19.1266 2 18.6666 2H13.6666V3.66667H16.655L12 8.32167L9.25581 5.5775C8.92997 5.25167 8.40331 5.25167 8.07747 5.5775L3.91081 9.74417L5.08914 10.9225L8.66664 7.345L11.4108 10.0892C11.7366 10.415 12.2633 10.415 12.5891 10.0892Z" fill="#2BC456"/>
</svg>
