<svg width="20" height="20" viewBox="0 0 20 20" fill="none" xmlns="http://www.w3.org/2000/svg">
  <path
    d="M8.06701 10.1994C6.10384 10.1994 4.51183 7.89637 4.51183 5.9332V5.22217C4.51183 3.259 6.10384 1.66699 8.06701 1.66699C10.0302 1.66699 11.6222 3.259 11.6222 5.22217V5.9332C11.6222 7.89637 10.0302 10.1994 8.06701 10.1994Z"
    fill="currentColor" fill-opacity="0.64" style="mix-blend-mode:multiply" />
  <path
    d="M10.1994 15.1767C10.1994 13.9693 10.6296 12.863 11.3449 12.0012C10.3878 11.7857 9.26938 11.6215 8.06631 11.6215C6.05906 11.6215 4.27791 12.0751 3.10755 12.4698C2.24293 12.7613 1.66699 13.5754 1.66699 14.4877V17.3098H10.6851C10.3772 16.6627 10.1994 15.941 10.1994 15.1767Z"
    fill="currentColor" fill-opacity="0.64" style="mix-blend-mode:multiply" />
  <path
    d="M18.3337 13.0436L17.3283 12.0382L15.1952 14.1713L13.0621 12.0382L12.0567 13.0436L14.1898 15.1767L12.0567 17.3098L13.0621 18.3152L15.1952 16.1821L17.3283 18.3152L18.3337 17.3098L16.2006 15.1767L18.3337 13.0436Z"
    fill="currentColor" fill-opacity="0.64" style="mix-blend-mode:multiply" />
</svg>