<svg width="14" height="14" viewBox="0 0 14 14" fill="none" xmlns="http://www.w3.org/2000/svg">
<g clip-path="url(#clip0_164_916)">
<path d="M13.9999 6.56006C13.9153 5.19528 13.4332 3.88508 12.613 2.79096C11.7928 1.69685 10.6704 0.866645 9.38414 0.402689C8.09786 -0.0612663 6.70392 -0.138693 5.37417 0.179952C4.04441 0.498598 2.83696 1.19939 1.90066 2.19594C0.964352 3.19249 0.340116 4.44124 0.1049 5.78825C-0.130317 7.13527 0.0337678 8.52168 0.576927 9.77657C1.12009 11.0315 2.01858 12.1 3.16164 12.8504C4.30471 13.6009 5.64239 14.0005 7.00979 13.9999H10.7915C11.6421 13.9988 12.4575 13.6604 13.059 13.059C13.6604 12.4576 13.9988 11.6421 13.9999 10.7916V6.6149V6.56006ZM12.2499 10.7916C12.2499 11.1783 12.0962 11.5493 11.8227 11.8228C11.5492 12.0963 11.1783 12.2499 10.7915 12.2499H7.00979C6.26865 12.2495 5.53592 12.0928 4.85938 11.7902C4.18285 11.4875 3.57769 11.0457 3.08338 10.4935C2.58687 9.94167 2.2141 9.29008 1.99004 8.5824C1.76599 7.87472 1.69584 7.12732 1.78429 6.39031C1.92386 5.22842 2.44604 4.14598 3.26855 3.31354C4.09106 2.4811 5.16716 1.94598 6.32729 1.79248C6.55428 1.76415 6.7828 1.74993 7.01154 1.74989C8.23429 1.74639 9.41934 2.173 10.3593 2.95506C10.9073 3.41024 11.3573 3.97176 11.6822 4.60569C12.0072 5.23963 12.2003 5.93284 12.2499 6.64348V10.7916Z" fill="#121118"/>
<path d="M5.54175 6.41675H7.29175C7.52381 6.41675 7.74637 6.32456 7.91047 6.16047C8.07456 5.99637 8.16675 5.77381 8.16675 5.54175C8.16675 5.30968 8.07456 5.08712 7.91047 4.92303C7.74637 4.75894 7.52381 4.66675 7.29175 4.66675H5.54175C5.30968 4.66675 5.08712 4.75894 4.92303 4.92303C4.75894 5.08712 4.66675 5.30968 4.66675 5.54175C4.66675 5.77381 4.75894 5.99637 4.92303 6.16047C5.08712 6.32456 5.30968 6.41675 5.54175 6.41675Z" fill="#121118"/>
<path d="M9.62508 7.58325H5.54175C5.30968 7.58325 5.08712 7.67544 4.92303 7.83953C4.75894 8.00363 4.66675 8.22619 4.66675 8.45825C4.66675 8.69032 4.75894 8.91288 4.92303 9.07697C5.08712 9.24107 5.30968 9.33325 5.54175 9.33325H9.62508C9.85715 9.33325 10.0797 9.24107 10.2438 9.07697C10.4079 8.91288 10.5001 8.69032 10.5001 8.45825C10.5001 8.22619 10.4079 8.00363 10.2438 7.83953C10.0797 7.67544 9.85715 7.58325 9.62508 7.58325Z" fill="#121118"/>
</g>
<defs>
<clipPath id="clip0_164_916">
<rect width="14" height="14" fill="white"/>
</clipPath>
</defs>
</svg>
