<svg width="16" height="16" viewBox="0 0 16 16" fill="none" xmlns="http://www.w3.org/2000/svg">
  <path
    d="M13.5556 1.33325H2.44449C2.1498 1.33325 1.86718 1.45032 1.65881 1.65869C1.45044 1.86706 1.33337 2.14968 1.33337 2.44436L1.33337 9.66658C1.33337 9.96127 1.45044 10.2439 1.65881 10.4523C1.86718 10.6606 2.1498 10.7777 2.44449 10.7777H4.11115V14.111L8.5556 10.7777H13.5556C13.8503 10.7777 14.1329 10.6606 14.3413 10.4523C14.5496 10.2439 14.6667 9.96127 14.6667 9.66658V2.44436C14.6667 2.14968 14.5496 1.86706 14.3413 1.65869C14.1329 1.45032 13.8503 1.33325 13.5556 1.33325Z"
    fill="currentColor" style="mix-blend-mode:multiply" />
</svg>