<svg width="20" height="20" viewBox="0 0 20 20" fill="none" xmlns="http://www.w3.org/2000/svg">
<path d="M8 10C8 10.8284 7.32843 11.5 6.5 11.5C5.67157 11.5 5 10.8284 5 10C5 9.17157 5.67157 8.5 6.5 8.5C7.32843 8.5 8 9.17157 8 10Z" fill="rgba(22, 28, 36, 0.64)"/>
<path d="M13.5 11.5C14.3284 11.5 15 10.8284 15 10C15 9.17157 14.3284 8.5 13.5 8.5C12.6716 8.5 12 9.17157 12 10C12 10.8284 12.6716 11.5 13.5 11.5Z" fill="rgba(22, 28, 36, 0.64)"/>
<path fill-rule="evenodd" clip-rule="evenodd" d="M0 10C0 4.47715 4.47715 0 10 0C15.5228 0 20 4.47715 20 10C20 15.5228 15.5228 20 10 20C8.11039 20 6.34058 19.475 4.83171 18.5624L1.79975 19.4542C1.03284 19.6798 0.320228 18.9672 0.545808 18.2002L1.43756 15.1683C0.52505 13.6594 0 11.8896 0 10ZM10 2C5.58172 2 2 5.58172 2 10C2 11.5769 2.4552 13.0444 3.24098 14.2818C3.46769 14.6389 3.54552 15.0892 3.41832 15.5217L2.97667 17.0233L4.47827 16.5817C4.91075 16.4545 5.36114 16.5323 5.71817 16.759C6.95564 17.5448 8.42313 18 10 18C14.4183 18 18 14.4183 18 10C18 5.58172 14.4183 2 10 2Z" fill="rgba(22, 28, 36, 0.64)"/>
</svg>