<svg width="20" height="20" viewBox="0 0 20 20" fill="none" xmlns="http://www.w3.org/2000/svg">
  <path
    d="M7.91796 9.99984C9.83533 9.99984 11.3902 7.75053 11.3902 5.83317V5.13873C11.3902 3.22137 9.83533 1.6665 7.91796 1.6665C6.0006 1.6665 4.44574 3.22137 4.44574 5.13873V5.83317C4.44574 7.75053 6.0006 9.99984 7.91796 9.99984Z"
    fill="currentColor" style="mix-blend-mode:multiply" />
  <path
    d="M12.9576 12.3022C12.893 12.2723 12.8298 12.2411 12.761 12.2182C11.6187 11.8321 9.87908 11.389 7.91797 11.389C5.95686 11.389 4.21727 11.8321 3.07491 12.2175C2.23047 12.5029 1.66797 13.298 1.66797 14.189V16.9446H11.6326C11.4784 16.5098 11.3902 16.0432 11.3902 15.5557C11.3902 14.2383 12.0034 13.0654 12.9576 12.3022Z"
    fill="currentColor" style="mix-blend-mode:multiply" />
  <path
    d="M16.2513 12.7773H14.8624V14.8607H12.7791V16.2496H14.8624V18.3329H16.2513V16.2496H18.3346V14.8607H16.2513V12.7773Z"
    fill="currentColor" style="mix-blend-mode:multiply" />
</svg>