<svg width="24" height="24" viewBox="0 0 24 24" fill="none" xmlns="http://www.w3.org/2000/svg">
<path d="M10.8686 12.5663C11.1116 12.8914 11.4215 13.1604 11.7774 13.355C12.1334 13.5497 12.5269 13.6654 12.9315 13.6944C13.336 13.7234 13.7421 13.665 14.1221 13.5231C14.5021 13.3812 14.8472 13.1592 15.1339 12.872L16.831 11.1733C17.3462 10.6393 17.6313 9.92407 17.6249 9.18171C17.6184 8.43935 17.321 7.72922 16.7966 7.20427C16.2721 6.67932 15.5627 6.38156 14.8211 6.37511C14.0795 6.36866 13.365 6.65404 12.8316 7.16978L11.8586 8.13809M13.1314 11.4337C12.8884 11.1086 12.5785 10.8396 12.2226 10.645C11.8666 10.4503 11.4731 10.3346 11.0685 10.3056C10.6639 10.2766 10.2579 10.335 9.87789 10.4769C9.49788 10.6188 9.1528 10.8408 8.86606 11.128L7.16898 12.8267C6.65376 13.3607 6.36866 14.0759 6.37511 14.8183C6.38155 15.5607 6.67902 16.2708 7.20344 16.7957C7.72786 17.3207 8.43727 17.6184 9.17889 17.6249C9.9205 17.6313 10.635 17.346 11.1684 16.8302L12.1358 15.8619" stroke="#35AEFF" stroke-width="2" stroke-linecap="round" stroke-linejoin="round"/>
</svg>
