<svg width="33" height="32" viewBox="0 0 33 32" fill="none" xmlns="http://www.w3.org/2000/svg">
  <path
    d="M4.5 6.33744C4.5 4.46011 6.604 3.35077 8.15333 4.41211L22.1507 14.0041C22.4622 14.2176 22.7172 14.5036 22.8939 14.8374C23.0705 15.1712 23.1635 15.5429 23.1648 15.9206C23.1661 16.2983 23.0757 16.6706 22.9014 17.0057C22.7271 17.3407 22.474 17.6284 22.164 17.8441L8.16533 27.5801C6.62 28.6561 4.5 27.5468 4.5 25.6641V6.33744ZM28.5 5.00011C28.5 4.73489 28.3946 4.48054 28.2071 4.293C28.0196 4.10546 27.7652 4.00011 27.5 4.00011C27.2348 4.00011 26.9804 4.10546 26.7929 4.293C26.6054 4.48054 26.5 4.73489 26.5 5.00011V27.0001C26.5 27.2653 26.6054 27.5197 26.7929 27.7072C26.9804 27.8948 27.2348 28.0001 27.5 28.0001C27.7652 28.0001 28.0196 27.8948 28.2071 27.7072C28.3946 27.5197 28.5 27.2653 28.5 27.0001V5.00011Z"
    fill="currentColor" style="mix-blend-mode:multiply" />
</svg>