<svg width="20" height="20" viewBox="0 0 20 20" fill="none" xmlns="http://www.w3.org/2000/svg">
  <path
    d="M16.2434 7.08783C16.1712 4.08713 13.7128 1.66699 10.6948 1.66699H9.30588C6.28783 1.66699 3.82949 4.08713 3.75727 7.08783C2.51005 7.80866 1.66699 9.1538 1.66699 10.6948C1.66699 12.233 2.50727 13.576 3.75033 14.2975V14.8614C3.75033 16.776 5.30796 18.3337 7.22255 18.3337H10.0003C10.3837 18.3337 10.6948 18.0225 10.6948 17.6392C10.6948 17.2559 10.3837 16.9448 10.0003 16.9448H7.22255C6.07394 16.9448 5.13921 16.01 5.13921 14.8614V14.7989C5.3656 14.8371 5.59685 14.8614 5.83366 14.8614C6.11144 14.8614 6.39199 14.833 6.6656 14.7774C6.98991 14.7121 7.22255 14.4274 7.22255 14.0969V7.29269C7.22255 6.96213 6.98991 6.67741 6.6656 6.61213C6.39199 6.55658 6.11144 6.5281 5.83366 6.5281C5.6156 6.5281 5.4031 6.55033 5.19338 6.58227C5.5031 4.58852 7.22671 3.05588 9.30588 3.05588H10.6948C12.7739 3.05588 14.4975 4.58852 14.8073 6.58227C14.5975 6.55033 14.385 6.5281 14.167 6.5281C13.8892 6.5281 13.6087 6.55658 13.335 6.61213C13.0107 6.67741 12.7781 6.96213 12.7781 7.29269V14.0975C12.7781 14.4281 13.0107 14.7128 13.335 14.7781C13.6087 14.833 13.8892 14.8614 14.167 14.8614C16.4649 14.8614 18.3337 12.9927 18.3337 10.6948C18.3337 9.1538 17.4906 7.80866 16.2434 7.08783Z"
    fill="currentColor" fill-opacity="0.64" style="mix-blend-mode:multiply" />
</svg>