<svg width="20" height="20" viewBox="0 0 20 20" fill="none" xmlns="http://www.w3.org/2000/svg">
<path d="M11.6761 11.37H8.89476C7.41994 11.3717 6.006 11.9583 4.96315 13.0012C3.92029 14.044 3.33369 15.4579 3.33203 16.9328C3.33194 17.0802 3.3787 17.2238 3.46556 17.3429C3.55242 17.462 3.6749 17.5505 3.81529 17.5954C5.92693 18.1417 8.10519 18.3868 10.2854 18.3234C12.4657 18.3868 14.6439 18.1417 16.7556 17.5954C16.896 17.5505 17.0185 17.462 17.1053 17.3429C17.1922 17.2238 17.2389 17.0802 17.2388 16.9328C17.2372 15.4579 16.6506 14.044 15.6077 13.0012C14.5649 11.9583 13.1509 11.3717 11.6761 11.37Z" fill="currentColor" fill-opacity="0.64" style="mix-blend-mode:multiply"/>
<path d="M10.2854 9.9793C12.441 9.9793 14.1098 7.56647 14.1098 5.49088C14.1098 4.47659 13.7069 3.50385 12.9897 2.78664C12.2725 2.06943 11.2997 1.6665 10.2854 1.6665C9.27115 1.6665 8.29841 2.06943 7.5812 2.78664C6.86399 3.50385 6.46106 4.47659 6.46106 5.49088C6.46106 7.56647 8.12988 9.9793 10.2854 9.9793Z" fill="currentColor" fill-opacity="0.64" style="mix-blend-mode:multiply"/>
</svg>
