<svg xmlns="http://www.w3.org/2000/svg" xml:space="preserve" width="0.843055in" height="1.00002in" version="1.1"
    style="shape-rendering:geometricPrecision; text-rendering:geometricPrecision; image-rendering:optimizeQuality; fill-rule:evenodd; clip-rule:evenodd"
    viewBox="0 0 843 1000" xmlns:xlink="http://www.w3.org/1999/xlink">
    <g id="Layer_x0020_1">
        <metadata id="CorelCorpID_0Corel-Layer" />
        <path fill="#BFBFBF"
            d="M135 0l576 0 132 162 0 791c0,26 -21,47 -47,47l-661 0c-25,0 -46,-21 -46,-47l0 -153 465 0c11,0 20,-9 20,-20l0 -226c0,-11 -9,-20 -20,-20l-465 0 0 -487c0,-26 21,-47 46,-47z" />
        <path fill="#CCCCCC"
            d="M135 0l576 0 132 162 0 430c-102,208 -316,351 -564,351 -66,0 -130,-10 -190,-29l0 -114 465 0c11,0 20,-9 20,-20l0 -226c0,-11 -9,-20 -20,-20l-465 0 0 -487c0,-26 21,-47 46,-47z" />
        <path fill="#8A4545" d="M697 0l14 0 132 162 0 10 -143 0c-1,0 -3,-1 -3,-3l0 -169z" />
        <rect fill="#8A4545" y="534" width="574" height="265" rx="17" ry="20" />
        <path fill="white"
            d="M218 385c-12,0 -22,-9 -22,-21 0,-12 10,-21 22,-21l336 0c12,0 21,9 21,21 0,12 -9,21 -21,21l-336 0z" />
        <path fill="white"
            d="M218 300c-12,0 -22,-9 -22,-21 0,-12 10,-21 22,-21l336 0c12,0 21,9 21,21 0,12 -9,21 -21,21l-336 0z" />
        <path fill="white"
            d="M500 215c-12,0 -22,-9 -22,-21 0,-12 10,-21 22,-21l54 0c12,0 21,9 21,21 0,12 -9,21 -21,21l-54 0z" />
        <path fill="white"
            d="M218 215c-12,0 -21,-9 -21,-21 0,-12 9,-21 21,-21l205 0c12,0 22,9 22,21 0,12 -10,21 -22,21l-205 0z" />
        <path fill="white"
            d="M399 590l-60 0 0 16 0 77 0 61 37 0 0 -61 23 0c15,0 28,-5 38,-14 11,-8 16,-19 16,-31l0 -3c0,-12 -5,-23 -16,-31 -10,-9 -23,-14 -38,-14zm16 48c0,3 -1,7 -4,9 -4,3 -7,4 -12,4l-23 0 0 -29 23 0c5,0 8,1 12,4 3,2 4,6 4,9l0 3z" />
        <polygon fill="white" points="267,743 304,743 304,590 267,590 " />
        <polygon fill="white"
            points="232,590 121,590 121,622 183,622 121,720 121,744 232,744 232,712 169,712 232,610 " />
    </g>
</svg>