<svg width="20" height="20" viewBox="0 0 20 20" fill="none" xmlns="http://www.w3.org/2000/svg">
  <path
    d="M15.1386 8.61143H5.41634C4.86381 8.61143 4.3339 8.83093 3.9432 9.22163C3.5525 9.61233 3.33301 10.1422 3.33301 10.6948V16.2503C3.33301 16.8029 3.5525 17.3328 3.9432 17.7235C4.3339 18.1142 4.86381 18.3337 5.41634 18.3337H15.1386C15.6911 18.3337 16.221 18.1142 16.6117 17.7235C17.0024 17.3328 17.2219 16.8029 17.2219 16.2503V10.6948C17.2219 10.1422 17.0024 9.61233 16.6117 9.22163C16.221 8.83093 15.6911 8.61143 15.1386 8.61143ZM10.2775 14.8614C10.0028 14.8614 9.73423 14.78 9.50583 14.6274C9.27742 14.4747 9.09941 14.2578 8.99428 14.004C8.88916 13.7503 8.86166 13.471 8.91525 13.2016C8.96884 12.9322 9.10112 12.6847 9.29536 12.4905C9.4896 12.2962 9.73707 12.1639 10.0065 12.1103C10.2759 12.0568 10.5552 12.0843 10.809 12.1894C11.0627 12.2945 11.2797 12.4725 11.4323 12.7009C11.5849 12.9293 11.6663 13.1978 11.6663 13.4725C11.6663 13.8409 11.52 14.1942 11.2595 14.4546C10.9991 14.7151 10.6458 14.8614 10.2775 14.8614Z"
    fill="currentColor" fill-opacity="0.64" style="mix-blend-mode:multiply" />
  <path
    d="M14.4441 7.22255H13.0552V5.83366C13.063 5.10527 12.7813 4.40358 12.2721 3.88273C11.7628 3.36189 11.0676 3.0645 10.3393 3.05589H10.3101C9.94718 3.04954 9.58658 3.11477 9.2489 3.24786C8.91122 3.38094 8.60307 3.57926 8.34207 3.83149C8.08107 4.08372 7.87233 4.38491 7.72779 4.71785C7.58325 5.05079 7.50573 5.40895 7.49967 5.77186V7.22255H6.11078V5.76422C6.12193 4.67513 6.56183 3.63432 7.33515 2.86737C8.10847 2.10042 9.15289 1.66913 10.242 1.667H10.2844C10.8321 1.66598 11.3746 1.77335 11.8807 1.9829C12.3867 2.19246 12.8463 2.50007 13.2329 2.88801C13.6196 3.27595 13.9257 3.73655 14.1335 4.24329C14.3414 4.75004 14.447 5.2929 14.4441 5.84061V7.22255Z"
    fill="currentColor" fill-opacity="0.64" style="mix-blend-mode:multiply" />
</svg>