<svg width="24" height="24" viewBox="0 0 24 24" fill="none" xmlns="http://www.w3.org/2000/svg">
<path d="M6.343 4.29814C6.43595 4.39262 6.50969 4.50482 6.56 4.62832C6.61031 4.75183 6.6362 4.88421 6.6362 5.01791C6.6362 5.1516 6.61031 5.28398 6.56 5.40749C6.50969 5.53099 6.43595 5.64319 6.343 5.73767C4.84287 7.26451 4.00013 9.33519 4.00013 11.4943C4.00013 13.6534 4.84287 15.7241 6.343 17.2509C6.43848 17.3447 6.51464 17.457 6.56704 17.5811C6.61943 17.7052 6.64701 17.8387 6.64816 17.9738C6.64932 18.1089 6.62402 18.2429 6.57376 18.3679C6.52349 18.4929 6.44926 18.6065 6.35539 18.702C6.26153 18.7976 6.14991 18.8731 6.02705 18.9242C5.90419 18.9754 5.77254 19.0011 5.6398 19C5.50706 18.9988 5.37588 18.9707 5.25391 18.9174C5.13194 18.8641 5.02163 18.7866 4.92941 18.6894C1.02353 14.7157 1.02353 8.27186 4.92941 4.29814C5.11688 4.10742 5.37112 4.00027 5.6362 4.00027C5.90129 4.00027 6.15553 4.10742 6.343 4.29814ZM19.0713 4.29814C22.9762 8.27288 22.9762 14.7157 19.0713 18.6894C18.8839 18.8803 18.6296 18.9876 18.3644 18.9877C18.0992 18.9878 17.8448 18.8807 17.6572 18.6899C17.4697 18.4992 17.3642 18.2404 17.3641 17.9705C17.364 17.7007 17.4693 17.4418 17.6567 17.2509C19.1569 15.7241 19.9996 13.6534 19.9996 11.4943C19.9996 9.33519 19.1569 7.26451 17.6567 5.73767C17.4692 5.54678 17.3638 5.28787 17.3638 5.01791C17.3638 4.74794 17.4692 4.48903 17.6567 4.29814C17.8443 4.10724 18.0988 4 18.364 4C18.6293 4 18.8838 4.10724 19.0713 4.29814ZM9.30915 7.22197C9.49657 7.41275 9.60185 7.67147 9.60185 7.94123C9.60185 8.21099 9.49657 8.46971 9.30915 8.66049C8.94521 9.03081 8.65651 9.47046 8.45954 9.95433C8.26257 10.4382 8.1612 10.9568 8.1612 11.4806C8.1612 12.0043 8.26257 12.5229 8.45954 13.0068C8.65651 13.4906 8.94521 13.9303 9.30915 14.3006C9.40197 14.3951 9.47558 14.5073 9.52579 14.6308C9.576 14.7543 9.60181 14.8866 9.60177 15.0202C9.60172 15.1539 9.57581 15.2862 9.52552 15.4096C9.47522 15.533 9.40153 15.6452 9.30865 15.7396C9.21576 15.8341 9.10551 15.909 8.98418 15.9601C8.86284 16.0112 8.73281 16.0375 8.6015 16.0374C8.47019 16.0374 8.34017 16.011 8.21887 15.9598C8.09758 15.9086 7.98737 15.8337 7.89456 15.7391C6.7847 14.6097 6.1612 13.0778 6.1612 11.4806C6.1612 9.88328 6.7847 8.35143 7.89456 7.22197C7.9874 7.12738 8.09766 7.05234 8.21902 7.00115C8.34038 6.94995 8.47047 6.9236 8.60185 6.9236C8.73323 6.9236 8.86332 6.94995 8.98468 7.00115C9.10605 7.05234 9.2163 7.12738 9.30915 7.22197ZM16.2651 7.22197C17.375 8.35143 17.9985 9.88328 17.9985 11.4806C17.9985 13.0778 17.375 14.6097 16.2651 15.7391C16.0766 15.9245 15.8241 16.027 15.5619 16.0247C15.2998 16.0224 15.0491 15.9154 14.8637 15.7267C14.6784 15.5381 14.5732 15.283 14.571 15.0162C14.5687 14.7495 14.6694 14.4925 14.8516 14.3006C15.2155 13.9303 15.5042 13.4906 15.7012 13.0068C15.8981 12.5229 15.9995 12.0043 15.9995 11.4806C15.9995 10.9568 15.8981 10.4382 15.7012 9.95433C15.5042 9.47046 15.2155 9.03081 14.8516 8.66049C14.6694 8.46862 14.5687 8.21163 14.571 7.94489C14.5732 7.67815 14.6784 7.42299 14.8637 7.23436C15.0491 7.04574 15.2998 6.93875 15.5619 6.93643C15.8241 6.93411 16.0766 7.03665 16.2651 7.22197ZM12.0804 10.04C12.4781 10.04 12.8595 10.2008 13.1407 10.487C13.4219 10.7731 13.5799 11.1613 13.5799 11.566C13.5799 11.9707 13.4219 12.3589 13.1407 12.6451C12.8595 12.9312 12.4781 13.092 12.0804 13.092C11.6826 13.092 11.3012 12.9312 11.02 12.6451C10.7388 12.3589 10.5808 11.9707 10.5808 11.566C10.5808 11.1613 10.7388 10.7731 11.02 10.487C11.3012 10.2008 11.6826 10.04 12.0804 10.04Z" fill="#E14242"/>
</svg>
