<svg width="20" height="20" viewBox="0 0 20 20" fill="none" xmlns="http://www.w3.org/2000/svg">
  <g id="Icon/filled/data/social-sharing">
    <g id="Vector">
      <path
        d="M1.66602 4.56522V17.6087C1.66602 17.8009 1.74236 17.9852 1.87826 18.1211C2.01415 18.257 2.19847 18.3333 2.39065 18.3333H16.1588C16.351 18.3333 16.5353 18.257 16.6712 18.1211C16.8071 17.9852 16.8834 17.8009 16.8834 17.6087V11.087H15.4341V16.8841H3.11529V5.28986H4.56457V3.84058H2.39065C2.19847 3.84058 2.01415 3.91693 1.87826 4.05282C1.74236 4.18872 1.66602 4.37303 1.66602 4.56522Z"
        fill="currentColor" fill-opacity="0.64" style="mix-blend-mode:multiply" />
      <path
        d="M11.8109 11.8116V8.91304C7.97036 8.91304 6.66602 10 5.2892 11.8116C5.2892 5.94203 8.04283 4.56522 11.8109 4.56522V1.66667L17.608 6.73913L11.8109 11.8116Z"
        fill="currentColor" fill-opacity="0.64" style="mix-blend-mode:multiply" />
    </g>
  </g>
</svg>