<svg width="25" height="24" viewBox="0 0 25 24" fill="none" xmlns="http://www.w3.org/2000/svg">
<path d="M13.2292 6.64286C13.625 6.39286 13.8889 5.93929 13.8889 5.42857C13.8889 4.63929 13.2674 4 12.5 4C11.7326 4 11.1111 4.63929 11.1111 5.42857C11.1111 5.94286 11.375 6.39286 11.7708 6.64286L9.78125 10.7357C9.46528 11.3857 8.64583 11.5714 8.09375 11.1179L5 8.57143C5.17361 8.33214 5.27778 8.03571 5.27778 7.71429C5.27778 6.925 4.65625 6.28571 3.88889 6.28571C3.12153 6.28571 2.5 6.925 2.5 7.71429C2.5 8.50357 3.12153 9.14286 3.88889 9.14286H3.91319L5.5 18.1214C5.69097 19.2071 6.61111 20 7.6875 20H17.3125C18.3854 20 19.3056 19.2107 19.5 18.1214L21.0868 9.14286H21.1111C21.8785 9.14286 22.5 8.50357 22.5 7.71429C22.5 6.925 21.8785 6.28571 21.1111 6.28571C20.3438 6.28571 19.7222 6.925 19.7222 7.71429C19.7222 8.03571 19.8264 8.33214 20 8.57143L16.9062 11.1179C16.3542 11.5714 15.5347 11.3857 15.2188 10.7357L13.2292 6.64286Z" fill="currentColor"/>
</svg>
