<svg width="20" height="20" viewBox="0 0 20 20" fill="none" xmlns="http://www.w3.org/2000/svg">
    <g clip-path="url(#clip0_160_744)">
        <path
            d="M8.67452 16.3227C7.35115 17.695 5.19598 17.8216 3.72109 16.6136C2.84272 15.8531 2.39404 14.7096 2.52087 13.5547C2.63069 12.7032 3.02866 11.915 3.64858 11.321L6.04571 8.92221C6.53377 8.43399 6.53377 7.64259 6.04571 7.15438C5.55749 6.66632 4.76609 6.66632 4.27787 7.15438L1.93161 9.5015C0.862117 10.5328 0.187654 11.9062 0.0253974 13.383C-0.277667 16.7093 2.17314 19.6516 5.49947 19.9546C7.28578 20.1174 9.05221 19.4788 10.3215 18.2114L12.8286 15.7051C13.3167 15.2169 13.3167 14.4255 12.8286 13.9373C12.3404 13.4492 11.549 13.4492 11.0608 13.9373L8.67452 16.3227Z"
            fill="currentColor" fill-opacity="0.5" />
        <path
            d="M17.6346 1.22279C15.1456 -0.60591 11.6893 -0.319216 9.5356 1.8946L7.17598 4.25504C6.68792 4.74326 6.68792 5.53465 7.17598 6.02287C7.6642 6.51093 8.4556 6.51093 8.94381 6.02287L11.3409 3.62824C12.6354 2.28944 14.7298 2.13863 16.2027 3.27818C17.7187 4.5213 17.94 6.75801 16.6968 8.27404C16.6241 8.36276 16.5471 8.4479 16.466 8.52916L13.9589 11.0363C13.4708 11.5245 13.4708 12.3159 13.9589 12.8041C14.4471 13.2922 15.2385 13.2922 15.7267 12.8041L18.2339 10.297C20.5942 7.92913 20.5881 4.09618 18.2202 1.73586C18.0363 1.55246 17.8406 1.3811 17.6346 1.22279Z"
            fill="currentColor" fill-opacity="0.5" />
        <path
            d="M7.17588 11.0383L11.0604 7.15379C11.5487 6.66553 12.3403 6.66553 12.8285 7.15379C13.3168 7.64205 13.3168 8.43364 12.8285 8.9219L8.94399 12.8064C8.45573 13.2947 7.66414 13.2947 7.17588 12.8064C6.68763 12.3182 6.68763 11.5266 7.17588 11.0383Z"
            fill="currentColor" fill-opacity="0.5" />
    </g>
    <defs>
        <clipPath id="clip0_160_744">
            <rect width="20" height="20" fill="white" />
        </clipPath>
    </defs>
</svg>