<svg width="4" height="18" viewBox="0 0 4 18" fill="none" xmlns="http://www.w3.org/2000/svg">
  <path
    d="M2 3.99999C3.10457 3.99999 4 3.10456 4 2C4 0.895429 3.10457 0 2 0C0.89543 0 0 0.895429 0 2C0 3.10456 0.89543 3.99999 2 3.99999Z"
    fill="currentColor" fill-opacity="0.5" />
  <path
    d="M2 11.0002C3.10457 11.0002 4 10.1048 4 9.00024C4 7.89567 3.10457 7.00024 2 7.00024C0.89543 7.00024 0 7.89567 0 9.00024C0 10.1048 0.89543 11.0002 2 11.0002Z"
    fill="currentColor" fill-opacity="0.5" />
  <path
    d="M2 17.9997C3.10457 17.9997 4 17.1043 4 15.9998C4 14.8952 3.10457 13.9998 2 13.9998C0.89543 13.9998 0 14.8952 0 15.9998C0 17.1043 0.89543 17.9997 2 17.9997Z"
    fill="currentColor" fill-opacity="0.5" />
</svg>