<svg width="20" height="20" viewBox="0 0 20 20" fill="none" xmlns="http://www.w3.org/2000/svg">
<path d="M13.4736 3.3335C12.8451 3.3335 12.2722 3.55016 11.8069 3.90155C12.4146 4.71266 12.7791 5.71613 12.7791 6.80572V7.50016C12.7791 8.16197 12.6451 8.79322 12.4041 9.36891C12.734 9.50641 13.0944 9.5835 13.4736 9.5835C15.0076 9.5835 16.2514 8.33975 16.2514 6.80572V6.11127C16.2514 4.57725 15.0076 3.3335 13.4736 3.3335Z" fill="currentColor" fill-opacity="0.64" style="mix-blend-mode:multiply"/>
<path d="M7.91797 10.9724C6.00061 10.9724 4.44575 9.41752 4.44575 7.50016V6.80572C4.44575 4.88836 6.00061 3.3335 7.91797 3.3335C9.83533 3.3335 11.3902 4.88836 11.3902 6.80572V7.50016C11.3902 9.41752 9.83533 10.9724 7.91797 10.9724Z" fill="currentColor" fill-opacity="0.64" style="mix-blend-mode:multiply"/>
<path d="M17.5284 11.9481C16.6368 11.5384 15.1083 10.9724 13.4736 10.9724C12.6437 10.9724 11.8416 11.1189 11.1354 11.3161C11.3965 11.3703 11.6583 11.4252 11.9201 11.4918C13.9416 12.0071 15.3715 13.7661 15.5256 15.8335H17.6402C18.0236 15.8335 18.3347 15.5224 18.3347 15.1391V13.2092C18.3347 12.6661 18.0222 12.1745 17.5284 11.9481Z" fill="currentColor" fill-opacity="0.64" style="mix-blend-mode:multiply"/>
<path d="M13.4735 17.2224H2.36241C1.97908 17.2224 1.66797 16.9113 1.66797 16.5279V16.1981C1.66797 14.6182 2.72839 13.2279 4.25894 12.8377C5.28255 12.5766 6.54366 12.3613 7.91797 12.3613C9.29227 12.3613 10.5534 12.5766 11.577 12.8377C13.1076 13.2279 14.168 14.6182 14.168 16.1981V16.5279C14.168 16.9113 13.8569 17.2224 13.4735 17.2224Z" fill="currentColor" fill-opacity="0.64" style="mix-blend-mode:multiply"/>
</svg>
