<svg width="48" height="24" viewBox="0 0 48 24" fill="none" xmlns="http://www.w3.org/2000/svg">
<rect x="1.50006" y="1.5" width="45" height="21" rx="6.5" stroke="#121118" stroke-width="3"/>
<path d="M32.9307 18.7826V5.21741H35.4295V18.7826H32.9307ZM34.8406 18.7826V16.1695H41.0001V18.7826H34.8406ZM34.8406 13.1144V10.5974H40.443V13.1144H34.8406ZM34.8406 7.81132V5.21741H40.9205V7.81132H34.8406Z" fill="#121118"/>
<path d="M25.0859 18.7826L20.7568 5.21741H23.4307L26.7253 16.1887H25.6271L28.9694 5.21741H31.6114L27.2346 18.7826H25.0859Z" fill="#121118"/>
<path d="M16.9216 18.7826V5.21741H19.4204V18.7826H16.9216Z" fill="#121118"/>
<path d="M8.00006 18.7826V5.21741H10.4988V18.7826H8.00006ZM9.92588 18.7826V16.1311H15.4805V18.7826H9.92588Z" fill="#121118"/>
</svg>
