<svg width="120" height="67" viewBox="0 0 120 67" fill="none" xmlns="http://www.w3.org/2000/svg">
<path d="M106.317 32.384C103.541 32.384 101.116 32.0027 99.042 31.24C96.9984 30.448 95.1074 29.2013 93.3688 27.5L99.0878 22C100.277 23.0853 101.528 23.9213 102.839 24.508C104.151 25.0653 105.554 25.344 107.049 25.344C108.299 25.344 109.245 25.168 109.885 24.816C110.526 24.4347 110.846 23.9213 110.846 23.276C110.846 22.6307 110.572 22.1027 110.023 21.692C109.474 21.252 108.742 20.8707 107.826 20.548C106.942 20.196 105.951 19.844 104.853 19.492C103.785 19.14 102.717 18.7147 101.65 18.216C100.582 17.7173 99.5911 17.116 98.676 16.412C97.7915 15.6787 97.0747 14.784 96.5257 13.728C95.9767 12.6427 95.7021 11.3227 95.7021 9.768C95.7021 7.744 96.2054 5.99867 97.212 4.532C98.2185 3.06534 99.6368 1.95067 101.467 1.188C103.297 0.396 105.447 0 107.918 0C110.358 0 112.615 0.381334 114.689 1.144C116.794 1.87733 118.532 2.93333 119.905 4.312L114.14 9.812C113.134 8.87333 112.127 8.184 111.121 7.744C110.114 7.27467 109.016 7.04 107.826 7.04C106.881 7.04 106.118 7.18667 105.539 7.48C104.99 7.77333 104.715 8.21333 104.715 8.8C104.715 9.416 104.99 9.92933 105.539 10.34C106.088 10.7213 106.805 11.0733 107.689 11.396C108.604 11.7187 109.596 12.056 110.663 12.408C111.761 12.76 112.844 13.1853 113.912 13.684C114.979 14.1533 115.955 14.7693 116.84 15.532C117.755 16.2653 118.487 17.1893 119.036 18.304C119.585 19.4187 119.859 20.768 119.859 22.352C119.859 25.5493 118.67 28.028 116.291 29.788C113.942 31.5187 110.617 32.384 106.317 32.384Z" fill="#C1121F"/>
<path d="M74.9764 31.8561V0.528076H84.1269V31.8561H74.9764ZM65.2312 8.00807V0.528076H93.9178V8.00807H65.2312Z" fill="#C1121F"/>
<path d="M43.7863 31.8561V0.528076H52.9367V31.8561H43.7863ZM51.2439 31.8561V24.3761H66.4793V31.8561H51.2439Z" fill="#C1121F"/>
<path d="M14.5656 31.8561V0.528076H23.716V31.8561H14.5656ZM21.9774 31.8561V24.5521H39.4547V31.8561H21.9774ZM21.9774 19.4481V12.3201H37.7619V19.4481H21.9774ZM21.9774 7.83208V0.528076H39.1802V7.83208H21.9774Z" fill="#C1121F"/>
<path d="M0 31.8561V0.528076H9.15044V31.8561H0Z" fill="#C1121F"/>
<rect x="1" y="37.856" width="118" height="28" stroke="#C1121F" stroke-width="2"/>
<rect x="3.63043" y="40.3557" width="112.739" height="23" stroke="#C1121F"/>
<path d="M99.4874 53.3145V50.2648H102.484C103.162 50.2648 103.673 50.1175 104.02 49.8228C104.383 49.5281 104.565 49.1377 104.565 48.6515C104.565 48.1653 104.383 47.7749 104.02 47.4803C103.673 47.1856 103.162 47.0383 102.484 47.0383H99.4874V43.856H103.277C104.499 43.856 105.572 44.0549 106.497 44.4526C107.422 44.8504 108.148 45.4029 108.677 46.1101C109.205 46.8173 109.469 47.6423 109.469 48.5852C109.469 49.5281 109.197 50.3532 108.652 51.0604C108.124 51.7676 107.381 52.32 106.423 52.7178C105.465 53.1156 104.334 53.3145 103.029 53.3145H99.4874ZM95.4749 59.5908V43.856H100.429V59.5908H95.4749ZM104.986 59.5908L100.181 52.8725L104.639 52.0107L110.609 59.5908H104.986Z" fill="#595959"/>
<path d="M79.6556 59.5908V43.856H84.6094V59.5908H79.6556ZM83.6682 59.5908V55.9223H93.1299V59.5908H83.6682ZM83.6682 53.3587V49.7786H92.2135V53.3587H83.6682ZM83.6682 47.5245V43.856H92.9813V47.5245H83.6682Z" fill="#595959"/>
<path d="M67.5391 59.5908V43.856H72.4929V59.5908H67.5391ZM62.2632 47.6129V43.856H77.7934V47.6129H62.2632Z" fill="#595959"/>
<path d="M44.5581 59.5908V43.856H48.0258L49.5119 47.1709V59.5908H44.5581ZM56.6949 59.5908L46.4653 48.1212L48.0258 43.856L58.2554 55.3256L56.6949 59.5908ZM56.6949 59.5908L55.4565 56.0991V43.856H60.4103V59.5908H56.6949Z" fill="#595959"/>
<path d="M34.2823 59.856C32.7301 59.856 31.376 59.576 30.2201 59.0162C29.0642 58.4416 28.1643 57.6534 27.5203 56.6515C26.8763 55.6497 26.5543 54.5005 26.5543 53.204V43.856H31.5081V53.6018C31.5081 54.1027 31.632 54.53 31.8797 54.8836C32.1274 55.2372 32.4576 55.5097 32.8704 55.7013C33.2998 55.8781 33.7704 55.9665 34.2823 55.9665C34.8107 55.9665 35.273 55.8781 35.6693 55.7013C36.0821 55.5097 36.4041 55.2445 36.6353 54.9057C36.8665 54.5521 36.9821 54.1248 36.9821 53.6239V43.856H41.9607V53.2261C41.9607 54.5226 41.6387 55.6718 40.9947 56.6736C40.3672 57.6607 39.4755 58.4416 38.3196 59.0162C37.1802 59.576 35.8345 59.856 34.2823 59.856Z" fill="#595959"/>
<path d="M8.3479 59.5908V43.856H13.3017V59.5908H8.3479ZM18.9986 59.5908V43.856H23.9524V59.5908H18.9986ZM11.0477 53.4029V49.7344H20.9306V53.4029H11.0477Z" fill="#595959"/>
</svg>
