<svg width="97" height="96" viewBox="0 0 97 96" fill="none" xmlns="http://www.w3.org/2000/svg">
  <rect x="0.5" width="96" height="96" rx="48" fill="currentColor" />
  <path
    d="M71.4167 42.5833C72.5687 42.5833 73.5 41.6521 73.5 40.5V30.0833C73.5 28.9313 72.5687 28 71.4167 28H25.5833C24.4313 28 23.5 28.9313 23.5 30.0833V40.5C23.5 41.6521 24.4313 42.5833 25.5833 42.5833C27.8812 42.5833 29.75 44.4521 29.75 46.75C29.75 49.0479 27.8812 50.9167 25.5833 50.9167C24.4313 50.9167 23.5 51.8479 23.5 53V63.4167C23.5 64.5687 24.4313 65.5 25.5833 65.5H71.4167C72.5687 65.5 73.5 64.5687 73.5 63.4167V53C73.5 51.8479 72.5687 50.9167 71.4167 50.9167C69.1187 50.9167 67.25 49.0479 67.25 46.75C67.25 44.4521 69.1187 42.5833 71.4167 42.5833ZM58.9167 53H38.0833V48.8333H58.9167V53ZM58.9167 44.6667H38.0833V40.5H58.9167V44.6667Z"
    fill="white" />
</svg>