<svg width="34" height="27" viewBox="0 0 34 27" fill="none" xmlns="http://www.w3.org/2000/svg">
<path d="M30.3004 11.6466C30.0255 11.4321 29.6916 11.2941 29.3369 11.2484C28.9821 11.2027 28.6208 11.2512 28.294 11.3883L22.2148 13.9154L18.6826 7.96268C18.5138 7.68476 18.2691 7.45364 17.9737 7.29286C17.6782 7.13207 17.3424 7.04736 17.0006 7.04736C16.6587 7.04736 16.3229 7.13207 16.0275 7.29286C15.732 7.45364 15.4874 7.68476 15.3186 7.96268L11.7864 13.9154L5.70711 11.3883C5.37972 11.2514 5.01791 11.2029 4.66256 11.2482C4.30722 11.2935 3.97252 11.4308 3.69629 11.6446C3.42006 11.8585 3.21333 12.1403 3.09946 12.4582C2.9856 12.7761 2.96914 13.1174 3.05194 13.4437L6.10358 25.6074C6.16193 25.8429 6.27082 26.0648 6.42364 26.2598C6.57646 26.4548 6.77004 26.6188 6.99264 26.7418C7.29401 26.9104 7.63859 26.9997 7.98983 27.0001C8.16057 26.9998 8.33043 26.9771 8.49443 26.9327C14.0568 25.495 19.9323 25.495 25.4947 26.9327C26.0026 27.0575 26.5427 26.9888 26.9965 26.7418C27.2205 26.6203 27.4151 26.4569 27.5681 26.2616C27.7211 26.0664 27.8292 25.8436 27.8855 25.6074L30.9492 13.4437C31.0311 13.1174 31.0137 12.7762 30.8991 12.4586C30.7844 12.1411 30.5771 11.8598 30.3004 11.6466Z" fill="#FFA347"/>
<ellipse cx="17" cy="4.02702" rx="4" ry="4.02702" fill="#FFA347"/>
<ellipse cx="17" cy="18.1216" rx="3" ry="3.02026" fill="#BE9502"/>
<ellipse cx="31.5" cy="10.5708" rx="2.5" ry="2.51689" fill="#FFA347"/>
<ellipse cx="2.5" cy="10.5708" rx="2.5" ry="2.51689" fill="#FFA347"/>
<ellipse cx="9.5" cy="19.6317" rx="1.5" ry="1.51013" fill="#BE9502"/>
<ellipse cx="24.5" cy="19.6317" rx="1.5" ry="1.51013" fill="#BE9502"/>
</svg>
