<svg width="13" height="14" viewBox="0 0 13 14" fill="none" xmlns="http://www.w3.org/2000/svg">
<path d="M2.83333 6.47916H1.27083C1.1327 6.47916 1.00022 6.53403 0.902548 6.6317C0.804873 6.72938 0.75 6.86186 0.75 6.99999V12.7291C0.75 12.8673 0.804873 12.9998 0.902548 13.0974C1.00022 13.1951 1.1327 13.25 1.27083 13.25H2.83333V6.47916Z" fill="currentColor"/>
<path d="M12.489 6.16666C12.2935 5.93805 12.0508 5.75449 11.7775 5.62862C11.5043 5.50275 11.2071 5.43755 10.9062 5.43749H7.52082V2.83333C7.52082 1.68437 7.10728 0.75 5.95832 0.75C5.84404 0.749977 5.73292 0.787544 5.64209 0.85691C5.55127 0.926277 5.48578 1.02359 5.45572 1.13385L3.87499 6.47916V13.25H10.3469C10.8452 13.2523 11.3276 13.075 11.7059 12.7505C12.0841 12.4261 12.3327 11.9762 12.4062 11.4833L12.9666 7.83749C13.012 7.54102 12.9928 7.23826 12.9104 6.9499C12.8279 6.66153 12.6842 6.39437 12.489 6.16666Z" fill="currentColor"/>
</svg>
