<svg width="16" height="16" viewBox="0 0 16 16" fill="none" xmlns="http://www.w3.org/2000/svg">
<g clip-path="url(#clip0_29_927)">
<path d="M15.5112 6.27177C14.9096 5.2866 14.1507 4.40662 13.2647 3.66674L15.1307 1.80077C15.3864 1.53603 15.379 1.11415 15.1143 0.858466C14.856 0.609027 14.4466 0.609027 14.1883 0.858466L12.1591 2.89037C10.9012 2.14321 9.46303 1.75376 7.99998 1.76413C3.87417 1.76413 1.52304 4.58843 0.488772 6.2718C-0.162924 7.32588 -0.162924 8.65776 0.488772 9.71187C1.09039 10.697 1.84927 11.577 2.73528 12.3169L0.869318 14.1829C0.604572 14.4385 0.597231 14.8605 0.852918 15.1252C1.1086 15.3899 1.53051 15.3973 1.79522 15.1416C1.80078 15.1362 1.80625 15.1307 1.81162 15.1252L3.84553 13.0913C5.1019 13.8383 6.53831 14.2284 7.99998 14.2195C12.1258 14.2195 14.4769 11.3952 15.5112 9.71184C16.1629 8.65776 16.1629 7.32588 15.5112 6.27177ZM4.0015 7.99182C3.99772 5.78717 5.78184 3.99689 7.98649 3.99311C8.82065 3.99168 9.63431 4.25161 10.3132 4.73637L9.34552 5.70401C8.93929 5.45904 8.47437 5.32846 8.00002 5.32615C6.52781 5.32615 5.33435 6.51961 5.33435 7.99182C5.33666 8.46617 5.46724 8.93109 5.71221 9.33732L4.74457 10.305C4.26137 9.63043 4.00153 8.82154 4.0015 7.99182ZM8.00002 11.9903C7.17029 11.9903 6.3614 11.7305 5.68687 11.2473L6.65451 10.2796C7.06074 10.5246 7.52566 10.6552 8.00002 10.6575C9.47222 10.6575 10.6657 9.46402 10.6657 7.99182C10.6634 7.51746 10.5328 7.05254 10.2878 6.64632L11.2555 5.67868C12.5366 7.47282 12.1208 9.9659 10.3267 11.2471C9.64784 11.7318 8.83417 11.9918 8.00002 11.9903Z" fill="#595959"/>
</g>
<defs>
<clipPath id="clip0_29_927">
<rect width="16" height="16" fill="white"/>
</clipPath>
</defs>
</svg>
