<svg width="17" height="13" viewBox="0 0 17 13" fill="none" xmlns="http://www.w3.org/2000/svg">
<path d="M8.3496 9.28196C9.88617 9.28196 11.1318 8.03632 11.1318 6.49974C11.1318 4.96317 9.88617 3.71753 8.3496 3.71753C6.81302 3.71753 5.56738 4.96317 5.56738 6.49974C5.56738 8.03632 6.81302 9.28196 8.3496 9.28196Z" fill="#595959"/>
<path d="M16.1894 4.70476C15.1106 2.94778 12.6567 0 8.34977 0C4.04288 0 1.58895 2.94778 0.510142 4.70476C-0.170047 5.80493 -0.170047 7.19504 0.510142 8.29524C1.58895 10.0522 4.04288 13 8.34977 13C12.6567 13 15.1106 10.0522 16.1894 8.29524C16.8696 7.19504 16.8696 5.80493 16.1894 4.70476ZM8.34977 10.6733C6.04491 10.6733 4.17643 8.80484 4.17643 6.49998C4.17643 4.19512 6.04491 2.32664 8.34977 2.32664C10.6546 2.32664 12.5231 4.19512 12.5231 6.49998C12.5208 8.8039 10.6537 10.671 8.34977 10.6733Z" fill="#595959"/>
</svg>
