<svg width="109" height="95" viewBox="0 0 109 95" fill="none" xmlns="http://www.w3.org/2000/svg">
  <path
    d="M0.520909 71.1385C0.349209 70.9693 0.214363 70.7661 0.124891 70.5419C0.035419 70.3176 -0.00673286 70.0772 0.00110714 69.8358C-0.00759615 69.5908 0.035092 69.3468 0.126395 69.1194C0.217697 68.8921 0.355575 68.6865 0.531101 68.5161C0.708362 68.3445 0.918244 68.2104 1.14822 68.122C1.37819 68.0335 1.62355 67.9924 1.86968 68.0012C2.11628 67.9927 2.36208 68.0339 2.59256 68.1224C2.82304 68.2108 3.03354 68.3447 3.21165 68.5161C3.38606 68.6872 3.52297 68.8929 3.61364 69.1202C3.70432 69.3474 3.74675 69.5912 3.73825 69.8358C3.74591 70.0769 3.70402 70.317 3.61517 70.5411C3.52632 70.7652 3.39243 70.9686 3.22185 71.1385C3.04133 71.3112 2.82791 71.4456 2.59438 71.5335C2.36086 71.6214 2.11205 71.661 1.86289 71.65C1.61645 71.6595 1.37064 71.6191 1.14009 71.5312C0.909539 71.4433 0.698965 71.3098 0.520909 71.1385ZM0.259313 72.6867H3.44608V83.2241H0.259313V72.6867Z"
    fill="currentColor" />
  <path
    d="M15.5164 83.2306H11.5754L8.51772 79.0498V83.2306H5.35474V68.301H8.52451V76.6832L11.3036 72.6933H14.9388L11.324 77.6857L15.5164 83.2306Z"
    fill="currentColor" />
  <path
    d="M16.2773 71.1385C16.1056 70.9693 15.9707 70.7661 15.8812 70.5419C15.7918 70.3176 15.7496 70.0772 15.7575 69.8358C15.7488 69.5908 15.7914 69.3468 15.8827 69.1194C15.974 68.8921 16.1119 68.6865 16.2874 68.5161C16.4647 68.3445 16.6746 68.2104 16.9046 68.122C17.1345 68.0335 17.3799 67.9924 17.626 68.0012C17.8726 67.9927 18.1184 68.0339 18.3489 68.1224C18.5794 68.2108 18.7899 68.3447 18.968 68.5161C19.1424 68.6872 19.2793 68.8929 19.37 69.1202C19.4607 69.3474 19.5031 69.5912 19.4946 69.8358C19.5023 70.0769 19.4604 70.317 19.3715 70.5411C19.2827 70.7652 19.1488 70.9686 18.9782 71.1385C18.7977 71.3112 18.5842 71.4456 18.3507 71.5335C18.1172 71.6214 17.8684 71.661 17.6192 71.65C17.3728 71.6595 17.127 71.6191 16.8964 71.5312C16.6659 71.4433 16.4553 71.3098 16.2773 71.1385ZM16.0225 72.6935H19.2092V83.2309H16.0225V72.6935Z"
    fill="currentColor" />
  <path
    d="M31.019 82.8559C31.3954 83.4517 31.5892 84.1454 31.5762 84.8508C31.5933 85.6809 31.3562 86.4963 30.8967 87.1868C30.4088 87.8821 29.7318 88.422 28.9466 88.7418C28.0192 89.1231 27.0235 89.3088 26.0215 89.2874C25.0459 89.309 24.0772 89.1194 23.1812 88.7315C22.4138 88.4023 21.7603 87.8531 21.3025 87.1526C20.8548 86.4464 20.6254 85.6229 20.6434 84.786C20.6344 84.6179 20.6344 84.4494 20.6434 84.2813H23.701C23.6701 84.5758 23.704 84.8735 23.8002 85.1534C23.8965 85.4333 24.0529 85.6885 24.2582 85.9011C24.7391 86.3145 25.3627 86.5215 25.9943 86.4774C26.5809 86.5045 27.16 86.3367 27.642 86C27.8417 85.8551 28.0033 85.6636 28.1128 85.442C28.2223 85.2204 28.2765 84.9753 28.2705 84.728C28.283 84.4886 28.2365 84.2498 28.1352 84.0327C28.0338 83.8157 27.8808 83.6269 27.6896 83.4833C27.2004 83.1601 26.6195 83.0056 26.035 83.0434C25.0255 83.0668 24.0256 82.8408 23.1235 82.3853C22.3123 81.9647 21.6415 81.3151 21.1937 80.5165C20.7254 79.6584 20.491 78.6915 20.5143 77.7134C20.4994 76.7574 20.7412 75.8151 21.2141 74.9852C21.6751 74.1881 22.3511 73.5379 23.1642 73.1097C24.043 72.6476 25.0228 72.4131 26.0147 72.4276C26.8026 72.4192 27.5818 72.5943 28.2909 72.9392L29.4664 71.4046L31.8038 73.1745L30.4449 74.8147C31.1243 75.6258 31.4866 76.6573 31.4641 77.7168C31.4699 78.4725 31.2853 79.2174 30.9273 79.8822C30.5669 80.5448 30.0457 81.1055 29.4121 81.5123C30.0631 81.7993 30.6202 82.265 31.019 82.8559ZM27.7371 79.5173C27.9596 79.2737 28.1317 78.9882 28.2437 78.6774C28.3557 78.3666 28.4052 78.0366 28.3894 77.7065C28.4059 77.3787 28.3577 77.0509 28.2475 76.7419C28.1373 76.4329 27.9673 76.1488 27.7473 75.906C27.5255 75.6772 27.258 75.4981 26.9623 75.3805C26.6666 75.263 26.3494 75.2096 26.0316 75.224C25.7168 75.2129 25.4032 75.2678 25.1107 75.3852C24.8182 75.5027 24.5533 75.68 24.3329 75.906C24.1113 76.1479 23.9397 76.4317 23.8283 76.7409C23.7169 77.05 23.6679 77.3782 23.684 77.7065C23.6563 78.369 23.8894 79.0158 24.3329 79.5071C24.552 79.7348 24.8167 79.9133 25.1095 80.0308C25.4023 80.1484 25.7166 80.2023 26.0316 80.1891C26.3477 80.2024 26.6631 80.1486 26.957 80.031C27.2509 79.9135 27.5168 79.735 27.7371 79.5071V79.5173Z"
    fill="currentColor" />
  <path
    d="M43.576 72.6863V83.2236H40.8173L40.6135 81.9653C40.203 82.4442 39.6909 82.8247 39.1147 83.0791C38.5386 83.3334 37.9131 83.455 37.284 83.435C36.4058 83.4532 35.541 83.2164 34.7937 82.753C34.0574 82.2789 33.4688 81.6065 33.095 80.8126C32.6774 79.9229 32.4693 78.9486 32.4869 77.9652C32.4693 76.9817 32.6774 76.0075 33.095 75.1177C33.4688 74.3238 34.0574 73.6514 34.7937 73.1773C35.541 72.7139 36.4058 72.4771 37.284 72.4953C37.9247 72.4876 38.56 72.6142 39.1492 72.867C39.7122 73.1104 40.2128 73.4789 40.6135 73.9446L40.8173 72.7067L43.576 72.6863ZM39.7607 79.8851C40.2254 79.353 40.4687 78.662 40.4402 77.9549C40.4687 77.2479 40.2254 76.5569 39.7607 76.0248C39.5433 75.7839 39.2764 75.5932 38.9784 75.466C38.6804 75.3389 38.3585 75.2782 38.0348 75.2882C37.7115 75.277 37.3898 75.3382 37.093 75.4673C36.7963 75.5965 36.5319 75.7904 36.3191 76.035C35.8648 76.5681 35.6282 77.254 35.6566 77.9549C35.6282 78.6559 35.8648 79.3417 36.3191 79.8748C36.5319 80.1194 36.7963 80.3133 37.093 80.4425C37.3898 80.5717 37.7115 80.6329 38.0348 80.6217C38.358 80.6325 38.6796 80.5729 38.9776 80.4469C39.2755 80.3209 39.5427 80.1316 39.7607 79.8919V79.8851Z"
    fill="currentColor" />
  <path
    d="M45.7204 71.1385C45.5487 70.9693 45.4138 70.7661 45.3243 70.5419C45.2349 70.3177 45.1927 70.0772 45.2006 69.8358C45.1919 69.5909 45.2345 69.3468 45.3259 69.1194C45.4172 68.8921 45.555 68.6865 45.7306 68.5161C45.9078 68.3445 46.1177 68.2104 46.3477 68.122C46.5776 68.0335 46.823 67.9924 47.0691 68.0012C47.3158 67.9924 47.5617 68.0334 47.7922 68.1219C48.0228 68.2103 48.2332 68.3444 48.4111 68.5161C48.5855 68.6872 48.7224 68.893 48.8131 69.1202C48.9038 69.3475 48.9462 69.5912 48.9377 69.8358C48.9454 70.0769 48.9035 70.317 48.8146 70.5411C48.7258 70.7653 48.5919 70.9686 48.4213 71.1385C48.241 71.3116 48.0276 71.4461 47.794 71.534C47.5605 71.622 47.3115 71.6614 47.0623 71.65C46.8159 71.6595 46.5701 71.6191 46.3396 71.5312C46.109 71.4433 45.8984 71.3098 45.7204 71.1385ZM45.4656 72.6935H48.6523V83.2309H45.4656V72.6935Z"
    fill="currentColor" />
  <path
    d="M56.8252 82.7943C56.0095 82.3613 55.3384 81.6972 54.8955 80.8846C54.4268 79.991 54.1929 78.9922 54.216 77.9826C54.1921 76.9772 54.4261 75.9826 54.8955 75.0942C55.342 74.2765 56.0114 73.6034 56.8252 73.1538C57.7052 72.682 58.6919 72.447 59.6892 72.4718C60.4193 72.4685 61.143 72.6087 61.8194 72.8844C62.4994 73.1648 63.1146 73.5827 63.6268 74.112L61.8602 76.1377C61.5978 75.8714 61.285 75.6606 60.9401 75.5176C60.5953 75.3747 60.2254 75.3026 59.8523 75.3056C59.5193 75.2934 59.1876 75.3529 58.8794 75.4799C58.5712 75.6069 58.2936 75.7987 58.0653 76.0422C57.5949 76.571 57.3508 77.2643 57.3858 77.9723C57.3541 78.6798 57.5978 79.372 58.0653 79.9025C58.2944 80.1479 58.5735 80.3407 58.8837 80.4678C59.1939 80.595 59.5278 80.6534 59.8625 80.6391C60.2587 80.6439 60.6514 80.5647 61.015 80.4066C61.3786 80.2486 61.7048 80.0152 61.9723 79.7217L63.7797 81.7269C63.2688 82.2842 62.6471 82.7279 61.9549 83.0292C61.2626 83.3305 60.5151 83.4828 59.7606 83.4763C58.7409 83.4974 57.732 83.263 56.8252 82.7943Z"
    fill="currentColor" />
  <path
    d="M66.5536 82.7705C65.7404 82.3281 65.0734 81.6574 64.6341 80.8403C64.1699 79.9536 63.9362 78.9637 63.9546 77.9622C63.9362 76.9607 64.1699 75.9707 64.6341 75.084C65.0734 74.267 65.7404 73.5962 66.5536 73.1539C67.4509 72.6791 68.4547 72.4443 69.4686 72.4718C70.4845 72.4455 71.4903 72.6803 72.3904 73.1539C73.2085 73.5896 73.8808 74.2573 74.3235 75.0738C74.7892 75.9599 75.0231 76.9503 75.003 77.9519C75.0231 78.9536 74.7892 79.944 74.3235 80.8301C73.8833 81.6499 73.2121 82.3213 72.3938 82.7602C71.4937 83.2338 70.4879 83.4686 69.472 83.4423C68.4579 83.4736 67.4528 83.2422 66.5536 82.7705ZM71.1741 79.8821C71.6197 79.3448 71.851 78.6607 71.823 77.9622C71.851 77.2636 71.6197 76.5795 71.1741 76.0423C70.9641 75.7988 70.7026 75.6055 70.4088 75.4763C70.1149 75.3471 69.7961 75.2853 69.4754 75.2955C69.1545 75.2831 68.8349 75.3439 68.5407 75.4732C68.2465 75.6026 67.9853 75.7971 67.7767 76.0423C67.3284 76.5782 67.0958 77.2629 67.1244 77.9622C67.0958 78.6614 67.3284 79.3461 67.7767 79.8821C67.9853 80.1272 68.2465 80.3218 68.5407 80.4511C68.8349 80.5805 69.1545 80.6413 69.4754 80.6289C69.7961 80.639 70.1149 80.5772 70.4088 80.4481C70.7026 80.3189 70.9641 80.1255 71.1741 79.8821Z"
    fill="currentColor" />
  <path
    d="M86.8287 72.6863V83.2236H84.0666L83.8628 81.9653C83.4523 82.4442 82.9402 82.8247 82.3641 83.0791C81.7879 83.3334 81.1624 83.455 80.5333 83.4351C79.6562 83.4534 78.7924 83.2165 78.0464 82.753C77.3093 82.2799 76.7204 81.6072 76.3477 80.8126C75.9274 79.9237 75.7181 78.949 75.7362 77.9652C75.7181 76.9813 75.9274 76.0067 76.3477 75.1177C76.7204 74.3231 77.3093 73.6505 78.0464 73.1773C78.7924 72.7139 79.6562 72.477 80.5333 72.4953C81.1751 72.488 81.8114 72.6146 82.4019 72.867C82.9638 73.1106 83.4634 73.479 83.8628 73.9446L84.0666 72.7067L86.8287 72.6863ZM83.01 79.8851C83.4775 79.3546 83.7212 78.6625 83.6895 77.9549C83.7212 77.2474 83.4775 76.5553 83.01 76.0248C82.793 75.7835 82.5261 75.5926 82.228 75.4654C81.93 75.3382 81.6079 75.2777 81.2841 75.2882C80.9638 75.2802 80.6456 75.343 80.3521 75.472C80.0585 75.6011 79.7968 75.7933 79.5854 76.035C79.1338 76.5695 78.8986 77.2547 78.9263 77.9549C78.8986 78.6552 79.1338 79.3404 79.5854 79.8749C79.7968 80.1166 80.0585 80.3088 80.3521 80.4379C80.6456 80.5669 80.9638 80.6297 81.2841 80.6217C81.6073 80.633 81.9291 80.5736 82.2272 80.4476C82.5252 80.3216 82.7923 80.1319 83.01 79.8919V79.8851Z"
    fill="currentColor" />
  <path
    d="M90.7564 82.7943C89.9406 82.3613 89.2696 81.6972 88.8267 80.8846C88.358 79.991 88.1241 78.9922 88.1472 77.9826C88.1232 76.9772 88.3572 75.9826 88.8267 75.0942C89.2732 74.2765 89.9425 73.6034 90.7564 73.1538C91.6363 72.682 92.6231 72.447 93.6204 72.4718C94.3505 72.4685 95.0741 72.6087 95.7506 72.8844C96.4306 73.1648 97.0458 73.5827 97.558 74.112L95.7913 76.1377C95.529 75.8714 95.2162 75.6606 94.8713 75.5176C94.5264 75.3747 94.1565 75.3026 93.7835 75.3056C93.4505 75.2937 93.1189 75.3532 92.8107 75.4802C92.5025 75.6072 92.2249 75.7988 91.9964 76.0422C91.5261 76.571 91.282 77.2643 91.3169 77.9723C91.2853 78.6798 91.5289 79.372 91.9964 79.9025C92.2258 80.1475 92.505 80.3401 92.8151 80.4672C93.1252 80.5943 93.459 80.6529 93.7937 80.6391C94.1898 80.6439 94.5826 80.5647 94.9462 80.4066C95.3098 80.2486 95.636 80.0152 95.9034 79.7217L97.7109 81.7269C97.1986 82.2828 96.576 82.7248 95.8832 83.0244C95.1904 83.3239 94.4427 83.4744 93.6883 83.4661C92.6706 83.4897 91.663 83.2589 90.7564 82.7943Z"
    fill="currentColor" />
  <path
    d="M107.913 73.7607C108.64 74.6269 109.002 75.7999 109 77.2799V83.2306H105.813V77.4607C105.847 76.8875 105.677 76.3208 105.334 75.8613C105.171 75.6695 104.967 75.5178 104.737 75.4179C104.506 75.318 104.256 75.2725 104.006 75.285C103.72 75.2753 103.437 75.3297 103.175 75.4442C102.914 75.5586 102.681 75.7303 102.494 75.9466C102.091 76.4295 101.884 77.0465 101.913 77.6755V83.2204H98.7261V68.301H101.913V73.8459C102.283 73.3958 102.751 73.0369 103.281 72.7969C103.811 72.5569 104.389 72.4421 104.97 72.4614C105.527 72.4366 106.082 72.5409 106.593 72.7662C107.103 72.9915 107.555 73.3318 107.913 73.7607Z"
    fill="currentColor" />
  <path
    d="M39.1702 90.39V92.7567H38.4913V92.2428C38.3427 92.4358 38.1474 92.5883 37.9236 92.6858C37.6998 92.7834 37.4549 92.8229 37.2116 92.8006C36.3257 92.8006 35.7656 92.3307 35.7656 91.6545C35.7656 91.0324 36.1729 90.5185 37.3372 90.5185H38.454V90.3799C38.454 89.7848 38.1146 89.44 37.4085 89.44C36.9608 89.436 36.5251 89.5839 36.173 89.8592L35.8776 89.3318C36.3437 88.99 36.9115 88.8139 37.49 88.8314C38.566 88.8145 39.1702 89.3284 39.1702 90.39ZM38.4608 91.5497V91.0087H37.3712C36.6719 91.0087 36.4751 91.2792 36.4751 91.6105C36.4751 91.9993 36.8145 92.2394 37.3338 92.2394C37.5707 92.2574 37.8072 92.2004 38.0096 92.0765C38.212 91.9527 38.3699 91.7683 38.4608 91.5497Z"
    fill="currentColor" />
  <path
    d="M45.3695 88.8143V89.4905C45.3152 89.4872 45.2608 89.4872 45.2065 89.4905C44.4496 89.4905 43.9778 89.9503 43.9778 90.8023V92.7396H43.2717V88.8515H43.9506V89.504C44.1984 89.0476 44.6838 88.8143 45.3695 88.8143Z"
    fill="currentColor" />
  <path
    d="M50.118 91.0289H46.9511C46.996 91.3628 47.1679 91.6668 47.4313 91.8781C47.6947 92.0895 48.0294 92.1921 48.3665 92.1649C48.5771 92.1727 48.7868 92.1351 48.9813 92.0546C49.1758 91.974 49.3506 91.8525 49.4935 91.6983L49.8838 92.1514C49.6895 92.3631 49.4506 92.5296 49.1842 92.6389C48.9178 92.7482 48.6305 92.7976 48.3428 92.7836C47.0834 92.7836 46.245 91.9553 46.245 90.7956C46.2343 90.5352 46.2773 90.2753 46.3715 90.0321C46.4657 89.7889 46.6091 89.5675 46.7927 89.3818C46.9764 89.196 47.1963 89.0498 47.439 88.9522C47.6817 88.8546 47.942 88.8077 48.2036 88.8144C48.4659 88.8072 48.7268 88.8547 48.9696 88.9538C49.2124 89.0529 49.4318 89.2014 49.6136 89.3898C49.7954 89.5783 49.9357 89.8024 50.0255 90.048C50.1153 90.2936 50.1526 90.5552 50.135 90.8159C50.1343 90.8872 50.1286 90.9584 50.118 91.0289ZM46.9511 90.5218H49.4561C49.431 90.2115 49.2868 89.9228 49.0536 89.7157C48.8203 89.5086 48.5159 89.3989 48.2036 89.4095C47.8915 89.3997 47.5875 89.5097 47.3545 89.7167C47.1214 89.9236 46.977 90.2118 46.9511 90.5218Z"
    fill="currentColor" />
  <path
    d="M54.5 90.39V92.7566H53.8212V92.2427C53.6716 92.4356 53.4756 92.5878 53.2513 92.6853C53.0271 92.7828 52.7818 92.8224 52.5381 92.8005C51.6555 92.8005 51.0955 92.3306 51.0955 91.6544C51.0955 91.0323 51.4994 90.5184 52.6637 90.5184H53.7838V90.3798C53.7838 89.7848 53.4444 89.4399 52.7384 89.4399C52.2895 89.4354 51.8526 89.5833 51.4994 89.8592L51.2041 89.3317C51.6704 88.9904 52.238 88.8143 52.8164 88.8314C53.8958 88.8145 54.5 89.3284 54.5 90.39ZM53.794 91.5496V91.0087H52.7044C52.0052 91.0087 51.8049 91.2791 51.8049 91.6105C51.8049 91.9993 52.1443 92.2393 52.6671 92.2393C52.9038 92.2568 53.1401 92.1996 53.3424 92.0758C53.5447 91.952 53.7027 91.7679 53.794 91.5496Z"
    fill="currentColor" />
  <path
    d="M55.7224 92.3274L56.0177 91.7695C56.421 92.0336 56.8929 92.1746 57.3755 92.1753C58.0306 92.1753 58.3056 91.9758 58.3056 91.6444C58.3056 90.7722 55.8378 91.5295 55.8378 89.9811C55.8378 89.2846 56.4624 88.8146 57.4637 88.8146C57.9593 88.802 58.4496 88.9185 58.886 89.1527L58.5839 89.7106C58.2465 89.5006 57.8547 89.3936 57.457 89.4029C56.8392 89.4029 56.5371 89.6294 56.5371 89.9371C56.5371 90.8533 59.0116 90.1061 59.0116 91.6275C59.0116 92.3308 58.3633 92.7804 57.3144 92.7804C56.7501 92.7921 56.1954 92.6342 55.7224 92.3274Z"
    fill="currentColor" />
  <path
    d="M59.9472 90.7958C59.9403 90.5297 59.9887 90.2651 60.0892 90.0184C60.1898 89.7718 60.3403 89.5486 60.5315 89.3626C60.7227 89.1766 60.9504 89.0319 61.2003 88.9376C61.4502 88.8433 61.7169 88.8014 61.9838 88.8146C62.251 88.8004 62.5182 88.8416 62.7685 88.9356C63.0189 89.0295 63.247 89.1741 63.4384 89.3603C63.6298 89.5465 63.7803 89.7702 63.8805 90.0172C63.9807 90.2643 64.0283 90.5294 64.0205 90.7958C64.0283 91.0624 63.9806 91.3278 63.8805 91.5752C63.7804 91.8226 63.6299 92.0467 63.4387 92.2334C63.2474 92.4201 63.0194 92.5654 62.769 92.6601C62.5186 92.7548 62.2513 92.7969 61.9838 92.7837C61.7166 92.7959 61.4497 92.7531 61.1998 92.658C60.9499 92.563 60.7223 92.4177 60.5312 92.2312C60.3401 92.0447 60.1897 91.821 60.0892 91.574C59.9887 91.3271 59.9404 91.0622 59.9472 90.7958ZM63.2907 90.7958C63.301 90.6195 63.2746 90.443 63.2131 90.2774C63.1515 90.1118 63.0562 89.9607 62.9331 89.8336C62.81 89.7066 62.6617 89.6063 62.4978 89.5391C62.3338 89.472 62.1577 89.4394 61.9804 89.4434C61.8026 89.439 61.6258 89.4712 61.4611 89.5381C61.2964 89.605 61.1474 89.705 61.0234 89.832C60.8994 89.9591 60.8031 90.1102 60.7405 90.2761C60.678 90.4419 60.6506 90.6189 60.66 90.7958C60.6506 90.9727 60.678 91.1496 60.7405 91.3155C60.8031 91.4813 60.8994 91.6325 61.0234 91.7595C61.1474 91.8865 61.2964 91.9866 61.4611 92.0535C61.6258 92.1203 61.8026 92.1526 61.9804 92.1481C62.1575 92.1517 62.3335 92.1187 62.4972 92.0514C62.6609 91.984 62.8089 91.8838 62.9319 91.7568C63.0549 91.6299 63.1503 91.479 63.212 91.3136C63.2737 91.1482 63.3005 90.9719 63.2907 90.7958Z"
    fill="currentColor" />
  <path
    d="M69.0937 90.5014V92.7395H68.3876V90.596C68.3876 89.832 68.0041 89.4601 67.3354 89.4601C66.5852 89.4601 66.0964 89.9064 66.0964 90.7482V92.7531H65.3904V88.865H66.0693V89.4499C66.2363 89.2417 66.4512 89.0764 66.6957 88.9682C66.9403 88.8599 67.2074 88.8118 67.4745 88.8278C68.425 88.8143 69.0937 89.3553 69.0937 90.5014Z"
    fill="currentColor" />
  <path
    d="M73.991 88.5138V88.8519H75.1248V89.43H74.0148V92.7399H73.3088V89.43H72.6299V88.8519H73.3088V88.5138C73.2949 88.3432 73.3189 88.1717 73.3791 88.0114C73.4392 87.8511 73.5341 87.706 73.6568 87.5863C73.7796 87.4666 73.9273 87.3753 74.0895 87.3188C74.2517 87.2623 74.4243 87.2421 74.5952 87.2595C74.8787 87.2474 75.1585 87.3269 75.3929 87.486L75.1791 88.0202C75.0208 87.9034 74.8295 87.8395 74.6326 87.8376C74.2049 87.8309 73.991 88.0675 73.991 88.5138Z"
    fill="currentColor" />
  <path
    d="M75.7797 90.7958C75.7728 90.5297 75.8212 90.2651 75.9217 90.0184C76.0223 89.7718 76.1729 89.5486 76.364 89.3626C76.5552 89.1766 76.7829 89.0319 77.0328 88.9376C77.2827 88.8433 77.5494 88.8014 77.8163 88.8146C78.0835 88.8004 78.3507 88.8416 78.601 88.9356C78.8514 89.0295 79.0795 89.1741 79.2709 89.3603C79.4623 89.5465 79.6128 89.7702 79.713 90.0172C79.8132 90.2643 79.8609 90.5294 79.853 90.7958C79.8608 91.0624 79.8131 91.3278 79.713 91.5752C79.6129 91.8226 79.4625 92.0467 79.2712 92.2334C79.0799 92.4201 78.8519 92.5654 78.6015 92.6601C78.3512 92.7548 78.0838 92.7969 77.8163 92.7837C77.5491 92.7959 77.2822 92.7531 77.0323 92.658C76.7824 92.563 76.5548 92.4177 76.3637 92.2312C76.1727 92.0447 76.0222 91.821 75.9217 91.574C75.8212 91.3271 75.7729 91.0622 75.7797 90.7958ZM79.1232 90.7958C79.1335 90.6195 79.1071 90.443 79.0456 90.2774C78.984 90.1118 78.8887 89.9607 78.7656 89.8336C78.6425 89.7066 78.4943 89.6063 78.3303 89.5391C78.1663 89.472 77.9902 89.4394 77.8129 89.4434C77.6351 89.439 77.4583 89.4712 77.2936 89.5381C77.1289 89.605 76.9799 89.705 76.8559 89.832C76.7319 89.9591 76.6356 90.1102 76.5731 90.2761C76.5105 90.4419 76.4831 90.6189 76.4925 90.7958C76.4831 90.9727 76.5105 91.1496 76.5731 91.3155C76.6356 91.4813 76.7319 91.6325 76.8559 91.7595C76.9799 91.8865 77.1289 91.9866 77.2936 92.0535C77.4583 92.1203 77.6351 92.1526 77.8129 92.1481C77.99 92.1517 78.166 92.1187 78.3297 92.0514C78.4934 91.984 78.6414 91.8838 78.7644 91.7568C78.8874 91.6299 78.9828 91.479 79.0445 91.3136C79.1063 91.1482 79.133 90.9719 79.1232 90.7958Z"
    fill="currentColor" />
  <path
    d="M83.318 88.8143V89.4905C83.2637 89.4872 83.2093 89.4872 83.155 89.4905C82.3981 89.4905 81.9262 89.9503 81.9262 90.8023V92.7396H81.2202V88.8515H81.8991V89.504C82.1605 89.0476 82.6323 88.8143 83.318 88.8143Z"
    fill="currentColor" />
  <path
    d="M91.0723 90.7961C91.0857 91.0586 91.044 91.3211 90.95 91.5668C90.8559 91.8124 90.7115 92.0359 90.526 92.2229C90.3405 92.4099 90.1179 92.5564 89.8724 92.653C89.6269 92.7496 89.3639 92.7942 89.1001 92.784C88.8303 92.7933 88.5623 92.7366 88.3197 92.6187C88.077 92.5008 87.8671 92.3254 87.7084 92.1078V92.7232H87.0295V87.2799H87.739V89.42C87.9007 89.2178 88.1078 89.0562 88.3436 88.9482C88.5794 88.8401 88.8373 88.7887 89.0967 88.7979C89.3619 88.7861 89.6267 88.8299 89.8738 88.9265C90.1209 89.0232 90.3449 89.1705 90.5312 89.3589C90.7175 89.5473 90.8619 89.7726 90.9551 90.0202C91.0483 90.2678 91.0882 90.5321 91.0723 90.7961ZM90.3595 90.7961C90.3694 90.6193 90.3424 90.4425 90.2802 90.2766C90.2181 90.1108 90.1221 89.9596 89.9984 89.8325C89.8747 89.7054 89.7258 89.6053 89.5613 89.5384C89.3968 89.4714 89.2201 89.4392 89.0424 89.4437C88.8652 89.4402 88.6891 89.4731 88.5252 89.5404C88.3613 89.6077 88.2131 89.708 88.0898 89.8349C87.9666 89.9618 87.8709 90.1126 87.8088 90.278C87.7467 90.4434 87.7194 90.6197 87.7288 90.7961C87.7194 90.9724 87.7467 91.1487 87.8088 91.3141C87.8709 91.4795 87.9666 91.6303 88.0898 91.7572C88.2131 91.8841 88.3613 91.9844 88.5252 92.0517C88.6891 92.119 88.8652 92.1519 89.0424 92.1484C89.2199 92.1524 89.3964 92.1198 89.5607 92.0527C89.725 91.9856 89.8736 91.8855 89.9972 91.7585C90.1209 91.6316 90.2169 91.4806 90.2792 91.3149C90.3415 91.1493 90.3688 90.9727 90.3595 90.7961Z"
    fill="currentColor" />
  <path
    d="M95.9696 91.0289H92.8027C92.8476 91.3628 93.0195 91.6668 93.2829 91.8781C93.5463 92.0895 93.881 92.1921 94.2181 92.1649C94.4286 92.1725 94.6383 92.1348 94.8328 92.0543C95.0273 91.9737 95.202 91.8523 95.3451 91.6983L95.7388 92.1514C95.5451 92.3631 95.3068 92.5295 95.041 92.6388C94.7752 92.7481 94.4884 92.7975 94.2012 92.7836C92.9418 92.7836 92.1034 91.9553 92.1034 90.7956C92.0928 90.5369 92.1352 90.2787 92.2282 90.0369C92.3212 89.7951 92.4627 89.5747 92.6441 89.3893C92.8256 89.2038 93.0431 89.0572 93.2834 88.9584C93.5237 88.8595 93.7817 88.8105 94.0416 88.8144C94.3038 88.8072 94.5646 88.8547 94.8072 88.9538C95.0498 89.0529 95.269 89.2015 95.4506 89.39C95.6321 89.5785 95.7721 89.8027 95.8615 90.0483C95.9509 90.2938 95.9877 90.5553 95.9696 90.8159C95.9832 90.8768 95.9764 90.9647 95.9696 91.0289ZM92.8027 90.5218H95.3077C95.2825 90.2091 95.1365 89.9184 94.9003 89.7109C94.6641 89.5034 94.3562 89.3953 94.0416 89.4095C93.7316 89.4024 93.4306 89.5137 93.2003 89.7205C92.9699 89.9273 92.8277 90.2139 92.8027 90.5218Z"
    fill="currentColor" />
  <path
    d="M97.2429 87.648C97.2429 87.586 97.2554 87.5247 97.2796 87.4676C97.3038 87.4105 97.3393 87.3588 97.3839 87.3156C97.4285 87.2724 97.4814 87.2386 97.5394 87.2161C97.5974 87.1936 97.6593 87.183 97.7215 87.1848C97.7827 87.1826 97.8437 87.1924 97.9011 87.2139C97.9584 87.2354 98.0108 87.268 98.0554 87.3098C98.0999 87.3517 98.1357 87.4019 98.1605 87.4577C98.1854 87.5134 98.1988 87.5735 98.2001 87.6345C98.2011 87.697 98.1893 87.7591 98.1655 87.817C98.1417 87.8749 98.1064 87.9274 98.0616 87.9713C98.0169 88.0152 97.9637 88.0496 97.9053 88.0725C97.8468 88.0954 97.7843 88.1063 97.7215 88.1044C97.6598 88.1067 97.5982 88.0966 97.5404 88.0747C97.4827 88.0528 97.4299 88.0196 97.3853 87.977C97.3407 87.9345 97.3051 87.8834 97.2806 87.8269C97.2561 87.7704 97.2433 87.7096 97.2429 87.648ZM97.3685 88.8516H98.0745V92.7396H97.3685V88.8516Z"
    fill="currentColor" />
  <path
    d="M103.546 90.5016V92.7398H102.836V90.5963C102.836 89.8322 102.456 89.4603 101.784 89.4603C101.034 89.4603 100.549 89.9066 100.549 90.7484V92.7533H99.812V88.8653H100.491V89.4501C100.658 89.2421 100.873 89.077 101.118 88.9688C101.362 88.8606 101.629 88.8123 101.896 88.8281C102.867 88.8145 103.546 89.3555 103.546 90.5016Z"
    fill="currentColor" />
  <path
    d="M109 88.8519V92.2125C109 93.5818 108.301 94.2072 106.963 94.2072C106.3 94.2357 105.646 94.0351 105.113 93.6392L105.453 93.0983C105.879 93.4244 106.403 93.5971 106.94 93.5885C107.86 93.5885 108.28 93.1659 108.28 92.2835V91.9758C108.105 92.1734 107.889 92.3298 107.646 92.4339C107.403 92.5379 107.14 92.587 106.875 92.5776C106.619 92.5916 106.363 92.5529 106.122 92.464C105.882 92.3752 105.663 92.238 105.478 92.0611C105.293 91.8842 105.146 91.6713 105.047 91.4356C104.949 91.1999 104.899 90.9465 104.903 90.6911C104.9 90.4354 104.949 90.1817 105.049 89.946C105.149 89.7103 105.297 89.4978 105.483 89.3216C105.669 89.1454 105.889 89.0094 106.131 88.9222C106.372 88.835 106.629 88.7984 106.885 88.8147C107.159 88.8036 107.431 88.8556 107.682 88.9664C107.932 89.0772 108.153 89.2439 108.328 89.4537V88.8519H109ZM108.321 90.6911C108.324 90.5185 108.292 90.3471 108.225 90.1878C108.158 90.0286 108.058 89.8851 107.932 89.7664C107.806 89.6477 107.657 89.5565 107.494 89.4985C107.33 89.4406 107.157 89.4173 106.984 89.43C106.809 89.4143 106.633 89.4354 106.468 89.492C106.302 89.5485 106.15 89.6393 106.022 89.7583C105.894 89.8773 105.792 90.0219 105.724 90.1826C105.656 90.3434 105.622 90.5166 105.626 90.6911C105.623 90.866 105.656 91.0396 105.724 91.2008C105.792 91.362 105.894 91.5072 106.022 91.627C106.149 91.7468 106.301 91.8385 106.467 91.8963C106.633 91.954 106.809 91.9765 106.984 91.9623C107.155 91.9707 107.327 91.9438 107.488 91.8834C107.648 91.823 107.795 91.7302 107.918 91.611C108.041 91.4918 108.138 91.3486 108.204 91.1903C108.269 91.0321 108.301 90.8622 108.297 90.6911H108.321Z"
    fill="currentColor" />
  <path
    d="M57.9123 34.5493C58.9369 33.5236 59.8366 32.3803 60.5926 31.1431C59.8376 29.9052 58.9378 28.7617 57.9123 27.7368C56.8371 26.6661 55.6347 25.7313 54.332 24.9534C53.1621 25.6838 52.0786 26.544 51.1019 27.5178C50.0352 28.587 49.1039 29.7833 48.3291 31.0798C49.0767 32.3016 49.9667 33.4304 50.9803 34.4423C52.0491 35.5093 53.245 36.4409 54.5411 37.2159C55.7642 36.4605 56.8954 35.5656 57.9123 34.5493ZM51.9629 31.0409C51.9623 30.7348 52.0219 30.4316 52.1384 30.1485C52.2549 29.8655 52.426 29.6082 52.642 29.3913C52.8579 29.1744 53.1144 29.0022 53.3968 28.8845C53.6793 28.7667 53.9822 28.7058 54.2882 28.7052C54.5946 28.7052 54.898 28.7656 55.181 28.8831C55.464 29.0005 55.7211 29.1726 55.9375 29.3896C56.154 29.6065 56.3255 29.8641 56.4423 30.1474C56.5591 30.4308 56.6189 30.7344 56.6183 31.0409C56.6189 31.3474 56.5591 31.651 56.4423 31.9343C56.3255 32.2177 56.154 32.4753 55.9375 32.6922C55.7211 32.9092 55.464 33.0813 55.181 33.1987C54.898 33.3162 54.5946 33.3766 54.2882 33.3766C53.6727 33.3753 53.0828 33.1305 52.6471 32.6957C52.2115 32.2608 51.9655 31.6711 51.9629 31.0555V31.0409Z"
    fill="currentColor" />
  <path
    d="M61.5813 29.2987C62.6104 27.0672 63.1779 24.6506 63.2498 22.1942C60.7963 22.2933 58.3885 22.8893 56.1719 23.946C57.2628 24.6789 58.2809 25.5148 59.2122 26.4423C60.0891 27.3185 60.8822 28.2748 61.5813 29.2987Z"
    fill="currentColor" />
  <path
    d="M76.8259 34.4518C77.8927 33.3826 78.8239 32.1863 79.5987 30.8898C78.8468 29.671 77.9572 28.5428 76.9476 27.5273C73.7847 24.3587 69.5665 22.4655 65.0975 22.2087C65.0132 25.3318 64.1985 28.3916 62.7188 31.1428C64.1468 33.797 64.9567 36.7396 65.0878 39.7509C69.5153 39.4743 73.6894 37.5899 76.8259 34.4518Z"
    fill="currentColor" />
  <path
    d="M49.7978 54.6799C46.3381 51.2204 44.262 46.6152 43.9603 41.7312C38.9939 41.4885 34.2952 39.4072 30.7774 35.892C29.9005 35.0157 29.1074 34.0594 28.4083 33.0356C28.0727 32.549 27.7565 32.0623 27.4646 31.5271C27.572 38.5456 30.4114 45.2456 35.3792 50.2031C40.4074 55.249 47.2287 58.0973 54.351 58.125C53.8305 57.8379 53.3197 57.5314 52.8284 57.2005C51.7374 56.4624 50.7223 55.6181 49.7978 54.6799Z"
    fill="currentColor" />
  <path
    d="M30.7686 26.4425C34.251 22.9594 38.8936 20.8808 43.8104 20.6032C44.0332 15.5906 46.1265 10.8436 49.6771 7.29937C50.5396 6.4388 51.4773 5.65712 52.4791 4.96366C52.9655 4.62304 53.4763 4.30674 53.9968 3.99045C46.9956 4.1087 40.3152 6.94814 35.3704 11.9075C30.352 16.9144 27.5084 23.698 27.4558 30.7879C27.7477 30.2721 28.0639 29.7612 28.3995 29.2745C29.0998 28.2591 29.8929 27.3111 30.7686 26.4425Z"
    fill="currentColor" />
  <path
    d="M45.6538 20.5641C48.6714 20.6588 51.6284 21.4357 54.303 22.8365C57.0366 21.3264 60.0848 20.475 63.2051 20.35C62.901 15.9593 61.0194 11.8268 57.9076 8.71519C56.8387 7.64967 55.6427 6.71975 54.3468 5.9464C53.1221 6.6958 51.9906 7.58765 50.9756 8.60328C47.7822 11.7934 45.8858 16.0555 45.6538 20.5641Z"
    fill="currentColor" />
  <path
    d="M61.5801 33.0114C60.8811 34.0352 60.088 34.9915 59.2111 35.8678C58.3451 36.7288 57.4023 37.509 56.3945 38.1986C58.5401 39.1655 60.8531 39.706 63.2049 39.7898C63.1083 37.4463 62.5564 35.1439 61.5801 33.0114Z"
    fill="currentColor" />
  <path
    d="M59.2106 7.41595C62.6703 10.8734 64.7465 15.4771 65.048 20.3597C70.0182 20.6113 74.7172 22.703 78.231 26.2282C79.088 27.0861 79.8662 28.0193 80.5562 29.0165C80.8967 29.5031 81.2129 29.9897 81.5291 30.5298C81.4042 23.5378 78.5659 16.8684 73.6145 11.9317C68.5981 6.89854 61.7963 4.05276 54.6914 4.01457C55.2168 4.30167 55.7324 4.61309 56.2237 4.94398C57.2958 5.67096 58.2959 6.49872 59.2106 7.41595Z"
    fill="currentColor" />
  <path
    d="M54.4879 9.53185e-06C46.2476 9.53185e-06 38.3449 3.27446 32.5181 9.10302C26.6914 14.9316 23.418 22.8368 23.418 31.0796C23.418 39.3229 26.6912 47.2286 32.5178 53.0579C38.3444 58.8873 46.2472 62.1628 54.4879 62.1641C58.5723 62.1667 62.6172 61.3637 66.3912 59.8012C70.1652 58.2387 73.5943 55.9472 76.4822 53.0579C79.3701 50.1687 81.6603 46.7382 83.2218 42.9628C84.7832 39.1874 85.5853 35.1411 85.5821 31.0553C85.5789 26.9739 84.7721 22.933 83.2077 19.1635C81.6433 15.394 79.3521 11.9696 76.4647 9.08582C73.5773 6.20207 70.1504 3.91542 66.3796 2.35648C62.6088 0.797535 58.568 -0.00318683 54.4879 9.53185e-06ZM54.4879 59.8527C50.7116 59.858 46.9716 59.1166 43.4828 57.671C39.994 56.2255 36.8253 54.1043 34.1589 51.4295C31.4827 48.7564 29.3617 45.5799 27.9182 42.0831C26.4747 38.5864 25.7372 34.8385 25.7481 31.0553C25.7406 27.2763 26.4799 23.533 27.9233 20.0407C29.3667 16.5484 31.4858 13.3758 34.1589 10.7054C36.826 8.03145 39.9948 5.91086 43.4834 4.46537C46.9721 3.01988 50.7118 2.27795 54.4879 2.2822C58.264 2.27715 62.004 3.0187 65.4927 4.46424C68.9815 5.90978 72.1502 8.0308 74.8168 10.7054C77.4914 13.3724 79.6127 16.542 81.0586 20.0318C82.5045 23.5217 83.2466 27.263 83.2422 31.0407C83.2472 34.8185 82.5053 38.56 81.0594 42.0499C79.6134 45.5398 77.4919 48.7093 74.8168 51.376C72.1521 54.0541 68.984 56.1784 65.495 57.6265C62.0061 59.0746 58.2652 59.818 54.4879 59.8138V59.8527Z"
    fill="currentColor" />
  <path
    d="M63.2346 41.634C60.2041 41.5367 57.2353 40.7531 54.5514 39.3421C51.8549 40.8022 48.8591 41.623 45.7952 41.7411C46.098 46.1331 47.9818 50.2665 51.0975 53.3758C52.172 54.4488 53.3745 55.3853 54.6778 56.1641C55.847 55.4309 56.9305 54.5692 57.9079 53.5948C61.1051 50.4068 63.0035 46.1438 63.2346 41.634Z"
    fill="currentColor" />
  <path
    d="M49.7979 26.228C50.6199 25.4079 51.5101 24.659 52.4588 23.9896C50.3123 23.0268 47.9994 22.4898 45.6484 22.4081C45.7623 24.7661 46.3322 27.0797 47.3267 29.2206C48.0544 28.1475 48.8818 27.1455 49.7979 26.228Z"
    fill="currentColor" />
  <path
    d="M32.0724 27.7366C31.044 28.7601 30.1424 29.9038 29.3872 31.1429C30.1434 32.3813 31.0449 33.5248 32.0724 34.5491C35.2265 37.7326 39.4447 39.6388 43.9176 39.9018C44.0049 36.8458 44.7885 33.85 46.2088 31.1429C44.7619 28.4719 43.9418 25.5066 43.8106 22.4715C39.3872 22.7372 35.2131 24.6095 32.0724 27.7366Z"
    fill="currentColor" />
  <path
    d="M80.5962 32.7538C79.8688 33.8301 79.0414 34.8354 78.125 35.7561C74.64 39.2384 69.9963 41.3168 65.0783 41.5954C64.8507 46.6012 62.7578 51.3405 59.2116 54.8798C58.393 55.7036 57.5025 56.4527 56.5507 57.1182C56.0643 57.4588 55.5778 57.78 55.0427 58.0914C62.022 57.9574 68.677 55.119 73.6059 50.1743C78.6502 45.1446 81.4976 38.3211 81.5253 31.1966C81.2383 31.7465 80.927 32.2574 80.5962 32.7538Z"
    fill="currentColor" />
  <path
    d="M49.6779 35.7558C48.8239 34.8965 48.0474 33.9635 47.3576 32.9675C46.3736 35.1508 45.8329 37.5077 45.7668 39.9017C48.1572 39.8047 50.5048 39.2358 52.6745 38.2277C51.5997 37.5005 50.5964 36.6727 49.6779 35.7558Z"
    fill="currentColor" />
</svg>