<svg width="25" height="24" viewBox="0 0 25 24" fill="none" xmlns="http://www.w3.org/2000/svg">
  <path
    d="M23.6281 11.789C23.6539 17.9858 18.6218 23.0507 12.3476 23.0202C9.27497 23.0061 6.60778 21.8905 4.4445 19.7038C2.20622 17.4468 1.12575 14.6952 1.17966 11.5147C1.28278 5.69052 6.08747 0.447555 12.6617 0.562399C18.5703 0.665524 23.6468 5.52646 23.6281 11.789ZM22.8031 11.8054C22.8359 9.01162 21.6476 6.13349 19.4515 4.14131C17.4875 2.35771 15.1765 1.4249 12.514 1.39677C6.61481 1.33349 2.07028 6.08193 2.007 11.6155C1.93669 17.6249 6.70153 22.0733 12.1507 22.1858C15.2375 22.2491 17.8789 21.1382 19.9976 18.8905C21.8609 16.9101 22.7773 14.5265 22.8031 11.8054Z"
    fill="currentColor" style="mix-blend-mode:multiply" />
  <path
    d="M12.6782 21.539C13.7188 20.9015 14.5673 20.0694 15.1978 19.0265C15.8306 17.9812 16.1751 16.8397 16.2407 15.621C18.8329 15.3796 20.7993 14.1538 22.147 11.939C22.3017 12.3351 21.8821 14.4562 21.4204 15.5647C20.9353 16.7272 20.2485 17.7585 19.3626 18.6538C18.4813 19.5468 17.4642 20.2452 16.311 20.7468C15.1556 21.2507 13.9485 21.5249 12.6782 21.539Z"
    fill="currentColor" style="mix-blend-mode:multiply" />
  <path
    d="M12.2678 21.5646C9.56074 21.485 7.23105 20.5076 5.35137 18.5482C3.61934 16.7436 2.72871 14.5686 2.63965 12.0725C2.65137 12.0654 2.66543 12.0607 2.67715 12.0537C2.76855 12.192 2.8623 12.3326 2.95371 12.4709C3.26777 12.9467 3.64277 13.3686 4.0623 13.7529C4.57793 14.2287 5.15215 14.6178 5.78027 14.9248C6.22559 15.1428 6.69199 15.3115 7.1748 15.4334C7.61543 15.5436 8.06309 15.6068 8.51543 15.6514C8.54121 15.6537 8.57871 15.6748 8.5834 15.6936C8.60215 15.7686 8.61152 15.8436 8.62559 15.9209C8.68652 16.2889 8.72637 16.6615 8.81543 17.0225C8.97949 17.6764 9.24199 18.2951 9.58652 18.8787C10.1303 19.7975 10.8428 20.5545 11.7123 21.1686C11.8787 21.2857 12.0592 21.3865 12.2326 21.4943C12.2514 21.5061 12.2654 21.5225 12.2842 21.5342C12.2771 21.5459 12.2725 21.5553 12.2678 21.5646Z"
    fill="currentColor" style="mix-blend-mode:multiply" />
  <path
    d="M12.1462 2.02734C9.95015 3.4125 8.74078 5.38828 8.5275 7.98984C5.98453 8.21484 4.03453 9.42422 2.66343 11.5898C2.64234 10.4508 2.87437 9.35391 3.2775 8.29219C3.67828 7.23516 4.24546 6.27187 4.99312 5.42109C6.88921 3.26016 9.28453 2.14687 12.1462 2.02734Z"
    fill="currentColor" style="mix-blend-mode:multiply" />
  <path
    d="M22.1562 11.5149C21.9711 11.2501 21.793 10.9782 21.5984 10.7228C21.1484 10.1345 20.6141 9.63525 20.0047 9.21103C19.3906 8.78213 18.7273 8.45869 18.0148 8.23603C17.5437 8.09072 17.0633 7.98291 16.5711 7.94775C16.2266 7.92197 16.2406 7.91963 16.1984 7.5751C16.1609 7.26103 16.0906 6.94932 16.0273 6.63994C15.9102 6.05869 15.6852 5.51494 15.4109 4.99463C14.9656 4.14619 14.3727 3.41729 13.6344 2.80322C13.3156 2.53838 12.9852 2.29229 12.6195 2.09541C12.5984 2.08369 12.582 2.06025 12.5703 2.02979C15.1109 2.08604 17.3281 2.97197 19.1656 4.73447C21.0875 6.57666 22.0672 8.85713 22.1562 11.5149Z"
    fill="currentColor" style="mix-blend-mode:multiply" />
  <path
    d="M9.20215 7.97822C9.24668 7.67822 9.27481 7.38291 9.33809 7.09697C9.4084 6.76885 9.49043 6.44072 9.59824 6.12197C9.84902 5.38369 10.2381 4.71807 10.7373 4.11807C11.1732 3.59307 11.6842 3.15479 12.249 2.77744C12.3287 2.72588 12.3896 2.72588 12.4693 2.77744C13.5006 3.43838 14.3115 4.30322 14.86 5.4001C15.0334 5.74697 15.1904 6.11025 15.2936 6.48291C15.4154 6.92588 15.4717 7.3876 15.5514 7.84229C15.5537 7.86338 15.5045 7.91025 15.474 7.91494C15.242 7.94541 15.0076 7.95713 14.7779 7.99463C14.5037 8.0415 14.2295 8.09307 13.9646 8.17041C13.6131 8.27354 13.2686 8.4001 12.924 8.529C12.76 8.58994 12.6053 8.67197 12.4529 8.75635C12.3732 8.80088 12.31 8.80088 12.2279 8.75869C11.7592 8.52432 11.2717 8.33916 10.7631 8.2126C10.2756 8.09072 9.7834 8.01572 9.28184 7.99228C9.26309 7.98994 9.24902 7.9876 9.20215 7.97822Z"
    fill="currentColor" style="mix-blend-mode:multiply" />
  <path
    d="M16.2549 14.9295C16.2221 14.6623 16.2057 14.4021 16.1541 14.1537C16.0697 13.7482 15.9854 13.3428 15.8611 12.949C15.7486 12.5975 15.5752 12.2646 15.4369 11.9201C15.4135 11.8639 15.4111 11.7795 15.4369 11.7279C15.6783 11.2521 15.8752 10.76 16.0065 10.2467C16.1354 9.74981 16.2244 9.2459 16.2361 8.73027C16.2361 8.69277 16.2432 8.65293 16.2502 8.59668C16.4916 8.6248 16.7283 8.63887 16.9604 8.67871C17.5275 8.77715 18.0736 8.94121 18.5986 9.18262C19.1541 9.43809 19.665 9.76152 20.1315 10.1553C20.6354 10.5795 21.0525 11.0764 21.4182 11.6201C21.4815 11.7139 21.4533 11.7795 21.4018 11.8615C20.9283 12.6092 20.3307 13.2396 19.6088 13.7506C19.0135 14.1701 18.3643 14.4795 17.6635 14.6811C17.2041 14.8123 16.7377 14.8943 16.2549 14.9295Z"
    fill="currentColor" style="mix-blend-mode:multiply" />
  <path
    d="M8.56508 14.9787C8.31664 14.9505 8.06118 14.9435 7.81743 14.8873C7.41196 14.7935 7.00649 14.6857 6.61274 14.5474C5.94711 14.313 5.34946 13.9545 4.80336 13.5068C4.24789 13.0521 3.77446 12.5271 3.39243 11.9177C3.34555 11.8427 3.35258 11.7912 3.39711 11.7209C3.83774 11.0224 4.39555 10.4295 5.05883 9.94195C5.64243 9.51305 6.27993 9.18726 6.97368 8.97164C7.44946 8.82164 7.93461 8.73258 8.43149 8.68336C8.5018 8.67633 8.53461 8.68805 8.54165 8.77242C8.59086 9.3818 8.67289 9.98648 8.88618 10.5607C9.02914 10.9474 9.19321 11.3248 9.36196 11.7021C9.41586 11.8216 9.3643 11.906 9.31977 11.9951C9.05961 12.5037 8.87211 13.038 8.75727 13.5959C8.69868 13.8795 8.66586 14.1701 8.62368 14.4584C8.60258 14.6248 8.58618 14.7935 8.56508 14.9787Z"
    fill="currentColor" style="mix-blend-mode:multiply" />
  <path
    d="M9.28418 15.6681C9.4459 15.6493 9.5959 15.6306 9.74824 15.6165C10.3295 15.5626 10.899 15.4384 11.4428 15.2228C11.7475 15.1032 12.0404 14.9556 12.3428 14.8313C12.3943 14.8103 12.474 14.8079 12.5209 14.8337C13.0154 15.0962 13.5404 15.2767 14.0795 15.4173C14.2623 15.4642 14.4498 15.4946 14.6373 15.5228C14.942 15.5673 15.249 15.6024 15.5678 15.6423C15.5514 15.8181 15.5443 16.0032 15.5139 16.186C15.4717 16.4345 15.4295 16.6853 15.3568 16.9267C15.249 17.2853 15.1389 17.6462 14.9889 17.986C14.6092 18.8485 14.0584 19.5938 13.3459 20.2126C13.1021 20.4259 12.8279 20.604 12.5701 20.8009C12.4975 20.8571 12.4436 20.8431 12.3732 20.7985C11.3889 20.1892 10.6201 19.3688 10.06 18.3587C9.79746 17.8853 9.60059 17.3813 9.46934 16.8517C9.37793 16.4813 9.30059 16.111 9.28652 15.7313C9.28418 15.7126 9.28418 15.6938 9.28418 15.6681Z"
    fill="currentColor" style="mix-blend-mode:multiply" />
  <path
    d="M10.1846 11.8006C10.7283 10.8936 11.4479 10.16 12.3619 9.58105C12.5846 9.74043 12.8236 9.89746 13.0486 10.0709C13.6416 10.5256 14.1268 11.0787 14.5393 11.6998C14.6025 11.7936 14.6002 11.8568 14.5369 11.9506C14.1736 12.499 13.7564 13.0006 13.2455 13.4178C12.9994 13.617 12.7346 13.7928 12.4768 13.9779C12.4533 13.9943 12.4041 13.9967 12.3783 13.9826C11.4713 13.4342 10.7424 12.7053 10.1846 11.8006ZM12.3361 10.9404C11.8627 10.9334 11.4854 11.3482 11.4877 11.7818C11.49 12.2553 11.8721 12.6396 12.3385 12.635C12.8143 12.6303 13.1822 12.2529 13.1775 11.7748C13.1729 11.3154 12.7955 10.9404 12.3361 10.9404Z"
    fill="currentColor" style="mix-blend-mode:multiply" />
  <path
    d="M14.9584 11.128C14.4334 10.3757 13.7936 9.74286 13.0225 9.21786C13.6365 8.93661 14.2436 8.73974 14.8857 8.66005C15.0779 8.63661 15.2725 8.61318 15.4646 8.58739C15.5396 8.57802 15.5771 8.60146 15.5678 8.68114C15.549 8.87802 15.5443 9.07724 15.5115 9.27411C15.467 9.55302 15.4225 9.83661 15.3451 10.1085C15.249 10.4483 15.1178 10.7788 15.0029 11.114C14.9889 11.1186 14.9725 11.1233 14.9584 11.128Z"
    fill="currentColor" style="mix-blend-mode:multiply" />
  <path
    d="M11.7406 14.3791C10.9296 14.7494 10.1187 14.9393 9.2726 14.9791C9.17651 14.5877 9.58667 12.8135 9.84448 12.5088C10.3554 13.24 10.9835 13.8564 11.7406 14.3791Z"
    fill="currentColor" style="mix-blend-mode:multiply" />
  <path
    d="M9.22791 8.66943C10.067 8.70225 10.8709 8.88272 11.6631 9.23662C10.9318 9.76162 10.3318 10.3757 9.83728 11.0905C9.60056 10.8749 9.18338 9.21787 9.22791 8.66943Z"
    fill="currentColor" style="mix-blend-mode:multiply" />
  <path
    d="M14.9704 12.5039C15.3313 13.2961 15.5142 14.0906 15.5681 14.9391C14.7149 14.9086 13.911 14.7258 13.1118 14.3695C13.8524 13.8492 14.4571 13.2375 14.9704 12.5039Z"
    fill="currentColor" style="mix-blend-mode:multiply" />
</svg>