<svg width="181" height="116" viewBox="0 0 181 116" fill="none" xmlns="http://www.w3.org/2000/svg">
<g clip-path="url(#clip0_1507_56295)">
<path d="M53.8614 47.385L60.1898 30.6519L0.5507 8.09082C0.5507 8.09082 -3.78505 25.5749 11.8857 31.5031L53.8614 47.385Z" fill="#FFAA17"/>
<path d="M58.9682 70.417L65.2966 53.6939L5.6575 31.1328C5.6575 31.1328 1.32175 48.6069 17.0226 54.5351L58.9682 70.417Z" fill="#FFAA17"/>
<path d="M10.7543 54.165C10.7543 54.165 6.4186 71.6492 22.0994 77.5773L64.0851 93.4592L70.3934 76.7262L10.7543 54.165Z" fill="#FFAA17"/>
<path d="M53.8614 39.2942L60.1898 22.5611L0.5507 0C0.5507 0 -3.78505 17.4841 11.8857 23.4123L53.8614 39.2942Z" fill="#FFDA33"/>
<path d="M58.9682 62.3264L65.2966 45.5933L5.6575 23.0322C5.6575 23.0322 1.32175 40.5163 17.0226 46.4445L58.9682 62.3264Z" fill="#FFDA33"/>
<path d="M10.7543 46.0635C10.7543 46.0635 6.4186 63.5476 22.0994 69.4758L64.0851 85.3577L70.4034 68.6346L10.7543 46.0635Z" fill="#FFDA33"/>
<path d="M40.4336 70.0162C41.0026 72.5346 41.821 74.9901 42.8768 77.3463L64.0749 85.3574L70.3933 68.6343L38.3508 56.5176C38.7129 61.0621 39.409 65.5739 40.4336 70.0162Z" fill="#FFAA17"/>
<path d="M38.2407 54.4852L58.9682 62.326L65.2966 45.5929L38.9317 35.5791C38.1042 41.8451 37.8729 48.1755 38.2407 54.4852Z" fill="#FFAA17"/>
<path d="M60.1897 22.5609L43.5877 16.2822C41.514 21.9326 40.0439 27.7866 39.2019 33.7463L53.8613 39.294L60.1897 22.5609Z" fill="#FFAA17"/>
<path d="M127.168 47.385L120.84 30.6519L180.449 8.09082C180.449 8.09082 184.785 25.5749 169.104 31.5031L127.168 47.385Z" fill="#FFAA17"/>
<path d="M122.032 70.417L115.703 53.6939L175.342 31.1328C175.342 31.1328 179.678 48.6069 164.007 54.5351L122.032 70.417Z" fill="#FFAA17"/>
<path d="M170.226 54.165C170.226 54.165 174.561 71.6492 158.891 77.5773L116.925 93.4592L110.597 76.7262L170.226 54.165Z" fill="#FFAA17"/>
<path d="M127.168 39.2942L120.84 22.5611L180.449 0C180.449 0 184.785 17.4841 169.104 23.4123L127.168 39.2942Z" fill="#FFDA33"/>
<path d="M122.032 62.3264L115.703 45.5933L175.342 23.0322C175.342 23.0322 179.678 40.5163 164.007 46.4445L122.032 62.3264Z" fill="#FFDA33"/>
<path d="M170.226 46.0635C170.226 46.0635 174.561 63.5376 158.891 69.4658L116.925 85.3577L110.597 68.6346L170.226 46.0635Z" fill="#FFDA33"/>
<path d="M140.566 70.0162C139.994 72.535 139.172 74.9905 138.113 77.3463L116.925 85.3574L110.597 68.6343L142.639 56.5176C142.271 61.0607 141.578 65.5718 140.566 70.0162Z" fill="#FFAA17"/>
<path d="M142.759 54.4852L122.032 62.326L115.703 45.5929L142.058 35.5791C142.884 41.8452 143.119 48.1751 142.759 54.4852Z" fill="#FFAA17"/>
<path d="M120.81 22.5609L137.412 16.2822C139.48 21.9337 140.947 27.7874 141.788 33.7463L127.168 39.294L120.81 22.5609Z" fill="#FFAA17"/>
<path d="M131.484 24.7844L111.738 26.8973L90.4999 12.6777L69.2518 26.8973L49.5056 24.7844C49.5056 24.7844 39.4022 48.9978 46.2112 78.859C53.0202 108.72 90.4599 115.99 90.4999 116C90.4999 116 127.97 108.7 134.779 78.859C141.588 49.0179 131.484 24.7844 131.484 24.7844Z" fill="#FFAA17"/>
<g style="mix-blend-mode:overlay" opacity="0.8">
<path d="M131.484 19.3264L111.738 21.4393L90.4999 7.21973L69.2518 21.4393L49.5056 19.3264C49.5056 19.3264 39.4022 43.5398 46.2112 73.401C53.0202 103.262 90.4599 110.542 90.4999 110.542C90.4999 110.542 127.97 103.242 134.779 73.401C141.588 43.5599 131.484 19.3264 131.484 19.3264Z" fill="white"/>
</g>
<path d="M131.484 18.5051L111.738 20.6181L90.4999 6.39844L69.2518 20.6181L49.5056 18.5051C49.5056 18.5051 39.4022 42.7185 46.2112 72.5797C53.0202 102.441 90.4599 109.721 90.4999 109.721C90.4999 109.721 127.97 102.421 134.779 72.5797C141.588 42.7386 131.484 18.5051 131.484 18.5051Z" fill="#FFDA33"/>
<g style="mix-blend-mode:overlay" opacity="0.2">
<path d="M112.259 20.558L111.738 20.6181L90.4999 6.39844L81.8184 12.2064L132.736 78.9685C133.584 76.8962 134.254 74.7556 134.739 72.5697C136.185 66.1953 136.97 59.6886 137.082 53.1529L112.259 20.558Z" fill="white"/>
</g>
<g style="mix-blend-mode:overlay" opacity="0.2">
<path d="M47.4328 24.7939C43.4642 39.1747 42.7798 54.2638 45.4301 68.9448L70.9239 102.371C77.067 105.705 83.641 108.175 90.4598 109.711C96.3744 108.383 102.107 106.346 107.532 103.643L47.4328 24.7939Z" fill="white"/>
</g>
<path d="M90.5 100.078C83.711 98.286 59.9495 90.6254 55.3534 70.4877C52.3204 56.6714 52.5845 42.335 56.1244 28.6399L71.635 30.3022L90.5 17.6748L109.355 30.3022L124.876 28.6399C128.411 42.3356 128.675 56.671 125.647 70.4877C121.04 90.6254 97.289 98.286 90.5 100.078Z" fill="#FFAA17"/>
<path d="M70.3933 33.9873L90.1194 21.3699L109.846 33.9873L125.747 32.3651C125.456 31.0032 125.166 29.7515 124.876 28.6399L109.355 30.3022L90.4999 17.6748L71.6349 30.3022L56.1243 28.6399C55.834 29.7715 55.5336 31.0533 55.2332 32.4352L70.3933 33.9873Z" fill="#FF8800"/>
<path d="M99.3646 57.8657C100.505 58.575 101.379 59.449 101.987 60.4877C102.62 61.501 102.937 62.6664 102.937 63.9837C102.937 65.681 102.43 67.1757 101.417 68.4677C100.429 69.7597 99.0226 70.7604 97.1986 71.4697C95.3999 72.1537 93.3352 72.4957 91.0046 72.4957C88.6739 72.4957 86.5966 72.1537 84.7726 71.4697C82.9739 70.7604 81.5679 69.7597 80.5546 68.4677C79.5666 67.1757 79.0726 65.681 79.0726 63.9837C79.0726 62.6664 79.3766 61.501 79.9846 60.4877C80.6179 59.449 81.5046 58.575 82.6446 57.8657C80.8966 56.4724 80.0226 54.7244 80.0226 52.6217C80.0226 51.0257 80.4786 49.6324 81.3906 48.4417C82.3279 47.251 83.6199 46.3264 85.2666 45.6677C86.9386 45.009 88.8512 44.6797 91.0046 44.6797C93.1579 44.6797 95.0579 45.009 96.7046 45.6677C98.3766 46.3264 99.6686 47.251 100.581 48.4417C101.518 49.6324 101.987 51.0257 101.987 52.6217C101.987 54.7244 101.113 56.4724 99.3646 57.8657ZM91.0046 50.7217C90.3712 50.7217 89.8519 50.9244 89.4466 51.3297C89.0666 51.735 88.8766 52.2924 88.8766 53.0017C88.8766 53.711 89.0666 54.2684 89.4466 54.6737C89.8519 55.079 90.3712 55.2817 91.0046 55.2817C91.6379 55.2817 92.1446 55.079 92.5246 54.6737C92.9299 54.2684 93.1326 53.711 93.1326 53.0017C93.1326 52.2924 92.9299 51.735 92.5246 51.3297C92.1446 50.9244 91.6379 50.7217 91.0046 50.7217ZM91.0046 66.4537C91.8659 66.4537 92.5626 66.2004 93.0946 65.6937C93.6519 65.187 93.9306 64.5157 93.9306 63.6797C93.9306 62.8437 93.6519 62.1724 93.0946 61.6657C92.5626 61.159 91.8659 60.9057 91.0046 60.9057C90.1432 60.9057 89.4339 61.159 88.8766 61.6657C88.3446 62.1724 88.0786 62.8437 88.0786 63.6797C88.0786 64.5157 88.3446 65.187 88.8766 65.6937C89.4339 66.2004 90.1432 66.4537 91.0046 66.4537Z" fill="#FFDA33"/>
</g>
<defs>
<clipPath id="clip0_1507_56295">
<rect width="181" height="116" fill="white"/>
</clipPath>
</defs>
</svg>
