<svg width="14" height="14" viewBox="0 0 14 14" fill="none" xmlns="http://www.w3.org/2000/svg">
<path d="M13.0837 3.18919L10.8108 0.916363C10.7043 0.809841 10.5598 0.75 10.4091 0.75C10.2584 0.75 10.1139 0.809841 10.0074 0.916363L8.42038 2.50337L11.4966 5.57964L13.0837 3.99264C13.1902 3.88608 13.25 3.74158 13.25 3.59091C13.25 3.44025 13.1902 3.29575 13.0837 3.18919Z" fill="currentColor"/>
<path d="M7.61692 3.30681L2.05247 8.87126C1.9902 8.93369 1.94332 9.00975 1.91553 9.09343L0.779116 12.5027C0.75068 12.588 0.742928 12.679 0.756498 12.7679C0.770068 12.8569 0.804571 12.9413 0.857167 13.0143C0.909764 13.0874 0.978949 13.1468 1.05903 13.1879C1.13911 13.2289 1.22779 13.2504 1.31778 13.2504C1.37884 13.2504 1.43949 13.2404 1.49733 13.2209L4.90657 12.0845C4.99025 12.0567 5.06631 12.0098 5.12874 11.9475L10.6932 6.38308L7.61692 3.30681Z" fill="currentColor"/>
</svg>
