<svg width="24" height="24" viewBox="0 0 24 24" fill="none" xmlns="http://www.w3.org/2000/svg">
  <g id="Icon/filled/app/person-search">
    <g id="Vector">
      <path
        d="M10.5 12C8.19916 12 6.33333 9.30083 6.33333 7V6.16667C6.33333 3.86583 8.19916 2 10.5 2C12.8008 2 14.6667 3.86583 14.6667 6.16667V7C14.6667 9.30083 12.8008 12 10.5 12Z"
        fill="#E14242" />
      <path
        d="M12.1667 17.8337C12.1667 15.9953 13.6617 14.5003 15.5 14.5003C15.6364 14.5003 15.7714 14.5189 15.9069 14.5375L15.94 14.542C14.5775 14.112 12.6533 13.667 10.5 13.667C8.14667 13.667 6.05917 14.1987 4.68833 14.6612C3.675 15.0037 3 15.9578 3 17.027V20.3337H13.3183C12.6183 19.722 12.1667 18.8337 12.1667 17.8337Z"
        fill="#E14242" />
      <path fill-rule="evenodd" clip-rule="evenodd"
        d="M13.3183 18.2808C13.3187 17.7482 13.4406 17.2228 13.6747 16.7446C13.9089 16.2663 14.249 15.8477 14.6694 15.5208C15.0897 15.1938 15.5791 14.9671 16.1002 14.8578C16.6214 14.7485 17.1607 14.7597 17.6769 14.8903C18.1932 15.0209 18.6728 15.2676 19.0793 15.6116C19.4858 15.9556 19.8084 16.3878 20.0226 16.8753C20.2369 17.3629 20.337 17.8928 20.3155 18.4249C20.2939 18.957 20.1513 19.4771 19.8983 19.9458L20.7323 20.7808C20.8278 20.873 20.904 20.9833 20.9564 21.1053C21.0088 21.2274 21.0364 21.3586 21.0376 21.4913C21.0387 21.6241 21.0134 21.7558 20.9632 21.8787C20.9129 22.0016 20.8386 22.1133 20.7447 22.2071C20.6508 22.301 20.5392 22.3753 20.4163 22.4256C20.2934 22.4759 20.1617 22.5012 20.0289 22.5C19.8962 22.4988 19.7649 22.4713 19.6429 22.4189C19.5209 22.3664 19.4106 22.2903 19.3183 22.1947L18.4833 21.3598C17.9502 21.6481 17.3512 21.7931 16.7452 21.7804C16.1392 21.7677 15.5468 21.5979 15.0262 21.2875C14.5055 20.9771 14.0744 20.5368 13.775 20.0098C13.4756 19.4827 13.3183 18.8869 13.3183 18.2808ZM15.7577 17.2201C16.039 16.9388 16.4205 16.7808 16.8183 16.7808C17.2162 16.7808 17.5977 16.9388 17.879 17.2201C18.1603 17.5014 18.3183 17.8829 18.3183 18.2808C18.3183 18.6786 18.1603 19.0601 17.879 19.3414C17.5977 19.6227 17.2162 19.7808 16.8183 19.7808C16.4205 19.7808 16.039 19.6227 15.7577 19.3414C15.4764 19.0601 15.3183 18.6786 15.3183 18.2808C15.3183 17.8829 15.4764 17.5014 15.7577 17.2201Z"
        fill="#E14242" />
    </g>
  </g>
</svg>