<svg width="32" height="32" viewBox="0 0 32 32" fill="none" xmlns="http://www.w3.org/2000/svg">
  <rect y="0.344727" width="32" height="32" rx="16" fill="currentColor" />
  <path
    d="M14.3333 9.67808H12C11.0667 9.67808 10.6 9.67808 10.2433 9.85975C9.9297 10.0195 9.67473 10.2745 9.51499 10.5881C9.33333 10.9447 9.33333 11.4114 9.33333 12.3447V20.3447C9.33333 21.2781 9.33333 21.7447 9.51499 22.1014C9.67478 22.415 9.92974 22.67 10.2433 22.8297C10.5992 23.0114 11.0658 23.0114 11.9975 23.0114H20.0025C20.9342 23.0114 21.4 23.0114 21.7558 22.8297C22.07 22.6697 22.325 22.4147 22.485 22.1014C22.6667 21.7447 22.6667 21.2789 22.6667 20.3472V18.0114M19.3333 10.5114L14.3333 15.5114V18.0114H16.8333L21.8333 13.0114M19.3333 10.5114L21.8333 8.01141L24.3333 10.5114L21.8333 13.0114M19.3333 10.5114L21.8333 13.0114"
    stroke="white" stroke-width="2" stroke-linecap="round" stroke-linejoin="round" />
</svg>