<svg width="121" height="120" viewBox="0 0 121 120" fill="none" xmlns="http://www.w3.org/2000/svg">
  <path
    d="M23.4684 23.112L23.9748 22.2768C28.2492 15.2328 35.9748 10.9968 44.1348 11.5032C45.184 11.5675 46.2269 11.7103 47.2548 11.9304C54.6636 13.5168 61.1076 19.1184 63.7812 26.2944C65.3508 30.5136 65.79 35.3712 68.7732 38.7192C72.654 43.08 79.242 43.2168 85.0356 43.0392C90.8292 42.8616 97.4196 43.0128 101.284 47.3904C103.7 50.1312 104.471 54.0288 104.274 57.6984C103.758 67.416 96.9876 76.104 88.3764 80.4216C79.7652 84.7392 69.6252 85.128 60.2028 83.2296C47.0028 80.568 34.4436 73.2576 26.898 61.9704C19.3524 50.6832 17.43 35.2968 23.4684 23.112Z"
    fill="#FFC1B9" />
  <path
    d="M117.486 101.393C117.486 101.426 91.9764 101.455 60.5124 101.455C29.0484 101.455 3.53162 101.426 3.53162 101.393C3.53162 101.359 29.0388 101.33 60.5124 101.33C91.986 101.33 117.486 101.357 117.486 101.393Z"
    fill="#263238" />
  <path d="M89.0364 94.32C89.0364 94.32 94.2684 92.4696 99.1164 94.32L98.19 96L89.5236 96.3336L89.0436 94.3368"
    fill="#E14242" />
  <path
    d="M89.9076 84.9312H90.0012C90.0759 84.9256 90.151 84.9349 90.2221 84.9585C90.2933 84.982 90.3591 85.0194 90.4157 85.0685C90.4724 85.1175 90.5188 85.1773 90.5522 85.2444C90.5857 85.3114 90.6056 85.3844 90.6108 85.4592L91.8516 102.672L90.6204 102.761L89.3796 85.548C89.3733 85.4727 89.3821 85.397 89.4053 85.3252C89.4286 85.2533 89.4658 85.1868 89.5149 85.1294C89.564 85.0721 89.624 85.025 89.6914 84.991C89.7588 84.957 89.8323 84.9366 89.9076 84.9312Z"
    fill="#E0E0E0" />
  <path
    d="M89.9076 84.9313C89.7877 84.9477 89.6752 84.9986 89.5836 85.0777C89.4749 85.1751 89.4085 85.3112 89.3988 85.4569C89.3988 85.6273 89.4276 85.8312 89.442 86.0592C89.5116 86.976 89.6148 88.2937 89.7396 89.9209C89.9796 93.1969 90.3132 97.7185 90.6828 102.749L90.6156 102.691L91.2756 102.643L91.8468 102.602L91.7892 102.67C91.4316 97.6153 91.11 93.0697 90.8796 89.7769C90.7692 88.1377 90.6804 86.8129 90.618 85.8889C90.618 85.7753 90.6108 85.6672 90.5964 85.5648C90.5976 85.4721 90.5838 85.3797 90.5556 85.2913C90.503 85.154 90.3988 85.0429 90.2652 84.9817C90.1824 84.944 90.0921 84.9259 90.0012 84.9289H89.9076L90.0012 84.9145C90.0931 84.9088 90.1851 84.9244 90.27 84.9601C90.4127 85.021 90.5256 85.1357 90.5844 85.2792C90.6165 85.3711 90.6335 85.4676 90.6348 85.5648C90.6348 85.6656 90.6516 85.7737 90.6612 85.8889C90.7332 86.8105 90.834 88.1352 90.9612 89.772C91.2012 93.0648 91.5372 97.6105 91.9212 102.662V102.725H91.8588L91.2876 102.766L90.6276 102.814H90.5652V102.751C90.21 97.7113 89.8908 93.1945 89.6604 89.9209C89.55 88.2913 89.4636 86.9737 89.4012 86.0545C89.3892 85.8265 89.3676 85.6273 89.37 85.4473C89.3838 85.2932 89.458 85.1508 89.5764 85.0513C89.6457 84.9928 89.728 84.9516 89.8164 84.9313C89.8466 84.9265 89.8774 84.9265 89.9076 84.9313Z"
    fill="#263238" />
  <path
    d="M89.994 97.3464L91.746 97.2192L92.1612 102.96C92.1777 103.193 92.1013 103.422 91.9488 103.599C91.7963 103.775 91.5801 103.884 91.3476 103.901C91.1151 103.917 90.8859 103.84 90.7097 103.688C90.5334 103.535 90.4246 103.32 90.4068 103.087L89.994 97.3464Z"
    fill="#455A64" />
  <path d="M89.9983 102.175L90.3383 102.15L89.8002 94.6985L89.4603 94.723L89.9983 102.175Z" fill="#455A64" />
  <path
    d="M91.746 97.2192C91.746 97.2576 91.026 97.3608 89.9796 97.4736L90.0588 97.3824C90.09 97.7832 90.1236 98.2176 90.1596 98.676C90.222 99.5256 90.2652 100.294 90.2892 100.85C90.322 101.151 90.322 101.455 90.2892 101.755C90.2137 101.462 90.1695 101.162 90.1572 100.86C90.0996 100.306 90.0348 99.5376 89.9724 98.7C89.9436 98.2416 89.9148 97.8048 89.8884 97.404V97.32H89.9724C91.0164 97.2192 91.7436 97.1832 91.746 97.2192Z"
    fill="#263238" />
  <path d="M93.1116 85.3824H91.878V99.3H93.1116V85.3824Z" fill="#E0E0E0" />
  <path
    d="M93.1116 99.3C93.1116 99.3 93.1116 99.2736 93.1116 99.2256C93.1116 99.1776 93.1116 99.1032 93.1116 99.0144C93.1116 98.8224 93.1116 98.5536 93.1116 98.208C93.1116 97.5024 93.1116 96.4944 93.0924 95.244C93.0924 92.7384 93.078 89.2704 93.066 85.3824L93.1284 85.4448H91.8972C92.0196 85.32 91.9308 85.4136 91.9572 85.3872V87.6792C91.9572 88.428 91.9572 89.1568 91.9572 89.8656C91.9572 91.284 91.9572 92.6112 91.9572 93.816C91.9452 96.216 91.9356 98.136 91.9308 99.3L91.9044 99.276L92.814 99.2904H93.054H93.138C93.1125 99.2945 93.0866 99.2945 93.0612 99.2904H92.8212L91.8972 99.3048H91.8732V99.2784C91.8732 98.1096 91.8588 96.1944 91.8468 93.7944C91.8468 92.5944 91.8468 91.2624 91.8468 89.844C91.8468 89.1352 91.8468 88.4064 91.8468 87.6576C91.8468 87.2832 91.8468 86.904 91.8468 86.52V85.3656C91.8756 85.3368 91.7844 85.4232 91.9116 85.2984H93.2052V85.3608C93.2052 89.268 93.186 92.7504 93.1788 95.268C93.1788 96.5112 93.1644 97.5144 93.1596 98.2176C93.1596 98.5568 93.1596 98.8208 93.1596 99.0096V99.2136C93.1164 99.2808 93.114 99.3024 93.1116 99.3Z"
    fill="#263238" />
  <path
    d="M93.3492 90.8208H91.5924V85.0608C91.5924 84.8279 91.685 84.6044 91.8497 84.4397C92.0144 84.275 92.2378 84.1824 92.4708 84.1824C92.5862 84.1824 92.7004 84.2052 92.807 84.2493C92.9135 84.2934 93.0104 84.3581 93.0919 84.4397C93.1735 84.5213 93.2382 84.6181 93.2823 84.7247C93.3265 84.8313 93.3492 84.9455 93.3492 85.0608V90.8208Z"
    fill="#455A64" />
  <path d="M93.69 86.004H93.3492V93.4752H93.69V86.004Z" fill="#455A64" />
  <path
    d="M91.5924 90.8208C91.5924 90.7824 92.3124 90.732 93.3708 90.6936L93.2868 90.78C93.2868 90.3792 93.2868 89.9424 93.2868 89.4816C93.2868 88.632 93.2868 87.8616 93.3132 87.3048C93.3032 87.0025 93.3257 86.6999 93.3804 86.4024C93.4351 86.6999 93.4576 87.0025 93.4476 87.3048C93.4644 87.8616 93.4764 88.632 93.4764 89.4816C93.4764 89.9424 93.4764 90.3792 93.4764 90.78V90.8664H93.3924C92.322 90.876 91.5924 90.8592 91.5924 90.8208Z"
    fill="#263238" />
  <path d="M95.598 88.6488H94.3644V102.566H95.598V88.6488Z" fill="#E0E0E0" />
  <path
    d="M95.598 102.566C95.596 102.542 95.596 102.517 95.598 102.492C95.598 102.439 95.598 102.37 95.598 102.281C95.598 102.089 95.598 101.818 95.598 101.474C95.598 100.769 95.586 99.7608 95.5788 98.5104C95.5788 96.0048 95.562 92.5368 95.5524 88.6488L95.6148 88.7112H94.3812C94.506 88.5864 94.4148 88.68 94.4436 88.6536V90.9456C94.4436 91.6944 94.4436 92.4232 94.4436 93.132C94.4436 94.548 94.4436 95.8776 94.4436 97.0824C94.4436 99.4824 94.422 101.402 94.4148 102.566L94.3908 102.542L95.298 102.557H95.538H95.6244C95.5989 102.561 95.573 102.561 95.5476 102.557H95.3076L94.386 102.571H94.35V102.545C94.35 101.376 94.3332 99.4608 94.3212 97.0608C94.3212 95.8608 94.3212 94.5264 94.3212 93.1104C94.3212 92.4024 94.3212 91.6704 94.3212 90.924V88.632C94.35 88.6032 94.2588 88.6896 94.3836 88.5648H95.6796V88.6272C95.6796 92.5344 95.6604 96.0168 95.6532 98.5344C95.6532 99.7776 95.6388 100.781 95.634 101.484C95.634 101.822 95.634 102.086 95.634 102.276V102.48C95.6004 102.547 95.598 102.569 95.598 102.566Z"
    fill="#263238" />
  <path
    d="M95.8356 94.0801H94.0764V88.3201C94.0764 88.2045 94.0992 88.0901 94.1435 87.9834C94.1877 87.8766 94.2527 87.7797 94.3345 87.6981C94.4163 87.6165 94.5134 87.5518 94.6203 87.5078C94.7271 87.4638 94.8416 87.4413 94.9572 87.4417C95.1901 87.4417 95.4135 87.5342 95.5783 87.6989C95.743 87.8637 95.8356 88.0871 95.8356 88.3201V94.0801Z"
    fill="#455A64" />
  <path d="M96.1764 89.2704H95.8356V96.7416H96.1764V89.2704Z" fill="#455A64" />
  <path
    d="M94.0764 94.08C94.0764 94.0416 94.7964 93.9912 95.8572 93.9528L95.7732 94.0392C95.7732 93.636 95.7732 93.2016 95.7732 92.7408C95.7732 91.8912 95.7852 91.1208 95.802 90.564C95.7919 90.2617 95.8145 89.9591 95.8692 89.6616C95.9239 89.9591 95.9464 90.2617 95.9364 90.564C95.9532 91.1208 95.9628 91.8912 95.9628 92.7408C95.9628 93.2016 95.9628 93.636 95.9628 94.0392V94.1256H95.8812C94.806 94.1424 94.0788 94.1256 94.0764 94.08Z"
    fill="#263238" />
  <path d="M97.9404 84.8736H96.7068V98.7912H97.9404V84.8736Z" fill="#E0E0E0" />
  <path
    d="M97.95 98.7912C97.95 98.7912 97.95 98.7648 97.95 98.7168C97.95 98.6688 97.95 98.592 97.95 98.5056C97.95 98.3136 97.95 98.0424 97.95 97.6992C97.95 96.9936 97.938 95.9832 97.9308 94.7352C97.9308 92.2296 97.9164 88.7616 97.9044 84.8736L97.9668 84.936H96.7356L96.7956 84.876V87.168C96.7956 87.9168 96.7956 88.6488 96.7956 89.3568C96.7956 90.7728 96.7956 92.1 96.7956 93.3072C96.7836 95.7072 96.774 97.6272 96.7692 98.7912L96.7428 98.7672L97.6524 98.7816H97.8924H97.9764C97.9508 98.784 97.9251 98.784 97.8996 98.7816H97.6596L96.7356 98.796H96.7116V98.772C96.7116 97.6008 96.6972 95.688 96.6852 93.288C96.6852 92.088 96.6852 90.7536 96.6852 89.3376V87.168C96.6852 86.7936 96.6852 86.4144 96.6852 86.0328V84.876L96.75 84.8112H98.0436V84.8736C98.0436 88.7784 98.0244 92.2632 98.0172 94.7808C98.0172 96.024 98.0028 97.0272 97.998 97.728C97.998 98.0664 97.998 98.3328 97.998 98.5224V98.724C97.985 98.7484 97.9688 98.771 97.95 98.7912Z"
    fill="#263238" />
  <path
    d="M98.19 90.3096H96.4332V84.5496C96.4329 84.4341 96.4553 84.3196 96.4993 84.2127C96.5433 84.1059 96.608 84.0088 96.6896 83.927C96.7712 83.8451 96.8681 83.7802 96.9749 83.7359C97.0816 83.6916 97.196 83.6688 97.3116 83.6688C97.4271 83.6688 97.5415 83.6916 97.6483 83.7359C97.755 83.7802 97.8519 83.8451 97.9335 83.927C98.0151 84.0088 98.0798 84.1059 98.1238 84.2127C98.1678 84.3196 98.1903 84.4341 98.19 84.5496V90.3096Z"
    fill="#455A64" />
  <path d="M98.5188 85.4952H98.178V92.9664H98.5188V85.4952Z" fill="#455A64" />
  <path
    d="M96.4212 90.3096C96.4212 90.2712 97.1412 90.2232 98.1996 90.1848L98.1156 90.2712C98.1156 89.868 98.1156 89.4312 98.1156 88.9728C98.1156 88.1208 98.1276 87.3528 98.1444 86.7936C98.1346 86.4913 98.1571 86.1888 98.2116 85.8912C98.2661 86.1888 98.2886 86.4913 98.2788 86.7936C98.2956 87.3528 98.3076 88.1208 98.3076 88.9728C98.3076 89.4312 98.3076 89.868 98.3076 90.2712V90.3552H98.2236C97.1484 90.3648 96.4212 90.348 96.4212 90.3096Z"
    fill="#263238" />
  <path
    d="M97.9836 105.878C95.37 107.112 92.7324 107.093 90.078 105.878L89.0364 94.32C92.2188 95.2512 95.5956 95.1624 99.1164 94.32L97.9836 105.878Z"
    fill="#E14242" />
  <path
    d="M99.1188 94.2504C98.9977 94.3075 98.8715 94.3533 98.742 94.3872C98.502 94.4688 98.1372 94.5696 97.6908 94.6752C97.2444 94.7808 96.702 94.8816 96.0972 94.9632C95.441 95.0449 94.7808 95.0898 94.1196 95.0976C93.4591 95.1009 92.7989 95.068 92.142 94.9992C91.605 94.9407 91.0715 94.8542 90.5436 94.74C90.0948 94.644 89.7324 94.5504 89.4876 94.4736C89.3582 94.4397 89.2315 94.3964 89.1084 94.344C89.2409 94.3599 89.3718 94.3872 89.4996 94.4256C89.7396 94.488 90.1116 94.5672 90.5604 94.6536C91.0092 94.74 91.5516 94.8216 92.154 94.8936C93.461 95.0241 94.7784 95.012 96.0828 94.8576C96.6852 94.7832 97.2228 94.6944 97.6716 94.5984C98.1204 94.5024 98.4804 94.4184 98.7276 94.3584C98.8548 94.3117 98.9857 94.2756 99.1188 94.2504Z"
    fill="#263238" />
  <path d="M56.0412 105.36L35.9628 105.895L56.0412 114.055L77.634 112.778L56.0412 105.36Z" fill="#E0E0E0" />
  <path d="M50.3172 104.551L30.2412 105.084L50.3172 113.244L71.9124 111.967L50.3172 104.551Z" fill="#F5F5F5" />
  <path d="M31.5516 102.427L51.6276 110.587V112.07L31.5516 103.625V102.427Z" fill="#E0E0E0" />
  <path d="M51.6276 112.07L73.2204 110.69V109.313L51.6276 110.587V112.07Z" fill="#EBEBEB" />
  <path d="M51.6276 101.894L31.5516 102.427L51.6276 110.587L73.2204 109.31L51.6276 101.894Z" fill="white" />
  <path
    d="M51.63 101.894C51.63 101.894 51.6636 101.894 51.7308 101.923L52.0308 102.022L53.1924 102.413L57.594 103.92L73.23 109.26C73.2436 109.265 73.2548 109.275 73.261 109.288C73.2673 109.301 73.2683 109.316 73.2636 109.33C73.2606 109.34 73.2542 109.349 73.2456 109.355C73.2369 109.362 73.2264 109.366 73.2156 109.366L52.9764 110.566L51.63 110.64C51.6214 110.642 51.6123 110.642 51.6036 110.64L31.5324 102.48C31.5193 102.475 31.5087 102.464 31.5029 102.451C31.4971 102.438 31.4965 102.424 31.5012 102.41C31.5059 102.401 31.5127 102.393 31.521 102.388C31.5294 102.382 31.5391 102.378 31.5492 102.377L46.1268 102L50.1924 101.906L51.2628 101.885H51.63L51.2628 101.902L50.19 101.938L46.11 102.06L31.5516 102.48L31.5708 102.379L51.6516 110.539H51.6228L52.9788 110.46L73.23 109.258L73.2156 109.363L57.582 103.973L53.1852 102.446L52.026 102.041L51.7284 101.933L51.63 101.894Z"
    fill="#263238" />
  <path
    d="M51.6132 112.126C51.53 111.623 51.53 111.111 51.6132 110.609C51.6964 111.111 51.6964 111.623 51.6132 112.126Z"
    fill="#263238" />
  <path
    d="M65.4132 107.76C65.4132 107.796 62.1396 108.019 58.1004 108.262C54.0612 108.504 50.7804 108.672 50.778 108.638C50.7756 108.605 54.0492 108.379 58.0932 108.137C62.1372 107.894 65.4108 107.736 65.4132 107.76Z"
    fill="#263238" />
  <path
    d="M63.2844 106.949C63.2844 106.985 60.0108 107.208 55.9692 107.45C51.9276 107.693 48.6516 107.861 48.6492 107.825C48.6468 107.789 51.9204 107.568 55.962 107.326C60.0036 107.083 63.282 106.915 63.2844 106.949Z"
    fill="#263238" />
  <path
    d="M61.1556 106.128C61.1556 106.162 57.882 106.387 53.8404 106.627C49.7988 106.867 46.5204 107.038 46.518 107.004C46.5156 106.97 49.7916 106.745 53.8332 106.502C57.8748 106.26 61.1532 106.092 61.1556 106.128Z"
    fill="#263238" />
  <path
    d="M58.6788 105.307C58.6788 105.341 55.4052 105.564 51.3636 105.806C47.322 106.049 44.0436 106.217 44.0412 106.183C44.0388 106.15 47.3148 105.924 51.3564 105.682C55.398 105.439 58.6764 105.271 58.6788 105.307Z"
    fill="#263238" />
  <path
    d="M56.5548 104.484C56.5548 104.52 53.2812 104.743 49.2396 104.986C45.198 105.228 41.9196 105.396 41.9196 105.36C41.9196 105.324 45.1908 105.103 49.2324 104.861C53.274 104.618 56.5524 104.45 56.5548 104.484Z"
    fill="#263238" />
  <path
    d="M53.958 103.649C53.958 103.682 50.6868 103.908 46.6452 104.148C42.6036 104.388 39.3252 104.558 39.3228 104.525C39.3204 104.491 42.594 104.266 46.638 104.023C50.682 103.781 53.9556 103.613 53.958 103.649Z"
    fill="#263238" />
  <path d="M51.3636 103.361L50.3604 102.835L50.8524 102.391L51.3636 103.361Z" fill="#263238" />
  <path d="M48.9972 102.206L50.1732 101.16L50.862 102.432L50.3604 102.835L48.9972 102.206Z" fill="white" />
  <path
    d="M29.2212 66.6336L35.9244 64.3992L39.6588 61.2456L40.4652 62.5224L43.5972 61.8048L52.4604 64.1088L53.8908 66.636L61.4556 68.7072L61.4916 79.3176L60.1164 98.7312L60.318 101.818H24.1188L23.5212 88.9224L23.4948 80.8992L29.2212 66.6336Z"
    fill="#E14242" />
  <path
    d="M48.366 96.2832L56.19 95.9041C56.19 95.9041 57.7068 96.7681 58.11 99.2473C58.5132 101.726 58.11 101.724 58.11 101.724L54.174 103.054L45.8244 102.862L42.7956 99.0576L45.078 97.7113L48.366 96.2832Z"
    fill="#AE7461" />
  <path
    d="M21.3348 93.4224C21.3348 93.4224 28.83 81.6048 27.5748 83.3136C27.4212 83.5248 28.338 82.6368 29.5188 79.74C30.6516 76.956 33.5988 65.2728 33.5988 65.2728L26.8452 67.0656C25.0692 67.5456 23.622 67.6896 22.0932 68.7072C20.7588 69.5928 19.3692 71.3304 18.4644 72.6504C15.1044 77.568 8.92199 87.144 8.14439 88.368C7.03079 90.1152 4.78439 94.6248 4.80359 97.3176C4.82519 99.6624 5.28359 101.753 8.86199 103.62C12.1644 105.343 33.2748 104.143 33.2748 104.143L33.15 95.3664L21.3348 93.4224Z"
    fill="#E14242" />
  <path
    d="M82.3764 91.1712C82.0668 90.3984 70.2636 77.3472 64.3356 71.3064C63.4444 70.3667 62.4815 69.4977 61.4556 68.7072L59.502 81.4272C59.502 81.4272 60.174 84.36 60.582 86.5296C60.6708 86.9976 66.8004 91.1688 66.8004 91.1688L68.1132 92.0088L56.13 95.1768L56.6316 102.79L78.0852 102.24C80.8716 101.162 85.3068 98.4744 82.3764 91.1712Z"
    fill="#E14242" />
  <path
    d="M78.0852 102.24H77.9772L77.658 102.252L76.4292 102.295L71.8812 102.434L56.634 102.854H56.5788V102.797C56.5308 102.077 56.4828 101.328 56.4324 100.562C56.31 98.7048 56.1924 96.8952 56.0796 95.184V95.1336L56.1276 95.1216C57.4116 94.8576 58.6404 94.5264 59.8164 94.2072L63.1764 93.276C65.3052 92.6856 67.2012 92.184 68.7996 91.836C70.0458 91.5498 71.3092 91.3445 72.582 91.2216C73.0284 91.1736 73.3764 91.1736 73.6092 91.1688H73.9668H73.8756L73.6116 91.1832C73.3716 91.1832 73.0308 91.2 72.5868 91.2552C71.3177 91.3925 70.0585 91.6089 68.8164 91.9032C67.2228 92.2584 65.3292 92.7648 63.2028 93.3624L59.8428 94.3032C58.6668 94.6248 57.4428 94.9584 56.1492 95.2272L56.1948 95.1648C56.31 96.8784 56.4348 98.6856 56.55 100.543C56.6004 101.309 56.6508 102.067 56.6964 102.778L56.6364 102.722L71.8836 102.341L76.4436 102.24L77.6724 102.218H78.0996L78.0852 102.24Z"
    fill="#263238" />
  <path
    d="M49.9164 99.4464C49.8692 99.3448 49.7974 99.2566 49.7076 99.1896L48.438 98.0568L47.7012 100.25C47.8563 100.369 48.0332 100.455 48.2219 100.505C48.4105 100.555 48.607 100.567 48.8003 100.54C48.9936 100.514 49.1798 100.45 49.3482 100.352C49.5167 100.253 49.6641 100.123 49.782 99.9672C49.8463 99.8987 49.8924 99.8151 49.9159 99.724C49.9394 99.633 49.9396 99.5375 49.9164 99.4464Z"
    fill="#6F4439" />
  <path
    d="M32.862 87.2136L48.99 102.206L50.514 102.926L51.3564 103.358L50.9628 102.638L50.166 101.165L33.8388 86.16C33.7057 86.0366 33.5308 85.968 33.3492 85.968C33.1676 85.968 32.9927 86.0366 32.8596 86.16C32.7874 86.2276 32.7299 86.3093 32.6907 86.4C32.6515 86.4907 32.6314 86.5885 32.6316 86.6874C32.6318 86.7862 32.6524 86.8839 32.692 86.9745C32.7317 87.065 32.7895 87.1464 32.862 87.2136Z"
    fill="#455A64" />
  <path
    d="M33.162 95.6424L34.4268 95.868C34.4268 95.868 40.9812 93.4488 41.9172 93.3264C42.6372 93.2328 46.0884 94.0464 47.6172 94.416C47.9185 94.4847 48.1867 94.6557 48.3762 94.8998C48.5657 95.144 48.6647 95.4463 48.6564 95.7552C48.6576 95.7648 48.6576 95.7745 48.6564 95.784C48.6368 96.0342 48.5475 96.2738 48.3986 96.4757C48.2497 96.6777 48.0472 96.8338 47.814 96.9264C47.814 96.9264 49.1004 97.3272 48.5172 98.688C48.0876 99.6936 46.7292 99.54 46.7292 99.54L44.4612 99.5832C44.4612 99.5832 45.0396 99.756 45.9012 99.96C46.8372 100.178 47.0868 100.349 47.0868 100.349C47.0868 100.349 48.4548 101.664 47.1324 102.214C46.6994 102.41 46.2237 102.492 45.75 102.454C45.75 102.454 46.146 103.867 45.0876 104.112C44.0292 104.357 37.0356 103.824 37.0356 103.824C37.0356 103.824 36.666 103.618 35.2404 103.495L33.2676 103.358L33.162 95.6424Z"
    fill="#AE7461" />
  <path
    d="M33.162 95.6424C33.162 95.6424 33.162 95.6904 33.162 95.7816C33.162 95.8728 33.162 96.0216 33.162 96.1824C33.162 96.5376 33.1812 97.0512 33.1932 97.716C33.2196 99.0456 33.2556 100.97 33.3012 103.358L33.2604 103.318L35.0724 103.44C35.3892 103.462 35.7156 103.495 36.0468 103.543C36.3898 103.582 36.7267 103.662 37.05 103.783H37.0308C38.49 103.889 40.0788 103.992 41.766 104.066C42.6084 104.102 43.4748 104.136 44.3628 104.122C44.5829 104.119 44.8026 104.101 45.0204 104.069C45.2313 104.037 45.422 103.925 45.5532 103.757C45.678 103.577 45.7465 103.364 45.75 103.145C45.7612 102.92 45.7385 102.695 45.6828 102.478L45.6636 102.394H45.75C46.0437 102.417 46.3393 102.39 46.6236 102.312C46.9176 102.252 47.1947 102.127 47.4348 101.947C47.5398 101.845 47.6089 101.712 47.6319 101.568C47.6548 101.423 47.6303 101.275 47.562 101.146C47.4364 100.862 47.2581 100.604 47.0364 100.387C46.6878 100.227 46.3223 100.106 45.9468 100.027L44.418 99.6288L43.998 99.5208H44.4324L46.7004 99.4776C47.009 99.5039 47.3198 99.4688 47.6148 99.3744C47.9076 99.2876 48.1617 99.1029 48.3348 98.8512C48.3756 98.7912 48.4044 98.7216 48.4404 98.6568L48.5172 98.4432C48.5388 98.3712 48.5508 98.2992 48.5676 98.2272C48.5844 98.1552 48.582 98.0784 48.5844 98.0064C48.5812 97.8617 48.5477 97.7192 48.4861 97.5882C48.4246 97.4571 48.3362 97.3404 48.2268 97.2456C48.1168 97.1481 47.9931 97.0672 47.8596 97.0056L47.8116 96.984H47.7852H47.7732C47.7732 97.08 47.7612 96.8544 47.7732 96.876L47.8716 96.8304C47.9351 96.7974 47.9961 96.7597 48.054 96.7176C48.2856 96.5504 48.4546 96.3105 48.534 96.036C48.6087 95.7656 48.5892 95.4779 48.4788 95.22C48.368 94.9679 48.1797 94.7577 47.9412 94.62C47.6943 94.5023 47.4315 94.4215 47.1612 94.38L46.362 94.188C45.834 94.0656 45.3156 93.948 44.8116 93.84C44.3076 93.732 43.8108 93.6288 43.326 93.5424C43.086 93.4992 42.846 93.4608 42.606 93.4296C42.3768 93.3921 42.1445 93.3768 41.9124 93.384C41.4759 93.476 41.0455 93.5946 40.6236 93.7392C40.2108 93.8688 39.8124 94.0032 39.4236 94.1304L37.3284 94.8504L34.4004 95.8944L33.4524 95.7144L33.2124 95.6688L33.1332 95.652H33.2076L33.4476 95.6904L34.4076 95.8512C35.0748 95.5992 36.066 95.232 37.326 94.7784C37.9572 94.5384 38.6556 94.2984 39.4188 94.0416C39.798 93.912 40.1964 93.7752 40.6188 93.6432C41.0459 93.4949 41.4819 93.3738 41.9244 93.2808C42.1651 93.2701 42.4064 93.2838 42.6444 93.3216C42.8844 93.3528 43.1244 93.3912 43.3644 93.4344C43.8444 93.5184 44.346 93.6168 44.8524 93.7272C45.3588 93.8376 45.8772 93.9504 46.4052 94.0728L47.2068 94.26L47.6124 94.3584C47.7543 94.3931 47.8908 94.4472 48.018 94.5192C48.2763 94.6706 48.481 94.8988 48.6036 95.172C48.724 95.4526 48.7452 95.7658 48.6636 96.06C48.5787 96.3589 48.3962 96.6208 48.1452 96.804C48.082 96.8499 48.0154 96.8908 47.946 96.9264C47.9124 96.9456 47.8764 96.96 47.8404 96.9768C47.8404 97.0008 47.8404 96.7752 47.8404 96.8712H47.8548H47.8836L47.9364 96.8928C48.0796 96.9526 48.2131 97.0335 48.3324 97.1328C48.4526 97.2385 48.5512 97.3664 48.6228 97.5096C48.6905 97.6566 48.7272 97.8159 48.7308 97.9776C48.7308 98.0568 48.7308 98.1384 48.714 98.2176C48.6972 98.2968 48.6828 98.3736 48.6588 98.4576L48.5796 98.6832C48.5412 98.7552 48.5076 98.8296 48.4644 98.8968C48.2794 99.1692 48.0066 99.37 47.6916 99.4656C47.3822 99.5665 47.0557 99.604 46.7316 99.576L44.4636 99.6216L44.4804 99.504L46.0044 99.9C46.3941 99.9802 46.7728 100.107 47.1324 100.277C47.3672 100.506 47.5555 100.778 47.6868 101.078C47.7526 101.229 47.779 101.395 47.7636 101.558C47.7409 101.73 47.6554 101.888 47.5236 102C47.2683 102.194 46.9732 102.328 46.6596 102.394C46.3597 102.476 46.0477 102.504 45.738 102.478L45.8052 102.403C45.8629 102.634 45.8864 102.871 45.8748 103.109C45.8695 103.35 45.7926 103.584 45.654 103.781C45.5048 103.972 45.2887 104.1 45.0492 104.138C44.8252 104.172 44.599 104.19 44.3724 104.191C43.4796 104.208 42.6108 104.17 41.766 104.134C40.086 104.054 38.4924 103.946 37.0284 103.838H37.014C36.7044 103.721 36.3822 103.641 36.054 103.598C35.7252 103.55 35.4036 103.514 35.094 103.493L33.2844 103.363H33.246V103.325C33.2196 100.925 33.2004 98.9904 33.186 97.6512C33.186 96.9936 33.186 96.48 33.186 96.1296C33.186 95.9592 33.186 95.8296 33.186 95.736C33.186 95.6424 33.162 95.6424 33.162 95.6424Z"
    fill="#6F4439" />
  <path
    d="M47.7012 96.9264C47.1003 96.9315 46.4998 96.8962 45.9036 96.8208C45.3033 96.786 44.706 96.7114 44.1156 96.5976C44.7165 96.5926 45.317 96.6279 45.9132 96.7032C46.5133 96.7395 47.1106 96.8141 47.7012 96.9264Z"
    fill="#6F4439" />
  <path
    d="M40.626 103.361C40.626 103.373 40.5228 103.337 40.4124 103.222C40.266 103.065 40.1808 102.862 40.1724 102.648C40.1644 102.435 40.2344 102.227 40.3692 102.062C40.4724 101.938 40.566 101.894 40.5732 101.906C40.5804 101.918 40.5156 101.986 40.4388 102.11C40.3392 102.271 40.2884 102.457 40.2924 102.646C40.3016 102.834 40.3658 103.015 40.4772 103.166C40.5612 103.286 40.6356 103.344 40.626 103.361Z"
    fill="#6F4439" />
  <path
    d="M40.5204 100.987C40.5204 101.002 40.398 100.987 40.242 100.886C40.1414 100.816 40.0572 100.725 39.995 100.619C39.9329 100.513 39.8942 100.396 39.8817 100.273C39.8691 100.151 39.883 100.028 39.9224 99.9119C39.9619 99.7957 40.0258 99.6893 40.11 99.6C40.2396 99.4632 40.35 99.4296 40.35 99.4416C40.35 99.4536 40.2636 99.516 40.1628 99.6528C40.031 99.8292 39.9687 100.048 39.9876 100.267C40.0159 100.485 40.1246 100.685 40.2924 100.826C40.422 100.932 40.5276 100.968 40.5204 100.987Z"
    fill="#6F4439" />
  <path
    d="M40.4796 98.2248C40.4796 98.2368 40.3596 98.1696 40.2396 97.9968C40.0916 97.7674 40.0343 97.491 40.0788 97.2216C40.1269 96.9518 40.2752 96.71 40.494 96.5448C40.6596 96.42 40.7868 96.3984 40.7916 96.4104C40.7964 96.4224 40.686 96.48 40.5516 96.6096C40.3663 96.774 40.2419 96.9961 40.1983 97.24C40.1548 97.4838 40.1947 97.7353 40.3116 97.9536C40.4052 98.124 40.494 98.2104 40.4796 98.2248Z"
    fill="#6F4439" />
  <path
    d="M41.31 94.6801C41.31 94.6801 41.2476 94.6513 41.2044 94.5601C41.1531 94.4378 41.1447 94.3018 41.1804 94.1742C41.2161 94.0466 41.2939 93.9347 41.4012 93.8569C41.4876 93.8017 41.5524 93.7969 41.5572 93.8089C41.562 93.8209 41.3628 93.9481 41.2956 94.2073C41.2669 94.3641 41.2718 94.5252 41.31 94.6801Z"
    fill="#6F4439" />
  <path
    d="M44.6364 99.54C44.3135 99.5916 43.9857 99.6052 43.6596 99.5808C43.3321 99.595 43.0041 99.5693 42.6828 99.504C43.0054 99.4495 43.3335 99.435 43.6596 99.4608C43.9872 99.4467 44.3153 99.4733 44.6364 99.54Z"
    fill="#6F4439" />
  <path
    d="M45.6972 102.456C45.1011 102.392 44.5101 102.287 43.9284 102.142C43.3381 102.035 42.7553 101.891 42.1836 101.71C42.7789 101.774 43.369 101.879 43.95 102.024C44.5412 102.13 45.1248 102.274 45.6972 102.456Z"
    fill="#6F4439" />
  <path
    d="M28.2612 81.1681C28.2682 81.1171 28.2811 81.0672 28.2996 81.0192C28.326 80.9208 28.3836 80.7793 28.4292 80.5969C28.5774 80.0771 28.6857 79.5467 28.7532 79.0105C28.8588 78.2151 28.8933 77.4119 28.8564 76.6105C28.8175 75.633 28.6513 74.6649 28.362 73.7305C28.0553 72.7998 27.5802 71.9334 26.9604 71.1745C26.4533 70.5554 25.8476 70.0243 25.1676 69.6025C24.7079 69.3191 24.2196 69.085 23.7108 68.9041C23.5332 68.8321 23.3868 68.7985 23.2932 68.7649C23.2429 68.7507 23.1939 68.7322 23.1468 68.7097C23.1982 68.7144 23.2489 68.7249 23.298 68.7409C23.3964 68.7673 23.538 68.7961 23.7252 68.8609C24.2445 69.0251 24.743 69.249 25.2108 69.5281C25.9062 69.946 26.5261 70.4783 27.0444 71.1025C27.6816 71.8684 28.17 72.7466 28.4844 73.6921C28.7747 74.6389 28.9362 75.6205 28.9644 76.6105C28.9972 77.4175 28.9538 78.2259 28.8348 79.0249C28.7585 79.5636 28.6373 80.0951 28.4724 80.6137C28.4172 80.7985 28.3548 80.9329 28.3212 81.0289C28.3046 81.0766 28.2845 81.1232 28.2612 81.1681Z"
    fill="#263238" />
  <path
    d="M61.47 78.96C61.4731 79.0112 61.4731 79.0625 61.47 79.1136C61.47 79.2264 61.47 79.3728 61.4532 79.5552C61.4292 79.9512 61.4004 80.4984 61.362 81.1704C61.2732 82.548 61.1532 84.4248 61.0188 86.5008C60.8844 88.5768 60.738 90.4512 60.6396 91.8288L60.5124 93.4416C60.4956 93.6216 60.4812 93.768 60.4716 93.8808C60.4673 93.9316 60.4601 93.9821 60.45 94.032C60.4442 93.981 60.4442 93.9295 60.45 93.8784C60.45 93.7656 60.45 93.6192 60.4692 93.4392C60.4908 93.0432 60.522 92.4936 60.558 91.8216C60.6468 90.4464 60.7668 88.5672 60.9012 86.4936C61.0356 84.42 61.182 82.5408 61.2804 81.1656L61.4076 79.5528C61.4244 79.3704 61.4388 79.2264 61.4484 79.1136C61.4501 79.0618 61.4573 79.0103 61.47 78.96Z"
    fill="#263238" />
  <path
    d="M47.4612 76.572C47.4321 76.554 47.4055 76.5322 47.382 76.5072L47.1636 76.3056L46.3476 75.5304L45.0924 74.3112C44.6124 73.8312 44.0652 73.3032 43.5012 72.6864L43.59 72.6648C43.3236 73.8168 43.0236 75.1176 42.7044 76.5048L42.6708 76.6512L42.5964 76.5216C42.2604 75.9456 41.9172 75.3432 41.5716 74.7264C40.014 71.94 38.6724 69.3816 37.6668 67.548L36.4668 65.388L36.1476 64.8L36.0636 64.6464C36.0468 64.6104 36.0372 64.5936 36.0396 64.5912C36.0533 64.6059 36.0653 64.622 36.0756 64.6392L36.1668 64.788L36.5124 65.3664C36.81 65.8704 37.2324 66.6048 37.7412 67.5264C38.766 69.3504 40.1196 71.9016 41.6748 74.688C42.0204 75.3048 42.3636 75.9049 42.6972 76.4809L42.5892 76.4976C42.9156 75.1104 43.2204 73.812 43.4892 72.6576L43.5132 72.5616L43.578 72.636C44.1324 73.2504 44.6772 73.788 45.15 74.2704L46.3884 75.5064L47.1852 76.3008L47.3916 76.512C47.4164 76.5301 47.4397 76.5502 47.4612 76.572Z"
    fill="#263238" />
  <path
    d="M47.9148 76.272C47.9148 76.272 47.9772 76.1808 48.0972 76.0176L48.6156 75.312C49.0572 74.7 49.674 73.8264 50.3892 72.7824L50.43 72.72L50.4756 72.7728C50.7942 73.1339 51.1543 73.4561 51.5484 73.7328C51.9588 74.0256 52.4124 74.2968 52.8588 74.6088L52.7676 74.6448L52.7868 74.5608C53.2668 72.5736 53.694 70.776 53.8884 69.4536C53.9892 68.7936 54.0516 68.2536 54.0876 67.884C54.1044 67.7064 54.1188 67.5648 54.1284 67.4544C54.1308 67.4041 54.1389 67.3542 54.1524 67.3056C54.1571 67.3559 54.1571 67.4065 54.1524 67.4568C54.1524 67.5552 54.1524 67.6968 54.1332 67.8864C54.1116 68.2608 54.0636 68.8008 53.9724 69.4656C53.7996 70.7976 53.382 72.6048 52.902 74.5872C52.897 74.6155 52.8906 74.6435 52.8828 74.6712L52.8636 74.7576L52.7916 74.7072C52.3476 74.3976 51.894 74.124 51.4788 73.8264C51.08 73.5446 50.7159 73.2167 50.394 72.8496H50.478C49.758 73.8888 49.1244 74.7528 48.6684 75.3552C48.4404 75.6552 48.2556 75.888 48.126 76.044C48.0612 76.1232 48.0084 76.1808 47.9724 76.2216C47.9364 76.2624 47.9172 76.2744 47.9148 76.272Z"
    fill="#263238" />
  <path
    d="M47.2116 93.9288C47.2054 93.8698 47.2054 93.8103 47.2116 93.7512C47.2116 93.624 47.2116 93.456 47.2116 93.2448C47.2116 92.7936 47.2356 92.1624 47.25 91.3872C47.2812 89.8056 47.3196 87.6408 47.3652 85.2504C47.4108 82.86 47.4108 80.6904 47.4276 79.1136C47.4276 78.3384 47.4396 77.7072 47.442 77.2536C47.442 77.0448 47.442 76.8768 47.442 76.7496C47.4352 76.6906 47.4352 76.631 47.442 76.572C47.4497 76.6309 47.4537 76.6902 47.454 76.7496C47.454 76.8744 47.454 77.0448 47.4684 77.2536C47.4684 77.7072 47.4684 78.3384 47.49 79.1136C47.49 80.6856 47.49 82.8552 47.4636 85.2528C47.4372 87.6504 47.37 89.8128 47.3124 91.3896C47.2812 92.1648 47.2548 92.796 47.238 93.2472L47.2092 93.7536C47.2141 93.8119 47.2149 93.8704 47.2116 93.9288Z"
    fill="#263238" />
  <path
    d="M33.2748 104.143C33.2673 104.086 33.2633 104.028 33.2628 103.97C33.2628 103.848 33.2628 103.682 33.246 103.474C33.234 103.03 33.2196 102.403 33.2028 101.626C33.1764 100.046 33.1404 97.8552 33.0996 95.3664L33.15 95.424L31.3596 95.1264L23.9748 93.8736L21.738 93.48L21.1308 93.36L20.9724 93.3264L20.9196 93.312C20.9378 93.3084 20.9566 93.3084 20.9748 93.312L21.1356 93.3336L21.7452 93.4248L23.9868 93.78L31.3764 94.9992L33.1668 95.2992H33.2172V95.3496C33.2436 97.8384 33.2652 100.027 33.2796 101.609C33.2796 102.386 33.2796 103.013 33.2796 103.457C33.2796 103.666 33.2796 103.831 33.2796 103.954C33.2848 104.017 33.2832 104.08 33.2748 104.143Z"
    fill="#263238" />
  <path
    d="M21.3348 93.4224C21.3348 93.4464 20.934 93.4728 20.3028 93.624C19.9377 93.7124 19.5792 93.8263 19.23 93.9648C18.8006 94.1405 18.385 94.3483 17.9868 94.5864C17.5936 94.8328 17.2197 95.1088 16.8684 95.412C16.5839 95.6632 16.3177 95.9343 16.0716 96.2232C15.6516 96.7176 15.4428 97.0656 15.4236 97.0512C15.4597 96.9667 15.5048 96.8862 15.558 96.8112C15.6133 96.7149 15.6742 96.622 15.7404 96.5328C15.8172 96.4272 15.8988 96.2928 16.0068 96.1776C16.247 95.8784 16.5102 95.5983 16.794 95.34C17.1458 95.0264 17.524 94.7438 17.9244 94.4952C18.3268 94.2511 18.7501 94.043 19.1892 93.8736C19.5492 93.7375 19.919 93.6292 20.2956 93.5496C20.454 93.5112 20.6028 93.4944 20.73 93.4752C20.8404 93.4568 20.9518 93.4448 21.0636 93.4392C21.1532 93.4249 21.2441 93.4193 21.3348 93.4224Z"
    fill="#263238" />
  <path
    d="M27.5676 83.3137C27.556 83.353 27.5381 83.3903 27.5148 83.4241L27.342 83.7241C27.1788 83.9977 26.9604 84.3673 26.6916 84.8161C26.1372 85.7377 25.362 87.0049 24.5028 88.3993C23.6436 89.7937 22.8564 91.0561 22.2828 91.9657L21.5988 93.0385L21.4092 93.3265C21.3881 93.3612 21.3632 93.3934 21.3348 93.4225C21.3348 93.4225 21.3492 93.3841 21.3876 93.3145L21.5604 93.0121C21.7236 92.7409 21.9444 92.3713 22.2108 91.9201C22.7652 91.0009 23.5404 89.7337 24.3996 88.3369C25.2588 86.9401 26.046 85.6825 26.6196 84.7729L27.3036 83.7001L27.4932 83.4121C27.5148 83.3769 27.5397 83.344 27.5676 83.3137Z"
    fill="#263238" />
  <g opacity="0.3">
    <path d="M23.6892 92.5416C26.2476 90.3648 27.8004 86.5944 27.5292 83.2488L23.5668 89.8824L23.6892 92.5416Z"
      fill="black" />
  </g>
  <g opacity="0.3">
    <path
      d="M37.5804 67.3056L42.3876 78.18L44.1156 74.9376L46.7532 75.8856L43.5396 72.6528L42.6468 76.4904L37.5804 67.3056Z"
      fill="black" />
  </g>
  <g opacity="0.3">
    <path
      d="M67.95 92.028C70.002 90.9432 71.9316 90.108 74.2428 90.3168C74.5596 90.334 74.8723 90.3963 75.1716 90.5016C75.2781 90.5799 75.3665 90.6803 75.4307 90.7958C75.4949 90.9114 75.5334 91.0394 75.5436 91.1712C73.0533 91.0789 70.563 91.3563 68.154 91.9944"
      fill="black" />
  </g>
  <g opacity="0.3">
    <path
      d="M61.5612 77.6136C61.5612 77.7912 60.9588 86.7504 60.9468 86.928C62.4636 83.9712 62.9556 80.64 61.5612 77.6136Z"
      fill="black" />
  </g>
  <path
    d="M48.2316 33.6744C48.551 33.2523 48.9937 32.9398 49.4985 32.7803C50.0033 32.6208 50.5452 32.6221 51.0492 32.784C51.7354 32.4133 52.5259 32.2828 53.2948 32.4133C54.0637 32.5437 54.7669 32.9277 55.2924 33.504C55.7907 33.3057 56.3317 33.2392 56.8632 33.3109C57.3947 33.3825 57.8987 33.59 58.3267 33.9133C58.7546 34.2365 59.092 34.6646 59.3063 35.1563C59.5206 35.6479 59.6045 36.1865 59.55 36.72C60.0953 36.7156 60.6281 36.8829 61.0729 37.1983C61.5177 37.5137 61.852 37.961 62.0283 38.477C62.2046 38.993 62.2141 39.5513 62.0553 40.073C61.8965 40.5946 61.5775 41.053 61.1436 41.3832C61.6972 41.6595 62.1284 42.1315 62.3537 42.7078C62.5789 43.284 62.5822 43.9233 62.3628 44.5018C62.1433 45.0803 61.7169 45.5566 61.1661 45.8385C60.6154 46.1203 59.9795 46.1876 59.382 46.0272L48.27 36.6288C47.9582 36.2011 47.787 35.687 47.7801 35.1577C47.7732 34.6285 47.931 34.1101 48.2316 33.6744Z"
    fill="#263238" />
  <path
    d="M50.6988 35.2225L50.1564 35.1409C44.2572 34.6033 40.506 39.3145 40.1316 45.2209L38.286 62.6401L47.7732 75.2881L50.8308 70.8001L51.7908 65.5513C51.7908 65.5513 57.5508 65.5225 58.4556 59.9113C58.8972 57.2017 59.3508 51.5497 59.7036 46.4281C59.8884 43.7698 59.0639 41.1396 57.3948 39.0625C55.7256 36.9854 53.3345 35.6141 50.6988 35.2225Z"
    fill="#AE7461" />
  <path
    d="M51.7692 65.5512C51.7692 65.5512 48.2052 65.22 44.7852 62.2824C44.7852 62.2824 45.8964 66.6024 51.5268 66.9408L51.7692 65.5512Z"
    fill="#6F4439" />
  <path
    d="M56.91 52.0801C56.8807 52.2896 56.7707 52.4793 56.6034 52.6089C56.4362 52.7385 56.225 52.7976 56.0148 52.7737C55.9112 52.7664 55.8102 52.7386 55.7176 52.6917C55.625 52.6448 55.5427 52.5799 55.4756 52.5007C55.4085 52.4215 55.358 52.3297 55.3269 52.2306C55.2958 52.1316 55.2849 52.0274 55.2948 51.9241C55.3269 51.7166 55.438 51.5295 55.6048 51.402C55.7717 51.2746 55.9813 51.2165 56.19 51.2401C56.2926 51.2473 56.3928 51.2749 56.4847 51.3212C56.5767 51.3675 56.6585 51.4315 56.7254 51.5097C56.7924 51.5878 56.8432 51.6784 56.8749 51.7764C56.9066 51.8743 56.9185 51.9775 56.91 52.0801Z"
    fill="#263238" />
  <path
    d="M58.0908 49.284C57.9756 49.3728 57.4356 48.8328 56.5716 48.7056C55.7076 48.5784 55.0092 48.9144 54.93 48.7944C54.8916 48.7416 55.0212 48.5664 55.3284 48.408C55.7406 48.2039 56.2062 48.1334 56.6604 48.2064C57.1128 48.2713 57.5329 48.4781 57.8604 48.7968C58.086 49.0416 58.146 49.2432 58.0908 49.284Z"
    fill="#263238" />
  <path
    d="M49.5948 51.12C49.5655 51.3295 49.4555 51.5193 49.2883 51.6489C49.121 51.7785 48.9098 51.8376 48.6996 51.8136C48.5962 51.8067 48.4952 51.7791 48.4026 51.7325C48.31 51.6859 48.2277 51.6212 48.1606 51.5422C48.0935 51.4632 48.0428 51.3715 48.0118 51.2726C47.9807 51.1737 47.9697 51.0696 47.9796 50.9664C48.0089 50.7567 48.1188 50.5668 48.286 50.4368C48.4531 50.3068 48.6643 50.2472 48.8748 50.2704C48.9784 50.2773 49.0797 50.305 49.1724 50.3518C49.2652 50.3985 49.3476 50.4635 49.4147 50.5427C49.4819 50.622 49.5324 50.7139 49.5634 50.8131C49.5943 50.9123 49.605 51.0167 49.5948 51.12Z"
    fill="#263238" />
  <path
    d="M49.8444 47.9232C49.7292 48.012 49.1892 47.472 48.3252 47.3448C47.4612 47.2176 46.7628 47.5536 46.686 47.4336C46.6476 47.3808 46.7748 47.2056 47.082 47.0472C47.4942 46.843 47.9598 46.7726 48.414 46.8456C48.8664 46.9105 49.2865 47.1172 49.614 47.436C49.8396 47.6808 49.902 47.8824 49.8444 47.9232Z"
    fill="#263238" />
  <path
    d="M51.7284 54.7512C51.7284 54.7008 52.2828 54.6888 53.1684 54.708C53.3916 54.72 53.6076 54.708 53.6676 54.5616C53.7197 54.3361 53.7022 54.1001 53.6172 53.8848C53.49 53.3208 53.358 52.728 53.2164 52.1088C52.6716 49.5816 52.3092 47.5176 52.4124 47.496C52.5156 47.4744 53.0412 49.5048 53.586 52.032C53.7156 52.656 53.8404 53.2488 53.958 53.8152C54.0036 54.0792 54.1044 54.3864 53.9412 54.6984C53.8977 54.7715 53.8382 54.8337 53.7671 54.8802C53.6959 54.9268 53.6151 54.9566 53.5308 54.9672C53.4041 54.9831 53.2759 54.9831 53.1492 54.9672C52.2684 54.8784 51.726 54.8016 51.7284 54.7512Z"
    fill="#263238" />
  <path
    d="M50.226 45.4561C50.0916 45.6649 49.3764 45.3529 48.4716 45.2329C47.5668 45.1129 46.7916 45.1873 46.7244 44.9497C46.7004 44.8369 46.8804 44.6545 47.226 44.5105C47.6699 44.3401 48.1504 44.288 48.6204 44.3593C49.0861 44.4213 49.5263 44.6079 49.8948 44.8993C50.1756 45.1321 50.2884 45.3601 50.226 45.4561Z"
    fill="#263238" />
  <path
    d="M58.2492 46.8864C58.0836 47.0736 57.498 46.8264 56.7756 46.7688C56.0532 46.7112 55.434 46.812 55.3068 46.596C55.2516 46.4928 55.362 46.3008 55.6404 46.1304C56.0152 45.9304 56.4411 45.8464 56.8637 45.8892C57.2864 45.9319 57.6868 46.0994 58.014 46.3704C58.254 46.584 58.3236 46.8 58.2492 46.8864Z"
    fill="#263238" />
  <path
    d="M59.55 43.7616C59.55 43.7616 58.59 40.0176 57.0228 38.9424C55.1172 37.6392 53.9028 39.7608 52.0164 38.9208C50.13 38.0808 48.3228 36.8304 46.0956 38.0448C43.6548 39.372 44.5068 40.6848 43.998 43.1616C41.9316 53.1912 39.654 55.7736 39.8436 50.9304C39.8652 50.4 38.4804 49.7688 38.5956 47.532C38.7468 44.6304 39.1596 41.1432 40.1004 39.2112C40.8948 37.5816 42.0468 36.5472 43.9908 35.508C47.0604 33.8664 50.8572 34.3896 53.3916 35.028C55.926 35.6664 60.4332 39.3888 59.55 43.7616Z"
    fill="#263238" />
  <path
    d="M40.2132 50.832C40.2374 50.6247 40.2193 50.4146 40.16 50.2145C40.1006 50.0144 40.0013 49.8284 39.8681 49.6678C39.7348 49.5071 39.5703 49.3752 39.3846 49.2799C39.1989 49.1847 38.9958 49.1281 38.7876 49.1136C37.7244 49.056 36.4692 49.476 36.2124 51.6528C35.7588 55.5144 39.7284 55.1736 39.7476 55.0632C39.7668 54.9528 40.038 52.4496 40.2132 50.832Z"
    fill="#AE7461" />
  <path
    d="M39.078 53.52C39.0636 53.5056 39.006 53.5584 38.886 53.5968C38.7181 53.6466 38.5375 53.6294 38.382 53.5488C37.9908 53.352 37.7244 52.6632 37.7868 51.9648C37.8164 51.6327 37.9197 51.3113 38.0892 51.024C38.1395 50.9078 38.2173 50.8055 38.316 50.726C38.4147 50.6466 38.5313 50.5923 38.6556 50.568C38.7364 50.5566 38.8186 50.5745 38.8873 50.6186C38.956 50.6626 39.0067 50.7298 39.03 50.808C39.0708 50.9232 39.03 50.9976 39.0564 51.0048C39.0828 51.012 39.1476 50.9496 39.1356 50.7864C39.1237 50.6886 39.0799 50.5975 39.0108 50.5272C38.9137 50.4351 38.7846 50.3844 38.6508 50.3856C38.491 50.397 38.3365 50.4482 38.2015 50.5346C38.0665 50.6209 37.9553 50.7397 37.878 50.88C37.6744 51.1951 37.5508 51.5551 37.518 51.9288C37.4508 52.7088 37.758 53.484 38.3028 53.712C38.4028 53.7544 38.5111 53.7736 38.6196 53.7682C38.7281 53.7628 38.8339 53.733 38.9292 53.6808C39.0612 53.604 39.09 53.52 39.078 53.52Z"
    fill="#6F4439" />
  <path
    d="M41.406 43.3992C41.8548 43.8144 42.33 44.244 42.9228 44.3952C43.5156 44.5464 44.2524 44.3016 44.4444 43.7208C44.5308 43.4616 44.5116 43.14 44.718 42.96C44.958 42.744 45.3396 42.8808 45.6588 42.96C46.2136 43.0886 46.7957 43.022 47.3072 42.7715C47.8187 42.521 48.2282 42.102 48.4668 41.5848C48.6876 42.0528 49.3572 42.1344 49.83 41.9208C50.3028 41.7072 50.6484 41.2944 51.0444 40.9608C51.4404 40.6272 51.9636 40.3512 52.4604 40.5C52.7388 40.584 52.9812 40.7928 53.2692 40.8096C53.7804 40.8408 54.1164 40.2864 54.2676 39.7968C54.4188 39.3072 54.5676 38.7312 55.0356 38.5248C55.5036 38.3184 55.9596 38.5536 56.4156 38.6928C56.8716 38.832 57.4836 38.8128 57.6708 38.376C57.7088 38.2577 57.7225 38.1329 57.7109 38.0092C57.6994 37.8854 57.6629 37.7653 57.6036 37.656C57.3611 37.1445 56.9533 36.7295 56.446 36.4783C55.9386 36.227 55.3614 36.1541 54.8076 36.2712C54.7142 35.6034 54.425 34.9782 53.9764 34.4748C53.5278 33.9713 52.9401 33.6121 52.2874 33.4425C51.6347 33.273 50.9464 33.3008 50.3095 33.5223C49.6726 33.7439 49.1157 34.1493 48.7092 34.6872C48.3567 34.2557 47.9053 33.9156 47.3933 33.6959C46.8813 33.4762 46.3238 33.3834 45.7682 33.4254C45.2126 33.4673 44.6754 33.6428 44.2021 33.9368C43.7289 34.2309 43.3336 34.6349 43.05 35.1144C42.5977 34.919 42.0979 34.861 41.613 34.9478C41.128 35.0347 40.6794 35.2624 40.323 35.6026C39.9667 35.9428 39.7184 36.3804 39.6093 36.8609C39.5001 37.3413 39.5348 37.8432 39.7092 38.304C38.9604 38.5944 38.2692 39.192 38.1324 39.984C37.9956 40.776 38.6532 41.688 39.4524 41.592C39.2452 41.8818 39.1573 42.24 39.2066 42.5928C39.256 42.9455 39.4389 43.2659 39.7177 43.4876C39.9964 43.7094 40.3497 43.8156 40.7045 43.7844C41.0593 43.7533 41.3886 43.587 41.6244 43.32"
    fill="#263238" />
  <path
    d="M49.386 55.8049C49.3197 55.7469 49.234 55.7161 49.146 55.7185C49.1075 55.7313 49.072 55.7517 49.0415 55.7785C49.011 55.8053 48.9861 55.8379 48.9684 55.8744C48.7941 56.1545 48.6935 56.4741 48.6758 56.8035C48.6582 57.1329 48.7242 57.4614 48.8676 57.7585C48.8676 57.7585 48.8676 57.7705 48.8676 57.7777C49.3044 58.6321 50.5308 58.6584 51.078 57.8688L51.4884 57.276L49.386 55.8049Z"
    fill="#6F4439" />
  <path
    d="M50.8188 58.1496C50.8476 58.1664 50.4972 58.5 49.7868 58.4664C49.591 58.4519 49.4024 58.3866 49.2396 58.2768C49.0444 58.1611 48.8837 57.9954 48.774 57.7968C48.5706 57.3367 48.521 56.8234 48.6324 56.3328C48.6545 56.2041 48.6866 56.0774 48.7284 55.9536C48.7502 55.8784 48.7875 55.8086 48.838 55.7487C48.8884 55.6887 48.9508 55.64 49.0212 55.6056C49.0967 55.5831 49.1767 55.5803 49.2536 55.5976C49.3305 55.6148 49.4017 55.6515 49.4604 55.704L49.7292 55.9032L50.6508 56.604C51.1716 57.0072 51.4812 57.2736 51.462 57.3024C51.4428 57.3312 51.0924 57.1176 50.5452 56.7504L49.5852 56.0952C49.4124 55.9824 49.194 55.7808 49.1052 55.8408C49.0164 55.9008 48.918 56.1504 48.8652 56.3808C48.7656 56.817 48.8008 57.2731 48.966 57.6888C49.0529 57.8559 49.182 57.9973 49.3404 58.0992C49.4724 58.1986 49.6278 58.2623 49.7916 58.284C50.1397 58.3183 50.4911 58.2723 50.8188 58.1496Z"
    fill="#263238" />
  <path
    d="M39.1716 41.5392C39.1596 41.5272 39.0516 41.8512 39.3012 42.3144C39.4539 42.5878 39.7042 42.7935 40.002 42.8904C40.1921 42.9506 40.3932 42.9679 40.5907 42.9409C40.7883 42.9139 40.9774 42.8434 41.1444 42.7344L40.986 42.6864C41.1341 43.0757 41.3448 43.438 41.61 43.7592C41.7847 43.9787 41.9998 44.1628 42.2436 44.3016C42.5609 44.4628 42.9202 44.5221 43.2724 44.4714C43.6246 44.4207 43.9526 44.2625 44.2116 44.0184C44.4026 43.7985 44.5485 43.5433 44.6412 43.2672C44.6877 43.1712 44.7138 43.0666 44.718 42.96C44.7012 42.96 44.6532 43.0536 44.562 43.2312C44.4446 43.4806 44.2873 43.7092 44.0964 43.908C43.65 44.4048 42.4164 44.508 41.7804 43.6152C41.5317 43.3111 41.3303 42.9713 41.1828 42.6072L41.1324 42.4848L41.0244 42.5592C40.8847 42.652 40.7268 42.714 40.5612 42.7409C40.3957 42.7678 40.2263 42.759 40.0644 42.7152C39.7999 42.6377 39.5723 42.4673 39.4236 42.2352C39.2947 42.022 39.2091 41.7855 39.1716 41.5392Z"
    fill="#455A64" />
  <path
    d="M47.7516 33.8544C47.7516 33.8664 47.8476 33.8952 48.0084 33.9936C48.2381 34.1359 48.4196 34.3442 48.5292 34.5912L48.5628 34.6704L48.6276 34.608C49.2068 34.0292 49.9236 33.6072 50.7108 33.3816C51.2187 33.2388 51.7509 33.2036 52.2732 33.2784C52.849 33.3697 53.3882 33.619 53.8308 33.9984C54.18 34.2907 54.4631 34.654 54.6612 35.064C54.8383 35.446 54.9207 35.865 54.9012 36.2856V36.408L55.0236 36.3936C55.5825 36.331 56.1439 36.4866 56.5908 36.828C56.941 37.0987 57.1978 37.4721 57.3252 37.896C57.428 38.2784 57.4509 38.678 57.3924 39.0696C57.4454 38.9752 57.4774 38.8704 57.486 38.7624C57.5371 38.463 57.5232 38.156 57.4452 37.8624C57.3285 37.402 57.0668 36.9914 56.6988 36.6912C56.2205 36.3068 55.6099 36.1266 54.9996 36.1896L55.1148 36.2976C55.1385 35.8409 55.0504 35.3853 54.858 34.9704C54.6486 34.5302 54.3465 34.1405 53.9724 33.828C53.4947 33.4237 52.9122 33.1632 52.2924 33.0768C51.7407 33.0001 51.1789 33.0443 50.646 33.2064C49.8328 33.4509 49.1007 33.9102 48.5268 34.536L48.6252 34.5528C48.4985 34.2904 48.2871 34.0782 48.0252 33.9504C47.9444 33.8942 47.8498 33.861 47.7516 33.8544Z"
    fill="#455A64" />
</svg>