<svg width="121" height="120" viewBox="0 0 121 120" fill="none" xmlns="http://www.w3.org/2000/svg">
  <path
    d="M110.537 21.3036L110.252 20.466C107.832 13.4292 102.813 8.65797 97.1446 8.30277C96.4144 8.25596 95.6827 8.28243 94.9554 8.38197C89.7142 9.10197 84.8343 13.6908 82.4431 20.142C81.0367 23.9316 80.3636 28.4364 78.0486 31.2684C75.0374 34.95 70.4711 34.3884 66.4804 33.6372C62.4897 32.886 57.9199 32.3388 54.9193 36.0372C53.0383 38.3556 52.2111 41.9268 52.0676 45.3828C51.6868 54.5388 55.7093 63.3828 61.3331 68.3028C66.9569 73.2228 73.9357 74.6388 80.5957 73.8228C89.9196 72.69 99.1533 67.1364 105.223 57.3396C111.294 47.5428 113.787 33.3348 110.537 21.3036Z"
    fill="#FFC1B9" />
  <path
    d="M35.4924 30.0326C36.2652 23.5166 32.9933 17.3855 28.1843 16.3383C23.3754 15.2911 18.8504 19.7244 18.0775 26.2404C17.3047 32.7563 20.5766 38.8875 25.3856 39.9347C30.1946 40.9819 34.7195 36.5485 35.4924 30.0326Z"
    fill="#FFC1B9" />
  <path d="M78.2398 48.318L78.4842 50.5692L98.6732 49.3092L96.3227 20.9268L97.3695 46.9044L78.2398 48.318Z"
    fill="#E0E0E0" />
  <path d="M96.2734 19.6934L76.1904 21.1767L77.2851 48.3883L97.368 46.905L96.2734 19.6934Z" fill="white" />
  <path
    d="M97.3695 46.9044C97.3695 46.9044 97.3695 46.8588 97.3695 46.7748C97.3695 46.6908 97.3607 46.5612 97.3536 46.398C97.3377 46.0644 97.3164 45.5748 97.2898 44.9364C97.2349 43.6572 97.157 41.7852 97.056 39.402C96.8594 34.6428 96.5795 27.846 96.243 19.6956L96.2855 19.746L76.1958 21.2388L76.2401 21.1716C76.6386 31.1364 77.0123 40.4748 77.3294 48.3852L77.2869 48.3324L91.8343 47.286L95.9206 46.998L96.9993 46.926L97.2774 46.9068H97.3731H97.281L97.0082 46.9284L95.9366 47.0148L91.8627 47.3292L77.2922 48.4332H77.2514V48.378C76.9308 40.47 76.5536 31.1316 76.1497 21.1668V21.1044H76.1975L96.2784 19.6284H96.3192V19.6812C96.6398 27.8412 96.9055 34.6572 97.0932 39.426C97.1853 41.8044 97.2562 43.674 97.3058 44.946C97.3288 45.5796 97.3465 46.0668 97.3589 46.386C97.3589 46.5468 97.3589 46.6716 97.3713 46.7556C97.3837 46.8396 97.3695 46.9044 97.3695 46.9044Z"
    fill="#263238" />
  <path
    d="M89.2146 29.826C89.1779 29.7849 89.1477 29.7341 89.1258 29.6768C89.1039 29.6195 89.0907 29.5568 89.0871 29.4924C89.0815 29.4289 89.0861 29.3646 89.1004 29.3037C89.1148 29.2429 89.1386 29.1869 89.1703 29.1396C89.2312 29.042 89.3175 28.9801 89.4112 28.9668L89.5689 28.9452C89.4874 26.926 89.4154 25.246 89.3528 23.9052H89.2377C89.1904 23.9099 89.1429 23.9009 89.0983 23.879C89.0538 23.8571 89.0131 23.8227 88.979 23.778C88.9098 23.6878 88.8692 23.5648 88.8657 23.4348C88.8618 23.3707 88.8681 23.3062 88.8843 23.2457C88.9005 23.1852 88.9262 23.1302 88.9596 23.0844C88.992 23.037 89.0311 22.999 89.0746 22.9726C89.1182 22.9462 89.1652 22.932 89.2129 22.9308L90.0985 22.8828C90.1449 22.8788 90.1915 22.8881 90.2351 22.91C90.2787 22.9319 90.3185 22.966 90.3518 23.01C90.3873 23.0527 90.4161 23.1047 90.4365 23.1628C90.4569 23.221 90.4684 23.2841 90.4705 23.3484C90.4735 23.4124 90.4667 23.4766 90.4505 23.5369C90.4344 23.5972 90.4092 23.6523 90.3766 23.6988C90.3445 23.747 90.3055 23.786 90.2619 23.8132C90.2184 23.8404 90.1712 23.8554 90.1233 23.8572H90.0666C90.1292 25.1868 90.2012 26.8548 90.2827 28.8612L90.4262 28.8492C90.4734 28.845 90.5208 28.8536 90.5655 28.8747C90.6102 28.8957 90.6514 28.9286 90.6865 28.9716C90.7221 29.0143 90.7509 29.0663 90.7713 29.1244C90.7917 29.1826 90.8032 29.2457 90.8052 29.31C90.8086 29.3742 90.8024 29.4387 90.787 29.4996C90.7716 29.5605 90.7473 29.6166 90.7155 29.6645C90.6838 29.7124 90.6453 29.7512 90.6023 29.7785C90.5593 29.8058 90.5126 29.8212 90.4651 29.8236C90.0949 29.85 89.7655 29.8812 89.4732 29.9172C89.4278 29.9263 89.3815 29.9229 89.3371 29.9072C89.2926 29.8916 89.251 29.8639 89.2146 29.826Z"
    fill="#263238" />
  <path
    d="M94.0254 23.1276C94.0284 23.203 94.0204 23.2784 94.002 23.3495C93.9835 23.4207 93.9548 23.4862 93.9177 23.5424C93.8805 23.5985 93.8355 23.6442 93.7853 23.6768C93.7351 23.7094 93.6807 23.7283 93.6251 23.7324C93.5695 23.7365 93.5138 23.7257 93.4613 23.7007C93.4088 23.6757 93.3604 23.6369 93.319 23.5865C93.2775 23.5361 93.2438 23.4752 93.2197 23.4072C93.1957 23.3391 93.1817 23.2654 93.1787 23.19C93.1743 23.1145 93.1813 23.0385 93.1993 22.9667C93.2173 22.8949 93.2458 22.8288 93.2832 22.7724C93.3213 22.7153 93.3674 22.669 93.4188 22.636C93.4701 22.6031 93.5258 22.5842 93.5826 22.5804C93.6382 22.5722 93.6945 22.5811 93.7472 22.6064C93.8 22.6318 93.8478 22.6729 93.8872 22.7268C93.9294 22.7771 93.9634 22.8387 93.9872 22.9077C94.011 22.9766 94.024 23.0515 94.0254 23.1276ZM93.3895 26.9244C93.3611 25.9164 93.3399 25.2588 93.3275 24.9468C93.3223 24.8176 93.3552 24.6909 93.419 24.5946C93.4828 24.4983 93.5722 24.4402 93.6676 24.4332C93.7629 24.4262 93.8564 24.4708 93.9275 24.5573C93.9986 24.6437 94.0415 24.7648 94.0466 24.894C94.059 25.206 94.0803 25.854 94.1068 26.862C94.1334 27.87 94.1653 28.6044 94.1936 29.0916C94.2006 29.2217 94.1694 29.3502 94.1068 29.4492C94.0774 29.4992 94.0403 29.5398 93.998 29.5684C93.9558 29.597 93.9096 29.6128 93.8624 29.6148C93.7659 29.6244 93.6704 29.5822 93.5967 29.4972C93.5604 29.4563 93.5309 29.4054 93.5101 29.3479C93.4894 29.2904 93.4778 29.2276 93.4763 29.1636C93.4456 28.6788 93.4166 27.9324 93.3895 26.9244Z"
    fill="#263238" />
  <path
    d="M81.0596 36.6059C82.6538 38.1755 87.3848 42.6971 89.6343 44.8427C89.719 44.9233 89.8202 44.9657 89.9236 44.9639C90.027 44.9622 90.1273 44.9164 90.2105 44.833C90.2936 44.7496 90.3552 44.6328 90.3866 44.4993C90.418 44.3658 90.4175 44.2223 90.3854 44.0891L87.1209 30.6155C87.097 30.5152 87.0559 30.424 87.0009 30.3494C86.9459 30.2748 86.8785 30.2191 86.8045 30.1867C86.7304 30.1544 86.6518 30.1464 86.575 30.1633C86.4982 30.1803 86.4254 30.2218 86.3628 30.2843L81.0596 35.5283C80.997 35.5903 80.9461 35.6713 80.911 35.765C80.8759 35.8586 80.8576 35.9621 80.8576 36.0671C80.8576 36.1721 80.8759 36.2757 80.911 36.3693C80.9461 36.4629 80.997 36.544 81.0596 36.6059Z"
    fill="#AE7461" />
  <path
    d="M89.0782 44.394C89.0552 44.394 88.3998 41.3964 87.6134 37.674C86.8269 33.9516 86.2087 30.9396 86.2318 30.93C86.2548 30.9204 86.9102 33.9252 87.6948 37.65C88.4795 41.3748 89.1048 44.3844 89.0782 44.394Z"
    fill="#6F4439" />
  <path
    d="M87.4735 42.6588C87.4504 42.6588 86.8075 39.714 86.0352 36.066C85.2629 32.418 84.6571 29.4516 84.6784 29.442C84.6997 29.4324 85.3444 32.3844 86.1167 36.0348C86.8889 39.6852 87.4965 42.6492 87.4735 42.6588Z"
    fill="#6F4439" />
  <path
    d="M85.9165 41.3459C85.8952 41.3459 85.2505 38.4035 84.48 34.7555C83.7095 31.1075 83.1001 28.1459 83.1232 28.1459C83.1462 28.1459 83.7892 31.0883 84.5597 34.7387C85.3302 38.3891 85.9395 41.3459 85.9165 41.3459Z"
    fill="#6F4439" />
  <path
    d="M84.3914 39.906C84.3684 39.906 83.9026 37.8036 83.3499 35.1924C82.7973 32.5812 82.374 30.45 82.3917 30.4404C82.4094 30.4308 82.8788 32.5428 83.4314 35.154C83.9841 37.7652 84.4127 39.8892 84.3914 39.906Z"
    fill="#6F4439" />
  <path
    d="M82.8345 38.418C82.8132 38.418 82.4023 36.582 81.9205 34.2996C81.4387 32.0172 81.0632 30.1572 81.0862 30.1476C81.1093 30.138 81.5184 31.9836 82.002 34.2684C82.4855 36.5532 82.8575 38.4084 82.8345 38.418Z"
    fill="#6F4439" />
  <path
    d="M90.1091 43.1484C90.0967 43.1748 88.1483 41.442 85.7589 39.2796C83.3694 37.1172 81.4405 35.3436 81.4547 35.3172C81.4688 35.2908 83.4155 37.026 85.8049 39.186C88.1943 41.346 90.1233 43.122 90.1091 43.1484Z"
    fill="#6F4439" />
  <path
    d="M89.5317 40.6259C89.5193 40.6523 87.601 38.9459 85.2469 36.8171C82.8929 34.6883 80.9959 32.9411 81.0083 32.9147C81.0207 32.8883 82.939 34.5947 85.2948 36.7235C87.6506 38.8523 89.5458 40.5947 89.5317 40.6259Z"
    fill="#6F4439" />
  <path
    d="M88.8904 38.13C88.878 38.1564 87.5159 36.9564 85.8491 35.4468C84.1824 33.9372 82.838 32.694 82.8539 32.6676C82.8699 32.6412 84.2284 33.8436 85.8952 35.3532C87.562 36.8628 88.9046 38.1036 88.8904 38.13Z"
    fill="#6F4439" />
  <path
    d="M88.3254 35.6724C88.3112 35.6988 87.1192 34.65 85.6685 33.33C84.2178 32.01 83.0382 30.93 83.0523 30.894C83.0665 30.858 84.2568 31.9164 85.7092 33.2364C87.1617 34.5564 88.3378 35.646 88.3254 35.6724Z"
    fill="#6F4439" />
  <path
    d="M87.6878 32.8596C87.6754 32.886 86.5241 31.8732 85.1159 30.5988C83.7078 29.3244 82.5759 28.2708 82.5901 28.2444C82.6043 28.218 83.7538 29.2308 85.162 30.5052C86.5701 31.7796 87.6967 32.8332 87.6878 32.8596Z"
    fill="#6F4439" />
  <path
    d="M79.4921 33.0036C79.2966 32.0317 79.3219 31.0026 79.5645 30.0504C79.8072 29.0983 80.256 28.2674 80.8524 27.666C82.5263 25.974 84.9476 26.5452 86.1786 28.83L86.4992 29.4276L86.5842 29.3436C87.1617 29.3436 87.5761 30.1788 87.5992 30.9612C87.6077 31.0639 87.5948 31.1678 87.562 31.2612C87.5221 31.3405 87.4686 31.4055 87.4061 31.4508L86.2424 32.4852C86.3429 32.6162 86.4059 32.7914 86.4202 32.9794C86.4345 33.1675 86.3991 33.3563 86.3203 33.5124C86.1432 33.8028 85.7163 33.726 85.6579 33.3564C85.835 33.7764 86.1148 34.1028 86.1538 34.614C86.1656 34.7252 86.1553 34.8386 86.1242 34.9427C86.0931 35.0469 86.0422 35.138 85.9767 35.2068C85.7446 35.43 85.4666 35.2332 85.2434 35.0412L84.6961 34.5612C84.6468 34.5122 84.5898 34.4794 84.5296 34.4652C84.4401 34.4704 84.3549 34.518 84.2887 34.5996L81.6814 37.1412C81.7125 37.2351 81.718 37.3409 81.6969 37.4398C81.6758 37.5387 81.6295 37.6243 81.5662 37.6812C81.436 37.7898 81.2799 37.8259 81.1305 37.782C80.939 37.7394 80.7599 37.6255 80.6135 37.4528C80.4671 37.2802 80.359 37.0557 80.3015 36.8045C80.2439 36.5534 80.2391 36.2855 80.2876 36.0308C80.3361 35.7762 80.436 35.5448 80.5761 35.3628L80.344 35.0172C79.9464 34.4468 79.6544 33.7567 79.4921 33.0036Z"
    fill="#E14242" />
  <path
    d="M81.2492 28.1028C81.0317 28.3318 80.828 28.5838 80.6399 28.8564C80.194 29.5289 79.919 30.3772 79.8553 31.277C79.7915 32.1768 79.9423 33.0806 80.2856 33.8556C80.431 34.1722 80.5957 34.4716 80.778 34.7508C80.7161 34.6931 80.6596 34.6254 80.6098 34.5492C80.4674 34.3508 80.3415 34.1319 80.2342 33.8964C79.8682 33.1145 79.7044 32.1898 79.7685 31.2679C79.8326 30.3461 80.1211 29.4792 80.5885 28.8036C80.7267 28.5995 80.8811 28.4168 81.049 28.2588C81.111 28.1964 81.1782 28.1441 81.2492 28.1028Z"
    fill="white" />
  <path
    d="M81.1872 37.3475C81.1872 37.3475 81.1111 37.3163 81.0101 37.2251C80.8687 37.1103 80.7477 36.9546 80.6558 36.7691C80.6095 36.6731 80.5783 36.5651 80.5642 36.4519C80.5502 36.3387 80.5537 36.2228 80.5744 36.1115C80.6116 35.9411 80.6824 35.8715 80.6877 35.8715C80.693 35.8715 80.6505 35.9651 80.6328 36.1115C80.6133 36.3133 80.6465 36.5179 80.7267 36.6899C80.8149 36.8612 80.9218 37.0134 81.0437 37.1411C81.1341 37.2659 81.1943 37.3331 81.1872 37.3475Z"
    fill="white" />
  <path
    d="M85.9572 34.8348C85.9572 34.8348 85.9572 34.8684 85.943 34.914C85.9107 34.9747 85.8626 35.0167 85.8084 35.0316C85.7301 35.0487 85.6498 35.0362 85.5764 34.9956C85.4904 34.9547 85.4069 34.905 85.3266 34.8468C85.1139 34.7175 84.9305 34.5137 84.7953 34.2564C84.8112 34.2324 85.0397 34.5156 85.3727 34.7364C85.5031 34.8493 85.651 34.9199 85.8049 34.9428C85.8629 34.93 85.9164 34.8921 85.9572 34.8348Z"
    fill="white" />
  <path
    d="M86.0316 21.9828C86.7008 21.9828 87.2432 21.2478 87.2432 20.3412C87.2432 19.4346 86.7008 18.6996 86.0316 18.6996C85.3625 18.6996 84.8201 19.4346 84.8201 20.3412C84.8201 21.2478 85.3625 21.9828 86.0316 21.9828Z"
    fill="#E14242" />
  <path
    d="M86.818 20.3004C86.818 20.3004 86.818 20.2092 86.7773 20.0604C86.7304 19.8475 86.6334 19.6612 86.501 19.53C86.3955 19.4247 86.2704 19.361 86.1398 19.3462C86.0092 19.3314 85.8781 19.3659 85.7611 19.446C85.6441 19.5261 85.5458 19.6486 85.4772 19.7998C85.4085 19.9511 85.3721 20.1252 85.3721 20.3028C85.3721 20.4804 85.4085 20.6546 85.4772 20.8058C85.5458 20.9571 85.6441 21.0796 85.7611 21.1597C85.8781 21.2398 86.0092 21.2743 86.1398 21.2595C86.2704 21.2446 86.3955 21.181 86.501 21.0756C86.6337 20.945 86.7309 20.7585 86.7773 20.5452C86.8092 20.394 86.8092 20.3052 86.818 20.3052C86.8323 20.3889 86.8323 20.4759 86.818 20.5596C86.7833 20.7937 86.6878 21.0032 86.5488 21.15C86.4448 21.2603 86.3219 21.3332 86.1916 21.3621C86.0613 21.3911 85.9277 21.3751 85.8031 21.3156C85.6493 21.2413 85.5162 21.1042 85.4221 20.9233C85.328 20.7424 85.2774 20.5265 85.2774 20.3052C85.2774 20.0839 85.328 19.868 85.4221 19.6871C85.5162 19.5062 85.6493 19.3692 85.8031 19.2948C85.9278 19.2353 86.0615 19.2194 86.1919 19.2488C86.3223 19.2782 86.4451 19.3518 86.5488 19.4628C86.6873 19.6092 86.7827 19.8177 86.818 20.0508C86.8318 20.133 86.8318 20.2183 86.818 20.3004Z"
    fill="#263238" />
  <path
    d="M86.9916 33.9995C86.9028 34.0484 86.83 34.1393 86.787 34.2555C86.744 34.3716 86.7336 34.505 86.7578 34.6307C86.7872 34.7622 86.8519 34.8739 86.9392 34.9437C87.0264 35.0135 87.1299 35.0363 87.229 35.0075C87.3257 34.9616 87.4055 34.8667 87.4517 34.7428C87.498 34.6188 87.507 34.4755 87.477 34.3427C87.4407 34.2154 87.3714 34.1103 87.2821 34.0471C87.1928 33.984 87.0895 33.967 86.9916 33.9995Z"
    fill="#E14242" />
  <path
    d="M64.9039 97.4675C64.9358 97.4675 65.391 100.587 65.391 100.587L86.0547 94.8443L81.5344 66.5243L84.8378 92.8931L64.9039 97.4675Z"
    fill="#E0E0E0" />
  <path d="M81.3357 64.9453L60.7135 69.6864L64.2126 97.6286L84.8348 92.8875L81.3357 64.9453Z" fill="white" />
  <path
    d="M84.8379 92.8835C84.8379 92.8835 84.8379 92.8379 84.8184 92.7515C84.7989 92.6651 84.79 92.5331 84.7688 92.3651C84.7245 92.0243 84.6607 91.5203 84.5757 90.8651C84.4092 89.5523 84.1648 87.6299 83.853 85.1843C83.2366 80.2979 82.3563 73.3211 81.2989 64.9499L81.3449 64.9931L60.7256 69.7451L60.7628 69.6731L64.2539 97.6163L64.2079 97.5731L79.1503 94.1651L83.3464 93.2051L84.4535 92.9651L84.7404 92.9027L84.8379 92.8835L84.744 92.9075L84.4641 92.9747L83.3642 93.2339L79.1857 94.2107L64.2256 97.6787H64.1866V97.6259C63.1681 89.5043 61.9654 79.9163 60.6813 69.6827L60.6724 69.6227L60.7185 69.6107L81.3396 64.8779H81.3803V64.9331C82.4236 73.3187 83.2915 80.3123 83.9009 85.2107C84.202 87.6515 84.4322 89.5715 84.6005 90.8843C84.6802 91.5347 84.7404 92.0363 84.7776 92.3747C84.7971 92.5427 84.8113 92.6675 84.8219 92.7563C84.8325 92.8451 84.8379 92.8835 84.8379 92.8835Z"
    fill="#263238" />
  <path
    d="M74.2156 74.6651C74.1773 74.6733 74.1382 74.6707 74.1007 74.6575C74.0632 74.6443 74.0282 74.6207 73.9977 74.5883C73.9659 74.5573 73.939 74.518 73.9186 74.4727C73.8982 74.4273 73.8847 74.3769 73.879 74.3243C73.848 74.2671 73.8279 74.2003 73.8206 74.1299C73.7851 73.7651 73.7285 73.2371 73.6434 72.5507C73.5584 71.8643 73.5124 71.3987 73.4876 71.1515C73.4769 71.0603 73.4575 70.9115 73.4273 70.6715C73.3972 70.4315 73.3724 70.2323 73.353 70.0355C73.3352 69.8509 73.3257 69.6649 73.3246 69.4787C73.3246 69.4019 73.3412 69.3268 73.3724 69.2627C73.4045 69.1972 73.4492 69.1448 73.5017 69.1115C73.5462 69.036 73.6089 68.9841 73.6789 68.9651C73.9711 68.8931 74.3874 68.7971 74.9312 68.6747L76.0435 68.4347C76.0827 68.4259 76.1227 68.4277 76.1613 68.4401C76.1999 68.4525 76.2363 68.4753 76.2683 68.507C76.3003 68.5388 76.3273 68.5789 76.3477 68.625C76.3681 68.6711 76.3815 68.7223 76.3871 68.7755C76.3937 68.8282 76.3924 68.8821 76.3832 68.934C76.3741 68.986 76.3574 69.0349 76.334 69.0779C76.3112 69.1217 76.282 69.1586 76.2482 69.1863C76.2143 69.214 76.1766 69.2318 76.1374 69.2387L75.0746 69.4787L73.9286 69.7403C73.9372 69.9478 73.958 70.1541 73.9906 70.3571C74.0349 70.6907 74.065 70.9235 74.0792 71.0507L74.1181 71.3795C74.3094 71.3243 74.5167 71.2715 74.7363 71.2235C74.956 71.1755 75.2039 71.1275 75.4838 71.0747L76.1055 70.9499C76.1445 70.9414 76.1843 70.9434 76.2227 70.9558C76.2611 70.9682 76.2974 70.9908 76.3293 71.0222C76.3612 71.0537 76.3883 71.0934 76.4088 71.139C76.4294 71.1847 76.4431 71.2354 76.4491 71.2883C76.4557 71.3413 76.4543 71.3956 76.4451 71.4479C76.436 71.5002 76.4192 71.5495 76.3957 71.5929C76.3723 71.6363 76.3427 71.6729 76.3087 71.7005C76.2747 71.7282 76.2369 71.7463 76.1976 71.7539C76.0595 71.7827 75.8434 71.8259 75.5706 71.8787L74.8249 72.0299C74.607 72.0755 74.4015 72.1283 74.2049 72.1859C74.2935 72.9467 74.3537 73.4915 74.3821 73.8203C75.3492 73.6363 76.0955 73.4827 76.6209 73.3595C76.7001 73.3413 76.7814 73.3654 76.8477 73.4267C76.8805 73.4565 76.9083 73.4955 76.929 73.541C76.9498 73.5865 76.9631 73.6376 76.9681 73.6907C76.9753 73.7438 76.9746 73.7983 76.966 73.851C76.9575 73.9038 76.9414 73.9537 76.9185 73.9979C76.8969 74.0423 76.8685 74.0799 76.8351 74.1081C76.8018 74.1363 76.7644 74.1543 76.7255 74.1611C76.2035 74.2795 75.3669 74.4475 74.2156 74.6651Z"
    fill="#263238" />
  <path
    d="M78.3356 73.6404C78.1286 73.5709 77.9376 73.4333 77.7794 73.2396C77.6593 73.0881 77.5534 72.9172 77.4641 72.7308C77.3963 72.5814 77.3444 72.4198 77.31 72.2508C77.2744 72.0348 77.2548 71.8145 77.2516 71.5932C77.255 71.3521 77.2885 71.1135 77.3508 70.8876C77.4168 70.6441 77.514 70.4183 77.6377 70.2204C77.7815 69.9956 77.9579 69.8136 78.156 69.6855C78.3542 69.5575 78.5697 69.4863 78.789 69.4764C78.9989 69.4616 79.2087 69.5057 79.4054 69.606C79.5822 69.7008 79.7435 69.8419 79.8801 70.0212C79.9669 70.1212 80.0427 70.2376 80.1051 70.3668C80.137 70.4484 80.1671 70.5252 80.1936 70.6068C80.2202 70.6884 80.2415 70.7388 80.2592 70.7892C80.2769 70.8396 80.2946 70.8924 80.3105 70.9476C80.33 71.0094 80.3448 71.0737 80.3548 71.1396C80.3706 71.2358 80.3676 71.3359 80.346 71.43C80.3264 71.5251 80.2848 71.6093 80.2273 71.67C80.1777 71.7093 80.123 71.7354 80.0661 71.7468L79.0529 71.9868C78.3444 72.1468 77.9902 72.2332 77.9902 72.246H77.9725C78.0483 72.4974 78.1903 72.7018 78.371 72.8196C78.5942 72.9486 78.839 72.9934 79.0795 72.9492C79.2102 72.9348 79.3388 72.8969 79.4621 72.8364C79.5442 72.789 79.623 72.732 79.6977 72.666C79.7437 72.6204 79.8022 72.5604 79.8748 72.486C79.9088 72.4593 79.9465 72.4425 79.9855 72.4367C80.0246 72.4309 80.0641 72.4362 80.1015 72.4524C80.139 72.4668 80.174 72.4912 80.2044 72.5241C80.2348 72.5571 80.2601 72.598 80.2787 72.6444C80.2978 72.6894 80.3099 72.7392 80.3142 72.7909C80.3185 72.8425 80.3148 72.8947 80.3035 72.9444C80.2817 73.0478 80.2357 73.1388 80.1724 73.2036C80.117 73.2656 80.0577 73.321 79.9953 73.3692C79.9038 73.4381 79.8098 73.5006 79.7136 73.5564C79.5286 73.6533 79.3351 73.717 79.138 73.746C78.868 73.7767 78.5961 73.741 78.3356 73.6404ZM79.6729 71.0004C79.6165 70.843 79.5404 70.7001 79.4479 70.578C79.2715 70.3709 79.0435 70.2628 78.8103 70.2756C78.6946 70.2758 78.5801 70.307 78.4733 70.3676C78.3666 70.4282 78.2698 70.5168 78.1886 70.6284C78.027 70.843 77.9224 71.124 77.891 71.4276C78.1201 71.3636 78.714 71.2212 79.6729 71.0004Z"
    fill="#263238" />
  <path
    d="M77.5757 88.0139C77.5757 88.0139 78.0468 91.1627 78.1425 91.4555C78.1425 91.4555 77.7014 92.2667 77.7475 92.4923C77.7936 92.7179 78.1513 93.0923 78.1513 93.0923L79.0547 92.8835L80.0006 92.0531L80.0271 89.9987L79.4816 88.0787L78.7731 87.3275L77.5757 88.0139Z"
    fill="#E0E0E0" />
  <g opacity="0.3">
    <path
      d="M77.5757 88.0139C77.5757 88.0139 78.0468 91.1627 78.1425 91.4555C78.1425 91.4555 77.7014 92.2667 77.7475 92.4923C77.7936 92.7179 78.1513 93.0923 78.1513 93.0923L79.0547 92.8835L80.0006 92.0531L80.0271 89.9987L79.4816 88.0787L78.7731 87.3275L77.5757 88.0139Z"
      fill="black" />
  </g>
  <path
    d="M63.4214 84.1404C63.4214 84.2436 63.3009 85.5276 63.6658 86.0988C64.0307 86.67 64.8349 87.5628 65.1484 87.726C65.4619 87.8892 66.4892 87.7932 67.1145 86.9916C67.1145 86.9916 67.2916 85.6716 67.0525 85.3956C66.8134 85.1196 66.22 84.4116 66.2076 84.7188C66.2072 84.9509 66.236 85.1813 66.2926 85.4004C66.2926 85.4004 65.9153 85.4268 65.9614 85.6404C66.0506 85.8646 66.1709 86.0634 66.3156 86.226C66.1275 86.2885 65.9363 86.3326 65.7435 86.358C65.6054 86.358 65.035 85.9908 65.0208 85.41C65.0067 84.8292 65.6833 83.3844 66.0836 82.8228C66.4839 82.2612 67.8212 80.8308 67.8212 80.8308L69.6067 79.6308L68.4305 76.0308C68.4305 76.0308 66.367 76.95 65.1555 78.8676C63.9439 80.7852 63.4373 83.13 63.4214 84.1404Z"
    fill="#E0E0E0" />
  <path
    d="M72.5682 87.6779C72.5682 87.6779 73.53 88.2203 73.9516 88.4315C74.3732 88.6427 75.9974 89.0483 76.4898 88.8371C76.9822 88.6259 78.5906 87.9059 78.5906 87.9059L79.1751 81.4259L80.0235 79.9859C80.0235 79.9859 78.8456 78.5027 78.13 78.3491C77.4144 78.1955 75.3367 78.9203 75.3367 78.9203C75.3367 78.9203 72.7471 80.2499 72.694 80.3891C72.6409 80.5283 72.1821 86.0675 72.1821 86.0675L72.5682 87.6779Z"
    fill="#E0E0E0" />
  <path
    d="M69.8387 84.2699C69.8387 84.2699 69.9255 86.1899 69.7714 86.5259C69.6173 86.8619 69.0966 89.1659 69.2011 89.7035C69.3056 90.2411 69.6457 90.7835 70.2319 91.7507C70.5044 92.2305 70.8131 92.6705 71.153 93.0635L72.2034 90.9299L71.672 88.5299L71.9554 85.6811L69.8387 84.2699Z"
    fill="#E0E0E0" />
  <path
    d="M68.4288 76.0356C68.4288 76.0356 69.1656 75.2532 69.4703 75.2556C70.1133 75.2556 71.5179 76.3404 71.5179 76.3404L75.6573 78.8748L72.5222 84.618L70.3382 86.058L69.1798 83.106L67.1765 81.0444L68.4288 76.0356Z"
    fill="#E0E0E0" />
  <path
    d="M70.2195 85.2995C70.1877 85.3547 70.3807 90.6155 70.3807 90.6155L70.4604 93.7211C70.4604 93.7211 70.0778 94.3859 70.1062 94.5899C70.1311 94.7267 70.1947 94.8448 70.2833 94.9187C70.2833 94.9187 71.1495 94.6787 71.5232 94.6139C71.8969 94.5491 72.5488 94.3955 72.5364 94.3019C72.5345 94.198 72.5589 94.0964 72.6054 94.0139L72.3132 93.6659C72.3604 92.9062 72.4746 92.1569 72.6533 91.4339C72.9225 90.4739 72.9402 88.6115 72.9402 88.6115L73.3547 86.0387C73.3547 86.0387 73.259 84.0467 73.2466 84.1019C73.2342 84.1571 72.2335 84.2003 72.2335 84.2003L70.2195 85.2995Z"
    fill="#E0E0E0" />
  <path
    d="M71.1406 94.7315C71.1335 94.606 71.1456 94.4799 71.1761 94.361C71.2066 94.242 71.2548 94.1329 71.3177 94.0403C71.3411 94.0013 71.3705 93.9696 71.4038 93.9477C71.4372 93.9257 71.4737 93.9139 71.5108 93.9131C71.5467 93.9228 71.5808 93.942 71.6112 93.9696C71.6416 93.9972 71.6677 94.0327 71.6879 94.074C71.7747 94.2133 71.8458 94.3695 71.8987 94.5371"
    fill="#EBEBEB" />
  <path
    d="M70.3064 94.8948C70.3064 94.8948 70.4215 94.2228 70.5437 94.158C70.6659 94.0932 71.0574 94.7148 71.0574 94.7148L70.3064 94.8948Z"
    fill="#EBEBEB" />
  <g opacity="0.3">
    <path
      d="M71.6933 84.2267C71.7499 84.3083 71.8704 84.7379 72.1308 84.4667C72.3911 84.1955 72.563 82.9907 72.6444 82.8323C72.7259 82.6739 73.1758 82.5371 73.2998 82.3163C73.4681 82.0833 73.6761 81.9102 73.9056 81.8123C74.1093 81.7115 74.5344 81.7067 74.754 81.0923C74.9737 80.4779 74.8638 78.3947 74.8638 78.3947L74.2935 78.1547L74.1305 80.6291C74.1305 80.6291 72.8304 81.3491 72.7897 81.4427C72.5556 81.803 72.3072 82.1459 72.0457 82.4699C72.0192 82.4699 71.7057 84.3395 71.7057 84.3395"
      fill="black" />
  </g>
  <path
    d="M70.8731 76.4867C70.8731 76.4867 72.2282 76.1075 72.7064 76.1699C73.1846 76.2323 74.3608 76.9619 74.4653 77.2835C74.5698 77.6051 74.6105 80.6867 74.4316 80.8835C74.2315 81.0585 74.0245 81.2187 73.8117 81.3635C73.4928 81.6323 73.422 81.7163 73.2661 81.6155C73.1103 81.5147 73.2024 81.7499 72.9278 82.0043C72.6533 82.2587 72.3858 82.2443 72.3079 82.4411C72.2299 82.6379 71.8314 84.0371 71.6932 84.2243C71.6377 84.2906 71.5712 84.3379 71.4994 84.362C71.4275 84.3861 71.3524 84.3864 71.2805 84.3629C71.2085 84.3393 71.1418 84.2926 71.086 84.2267C71.0302 84.1608 70.987 84.0777 70.9599 83.9843C70.7527 83.4443 70.1434 79.7003 70.1363 79.7531"
    fill="#E0E0E0" />
  <path
    d="M70.1363 79.7651C70.1551 79.8269 70.1688 79.8913 70.177 79.9571C70.2001 80.0867 70.2337 80.2739 70.278 80.5163C70.3648 80.9963 70.487 81.7163 70.6517 82.5707C70.6942 82.7867 70.7385 83.0123 70.7881 83.2475C70.8356 83.4925 70.8947 83.733 70.9652 83.9675C71.0056 84.0854 71.0664 84.1883 71.1424 84.2675C71.2241 84.3442 71.3233 84.3791 71.4222 84.3659C71.4734 84.3571 71.523 84.3368 71.5692 84.3059C71.6169 84.2806 71.6594 84.2403 71.6932 84.1883C71.7526 84.0691 71.8042 83.943 71.8473 83.8115C71.9394 83.5451 72.0245 83.2643 72.1148 82.9811C72.1591 82.8371 72.2034 82.6931 72.2494 82.5491L72.2866 82.4387C72.3013 82.4005 72.3226 82.3675 72.3486 82.3427C72.3988 82.2963 72.4537 82.2599 72.5116 82.2347C72.6246 82.1862 72.7342 82.1244 72.8393 82.0499C72.9456 81.976 73.0354 81.865 73.0996 81.7283C73.1138 81.6923 73.1262 81.6563 73.1439 81.6179C73.154 81.5953 73.1697 81.5782 73.1882 81.5699C73.1982 81.5688 73.2083 81.5688 73.2183 81.5699H73.2431C73.2707 81.5874 73.2991 81.6026 73.3281 81.6155C73.356 81.6249 73.3852 81.6249 73.4131 81.6155C73.4713 81.5938 73.5268 81.5607 73.5779 81.5171L73.7373 81.3827C73.8453 81.2915 73.9534 81.2051 74.065 81.1283C74.1764 81.0616 74.2831 80.9813 74.3838 80.8883L74.4192 80.8523C74.4224 80.8449 74.4266 80.8384 74.4316 80.8331C74.4349 80.8245 74.4379 80.8157 74.4405 80.8067C74.4522 80.7705 74.4611 80.7327 74.467 80.6939C74.4794 80.6147 74.4883 80.5331 74.4954 80.4539C74.5096 80.2907 74.5166 80.1299 74.5237 79.9739C74.545 79.3331 74.5397 78.7115 74.5237 78.1235C74.5237 77.9747 74.5131 77.8307 74.5025 77.6867C74.4993 77.616 74.4934 77.5455 74.4848 77.4755C74.481 77.4067 74.4703 77.3388 74.4529 77.2739C74.426 77.2173 74.3918 77.1677 74.3519 77.1275C74.3137 77.0849 74.2734 77.0456 74.2315 77.0099C74.1482 76.9355 74.0632 76.8683 73.9782 76.8059C73.661 76.578 73.3282 76.3923 72.9845 76.2515C72.9077 76.222 72.8296 76.1987 72.7507 76.1819C72.6749 76.1701 72.5985 76.1652 72.5222 76.1675C72.3752 76.1675 72.2352 76.1915 72.1059 76.2131C71.8456 76.2539 71.6224 76.3019 71.4417 76.3427C71.261 76.3835 71.1176 76.4195 71.0219 76.4435L70.9139 76.4699H70.8767L70.9139 76.4579L71.0219 76.4267C71.1158 76.4003 71.2575 76.3619 71.4382 76.3187C71.6188 76.2755 71.8438 76.2251 72.1042 76.1819C72.2335 76.1603 72.3734 76.1411 72.5222 76.1339C72.5991 76.1296 72.6761 76.1336 72.7525 76.1459C72.8327 76.1611 72.9121 76.1843 72.9898 76.2155C73.3362 76.3538 73.6714 76.5387 73.9906 76.7675C74.0781 76.8296 74.1632 76.8977 74.2456 76.9715C74.2888 77.008 74.3302 77.048 74.3696 77.0915C74.4127 77.1347 74.4493 77.1884 74.4777 77.2499C74.496 77.318 74.5079 77.389 74.5131 77.4611C74.5131 77.5331 74.5273 77.6051 74.5308 77.6747C74.5414 77.8187 74.5485 77.9651 74.5538 78.1139C74.5751 78.7043 74.5804 79.3259 74.5538 79.9691C74.5538 80.1299 74.5414 80.2931 74.5273 80.4491C74.5206 80.5298 74.5105 80.61 74.4972 80.6891C74.491 80.7312 74.4815 80.7722 74.4688 80.8115L74.4582 80.8403L74.4405 80.8691L74.4033 80.9459C74.3003 81.0379 74.1919 81.1182 74.0791 81.1859C73.9676 81.2627 73.8613 81.3467 73.755 81.4379C73.7019 81.4835 73.6487 81.5291 73.5938 81.5723C73.5399 81.6211 73.4799 81.6561 73.4167 81.6755C73.3521 81.6859 73.2868 81.6674 73.2307 81.6227C73.2255 81.6185 73.2197 81.6158 73.2138 81.6148C73.2078 81.6137 73.2017 81.6143 73.1959 81.6166C73.1901 81.6188 73.1847 81.6227 73.18 81.6279C73.1753 81.633 73.1715 81.6395 73.1687 81.6467C73.1545 81.6779 73.1404 81.7187 73.1244 81.7547C73.0576 81.8981 72.9633 82.0142 72.8516 82.0907C72.7459 82.1679 72.635 82.2314 72.5204 82.2803C72.4653 82.3041 72.4129 82.3381 72.3645 82.3811C72.3227 82.4321 72.2921 82.4977 72.276 82.5707C72.2299 82.7147 72.1857 82.8587 72.1414 83.0003C72.051 83.2859 71.9642 83.5643 71.8704 83.8331C71.8273 83.9686 71.7745 84.098 71.7127 84.2195C71.6756 84.2742 71.6303 84.3176 71.5799 84.3467C71.5305 84.3761 71.4778 84.3939 71.424 84.3995C71.3189 84.4146 71.2133 84.3779 71.1264 84.2963C71.0454 84.2138 70.9804 84.1059 70.9369 83.9819C70.8674 83.7469 70.8082 83.5065 70.7598 83.2619C70.712 83.0219 70.6677 82.7987 70.6269 82.5827C70.464 81.7163 70.3453 81.0107 70.2621 80.5235C70.2213 80.2835 70.1894 80.0939 70.1682 79.9643L70.1434 79.8179C70.1398 79.7795 70.1381 79.7627 70.1363 79.7651Z"
    fill="#263238" />
  <path
    d="M73.9055 79.5636C73.9035 79.5429 73.9035 79.5219 73.9055 79.5012C73.9055 79.4556 73.9055 79.3956 73.9055 79.3212C73.906 79.1022 73.8966 78.8834 73.8772 78.666C73.8509 78.3443 73.767 78.0361 73.6328 77.7684C73.5528 77.6132 73.4481 77.4844 73.3263 77.3916C73.1918 77.2998 73.0446 77.2467 72.8942 77.2356C72.7434 77.2246 72.5923 77.2318 72.4425 77.2572C72.3016 77.2763 72.1614 77.3052 72.0227 77.3436C71.7885 77.4083 71.5587 77.499 71.3354 77.6148C71.1838 77.6896 71.0363 77.7794 70.8944 77.8836C70.8563 77.912 70.8201 77.9449 70.7863 77.982C70.7615 78.006 70.7509 78.0228 70.7491 78.0204V78.0084L70.7739 77.9748C70.8075 77.9362 70.843 77.9009 70.8802 77.8692C70.9402 77.8202 71.0023 77.7761 71.0662 77.7372C71.1388 77.6892 71.2238 77.6364 71.3195 77.586C71.5433 77.4653 71.7744 77.3714 72.0103 77.3052C72.1496 77.2651 72.2903 77.2347 72.4319 77.214C72.584 77.1882 72.7376 77.1818 72.8906 77.1948C73.045 77.2047 73.196 77.2595 73.3334 77.3556C73.4595 77.4519 73.5679 77.5857 73.6505 77.7468C73.7862 78.0202 73.869 78.3355 73.8914 78.6636C73.9096 78.8819 73.9161 79.1016 73.9109 79.3212V79.5012C73.9106 79.5222 73.9088 79.5431 73.9055 79.5636Z"
    fill="#263238" />
  <path
    d="M69.7661 80.91L69.752 80.9292L69.7095 80.9772L69.543 81.162L68.946 81.8172L68.5581 82.0572L67.8833 81.4116L67.5981 81.138C67.5827 81.0464 67.5732 80.9533 67.5698 80.8596C67.5647 80.7679 67.5694 80.6757 67.5839 80.586C67.5915 80.5405 67.6053 80.4973 67.6247 80.4588C67.6346 80.4397 67.6465 80.4227 67.6601 80.4084L67.6938 80.37L67.8266 80.202C68.0037 79.9812 68.1454 79.7796 68.2712 79.6116L68.5652 79.218L68.6449 79.1124L68.6733 79.0764L68.6485 79.1172L68.5723 79.2276C68.5068 79.3236 68.4076 79.4676 68.2854 79.6332C68.1631 79.7988 68.0161 80.0052 67.8461 80.2284C67.8036 80.286 67.7593 80.3412 67.7132 80.3988L67.6778 80.4396C67.6665 80.4522 67.6564 80.4667 67.6477 80.4828C67.631 80.5171 67.619 80.5554 67.6123 80.5956C67.5988 80.6815 67.5952 80.7697 67.6016 80.8572C67.6054 80.9483 67.6143 81.039 67.6282 81.1284V81.114L67.9116 81.3876L68.5847 82.0356H68.5705L68.9602 81.81L69.5642 81.1668L69.7413 80.9916L69.7856 80.946L69.7661 80.91Z"
    fill="#263238" />
  <path
    d="M67.7451 80.9915C67.7451 80.9915 66.2997 82.1291 65.8923 82.1675C65.4849 82.2059 64.1565 81.8171 64.1565 81.8171C64.1565 81.8171 64.9164 82.7771 65.4796 82.9883C66.0429 83.1995 66.5123 83.3387 67.0844 83.1227C67.6565 82.9067 68.5829 82.0235 68.5829 82.0235C68.5829 82.0235 68.5776 80.8883 67.7451 80.9915Z"
    fill="white" />
  <path
    d="M67.7451 80.9915H67.7681H67.8337C67.8695 80.9856 67.9058 80.9856 67.9417 80.9915H68.0108C68.0338 80.9915 68.0586 81.0083 68.0869 81.0179C68.2203 81.0666 68.3377 81.1748 68.4199 81.3251C68.4716 81.4181 68.5117 81.5219 68.5386 81.6323C68.5711 81.7567 68.5896 81.8869 68.5935 82.0187C68.4075 82.1939 68.195 82.3811 67.9576 82.5731C67.704 82.7848 67.4352 82.9609 67.1553 83.0987C66.9992 83.165 66.8382 83.2077 66.6752 83.2259C66.5038 83.2426 66.3315 83.2329 66.1616 83.1972C65.9854 83.1611 65.811 83.1115 65.639 83.0484C65.5523 83.0196 65.4619 82.9859 65.3751 82.9451L65.2476 82.8731C65.2069 82.8443 65.1626 82.818 65.1218 82.7868C64.7716 82.5147 64.4459 82.1885 64.1512 81.8147L64.1087 81.7619L64.1654 81.7787C64.4328 81.8555 64.6967 81.9251 64.9429 81.9851C65.1891 82.0451 65.4336 82.0955 65.6621 82.1219C65.7712 82.1461 65.8824 82.1461 65.9915 82.1219C66.0429 82.1003 66.0925 82.0836 66.1421 82.0572C66.191 82.0363 66.2389 82.0115 66.2856 81.9828C66.4715 81.8796 66.6398 81.7715 66.7921 81.6707C67.0968 81.4643 67.3342 81.2891 67.5007 81.1691L67.6866 81.03L67.7362 80.994H67.7522L67.7362 81.0084L67.6902 81.0468L67.5131 81.1907C67.3501 81.3155 67.1127 81.4955 66.8045 81.7019C66.654 81.8075 66.4857 81.9179 66.298 82.0235C66.2519 82.0499 66.2041 82.0763 66.1545 82.0979C66.104 82.1232 66.0526 82.1448 66.0004 82.1628C65.889 82.1925 65.7748 82.1982 65.6621 82.1796C65.4318 82.1532 65.1927 82.1004 64.9412 82.0428C64.6896 81.9852 64.431 81.9155 64.1618 81.8387L64.176 81.8028C64.469 82.1726 64.793 82.4948 65.1413 82.7628L65.2635 82.8491L65.3911 82.9187C65.4761 82.9595 65.5682 82.9907 65.6514 83.0219C65.8216 83.0848 65.9943 83.1345 66.1687 83.1707C66.3369 83.2041 66.5073 83.2138 66.677 83.1996C66.8377 83.1832 66.9965 83.1414 67.1499 83.0747C67.4284 82.9388 67.6961 82.7651 67.9488 82.5563C68.1861 82.3691 68.3987 82.1819 68.5847 82.0091V82.0212C68.5796 81.7768 68.5217 81.5398 68.4182 81.3396C68.3384 81.1926 68.2251 81.0855 68.0958 81.0347C68.0708 81.024 68.0454 81.0152 68.0196 81.0084H67.9523C67.917 81.004 67.8814 81.004 67.8461 81.0084H67.7575L67.7451 80.9915Z"
    fill="#263238" />
  <path
    d="M64.8384 81.2147C64.8031 81.2193 64.7675 81.2135 64.7339 81.1979C64.6534 81.1671 64.5741 81.1302 64.4966 81.0875C64.4204 81.0441 64.3423 81.0073 64.2628 80.9771C64.2008 80.9531 64.1618 80.9507 64.1618 80.9435C64.1961 80.9323 64.232 80.9323 64.2663 80.9435C64.3488 80.9663 64.4295 81.0001 64.5072 81.0443C64.5993 81.0923 64.6843 81.1379 64.741 81.1667C64.7744 81.1789 64.807 81.195 64.8384 81.2147Z"
    fill="#263238" />
  <path
    d="M64.4116 84.546C64.3686 84.5817 64.3212 84.6069 64.2717 84.6204C64.1561 84.6638 64.0373 84.6895 63.9174 84.6972C63.7984 84.7046 63.6791 84.6892 63.5632 84.6516C63.5139 84.6371 63.467 84.6103 63.425 84.5724C63.425 84.5724 63.4782 84.5964 63.5685 84.6204C63.6852 84.6506 63.8041 84.6619 63.9227 84.654C64.0419 84.6457 64.1603 84.6249 64.277 84.5916C64.3567 84.5604 64.4098 84.546 64.4116 84.546Z"
    fill="#263238" />
  <path
    d="M64.3637 83.4755C64.3637 83.4755 64.1866 83.3939 63.9581 83.3411C63.7296 83.2883 63.5436 83.2931 63.5436 83.2787C63.5835 83.265 63.6248 83.2602 63.6659 83.2643C63.7656 83.262 63.8653 83.2733 63.9634 83.2979C64.0618 83.3212 64.1585 83.3565 64.2521 83.4035C64.2919 83.4193 64.3296 83.4436 64.3637 83.4755Z"
    fill="#263238" />
  <path
    d="M64.5267 85.3788C64.4944 85.4341 64.454 85.4798 64.4081 85.5132C64.302 85.6004 64.1876 85.6674 64.068 85.7124C63.9494 85.7601 63.8268 85.7867 63.7031 85.7916C63.6515 85.7965 63.5998 85.7875 63.5508 85.7652C63.5508 85.7652 63.6092 85.7652 63.7031 85.7652C63.8232 85.7524 63.9419 85.7226 64.0574 85.6764C64.1747 85.6316 64.2882 85.5696 64.3957 85.4916C64.4842 85.4268 64.5232 85.374 64.5267 85.3788Z"
    fill="#263238" />
  <path
    d="M64.9022 86.466C64.9022 86.466 64.8756 86.5068 64.8207 86.55C64.7498 86.6037 64.6758 86.6494 64.5993 86.6868C64.523 86.7266 64.4441 86.7571 64.3638 86.778C64.33 86.7894 64.2947 86.7894 64.261 86.778C64.2929 86.7626 64.3254 86.7498 64.3584 86.7396C64.4169 86.718 64.4984 86.682 64.5869 86.6364C64.6755 86.5908 64.7552 86.5476 64.8101 86.5116C64.84 86.4936 64.8708 86.4784 64.9022 86.466Z"
    fill="#263238" />
  <path
    d="M77.7139 82.938C77.6837 83.0004 77.4021 84.93 77.5863 85.6236C77.7705 86.3172 79.2035 90.1836 79.2035 90.1836L79.3576 91.4076C79.3576 91.4076 78.9219 92.5068 78.9874 92.6748C79.0028 92.721 79.0261 92.7616 79.0554 92.7933C79.0846 92.825 79.119 92.8469 79.1557 92.8572L81.5947 92.2956L81.6106 92.0052L81.3272 91.506L81.2139 91.218C81.2139 91.218 81.0066 89.5596 81.012 89.4516C81.0173 89.3436 80.9606 84.8676 80.9606 84.8676L80.8968 81.7212C80.8968 81.7212 80.4593 80.5452 80.1316 80.0964C79.804 79.6476 78.1301 79.1364 78.1301 79.1364L77.7139 82.938Z"
    fill="#E0E0E0" />
  <path
    d="M81.8727 87.0108C81.8227 87.2834 81.8395 87.5706 81.9206 87.8292C82.0747 88.2804 82.769 88.8588 82.8062 88.8636C82.8434 88.8684 82.7141 88.5612 82.7141 88.5612C82.7141 88.5612 83.1675 88.8012 83.3783 88.734C83.5891 88.6668 83.4315 88.722 83.4315 88.722L83.559 88.6932C83.559 88.6932 83.0683 88.434 82.939 88.0956C82.8097 87.7572 82.4466 87.1356 82.2801 87.0492C82.2005 86.9977 82.1133 86.9715 82.0251 86.9724L81.8727 87.0108Z"
    fill="#263238" />
  <path
    d="M80.8968 81.726C81.2093 82.2296 81.4139 82.8397 81.4884 83.49C81.5795 84.3533 81.7139 85.2073 81.8905 86.046C82.0321 86.6664 82.1983 87.276 82.3882 87.8723C82.3882 87.8723 81.8568 87.1068 81.7187 86.646C81.5805 86.1852 81.3644 85.5947 81.3113 85.0451C81.2678 84.443 81.0961 83.871 80.8171 83.3988C80.4681 82.7508 80.8968 81.726 80.8968 81.726Z"
    fill="#E0E0E0" />
  <g opacity="0.3">
    <path
      d="M68.59 82.5036L68.8327 82.2564L69.2613 82.0884L69.6687 81.0156L68.9372 81.8028L68.5829 82.0236L68.3385 82.2444L68.59 82.5036Z"
      fill="black" />
  </g>
  <path
    d="M64.4683 82.5132C64.4683 82.5132 64.3159 82.4148 64.114 82.3428C63.9121 82.2708 63.7509 82.254 63.7509 82.242C63.8766 82.2269 64.0033 82.2473 64.1229 82.302C64.2475 82.3395 64.3651 82.4114 64.4683 82.5132Z"
    fill="#263238" />
  <path
    d="M83.5572 88.6932L83.4297 88.7244H83.458H83.474H83.4846L83.4102 88.746C83.3489 88.7667 83.2853 88.7724 83.2225 88.7628C83.0478 88.7311 82.8766 88.6715 82.7123 88.5852C82.7462 88.6625 82.7764 88.7426 82.8027 88.8252C82.8105 88.8476 82.8135 88.8725 82.8115 88.8972C82.8092 88.8993 82.8064 88.9005 82.8036 88.9005C82.8007 88.9005 82.7979 88.8993 82.7956 88.8972C82.7956 88.8972 82.7956 88.8972 82.7832 88.8972L82.7584 88.8828L82.6645 88.8084C82.5282 88.6933 82.3975 88.5667 82.2731 88.4292C82.2042 88.3543 82.1386 88.2742 82.0765 88.1892C82.0059 88.0982 81.9461 87.993 81.8993 87.8772C81.8559 87.7527 81.8295 87.6185 81.8214 87.4812C81.8161 87.4102 81.8161 87.3386 81.8214 87.2676C81.8214 87.2316 81.8214 87.1956 81.8338 87.1596L81.8426 87.1044C81.8442 87.0884 81.8442 87.0723 81.8426 87.0564V87.0684C81.7876 86.961 81.7391 86.8478 81.6974 86.73L81.5787 86.3532C81.4899 86.0869 81.413 85.8136 81.3485 85.5348C81.2758 85.242 81.2794 84.918 81.2138 84.6036C81.1493 84.2772 81.0445 83.9681 80.9039 83.6892H80.918C80.9287 84.2148 80.9446 84.7716 80.9499 85.3548C80.9552 85.938 80.9659 86.5548 80.9729 87.186C80.98 87.8172 80.9889 88.4844 80.996 89.1708C80.996 89.2572 80.996 89.3436 80.996 89.43C80.9942 89.4731 80.9942 89.5164 80.996 89.5596L81.0066 89.6892C81.0243 89.862 81.0456 90.0372 81.0651 90.2124C81.1093 90.5628 81.1518 90.9204 81.1961 91.2828L81.3113 91.5708L81.5947 92.07C81.5947 92.1564 81.584 92.2596 81.5787 92.3604V92.3724H81.5699L79.1308 92.934C79.0804 92.9214 79.0344 92.8868 78.9998 92.8356C78.9834 92.8092 78.9686 92.7811 78.9555 92.7516C78.9468 92.7157 78.9468 92.677 78.9555 92.6412C78.9769 92.5049 79.0089 92.3722 79.0511 92.2452C79.1344 91.9836 79.2282 91.722 79.331 91.4628L79.1786 90.2388C78.9307 89.5572 78.6473 88.7988 78.371 88.0308H78.3869L77.124 88.5996L76.481 88.866C76.4228 88.8859 76.3636 88.8995 76.3039 88.9068C76.2451 88.9165 76.186 88.9214 76.1268 88.9212C76.0116 88.9212 75.8947 88.9212 75.7725 88.9092C75.3118 88.8577 74.8543 88.763 74.4033 88.626C74.2864 88.59 74.1695 88.5516 74.0491 88.506C73.9286 88.4604 73.8241 88.3932 73.7125 88.3332L73.0359 87.9684L73.0554 87.9564C73.0235 88.158 72.9863 88.3884 72.9491 88.6188C72.9491 89.0244 72.9243 89.4372 72.8942 89.8548C72.866 90.2786 72.8145 90.699 72.7401 91.1124C72.7029 91.3236 72.6373 91.5252 72.5913 91.7316C72.5452 91.938 72.5027 92.1492 72.4691 92.3652C72.401 92.7976 72.3525 93.2352 72.3238 93.6756V93.6588L72.6196 94.0116L72.6303 94.0236L72.6214 94.038C72.5821 94.1073 72.5587 94.1908 72.5541 94.278C72.5532 94.2875 72.5532 94.2972 72.5541 94.3068C72.5551 94.3131 72.5551 94.3196 72.5541 94.326C72.5514 94.3338 72.5471 94.3405 72.5417 94.3452C72.5274 94.3613 72.5112 94.3743 72.4939 94.3836C72.462 94.4005 72.4295 94.4149 72.3965 94.4268C72.2636 94.4772 72.1272 94.5132 71.9891 94.5492L71.7801 94.5948L71.5693 94.65L71.1442 94.758H71.1265V94.698L71.1442 94.7172L70.2851 94.9404C70.2105 94.8776 70.1518 94.7855 70.1168 94.6764C70.1088 94.6478 70.1035 94.618 70.1009 94.5876C70.1002 94.5551 70.1032 94.5228 70.1098 94.4916C70.1238 94.4343 70.1416 94.3789 70.1629 94.326C70.2494 94.1111 70.3489 93.9064 70.4605 93.714V93.726C70.4481 93.2052 70.4321 92.6316 70.4179 92.046V92.0604C70.2674 91.8204 70.1186 91.5804 69.9698 91.326C69.821 91.0716 69.6722 90.8292 69.5323 90.5652C69.385 90.3053 69.2718 90.013 69.1975 89.7012C69.1861 89.6222 69.182 89.5416 69.1851 89.4612C69.1851 89.3772 69.194 89.2956 69.2011 89.2212C69.217 89.058 69.2401 88.8948 69.2649 88.7412C69.3144 88.4172 69.3764 88.0956 69.442 87.7812C69.5075 87.4668 69.5855 87.1428 69.674 86.8212C69.6949 86.7391 69.7198 86.6589 69.7484 86.5812C69.7547 86.561 69.7624 86.5417 69.7714 86.5236C69.7714 86.5044 69.7838 86.49 69.7892 86.4708C69.7993 86.4325 69.807 86.3932 69.8122 86.3532C69.8332 86.1881 69.8462 86.0214 69.8511 85.854C69.8618 85.518 69.8511 85.1796 69.8511 84.8412C69.6386 84.2988 69.4066 83.7108 69.1745 83.1228L68.3332 82.2564H68.3509C68.1861 82.4004 68.0126 82.5444 67.8319 82.6836C67.6486 82.8265 67.458 82.9516 67.2615 83.058C67.0437 83.1717 66.813 83.2342 66.5796 83.2428C66.3478 83.2466 66.1165 83.2127 65.8906 83.142H65.9065C65.722 83.4611 65.5539 83.7971 65.4035 84.1476C65.3278 84.3219 65.2586 84.5014 65.1962 84.6852C65.1306 84.8648 65.0824 85.0552 65.0528 85.2516C65.0394 85.3479 65.041 85.447 65.0575 85.5424C65.074 85.6379 65.1049 85.7276 65.1484 85.806C65.1914 85.8866 65.2414 85.9599 65.2972 86.0244C65.3522 86.0886 65.4115 86.1456 65.4743 86.1948C65.5366 86.2462 65.6032 86.2873 65.6727 86.3172C65.7055 86.3339 65.7405 86.3412 65.7755 86.3388C65.8109 86.3388 65.8481 86.3388 65.8835 86.3244C66.0287 86.2956 66.1722 86.2524 66.3157 86.2092V86.2452C66.2535 86.1696 66.1944 86.0894 66.1386 86.0052C66.0805 85.9233 66.0299 85.8323 65.988 85.734C65.977 85.709 65.9681 85.6824 65.9614 85.6548C65.9604 85.6388 65.9604 85.6227 65.9614 85.6068C65.9607 85.5908 65.9607 85.5748 65.9614 85.5588C65.9829 85.5042 66.019 85.4629 66.0624 85.4436C66.1406 85.4028 66.2231 85.3793 66.3068 85.374L66.2927 85.4028C66.2539 85.247 66.2272 85.0861 66.213 84.9228C66.2061 84.843 66.2061 84.7625 66.213 84.6828C66.2137 84.6698 66.2168 84.6572 66.222 84.6463C66.2273 84.6354 66.2345 84.6265 66.2431 84.6204C66.2598 84.6135 66.2777 84.6135 66.2944 84.6204C66.3252 84.6273 66.355 84.6403 66.383 84.6588C66.486 84.7361 66.5843 84.8244 66.677 84.9228C66.7691 85.0212 66.8542 85.122 66.948 85.2228L67.0809 85.3764C67.1253 85.4335 67.1567 85.5069 67.1712 85.5876C67.202 85.744 67.2157 85.9057 67.212 86.0676C67.2104 86.3815 67.189 86.6946 67.1482 87.0036C67.0323 87.1461 66.9052 87.2709 66.7691 87.3756C66.6322 87.4772 66.4888 87.5615 66.3405 87.6276C66.046 87.7598 65.7365 87.8191 65.4265 87.8028C65.3491 87.7991 65.2723 87.7821 65.198 87.7524C65.1245 87.7185 65.0543 87.6726 64.989 87.6156C64.8593 87.5063 64.7339 87.3877 64.6135 87.2604C64.3732 87.0113 64.1437 86.7437 63.9262 86.4588L63.7668 86.2404C63.7141 86.1654 63.6655 86.0852 63.6216 86.0004C63.5424 85.8252 63.4884 85.6314 63.4622 85.4292C63.4135 85.0327 63.4016 84.6296 63.4267 84.2292C63.434 83.8312 63.4756 83.4357 63.5507 83.0508C63.6208 82.6688 63.7096 82.2936 63.8164 81.9276C63.9193 81.5642 64.0376 81.2092 64.1707 80.8644C64.2327 80.6892 64.3071 80.526 64.3744 80.358L64.486 80.118C64.5214 80.0364 64.5586 79.9548 64.5993 79.878C64.9001 79.2426 65.2623 78.6647 65.6763 78.1596C66.0864 77.6792 66.5322 77.2577 67.0065 76.902C67.4666 76.5545 67.947 76.2591 68.443 76.0188C68.6744 75.7733 68.9216 75.5564 69.1816 75.3708L69.2808 75.3084C69.3144 75.2907 69.3487 75.2754 69.3835 75.2628C69.4014 75.2549 69.4198 75.2493 69.4384 75.246H69.4933H69.6032C69.7444 75.274 69.8837 75.3182 70.0194 75.378C70.286 75.4985 70.5469 75.6412 70.8005 75.8052C71.0521 75.9636 71.2947 76.134 71.5338 76.3116H71.525C71.857 76.2293 72.1924 76.1748 72.5293 76.1484C72.6126 76.1416 72.6963 76.1456 72.779 76.1604C72.8605 76.1778 72.941 76.2026 73.0199 76.2348C73.1757 76.296 73.3289 76.3689 73.4787 76.4532C73.6275 76.5348 73.7727 76.6236 73.9144 76.7196C74.0561 76.8126 74.1923 76.9201 74.3218 77.0412C74.3914 77.0977 74.4516 77.1728 74.499 77.262C74.5161 77.3103 74.5268 77.3623 74.5308 77.4156C74.5308 77.4684 74.5432 77.5212 74.5468 77.5716C74.5645 77.778 74.5716 77.9844 74.5804 78.1884V78.174L75.6432 78.822C76.0896 78.678 76.5241 78.5564 76.9468 78.4572C77.1594 78.4092 77.3684 78.3684 77.5757 78.342C77.7798 78.3096 77.9861 78.3096 78.1903 78.342C78.3854 78.3979 78.5726 78.4959 78.7447 78.6324C78.9121 78.7592 79.0741 78.8986 79.23 79.05C79.5268 79.3354 79.8101 79.6456 80.0785 79.9788V79.986C80.1097 80.0142 80.1399 80.0447 80.1688 80.0772C80.195 80.1114 80.2198 80.1474 80.2432 80.1852C80.291 80.2596 80.3335 80.334 80.3743 80.4108C80.4557 80.562 80.5284 80.7132 80.5957 80.862C80.7303 81.162 80.8454 81.4476 80.9499 81.7308C81.0929 81.9571 81.2121 82.2091 81.3042 82.4796C81.3927 82.7305 81.4609 82.9936 81.5079 83.2644C81.5504 83.5284 81.577 83.7828 81.6088 84.03C81.6407 84.2772 81.6726 84.51 81.7045 84.738C81.8158 85.5064 81.974 86.261 82.1774 86.994C82.2183 87.0055 82.2585 87.0207 82.2979 87.0396C82.3358 87.0571 82.3716 87.0822 82.4041 87.114C82.4678 87.1761 82.5271 87.246 82.5813 87.3228C82.6724 87.4565 82.7576 87.5976 82.8363 87.7452C82.9011 87.8698 82.9602 87.9997 83.0134 88.134C83.0624 88.238 83.1263 88.3278 83.2012 88.398C83.2988 88.4908 83.4026 88.5712 83.5112 88.638L83.6192 88.7028C83.5824 88.6846 83.5463 88.6638 83.5112 88.6404C83.4019 88.574 83.2975 88.4936 83.1994 88.4004C83.1234 88.3304 83.0583 88.2407 83.0081 88.1364C82.9553 88.0026 82.8961 87.8735 82.831 87.75C82.7522 87.6018 82.6664 87.4607 82.5742 87.3276C82.5238 87.2515 82.468 87.1824 82.4077 87.1212C82.3762 87.0892 82.3408 87.0648 82.3032 87.0492C82.2647 87.0292 82.225 87.014 82.1845 87.0036C81.9792 86.271 81.8198 85.5164 81.708 84.7476C81.6744 84.522 81.6443 84.2844 81.6124 84.0396C81.5805 83.7948 81.5522 83.538 81.5096 83.2764C81.4632 83.0062 81.3949 82.7438 81.3059 82.494C81.214 82.2256 81.0947 81.976 80.9517 81.7524C80.8436 81.4716 80.7285 81.1836 80.5974 80.886C80.5301 80.7396 80.4575 80.5884 80.376 80.4372C80.3353 80.3604 80.2928 80.286 80.2467 80.2116C80.2219 80.178 80.1989 80.1396 80.1723 80.106C80.1446 80.0739 80.115 80.045 80.0838 80.0196V80.0364C79.8146 79.7053 79.5313 79.396 79.2353 79.11C79.08 78.9602 78.9185 78.8224 78.7518 78.6972C78.5812 78.5623 78.3958 78.4651 78.2027 78.4092C78.0003 78.3768 77.7958 78.3768 77.5934 78.4092C77.3879 78.4356 77.1789 78.4764 76.9663 78.5244C76.543 78.6204 76.109 78.7452 75.6645 78.8892L74.6017 78.2412C74.6017 78.0396 74.584 77.8332 74.568 77.6292C74.568 77.5764 74.568 77.526 74.5521 77.4756C74.5475 77.4253 74.5379 77.3761 74.5238 77.3292C74.4791 77.246 74.4232 77.1752 74.359 77.1204C74.2302 77.001 74.0953 76.8943 73.9552 76.8012C73.8152 76.7052 73.67 76.6164 73.5212 76.5348C73.3717 76.4524 73.2191 76.3803 73.0642 76.3188C72.9862 76.2888 72.9069 76.2648 72.8269 76.2468C72.7456 76.236 72.6637 76.236 72.5824 76.2468C72.2462 76.2745 71.9114 76.329 71.5799 76.41C71.3437 76.2324 71.0993 76.0644 70.8466 75.906C70.5644 75.7195 70.2733 75.5591 69.9751 75.426C69.8407 75.3661 69.7026 75.3228 69.5624 75.2964C69.4208 75.2729 69.2773 75.3143 69.155 75.414C68.8973 75.5997 68.6524 75.8166 68.4235 76.062C67.9297 76.3009 67.4515 76.5955 66.9941 76.9428C66.521 77.2969 66.0764 77.7168 65.6674 78.1956C65.2588 78.6997 64.9014 79.2751 64.6046 79.9068C64.5639 79.986 64.5267 80.0676 64.4913 80.1468L64.3815 80.3868C64.3124 80.5548 64.2398 80.718 64.1778 80.8908C64.0457 81.2355 63.9275 81.5896 63.8235 81.9516C63.7189 82.3165 63.6313 82.6901 63.5614 83.07C63.4864 83.4516 63.4448 83.8439 63.4374 84.2388C63.4116 84.6392 63.4235 85.0424 63.4728 85.4388C63.4978 85.6362 63.5507 85.8253 63.6287 85.9956C63.6705 86.0812 63.7179 86.1615 63.7704 86.2356L63.928 86.4516C64.1451 86.7344 64.3734 87.0012 64.6117 87.2508C64.7319 87.376 64.8566 87.4929 64.9855 87.6012C65.0484 87.6566 65.1162 87.7009 65.1874 87.7332C65.2596 87.7608 65.3339 87.7777 65.4088 87.7836C65.7153 87.7998 66.0213 87.7404 66.3121 87.6084C66.4576 87.5452 66.5986 87.4649 66.7337 87.3684C66.8679 87.265 66.9932 87.1418 67.1074 87.0012V87.0132C67.1473 86.7072 67.1686 86.3974 67.1712 86.0868C67.1729 85.9314 67.1592 85.7764 67.1305 85.626C67.1169 85.5535 67.0894 85.4873 67.0508 85.434L66.9179 85.2828C66.8294 85.1796 66.7408 85.0812 66.6469 84.9852C66.557 84.8857 66.4604 84.7981 66.3582 84.7236C66.3334 84.7077 66.3072 84.6964 66.2803 84.69C66.2537 84.69 66.236 84.69 66.2324 84.7284C66.2267 84.8082 66.2267 84.8886 66.2324 84.9684C66.2474 85.1244 66.2742 85.278 66.3121 85.4268V85.4532H66.2927C66.2128 85.4587 66.1339 85.4806 66.0589 85.518C66.024 85.5339 65.9944 85.5663 65.9756 85.6092C65.9723 85.6337 65.9726 85.6588 65.9766 85.6831C65.9805 85.7074 65.988 85.7304 65.9986 85.7508C66.0403 85.8451 66.0896 85.9328 66.1456 86.0124C66.2006 86.094 66.259 86.1708 66.3228 86.2524L66.3458 86.2812H66.3157C66.1722 86.3268 66.0287 86.3676 65.8817 86.3964C65.8445 86.3964 65.8073 86.4108 65.7701 86.4132C65.731 86.415 65.6919 86.4068 65.655 86.3892C65.5841 86.3574 65.5158 86.3156 65.4513 86.2644C65.3889 86.2125 65.3297 86.1539 65.2742 86.0892C65.2171 86.0223 65.1659 85.9466 65.1219 85.8636C65.0756 85.7805 65.0426 85.6854 65.0249 85.5842C65.0072 85.483 65.0053 85.3779 65.0191 85.2756C65.0496 85.0753 65.0984 84.881 65.1644 84.6972C65.2281 84.5124 65.299 84.3348 65.3734 84.1572C65.5256 83.8048 65.6948 83.4665 65.88 83.1444H65.8888C66.1123 83.2151 66.3413 83.249 66.5708 83.2452C66.8004 83.2371 67.0274 83.1762 67.2421 83.0652C67.6209 82.8448 67.9838 82.5772 68.3261 82.266H68.3349L69.1763 83.13L69.8529 84.8484C69.8529 85.1892 69.8635 85.5276 69.8529 85.866C69.8478 86.0349 69.8348 86.2033 69.8139 86.37C69.8078 86.4125 69.7989 86.4543 69.7874 86.4948C69.7827 86.5158 69.7762 86.5359 69.7679 86.5548L69.7449 86.61C69.7183 86.682 69.6953 86.7612 69.6722 86.85C69.5855 87.162 69.5111 87.4812 69.4438 87.81C69.3764 88.1388 69.3144 88.4484 69.2666 88.77C69.2418 88.9308 69.2206 89.094 69.2046 89.25C69.2046 89.3316 69.1905 89.4132 69.1887 89.49C69.1839 89.5703 69.1875 89.651 69.1993 89.73C69.2721 90.038 69.3842 90.3264 69.5305 90.582C69.6687 90.8436 69.8175 91.0932 69.9663 91.3404C70.1151 91.5876 70.2638 91.8348 70.4126 92.0604C70.4268 92.6364 70.441 93.2124 70.4551 93.7404C70.344 93.931 70.245 94.1342 70.1593 94.3476C70.1221 94.4532 70.0779 94.5612 70.1151 94.6644C70.1488 94.7631 70.2029 94.8465 70.2709 94.9044H70.2603L71.1211 94.6812H71.1371V94.7412L71.1194 94.722L71.5445 94.614L71.7553 94.5588L71.9643 94.5132C72.1003 94.4825 72.2351 94.4424 72.3681 94.3932C72.4007 94.3817 72.4326 94.3672 72.4638 94.35C72.4775 94.3423 72.4906 94.3327 72.5027 94.3212C72.5019 94.3084 72.5019 94.2955 72.5027 94.2828C72.507 94.1887 72.533 94.0989 72.5771 94.026V94.0548L72.2813 93.702C72.3096 93.259 72.3587 92.8189 72.4283 92.3844C72.462 92.1684 72.5027 91.9572 72.5506 91.7484C72.5984 91.5396 72.6621 91.3404 72.6993 91.1316C72.7739 90.7198 72.8254 90.301 72.8534 89.8788C72.8836 89.4636 72.9013 89.0508 72.9084 88.6476C72.9456 88.4076 72.9827 88.1868 73.0146 87.9828V87.9612H73.0306L73.7054 88.3236C73.8188 88.3836 73.9286 88.4508 74.042 88.4964C74.1553 88.542 74.2722 88.5804 74.3962 88.614C74.8548 88.7527 75.32 88.8473 75.7884 88.8972C75.9036 88.8972 76.0187 88.9116 76.1321 88.9092C76.1905 88.9092 76.2472 88.9092 76.3092 88.8948C76.3654 88.8872 76.4211 88.8735 76.4757 88.854L77.1222 88.5636L78.3869 87.9972H78.3975V88.0116L79.2035 90.2172C79.2584 90.6468 79.3115 91.0716 79.3575 91.4436C79.2566 91.7028 79.1609 91.9644 79.0795 92.2236C79.0381 92.3485 79.006 92.4788 78.9838 92.6124C78.9775 92.6413 78.9775 92.6722 78.9838 92.7012C78.9949 92.729 79.0086 92.7548 79.0246 92.778C79.0546 92.8245 79.095 92.8565 79.1397 92.8692L81.5787 92.3076L81.5699 92.322C81.5699 92.2212 81.5805 92.1204 81.5858 92.0316L81.3024 91.5324C81.2617 91.4316 81.2227 91.3284 81.189 91.242C81.1448 90.8796 81.1022 90.522 81.0597 90.1716C81.0385 89.994 81.019 89.8212 81.0013 89.646C81.0013 89.6028 81.0013 89.5596 80.9889 89.5164C80.9765 89.4732 80.9889 89.43 80.9889 89.3844V89.106C80.9818 88.418 80.9747 87.7556 80.9676 87.1188C80.9676 86.4804 80.9517 85.8708 80.9464 85.2876C80.9411 84.7044 80.9251 84.15 80.9163 83.622V83.586L80.9322 83.6172C81.0729 83.8986 81.1777 84.2102 81.2422 84.5388C81.3077 84.858 81.3042 85.1796 81.375 85.4676C81.439 85.7463 81.5153 86.0196 81.6035 86.286L81.724 86.6628C81.7637 86.7815 81.8117 86.8949 81.8674 87.0012H81.8586V86.9892C81.8623 87.0088 81.8623 87.0295 81.8586 87.0492V87.102C81.8586 87.138 81.848 87.174 81.8444 87.21C81.84 87.2802 81.84 87.3509 81.8444 87.4212C81.8527 87.5569 81.8791 87.6894 81.9223 87.8124C81.966 87.9263 82.0228 88.03 82.0906 88.1196C82.1521 88.2045 82.2172 88.2847 82.2855 88.3596C82.4092 88.4973 82.5393 88.6239 82.6751 88.7388L82.769 88.8132C82.7832 88.8132 82.8044 88.8396 82.8115 88.8348C82.8126 88.8133 82.8095 88.7918 82.8027 88.7724C82.7767 88.6896 82.7466 88.6094 82.7123 88.5324H82.7212C82.8848 88.6189 83.0555 88.6785 83.2295 88.71C83.2887 88.72 83.3488 88.7151 83.4067 88.6956L83.4811 88.6764H83.4669H83.4527H83.4226L83.5572 88.6932Z"
    fill="#263238" />
  <path
    d="M70.4605 93.7212C70.4605 93.7212 70.4605 93.7212 70.4605 93.6924V93.6108C70.4605 93.534 70.4605 93.426 70.4605 93.2892C70.4605 93.0084 70.4481 92.6052 70.4375 92.1108C70.4198 91.1124 70.3967 89.7372 70.3719 88.2204C70.3595 87.4524 70.3489 86.718 70.3383 86.0604C70 85.194 69.713 84.4572 69.5075 83.934L69.2667 83.3292C69.2401 83.2596 69.2188 83.2068 69.2047 83.166L69.1887 83.1252V83.1108V83.1228L69.2047 83.1636C69.2206 83.202 69.2436 83.2548 69.2702 83.3244C69.3286 83.466 69.4101 83.67 69.5129 83.9268L70.3524 86.046C70.3648 86.7108 70.3755 87.4428 70.3879 88.206C70.4109 89.7228 70.4304 91.098 70.4463 92.0964C70.4463 92.5908 70.4463 92.994 70.4587 93.2748C70.4587 93.4116 70.4587 93.5148 70.4587 93.594V93.7068L70.4605 93.7212Z"
    fill="#263238" />
  <path
    d="M73.5336 85.8851C73.5434 85.9157 73.55 85.948 73.5531 85.9811C73.565 86.0714 73.5715 86.1629 73.5726 86.2547C73.5779 86.5583 73.5299 86.8594 73.4327 87.1331C73.381 87.2816 73.3218 87.4252 73.2555 87.5627C73.1953 87.6899 73.1404 87.8027 73.0997 87.9059C73.0146 88.1051 72.9845 88.2419 72.9792 88.2395C72.9795 88.208 72.9818 88.1767 72.9863 88.1459C73.0081 88.0628 73.0354 87.9824 73.0678 87.9059C73.1067 87.8027 73.1599 87.6851 73.2183 87.5555C73.2829 87.4182 73.342 87.2764 73.3955 87.1307C73.4903 86.8615 73.5405 86.5674 73.5425 86.2691C73.5513 86.0267 73.5283 85.8851 73.5336 85.8851Z"
    fill="#263238" />
  <path
    d="M77.7067 81.8124C77.707 81.8188 77.707 81.8252 77.7067 81.8316V81.8868C77.7067 81.9396 77.6961 82.0116 77.689 82.1028C77.6713 82.29 77.6483 82.5636 77.6235 82.8996C77.5987 83.2356 77.5686 83.634 77.5491 84.0804C77.5384 84.3036 77.5314 84.5364 77.5296 84.7788C77.5296 84.9012 77.5296 85.0188 77.5384 85.1484C77.5413 85.2741 77.555 85.3989 77.5792 85.5204C77.9122 86.4396 78.2044 87.2916 78.4099 87.906C78.5126 88.2108 78.587 88.458 78.6526 88.626L78.7181 88.8252C78.7225 88.8433 78.7278 88.8609 78.734 88.878C78.734 88.89 78.734 88.8948 78.734 88.8948V88.878L78.7146 88.8276C78.698 88.7796 78.675 88.7148 78.6455 88.6332L78.394 87.9132C78.1814 87.3012 77.8892 86.4588 77.5526 85.5276C77.5281 85.4029 77.5138 85.2749 77.5101 85.146C77.5101 85.0212 77.5101 84.906 77.5101 84.774C77.5101 84.534 77.519 84.294 77.5296 84.0732C77.5526 83.6268 77.5827 83.226 77.6111 82.89C77.6394 82.554 77.666 82.2828 77.6872 82.0956C77.6961 82.0044 77.7049 81.9348 77.7103 81.882V81.8244C77.7049 81.8172 77.7049 81.81 77.7067 81.8124Z"
    fill="#263238" />
  <path
    d="M80.7799 81.8915C80.7892 81.914 80.7958 81.9383 80.7994 81.9635C80.816 82.0295 80.8297 82.0969 80.8401 82.1651C80.8809 82.3894 80.9105 82.6171 80.9287 82.8467C80.9469 83.0763 80.9552 83.3071 80.9535 83.5379C80.9535 83.6243 80.9535 83.6963 80.9535 83.7467C80.9529 83.7727 80.9499 83.7985 80.9446 83.8235C80.9408 83.7284 80.9408 83.6331 80.9446 83.5379C80.9446 83.3603 80.934 83.1179 80.911 82.8515C80.888 82.5851 80.8578 82.3451 80.833 82.1723C80.8115 82.0801 80.7938 81.9864 80.7799 81.8915Z"
    fill="#263238" />
  <path
    d="M69.3198 78.7307C69.4284 78.7307 69.5164 78.6115 69.5164 78.4643C69.5164 78.3172 69.4284 78.1979 69.3198 78.1979C69.2112 78.1979 69.1232 78.3172 69.1232 78.4643C69.1232 78.6115 69.2112 78.7307 69.3198 78.7307Z"
    fill="#263238" />
  <path
    d="M69.6616 77.9915C69.5795 77.9318 69.4928 77.8843 69.403 77.8499C69.3094 77.8438 69.2156 77.851 69.1232 77.8715C69.1232 77.8715 69.1444 77.8283 69.1958 77.7971C69.265 77.7603 69.3403 77.7495 69.4137 77.7659C69.4864 77.7822 69.5545 77.8254 69.6103 77.8907C69.6528 77.9411 69.6687 77.9843 69.6616 77.9915Z"
    fill="#263238" />
  <g opacity="0.3">
    <path
      d="M70.9706 77.8379C71.0396 78.0299 71.2362 78.0467 71.3921 78.0179C71.7003 77.9627 72.0032 77.8404 72.3132 77.8068C72.4688 77.7767 72.6273 77.789 72.7794 77.843C72.9315 77.897 73.0741 77.9915 73.1988 78.1211C73.2962 78.2387 73.3883 78.3971 73.5176 78.3971C73.5552 78.3905 73.5913 78.3732 73.6236 78.3464C73.6559 78.3196 73.6837 78.2838 73.7051 78.2415C73.7265 78.1991 73.741 78.1511 73.7478 78.1006C73.7546 78.0501 73.7534 77.9982 73.7444 77.9483C73.7214 77.8489 73.6836 77.7569 73.6334 77.678C73.5831 77.5992 73.5214 77.5352 73.4521 77.4899C73.0902 77.2264 72.6719 77.1416 72.2689 77.2499C71.8427 77.3625 71.427 77.5379 71.029 77.7731"
      fill="black" />
  </g>
  <g opacity="0.3">
    <path
      d="M73.0731 87.9611C73.2556 87.8685 73.4184 87.7162 73.547 87.5177C73.6756 87.3193 73.7659 87.0808 73.8099 86.8235C73.8431 86.5566 73.8283 86.2828 73.7666 86.0254C73.7049 85.768 73.5983 85.5346 73.4557 85.3451C73.5372 85.8251 73.6116 86.3435 73.5017 86.8043C73.4606 87.009 73.3967 87.2041 73.3122 87.3827C73.2219 87.5603 73.1351 87.7715 73.066 87.9419C73.0766 87.9131 73.0855 87.8843 73.0943 87.8555"
      fill="black" />
  </g>
  <path
    d="M65.6727 80.6051C65.6727 80.6051 65.6266 80.5379 65.5505 80.4371C65.4521 80.3031 65.3428 80.1847 65.2246 80.0843C65.1059 79.9868 64.9801 79.9064 64.8491 79.8443C64.7926 79.8238 64.737 79.799 64.6826 79.7699C64.6984 79.7666 64.7145 79.7666 64.7304 79.7699C64.7723 79.7789 64.8137 79.7918 64.8544 79.8083C64.9911 79.864 65.1216 79.9448 65.2423 80.0483C65.3624 80.1497 65.4715 80.2733 65.5664 80.4155C65.5959 80.4576 65.6232 80.5025 65.6479 80.5499C65.6656 80.5835 65.6745 80.6027 65.6727 80.6051Z"
    fill="#263238" />
  <path
    d="M71.9908 68.5908C72.66 68.5908 73.2024 67.8558 73.2024 66.9492C73.2024 66.0425 72.66 65.3076 71.9908 65.3076C71.3217 65.3076 70.7793 66.0425 70.7793 66.9492C70.7793 67.8558 71.3217 68.5908 71.9908 68.5908Z"
    fill="#E14242" />
  <path
    d="M72.7773 66.9108C72.7684 66.9108 72.7684 66.8196 72.7365 66.6708C72.6896 66.4572 72.5926 66.2701 72.4602 66.138C72.3546 66.033 72.2296 65.9697 72.0991 65.9552C71.9686 65.9406 71.8377 65.9754 71.7209 66.0556C71.6041 66.1358 71.5059 66.2582 71.4374 66.4094C71.3688 66.5606 71.3326 66.7345 71.3326 66.912C71.3326 67.0894 71.3688 67.2633 71.4374 67.4145C71.5059 67.5657 71.6041 67.6882 71.7209 67.7683C71.8377 67.8485 71.9686 67.8833 72.0991 67.8687C72.2296 67.8542 72.3546 67.7909 72.4602 67.686C72.5921 67.5542 72.689 67.3681 72.7365 67.1556C72.7684 67.002 72.7684 66.9156 72.7773 66.9156C72.7917 66.9992 72.7917 67.0863 72.7773 67.17C72.7411 67.4032 72.6451 67.6115 72.5063 67.758C72.4028 67.8688 72.2802 67.9421 72.1501 67.9711C72.0199 68.0001 71.8865 67.9837 71.7623 67.9236C71.6083 67.8498 71.4749 67.7131 71.3806 67.5324C71.2863 67.3516 71.2356 67.1357 71.2356 66.9144C71.2356 66.693 71.2863 66.4771 71.3806 66.2963C71.4749 66.1156 71.6083 65.9789 71.7623 65.9052C71.8865 65.845 72.0199 65.8287 72.1501 65.8576C72.2802 65.8866 72.4028 65.9599 72.5063 66.0708C72.6455 66.2176 72.7416 66.427 72.7773 66.6612C72.791 66.7433 72.791 66.8286 72.7773 66.9108Z"
    fill="#263238" />
  <path d="M50.2042 55.6116V57.7596L69.0894 58.5996L69.8511 30.4524L68.7192 57.0564L50.2042 55.6116Z" fill="#E0E0E0" />
  <path d="M49.8943 28.4285L48.7423 55.4987L68.7209 57.0596L69.8729 29.9893L49.8943 28.4285Z" fill="white" />
  <path
    d="M68.7193 57.0563C68.7193 57.0563 68.7193 57.0107 68.7193 56.9267C68.7193 56.8427 68.7193 56.7155 68.7334 56.5523C68.7458 56.2211 68.7653 55.7339 68.7901 55.0979C68.8415 53.8235 68.9177 51.9611 69.0133 49.5779C69.2099 44.8427 69.4915 38.0819 69.8281 29.9699L69.8653 30.0275L49.8871 28.4771L49.9367 28.4171C49.5116 38.3291 49.1148 47.6171 48.7783 55.4867L48.7411 55.4315L63.2106 56.5883L67.2739 56.9195L68.3473 57.0083L68.6236 57.0323L68.7175 57.0443H68.6272L68.3544 57.0275L67.2916 56.9483L63.2443 56.6531L48.7482 55.5491H48.7075V55.5059C49.0405 47.6363 49.4337 38.3483 49.8535 28.4339V28.3715H49.8995L69.8759 29.9387H69.9166V29.9939C69.5624 38.1179 69.2666 44.8883 69.0611 49.6331C68.9548 51.9971 68.8734 53.8547 68.8167 55.1267C68.7883 55.7555 68.7653 56.2403 68.7512 56.5667C68.7423 56.7275 68.737 56.8499 68.7317 56.9363C68.7264 57.0227 68.7193 57.0563 68.7193 57.0563Z"
    fill="#263238" />
  <path
    d="M56.6906 37.1795C56.1941 36.2177 55.4429 35.5523 54.5934 35.3219C54.5152 35.2894 54.4309 35.2963 54.3561 35.3411C54.3136 35.3895 54.2815 35.4525 54.2631 35.5234C54.2448 35.5943 54.2408 35.6706 54.2516 35.7443C54.2888 36.8435 54.5877 37.8968 55.1036 38.7467C55.6345 39.6129 56.3494 40.2363 57.1511 40.5323L57.16 40.4099C57.2473 39.8565 57.2507 39.2848 57.17 38.7295C57.0893 38.1742 56.9262 37.6469 56.6906 37.1795Z"
    fill="#455A64" />
  <path
    d="M59.413 36.066C59.4236 36.0876 59.1739 36.2844 58.8179 36.6852C58.6097 36.9193 58.4143 37.1735 58.2333 37.446C58.0123 37.7796 57.8115 38.1367 57.6329 38.514C57.4585 38.8975 57.3063 39.2987 57.1777 39.714C57.0753 40.0529 56.9901 40.4009 56.9226 40.7556C56.8092 41.3628 56.7844 41.754 56.7667 41.7516C56.7582 41.6599 56.7582 41.5672 56.7667 41.4756C56.7707 41.3684 56.7802 41.2618 56.7951 41.1564C56.8092 41.0316 56.8234 40.89 56.8517 40.7364C56.9109 40.373 56.9914 40.0167 57.0926 39.6708C57.218 39.2481 57.3703 38.8409 57.5479 38.454C57.7298 38.071 57.9354 37.7097 58.1625 37.374C58.3499 37.1021 58.5531 36.8509 58.77 36.6228C58.8586 36.522 58.9472 36.4452 59.0251 36.3828C59.0896 36.3195 59.1571 36.2617 59.227 36.21C59.2842 36.1514 59.3467 36.103 59.413 36.066Z"
    fill="#263238" />
  <path
    d="M51.476 48.8987C52.3403 51.5771 53.6653 53.4395 55.3976 53.6603C55.743 53.7035 56.0175 53.4203 56.3505 53.4203C56.5407 53.4919 56.723 53.5977 56.8925 53.7347C56.9825 53.7942 57.0797 53.8308 57.1795 53.8427C58.9773 53.8571 60.5732 52.3427 61.7174 49.6907C63.3116 45.9755 63.0459 41.8307 61.1223 40.4267C60.8691 40.2361 60.6042 40.0755 60.3305 39.9467C60.0142 39.8088 59.685 39.7329 59.3528 39.7211C58.7435 39.6899 58.0367 39.8483 57.0785 40.2011L56.9793 40.2371C55.4117 39.1931 54.1276 39.0875 52.8505 39.7571C50.8188 40.8827 50.206 44.9603 51.476 48.8987Z"
    fill="#E14242" />
  <path
    d="M51.6761 45.0251C51.5916 44.7801 51.5469 44.5133 51.5451 44.2428C51.5139 43.5907 51.6027 42.9383 51.8037 42.3443C52.0038 41.7423 52.3075 41.2139 52.6893 40.8035C52.8451 40.6224 53.0256 40.4846 53.2207 40.3979C53.2331 40.4267 53.0276 40.5755 52.7531 40.8995C52.4013 41.3204 52.1183 41.8362 51.9224 42.4139C51.7309 42.9869 51.6324 43.609 51.6336 44.2379C51.646 44.7227 51.7009 45.0179 51.6761 45.0251Z"
    fill="#FAFAFA" />
  <path
    d="M51.9613 46.866C51.9241 46.866 51.8692 46.6884 51.8373 46.4508C51.8054 46.2132 51.8107 46.0164 51.8479 46.0068C51.8851 45.9972 51.94 46.1844 51.9719 46.422C52.0038 46.6596 51.9985 46.866 51.9613 46.866Z"
    fill="#FAFAFA" />
  <path
    d="M55.5144 36.9155C55.8065 37.4304 56.075 37.969 56.3186 38.5283C56.5867 39.0668 56.8293 39.6279 57.0448 40.2083C56.7517 39.6944 56.4831 39.1557 56.2406 38.5955C55.972 38.0573 55.7294 37.4961 55.5144 36.9155Z"
    fill="#263238" />
  <g opacity="0.3">
    <path
      d="M62.0043 42.9443C61.7847 41.8595 60.8867 40.4147 60.187 40.4603C60.049 40.4449 59.9108 40.4881 59.7918 40.5841C59.6727 40.68 59.5787 40.8238 59.5228 40.9955C59.4737 41.1857 59.453 41.3871 59.4618 41.5881C59.4706 41.7892 59.5088 41.9858 59.5742 42.1667C59.7062 42.5268 59.8566 42.874 60.0241 43.2059C60.3481 43.9392 60.554 44.7572 60.6281 45.6059C60.6376 45.8445 60.6709 46.0803 60.7273 46.3067C60.7559 46.4195 60.8058 46.5202 60.872 46.5989C60.9381 46.6776 61.0183 46.7316 61.1045 46.7555C61.3561 46.7963 61.5598 46.4915 61.6873 46.1963C62.107 45.2122 62.2211 44.0424 62.0043 42.9443Z"
      fill="white" />
  </g>
  <path
    d="M60.8902 38.3795C60.8452 38.4016 60.7974 38.411 60.7496 38.4073C60.7018 38.4036 60.655 38.3868 60.6122 38.3579C60.5688 38.3306 60.5299 38.2916 60.4979 38.2433C60.466 38.1951 60.4416 38.1385 60.4262 38.0771C60.4102 38.0165 60.4033 37.9521 60.406 37.8877C60.4088 37.8234 60.421 37.7605 60.4421 37.7027C60.5519 37.3955 60.6972 36.9227 60.8796 36.2891C61.0621 35.6555 61.1914 35.2283 61.2675 35.0075C61.3065 34.8827 61.4606 34.4339 61.7334 33.6635C62.0061 32.8931 62.1904 32.2907 62.3356 31.8179C62.3708 31.6958 62.4402 31.5974 62.5287 31.5443C62.5722 31.5183 62.6192 31.5048 62.6668 31.5048C62.7144 31.5048 62.7615 31.5183 62.805 31.5443C62.8462 31.5668 62.884 31.5994 62.9166 31.6403C62.9614 31.6648 63.0017 31.7025 63.0345 31.7506C63.0673 31.7988 63.0917 31.8562 63.1061 31.9187L64.6329 38.0147C64.6494 38.0766 64.6564 38.1424 64.6533 38.208C64.6503 38.2737 64.6373 38.3378 64.6152 38.3963C64.595 38.4551 64.5663 38.5078 64.5306 38.5511C64.495 38.5944 64.4533 38.6275 64.408 38.6483C64.363 38.6704 64.3151 38.6798 64.2673 38.6761C64.2195 38.6724 64.1728 38.6556 64.1299 38.6267C64.0882 38.5981 64.051 38.5585 64.0206 38.5103C63.9902 38.4621 63.9671 38.4063 63.9528 38.3459L63.4958 36.4259H63.1663C62.5216 36.4091 62.0168 36.3851 61.6484 36.3563C61.398 37.1915 61.2179 37.7835 61.1081 38.1323C61.0864 38.1917 61.0558 38.2443 61.0183 38.2868C60.9808 38.3294 60.9372 38.3609 60.8902 38.3795ZM63.2443 35.4443L62.6845 33.2627L61.9548 35.3819C62.348 35.4059 62.7767 35.4275 63.2443 35.4443Z"
    fill="#263238" />
  <path
    d="M66.4007 38.8308C66.1961 38.8292 65.9933 38.778 65.802 38.6796C65.5698 38.557 65.3644 38.3567 65.2048 38.0973C65.0453 37.8379 64.9369 37.528 64.8898 37.1964C64.8335 36.8259 64.8469 36.4421 64.9288 36.0804C65.0133 35.7486 65.1294 35.4331 65.2742 35.142C65.4088 34.8622 65.5688 34.6066 65.7507 34.3812C65.9229 34.174 66.1176 34.004 66.3281 33.8772C66.5369 33.747 66.7665 33.6901 66.9959 33.7116C67.2462 33.743 67.4882 33.8496 67.7044 34.0236C67.7478 34.06 67.7882 34.1026 67.8248 34.1508L67.9364 34.2948L68.025 34.4292C68.0404 34.4497 68.0535 34.4731 68.0639 34.4988C68.0989 34.5452 68.1264 34.601 68.1447 34.6625C68.163 34.7241 68.1717 34.7901 68.1702 34.8564C68.2167 35.2638 68.2404 35.6754 68.2411 36.0876C68.2411 36.5148 68.2304 36.9156 68.2074 37.2876C68.1844 37.6596 68.1702 38.058 68.1684 38.4876C68.1683 38.5499 68.1586 38.6115 68.14 38.6685C68.1214 38.7255 68.0943 38.7767 68.0604 38.8188C68.0264 38.8633 67.9861 38.8981 67.942 38.9212C67.8979 38.9443 67.8508 38.9552 67.8036 38.9532C67.7564 38.9543 67.7095 38.9419 67.6662 38.9166C67.6228 38.8914 67.5839 38.854 67.552 38.8068C67.5193 38.7625 67.4934 38.7097 67.4761 38.6516C67.4587 38.5934 67.4502 38.5311 67.4511 38.4684V38.3244C67.3168 38.4994 67.1577 38.6357 66.9835 38.7252C66.7946 38.802 66.5979 38.8376 66.4007 38.8308ZM66.8807 37.7604C66.9371 37.7295 66.9921 37.6943 67.0455 37.6548C67.1196 37.6031 67.1907 37.5437 67.258 37.4772C67.3367 37.4003 67.406 37.3071 67.4635 37.2012L67.5007 37.1652C67.5411 36.4623 67.5305 35.7557 67.4688 35.0556C67.4556 35.0284 67.4408 35.0027 67.4245 34.9788C67.4127 34.9617 67.402 34.9432 67.3926 34.9236C67.3855 34.9087 67.3757 34.8963 67.3643 34.8876L67.3271 34.8492C67.2204 34.7582 67.0988 34.7043 66.9731 34.6921C66.8473 34.68 66.7213 34.71 66.6062 34.7796C66.3125 34.952 66.0651 35.2428 65.8977 35.6124C65.7159 35.9414 65.6016 36.3298 65.5664 36.738C65.5588 36.8919 65.5765 37.0462 65.6181 37.1898C65.6598 37.3334 65.7244 37.4627 65.8073 37.5684C65.9191 37.7057 66.0573 37.7973 66.2059 37.8324C66.3686 37.8815 66.5373 37.8815 66.7001 37.8324C66.7616 37.8148 66.822 37.7907 66.8807 37.7604Z"
    fill="#263238" />
  <path
    d="M59.8593 31.3763C60.5284 31.3763 61.0709 30.6414 61.0709 29.7347C61.0709 28.8281 60.5284 28.0931 59.8593 28.0931C59.1902 28.0931 58.6478 28.8281 58.6478 29.7347C58.6478 30.6414 59.1902 31.3763 59.8593 31.3763Z"
    fill="#E14242" />
  <path
    d="M60.6441 29.6939C60.6441 29.6939 60.644 29.6027 60.6033 29.4539C60.5572 29.2411 60.4608 29.0547 60.3288 28.9236C60.2325 28.8282 60.1204 28.7667 60.0023 28.7445C59.8842 28.7223 59.7639 28.7401 59.6521 28.7964C59.516 28.8641 59.3984 28.9868 59.3154 29.148C59.2323 29.3092 59.1878 29.501 59.1878 29.6975C59.1878 29.8941 59.2323 30.0859 59.3154 30.2471C59.3984 30.4083 59.516 30.531 59.6521 30.5987C59.7639 30.655 59.8842 30.6728 60.0023 30.6506C60.1204 30.6284 60.2325 30.5669 60.3288 30.4716C60.4609 30.3395 60.5573 30.1523 60.6033 29.9387C60.637 29.7875 60.637 29.6987 60.6441 29.6987C60.6603 29.7821 60.6603 29.8698 60.6441 29.9531C60.6084 30.1873 60.5123 30.3967 60.373 30.5436C60.2694 30.6538 60.1468 30.7267 60.0168 30.7557C59.8867 30.7846 59.7534 30.7686 59.6291 30.7091C59.4751 30.6354 59.3417 30.4987 59.2474 30.318C59.1531 30.1372 59.1024 29.9213 59.1024 29.7C59.1024 29.4786 59.1531 29.2627 59.2474 29.0819C59.3417 28.9012 59.4751 28.7645 59.6291 28.6908C59.7532 28.6301 59.8868 28.6136 60.017 28.6425C60.1472 28.6715 60.2697 28.7451 60.373 28.8564C60.5118 29.0028 60.6079 29.2111 60.6441 29.4444C60.6596 29.5262 60.6596 29.6121 60.6441 29.6939Z"
    fill="#263238" />
  <path
    d="M50.0802 65.4084C50.0802 65.4084 48.1708 65.1444 47.6093 65.7372C47.0478 66.33 46.651 69.3516 46.6457 69.8436C46.628 71.5836 47.5668 74.3388 47.5668 74.3388C47.5668 74.3388 49.795 72.9852 49.3983 70.6164C49.0015 68.2476 48.5038 68.2164 48.5038 68.2164L48.5658 67.398C48.5658 67.398 49.4904 67.6044 49.9066 66.7572C50.3229 65.91 50.0802 65.4084 50.0802 65.4084Z"
    fill="#FFBF9D" />
  <path
    d="M52.4998 59.9843C52.4998 59.9843 51.8125 59.2524 50.8348 61.4796C49.8571 63.7068 48.5038 66.5196 48.5038 66.5196L48.1053 69.0012C48.1053 69.0012 48.5038 72.2172 48.4826 72.1212C48.4613 72.0252 47.5668 74.3219 47.5668 74.3219L51.6212 76.4075C51.6212 76.4075 53.125 74.2931 53.5608 72.8843C53.9965 71.4755 54.914 68.3723 54.914 68.3723C54.914 68.3723 55.1018 67.2996 54.6855 66.8196C54.2693 66.3396 53.3323 66.5796 53.3323 66.5796C53.3323 66.5796 53.4155 65.5404 52.916 65.3412C52.6475 65.2152 52.3556 65.2152 52.0871 65.3412C52.0871 65.3412 52.2819 64.5491 51.6212 64.0115C51.6212 64.0115 52.6256 61.3043 52.684 61.1915C52.7746 60.9972 52.806 60.7627 52.7717 60.5376C52.7373 60.3124 52.6399 60.1141 52.4998 59.9843Z"
    fill="#FFBF9D" />
  <path
    d="M52.0002 65.3459C51.9678 65.4238 51.9305 65.4976 51.8886 65.5667L51.5521 66.1595L50.3707 68.1851L50.3583 68.2043H50.3423C50.1575 68.2425 49.9691 68.2352 49.7861 68.1827C49.6861 68.1521 49.5924 68.0918 49.5115 68.0064C49.4307 67.9209 49.3648 67.8123 49.3185 67.6883C49.2595 67.5242 49.2321 67.3426 49.2388 67.1603V67.1483L49.2548 67.1171C49.2742 67.0787 49.315 66.9947 49.3416 66.9323L49.4337 66.7283C49.4957 66.5963 49.5541 66.4643 49.6108 66.3371C49.7312 66.0803 49.8499 65.8355 49.965 65.6171C50.076 65.401 50.1973 65.1949 50.3281 65.0003C50.4435 64.8322 50.5731 64.6832 50.7143 64.5563C50.9162 64.3758 51.1332 64.2283 51.3608 64.1171C51.4419 64.0706 51.527 64.0384 51.6141 64.0211C51.6141 64.0211 51.5273 64.0691 51.3732 64.1603C51.1564 64.2863 50.9499 64.4423 50.7568 64.6259C50.4713 64.9144 50.228 65.2725 50.0394 65.6819C49.9225 65.9075 49.8074 66.1499 49.6852 66.4019L49.5081 66.7955L49.4159 66.9995C49.3852 67.075 49.3502 67.1472 49.3114 67.2155L49.3274 67.1723C49.3233 67.3322 49.3476 67.491 49.3982 67.6355C49.4383 67.7437 49.4956 67.8383 49.5661 67.9127C49.6366 67.987 49.7184 68.0391 49.8056 68.0651C49.9769 68.1137 50.1531 68.1218 50.3264 68.0891L50.298 68.1107L51.506 66.1115L51.8603 65.5403C51.9021 65.4694 51.949 65.4043 52.0002 65.3459Z"
    fill="#FF9A6C" />
  <path
    d="M53.3252 66.5844C53.276 66.6435 53.2226 66.6957 53.1658 66.7403C53.063 66.8363 52.9125 66.9803 52.7353 67.1651C52.5282 67.3826 52.335 67.6234 52.1579 67.8851C51.9613 68.1803 51.8036 68.5692 51.5752 68.934C51.4686 69.1155 51.35 69.2834 51.2209 69.4356C51.0998 69.5895 50.9474 69.6907 50.7834 69.7259C50.7072 69.7322 50.6309 69.7162 50.5597 69.6789C50.4884 69.6416 50.424 69.584 50.3707 69.51C50.2713 69.3968 50.1956 69.2503 50.1511 69.0851C50.1218 68.9669 50.1114 68.8415 50.1205 68.7174C50.1297 68.5933 50.1582 68.4732 50.2042 68.3651C50.2315 68.2822 50.2735 68.2097 50.3264 68.154C50.3264 68.154 50.2874 68.2332 50.2361 68.394C50.1986 68.4983 50.1771 68.6118 50.1729 68.7277C50.1686 68.8436 50.1817 68.9595 50.2113 69.0684C50.2568 69.2162 50.3286 69.3464 50.4203 69.4475C50.4665 69.5098 50.5221 69.5578 50.5832 69.5885C50.6443 69.6191 50.7096 69.6316 50.7745 69.6251C50.9209 69.5885 51.0563 69.4952 51.1642 69.3563C51.2869 69.2097 51.4001 69.0491 51.5025 68.8763C51.7186 68.5211 51.8851 68.1348 52.0941 67.83C52.2756 67.5628 52.4768 67.3216 52.6946 67.11C52.8391 66.9656 52.9899 66.8333 53.1463 66.714C53.2002 66.6576 53.2606 66.6138 53.3252 66.5844Z"
    fill="#FF9A6C" />
  <path
    d="M53.2525 66.6467C53.1198 66.8055 52.9808 66.9545 52.8363 67.0931C52.7052 67.2275 52.5493 67.3931 52.3811 67.5851C52.2944 67.6777 52.2236 67.7948 52.1738 67.9283C52.1475 67.9936 52.1346 68.0672 52.1365 68.1415C52.1384 68.2158 52.1549 68.2881 52.1845 68.3507L52.1951 68.3723V68.3963C52.2008 68.4523 52.2184 68.5048 52.2457 68.5475C52.2731 68.5901 52.3091 68.621 52.3492 68.6363C52.614 68.7222 52.8924 68.6841 53.1392 68.5283C53.3508 68.4183 53.5553 68.2842 53.7503 68.1275L53.8247 68.0675L53.7981 68.1803C53.7869 68.2304 53.7844 68.2834 53.7908 68.3351C53.7973 68.3867 53.8125 68.4356 53.8353 68.4779C53.8726 68.5452 53.9196 68.6016 53.9734 68.6435C54.0242 68.6751 54.0733 68.7111 54.1205 68.7515C54.0632 68.7468 54.0075 68.7247 53.9575 68.6867C53.895 68.6471 53.8394 68.5898 53.7945 68.5187C53.7639 68.4678 53.7426 68.4077 53.7325 68.3435C53.7223 68.2792 53.7236 68.2126 53.7361 68.1491L53.7839 68.2019C53.5903 68.3743 53.3844 68.5198 53.1693 68.6363C52.9035 68.8093 52.6013 68.8501 52.3155 68.7515C52.256 68.7274 52.2036 68.6784 52.1658 68.6117C52.128 68.5449 52.1066 68.4637 52.1048 68.3795L52.1154 68.4251C52.0742 68.3445 52.0504 68.2499 52.0466 68.152C52.0429 68.0541 52.0593 67.9567 52.0941 67.8707C52.1511 67.723 52.2316 67.5944 52.3297 67.4939C52.5068 67.3043 52.6645 67.1483 52.8009 67.0139C52.9415 66.8703 53.0929 66.7472 53.2525 66.6467Z"
    fill="#FF9A6C" />
  <path
    d="M50.1847 65.346C49.862 65.4148 49.5353 65.4437 49.2088 65.4323C48.8827 65.4613 48.5554 65.4492 48.231 65.3964C48.5536 65.3257 48.8803 65.2959 49.207 65.3076C49.5331 65.2774 49.8605 65.2903 50.1847 65.346Z"
    fill="#FF9A6C" />
  <path
    d="M49.0581 72.6659C49.0733 72.5773 49.094 72.4906 49.1201 72.4067C49.1763 72.1701 49.2236 71.9298 49.2618 71.6867C49.3205 71.3327 49.3538 70.9718 49.361 70.6091C49.3662 70.3989 49.3459 70.1889 49.3008 69.9875C49.247 69.7712 49.1795 69.5616 49.0989 69.3611C48.9145 68.8786 48.6686 68.4439 48.3727 68.0771L48.3496 68.0507L48.3603 68.0171C48.463 67.6787 48.5817 67.4123 48.6525 67.1771L48.6632 67.1411H48.688C48.8375 67.1966 48.9954 67.1966 49.1449 67.1411C49.2512 67.1003 49.3044 67.0595 49.3079 67.0667C49.2642 67.1202 49.2121 67.1596 49.1556 67.1819C49.0016 67.2607 48.8338 67.2749 48.6738 67.2227L48.7092 67.1963C48.6437 67.4483 48.5321 67.7243 48.4364 68.0459L48.424 67.9859C48.7343 68.355 48.9908 68.7994 49.1804 69.2963C49.2636 69.5032 49.3323 69.7202 49.3858 69.9443C49.4341 70.1579 49.4545 70.3813 49.4461 70.6043C49.4349 70.9739 49.3945 71.3408 49.3256 71.6987C49.2795 71.9403 49.2203 72.177 49.1485 72.4067C49.1288 72.4991 49.0983 72.5867 49.0581 72.6659Z"
    fill="#FF9A6C" />
  <path
    d="M29.2004 41.9411C28.4748 38.1645 26.7155 34.9038 24.2798 32.8211L24.4995 32.6147C22.2535 31.5635 19.5027 33.3587 18.7074 36.3947C18.3815 37.6403 18.3532 38.9891 18.2079 40.2947C18.0627 41.6003 17.735 42.9587 16.9804 43.7987C16.5784 44.2451 16.0824 44.5187 15.6626 44.9243C15.2428 45.3299 14.8815 45.9971 14.9541 46.6931C15.0657 47.5859 15.799 48.0659 16.4597 48.1859C17.1204 48.3059 17.8271 48.2027 18.4081 48.6203C18.1926 48.8568 18.0142 49.1493 17.8833 49.4805C17.7524 49.8116 17.6715 50.1749 17.6456 50.549C17.6196 50.923 17.649 51.3004 17.7321 51.6588C17.8152 52.0173 17.9502 52.3496 18.1294 52.6364C18.3085 52.9232 18.5281 53.1587 18.7752 53.329C19.0224 53.4993 19.2922 53.601 19.5687 53.6282C19.8453 53.6554 20.1231 53.6075 20.3858 53.4873C20.6485 53.3671 20.8908 53.1771 21.0986 52.9283C20.7125 54.4235 21.3714 56.1851 22.4165 56.8979C23.4615 57.6107 24.7616 57.3779 25.7819 56.5979C26.8021 55.8179 27.5532 54.5171 28.1235 53.1347C29.518 49.724 29.903 45.7223 29.2004 41.9411Z"
    fill="#263238" />
  <path
    d="M43.2519 36.9611C43.112 35.8883 42.3663 35.1179 41.5816 34.8731C40.797 34.6283 39.9875 34.8035 39.1886 34.9787C39.4579 33.5747 39.7289 32.1251 39.573 30.6899C39.4171 29.2547 38.7193 27.8243 37.676 27.5051C36.7762 27.2291 35.8533 27.8147 35.1059 28.5467C34.3584 29.2787 33.6888 30.1739 32.8333 30.6659C30.6299 31.9475 28.081 30.1163 25.7146 30.6491C23.2862 31.1987 21.1624 34.8587 21.4334 38.1755C25.3302 40.3787 29.2748 42.6083 32.7235 45.9227C34.5869 47.7155 36.5831 49.9307 38.8503 49.5395C39.5595 49.4164 40.2309 49.036 40.7936 48.4384C41.3563 47.8408 41.7894 47.0484 42.0471 46.1448C42.3047 45.2412 42.3774 44.26 42.2575 43.305C42.1375 42.3501 41.8293 41.4567 41.3655 40.7195C42.3433 39.8195 43.4592 38.5451 43.2519 36.9611Z"
    fill="#263238" />
  <path
    d="M39.155 44.2404C39.0115 39.9204 35.6337 35.5164 32.4508 35.8932L23.5678 38.226L23.2366 40.326V69.7836C23.2366 69.7836 23.1144 78.7236 28.9047 78.3348C34.1051 77.9868 33.9191 70.5444 33.9191 70.542L33.866 64.4292C33.866 64.4292 38.0763 64.6212 39.0169 57.4404C39.4862 53.8692 39.3073 49.0452 39.155 44.2404Z"
    fill="#FFBF9D" />
  <path
    d="M37.8513 50.4347C37.85 50.6757 37.7792 50.9063 37.6541 51.0776C37.5291 51.2489 37.3596 51.3472 37.1818 51.3515C37.095 51.359 37.0079 51.3428 36.9258 51.3038C36.8437 51.2648 36.7682 51.2039 36.7038 51.1247C36.6394 51.0455 36.5873 50.9495 36.5508 50.8425C36.5142 50.7356 36.4939 50.6197 36.491 50.5019C36.4919 50.2612 36.5623 50.0305 36.687 49.8592C36.8118 49.6879 36.9811 49.5895 37.1588 49.5851C37.2457 49.5777 37.3328 49.5939 37.415 49.6328C37.4972 49.6718 37.5729 49.7326 37.6374 49.8118C37.702 49.891 37.7542 49.987 37.7909 50.094C37.8276 50.2009 37.8482 50.3168 37.8513 50.4347Z"
    fill="#263238" />
  <path
    d="M38.1596 48.0468C38.0746 48.1668 37.5644 47.6364 36.8311 47.6196C36.0978 47.6028 35.554 48.0996 35.4743 47.9652C35.4371 47.91 35.5257 47.694 35.7631 47.4684C36.085 47.1796 36.4646 47.0313 36.8506 47.0436C37.2337 47.0452 37.6062 47.2134 37.9134 47.5236C38.1295 47.7756 38.2021 47.994 38.1596 48.0468Z"
    fill="#263238" />
  <path
    d="M31.4287 50.4371C31.4269 50.6776 31.3559 50.9077 31.2309 51.0785C31.1059 51.2492 30.9366 51.3472 30.7592 51.3515C30.6724 51.3587 30.5854 51.3422 30.5034 51.3031C30.4214 51.264 30.346 51.2031 30.2817 51.1239C30.2173 51.0448 30.1653 50.9489 30.1286 50.8421C30.092 50.7353 30.0715 50.6196 30.0684 50.5019C30.0693 50.2612 30.1396 50.0305 30.2644 49.8592C30.3892 49.6879 30.5585 49.5895 30.7361 49.5851C30.8232 49.5777 30.9105 49.594 30.9928 49.6331C31.0751 49.6722 31.1508 49.7332 31.2154 49.8127C31.28 49.8921 31.3321 49.9883 31.3688 50.0956C31.4054 50.2029 31.4258 50.319 31.4287 50.4371Z"
    fill="#263238" />
  <path
    d="M31.4092 48.0371C31.3225 48.1547 30.8123 47.6243 30.079 47.6099C29.3457 47.5955 28.8019 48.0899 28.724 47.9531C28.685 47.8979 28.7736 47.6843 29.0127 47.4587C29.3333 47.1676 29.7128 47.0191 30.0985 47.0339C30.4814 47.0366 30.8537 47.2048 31.1613 47.5139C31.3774 47.7635 31.45 47.9843 31.4092 48.0371Z"
    fill="#263238" />
  <path
    d="M33.9174 54.8004C33.9174 54.7572 33.9634 54.7212 34.7056 54.63C34.8933 54.6108 35.0705 54.5748 35.1059 54.4404C35.1413 54.306 35.0793 54.0852 34.9943 53.8548L34.4753 52.35C34.2787 51.8028 33.7526 50.0676 33.7473 49.7724C33.8306 49.7412 34.0555 50.0964 34.7747 52.2396L35.2706 53.754C35.3361 53.9772 35.4477 54.234 35.3503 54.5268C35.3153 54.6012 35.2691 54.6649 35.2148 54.7137C35.1605 54.7625 35.0993 54.7953 35.035 54.81C34.9301 54.8391 34.8233 54.8536 34.7162 54.8532C33.9723 54.8868 33.9174 54.8004 33.9174 54.8004Z"
    fill="#263238" />
  <path
    d="M33.8677 64.3859C31.3639 64.3756 28.9112 63.4244 26.7827 61.6379C26.7827 61.6379 28.5344 66.7091 33.8677 66.1667V64.3859Z"
    fill="#FF9A6C" />
  <path
    d="M31.2109 44.7059C31.1205 45.0107 30.4935 44.7659 29.7283 44.8187C28.9631 44.8715 28.3237 45.1499 28.2475 44.8523C28.2139 44.7107 28.3432 44.4323 28.6124 44.1635C28.9463 43.8446 29.3413 43.6637 29.7496 43.6427C30.1455 43.617 30.5376 43.7596 30.8708 44.0507C31.1294 44.3027 31.2498 44.5691 31.2109 44.7059Z"
    fill="#263238" />
  <path
    d="M38.2304 44.634C38.1064 44.91 37.5644 44.6724 36.9268 44.7084C36.2891 44.7444 35.7577 44.9748 35.6213 44.7084C35.5611 44.5788 35.6355 44.3052 35.8622 44.034C36.1548 43.7053 36.5219 43.523 36.902 43.518C37.2845 43.5017 37.6596 43.6634 37.9647 43.9764C38.2003 44.226 38.2853 44.4972 38.2304 44.634Z"
    fill="#263238" />
  <path
    d="M38.7458 40.1459C37.8212 37.6595 36.0198 35.8931 34.0555 35.0795C32.0911 34.2659 29.9709 34.3379 27.9534 34.8611C25.936 35.3843 23.9947 36.3419 22.0657 37.2971C21.5981 37.5371 21.088 37.8083 20.8595 38.4083C20.7308 38.8343 20.6833 39.2973 20.7214 39.7547C20.8028 43.6139 20.8849 47.4731 20.9676 51.3323L21.692 53.7323C22.6148 53.7755 23.4101 52.8899 24.0301 51.9635C26.2053 48.6792 27.3675 44.3891 27.2768 39.9779C27.5425 40.4579 27.6151 41.0915 27.7515 41.6699C27.8879 42.2483 28.1412 42.8483 28.5699 43.0211C29.2784 43.3091 29.9125 42.2219 30.0435 41.2259C30.1746 40.2299 30.0701 39.1355 30.4492 38.2619C31.1556 39.7292 32.0985 40.9601 33.207 41.8619C33.7278 42.2819 34.4221 42.6155 34.9075 42.1211C35.2493 41.7707 35.3467 41.1059 35.2529 40.5371C35.133 39.9771 34.9352 39.4533 34.6701 38.9939C35.5304 40.3239 36.658 41.2855 37.9151 41.7611C38.1896 41.8643 38.5102 41.9339 38.7352 41.6963C39.0522 41.3459 38.9318 40.6475 38.7458 40.1459Z"
    fill="#263238" />
  <path
    d="M23.4811 49.8035C23.4013 49.7555 20.2308 48.4475 20.2928 52.8467C20.3548 57.2459 23.605 56.2451 23.6104 56.1203C23.6157 55.9955 23.4811 49.8035 23.4811 49.8035Z"
    fill="#FFBF9D" />
  <path
    d="M21.3696 53.1971C21.3696 53.1131 21.3537 53.0267 21.3502 52.9379C21.3368 52.5611 21.3852 52.1848 21.4919 51.8363C21.5205 51.6983 21.5732 51.5717 21.6457 51.4672C21.7182 51.3627 21.8082 51.2835 21.9081 51.2363C21.973 51.2115 22.0422 51.218 22.104 51.2548C22.1657 51.2916 22.2161 51.3563 22.2464 51.4379C22.2907 51.5603 22.2712 51.6467 22.2889 51.6539C22.3066 51.6611 22.358 51.5795 22.3297 51.3971C22.3092 51.289 22.2624 51.1934 22.1968 51.1259C22.1058 51.0367 21.9926 50.9996 21.8815 51.0227C21.6318 51.0539 21.4121 51.3731 21.3023 51.7211C21.1701 52.1058 21.1093 52.5285 21.1252 52.9523C21.1589 53.8403 21.506 54.6587 21.979 54.8291C22.0666 54.861 22.1583 54.866 22.2475 54.8435C22.3367 54.8211 22.4211 54.7719 22.4944 54.6995C22.5936 54.5867 22.6095 54.4883 22.5971 54.4811C22.5847 54.4739 22.5422 54.5363 22.4466 54.5987C22.3137 54.6804 22.1625 54.689 22.025 54.6227C21.7168 54.4787 21.4458 53.8835 21.3696 53.1971Z"
    fill="#FF9A6C" />
  <path
    d="M33.7225 56.9747L31.5775 55.2659C31.55 55.2368 31.5182 55.216 31.4843 55.2048C31.4504 55.1937 31.4152 55.1924 31.3809 55.2011C31.3367 55.2283 31.3006 55.2748 31.2781 55.3331C31.1329 55.6481 31.0532 56.0105 31.0476 56.3819C31.042 56.7533 31.1106 57.1198 31.2463 57.4427C31.3772 57.7434 31.5697 57.9863 31.8005 58.1418C32.0312 58.2973 32.2903 58.3587 32.5464 58.3187C33.0919 58.2707 33.5099 57.6587 33.7225 56.9771V56.9747Z"
    fill="#FF9A6C" />
  <path
    d="M33.2319 57.9179C33.164 57.9979 33.0868 58.0619 33.0034 58.1075C32.782 58.2479 32.5392 58.3153 32.2949 58.3043C32.1236 58.2916 31.9555 58.2362 31.7989 58.1411C31.6228 58.0238 31.4628 57.8663 31.326 57.6755C31.165 57.4702 31.0434 57.2149 30.9717 56.9315C30.9002 56.6254 30.8959 56.2977 30.9593 55.9883C30.991 55.8339 31.0343 55.6843 31.0886 55.5419C31.1128 55.4654 31.147 55.3954 31.1896 55.3355C31.234 55.2743 31.2896 55.2304 31.3508 55.2083C31.4089 55.188 31.4698 55.188 31.5279 55.2083C31.5834 55.2299 31.6359 55.2631 31.6838 55.3067L31.9513 55.5203L32.8741 56.2643L33.4923 56.7755C33.5701 56.833 33.6436 56.9005 33.7119 56.9771C33.6299 56.9327 33.5505 56.8798 33.4745 56.8187L32.8422 56.3387L31.9087 55.6187L31.6395 55.4075C31.5986 55.3707 31.5538 55.3424 31.5067 55.3235C31.4614 55.3068 31.4137 55.3068 31.3685 55.3235C31.3223 55.3405 31.2802 55.3736 31.2463 55.4195C31.2115 55.4712 31.1834 55.5304 31.163 55.5947C31.112 55.7302 31.0716 55.8725 31.0426 56.0195C30.9825 56.3056 30.9855 56.6093 31.0515 56.8931C31.1148 57.1572 31.2241 57.3968 31.3703 57.5915C31.4984 57.7762 31.6495 57.9289 31.8166 58.0427C31.9629 58.1378 32.1208 58.1956 32.2825 58.2131C32.5201 58.233 32.7579 58.1805 32.9786 58.0595C33.1469 57.9779 33.2283 57.9059 33.2319 57.9179Z"
    fill="#263238" />
  <path
    d="M26.5169 36.8363C26.5169 36.8363 26.517 36.8531 26.5276 36.8891C26.5382 36.9251 26.54 36.9851 26.5506 37.0475C26.5701 37.1867 26.5931 37.3955 26.6197 37.6643C26.6909 38.4235 26.7099 39.19 26.6764 39.9539C26.631 41.095 26.4172 42.2123 26.0476 43.2395C25.8424 43.8618 25.5198 44.3999 25.1123 44.7995C24.8874 45.0016 24.6297 45.1268 24.3613 45.1643C24.0828 45.205 23.8022 45.1207 23.5625 44.9243C23.2941 44.6774 23.0794 44.3377 22.9408 43.9403C22.807 43.571 22.698 43.1863 22.6148 42.7907L22.6857 42.8219C22.3527 43.1843 22.0852 43.6259 21.8001 44.0051C21.529 44.3892 21.1927 44.6776 20.8205 44.8451C20.652 44.92 20.4733 44.9429 20.2974 44.9122C20.1215 44.8815 19.9528 44.7979 19.8038 44.6675C19.5518 44.437 19.3592 44.1055 19.253 43.7195C19.1693 43.4071 19.1367 43.0738 19.1573 42.7427C19.1716 42.4977 19.2079 42.2559 19.2654 42.0227C19.3018 41.8771 19.3444 41.7345 19.3929 41.5955C19.4096 41.547 19.4291 41.5005 19.4514 41.4563C19.4391 41.5069 19.4249 41.5565 19.4088 41.6051C19.3647 41.7451 19.3268 41.8885 19.2955 42.0347C19.2442 42.269 19.2132 42.5107 19.2034 42.7547C19.1877 43.0764 19.2233 43.3989 19.3079 43.7003C19.412 44.0669 19.5977 44.3806 19.8393 44.5979C19.9806 44.7181 20.1399 44.7942 20.3056 44.8208C20.4714 44.8473 20.6394 44.8237 20.7975 44.7515C21.1556 44.584 21.4787 44.3025 21.7398 43.9307C22.0268 43.5539 22.2942 43.1099 22.6379 42.7307C22.6418 42.725 22.6466 42.7204 22.652 42.7173C22.6573 42.7141 22.6631 42.7125 22.6689 42.7125C22.6747 42.7125 22.6804 42.7141 22.6858 42.7173C22.6911 42.7204 22.6959 42.725 22.6999 42.7307C22.7035 42.7374 22.7064 42.7446 22.7087 42.7523C22.7897 43.1401 22.897 43.5169 23.0293 43.8779C23.1607 44.2543 23.3637 44.5766 23.6174 44.8115C23.8381 45.0014 24.0993 45.0858 24.3595 45.0515C24.6128 45.0168 24.856 44.899 25.0681 44.7083C25.463 44.3206 25.7768 43.8004 25.9785 43.1987C26.3457 42.1867 26.5618 41.0865 26.6144 39.9611C26.6532 39.2015 26.6443 38.4387 26.5878 37.6811C26.5665 37.4123 26.5488 37.2011 26.5347 37.0643C26.5347 36.9995 26.5347 36.9467 26.5223 36.9035C26.5164 36.882 26.5146 36.859 26.5169 36.8363Z"
    fill="#455A64" />
  <path
    d="M35.4105 34.3211C35.4105 34.3211 35.3928 34.3811 35.3857 34.4915C35.3817 34.6581 35.4171 34.8221 35.4867 34.9595C35.5646 35.1491 35.6975 35.3483 35.8161 35.6219C35.8824 35.7672 35.9225 35.9317 35.933 36.1019C35.9355 36.2008 35.9233 36.2993 35.8971 36.3916C35.8709 36.484 35.8313 36.5683 35.7807 36.6395C35.6722 36.7974 35.5317 36.9084 35.3769 36.9587C35.2125 37.0093 35.0433 37.0239 34.8756 37.0019C34.5114 36.9597 34.1502 36.8795 33.7951 36.7619C32.9802 36.4988 32.2049 36.0474 31.5031 35.4275C31.2083 35.1691 30.9283 34.8811 30.6653 34.5659L30.7397 34.5347C30.657 35.0294 30.5383 35.5117 30.3854 35.9747C30.2422 36.4052 30.015 36.7744 29.7283 37.0427C29.4717 37.2903 29.154 37.3927 28.8426 37.3283C28.5763 37.2549 28.3307 37.081 28.1341 36.8267C27.9771 36.6214 27.844 36.3852 27.7391 36.1259C27.6607 35.9334 27.5909 35.7346 27.5301 35.5307C27.4805 35.3651 27.4469 35.2331 27.4239 35.1443C27.4105 35.1 27.3998 35.0542 27.392 35.0075C27.4113 35.0479 27.4268 35.0915 27.438 35.1371C27.4699 35.2331 27.5106 35.3579 27.5602 35.5139C27.7016 35.9827 27.9106 36.4086 28.1749 36.7667C28.3638 37.0048 28.5982 37.1661 28.8515 37.2323C29.1463 37.29 29.4461 37.1902 29.6875 36.9539C29.9598 36.6933 30.1746 36.3375 30.3092 35.9243C30.4553 35.4706 30.5686 34.9988 30.6476 34.5155C30.6505 34.4997 30.6579 34.4861 30.6682 34.4775C30.6784 34.469 30.6907 34.4663 30.7025 34.4699C30.7098 34.4723 30.7165 34.4773 30.722 34.4843C31.6086 35.5332 32.6679 36.2788 33.8111 36.6587C34.1604 36.7743 34.5157 36.8546 34.8738 36.8987C35.0335 36.9229 35.1951 36.9116 35.3521 36.8651C35.495 36.8229 35.6252 36.7234 35.7258 36.5795C35.7723 36.5168 35.8088 36.4419 35.8332 36.3593C35.8576 36.2768 35.8692 36.1884 35.8675 36.0995C35.8613 35.9388 35.8253 35.7829 35.763 35.6459C35.6532 35.3771 35.5239 35.1659 35.4477 34.9715C35.3789 34.8245 35.3483 34.6504 35.3609 34.4771C35.3649 34.4331 35.3739 34.3902 35.3875 34.3499C35.4034 34.3331 35.4087 34.3211 35.4105 34.3211Z"
    fill="#455A64" />
  <path
    d="M39.2577 70.4507L43.9941 81.8796C43.9941 81.8796 44.8797 78.6756 46.0045 77.274L47.1647 73.1579L52.0817 76.0379L51.1996 79.5563C51.1996 79.5563 52.2358 81.8819 51.2917 86.9963C50.8613 89.3339 50.0146 99.4499 44.0454 99.1115C41.2522 98.9531 37.9541 92.8715 37.2455 89.5763C36.537 86.2811 39.2577 70.4507 39.2577 70.4507Z"
    fill="#E14242" />
  <g opacity="0.3">
    <path
      d="M42.9916 89.7972C42.7737 84.8436 42.5045 79.6548 40.5632 75.45C40.5742 82.7563 41.0483 90.0479 41.9802 97.2444L42.8959 99.0372C43.259 95.9892 43.1262 92.8788 42.9916 89.7972Z"
      fill="black" />
  </g>
  <path
    d="M16.9185 70.8395C16.9185 70.8395 20.7568 68.0123 23.1764 66.8891L23.2295 65.3627C24.0868 66.2291 27.082 68.9075 30.0276 68.6171C33.0122 68.3219 33.9687 65.8499 33.9687 65.8499L34.2787 66.3683C35.4778 66.7595 39.9308 68.3219 40.7031 74.3387C41.5887 81.2291 42.2512 87.7547 42.717 95.8451C43.1634 103.609 43.2891 108.111 43.2891 108.111L20.2626 108.159L21.9347 92.9843L21.2846 78.7283L16.9185 70.8395Z"
    fill="#E14242" />
  <path
    d="M34.5143 67.2251C34.4969 67.2743 34.4748 67.3203 34.4487 67.3619C34.3832 67.4921 34.3122 67.6171 34.2362 67.7363C33.9589 68.1809 33.639 68.5731 33.285 68.9027C32.7612 69.3942 32.1822 69.7678 31.5704 70.0091C30.8235 70.3063 30.0454 70.4337 29.2678 70.3859C28.4896 70.3253 27.7205 70.1293 26.9793 69.8027C26.3756 69.5374 25.7886 69.2067 25.224 68.8139C24.7422 68.4827 24.3649 68.1803 24.1081 67.9643C23.9788 67.8563 23.8831 67.7675 23.8158 67.7075C23.7814 67.6793 23.7488 67.6472 23.7184 67.6115C23.7565 67.6304 23.7928 67.6553 23.8264 67.6859L24.1275 67.9259C24.3879 68.1299 24.7687 68.4059 25.2541 68.7395C25.8194 69.1186 26.405 69.4395 27.0059 69.6995C27.7402 70.0183 28.5014 70.2094 29.2713 70.2683C30.0365 70.3135 30.8021 70.1912 31.5385 69.9059C32.1442 69.6715 32.7191 69.3104 33.2425 68.8355C33.5953 68.5159 33.9178 68.1387 34.2025 67.7123C34.408 67.4003 34.5072 67.2179 34.5143 67.2251Z"
    fill="#263238" />
  <path
    d="M43.027 102.438C43.0215 102.414 43.0186 102.389 43.0181 102.364C43.0181 102.308 43.0181 102.236 43.0057 102.145C42.9969 101.944 42.9845 101.665 42.9667 101.305C42.9349 100.585 42.8853 99.5219 42.8144 98.2187C42.6763 95.6147 42.4389 92.0195 42.1059 88.0619C41.7729 84.1043 41.3974 80.5283 41.1069 77.9459C40.9599 76.6619 40.8412 75.6179 40.7527 74.8883C40.7119 74.5331 40.68 74.2547 40.6588 74.0579L40.6358 73.8395C40.6334 73.8148 40.6334 73.7898 40.6358 73.7651C40.643 73.7881 40.6477 73.8124 40.6499 73.8371C40.6594 73.8931 40.67 73.9651 40.6818 74.0531L40.7934 74.8811C40.889 75.6011 41.0201 76.6403 41.1724 77.9315C41.4771 80.5115 41.8579 84.0851 42.198 88.0475C42.5381 92.0099 42.7577 95.6051 42.8746 98.2259C42.9366 99.5291 42.9774 100.585 42.9969 101.315C43.0075 101.675 43.0146 101.956 43.0199 102.155C43.0199 102.246 43.0199 102.318 43.0199 102.376C43.0236 102.396 43.026 102.417 43.027 102.438Z"
    fill="#263238" />
  <path
    d="M43.9622 88.6259C43.94 88.5424 43.9263 88.4552 43.9215 88.3667C43.9002 88.1987 43.8754 87.9539 43.8506 87.6467C43.7826 86.8565 43.7483 86.0615 43.7479 85.2659C43.7459 84.4695 43.7909 83.6742 43.8825 82.8875C43.9197 82.5851 43.9569 82.3427 43.9888 82.1675C43.9998 82.0803 44.0194 81.9956 44.0472 81.9155C44.0614 81.9155 44.0047 82.2875 43.948 82.8899C43.8752 83.6748 43.8391 84.4652 43.84 85.2563C43.84 86.1827 43.8807 87.0203 43.9144 87.6275C43.9321 87.9083 43.9445 88.1483 43.9569 88.3475C43.9675 88.4396 43.9693 88.5332 43.9622 88.6259Z"
    fill="#263238" />
  <g opacity="0.3">
    <path
      d="M25.0255 108.205L29.1437 101.586C29.1437 101.586 30.6865 102.563 32.084 100.638C33.4816 98.7131 34.2999 94.5203 34.2999 94.5203H28.4211L23.1444 108.138L25.0255 108.205Z"
      fill="black" />
  </g>
  <path
    d="M23.5235 79.1267L12.8959 97.0043C12.6489 97.4191 12.5134 97.9353 12.5114 98.4682C12.5095 99.0011 12.6413 99.5191 12.8853 99.9371L19.4036 111.097C19.5213 111.298 19.6722 111.459 19.8442 111.567C20.0161 111.675 20.2043 111.727 20.3937 111.719C20.5565 111.711 20.7165 111.66 20.8641 111.566C21.0118 111.473 21.144 111.341 21.2528 111.176L32.6013 94.0859C32.8405 93.7089 32.972 93.2282 32.972 92.7311C32.972 92.234 32.8405 91.7533 32.6013 91.3763L24.8077 79.0595C24.7269 78.9332 24.6262 78.8332 24.513 78.7667C24.3998 78.7003 24.277 78.6691 24.1537 78.6756C24.0305 78.682 23.9098 78.7259 23.8008 78.804C23.6917 78.8821 23.5969 78.9924 23.5235 79.1267Z"
    fill="#455A64" />
  <path
    d="M33.177 90.8435L32.3622 89.4515C32.3622 89.4515 30.0737 88.1531 29.328 88.4435C28.5823 88.7339 27.3583 90.4619 26.5064 90.8963C25.6544 91.3307 24.1222 91.8299 24.1222 91.8299L24.3224 99.7691L26.772 98.8307C26.772 98.8307 28.848 100.705 30.18 100.633C31.512 100.561 31.7227 99.6251 31.7227 99.6251C31.7227 99.6251 33.2142 99.6251 33.161 97.4651C33.161 97.4651 34.385 97.1027 34.013 95.1563C34.013 95.1563 35.1838 95.2283 35.2901 93.8579C35.3964 92.4875 33.1327 92.1899 33.1327 92.1899C33.2586 92.0104 33.3324 91.7753 33.3406 91.5279C33.3487 91.2805 33.2906 91.0375 33.177 90.8435Z"
    fill="#FFBF9D" />
  <path
    d="M33.3966 92.4491C32.5342 91.97 31.6372 91.6145 30.7202 91.3883L30.7521 91.1483C31.6816 91.3767 32.5906 91.7379 33.4639 92.2259L33.3966 92.4491Z"
    fill="#FF9A6C" />
  <path
    d="M19.6905 70.7435C19.6905 70.7435 16.3499 67.8635 13.6894 76.8347C11.029 85.8059 8.76177 93.8147 8.55276 97.6019C8.3349 101.687 9.64563 104.972 14.1075 105.186C17.4149 105.31 20.6476 103.84 23.2295 101.036L26.579 100.237L26.0759 90.6371L23.0223 91.8179C23.0223 91.8179 20.5195 90.6707 18.9607 91.6355L23.164 79.6979C23.164 79.6979 24.1842 72.1043 19.6905 70.7435Z"
    fill="#E14242" />
  <path
    d="M14.6672 97.506C14.6809 97.3926 14.7035 97.2816 14.7345 97.1748C14.7639 97.046 14.7982 96.9195 14.8372 96.7956C14.8815 96.6516 14.9276 96.4812 14.9931 96.3156C15.1406 95.8982 15.3117 95.497 15.505 95.1156C15.9825 94.176 16.5828 93.3626 17.2763 92.7156C17.5575 92.451 17.8536 92.2167 18.1619 92.0148C18.2912 91.9236 18.4152 91.8588 18.5161 91.7988C18.6073 91.7441 18.7007 91.6969 18.796 91.6572C18.8746 91.6153 18.9558 91.5832 19.0387 91.5612C19.0387 91.5852 18.7004 91.734 18.1849 92.094C17.8836 92.3063 17.5936 92.5469 17.317 92.814C16.9797 93.1415 16.6628 93.5059 16.3694 93.9036C16.0788 94.3055 15.8123 94.7381 15.5723 95.1972C15.3783 95.5736 15.2043 95.9681 15.0515 96.378C14.7912 97.0452 14.6849 97.506 14.6672 97.506Z"
    fill="#263238" />
  <path
    d="M23.2294 80.1923C23.2112 80.0213 23.1999 79.8491 23.1958 79.6763C23.0983 77.8882 22.6228 76.176 21.8263 74.7443C21.0297 73.3126 19.9457 72.222 18.7038 71.6027C18.38 71.4356 18.0472 71.3025 17.7084 71.2043C17.4693 71.1323 17.3347 71.1011 17.3347 71.0915C17.3676 71.0862 17.4009 71.0862 17.4338 71.0915C17.4976 71.0915 17.595 71.1131 17.7155 71.1467C18.0596 71.2283 18.398 71.3496 18.7269 71.5091C19.8225 72.0289 20.8005 72.9233 21.5661 74.1057C22.3317 75.2881 22.8589 76.7184 23.0966 78.2579C23.1702 78.7209 23.2152 79.1913 23.2312 79.6643C23.2401 79.8299 23.2312 79.9619 23.2312 80.0483C23.2333 80.0963 23.2327 80.1445 23.2294 80.1923Z"
    fill="#263238" />
  <path
    d="M29.5086 86.61C29.4821 86.644 29.4523 86.6731 29.4201 86.6964C29.3616 86.7492 29.273 86.8308 29.1579 86.9364C28.8301 87.2011 28.4919 87.4415 28.1447 87.6564C26.994 88.3756 25.7625 88.8283 24.5012 88.9956L24.1027 89.0388L23.713 89.0604V88.938L24.147 88.914V89.034C23.1622 89.1401 22.1713 89.0715 21.1996 88.83C20.8453 88.7388 20.5513 88.6452 20.3565 88.5708C20.2591 88.5348 20.1793 88.5012 20.1333 88.482C20.1077 88.4721 20.0828 88.4592 20.0589 88.4436C20.0859 88.4438 20.1128 88.4494 20.1386 88.4604L20.3636 88.53C20.5602 88.59 20.8471 88.674 21.2085 88.7532C22.1771 88.9684 23.1616 89.0224 24.1399 88.914V89.034L23.7059 89.0604V88.938L24.0921 88.914L24.4871 88.8708C25.7386 88.7024 26.9624 88.2658 28.1129 87.5772C28.5539 87.3108 28.8975 87.0612 29.1349 86.886L29.4059 86.6772C29.4384 86.6502 29.4728 86.6277 29.5086 86.61Z"
    fill="#263238" />
  <path
    d="M30.5608 88.626C30.5413 88.6476 29.1934 86.466 27.5496 83.7732C25.9059 81.0804 24.5934 78.8628 24.6129 78.8412C24.6323 78.8196 25.9785 81.0012 27.624 83.694C29.2695 86.3868 30.5803 88.5948 30.5608 88.626Z"
    fill="#263238" />
</svg>