<svg width="180" height="119" viewBox="0 0 180 119" fill="none" xmlns="http://www.w3.org/2000/svg">
  <g clip-path="url(#clip0_1706_96995)">
    <path
      d="M90 118.345C139.706 118.345 180 110.107 180 99.9452C180 89.7833 139.706 81.5455 90 81.5455C40.2944 81.5455 0 89.7833 0 99.9452C0 110.107 40.2944 118.345 90 118.345Z"
      fill="#FFEDED" />
    <path
      d="M147.219 91.4524C136.088 96.6994 124.961 101.946 113.83 107.198C111.807 108.153 109.713 109.124 107.462 109.273C105.211 109.418 102.732 108.537 101.706 106.61C100.767 104.845 101.276 102.625 102.451 100.995C103.63 99.3664 105.377 98.2086 107.098 97.1171C119.16 89.4719 132.124 83.1333 145.663 78.2667"
      fill="#FAEDBD" />
    <path
      d="M143.168 82.8315C137.04 86.0277 130.146 89.4306 123.869 92.3373C123.654 92.4365 123.476 92.1057 123.699 91.99C126.348 90.5883 130.581 88.4878 133.303 87.1399C136.146 85.763 140.177 83.8032 143.015 82.5131C143.206 82.4222 143.375 82.7199 143.168 82.8315Z"
      fill="#C2B68C" />
    <path
      d="M138.886 87.7477C131.512 91.6179 123.952 95.2606 116.359 98.6966L113.086 100.14C112.87 100.235 112.692 99.8998 112.924 99.7881L138.728 87.4294C138.815 87.388 138.923 87.4252 138.964 87.5121C139.006 87.603 138.972 87.7064 138.886 87.7477Z"
      fill="#C2B68C" />
    <path
      d="M143.549 88.5664C140.334 89.9639 136.895 91.5765 133.754 93.1312C133.539 93.2345 133.361 92.9203 133.568 92.7921C135.103 91.8246 136.721 90.9935 138.364 90.2244C140.015 89.4761 141.695 88.7814 143.425 88.2315C143.628 88.1653 143.752 88.4796 143.549 88.5664Z"
      fill="#C2B68C" />
    <path
      d="M140.048 92.7508C131.189 96.5755 120.836 100.847 111.869 104.465L107.818 106.073C107.607 106.156 107.425 105.829 107.669 105.717C114.993 102.55 124.394 98.68 131.818 95.6617C134.512 94.5701 137.21 93.4909 139.916 92.4283C140.007 92.3911 140.11 92.4366 140.148 92.5275C140.177 92.6102 140.135 92.7136 140.048 92.7508Z"
      fill="#C2B68C" />
    <path
      d="M104.106 107.049C104.938 107.921 106.27 108.219 107.495 108.103C108.72 107.987 109.875 107.516 111.004 107.049C123.757 101.785 136.006 95.7939 148.759 90.5304C149.309 90.9563 149.222 91.0059 149.065 91.6385C148.796 92.7094 147.952 92.9451 147.302 93.2097C137.143 97.3238 127.237 102.405 117.079 106.519C114.484 107.57 111.89 108.62 109.291 109.67C108.174 110.125 106.966 110.584 105.778 110.352C104.59 110.117 103.556 108.851 104.106 107.049Z"
      fill="#514264" />
    <path
      d="M104.938 99.9907C108.124 97.1129 112.088 95.1819 115.994 93.2882C126.066 88.4092 136.142 83.5261 146.214 78.6471C146.855 78.337 147.521 78.002 147.923 77.4356C148.324 76.865 148.345 75.9843 147.77 75.575C140.288 78.3494 133.217 82.0376 126.166 85.7134C122.181 87.7931 115.668 90.8404 111.683 92.9202C108.116 94.7767 106.804 95.9551 104.938 99.9907Z"
      fill="#514264" />
    <path
      d="M17.0359 85.8539C15.84 85.7423 14.6607 86.1847 13.8414 87.0241C12.2897 88.616 11.1517 90.58 10.589 92.6928C10.08 94.5989 10.4069 97.4354 11.0483 99.8625C11.4952 101.558 12.9931 102.802 14.8097 102.959C29.4041 104.2 96.8979 109.922 105.443 110.381C105.877 110.406 106.179 110.001 106.047 109.604C104.723 105.697 104.549 101.264 106.974 97.9067C107.677 96.9309 108.55 95.9551 108.77 94.814C108.815 94.5741 108.612 94.3591 108.364 94.3343L17.0359 85.8539Z"
      fill="#514264" />
    <path d="M147.778 75.7031L109.022 94.5493L15.5835 86.0896L73.7172 67.5453L147.778 75.7031Z" fill="#514264" />
    <path
      d="M19.5145 97.7455C21.0869 96.5051 22.1255 94.6238 22.3283 92.6598L22.6841 92.9162C21.0207 93.7018 20.8179 96.1206 22.5186 97.0096C24.0496 97.9854 26.2014 96.778 26.1724 94.9959L26.7641 95.1034C26.4165 95.889 26.16 96.8855 26.9917 97.2618C27.5048 97.4189 28.0303 96.9351 28.4359 96.6126C29.1559 96.0048 29.76 95.2606 30.1986 94.4253L30.6662 94.7727C29.8883 95.5169 30.2069 97.0757 31.2041 97.4809C32.1807 97.9192 33.6124 97.1873 33.7448 96.0999C33.7572 95.9717 33.8731 95.8766 34.0014 95.889C34.1172 95.9014 34.2041 96.0007 34.2041 96.1123C34.1669 96.8855 34.44 97.9895 35.371 97.7869C35.4703 97.7497 35.5821 97.7993 35.6193 97.8985C35.6565 97.9978 35.6069 98.1094 35.5076 98.1466C34.9531 98.3533 34.3696 98.0391 34.0717 97.5719C33.7862 97.1088 33.7655 96.5837 33.7407 96.1247L34.2 96.1413C33.8441 98.5684 30.2069 98.8909 29.7062 96.3563C29.5572 95.674 29.7103 94.876 30.2483 94.3509C30.4759 94.1111 30.8772 94.4129 30.7159 94.6982C30.1241 95.8394 28.2662 98.2707 26.7931 97.8406C25.9696 97.5636 25.6759 96.5961 25.8579 95.8518C25.9324 95.4921 26.0648 95.1737 26.189 94.8678C26.251 94.7106 26.4331 94.6362 26.5903 94.6982C26.7103 94.7478 26.7807 94.8595 26.7807 94.9794C26.7931 96.071 26.1269 97.055 25.2248 97.5677C23.3586 98.7007 20.549 97.1377 20.7683 94.905C20.851 93.8589 21.509 92.8913 22.4648 92.4572C22.6386 92.3704 22.8496 92.5233 22.8248 92.7135C22.5807 94.8264 21.3972 96.7697 19.7255 98.0267C19.5558 98.1632 19.3324 97.8861 19.5145 97.7455Z"
      fill="#362A45" />
    <path
      d="M42.9393 98.0516C45.1034 97.6298 47.0152 96.0586 47.7848 94.0285L48.1655 94.3386C46.9903 95.0746 47.0731 97.1502 48.2938 97.7911C49.4483 98.4485 51.3186 97.5926 51.4634 96.253L51.8855 96.5631C51.3683 96.7698 51.2234 97.5347 51.4924 98.0681C51.7324 98.6056 52.4193 98.8744 53.069 98.8413C54.5214 98.7917 55.5062 97.5802 56.3379 96.4845L56.7724 96.8856C56.4538 97.1543 56.4952 97.7456 56.8014 98.1177C57.0869 98.494 57.6496 98.6139 58.1627 98.5147C59.309 98.3121 59.9876 97.2618 60.5545 96.3026C60.6207 96.1827 60.7779 96.1413 60.8938 96.2116C61.0055 96.2778 61.0469 96.4225 60.9807 96.5383C60.4138 97.5678 61.0179 99.0398 62.1103 99.4615C62.3338 99.5525 62.2096 99.9081 61.9738 99.8213C60.6248 99.3209 59.8924 97.6216 60.5503 96.3108L60.9807 96.5465C60.6869 97.0675 60.3724 97.605 59.9379 98.0764C59.1103 99.0522 57.3103 99.598 56.3545 98.4775C55.8786 97.9151 55.7876 96.9807 56.3793 96.4432C56.64 96.2033 57.029 96.5631 56.8138 96.8442C55.9241 98.0516 54.7531 99.4036 53.0979 99.4533C52.2662 99.5029 51.3103 99.1556 50.9379 98.3369C50.5407 97.5347 50.7724 96.3853 51.6496 96.009C52.5227 95.8436 51.8193 97.2536 51.5462 97.5265C50.7103 98.5147 49.2165 98.9447 48.0207 98.2997C46.4234 97.4107 46.3572 94.8802 47.8924 93.9044C48.0952 93.7638 48.3683 93.9913 48.2731 94.2145C47.4124 96.4142 45.3186 98.0144 43.0096 98.403C42.7862 98.4361 42.7076 98.0971 42.9393 98.0516Z"
      fill="#362A45" />
    <path
      d="M69.4552 100.706C71.4662 100.098 73.2621 98.8413 74.5117 97.1833L74.8303 97.5678C74.2717 97.8407 74.1559 98.6677 74.4579 99.2341C74.7393 99.813 75.4634 100.082 76.1462 100.057C77.6607 100.02 78.7241 98.8041 79.6386 97.696C79.8455 97.4355 80.28 97.6919 80.1559 97.9937C79.9324 98.6056 79.9697 99.3127 80.2221 99.9205C80.4662 100.532 80.9421 101.049 81.5421 101.289C82.6759 101.769 84.4014 101.024 84.5462 99.7427L85.0676 99.966C84.5752 100.561 85.1131 101.421 85.6883 101.789C86.3669 102.257 87.2731 102.174 88.0717 102.066C89.3421 101.851 90.8814 101.525 92.1145 102.252C92.5324 102.484 92.8966 102.877 93.0414 103.361C93.0703 103.464 93.0124 103.571 92.9131 103.6C92.8138 103.629 92.7062 103.576 92.6731 103.476C91.5766 101.268 88.6593 102.807 86.7683 102.678C85.3159 102.736 83.5365 100.987 84.6124 99.5814C84.7821 99.354 85.171 99.5194 85.1338 99.7964C85.051 100.648 84.4262 101.351 83.6897 101.711C81.1572 103.026 78.6579 100.305 79.5848 97.787L80.1021 98.0847C79.1214 99.2837 77.8593 100.619 76.1586 100.636C75.3103 100.665 74.3503 100.301 73.9614 99.4822C73.5559 98.6842 73.7338 97.543 74.5945 97.113C74.7228 97.0468 74.8759 97.1006 74.9421 97.2246C74.9876 97.3156 74.9752 97.419 74.9172 97.4934C73.5766 99.2341 71.6441 100.47 69.5503 101.045C69.3434 101.107 69.2276 100.772 69.4552 100.706Z"
      fill="#362A45" />
    <path
      d="M16.8828 85.701C45.2276 88.6987 77.0069 92.2132 105.319 95.5128C105.426 95.5252 105.501 95.6203 105.488 95.7278C105.476 95.8312 105.381 95.9097 105.277 95.8973C85.0345 93.7679 59.2552 90.9108 38.9421 88.5953C33.4469 87.9793 22.3365 86.7016 16.8414 86.0525C16.7462 86.0401 16.6759 85.9532 16.6841 85.8581C16.6965 85.7589 16.7834 85.6927 16.8828 85.701Z"
      fill="#362A45" />
    <path
      d="M104.768 110.104C102.968 108.277 102.728 105.564 102.629 103.146C102.563 100.714 102.583 97.9606 104.338 96.0338C105.848 94.3881 108.786 93.3462 110.71 92.3208C120.807 87.4542 133.705 81.5704 143.793 76.7741C143.888 76.7286 144.004 76.7658 144.05 76.8651C144.095 76.9602 144.058 77.0759 143.963 77.1214C139.606 79.3128 135.203 81.405 130.8 83.4972C126.393 85.5729 115.217 90.8405 110.967 92.8541L107.681 94.446C105.377 95.5004 103.68 96.9227 103.303 99.5442C103.092 100.714 103.088 101.926 103.109 103.137C103.167 105.473 103.341 108.091 105.021 109.86C105.186 110.009 104.93 110.274 104.768 110.104Z"
      fill="#362A45" />
    <path
      d="M62.8428 82.0045C63.4303 84.8451 63.0331 88.4837 60.36 89.6786C58.4028 90.5552 56.1559 89.6703 54.211 88.7938C41.611 83.1167 29.0152 77.4356 16.8248 71.6221C17.2386 70.7621 17.6524 69.9021 18.0703 69.0421C16.9697 68.211 17.0897 66.5281 17.5034 65.2092C17.9172 63.8902 18.5255 62.4761 18.0538 61.186L62.8428 82.0045Z"
      fill="#FAEDBD" />
    <path
      d="M16.3076 60.4997L112.105 43.7085C112.105 43.7085 150.207 58.267 148.949 58.6349C118.978 64.8247 88.6593 71.8661 58.8538 78.8291L16.3076 60.4997Z"
      fill="#E14242" />
    <path
      d="M17.7848 62.1122C28.9241 67.5205 40.2786 72.4946 51.8152 77.0139C54.0993 77.9111 56.4455 78.8166 58.2952 80.4209C60.1448 82.0211 61.44 84.4895 60.96 86.9001C60.7324 88.0495 59.9959 89.2031 58.8538 89.4967C57.8855 89.7448 56.8924 89.3272 55.9903 88.9178C43.1917 83.1499 30.389 77.3819 17.5904 71.6139C17.0193 71.3575 16.411 71.0929 15.7904 71.1756C15.1655 71.2583 14.5614 71.833 14.6979 72.445C14.8097 72.9536 15.3435 73.2306 15.8193 73.4415C29.6855 79.5981 43.5517 85.7547 57.4179 91.9155C58.1255 92.2298 58.8869 92.5523 59.6566 92.42C61.0676 92.176 61.7628 90.6048 62.2179 89.2527C63.0455 86.7884 63.8731 84.105 63.0207 81.6655C61.9655 78.643 58.7421 77.0428 55.8 75.7404C49.3738 72.8957 42.9476 70.051 36.5214 67.2063C30.5214 64.5517 24.4883 61.8848 18.1117 60.293C17.4455 60.1276 16.531 60.0904 16.2828 60.7312C16.109 61.1778 16.4359 61.6864 16.8704 61.8848C17.309 62.0792 17.8097 62.0502 17.7848 62.1122Z"
      fill="#E14242" />
    <path
      d="M152.963 72.8791C135.852 75.8603 60.4883 92.3414 60.3228 91.9362C61.7834 89.9019 62.549 87.3838 62.4703 84.8947C62.3876 82.4056 61.4607 79.9578 59.8676 78.0475C59.8676 78.0475 148.585 58.5894 148.899 58.4447C153.476 59.3874 155.541 64.3409 155.851 65.879C156.352 68.3846 155.499 72.4367 152.963 72.8791Z"
      fill="#E14242" />
    <path
      d="M150.815 66.4289C147.948 65.9204 143.888 65.1885 141.079 64.6303L141.368 64.5187L137.019 70.6464L136.874 70.1792L145.531 73.4249L145.225 73.5159C146.801 71.4485 149.168 68.4922 150.815 66.4289ZM151.167 66.309C149.487 68.6121 147.24 71.7586 145.531 73.9955L145.345 73.9252L136.663 70.7539L136.283 70.6133L136.519 70.2867L140.909 64.1879L141.017 64.0349C144.004 64.6551 148.15 65.6185 151.167 66.309Z"
      fill="#006347" />
    <path
      d="M130.25 66.9913C130.883 70.3529 131.388 73.9088 131.694 77.3199L131.309 77.3737C131.139 76.5219 130.999 75.6619 130.858 74.806C130.63 73.2844 130.32 71.1468 130.154 69.6417C130.055 68.7775 129.964 67.9134 129.894 67.0451L130.25 66.9913Z"
      fill="#006347" />
    <path
      d="M126.972 67.4296C127.808 70.7704 128.499 74.1485 129.008 77.5556L128.628 77.63C128.193 75.9637 127.85 74.2767 127.506 72.5856C127.183 70.8945 126.865 69.2034 126.625 67.4957L126.972 67.4296Z"
      fill="#006347" />
    <path
      d="M66.3931 79.3997C68.2965 81.6531 68.9214 84.9485 67.9696 87.7394L67.5972 87.6361C68.1683 84.8906 67.6427 81.9632 66.1076 79.6105L66.3931 79.3997Z"
      fill="#006347" />
    <path
      d="M128.09 60.1855C127.581 58.8003 127.171 56.5097 128.93 55.8192C129.521 55.567 130.341 55.5628 130.821 56.0838C131.657 57.0679 130.726 58.3786 129.732 58.7755C126.046 60.2144 122.909 56.0921 125.255 52.9166L125.71 53.3218C124.982 54.033 123.96 54.3596 122.983 54.3141C121.519 54.2769 120.025 53.3425 119.553 51.916C118.754 49.3152 117.443 50.382 115.407 50.5102C114.881 50.5391 114.286 50.3117 113.983 49.8486C113.466 49.0382 113.764 48.0376 112.788 47.6944C111.501 47.2727 110.04 48.05 108.745 47.438C108.273 47.2478 107.839 46.8013 107.81 46.2638L108.194 46.2266C108.232 46.6111 108.526 46.9005 108.91 47.0494C110.458 47.7275 113.23 46.0446 114.037 48.3146C114.19 48.786 114.232 49.2408 114.443 49.5344C114.65 49.8362 114.993 49.952 115.403 49.9396C117.737 49.6377 119.152 48.8315 120.116 51.6844C120.794 53.7518 123.77 54.3472 125.288 52.8835L125.743 53.2887C123.749 55.9928 126.393 59.4288 129.526 58.2752C130.212 58.0065 131.015 57.1092 130.457 56.4104C130.121 56.0549 129.559 56.0755 129.112 56.2451C128.412 56.4849 128.094 57.1712 128.061 57.8742C128.015 58.6019 128.222 59.3461 128.437 60.078L128.09 60.1855Z"
      fill="#006347" />
    <path
      d="M120.778 61.5665C113.822 57.4276 106.179 52.6809 99.3931 48.265L99.5959 47.9384L102.302 49.5509C106.171 51.887 111.844 55.4264 115.676 57.8576C117.447 58.9823 119.21 60.1235 120.968 61.2688L120.778 61.5665Z"
      fill="#006347" />
    <path
      d="M61.4193 72.3623C52.6883 68.885 43.0469 64.8578 34.4359 61.0786L34.5848 60.723L37.9821 62.0792C42.8441 64.0474 50.0069 67.0533 54.8483 69.1207C57.091 70.08 59.3255 71.0516 61.5559 72.0357L61.4193 72.3623Z"
      fill="#006347" />
    <path
      d="M61.8 68.1903C56.7062 65.3332 51.389 62.8978 45.9103 60.8759L46.0345 60.5079C50.251 61.7814 54.3228 63.5387 58.1959 65.6392C59.4869 66.3421 60.749 67.0905 61.9821 67.8843L61.8 68.1903Z"
      fill="#006347" />
    <path
      d="M149.702 59.6066C120.542 65.4821 87.8028 71.9199 58.5807 77.4977L58.5062 77.1173C79.3283 72.9122 105.89 67.6942 126.836 63.6421C132.501 62.534 143.959 60.3302 149.632 59.2593L149.702 59.6066Z"
      fill="#006347" />
    <path
      d="M18.2607 59.6232C26.2842 62.9847 38.9131 68.4261 47.011 71.8786L54.1779 74.9879C56.5738 76.0257 59.0773 76.985 61.0966 78.7216C63.1904 80.4789 64.0676 83.2988 63.9186 85.9533C63.9228 87.3012 63.5338 88.6367 62.8014 89.7655C62.0855 90.886 61.1421 91.8908 59.9297 92.511L59.7559 92.1637C60.8648 91.5765 61.7586 90.6049 62.4166 89.5298C63.0952 88.4465 63.4304 87.2102 63.4055 85.9367C63.5297 83.4063 62.7145 80.789 60.7366 79.1351C58.7586 77.4522 56.3131 76.5384 53.9421 75.5213L46.7628 72.4409C42.0662 70.3983 29.8221 65.0769 25.2662 63.0922L18.1159 59.9415L18.2607 59.6232Z"
      fill="#006347" />
    <path
      d="M56.8221 86.4122C44.8304 81.5787 31.5641 76.0505 19.6883 70.911L19.8372 70.5554C28.3821 73.9831 39.2028 78.5107 47.7145 82.1162C50.8014 83.4269 53.8841 84.75 56.9586 86.0855L56.8221 86.4122Z"
      fill="#C2B68C" />
    <path
      d="M55.2455 83.4889C42.9021 78.1385 30.2566 73.1355 17.6069 68.5294L17.7352 68.1655C27.2772 71.37 36.9021 75.0623 46.1338 79.0317C49.2414 80.363 52.3241 81.744 55.3903 83.1664L55.2455 83.4889Z"
      fill="#C2B68C" />
    <path
      d="M17.8097 64.589C26.9421 68.5583 37.4648 73.3257 46.5228 77.5142L50.5945 79.4245L50.4331 79.7759C42.8773 76.5012 33.331 72.1638 25.8166 68.7113C23.0938 67.4585 20.3752 66.1891 17.6648 64.9074L17.8097 64.589Z"
      fill="#C2B68C" />
    <path
      d="M118.212 58.6887C118.212 58.6887 158.483 39.4539 158.826 39.4993C161.673 41.7197 162.799 45.1722 161.652 48.1823C161.652 48.1823 116.95 70.5885 116.983 70.4893C119.354 67.0905 120.343 62.1702 118.212 58.6887Z"
      fill="#FF7889" />
    <path
      d="M69.091 49.0505C69.0869 52.7677 67.4938 56.4724 64.6179 59.4577C64.6179 59.4577 114.422 70.1336 113.921 70.0592C114.952 70.2081 115.779 69.4183 116.301 68.7113C117.381 67.2476 118.308 65.6929 118.721 64.039C119.135 62.3851 119.011 60.6154 118.072 59.1021L69.091 49.0505Z"
      fill="#FAEDBD" />
    <path
      d="M106.606 60.3095C100.105 58.8747 93.2069 57.4234 86.7848 55.662L86.8759 55.2858L89.3628 55.8274C93.2069 56.704 97.9531 57.7294 101.76 58.6763C103.407 59.0856 105.05 59.5197 106.688 59.9622L106.606 60.3095Z"
      fill="#C2B68C" />
    <path
      d="M92.0607 59.3337C84.0579 57.8245 75.8483 55.6372 67.8952 53.7973L67.9779 53.421L71.0193 54.0288C76.0593 55.0418 81.12 56.3691 86.1103 57.5516L92.1393 58.9905L92.0607 59.3337Z"
      fill="#C2B68C" />
    <path
      d="M111.943 65.2878C108.36 64.5311 104.789 63.638 101.226 62.8069C97.7628 62.0751 93.9352 61.306 90.4717 60.4873L90.5503 60.1111C94.1669 60.7685 97.7586 61.4549 101.359 62.2074C104.938 63.0716 108.472 63.9977 112.022 64.9487L111.943 65.2878Z"
      fill="#C2B68C" />
    <path
      d="M105.199 66.7018C100.225 65.6557 95.2759 64.4897 90.3476 63.2534L75.5628 59.5694L75.6497 59.1931C82.7793 60.6775 90.7986 62.7242 97.8869 64.5145L105.281 66.3545L105.199 66.7018Z"
      fill="#C2B68C" />
    <path
      d="M65.3876 59.3751C70.3531 60.5328 102.604 67.3304 111.997 69.3109C113.702 69.6706 115.494 69.0587 116.317 67.8472C117.703 65.8046 118.32 63.3858 118.088 61.0993C118.006 60.2641 117.265 59.5612 116.218 59.3461C110.95 58.267 93.6248 54.6077 76.9986 50.8451C75.0083 50.3944 72.2483 50.1339 70.2579 49.6832C69.0083 49.4021 67.5724 48.7116 68.6731 47.7192C68.9462 47.4711 70.1959 47.8888 71.011 48.05C81.6952 50.2001 92.3835 52.3501 103.068 54.5002C111.844 56.2658 117.662 58.0148 117.997 58.1719C121.117 59.2014 120.319 64.895 118.953 68.0208C118.498 69.0587 117.848 70.1337 116.619 70.6795C115.254 71.2873 113.553 71.0806 112.014 70.8449C95.731 68.364 79.7255 64.8164 64.2248 60.2475C63.8152 60.1276 63.7655 59.6935 64.1379 59.5157C64.5062 59.3255 64.9614 59.28 65.3876 59.3751Z"
      fill="#FF7889" />
    <path d="M69.2855 47.8846L113.032 33.3096L158.826 39.4993L118.701 58.5977L69.2855 47.8846Z" fill="#FF7889" />
    <path
      d="M123.823 55.7777C126.137 58.5273 127.171 62.4057 126.331 65.9203L125.95 65.85C126.29 63.2699 125.892 60.6236 124.808 58.2627C124.452 57.473 124.022 56.7163 123.538 55.9927L123.823 55.7777Z"
      fill="#CC5A69" />
    <path
      d="M127.328 54.3761C129.352 57.2084 130.32 60.8429 129.832 64.3036L129.447 64.2706C129.583 60.8801 128.71 57.5102 127.03 54.5704C127.03 54.5663 127.328 54.3761 127.328 54.3761Z"
      fill="#CC5A69" />
    <path
      d="M154.374 41.976C156.848 43.7746 158.532 46.7805 158.495 49.8651L158.11 49.8816C157.8 46.9459 156.306 44.2418 154.15 42.2447C154.15 42.2488 154.374 41.976 154.374 41.976Z"
      fill="#CC5A69" />
    <path
      d="M150.774 42.931C153.641 44.4195 155.863 47.3469 156.17 50.6051L155.789 50.663C155.156 47.6033 153.17 44.9653 150.596 43.237L150.774 42.931Z"
      fill="#CC5A69" />
    <path
      d="M134.321 53.9916C137.566 52.4452 140.81 50.9071 144.066 49.3855L146.508 48.2443C147.703 47.6778 149.251 46.9956 150.612 47.6075C152.541 48.5089 152.131 50.2083 150.492 51.1593C146.698 53.6153 142.597 55.5752 138.327 57.0306C136.742 57.564 134.081 58.6763 133.246 56.5138C132.91 55.5669 133.423 54.3803 134.321 53.9916ZM134.479 54.3265C133.386 54.8723 133.188 56.6916 134.425 57.196C135.604 57.6426 137.019 56.8776 138.157 56.5427C142.374 55.0708 146.421 53.0819 150.149 50.6383C151.337 49.9395 151.874 48.8645 150.372 48.1492C149.16 47.6365 147.914 48.2402 146.752 48.7653C142.705 50.6342 138.492 52.4865 134.479 54.3265Z"
      fill="#CC5A69" />
    <path
      d="M79.1048 46.4498C89.2676 48.8976 101.892 52.0566 112.072 54.6366C114.269 55.2362 116.64 55.5794 118.498 57.0431C121.452 59.3668 120.96 63.762 119.305 66.7142C118.771 67.7314 118.142 68.6824 117.513 69.6251L117.19 69.4142C117.799 68.4632 118.407 67.5122 118.908 66.5116C121.15 62.0751 120.517 57.4731 115.196 56.0714C113.028 55.4429 107.599 54.157 105.335 53.5657C97.6014 51.6017 86.6317 48.8025 79.0179 46.7889C79.0179 46.793 79.1048 46.4498 79.1048 46.4498Z"
      fill="#CC5A69" />
    <path
      d="M117.844 56.6916C131.263 50.0057 145.126 44.0104 159.194 38.8088L159.331 39.1686C148.908 43.2992 138.43 47.682 128.226 52.3047C124.808 53.8511 121.399 55.4181 117.997 57.01L117.844 56.6916Z"
      fill="#CC5A69" />
    <path
      d="M162.968 32.7679C144.55 36.3652 126.236 40.2891 108.219 44.3701C110.971 47.3595 111.149 51.6389 108.943 54.7896C128.404 50.6177 144.087 46.1232 164.164 41.8148C165.906 40.8845 165.861 34.0828 162.968 32.7679Z"
      fill="#F0BC73" />
    <path d="M75.8317 36.5388L108.935 45.2549L162.844 32.7059L132.621 27.1819L75.8317 36.5388Z" fill="#F0BC73" />
    <path
      d="M77.2965 37.527C86.3959 39.9003 95.4993 42.2778 104.599 44.6512C105.861 44.9819 107.181 45.3375 108.074 46.1024C109.229 47.0907 109.407 48.5295 109.535 49.8609C109.63 50.8698 109.663 52.011 108.753 52.7346C108.145 53.2184 107.222 53.4003 106.353 53.3713C105.484 53.3424 104.644 53.1233 103.821 52.9082C94.7338 50.5225 85.6469 48.1367 76.56 45.751C78.4303 43.175 78.3972 39.8383 77.2965 37.527Z"
      fill="#FAEDBD" />
    <path
      d="M95.1559 44.8084C89.5696 43.4273 83.4455 41.8107 77.9462 40.1154L78.0496 39.7433C79.4979 40.0906 80.9338 40.4627 82.3738 40.8349C84.9186 41.5088 88.4855 42.4639 90.9765 43.1875C92.4041 43.5969 93.8317 44.0269 95.251 44.4652L95.1559 44.8084Z"
      fill="#C2B68C" />
    <path
      d="M105.062 49.2904C100.034 47.8226 94.589 46.9295 89.5614 45.4368L89.6607 45.0647C92.4165 45.6849 98.7186 46.9956 101.35 47.7482C102.641 48.0996 103.92 48.4924 105.178 48.9596L105.062 49.2904Z"
      fill="#C2B68C" />
    <path
      d="M97.6676 49.1953C91.829 47.9839 83.5572 45.6146 77.7103 44.06L77.8014 43.6837C81.0745 44.3825 84.6 45.2715 87.811 46.148L97.7462 48.848L97.6676 49.1953Z"
      fill="#C2B68C" />
    <path
      d="M108.948 54.7896C98.3586 52.7884 77.131 47.3016 75.6786 46.822C75.4676 46.7517 75.4221 46.086 75.48 45.9123C75.571 45.6229 76.1959 45.5402 76.8083 45.536C77.2096 45.536 93.7655 50.2001 103.324 51.9118C103.697 51.978 107.197 52.7595 107.566 52.6933C108.625 52.499 108.927 50.7789 108.89 49.646C108.828 47.7068 107.768 46.1645 107.632 46.0529C107.139 45.6436 105.72 45.0647 104.408 44.8001C95.8428 43.0635 87.7697 40.1816 79.2041 38.445C78.2979 38.263 76.44 37.8123 75.9641 37.4195C75.5131 37.0433 75.6869 36.6174 75.8317 36.543C85.1462 38.9825 95.2303 41.5088 104.545 43.9483C106.337 44.4197 108.505 44.9985 108.935 45.259C109.506 45.6063 110.868 48.3808 110.714 49.8403C110.557 51.2916 110.015 53.0696 108.948 54.7896Z"
      fill="#F0BC73" />
    <path
      d="M155.926 40.347C154.68 39.9873 153.426 39.6399 152.185 39.2637L152.52 39.0363C152.491 39.5242 152.263 39.979 151.941 40.3222C150.964 41.4013 149.106 41.3228 148.146 40.2477L148.676 40.0782C148.564 41.2525 147.252 41.9389 146.185 41.6122C145.837 41.5213 145.506 41.3435 145.246 41.0747L145.759 40.9217C145.601 41.6784 145.01 42.2076 144.385 42.4805C143.752 42.7534 143.007 42.803 142.345 42.5384C141.77 42.2779 141.385 42.0216 140.847 42.4433C140.371 42.8196 139.721 43.4522 138.993 43.1131C138.774 43.0015 138.931 42.6624 139.163 42.7658C139.713 42.956 140.131 42.4144 140.561 42.0629C140.814 41.852 141.199 41.6536 141.6 41.7114C141.989 41.7611 142.279 41.9389 142.543 42.0381C143.503 42.4144 144.943 41.8479 145.167 40.8101C145.204 40.5744 145.523 40.4834 145.68 40.6571C146.371 41.4096 147.948 41.0954 148.072 40.0203C148.088 39.8549 148.233 39.7309 148.403 39.7474C148.481 39.7557 148.556 39.7929 148.606 39.8508C149.065 40.3842 149.901 40.6199 150.604 40.4586C151.295 40.3056 151.945 39.7102 152.003 38.9908C152.015 38.8295 152.185 38.7179 152.338 38.7675C153.571 39.1644 154.8 39.5903 156.029 40.0079C156.236 40.0824 156.149 40.409 155.926 40.347Z"
      fill="#C49552" />
    <path
      d="M135.48 44.5396C134.272 44.4611 133.068 44.3577 131.863 44.2502L132.108 43.7954C132.443 44.1716 132.294 44.7588 131.959 45.0647C131.11 45.871 129.737 45.1681 128.884 45.0317C127.986 44.8704 127.109 45.5733 126.215 45.8255C125.872 45.9248 125.483 45.9703 125.106 45.8834L125.371 45.7883C124.771 46.516 123.811 46.8634 122.892 46.7848C122.652 46.76 122.665 46.4003 122.913 46.4003C123.699 46.4044 124.494 46.0488 124.953 45.4576C125.019 45.3749 125.123 45.3418 125.218 45.3625C126.095 45.5154 126.985 44.7588 127.87 44.519C128.839 44.1344 129.997 44.8084 130.854 44.8539C131.135 44.8621 131.4 44.8043 131.557 44.6471C131.731 44.4818 131.781 44.2626 131.681 44.151C131.512 43.9732 131.681 43.6589 131.921 43.6961C133.121 43.8491 134.321 44.0021 135.521 44.1882C135.737 44.2213 135.708 44.5562 135.48 44.5396Z"
      fill="#C49552" />
    <path
      d="M76.8828 36.2948C79.7959 37.2665 84.3476 38.1183 87.389 38.8667C92.6814 40.0864 97.9862 41.2855 103.217 42.7699C104.975 43.295 106.721 43.7663 108.393 44.5644C108.72 44.7421 109.105 44.9241 109.324 45.2673C110.193 47.529 110.561 50.0842 109.891 52.4452C109.622 53.3383 109.154 54.1818 108.497 54.8557C108.422 54.9302 108.298 54.9343 108.223 54.8599C108.145 54.7854 108.145 54.6614 108.219 54.587C108.815 53.9461 109.229 53.1605 109.461 52.3211C110.04 50.1008 109.647 47.6613 108.836 45.5484C108.662 45.3376 108.393 45.2135 108.132 45.0771C106.523 44.3369 104.756 43.849 103.047 43.3487C96.1821 41.4467 88.9159 39.8425 81.9807 38.1183C80.2096 37.6428 78.4593 37.2789 76.7296 36.6174C76.6386 36.5801 76.5972 36.4768 76.6345 36.3858C76.68 36.2866 76.7917 36.2494 76.8828 36.2948Z"
      fill="#C49552" />
    <path
      d="M109.059 45.0233C126.05 41.8065 142.585 36.4231 159.579 33.2021L162.989 32.5902C163.092 32.5695 163.196 32.6398 163.212 32.7473C163.233 32.8506 163.163 32.954 163.055 32.9706L159.666 33.6404C151.821 35.2736 143.884 37.2872 136.134 39.2884C127.192 41.5667 118.229 43.8367 109.121 45.3748C109.026 45.3913 108.935 45.3252 108.919 45.2301C108.902 45.1309 108.968 45.0399 109.059 45.0233Z"
      fill="#C49552" />
    <path
      d="M171.526 20.3347C149.346 23.9319 127.444 27.9178 105.749 31.9988C109.063 34.9883 109.274 39.2677 106.622 42.4184C130.055 38.2465 148.99 34.5624 173.168 30.2581C174.178 29.2823 174.418 21.9431 171.526 20.3347Z"
      fill="#00AEA9" />
    <path d="M66.7489 24.1676L106.61 32.8837L171.525 20.3347L135.132 14.8107L66.7489 24.1676Z" fill="#00AEA9" />
    <path
      d="M68.5117 25.1558C79.469 27.5291 90.4303 29.9066 101.388 32.2799C102.906 32.6107 104.499 32.9663 105.571 33.7312C106.961 34.7194 107.177 36.1583 107.33 37.4897C107.446 38.4986 107.487 39.6398 106.39 40.3634C105.658 40.8471 104.549 41.0291 103.502 41.0001C102.455 40.9712 101.446 40.752 100.457 40.537C89.5117 38.1513 78.571 35.7655 67.6262 33.3798C69.8772 30.8038 69.8359 27.4671 68.5117 25.1558Z"
      fill="#FAEDBD" />
    <path
      d="M91.1379 32.8051C83.971 31.3414 76.4193 29.5304 69.3145 27.7442L69.4014 27.3679L72.1448 27.9385C76.0759 28.782 81.8648 30.1506 85.7834 31.1099C87.5958 31.5481 89.4083 32.003 91.2165 32.4661L91.1379 32.8051Z"
      fill="#C2B68C" />
    <path
      d="M101.967 36.9233C95.3131 35.3604 84.8152 33.0739 78.0579 31.5937L78.1324 31.2133C84.1283 32.2676 90.2234 33.5659 96.1241 35.0131C98.1103 35.501 100.084 36.0261 102.054 36.5802L101.967 36.9233Z"
      fill="#C2B68C" />
    <path
      d="M93.6083 36.4602C87.4428 35.3769 80.9172 34.2109 74.8221 32.8009L74.8965 32.4205L77.2552 32.8299C80.9007 33.5038 85.3945 34.3225 89.0028 35.0792C90.5669 35.4058 92.1228 35.7531 93.6786 36.1087L93.6083 36.4602Z"
      fill="#C2B68C" />
    <path
      d="M106.622 42.4184C93.8731 40.4172 68.309 34.9304 66.5586 34.4507C66.3021 34.3805 66.2524 33.7148 66.3186 33.5411C66.4303 33.2517 67.1793 33.169 67.92 33.1648C68.4041 33.1648 88.3407 37.8288 99.8483 39.5406C100.295 39.6068 104.512 40.3882 104.959 40.3221C106.237 40.1278 106.597 38.4077 106.552 37.2748C106.477 35.3356 105.203 33.7933 105.037 33.6817C104.446 33.2723 102.737 32.6935 101.156 32.4288C90.84 30.6923 81.12 27.8103 70.8041 26.0737C69.7159 25.8918 67.4731 25.4411 66.9021 25.0483C66.3558 24.6721 66.571 24.2462 66.7448 24.1718C77.9586 26.6113 90.1034 29.1376 101.321 31.5771C103.477 32.0485 106.092 32.6273 106.606 32.8878C107.297 33.2351 108.935 36.0095 108.749 37.4691C108.563 38.9204 108.36 40.7149 106.622 42.4184Z"
      fill="#00AEA9" />
    <path
      d="M121.899 29.9274C124.577 32.5571 125.727 35.9062 124.812 39.1065C124.812 39.1065 120.513 40.0162 120.356 39.9293C120.794 36.6629 119.479 33.5122 116.752 30.8949L121.899 29.9274Z"
      fill="#008A85" />
    <path
      d="M164.247 21.7405C166.924 24.3702 168.058 28.0253 167.143 31.2215C167.143 31.2215 162.861 32.1187 162.703 32.0319C163.142 28.7654 161.702 25.3749 158.975 22.7576L164.247 21.7405Z"
      fill="#008A85" />
    <path
      d="M107.545 31.8375C128.673 29.0672 150.455 24.3867 171.381 20.1196L171.463 20.4959C155.727 24.0104 139.564 27.3306 123.674 29.9438C118.332 30.8245 112.974 31.6308 107.586 32.189L107.545 31.8375Z"
      fill="#008580" />
    <path
      d="M106.531 42.038C108.31 41.1862 109.034 38.9535 109.188 37.1011C109.39 35.1619 108.439 32.9209 107.057 32.0774C95.1848 29.5469 82.2579 26.7601 70.4648 24.0601L70.5476 23.6838C76.6634 24.9408 82.7752 26.2267 88.8745 27.5457C93.4386 28.5298 102.617 30.531 107.172 31.544C109.101 32.6397 109.833 35.0544 109.659 37.1383C109.436 39.1602 108.65 41.455 106.663 42.3688C106.663 42.3646 106.531 42.038 106.531 42.038Z"
      fill="#008580" />
    <path
      d="M67.9365 13.5785C68.9628 17.4569 68.3545 21.7281 66.2772 25.1847L126.84 28.5091L130.932 20.6655L128.487 16.4191L67.9365 13.5785Z"
      fill="#FAEDBD" />
    <path
      d="M71.4869 16.0718C76.3862 16.171 81.5296 16.4398 86.4165 16.8698C86.6524 16.8905 86.64 17.2585 86.3959 17.2544C82.8041 17.1923 78.7779 16.9691 75.1945 16.7251C73.9531 16.6383 72.7076 16.5349 71.4662 16.4233C71.251 16.4026 71.2593 16.0677 71.4869 16.0718Z"
      fill="#C2B68C" />
    <path
      d="M76.0552 18.4617C83.3834 18.1268 90.811 18.2426 98.131 18.8008C98.2386 18.8091 98.3172 18.9 98.309 19.0075C98.3007 19.1109 98.2096 19.1895 98.1103 19.1853L92.5986 19.0323C87.2896 18.8794 81.4055 18.8339 76.0634 18.8132C75.8483 18.8173 75.8234 18.4742 76.0552 18.4617Z"
      fill="#C2B68C" />
    <path
      d="M72.2027 20.2603C87.5959 20.7441 103.159 20.9012 118.568 20.7895C118.676 20.7895 118.763 20.8722 118.763 20.9797C118.763 21.0831 118.68 21.1699 118.572 21.1741C107.061 21.5131 95.2676 21.4759 83.7765 21.1079C79.9117 20.988 76.0469 20.8185 72.1862 20.6117C72.0869 20.6076 72.0124 20.5249 72.0207 20.4257C72.029 20.3306 72.1076 20.2562 72.2027 20.2603Z"
      fill="#C2B68C" />
    <path
      d="M89.2386 22.9892C92.789 22.8569 96.7365 22.8693 100.312 22.9106C101.541 22.9313 102.774 22.9603 104.003 23.014C104.11 23.0181 104.193 23.1091 104.189 23.2166C104.185 23.3158 104.102 23.3985 104.003 23.4027C100.457 23.5267 96.4759 23.5102 92.9296 23.4523C91.7007 23.4316 90.4676 23.3944 89.2386 23.3448C89.0193 23.3365 89.011 22.9975 89.2386 22.9892Z"
      fill="#C2B68C" />
    <path
      d="M111 23.2828C114.517 23.4854 118.378 23.688 121.879 23.779L125.508 23.8782C125.615 23.8823 125.698 23.9692 125.694 24.0767C125.69 24.1759 125.611 24.2586 125.512 24.2627C124.299 24.3289 123.083 24.3496 121.87 24.3496C119.441 24.3413 117.012 24.2379 114.592 24.0312C113.379 23.932 112.175 23.7955 110.971 23.6343C110.752 23.6053 110.777 23.2704 111 23.2828Z"
      fill="#C2B68C" />
    <path
      d="M66.211 12.549C66.211 12.549 108.12 16.7829 121.999 16.2785C126.985 16.0966 128.71 18.8669 128.71 18.8669L152.64 4.29187C151.746 3.85359 150.571 3.5931 149.574 3.51867L100.349 0L66.211 12.549Z"
      fill="#FFB700" />
    <path
      d="M67.4648 14.3765C74.9586 14.8892 112.779 16.8532 123.89 17.2294C127.403 17.3494 128.557 19.0322 128.566 19.0157C128.648 17.9861 127.796 16.9359 126.823 16.5348L66.2855 12.4414L66.3517 13.0616C66.2772 13.7356 66.7779 14.331 67.4648 14.3765Z"
      fill="#FFB700" />
    <path
      d="M126.265 30.5227C102.166 30.7832 75.2979 28.075 65.64 26.2433C65.64 26.2433 64.68 24.0022 67.2041 24.2669C73.2621 24.8953 109.188 27.3721 121.403 28.1411C127.75 28.5422 128.843 23.5929 128.843 23.5929C128.843 23.5929 129.368 30.4897 126.265 30.5227Z"
      fill="#FFB700" />
    <path
      d="M128.897 23.014C129.19 21.3146 129.728 18.8007 126.087 17.5561C126.087 17.5561 152.64 4.05205 152.615 4.27119C154.179 5.14776 156.12 8.0793 155.723 11.1886C155.388 13.8142 153.815 16.1214 152.4 17.9407C151.908 18.5692 151.287 19.0777 150.563 19.4375C146.47 21.48 133.999 27.5085 128.81 29.6916C127.701 30.1589 126.695 30.4772 126.695 30.4772C126.695 30.4772 127.312 27.6904 127.312 26.7725C127.32 26.7766 128.59 24.7878 128.897 23.014Z"
      fill="#FFB700" />
    <path
      d="M149.371 11.3995C149.371 9.86138 150.281 8.61682 151.399 8.61682C152.52 8.61682 153.426 9.86138 153.426 11.3995C153.426 12.9376 152.516 14.1822 151.399 14.1822C150.277 14.1781 149.371 12.9335 149.371 11.3995Z"
      fill="#CF9502" />
    <path
      d="M147.178 9.56372C148.138 11.6187 148.659 13.8639 148.817 16.1214C148.862 16.874 148.87 17.6306 148.812 18.3831L148.428 18.379C148.279 15.4227 147.77 12.5035 146.847 9.6919C146.851 9.6919 147.178 9.56372 147.178 9.56372Z"
      fill="#CF9502" />
    <path
      d="M131.843 15.7865C133.672 19.115 134.474 23.014 134.177 26.7932L133.792 26.7808C133.746 23.0595 133.014 19.3589 131.524 15.9436L131.843 15.7865Z"
      fill="#CF9502" />
    <path
      d="M134.379 15.8527C135.228 17.5603 135.687 19.4458 135.84 21.3395C135.886 21.9721 135.894 22.6088 135.848 23.2415L135.463 23.2456C135.277 20.7771 134.83 18.3418 134.057 15.9891C134.052 15.985 134.379 15.8527 134.379 15.8527Z"
      fill="#CF9502" />
    <path
      d="M145.084 10.7214C145.912 12.6606 146.326 14.7652 146.4 16.8657C146.417 17.5686 146.4 18.2715 146.321 18.9661L145.937 18.9496C145.874 16.2041 145.494 13.4793 144.749 10.8331C144.749 10.8372 145.084 10.7214 145.084 10.7214Z"
      fill="#CF9502" />
    <path
      d="M143.632 12.7474C144.083 14.145 144.381 15.5756 144.497 17.0393L144.116 17.1137C143.665 15.7162 143.4 14.2814 143.284 12.8177L143.632 12.7474Z"
      fill="#CF9502" />
    <path
      d="M85.2414 10.7462C95.3131 10.8165 105.455 11.3085 115.502 12.1231L119.814 12.5159L119.785 12.9004C111.41 12.367 102.215 11.813 93.8814 11.4615L85.2414 11.1018V10.7462Z"
      fill="#CF9502" />
    <path
      d="M93.5007 8.68298C97.8869 8.52172 102.286 8.71606 106.651 9.17915C108.108 9.3404 109.556 9.5306 111 9.77042L110.95 10.1549C109.498 10.0144 108.05 9.87379 106.597 9.74974C102.24 9.36521 97.8745 9.15434 93.5048 9.03857L93.5007 8.68298Z"
      fill="#CF9502" />
    <path
      d="M138.161 6.0533C128.83 4.97413 119.474 4.06449 110.106 3.40293C109.295 3.35745 105.008 3.0432 104.259 3.04734C103.887 3.05147 103.44 3.02253 103.196 3.10523C102.617 3.27889 102.592 4.10997 103.208 4.26709C104.458 4.51518 106.51 4.80047 107.797 5.01135C116.305 6.29725 124.879 7.20276 133.465 7.77336C134.636 7.87259 135.774 7.90981 136.916 7.65759C137.553 7.50873 138.476 7.34748 138.637 6.64871C138.691 6.27244 138.492 6.14427 138.161 6.0533ZM138.207 5.68531C138.426 5.71012 138.674 5.79281 138.852 5.99955C139.026 6.20629 139.063 6.48332 139.026 6.71073C138.728 7.9925 136.879 8.07933 135.815 8.24472C134.45 8.3729 132.472 8.12895 131.09 8.07933C122.491 7.52527 113.901 6.56188 105.381 5.2553C105.058 5.20154 103.966 5.03615 103.639 4.97827C103.436 4.93692 103.27 4.92865 103.018 4.85009C102.53 4.71364 102.116 4.22161 102.137 3.69649C102.116 2.87781 102.948 2.37337 103.672 2.4478C104.259 2.4478 104.876 2.46434 105.455 2.50155C116.371 3.221 127.394 4.3043 138.207 5.68531Z"
      fill="#CF9502" />
    <path
      d="M128.578 15.3193C134.247 12.7557 144.401 8.20749 149.967 5.69356C150.658 5.37518 151.941 4.79632 152.603 4.44073L152.777 4.3415L152.851 4.29188L152.872 4.27534C152.868 4.27947 152.897 4.25467 152.863 4.28774C152.843 4.31255 152.839 4.3539 152.847 4.38284L153.232 4.3539C153.232 4.50275 153.095 4.59371 152.988 4.66814C152.876 4.74257 152.549 4.92863 152.429 4.99479C151.966 5.25114 150.67 5.90443 150.182 6.14838C145.175 8.56721 139.994 10.8744 134.897 13.07C132.832 13.9548 130.804 14.8231 128.677 15.6583L128.578 15.3193Z"
      fill="#CF9502" />
    <path
      d="M127.742 28.9597C132.468 26.3425 133.034 18.3624 128.33 15.4143C129.046 15.5466 113.11 14.6411 113.292 14.6825C99.4014 13.9795 81.749 12.9665 67.8083 12.152L67.829 11.7675L82.9945 12.5076C91.6221 12.9624 104.801 13.6074 113.321 14.1036L128.483 14.9512L128.553 14.9553L128.611 14.9926C131.023 16.5472 132.298 19.5036 132.033 22.3235C131.806 25.0855 130.461 27.9757 127.895 29.2823C127.895 29.2781 127.742 28.9597 127.742 28.9597Z"
      fill="#CF9502" />
    <path
      d="M76.7007 64.7874C78.3269 67.7933 79.5931 71.2293 78.6538 74.5785C77.8676 77.3818 75.6496 79.7056 73.4069 81.8019C71.16 83.8982 68.7517 85.9614 67.3821 88.5994C66.0124 91.2332 65.9628 94.6485 68.1848 96.5712C69.4676 97.6793 71.3338 98.13 73.1421 98.0225C74.9503 97.915 76.7131 97.2907 78.3269 96.472C84.451 93.3668 88.6717 87.2722 89.2593 80.9997C89.8469 74.7273 86.8759 68.4673 81.6869 64.5931C80.9545 64.0473 80.1559 63.5346 79.2207 63.3485C78.2896 63.1666 77.189 63.3774 76.7007 64.7874Z"
      fill="#F27B00" />
    <mask id="mask0_1706_96995" style="mask-type:luminance" maskUnits="userSpaceOnUse" x="66" y="63" width="24"
      height="36">
      <path
        d="M76.7007 64.7874C78.3269 67.7933 79.5931 71.2293 78.6538 74.5785C77.8676 77.3818 75.6496 79.7056 73.4069 81.8019C71.16 83.8982 68.7517 85.9614 67.3821 88.5994C66.0124 91.2332 65.9628 94.6485 68.1848 96.5712C69.4676 97.6793 71.3338 98.13 73.1421 98.0225C74.9503 97.915 76.7131 97.2907 78.3269 96.472C84.451 93.3668 88.6717 87.2722 89.2593 80.9997C89.8469 74.7273 86.8759 68.4673 81.6869 64.5931C80.9545 64.0473 80.1559 63.5346 79.2207 63.3485C78.2896 63.1666 77.189 63.3774 76.7007 64.7874Z"
        fill="white" />
    </mask>
    <g mask="url(#mask0_1706_96995)">
      <path
        d="M63.2814 94.512C63.7862 93.0938 64.0014 91.6136 64.3696 90.1664C64.7379 88.7193 65.2841 87.2556 66.3352 86.0978C67.3862 84.9401 69.0372 84.1297 70.6179 84.3447C72.1986 84.5597 73.5021 86.011 73.1048 87.454C73.68 86.2839 75.2731 85.5893 76.5765 85.949C77.88 86.3087 78.7034 87.6608 78.3683 88.9012C78.8359 88.1487 79.8621 87.7104 80.7641 87.8799C81.6662 88.0494 82.3614 88.8061 82.3945 89.6537C82.9614 88.6614 84.5421 88.3967 85.531 88.9756C86.52 89.5545 86.9255 90.7329 86.789 91.8286C86.6524 92.9243 86.0565 93.9456 85.3821 94.8842C82.829 98.4277 78.7531 101.243 74.2262 101.773C69.7034 102.298 64.8869 100.164 63.2814 94.512Z"
        fill="#F0BC73" />
    </g>
    <path
      d="M73.6469 39.2346C73.2662 33.0863 73.0552 32.0402 72.4345 25.9166C72.3559 25.131 72.0869 22.1788 71.9338 21.4015C71.5241 19.3548 65.4786 20.1486 62.1393 20.6117C61.8414 20.6531 61.32 20.6572 61.2414 20.9921C61.1007 21.6165 61.5765 22.0134 61.8414 21.8563C61.6469 21.8522 61.3903 22.2202 61.4069 22.4434C61.4234 22.6667 61.7503 23.0306 61.9407 22.9934C61.7462 23.0058 61.6055 23.32 61.709 23.5102C61.8124 23.7004 61.9407 23.8534 62.1269 23.9113C62.9545 24.1759 63.3062 24.0973 64.6055 24.2586C64.7545 24.2793 65.4662 24.3454 65.669 24.6555C65.789 24.8375 65.7765 25.4039 65.7848 25.6313C66.0538 31.2132 65.9752 34.3763 66.2483 39.9624C66.6165 40.1815 73.6055 39.5778 73.6469 39.2346Z"
      fill="#F27B00" />
    <path
      d="M61.8165 22.8114C62.4828 22.6046 63.1614 22.5468 63.8441 22.6832L63.8648 23.0677C63.1986 23.2786 62.5159 23.2951 61.8331 23.1628C61.8372 23.1628 61.8165 22.8114 61.8165 22.8114Z"
      fill="#B55C04" />
    <path
      d="M61.68 21.6082C62.5324 21.3849 63.4014 21.3146 64.2745 21.4345L64.2993 21.819C63.4469 22.0423 62.5779 22.0754 61.7048 21.9596L61.68 21.6082Z"
      fill="#B55C04" />
    <path
      d="M65.7931 22.4889C66.0083 23.1877 66.0745 23.903 65.9503 24.6266L65.5655 24.6514C65.3462 23.9526 65.3172 23.2331 65.4414 22.5137L65.7931 22.4889Z"
      fill="#B55C04" />
    <path
      d="M88.3365 40.9465C88.8124 34.8147 88.7503 33.7438 88.9862 27.5871C89.0152 26.8015 89.1641 23.8369 89.1186 23.043C88.9986 20.9467 82.92 20.5498 79.56 20.3554C79.2621 20.3389 78.7448 20.2438 78.6207 20.558C78.3931 21.1452 78.8069 21.6289 79.0924 21.5256C78.9021 21.4842 78.5959 21.7943 78.5793 22.0217C78.5627 22.245 78.8359 22.6668 79.0303 22.6668C78.8359 22.642 78.6538 22.9231 78.7283 23.1299C78.8069 23.3366 78.9103 23.5144 79.0883 23.6095C79.8703 24.0312 80.2262 24.0188 81.4841 24.4364C81.629 24.4819 82.32 24.6887 82.4772 25.036C82.5683 25.2386 82.4772 25.7926 82.4565 26.0201C81.9476 31.573 81.4345 34.6782 80.9255 40.2312C81.2607 40.5124 88.2455 41.2731 88.3365 40.9465Z"
      fill="#F27B00" />
    <path
      d="M78.9434 22.4559C79.6386 22.3815 80.3172 22.46 80.9669 22.7247L80.9131 23.1092C80.2179 23.1836 79.5434 23.072 78.8938 22.8073L78.9434 22.4559Z"
      fill="#B55C04" />
    <path
      d="M78.9724 21.2445C79.8538 21.1948 80.7227 21.2899 81.5586 21.5794L81.5048 21.9639C80.6193 22.0177 79.7586 21.8812 78.9227 21.5959L78.9724 21.2445Z"
      fill="#B55C04" />
    <path
      d="M82.9034 22.9025C83.0193 23.6219 82.9862 24.3414 82.7627 25.036L82.3779 25.0071C82.2579 24.2835 82.3283 23.5723 82.5517 22.8735C82.5476 22.8777 82.9034 22.9025 82.9034 22.9025Z"
      fill="#B55C04" />
    <path
      d="M83.0772 64.4072C83.7765 64.6387 84.5338 64.2459 84.989 63.6546C85.4441 63.0634 85.6593 62.3026 85.8662 61.5624C87.7903 54.6657 89.6069 48.2403 89.8345 40.8143C88.0179 40.4215 82.6138 39.6359 78.6993 38.9578C76.9821 44.0518 75.6869 49.3194 74.7641 54.7401C77.6441 57.3657 80.3007 60.2765 83.0772 64.4072Z"
      fill="#514264" />
    <path d="M55.829 54.827C55.8414 54.7691 55.8538 54.7111 55.8662 54.6532L55.829 54.827Z" fill="#514264" />
    <path
      d="M75.1986 54.4796C75.2524 49.5344 75.2814 44.1013 74.309 38.8916C71.2552 39.1893 67.5765 39.272 63.3848 38.5897C63.4179 41.79 63.0662 45.4245 62.3172 48.7943C66.3269 50.8286 70.3365 52.8587 74.3462 54.8889C74.6524 55.046 75.1903 55.2197 75.1986 54.4796Z"
      fill="#514264" />
    <path
      d="M78.1779 40.7439C78.5338 40.7356 78.691 40.7977 78.9931 40.8349L79.7172 40.9548C82.9903 41.513 86.5034 42.2572 89.7931 42.6335L89.7765 43.018C86.8262 42.9643 83.9296 42.3606 81.0538 41.7487C80.5862 41.6412 79.3655 41.3641 78.9145 41.2484C78.8317 41.2194 78.2855 41.1202 78.2896 41.083L78.1779 40.7439Z"
      fill="#2C213B" />
    <path
      d="M63.4427 40.471C67.1379 40.7191 70.8414 40.686 74.5324 40.3842L74.5821 40.7687C72.7407 41.1036 70.8662 41.2359 68.9959 41.2525C67.1255 41.2483 65.251 41.1325 63.4055 40.8224L63.4427 40.471Z"
      fill="#2C213B" />
    <path
      d="M88.9945 42.7947C88.5931 48.2319 87.5255 53.6277 85.7917 58.8003C85.171 60.5162 84.6496 62.3396 83.3959 63.7372L83.1062 63.4808C84.2276 62.0957 84.6786 60.2888 85.2455 58.6183C86.3462 55.1824 87.1821 51.6637 87.8276 48.1161C88.1462 46.3381 88.4193 44.5519 88.6428 42.7574L88.9945 42.7947Z"
      fill="#2C213B" />
    <path
      d="M36.5338 45.9082C35.1186 39.0982 34.7379 31.9989 35.4207 25.0484C35.52 24.0312 35.6524 22.9851 36.1117 22.1168C36.2483 21.8605 36.4221 21.6124 36.6662 21.5214C36.9103 21.4305 37.2248 21.5628 37.2952 21.8563C37.2993 21.4801 37.5352 21.1286 37.8455 21.0377C38.1517 20.9467 38.5034 21.1286 38.6565 21.4594C38.6814 21.1286 38.9379 20.8516 39.2152 20.8433C39.4924 20.8351 39.7614 21.0997 39.8028 21.4305C39.9848 21.0542 40.4814 21.0583 40.7669 21.3354C41.0524 21.6124 41.1683 22.0589 41.251 22.4848C41.5903 24.2338 41.5696 26.0448 41.64 27.8393C41.8303 32.7307 42.72 37.5891 44.2593 42.1456C43.08 42.9518 41.8965 43.7581 40.7172 44.5644C40.1628 44.9407 39.6041 45.3252 38.9876 45.5195C38.371 45.7097 37.68 45.7014 36.5338 45.9082Z"
      fill="#F27B00" />
    <path
      d="M39.5876 25.1683C39.3434 23.9527 39.3559 22.6792 39.6703 21.476L40.0552 21.5214C40.0841 22.1334 40.0593 22.7329 40.0428 23.3325C40.0179 23.9361 40.0014 24.5357 39.9393 25.1435L39.5876 25.1683Z"
      fill="#B55C04" />
    <path
      d="M38.5407 24.9656C38.3296 23.7418 38.3296 22.4889 38.5903 21.2733L38.9752 21.3023C39.029 21.9183 39.0248 22.522 39.0124 23.1298C38.9917 23.7376 38.971 24.3413 38.8965 24.9532L38.5407 24.9656Z"
      fill="#B55C04" />
    <path
      d="M37.2662 25.0856C36.8524 24.0601 36.8234 22.8611 37.2165 21.8232L37.5931 21.9018C37.5848 22.4311 37.5558 22.9396 37.56 23.4523C37.5558 23.965 37.589 24.4778 37.6096 25.007L37.2662 25.0856Z"
      fill="#B55C04" />
    <path
      d="M45.4221 40.8224C42.4552 40.9299 38.8303 42.1703 36.1903 44.3535C35.5696 52.0813 36.0662 54.8764 36.6579 61.6119C37.8165 74.8514 46.9531 67.9877 48.36 66.4372C49.7462 64.9073 47.3503 44.5891 45.4221 40.8224Z"
      fill="#B9BE00" />
    <path
      d="M52.4648 51.577C55.8827 59.1808 58.171 68.24 54.7696 71.7463C63.8152 78.4528 82.5972 66.3628 84.1945 64.3699C81.8441 56.427 70.5269 49.7081 64.531 47.5249C63.2358 47.5952 53.1931 51.3826 52.4648 51.577Z"
      fill="#B9BE00" />
    <path
      d="M82.2993 65.8212C77.7848 58.879 71.6152 52.9787 64.32 49.03L62.8427 48.2775L63.0041 47.926L64.5227 48.6331C70.0386 51.3703 74.8634 55.4099 78.7614 60.1525C80.1807 61.8808 81.4634 63.7166 82.5972 65.6393L82.2993 65.8212Z"
      fill="#808500" />
    <path
      d="M53.189 51.5356C57.5255 52.6272 59.011 58.4159 56.7807 61.98L56.4414 61.794C58.171 58.329 56.9834 53.2474 53.0938 51.8747C53.0938 51.8788 53.189 51.5356 53.189 51.5356Z"
      fill="#808500" />
    <path
      d="M53.0027 52.2468C54.6993 52.8216 55.7752 54.7525 56.1724 55.8689C57.2193 58.8293 56.3131 60.9505 56.0524 61.3888C55.0717 58.4407 54.5876 56.2534 53.0027 52.2468Z"
      fill="#F27B00" />
    <path
      d="M30.5793 69.9931C30.4469 70.2908 25.32 76.3689 23.7062 80.2391C23.4372 80.8882 23.1683 81.587 23.2634 82.2775C23.4248 83.4476 24.48 84.2911 25.5393 84.4648C32.2924 85.5811 34.6634 83.8818 39.4179 81.3885C42.8772 79.5734 43.8083 75.3931 43.8083 75.3931C43.8083 75.3931 36.6124 69.6913 30.5793 69.9931Z"
      fill="#1F1F1F" />
    <path
      d="M33.1945 70.0303C30.1945 73.0942 27.5876 76.6335 25.4814 80.4913C25.1214 81.1487 24.7696 81.9632 25.08 82.6207C25.3531 83.2037 26.0193 83.3773 26.6193 83.4435C29.5862 83.7743 32.6317 82.8936 35.3834 81.4588C38.1352 80.0199 40.6428 78.0435 43.1131 76.0588C43.5145 75.7363 43.9407 75.3807 44.0979 74.8639C44.4 73.8922 43.6428 72.9908 42.9517 72.3541C41.6855 71.1839 40.3945 69.9973 38.851 69.3316C37.3117 68.6617 35.1103 68.0746 33.1945 70.0303Z"
      fill="#F0BC73" />
    <mask id="mask1_1706_96995" style="mask-type:luminance" maskUnits="userSpaceOnUse" x="24" y="68" width="21"
      height="16">
      <path
        d="M33.1945 70.0303C30.1945 73.0942 27.5876 76.6335 25.4814 80.4913C25.1214 81.1487 24.7696 81.9632 25.08 82.6207C25.3531 83.2037 26.0193 83.3773 26.6193 83.4435C29.5862 83.7743 32.6317 82.8936 35.3834 81.4588C38.1352 80.0199 40.6428 78.0435 43.1131 76.0588C43.5145 75.7363 43.9407 75.3807 44.0979 74.8639C44.4 73.8922 43.6428 72.9908 42.9517 72.3541C41.6855 71.1839 40.3945 69.9973 38.851 69.3316C37.3117 68.6617 35.1103 68.0746 33.1945 70.0303Z"
        fill="white" />
    </mask>
    <g mask="url(#mask1_1706_96995)">
      <path
        d="M44.3214 75.7653L36.7572 81.434C36.5338 81.5994 36.1159 81.7524 35.8221 81.7482C34.9407 81.7358 35.3421 80.9006 35.52 80.3507C35.6772 79.8752 36 79.2963 35.8759 78.7505C35.2924 78.3371 34.6179 79.5361 33.9765 79.5155C33.5007 79.4989 33.3931 79.2012 33.4303 78.7009C33.4676 78.2006 34.1172 77.229 34.0883 76.985C33.5793 76.7245 33.0993 77.0553 32.669 77.291C32.2386 77.5267 31.5476 77.5845 31.2496 77.0636C30.8814 76.4185 31.4731 75.5172 31.7959 75.1037C31.8538 75.0293 31.7793 74.897 31.68 74.9052C31.4069 74.9218 30.7903 75.0169 30.5628 75.0045C30.1903 74.9838 29.8386 75.0086 29.731 74.6075C29.6276 74.2354 29.9669 73.5325 30.1572 73.2596C30.869 72.23 31.5807 71.2005 32.2924 70.1709C32.9586 69.2075 33.691 68.1945 34.8207 67.901C35.7145 67.6694 36.7531 67.9299 37.6883 68.4261C38.6193 68.9181 39.4676 69.6293 40.2952 70.3487C41.7683 71.6346 43.2083 72.9702 44.3214 75.7653Z"
        fill="#F27B00" />
    </g>
    <path
      d="M34.2869 74.963C32.5779 76.373 31.0717 77.9814 29.7145 79.7304L29.3917 79.5195C29.6607 79.0192 29.9752 78.5479 30.3145 78.0889C31.3448 76.7368 32.611 75.5378 34.0841 74.6777L34.2869 74.963Z"
      fill="#BF6000" />
    <path
      d="M35.2883 75.848C33.869 77.1959 32.6028 78.643 31.3986 80.1853L31.0759 79.9744C31.5352 79.0855 32.131 78.2709 32.8014 77.5267C33.4759 76.7865 34.229 76.1126 35.069 75.5709L35.2883 75.848Z"
      fill="#BF6000" />
    <path
      d="M36.0083 76.9354C34.8 78.6183 33.3021 80.1068 31.5848 81.2686L31.3407 80.9668L33.5503 78.8498L35.7352 76.7039L36.0083 76.9354Z"
      fill="#BF6000" />
    <path
      d="M36.7448 78.1386C35.8055 79.6519 34.4648 80.9461 32.8883 81.7854L32.6731 81.4629C33.3393 80.9006 33.9972 80.3507 34.6262 79.7594C35.2593 79.1723 35.8552 78.5521 36.4593 77.9236L36.7448 78.1386Z"
      fill="#BF6000" />
    <path
      d="M33.5793 73.8591C31.6469 75.2939 30.0579 77.1131 28.7876 79.1516L28.4441 78.9697C28.9324 77.8285 29.6483 76.7906 30.4759 75.8645C31.32 74.9548 32.2883 74.1403 33.389 73.5614L33.5793 73.8591Z"
      fill="#BF6000" />
    <path
      d="M30.2069 49.4764C25.4317 50.9071 18.8648 51.7051 13.6634 56.0755C12.4634 57.0844 12.1283 58.9657 12.9724 60.2723C13.0552 60.4005 13.1462 60.5286 13.2455 60.6444C14.0152 61.5789 15.0786 62.1494 16.1296 62.658C19.8745 64.4773 23.8965 65.879 28.0469 65.7053C28.8869 65.6723 29.8096 65.5317 30.4096 64.8494C30.9559 64.2334 31.0924 63.3278 31.2041 62.4844C31.651 59.1269 32.0979 55.7695 32.5448 52.408C32.8014 50.5019 32.4083 51.9614 30.2069 49.4764Z"
      fill="#1F1F1F" />
    <path
      d="M32.3586 52.5569C27.3145 52.6644 22.1338 53.0241 17.4455 55.29C16.7628 55.6207 16.0759 56.0011 15.5586 56.6048C15.0414 57.2085 14.7145 58.0644 14.8883 58.8458C15.1448 60.0118 16.32 60.537 17.3545 60.8843C21.0414 62.1164 24.7986 63.117 28.6055 63.8778C29.2179 64.0019 29.8593 64.1135 30.4593 63.8944C31.4276 63.5388 32.011 62.4348 32.4083 61.3928C33.4097 58.7673 33.8772 55.9184 32.3586 52.5569Z"
      fill="#F0BC73" />
    <mask id="mask2_1706_96995" style="mask-type:luminance" maskUnits="userSpaceOnUse" x="14" y="52" width="20"
      height="13">
      <path
        d="M32.3586 52.5569C27.3145 52.6644 22.1338 53.0241 17.4455 55.29C16.7628 55.6207 16.0759 56.0011 15.5586 56.6048C15.0414 57.2085 14.7145 58.0644 14.8883 58.8458C15.1448 60.0118 16.32 60.537 17.3545 60.8843C21.0414 62.1164 24.7986 63.117 28.6055 63.8778C29.2179 64.0019 29.8593 64.1135 30.4593 63.8944C31.4276 63.5388 32.011 62.4348 32.4083 61.3928C33.4097 58.7673 33.8772 55.9184 32.3586 52.5569Z"
        fill="white" />
    </mask>
    <g mask="url(#mask2_1706_96995)">
      <path
        d="M34.1834 50.874L25.3448 52.7595C25.0841 52.8132 24.691 53.0324 24.4841 53.2598C23.8593 53.942 24.6538 54.2108 25.1131 54.4506C25.5145 54.6573 26.0938 54.8103 26.3338 55.2817C26.1683 56.0135 24.9559 55.7034 24.5131 56.2079C24.1821 56.58 24.2855 56.8694 24.6124 57.1878C24.9393 57.5062 25.9945 57.6757 26.1228 57.8659C25.9159 58.4323 25.3738 58.5771 24.9228 58.7425C24.4717 58.912 23.9421 59.3957 24.0455 59.9829C24.1738 60.7106 25.1421 60.876 25.6221 60.9132C25.709 60.9215 25.7338 61.0703 25.6593 61.1365C25.4524 61.3349 24.9517 61.7401 24.7986 61.9221C24.5462 62.2198 24.2772 62.472 24.4428 62.8317C24.5959 63.1666 25.2621 63.3899 25.5641 63.4354C26.6938 63.6008 27.8276 63.762 28.9572 63.9274C30.0166 64.0804 31.1545 64.2169 32.1393 63.5553C32.9214 63.0302 33.5048 62.0544 33.8731 61C34.2414 59.9457 34.4193 58.8086 34.5766 57.684C34.8538 55.6703 35.0772 53.6526 34.1834 50.874Z"
        fill="#F27B00" />
    </g>
    <path
      d="M26.7352 57.0141C24.6993 56.704 22.6469 56.6958 20.6028 56.9397L20.5241 56.5593C21.5421 56.2492 22.6138 56.1417 23.6772 56.15C24.7407 56.1789 25.8083 56.3278 26.8138 56.671L26.7352 57.0141Z"
      fill="#BF6000" />
    <path
      d="M26.7931 58.1802C24.9766 58.052 23.2014 58.114 21.3931 58.3208L21.3145 57.9445C22.2041 57.6551 23.1393 57.5228 24.0745 57.5021C25.0097 57.4897 25.9531 57.5806 26.851 57.8329L26.7931 58.1802Z"
      fill="#BF6000" />
    <path
      d="M26.5614 59.9002C24.6455 60.1772 22.6635 60.0987 20.7807 59.619L20.8428 59.2386L23.6897 59.4206C24.6373 59.4785 25.5848 59.5033 26.5407 59.5446L26.5614 59.9002Z"
      fill="#BF6000" />
    <path
      d="M26.7476 60.8388C25.1628 61.3846 23.3917 61.4838 21.7614 61.0662L21.8193 60.6858C22.6386 60.7065 23.4414 60.7271 24.2441 60.6941C25.051 60.6693 25.8497 60.5866 26.6648 60.4956L26.7476 60.8388Z"
      fill="#BF6000" />
    <path
      d="M27.029 55.7407C24.84 55.2817 22.5848 55.352 20.4166 55.8771L20.2966 55.5091C21.9103 54.8393 23.7269 54.6739 25.4441 54.9468C26.0193 55.0419 26.5862 55.1866 27.1241 55.3975L27.029 55.7407Z"
      fill="#BF6000" />
    <path
      d="M50.731 46.119C48.7903 43.6589 47.1807 41.5584 44.6565 40.6157C40.3365 38.9949 33.7283 43.7209 30.6207 47.4504C27.509 51.18 26.4248 56.5634 27.36 61.3763C28.2952 66.1891 31.109 70.4107 34.7338 73.367C37.4152 75.5543 40.7669 77.1421 44.1517 76.6128C46.2207 76.2903 49.0262 75.116 50.9503 74.2477C52.6469 73.4828 55.1048 72.077 56.5159 70.6919C58.4855 68.7527 59.2428 63.8116 58.3572 61.1737C56.7062 56.2285 53.9379 50.1835 50.731 46.119Z"
      fill="#F27B00" />
    <mask id="mask3_1706_96995" style="mask-type:luminance" maskUnits="userSpaceOnUse" x="27" y="40" width="32"
      height="37">
      <path
        d="M50.731 46.119C48.7903 43.6589 47.1807 41.5584 44.6565 40.6157C40.3365 38.9949 33.7283 43.7209 30.6207 47.4504C27.509 51.18 26.4248 56.5634 27.36 61.3763C28.2952 66.1891 31.109 70.4107 34.7338 73.367C37.4152 75.5543 40.7669 77.1421 44.1517 76.6128C46.2207 76.2903 49.0262 75.116 50.9503 74.2477C52.6469 73.4828 55.1048 72.077 56.5159 70.6919C58.4855 68.7527 59.2428 63.8116 58.3572 61.1737C56.7062 56.2285 53.9379 50.1835 50.731 46.119Z"
        fill="white" />
    </mask>
    <g mask="url(#mask3_1706_96995)">
      <path
        d="M58.3324 69.6127C53.1765 68.0332 47.8759 63.6711 43.6965 60.0697C42.4345 58.9823 40.8497 57.2911 40.0386 55.7572C39.1034 53.9833 38.5862 51.8664 38.4538 49.7866C38.1103 44.4776 39.3972 39.8508 41.7021 36.1874C43.7255 36.7042 45.5214 37.9488 47.0317 39.4869C48.5379 41.025 49.7752 42.8526 50.9586 44.705C53.1765 48.1782 55.2496 51.7961 56.7062 55.7489C58.1669 59.7058 58.9986 64.0184 58.3324 69.6127Z"
        fill="#F0BC73" />
    </g>
    <path
      d="M43.109 54.6656C42.6621 53.8511 40.291 53.8015 39.1117 54.0124C38.7476 54.0785 38.3421 54.1984 38.1559 54.5581C37.7462 55.3437 39.1572 58.6143 39.4759 59.0526C39.7862 59.4785 40.2579 59.7886 40.7628 59.739C41.2221 59.6935 41.6359 59.3462 41.9131 58.9244C42.1862 58.4986 43.4938 55.3644 43.109 54.6656Z"
      fill="#1F1F1F" />
    <path
      d="M42.5131 54.8352C43.4483 54.1405 44.4621 53.5741 45.5545 53.1813L45.7283 53.5245C45.2648 53.8842 44.7683 54.1736 44.2635 54.4424C43.7545 54.707 43.2331 54.9551 42.6828 55.1411L42.5131 54.8352Z"
      fill="#1F1F1F" />
    <path
      d="M42.0207 50.9485C46.2124 50.4771 47.5034 56.0962 44.3503 58.3373L44.1145 58.0313C46.5559 55.873 45.6828 51.2627 42.0662 51.2999C42.0662 51.2958 42.0207 50.9485 42.0207 50.9485Z"
      fill="#1F1F1F" />
    <path
      d="M44.789 65.7425C45.5834 65.2215 45.9683 64.2044 45.6455 63.4643C45.3228 62.7283 44.4165 62.5505 43.6221 63.0673C42.8276 63.5842 42.4428 64.6055 42.7655 65.3456C43.0841 66.0857 43.9945 66.2635 44.789 65.7425Z"
      fill="#1F1F1F" />
    <path
      d="M35.7723 50.7954C36.3858 50.0371 36.3947 49.0278 35.7922 48.5411C35.1897 48.0544 34.2039 48.2746 33.5904 49.0329C32.9769 49.7913 32.968 50.8005 33.5705 51.2872C34.173 51.7739 35.1588 51.5537 35.7723 50.7954Z"
      fill="#1F1F1F" />
    <path opacity="0.3216"
      d="M50.5365 58.0229C49.3821 58.6307 49.0386 60.45 49.7669 62.0874C50.4952 63.7248 52.0221 64.5641 53.1724 63.9563C54.3269 63.3485 54.6703 61.5292 53.9421 59.8918C53.2138 58.2545 51.691 57.4193 50.5365 58.0229Z"
      fill="#FF7889" />
    <path opacity="0.3216"
      d="M43.5328 46.1405C44.7542 45.7011 45.2503 43.9741 44.641 42.2831C44.0316 40.5922 42.5475 39.5776 41.3262 40.0171C40.1049 40.4565 39.6087 42.1835 40.2181 43.8745C40.8274 45.5654 42.3115 46.58 43.5328 46.1405Z"
      fill="#FF7889" />
    <path
      d="M34.1296 43.8822C34.5765 43.4232 35.0689 43.0139 35.5903 42.6418C36.1117 42.2655 36.6662 41.943 37.2372 41.6494C37.8165 41.3683 38.4124 41.1243 39.0289 40.9383C39.6455 40.7563 40.2745 40.6157 40.9158 40.5579L40.9821 40.9341C40.3821 41.0912 39.7903 41.2649 39.211 41.4758C38.6317 41.6866 38.0648 41.9223 37.5145 42.1994C36.9558 42.4598 36.4262 42.7741 35.9007 43.0966C35.3752 43.4232 34.8703 43.7788 34.3655 44.1468L34.1296 43.8822Z"
      fill="#B55C04" />
    <path
      d="M51.3393 61.4839C51.7945 65.0274 52.1048 68.7652 52.229 72.3376L51.8441 72.3666C51.72 71.4652 51.6248 70.5638 51.5338 69.6624C51.389 68.0623 51.1945 65.8171 51.1076 64.2335C51.0538 63.328 51.0083 62.4225 50.9876 61.5128L51.3393 61.4839Z"
      fill="#FAEDBD" />
    <path
      d="M54.8359 72.8544C53.5903 69.3606 52.4359 65.6393 51.509 62.0421L51.8772 61.9304C52.2041 62.8153 52.5021 63.7125 52.7959 64.6056C53.3007 66.1975 54 68.4302 54.4428 70.018C54.6993 70.9235 54.9517 71.8331 55.1752 72.7511L54.8359 72.8544Z"
      fill="#FAEDBD" />
    <path
      d="M58.0179 70.7622C55.9862 67.6984 53.9917 64.3906 52.2414 61.1531L52.5724 60.9546C53.0979 61.7278 53.5945 62.5217 54.091 63.3114C54.9559 64.7213 56.16 66.706 56.9628 68.1284C57.4262 68.9388 57.8814 69.7575 58.32 70.5844L58.0179 70.7622Z"
      fill="#FAEDBD" />
    <path
      d="M41.5076 43.448C38.8883 41.3186 36.3724 39.0734 33.9807 36.6918L34.2414 36.4065C35.5614 37.4609 36.8193 38.5814 38.0772 39.7019C39.3186 40.8431 40.5641 41.9801 41.7476 43.1833C41.7434 43.1875 41.5076 43.448 41.5076 43.448Z"
      fill="#FAEDBD" />
    <path
      d="M35.549 33.3799C37.7048 36.2577 39.8317 39.3753 41.7145 42.4391L41.3959 42.6541C40.8414 41.9264 40.3076 41.1863 39.7821 40.4379C38.8593 39.1106 37.5766 37.2376 36.7159 35.8979C36.2193 35.1289 35.731 34.3598 35.2593 33.5742L35.549 33.3799Z"
      fill="#FAEDBD" />
    <path
      d="M38.8717 31.573C40.32 35.0338 41.6814 38.7344 42.8193 42.3109L42.4552 42.4433C42.0786 41.5667 41.731 40.6777 41.3834 39.7887C40.7876 38.2093 39.96 35.9889 39.4262 34.4136C39.12 33.5122 38.8138 32.6067 38.5365 31.6929L38.8717 31.573Z"
      fill="#FAEDBD" />
    <path d="M30.0869 44.1676C30.4262 45.1145 31.349 47.4175 31.109 47.0123" stroke="#00AEA9" stroke-width="0.5"
      stroke-miterlimit="10" stroke-linecap="round" stroke-linejoin="round" />
    <path
      d="M34.0014 54.6242C37.258 54.6242 39.8979 51.94 39.8979 48.6288C39.8979 45.3176 37.258 42.6334 34.0014 42.6334C30.7448 42.6334 28.1048 45.3176 28.1048 48.6288C28.1048 51.94 30.7448 54.6242 34.0014 54.6242Z"
      stroke="#00AEA9" stroke-width="0.5" stroke-miterlimit="10" stroke-linecap="round" stroke-linejoin="round" />
    <path
      d="M45.691 71.5767C48.9476 71.5767 51.5876 68.8925 51.5876 65.5813C51.5876 62.2702 48.9476 59.5859 45.691 59.5859C42.4345 59.5859 39.7945 62.2702 39.7945 65.5813C39.7945 68.8925 42.4345 71.5767 45.691 71.5767Z"
      stroke="#00AEA9" stroke-width="0.5" stroke-miterlimit="10" stroke-linecap="round" stroke-linejoin="round" />
    <path d="M35.7848 54.2604C36.7779 57.2746 38.549 60.0325 40.8745 62.195" stroke="#00AEA9" stroke-width="0.5"
      stroke-miterlimit="10" stroke-linecap="round" stroke-linejoin="round" />
    <path d="M43.9945 71.4237C43.5807 71.5974 45.9269 76.4764 45.8731 76.4185" stroke="#00AEA9" stroke-width="0.5"
      stroke-miterlimit="10" stroke-linecap="round" stroke-linejoin="round" />
    <path
      d="M55.56 37.2211C53.1227 36.9647 50.8345 35.6251 48.8814 33.8637C46.9324 32.1023 45.2772 29.9274 43.5517 27.8187C40.8869 29.485 38.069 30.8536 35.1227 31.602C32.1765 32.3503 29.0814 32.4661 26.1352 31.664C29.2924 29.4974 32.4455 27.3308 35.6027 25.1642C36.8359 24.3207 38.0648 23.473 39.3393 22.7164C39.8317 22.4228 40.3531 22.1375 40.9034 22.1706C41.5407 22.2078 42.0993 22.6626 42.6207 23.105C47.309 27.1158 51.6496 31.7136 55.56 37.2211Z"
      fill="#FAEDBD" />
    <path
      d="M42.8069 24.0643C46.6965 29.1831 51.24 33.6073 56.2303 37.1342C56.2303 37.1342 71.5655 26.1358 71.5034 25.9828C66.8483 22.737 62.4 19.0654 58.2124 15.0133L42.8069 24.0643Z"
      fill="#B42323" />
    <path
      d="M39.8524 21.3478C40.6014 21.509 41.1972 22.1623 41.7145 22.8239C42.2317 23.4854 42.7448 24.2049 43.4441 24.5274C48.4303 21.4718 53.4165 18.4162 58.44 15.3772C57.9559 14.1657 56.9172 13.2891 55.7959 13.1444L39.8524 21.3478Z"
      fill="#B42323" />
    <path
      d="M40.8331 20.9012C35.6648 23.4937 30.7365 26.7436 26.1517 30.5766C25.9159 30.775 25.651 31.0686 25.7421 31.3952C25.8083 31.6309 26.0441 31.7508 26.251 31.726C26.4579 31.7012 26.6441 31.5648 26.8179 31.4325C31.3903 28.0213 36.1324 24.9285 41.0152 22.183C41.2303 22.0631 41.4662 21.9143 41.5407 21.6455C41.6152 21.3767 41.3669 21.0212 40.8331 20.9012Z"
      fill="#B42323" />
    <path
      d="M40.5186 21.7695C42.2359 23.6426 43.6965 25.8174 45.2814 27.8476C47.88 31.1761 50.8221 34.1242 54.0248 36.605C54.509 36.9813 55.0469 37.3617 55.6221 37.2955C55.7669 37.279 55.92 37.2294 56.0152 37.097C56.16 36.9027 56.131 36.5885 56.0069 36.3735C55.8828 36.1585 55.6883 36.0137 55.5021 35.8773C50.9462 32.5612 46.8621 28.3396 43.4648 23.4482C43.1131 22.9397 42.7614 22.4187 42.3021 22.0466C41.8469 21.6744 41.2552 21.4718 40.5186 21.7695Z"
      fill="#B42323" />
    <path
      d="M40.8703 23.411C41.5448 24.4902 42.9186 26.6527 43.6138 27.7153L43.3117 27.9551C42.6952 27.339 42.1697 26.6361 41.7062 25.9001C41.251 25.16 40.8455 24.3868 40.5517 23.5681L40.8703 23.411Z"
      fill="#C2B68C" />
    <path
      d="M27.6538 31.7136C31.0097 29.5222 34.4566 27.4672 37.7669 25.2138C38.8717 24.4695 39.96 23.6963 41.0276 22.9025L41.2717 23.2043C38.2138 25.8299 34.7793 27.9717 31.3241 30.0266C30.1697 30.7089 29.0069 31.3663 27.8359 32.0196L27.6538 31.7136Z"
      fill="#C2B68C" />
    <path
      d="M32.4083 30.3285L40.5145 24.726L40.7503 25.0319C40.1297 25.5777 39.48 26.0904 38.8221 26.5907C36.8359 28.071 34.7752 29.452 32.5945 30.6345L32.4083 30.3285Z"
      fill="#C2B68C" />
    <path
      d="M32.9007 31.2836C34.7131 29.8778 36.7903 28.6291 38.6731 27.3225L38.9255 27.6119C38.4993 28.042 38.0317 28.4017 37.56 28.7573C36.1366 29.7992 34.6386 30.7295 33.0952 31.5772L32.9007 31.2836Z"
      fill="#C2B68C" />
    <path
      d="M37.5517 29.6339C38.9379 28.7573 40.8166 27.2978 42.149 26.3054L42.4262 26.5742C41.1021 28.0048 39.509 29.1997 37.709 29.9523C37.709 29.9481 37.5517 29.6339 37.5517 29.6339Z"
      fill="#C2B68C" />
    <path
      d="M42.4759 24.2339C45.5545 29.1336 49.6304 33.4213 54.571 36.4686L54.3766 36.8035C50.4869 34.7196 47.1559 31.6516 44.5366 28.1164C43.6635 26.938 42.8731 25.6935 42.1697 24.4075L42.4759 24.2339Z"
      fill="#C2B68C" />
    <path
      d="M43.1421 23.5887C46.9365 21.6288 50.6772 19.5656 54.3227 17.337C55.5393 16.601 56.7476 15.8443 57.9558 15.0876L58.171 15.406C54.6952 17.9241 50.9959 20.1279 47.1765 22.0754C45.9021 22.7245 44.6069 23.3323 43.2952 23.9029L43.1421 23.5887Z"
      fill="#E14242" />
    <path
      d="M43.0386 19.6483C44.16 20.223 45.1448 21.0789 45.8441 22.1292L45.5545 22.3855C45.0745 21.9927 44.6358 21.5792 44.1848 21.174C43.7379 20.7647 43.2827 20.3678 42.8358 19.9377L43.0386 19.6483Z"
      fill="#E14242" />
    <path
      d="M41.5903 20.3761C42.7365 20.8971 43.7338 21.786 44.3793 22.8652L44.0772 23.105C43.6221 22.6957 43.2 22.2739 42.7572 21.8687C42.3186 21.4594 41.8634 21.0749 41.4041 20.6697L41.5903 20.3761Z"
      fill="#E14242" />
    <path
      d="M53.7558 14.5088C54.7034 14.79 55.5186 15.5218 55.9117 16.4232L55.5889 16.6382C55.2538 16.3157 54.9517 15.9932 54.6248 15.6955C54.302 15.3895 53.9586 15.1166 53.5986 14.8272L53.7558 14.5088Z"
      fill="#E14242" />
    <path
      d="M55.291 13.715C56.1765 13.9465 56.9545 14.6039 57.3352 15.4309L57.0207 15.6583C56.6938 15.3771 56.4041 15.0918 56.0938 14.8231C55.7876 14.5502 55.4648 14.3021 55.1338 14.0333L55.291 13.715Z"
      fill="#E14242" />
    <path
      d="M52.9365 15.9146C50.8634 16.9814 48.8276 18.1846 46.9324 19.5408C46.6717 19.7434 46.3117 20.0039 46.1379 20.2479C46.1172 20.2685 46.1255 20.2892 46.1338 20.223C46.1421 20.2024 46.109 20.1321 46.1296 20.1776C46.2124 20.3678 46.349 20.3636 46.589 20.3223C47.2345 20.1776 47.8841 19.6649 48.5545 19.2597L50.5531 18.0068L52.5559 16.7664C52.8745 16.5514 53.2965 16.3695 53.3959 16.1503C53.5241 15.9601 53.2593 15.7782 52.949 15.927L52.9365 15.9146ZM52.7793 15.5797C53.28 15.2862 54.0662 15.6583 53.7807 16.3281C53.5862 16.7499 53.131 16.9194 52.8041 17.1675L50.8386 18.4699L48.869 19.7641C48.0538 20.2437 46.2579 21.7901 45.5627 20.405C45.4759 20.2644 45.5586 19.9915 45.6248 19.9253C45.9145 19.5325 46.2207 19.3423 46.5765 19.0653C48.5131 17.6802 50.6607 16.5679 52.7793 15.5797Z"
      fill="#E14242" />
    <path
      d="M46.2993 24.5687C48.7862 28.5422 51.8441 32.1725 55.7834 34.765L55.4648 34.7733C58.3821 32.5777 63.6745 28.6745 66.48 26.4376C66.8483 26.1317 67.5186 25.6148 67.8538 25.2758L67.8745 25.251C67.8703 25.2551 67.8703 25.2551 67.8703 25.2592C67.8745 25.251 67.8579 25.2799 67.8455 25.3171C67.8372 25.3543 67.8372 25.3915 67.8455 25.4246L67.9986 25.6438C64.2414 23.502 60.9269 20.6407 58.1627 17.3412L58.5062 17.3991C54.4717 19.8096 50.4 22.1664 46.2993 24.5687ZM45.9434 24.4612C50.0648 21.9266 54.2276 19.3465 58.4234 16.8243C61.2 20.1363 64.5352 22.9975 68.3007 25.1104L68.4372 25.1889L68.4538 25.3337C68.4786 25.5239 68.3379 25.6727 68.2138 25.7926C67.891 26.1234 67.229 26.6196 66.8648 26.9214C63.3103 29.6875 59.4207 32.5736 55.7917 35.2198L55.6345 35.3356L55.4772 35.2281C51.5048 32.4744 48.149 28.7531 45.9434 24.4612Z"
      fill="#E14242" />
    <path
      d="M49.0676 25.1888C51.2234 27.8185 53.5407 30.3035 56.0276 32.6273L55.7793 32.9208C54.4014 31.8871 53.1476 30.7005 51.9724 29.4476C50.8138 28.1783 49.7255 26.8427 48.7862 25.3997L49.0676 25.1888Z"
      fill="#E14242" />
    <path
      d="M50.9586 25.3667C52.6427 27.3307 54.4965 29.4849 56.1724 31.4572L55.8952 31.7259C54.8896 30.8287 53.9752 29.8364 53.0979 28.8151C52.2372 27.7814 51.4055 26.7188 50.6772 25.5817L50.9586 25.3667Z"
      fill="#E14242" />
    <path
      d="M53.1765 22.9106C54.9931 25.3295 56.971 27.6119 59.1186 29.7371L58.8621 30.0266C57.6496 29.088 56.5614 27.9923 55.5559 26.8387C54.5669 25.6685 53.6483 24.4364 52.8828 23.105L53.1765 22.9106Z"
      fill="#E14242" />
    <path
      d="M54.4221 22.8734C55.9407 24.8622 57.5834 26.7435 59.3669 28.5008L59.1145 28.7944C58.0841 28.0377 57.1738 27.1363 56.3296 26.1812C55.5062 25.2095 54.7448 24.1841 54.1283 23.0677L54.4221 22.8734Z"
      fill="#E14242" />
    <path
      d="M55.1172 21.2072C57.029 23.8203 59.1765 26.2391 61.5724 28.4182L61.3283 28.7159C59.9959 27.7525 58.8 26.6113 57.7034 25.3874C56.6234 24.1511 55.6345 22.828 54.8234 21.4015L55.1172 21.2072Z"
      fill="#E14242" />
    <path
      d="M57.3393 22.0051C58.7007 23.4812 60.2193 25.04 61.6634 26.4376L61.4193 26.7353C60.5462 26.144 59.7641 25.4328 59.0276 24.6844C58.3076 23.9195 57.629 23.1132 57.0621 22.2243L57.3393 22.0051Z"
      fill="#E14242" />
    <path
      d="M58.2538 19.5118C60.7034 21.7074 63.0497 24.0187 65.2634 26.45L64.9903 26.7228C63.7531 25.6354 62.5821 24.4818 61.411 23.3282C60.2565 22.1581 59.0979 20.9879 58.0055 19.7599L58.2538 19.5118Z"
      fill="#E14242" />
    <path
      d="M40.7338 22.3524C40.3117 22.1664 40.0055 21.9803 39.6662 21.6743L39.7945 21.3105C40.3076 21.3063 40.7834 21.6454 40.9903 22.1085C40.9903 22.1043 40.7338 22.3524 40.7338 22.3524Z"
      fill="#E14242" />
    <path
      d="M69.0124 47.1776C67.2745 40.471 64.5228 34.1325 60.9186 28.5588C60.3931 27.7443 59.8221 26.9215 59.0524 26.446C58.8248 26.3054 58.5642 26.1979 58.3159 26.264C58.0676 26.3302 57.8524 26.6362 57.9186 26.9256C57.7531 26.6072 57.3931 26.4418 57.0911 26.5493C56.789 26.6568 56.5655 27.0207 56.5738 27.3969C56.4083 27.1282 56.069 27.0414 55.8248 27.1985C55.5807 27.3597 55.4648 27.7484 55.5724 28.0544C55.2538 27.8394 54.8276 28.1412 54.7035 28.5505C54.5793 28.9599 54.6704 29.4147 54.7862 29.8282C55.2538 31.5358 56.0566 33.0864 56.7724 34.67C58.7297 38.9949 60.0745 43.7085 60.7283 48.5462C62.0938 48.5338 63.4593 48.5214 64.8248 48.509C65.4662 48.5048 66.1117 48.4966 66.7283 48.2981C67.3448 48.1038 67.9366 47.6862 69.0124 47.1776Z"
      fill="#F27B00" />
    <path
      d="M70.44 65.9328C71.5365 61.8932 71.8717 52.437 69.2193 46.2969C66.2938 45.6849 63.2234 46.1191 60.2607 47.6159C59.6607 53.326 58.8207 58.9988 57.749 64.6056C57.5338 65.7219 57.3103 66.8424 57.2814 67.9878C57.2524 69.1331 57.4303 70.3156 57.9641 71.2749C58.5972 72.412 59.669 73.119 60.7779 73.4663C62.6152 74.041 64.6386 73.6979 66.2607 72.536C67.8828 71.3741 69.451 69.5838 70.44 65.9328Z"
      fill="#B9BE00" />
    <path
      d="M57.0662 31.3167C56.4538 30.3161 55.9035 29.3238 55.3945 28.2653L55.7131 28.0503C56.52 28.9351 57.0828 30.0267 57.389 31.1803C57.3931 31.1803 57.0662 31.3167 57.0662 31.3167Z"
      fill="#B55C04" />
    <path
      d="M57.8814 30.5228C57.24 29.5305 56.6855 28.5175 56.2262 27.4259L56.5572 27.2274C56.9462 27.6864 57.2566 28.1949 57.5338 28.7201C57.8028 29.2493 58.0428 29.7951 58.2 30.374L57.8814 30.5228Z"
      fill="#B55C04" />
    <path
      d="M59.011 29.8034C58.6097 28.8648 58.1876 28.013 57.6786 27.1241L57.9766 26.876C58.3945 27.2233 58.709 27.6823 58.9407 28.166C59.1683 28.6539 59.3255 29.179 59.3545 29.7166L59.011 29.8034Z"
      fill="#B55C04" />
    <path
      d="M69.0083 70.1627C71.6193 64.9736 71.2552 53.4873 69.6 47.9178C69.4552 47.4381 69.2731 46.9709 69.1117 46.4995L69.4676 46.3466C70.3076 48.232 70.7669 50.2456 71.0772 52.2634C71.64 56.3113 71.6648 60.4295 71.0979 64.4774C70.7834 66.4911 70.3655 68.5336 69.3103 70.3488L69.0083 70.1627Z"
      fill="#808500" />
    <path
      d="M60.3683 47.6821C60.0786 53.5906 58.68 59.3627 57.96 65.2134C57.7366 67.1361 57.4593 69.0918 57.7159 71.0145L57.3393 71.093C56.7724 67.1154 57.691 63.2039 58.2331 59.2924C58.5724 57.2705 59.4041 52.5445 59.6772 50.5764C59.8262 49.6089 59.9379 48.6372 60.0166 47.6655L60.3683 47.6821Z"
      fill="#808500" />
  </g>
  <defs>
    <clipPath id="clip0_1706_96995">
      <rect width="180" height="118.345" fill="white" />
    </clipPath>
  </defs>
</svg>