<svg width="121" height="120" viewBox="0 0 121 120" fill="none" xmlns="http://www.w3.org/2000/svg">
  <path
    d="M95.2516 29.8177L94.7716 29.0305C90.7444 22.3945 83.4628 18.3937 75.7852 18.8785C74.7966 18.9417 73.814 19.0772 72.8452 19.2841C65.866 20.7769 59.7916 26.0569 57.274 32.8153C55.7932 36.7921 55.3804 41.3689 52.57 44.5249C48.9148 48.6313 42.706 48.7609 37.2484 48.5905C31.7908 48.4201 25.5772 48.5665 21.9388 52.6897C19.6636 55.2721 18.9388 58.9441 19.1212 62.4001C19.6012 71.5561 25.99 79.7425 34.102 83.8105C42.214 87.8785 51.7684 88.2457 60.6484 86.4505C73.09 83.9425 84.9196 77.0569 92.0308 66.4201C99.142 55.7833 100.94 41.2993 95.2516 29.8177Z"
    fill="#FFC1B9" />
  <path
    d="M104.309 75.8902C104.92 73.1842 103.222 70.4949 100.516 69.8836C97.8101 69.2723 95.1208 70.9704 94.5095 73.6764C93.8982 76.3825 95.5963 79.0717 98.3023 79.6831C101.008 80.2944 103.698 78.5963 104.309 75.8902Z"
    fill="#F5F5F5" />
  <path
    d="M44.7676 18.8545C44.7497 18.7957 44.7205 18.7411 44.6815 18.6938C44.6425 18.6464 44.5945 18.6072 44.5403 18.5784C44.4861 18.5496 44.4268 18.5319 44.3657 18.5261C44.3046 18.5203 44.243 18.5267 44.1844 18.5449L42.082 19.2001L13.2484 26.8489L23.5156 66.8641L27.0892 68.7433L56.4364 60.5833C56.5498 60.5518 56.6557 60.4981 56.7481 60.4251C56.8404 60.3521 56.9172 60.2614 56.974 60.1584C57.0308 60.0553 57.0664 59.9419 57.0788 59.8249C57.0911 59.7078 57.08 59.5895 57.046 59.4769L44.7676 18.8545Z"
    fill="#E14242" />
  <path d="M41.506 17.2681L44.3788 18.9529L56.6788 59.9353L27.0412 68.3977L23.674 66.5689L41.506 17.2681Z"
    fill="#F5F5F5" />
  <path
    d="M52.6492 58.2312L23.5156 66.8712L11.7364 27.12C11.6626 26.8689 11.6901 26.5989 11.8131 26.3679C11.936 26.1369 12.1445 25.9632 12.394 25.884L41.2156 16.836C41.2862 16.814 41.3604 16.8063 41.434 16.8133C41.5076 16.8204 41.5791 16.8422 41.6442 16.8773C41.7092 16.9124 41.7666 16.9602 41.813 17.0178C41.8593 17.0754 41.8937 17.1417 41.914 17.2128L53.302 57.0528C53.3696 57.2956 53.3391 57.5553 53.217 57.7757C53.0948 57.9962 52.8909 58.1598 52.6492 58.2312Z"
    fill="#E14242" />
  <path
    d="M27.2428 65.1816C27.2116 65.1816 24.4996 56.3016 21.19 45.3048C17.8804 34.308 15.2212 25.3992 15.2548 25.3848C15.2884 25.3704 17.998 34.2648 21.31 45.264C24.622 56.2632 27.2764 65.172 27.2428 65.1816Z"
    fill="#263238" />
  <path
    d="M26.2155 66.2088C26.1819 66.2208 23.4723 57.3288 20.1627 46.332C16.8531 35.3352 14.1939 26.4288 14.2275 26.412C14.2611 26.3952 16.9707 35.292 20.2803 46.2912C23.5899 57.2904 26.2491 66.1992 26.2155 66.2088Z"
    fill="#263238" />
  <path
    d="M24.9412 36.24C25.1356 36.8544 24.8164 37.416 24.1468 37.6248L23.29 37.9008L22.6396 35.8368L23.5276 35.556C24.1708 35.3496 24.7492 35.628 24.9412 36.24ZM24.3916 36.42C24.3736 36.3413 24.3394 36.2673 24.2911 36.2027C24.2429 36.1381 24.1816 36.0843 24.1113 36.0447C24.041 36.0052 23.9633 35.9808 23.883 35.9731C23.8027 35.9653 23.7217 35.9745 23.6452 36L23.3068 36.1056L23.6812 37.3056L24.046 37.1904C24.1224 37.1669 24.1929 37.1273 24.2527 37.0744C24.3126 37.0215 24.3605 36.9564 24.3933 36.8834C24.426 36.8105 24.4427 36.7315 24.4424 36.6515C24.4422 36.5716 24.4248 36.4927 24.3916 36.42Z"
    fill="white" />
  <path d="M25.4236 34.9536L26.074 37.0176L25.5364 37.188L24.886 35.124L25.4236 34.9536Z" fill="white" />
  <path
    d="M26.9452 34.9609C26.797 35.0147 26.6753 35.1237 26.6055 35.2651C26.5357 35.4065 26.5231 35.5694 26.5705 35.7198C26.6178 35.8702 26.7214 35.9966 26.8596 36.0725C26.9979 36.1484 27.16 36.168 27.3124 36.1273C27.5036 36.0528 27.6596 35.9088 27.7492 35.7241L28.1692 35.9641C28.0195 36.2696 27.7558 36.5041 27.4348 36.6169C27.2941 36.6672 27.1446 36.6885 26.9955 36.6794C26.8464 36.6703 26.7006 36.6311 26.5671 36.564C26.4336 36.4969 26.315 36.4034 26.2187 36.2892C26.1224 36.175 26.0503 36.0424 26.0067 35.8994C25.9631 35.7565 25.949 35.6062 25.9652 35.4577C25.9814 35.3091 26.0276 35.1654 26.101 35.0353C26.1744 34.9051 26.2734 34.7912 26.3921 34.7004C26.5108 34.6097 26.6467 34.544 26.7916 34.5073C27.1064 34.4113 27.4465 34.4441 27.7372 34.5985L27.5428 35.0785C27.4574 35.0171 27.3599 34.9749 27.2568 34.9546C27.1537 34.9343 27.0474 34.9364 26.9452 34.9609Z"
    fill="white" />
  <path
    d="M29.4532 33.6841L29.5924 34.1281L28.9756 34.3249L29.4868 35.9425L28.9468 36.1129L28.4356 34.4929L27.8236 34.6873L27.6844 34.2433L29.4532 33.6841Z"
    fill="white" />
  <path d="M30.2116 33.4464L30.862 35.5104L30.322 35.6808L29.6716 33.6168L30.2116 33.4464Z" fill="white" />
  <path
    d="M33.0364 33.6888C33.1222 33.9084 33.14 34.1487 33.0874 34.3785C33.0347 34.6083 32.914 34.8169 32.7411 34.9771C32.5682 35.1374 32.3511 35.2418 32.1179 35.2769C31.8848 35.312 31.6465 35.276 31.4341 35.1737C31.2217 35.0714 31.0451 34.9075 30.9272 34.7033C30.8092 34.4992 30.7555 34.2643 30.773 34.0292C30.7906 33.7941 30.8785 33.5697 31.0253 33.3853C31.1722 33.2009 31.3712 33.0649 31.5964 32.9952C31.7363 32.9439 31.8851 32.9212 32.034 32.9284C32.1829 32.9357 32.3288 32.9728 32.4631 33.0374C32.5974 33.1021 32.7173 33.1931 32.8158 33.305C32.9143 33.4169 32.9893 33.5474 33.0364 33.6888ZM31.3564 34.2192C31.4015 34.3747 31.5065 34.5059 31.6481 34.5841C31.7898 34.6624 31.9567 34.6813 32.1124 34.6368C32.2566 34.5771 32.3733 34.4654 32.4392 34.3239C32.5052 34.1824 32.5157 34.0213 32.4687 33.8724C32.4217 33.7235 32.3205 33.5976 32.1852 33.5197C32.05 33.4417 31.8904 33.4173 31.738 33.4512C31.6626 33.4767 31.5929 33.5167 31.5331 33.5691C31.4732 33.6215 31.4242 33.6852 31.389 33.7565C31.3538 33.8279 31.333 33.9055 31.3278 33.9849C31.3226 34.0643 31.3331 34.1439 31.3588 34.2192H31.3564Z"
    fill="white" />
  <path
    d="M33.454 32.424L34.7812 33.384L34.39 32.1408L34.8916 31.9824L35.542 34.0464L35.062 34.1952L33.7372 33.2544L34.126 34.4904L33.6244 34.6488L32.9716 32.5848L33.454 32.424Z"
    fill="white" />
  <path
    d="M37.21 33.1201L36.3196 33.4009L36.2884 33.8137L35.7364 33.9865L35.9764 31.6441L36.5308 31.4689L38.0452 33.2617L37.4716 33.4417L37.21 33.1201ZM36.922 32.7601L36.406 32.1121L36.3508 32.9401L36.922 32.7601Z"
    fill="white" />
  <path
    d="M39.4636 32.7984L38.9836 32.3184L38.5948 32.4408L38.7748 33.012L38.2348 33.1824L37.5844 31.1184L38.5108 30.8256C39.0604 30.6528 39.454 30.8256 39.6004 31.2792C39.6522 31.411 39.6649 31.555 39.6368 31.6938C39.6087 31.8326 39.541 31.9604 39.442 32.0616L40.0852 32.5992L39.4636 32.7984ZM38.446 32.0184L38.8372 31.896C38.8836 31.8879 38.9277 31.8696 38.9662 31.8423C39.0046 31.8151 39.0365 31.7796 39.0595 31.7384C39.0825 31.6972 39.096 31.6515 39.0991 31.6044C39.1022 31.5573 39.0947 31.5102 39.0772 31.4664C39.066 31.4208 39.0446 31.3783 39.0147 31.3421C38.9848 31.3058 38.9471 31.2769 38.9044 31.2572C38.8617 31.2376 38.8152 31.2279 38.7682 31.2288C38.7212 31.2297 38.6751 31.2412 38.6332 31.2624L38.242 31.3848L38.446 32.0184Z"
    fill="white" />
  <path
    d="M41.2132 31.5216L41.422 32.1816L40.882 32.352L40.6804 31.7064L39.4804 30.528L40.018 30.3576L40.786 31.0776L40.9852 30.0408L41.5228 29.8704L41.2132 31.5216Z"
    fill="white" />
  <path
    d="M31.8028 42.5809L29.458 43.3201L29.3812 44.3977L27.9244 44.8585L28.546 38.6977L30.0004 38.2393L33.9868 42.9601L32.4772 43.4401L31.8028 42.5809ZM31.042 41.6209L29.6908 39.9217L29.542 42.0817L31.042 41.6209Z"
    fill="white" />
  <path d="M35.53 39.36L35.8084 40.2408L33.7564 40.8888L33.478 40.0056L35.53 39.36Z" fill="white" />
  <path
    d="M40.1068 35.0544L40.3996 35.9832L38.5948 40.2432L41.506 39.3264L41.8636 40.464L37.0636 41.9784L36.7732 41.0592L38.5756 36.7896L35.8132 37.6608L35.4556 36.5208L40.1068 35.0544Z"
    fill="white" />
  <path
    d="M54.1732 59.28L54.106 59.3064L53.902 59.376L53.1196 59.616L50.2396 60.5184L40.7044 63.4464L31.1572 66.3408L28.2556 67.2L27.466 67.44L27.2596 67.4976C27.2363 67.5057 27.2121 67.5106 27.1876 67.512C27.2088 67.5005 27.2314 67.4916 27.2548 67.4856L27.4588 67.416L28.2412 67.176L31.1212 66.2736L40.6588 63.3432L50.2036 60.4512L53.1004 59.5872L53.89 59.3472L54.0964 59.292C54.1213 59.2845 54.1471 59.2805 54.1732 59.28Z"
    fill="#263238" />
  <path
    d="M37.8364 63.5304L33.418 64.8864C34.4568 66.7894 35.1951 68.8417 35.6068 70.9704C36.2353 70.0016 36.5788 68.8755 36.598 67.7208C37.3449 68.6161 38.1593 69.453 39.034 70.224C39.0952 67.9345 38.6877 65.6566 37.8364 63.5304Z"
    fill="#455A64" />
  <path
    d="M53.6332 58.7328C53.6332 58.7328 53.6116 58.7448 53.566 58.7616L53.3644 58.8288L52.582 59.0688L49.702 59.9688L40.1668 62.8992L30.622 65.7936L27.7252 66.6576L26.9356 66.8856L26.7292 66.9408L26.6572 66.9576C26.6783 66.9452 26.7008 66.9355 26.7244 66.9288L26.926 66.8616L27.7108 66.6096L30.5908 65.7096L40.126 62.7792L49.6732 59.8848L52.57 59.04L53.3596 58.812L53.566 58.7568L53.6332 58.7328Z"
    fill="#263238" />
  <path
    d="M54.5284 57.6C54.5136 57.5674 54.5016 57.5337 54.4924 57.4992L54.4036 57.2016L54.0748 56.0592C53.7916 55.0608 53.3836 53.6256 52.8748 51.8544C51.8668 48.3024 50.4628 43.3968 48.8812 37.9896C47.2996 32.5824 45.85 27.6984 44.7748 24.1632C44.2444 22.3992 43.8148 20.9712 43.5124 19.9752C43.3684 19.4952 43.2532 19.1016 43.174 18.8352C43.138 18.7104 43.1092 18.612 43.09 18.54C43.0784 18.5063 43.0696 18.4718 43.0636 18.4368C43.0784 18.4687 43.0913 18.5016 43.102 18.5352C43.1236 18.6072 43.1572 18.7032 43.198 18.828C43.282 19.0944 43.4044 19.4736 43.5604 19.9608C43.8676 20.952 44.3116 22.3776 44.8612 24.1368C45.9484 27.6648 47.4244 32.5488 49.0084 37.9584C50.5924 43.368 51.9796 48.2784 52.966 51.8328C53.446 53.6088 53.8492 55.0464 54.1228 56.0496L54.43 57.1992C54.4612 57.3264 54.4876 57.4248 54.5044 57.4992C54.5212 57.5736 54.5284 57.6 54.5284 57.6Z"
    fill="#263238" />
  <path
    d="M41.8468 26.1096C41.8468 26.1096 41.8468 26.0808 41.818 26.028L41.7388 25.788C41.6684 25.5704 41.5676 25.2584 41.4364 24.852C41.1772 24.036 40.8004 22.848 40.3228 21.348L40.3684 21.372L18.466 28.2264L18.5068 28.1472C19.018 29.784 19.5172 31.3848 19.9948 32.9232L19.918 32.8824L35.53 28.0416L40.15 26.6208L41.4004 26.2392L41.7268 26.1408L41.8396 26.1096L41.7364 26.148L41.4196 26.2488L40.1956 26.64L35.5972 28.08L19.954 33.0024L19.894 33.0192L19.8748 32.9616C19.3948 31.4232 18.8956 29.8224 18.3868 28.188L18.3676 28.128L18.4276 28.1088L40.3468 21.3024L40.3804 21.2904V21.324C40.8436 22.8384 41.2084 24.036 41.4628 24.8616C41.5828 25.2648 41.6788 25.5816 41.7436 25.7928C41.7748 25.896 41.7964 25.9728 41.8132 26.0328C41.8267 26.0573 41.8379 26.083 41.8468 26.1096Z"
    fill="white" />
  <path
    d="M99.9962 40.9493C105.095 38.8716 107.544 33.0537 105.467 27.9547C103.389 22.8557 97.571 20.4065 92.472 22.4843C87.373 24.562 84.9238 30.3799 87.0016 35.4789C89.0793 40.5779 94.8972 43.0271 99.9962 40.9493Z"
    fill="white" />
  <path
    d="M88.09 41.5753C88.078 41.5753 88.09 41.4673 88.0252 41.2849C87.942 41.0266 87.7811 40.8003 87.5644 40.6369C87.419 40.5205 87.2491 40.4385 87.0676 40.3969C86.861 40.3548 86.6466 40.374 86.4508 40.4521C86.2217 40.532 86.0223 40.6795 85.8788 40.8751C85.7352 41.0707 85.6544 41.3052 85.6468 41.5477C85.6393 41.7902 85.7054 42.0293 85.8365 42.2335C85.9676 42.4376 86.1575 42.5972 86.3812 42.6913C86.5724 42.7792 86.7847 42.8109 86.9932 42.7825C87.1763 42.7536 87.3509 42.6848 87.5044 42.5809C87.7305 42.4318 87.905 42.2163 88.0036 41.9641C88.0708 41.7841 88.0756 41.6737 88.0852 41.6761C88.0884 41.7024 88.0884 41.729 88.0852 41.7553C88.0844 41.7869 88.0796 41.8184 88.0708 41.8489C88.0644 41.8924 88.0531 41.935 88.0372 41.9761C87.9599 42.2019 87.8233 42.4028 87.6418 42.5577C87.4602 42.7126 87.2404 42.816 87.0052 42.8569C86.7813 42.8933 86.5515 42.8624 86.3452 42.7681C86.1147 42.665 85.9183 42.4985 85.7788 42.2881C85.6215 42.0684 85.5375 41.8047 85.5388 41.5345C85.552 41.2642 85.6512 41.0052 85.822 40.7953C85.9759 40.5987 86.181 40.4484 86.4148 40.3609C86.6269 40.2801 86.8581 40.2634 87.0796 40.3129C87.2751 40.3607 87.4568 40.4536 87.61 40.5841C87.8314 40.7593 87.9911 41.0006 88.066 41.2729C88.0766 41.3155 88.0846 41.3588 88.09 41.4025C88.0943 41.4343 88.0943 41.4666 88.09 41.4985C88.0926 41.524 88.0926 41.5497 88.09 41.5753Z"
    fill="#263238" />
  <path
    d="M94.5508 41.6329L94.714 41.6473L95.194 41.7001L95.542 41.7385C95.6716 41.7385 95.8132 41.7385 95.9668 41.7385H96.4612C96.5526 41.7428 96.6442 41.7387 96.7348 41.7265L97.0252 41.7025C97.991 41.63 98.9402 41.4115 99.8404 41.0545C101.036 40.5897 102.131 39.8996 103.066 39.0217L103.457 38.6473C103.58 38.5153 103.697 38.3713 103.82 38.2321L104.004 38.0209C104.067 37.9501 104.126 37.8756 104.18 37.7977L104.513 37.3177C104.568 37.2385 104.626 37.1617 104.681 37.0777L104.828 36.8209C104.924 36.6481 105.024 36.4753 105.123 36.3001C105.221 36.1249 105.291 35.9305 105.377 35.7457C105.42 35.6521 105.461 35.5561 105.504 35.4625C105.524 35.4145 105.548 35.3689 105.564 35.3209L105.615 35.1721C105.761 34.7727 105.88 34.3638 105.97 33.9481C106.013 33.7369 106.071 33.5281 106.104 33.3097C106.138 33.0913 106.155 32.8729 106.181 32.6521C106.193 32.5417 106.212 32.4313 106.217 32.3185C106.222 32.2057 106.217 32.0953 106.217 31.9825C106.217 31.7569 106.229 31.5289 106.217 31.3009C106.194 30.8378 106.139 30.3767 106.054 29.9209L105.989 29.5729C105.989 29.5153 105.97 29.4577 105.956 29.3977L105.908 29.2273C105.84 28.9873 105.776 28.7689 105.708 28.5385C105.641 28.3081 105.533 28.0897 105.447 27.8617C105.399 27.7513 105.36 27.6217 105.305 27.5257L105.137 27.1993C104.913 26.7562 104.659 26.3288 104.376 25.9201C104.223 25.7209 104.067 25.5241 103.911 25.3249L103.793 25.1737L103.661 25.0369L103.397 24.7585L103.133 24.4801L102.843 24.2401L102.555 24.0001L102.408 23.8729C102.358 23.8345 102.303 23.7985 102.25 23.7601L101.612 23.3065L100.928 22.9153C99.0254 21.8945 96.8417 21.5237 94.7092 21.8593L93.934 22.0033L93.1804 22.2193L92.9932 22.2745L92.8132 22.3465L92.4532 22.4905L92.0956 22.6321L91.7524 22.8073L91.414 22.9825L91.2436 23.0713L91.0852 23.1721L90.4468 23.5801C90.0461 23.8746 89.6653 24.1953 89.3068 24.5401L89.05 24.7897C88.9612 24.8737 88.8868 24.9721 88.81 25.0633C88.654 25.2481 88.4884 25.4257 88.33 25.6153L87.9148 26.1985L87.8116 26.3449C87.7804 26.3953 87.7516 26.4457 87.7228 26.4985C87.6628 26.5993 87.6052 26.7025 87.5476 26.8033C87.3171 27.2062 87.1134 27.6239 86.938 28.0537C86.8564 28.2673 86.7916 28.4857 86.7172 28.6993C86.6836 28.8049 86.6476 28.9129 86.6116 29.0185C86.5756 29.1241 86.5612 29.2369 86.5348 29.3449C86.4868 29.5633 86.4388 29.7769 86.3908 29.9929C86.3428 30.2089 86.3356 30.4249 86.3068 30.6385C86.256 31.0605 86.2335 31.4854 86.2396 31.9105V32.0665C86.2396 32.1193 86.2396 32.1697 86.2516 32.2225C86.2516 32.3257 86.2684 32.4289 86.2756 32.5297C86.2972 32.7337 86.302 32.9377 86.3332 33.1369C86.3644 33.3361 86.4052 33.5329 86.4412 33.7273C86.4604 33.8233 86.4772 33.9217 86.494 34.0177L86.5732 34.2985C86.6284 34.4857 86.6812 34.6705 86.734 34.8529C86.758 34.944 86.7893 35.0331 86.8276 35.1193C86.8612 35.2081 86.8948 35.2945 86.9308 35.3809C87.0004 35.5537 87.0628 35.7265 87.1372 35.8921C87.2116 36.0577 87.3004 36.2161 87.3772 36.3721C87.9703 37.5098 88.777 38.5227 89.7532 39.3553C89.8588 39.4465 89.962 39.5401 90.0676 39.6265L90.394 39.8665L90.7084 40.0921C90.7612 40.1281 90.8116 40.1665 90.8644 40.1977L91.0228 40.2889L91.6252 40.6369C91.8196 40.7401 92.0164 40.8169 92.1964 40.9033L92.4604 41.0209C92.5424 41.0613 92.6274 41.095 92.7148 41.1217L93.1828 41.2801C93.3292 41.3281 93.4636 41.3785 93.586 41.4121L93.9292 41.4913L94.3948 41.5993L94.5532 41.6377C94.5532 41.6377 94.498 41.6377 94.3924 41.6089L93.9268 41.5081L93.5812 41.4337C93.4564 41.4025 93.322 41.3521 93.1756 41.3065L92.6956 41.1529C92.6081 41.1266 92.523 41.0929 92.4412 41.0521L92.1748 40.9345C91.9924 40.8505 91.7956 40.7761 91.5988 40.6729L90.9964 40.3201L90.8356 40.2289C90.7828 40.1977 90.7348 40.1593 90.682 40.1233L90.3652 39.9001L90.034 39.6601L89.7172 39.3865C88.731 38.5536 87.9159 37.5372 87.3172 36.3937C87.2332 36.2353 87.1516 36.0745 87.0772 35.9137C87.0028 35.7529 86.938 35.5729 86.8684 35.4001C86.8348 35.3113 86.7988 35.2249 86.7628 35.1361C86.7241 35.0493 86.6928 34.9593 86.6692 34.8673C86.6164 34.6825 86.5612 34.4977 86.5084 34.3105C86.4796 34.2169 86.4508 34.1233 86.4268 34.0273C86.4028 33.9313 86.3908 33.8329 86.3716 33.7345C86.3356 33.5377 86.2996 33.3409 86.2612 33.1417C86.2228 32.9425 86.2228 32.7337 86.2036 32.5297C86.2036 32.4265 86.1844 32.3233 86.1772 32.2177C86.1772 32.1673 86.1652 32.1145 86.1652 32.0617V31.9201C86.1572 31.4919 86.1788 31.0637 86.23 30.6385C86.2588 30.4249 86.2732 30.2041 86.314 29.9881L86.458 29.3353C86.4844 29.2249 86.5012 29.1145 86.5348 29.0065L86.6428 28.6825C86.7148 28.4689 86.7796 28.2481 86.8636 28.0321C87.0388 27.5987 87.2433 27.1777 87.4756 26.7721L87.6508 26.4625C87.682 26.4097 87.7084 26.3569 87.742 26.3065L87.85 26.1601C87.9892 25.9665 88.1284 25.7697 88.2676 25.5697C88.4164 25.3801 88.5844 25.2001 88.7476 25.0129C88.8292 24.9217 88.9036 24.8233 88.9876 24.7393L89.2564 24.4825C89.6183 24.1378 90.0024 23.8171 90.406 23.5225L91.0492 23.1121L91.21 23.0089L91.3804 22.9201L91.7236 22.7425L92.0692 22.5673L92.4316 22.4209L92.794 22.2769L92.9764 22.2049L93.1636 22.1497L93.9244 21.9289L94.7068 21.7849C96.859 21.4456 99.0632 21.8198 100.983 22.8505L101.674 23.2465L102.317 23.7025C102.37 23.7409 102.425 23.7769 102.478 23.8177L102.624 23.9473L102.92 24.2017L103.215 24.4585L103.481 24.7393L103.748 25.0177C103.791 25.0657 103.836 25.1113 103.877 25.1593L103.997 25.3105L104.477 25.9105C104.76 26.3236 105.016 26.7549 105.243 27.2017L105.411 27.5305C105.468 27.6409 105.507 27.7705 105.552 27.8713C105.641 28.1113 105.74 28.3249 105.816 28.5553L106.018 29.2489L106.066 29.4217C106.08 29.4793 106.09 29.5393 106.102 29.5969C106.124 29.7145 106.145 29.8369 106.164 29.9473C106.25 30.407 106.305 30.8721 106.328 31.3393C106.328 31.5793 106.328 31.8001 106.328 32.0281C106.328 32.1409 106.328 32.2537 106.328 32.3665C106.328 32.4793 106.304 32.5921 106.292 32.7025L106.212 33.3673C106.179 33.5857 106.121 33.7969 106.078 34.0105C105.986 34.4287 105.864 34.84 105.716 35.2417L105.665 35.3905C105.648 35.4385 105.624 35.4865 105.603 35.5345L105.476 35.8201C105.389 36.0073 105.315 36.1969 105.219 36.3769L104.89 36.8833L104.741 37.1425C104.686 37.2241 104.628 37.3033 104.573 37.3825L104.235 37.8625C104.182 37.9415 104.122 38.0162 104.057 38.0857L103.872 38.2993C103.748 38.4385 103.632 38.5825 103.505 38.7169L103.112 39.0913C102.166 39.9709 101.058 40.6588 99.85 41.1169C98.9459 41.474 97.9925 41.6909 97.0228 41.7601L96.7324 41.7817C96.6414 41.79 96.5498 41.79 96.4588 41.7817H95.962C95.8084 41.7817 95.6644 41.7817 95.5372 41.7697L95.1868 41.7265L94.7068 41.6641L94.5508 41.6329Z"
    fill="#263238" />
  <path
    d="M93.85 29.52H95.2564C95.2563 29.3602 95.2882 29.202 95.3502 29.0546C95.4121 28.9073 95.5029 28.7738 95.6171 28.662C95.7314 28.5503 95.8668 28.4624 96.0155 28.4037C96.1641 28.345 96.323 28.3165 96.4828 28.32C96.7183 28.3115 96.9507 28.3761 97.148 28.505C97.3453 28.634 97.4977 28.8209 97.5844 29.04C97.6586 29.2242 97.6881 29.4232 97.6706 29.621C97.6531 29.8187 97.589 30.0094 97.4836 30.1776C97.2436 30.5712 96.7228 30.9288 95.7748 30.7608V33.9312H97.1644V32.076C97.7355 31.9084 98.2357 31.5579 98.5882 31.0783C98.9407 30.5988 99.126 30.0167 99.1156 29.4216C99.1156 27.3648 97.2724 26.8896 96.4756 26.8896C95.8732 26.904 93.8188 27.048 93.85 29.52Z"
    fill="#263238" />
  <path d="M97.1788 34.5984H95.7676V35.916H97.1788V34.5984Z" fill="#263238" />
  <path
    d="M60.7756 34.3632C59.3716 33.2904 59.206 31.0704 60.1492 29.5776C61.0924 28.0848 62.8852 27.2856 64.6468 27.1584C65.9264 27.0775 67.207 27.3004 68.3841 27.8089C69.5612 28.3173 70.6013 29.0969 71.4196 30.084C72.2908 31.1568 72.9532 32.5128 74.2132 33.0792C75.3196 33.5784 76.6132 33.3192 77.8012 33.5904C79.3924 33.9408 80.6692 35.2056 81.3724 36.6744C82.0756 38.1432 82.27 39.7944 82.318 41.4288C82.3612 42.924 82.3348 44.5488 83.266 45.7248C84.1972 46.9008 85.7308 47.2272 86.9092 48.084C89.1244 49.6992 89.5756 53.2536 87.8332 55.368C87.2788 56.0448 86.5132 56.64 86.3788 57.504C86.2564 58.2912 86.7076 59.0448 86.8804 59.8224C87.3268 61.8288 85.5268 64.0056 83.4724 63.9432C82.4356 63.9096 81.3652 63.4104 80.4004 63.7896C79.4356 64.1688 79.0036 65.244 78.3412 66.0336C77.6687 66.7964 76.7543 67.3047 75.7515 67.4734C74.7486 67.6421 73.7183 67.4608 72.8332 66.96C72.1132 66.5208 71.446 65.844 70.5964 65.8272C69.7468 65.8104 69.0244 66.468 68.182 66.5472C67.0804 66.66 66.1228 65.772 65.5564 64.8192C64.99 63.8664 64.6348 62.7696 63.8764 61.9632C62.8828 60.9072 61.3852 60.5376 60.0604 59.9448C58.5924 59.2901 57.2821 58.3277 56.2183 57.1227C55.1544 55.9177 54.3619 54.4982 53.8942 52.9604C53.4266 51.4225 53.2948 49.8021 53.5077 48.2089C53.7206 46.6156 54.2733 45.0867 55.1284 43.7256"
    fill="#263238" />
  <path
    d="M74.7772 55.1713C75.1415 54.8433 75.5795 54.6079 76.054 54.4849L75.9628 54.4729C76.0492 54.4585 76.1367 54.4513 76.2244 54.4513C76.385 54.4192 76.5504 54.4203 76.7106 54.4545C76.8707 54.4888 77.0222 54.5555 77.1556 54.6505C77.6645 54.8865 78.0668 55.3042 78.2836 55.8216C78.4473 56.2776 78.4823 56.7698 78.385 57.2443C78.2876 57.7188 78.0616 58.1574 77.7316 58.5121C77.1676 59.1337 76.2556 59.4913 75.4612 59.2321C74.7412 58.9921 74.2372 58.2601 74.0908 57.5017C73.9998 57.0868 74.0149 56.6558 74.1349 56.2484C74.2549 55.841 74.4758 55.4705 74.7772 55.1713Z"
    fill="#455A64" />
  <path
    d="M77.0932 45.06C77.0788 40.8384 74.602 35.5152 70.3852 35.7L57.1084 38.2272C56.4904 38.255 55.9055 38.5139 55.4694 38.9527C55.0334 39.3914 54.778 39.9779 54.754 40.596L52.9228 76.1856L67.9492 76.1064C68.1316 73.56 68.8036 66.3912 68.8036 66.4152C68.8036 66.4392 74.6524 65.8584 76.1812 58.9176C76.9444 55.4712 77.1076 49.7472 77.0932 45.06Z"
    fill="#FFBF9D" />
  <path
    d="M73.942 50.8056C73.9308 51.0399 73.8283 51.2604 73.6565 51.4201C73.4847 51.5798 73.2573 51.6659 73.0228 51.66C72.908 51.6626 72.7938 51.6421 72.687 51.5997C72.5802 51.5574 72.483 51.4941 72.4011 51.4136C72.3192 51.333 72.2543 51.2368 72.2102 51.1308C72.1661 51.0247 72.1437 50.9109 72.1444 50.796C72.1556 50.5615 72.258 50.3407 72.4297 50.1806C72.6014 50.0205 72.8289 49.9339 73.0636 49.9392C73.1786 49.9369 73.2928 49.9577 73.3996 50.0003C73.5064 50.0429 73.6036 50.1065 73.6854 50.1872C73.7673 50.268 73.8322 50.3643 73.8762 50.4705C73.9203 50.5767 73.9427 50.6906 73.942 50.8056Z"
    fill="#263238" />
  <path
    d="M75.6844 47.4817C75.5668 47.5921 74.9164 47.0473 73.9468 47.0017C72.9772 46.9561 72.2428 47.3881 72.1444 47.2633C72.0964 47.2081 72.2236 47.0041 72.5452 46.7977C72.9774 46.5344 73.4801 46.4104 73.9852 46.4425C74.4913 46.4643 74.9769 46.6486 75.37 46.9681C75.6556 47.2153 75.742 47.4337 75.6844 47.4817Z"
    fill="#263238" />
  <path
    d="M65.242 50.2081C65.2308 50.4423 65.1283 50.6629 64.9565 50.8226C64.7847 50.9823 64.5573 51.0684 64.3228 51.0625C64.2078 51.065 64.0934 51.0445 63.9864 51.002C63.8795 50.9595 63.7821 50.896 63.7002 50.8152C63.6183 50.7344 63.5534 50.6379 63.5095 50.5316C63.4655 50.4252 63.4434 50.3111 63.4444 50.1961C63.4562 49.962 63.5589 49.7418 63.7305 49.5822C63.9022 49.4227 64.1293 49.3364 64.3636 49.3417C64.4786 49.3394 64.5928 49.3602 64.6996 49.4028C64.8064 49.4454 64.9036 49.5089 64.9855 49.5897C65.0673 49.6704 65.1322 49.7667 65.1762 49.8729C65.2203 49.9791 65.2427 50.0931 65.242 50.2081Z"
    fill="#263238" />
  <path
    d="M66.1684 47.0952C66.0484 47.2056 65.398 46.6608 64.4308 46.6152C63.4636 46.5696 62.7268 47.0016 62.6284 46.8768C62.5804 46.8216 62.7052 46.6176 63.0292 46.4112C63.4612 46.1474 63.9641 46.0233 64.4692 46.056C64.9729 46.0836 65.4546 46.2711 65.8444 46.5912C66.1372 46.8288 66.226 47.04 66.1684 47.0952Z"
    fill="#263238" />
  <path
    d="M69.25 54.4801C69.25 54.4249 69.8548 54.3553 70.8364 54.2905C71.0764 54.2905 71.3164 54.2425 71.374 54.0769C71.4316 53.9113 71.3548 53.6305 71.254 53.3353L70.6348 51.4153C69.7804 48.6769 69.178 46.4305 69.2884 46.3969C69.3988 46.3633 70.1812 48.5569 71.0356 51.2929C71.2396 51.9697 71.4364 52.6129 71.6212 53.2273C71.698 53.5129 71.8396 53.8417 71.6932 54.2041C71.6522 54.2889 71.5925 54.3632 71.5184 54.4214C71.4444 54.4797 71.3581 54.5202 71.266 54.5401C71.1265 54.57 70.9837 54.5813 70.8412 54.5737C69.85 54.5641 69.25 54.5329 69.25 54.4801Z"
    fill="#263238" />
  <path
    d="M68.8636 66.3288C68.8636 66.3288 64.5436 66.3672 60.0508 63.2808C60.0508 63.2808 61.6156 68.6592 68.6692 68.4216L68.8636 66.3288Z"
    fill="#FF9A6C" />
  <path
    d="M68.9692 56.7672C68.7705 56.4354 68.4941 56.1569 68.1638 55.9558C67.8335 55.7546 67.4592 55.6369 67.0732 55.6128C66.8205 55.6001 66.5685 55.6495 66.3392 55.7566C66.11 55.8637 65.9104 56.0252 65.758 56.2272C65.6036 56.4564 65.5154 56.7237 65.5031 56.9998C65.4909 57.2759 65.555 57.55 65.6884 57.792C65.8487 58.0432 66.081 58.2404 66.355 58.3577C66.629 58.475 66.9319 58.507 67.2244 58.4496C67.7788 58.3512 68.2516 58.0032 68.7004 57.6552C68.8332 57.5656 68.9453 57.4485 69.0292 57.312C69.0717 57.2365 69.094 57.1514 69.094 57.0648C69.094 56.9782 69.0717 56.8931 69.0292 56.8176"
    fill="#FF9A6C" />
  <path
    d="M66.3628 54.9768C66.5212 54.9768 66.4612 56.0256 67.3228 56.8248C68.1844 57.624 69.3004 57.5736 69.3004 57.7224C69.3004 57.7896 69.0388 57.912 68.566 57.8952C67.9505 57.8659 67.3647 57.6223 66.91 57.2064C66.4789 56.8039 66.2208 56.2498 66.19 55.6608C66.1588 55.2192 66.2932 54.96 66.3628 54.9768Z"
    fill="#263238" />
  <path
    d="M66.8332 43.1401C66.7204 43.3969 65.7628 43.2145 64.6204 43.2841C63.478 43.3537 62.542 43.608 62.4052 43.3632C62.3452 43.2456 62.518 43.0081 62.9044 42.7753C63.4163 42.4918 63.9862 42.3291 64.5707 42.2996C65.1551 42.27 65.7385 42.3745 66.2764 42.6049C66.6844 42.7969 66.8812 43.0177 66.8332 43.1401Z"
    fill="#263238" />
  <path
    d="M75.5428 44.1336C75.3604 44.3424 74.7076 44.076 73.906 44.016C73.1044 43.956 72.418 44.076 72.2764 43.836C72.214 43.7208 72.334 43.5072 72.6412 43.3176C73.0554 43.091 73.5276 42.9929 73.9977 43.0356C74.4679 43.0784 74.9147 43.2601 75.2812 43.5576C75.5452 43.7976 75.6244 44.0304 75.5428 44.1336Z"
    fill="#263238" />
  <path
    d="M81.9436 43.5288C81.7036 42.4536 81.1996 41.4024 80.3332 40.7208C79.8532 40.3488 79.2916 40.0968 78.8572 39.6792C77.9188 38.7744 77.8084 37.3344 77.2852 36.1416C76.9399 35.3734 76.4164 34.6986 75.7582 34.1731C75.1 33.6476 74.326 33.2866 73.5004 33.12C72.1276 32.856 70.6636 33.1464 69.3436 32.688C68.3668 32.3472 67.5508 31.6224 66.5572 31.3416C64.6204 30.7944 62.6668 32.0448 61.114 33.3264C60.9844 34.7352 62.026 35.7768 63.034 36.7776C63.5396 37.2752 64.147 37.6574 64.8145 37.8977C65.482 38.138 66.1936 38.2308 66.9004 38.1696C67.9924 38.0688 69.2188 37.6296 70.0996 38.2848C71.026 38.9736 70.9372 40.4448 71.7388 41.2848C72.886 42.4704 74.9476 41.6328 76.4836 42.2448C77.6668 42.7128 78.3244 43.944 79.0468 44.9928C79.7692 46.0416 80.8996 47.0808 82.1476 46.8264C82.1596 45.7176 82.1764 44.6064 81.9436 43.5288Z"
    fill="#263238" />
  <path
    d="M67.69 36.2689C66.8308 35.9377 65.074 35.2081 64.6684 34.3993C63.7876 32.6449 62.074 31.3513 60.2116 31.2793C59.2463 31.2699 58.3039 31.5731 57.5252 32.1437C56.7465 32.7143 56.1734 33.5216 55.8916 34.4449C53.65 34.2649 51.3316 35.4793 50.0764 37.5025C49.9178 37.7566 49.7766 38.0212 49.654 38.2945C49.2504 38.8821 48.98 39.5509 48.8619 40.254C48.7437 40.9571 48.7806 41.6775 48.97 42.3649C49.21 43.1881 49.6468 44.1217 49.1716 44.8345C48.6964 45.5473 47.6284 45.4897 46.7716 45.7009C46.0378 45.9057 45.3993 46.3618 44.9677 46.9896C44.536 47.6173 44.3386 48.3768 44.41 49.1353C44.4772 49.6753 44.6836 50.2273 44.5252 50.7481C44.3668 51.2689 43.8556 51.6409 43.4524 52.0393C42.9523 52.5401 42.5922 53.1634 42.4083 53.8469C42.2243 54.5303 42.2229 55.2501 42.4041 55.9343C42.5853 56.6186 42.9428 57.2433 43.4409 57.7461C43.939 58.249 44.5603 58.6124 45.2428 58.8001C45.862 58.9681 46.5436 59.0017 47.0596 59.3857C47.6476 59.8225 47.854 60.5977 48.2428 61.2217C48.6279 61.8147 49.1841 62.2766 49.8378 62.5462C50.4915 62.8158 51.2116 62.8804 51.9028 62.7313C52.1791 62.663 52.4448 62.5572 52.6924 62.4169C53.062 63.0385 53.686 63.4921 54.8164 63.5905L55.8556 48.8281C55.9208 49.0158 56.0307 49.1849 56.1758 49.3208C56.3208 49.4567 56.4968 49.5553 56.6884 49.6081C59.0068 50.3497 59.782 45.5065 59.3692 44.1385C60.2932 43.4545 61.2268 42.7609 61.9636 41.8513C62.7004 40.9417 63.5092 38.3617 63.4756 37.1641C64.33 37.2937 68.062 36.4129 67.69 36.2689Z"
    fill="#263238" />
  <path
    d="M56.41 50.088C56.4652 48.5832 54.6604 48.1008 53.29 48.7368C52.5388 49.0848 51.922 49.8672 51.85 51.4632C51.6508 55.7184 55.9636 55.0416 55.978 54.9192C55.9828 54.8448 56.3356 51.84 56.41 50.088Z"
    fill="#FFBF9D" />
  <path
    d="M54.7516 53.2464C54.7324 53.232 54.6748 53.2944 54.5452 53.3448C54.3655 53.4121 54.1667 53.4069 53.9908 53.3304C53.5492 53.1456 53.2036 52.4136 53.218 51.6504C53.2259 51.2852 53.3144 50.9262 53.4772 50.5992C53.5229 50.4679 53.5999 50.3496 53.7015 50.2547C53.8031 50.1598 53.9263 50.091 54.0604 50.0544C54.1467 50.0366 54.2366 50.0491 54.3148 50.0897C54.393 50.1304 54.4549 50.1967 54.49 50.2776C54.5404 50.4 54.5092 50.484 54.5308 50.4936C54.5524 50.5032 54.6268 50.4264 54.6004 50.2536C54.5812 50.1466 54.5262 50.0493 54.4444 49.9776C54.3316 49.8845 54.187 49.8389 54.0412 49.8504C53.8645 49.8763 53.6975 49.9474 53.5562 50.0567C53.415 50.166 53.3043 50.3098 53.2348 50.4744C53.0362 50.8341 52.9291 51.2371 52.9228 51.648C52.9084 52.5072 53.3116 53.328 53.9188 53.5368C54.031 53.5757 54.1506 53.5888 54.2687 53.5751C54.3867 53.5614 54.5001 53.5212 54.6004 53.4576C54.73 53.3472 54.766 53.2536 54.7516 53.2464Z"
    fill="#FF9A6C" />
  <path
    d="M61.9444 34.608C61.9708 34.656 61.5052 34.692 61.0348 35.2416C60.5644 35.7912 60.3148 36.876 60.4636 38.148L60.478 38.256L60.3724 38.2728C59.7486 38.3823 59.1584 38.6342 58.6476 39.0088C58.1369 39.3834 57.7194 39.8707 57.4276 40.4328C57.2674 40.7514 57.162 41.0945 57.1156 41.448C57.0924 41.8259 57.1037 42.205 57.1492 42.5808C57.1983 42.9861 57.2167 43.3944 57.2044 43.8024C57.1961 44.248 57.039 44.6781 56.758 45.024C56.1604 45.78 55.2772 46.0992 54.514 46.4184C53.7632 46.674 53.0595 47.051 52.4308 47.5344C51.3892 48.3918 50.7117 49.6123 50.5348 50.9496C50.4243 51.8533 50.5364 52.7703 50.8612 53.6208C51.1012 54.2232 51.3052 54.5208 51.2788 54.5376C51.2152 54.4757 51.1603 54.4055 51.1156 54.3288C50.9761 54.118 50.8548 53.8956 50.7532 53.664C50.3747 52.804 50.2266 51.8602 50.3236 50.9256C50.4758 49.5231 51.1636 48.2334 52.2436 47.3256C52.8918 46.8141 53.6222 46.4165 54.4036 46.1496C55.1668 45.8304 55.9996 45.5088 56.5204 44.8416C57.0484 44.2392 56.9116 43.38 56.8564 42.6096C56.8102 42.2114 56.8005 41.8097 56.8276 41.4096C56.8814 41.0233 56.999 40.6486 57.1756 40.3008C57.4895 39.703 57.9391 39.1871 58.4885 38.7945C59.0378 38.4018 59.6715 38.1434 60.3388 38.04L60.2452 38.1648C60.1084 36.8352 60.4084 35.7048 60.9412 35.1456C61.1388 34.9297 61.3859 34.765 61.6612 34.6656C61.7528 34.6347 61.848 34.6154 61.9444 34.608Z"
    fill="#455A64" />
  <path
    d="M53.026 54.6936C53.3904 54.3657 53.8283 54.1303 54.3028 54.0072L54.2092 53.9928C54.2967 53.9809 54.3849 53.9737 54.4732 53.9712C54.634 53.9395 54.7995 53.941 54.9597 53.9757C55.1198 54.0103 55.2712 54.0774 55.4044 54.1728C55.9131 54.4072 56.3149 54.8245 56.53 55.3416C56.6945 55.7977 56.7302 56.2902 56.6332 56.7652C56.5363 57.2402 56.3104 57.6793 55.9804 58.0344C55.414 58.6536 54.5044 59.0136 53.71 58.7544C52.99 58.5144 52.486 57.7944 52.3396 57.024C52.2474 56.6093 52.2621 56.1779 52.3821 55.7703C52.5022 55.3627 52.7237 54.9922 53.026 54.6936Z"
    fill="#455A64" />
  <path
    d="M37.7812 73.9991C37.7812 73.9991 19.45 91.7879 19.6156 97.5311C19.6059 97.6264 19.5866 97.7205 19.558 97.8119C18.8908 101.585 21.6316 105.12 25.4332 105.6L32.518 106.481L47.6524 86.9615L43.5556 76.0559L37.7812 73.9991Z"
    fill="#E14242" />
  <path
    d="M31.45 82.7592C31.45 82.7592 34.4068 77.7576 37.7836 73.9992C40.9804 70.4448 45.2356 69.4392 46.1836 69.3864C49.6876 69.2208 64.462 70.2192 73.9396 70.5864C77.4604 70.728 80.938 72.7728 83.2396 75.4416C88.3924 81.4176 97.4284 92.0688 99.2428 95.3496C101.816 99.996 100.011 110.575 98.206 111.986C96.4012 113.398 41.0236 110.995 41.0236 110.995L31.45 82.7592Z"
    fill="#E14242" />
  <path
    d="M93.7204 95.3616C93.6822 95.3667 93.6434 95.3667 93.6052 95.3616L93.274 95.3496L93.034 95.3376C92.9476 95.3376 92.8516 95.3376 92.7508 95.3376C92.5207 95.3377 92.2908 95.3497 92.062 95.3736L91.6636 95.4144C91.5244 95.4288 91.3828 95.4624 91.234 95.4864C90.9364 95.5296 90.6292 95.6184 90.3004 95.7C88.8868 96.104 87.583 96.8228 86.4868 97.8024C86.2492 98.0157 86.0225 98.2408 85.8076 98.4768C85.7092 98.5896 85.606 98.6928 85.5172 98.8008C85.4284 98.9088 85.3492 99.0168 85.2772 99.1176C85.1354 99.2977 85.0033 99.4852 84.8812 99.6792C84.8236 99.7656 84.7684 99.8424 84.7228 99.9192L84.6076 100.126C84.5404 100.238 84.4876 100.334 84.442 100.411C84.3964 100.488 84.3796 100.51 84.3748 100.507C84.3854 100.47 84.3999 100.434 84.418 100.399C84.4588 100.32 84.5068 100.222 84.5644 100.102L84.6724 99.888C84.7156 99.8112 84.7684 99.732 84.8212 99.648C84.9391 99.4482 85.0681 99.255 85.2076 99.0696C85.2844 98.964 85.366 98.856 85.4476 98.7456C85.5292 98.6352 85.6372 98.5272 85.7356 98.412C85.9502 98.1703 86.1769 97.9396 86.4148 97.7208C87.5177 96.7207 88.8393 95.9924 90.274 95.5944C90.5902 95.509 90.9106 95.4401 91.234 95.388C91.3828 95.3664 91.5268 95.3352 91.6684 95.3232L92.0716 95.2896C92.3031 95.2714 92.5355 95.2658 92.7676 95.2728C92.8708 95.2728 92.9644 95.2728 93.0532 95.2728L93.2932 95.2944L93.6244 95.3304C93.6577 95.3363 93.69 95.3468 93.7204 95.3616Z"
    fill="#263238" />
  <path
    d="M44.7868 94.608C44.7661 94.5547 44.7516 94.4991 44.7436 94.4424L44.6404 93.9624C44.5468 93.5448 44.4004 92.9424 44.182 92.2056C43.6027 90.2935 42.9209 88.414 42.1396 86.5752C41.2372 84.4152 40.3108 82.4952 39.5884 81.1536C39.4108 80.8128 39.2428 80.508 39.0916 80.244C38.9404 79.98 38.8156 79.7472 38.7052 79.5648L38.4652 79.1376C38.4334 79.0894 38.4069 79.0379 38.386 78.984C38.4239 79.028 38.4577 79.0754 38.4868 79.1256L38.7556 79.5408C38.8732 79.7184 38.9956 79.9464 39.1612 80.208C39.3268 80.4696 39.4924 80.772 39.6748 81.1104C40.6285 82.8675 41.4882 84.674 42.25 86.5224C43.0345 88.3649 43.7069 90.2532 44.2636 92.1768C44.4676 92.9184 44.6044 93.5256 44.6836 93.948C44.7172 94.152 44.7436 94.3128 44.7628 94.428C44.7773 94.487 44.7854 94.5473 44.7868 94.608Z"
    fill="#263238" />
  <path
    d="M81.37 79.1304C81.3722 79.1503 81.3722 79.1704 81.37 79.1904V79.3656C81.37 79.5312 81.37 79.7568 81.37 80.0424C81.37 80.6328 81.334 81.4824 81.2884 82.5336C81.202 84.636 81.0196 87.5376 80.698 90.7344C80.3764 93.9312 79.978 96.8088 79.6396 98.8944C79.474 99.9336 79.33 100.771 79.222 101.35C79.1692 101.633 79.126 101.854 79.0948 102.017L79.0588 102.19C79.057 102.21 79.0513 102.229 79.042 102.247C79.0409 102.227 79.0409 102.207 79.042 102.187C79.042 102.139 79.0564 102.082 79.066 102.012C79.09 101.849 79.126 101.626 79.1692 101.342C79.2604 100.75 79.39 99.9024 79.5484 98.88C79.858 96.8016 80.2468 93.9216 80.5684 90.72C80.89 87.5184 81.0844 84.6288 81.1972 82.5288C81.2476 81.4872 81.2884 80.64 81.3172 80.0424C81.3316 79.7568 81.3412 79.5288 81.3484 79.3656C81.3484 79.2936 81.3484 79.236 81.3604 79.1904C81.361 79.17 81.3642 79.1499 81.37 79.1304Z"
    fill="#263238" />
  <path
    d="M71.1604 68.8392C70.9541 68.7203 70.7216 68.6543 70.4836 68.6472L54.01 66.8424C53.4484 66.78 52.81 66.7392 52.3828 67.1088C51.838 67.5768 51.9244 68.4432 52.1692 69.12C52.414 69.7968 52.7812 70.4832 52.6492 71.1888L70.33 72.2976C70.2196 71.6592 70.726 71.0976 71.1004 70.5792C71.4748 70.0608 71.6884 69.2112 71.1604 68.8392Z"
    fill="#E14242" />
  <path
    d="M71.9476 71.9568C71.8853 71.9801 71.821 71.9978 71.7556 72.0096L71.194 72.132C70.954 72.1848 70.6492 72.2472 70.2988 72.3024C69.9484 72.3576 69.5524 72.4344 69.0988 72.4824L68.4052 72.5712C68.1652 72.6 67.9084 72.6168 67.6468 72.6408C67.126 72.696 66.5644 72.7152 65.9668 72.744C64.6861 72.7825 63.4042 72.752 62.1268 72.6528C60.8498 72.5407 59.5799 72.3588 58.3228 72.108C57.7468 71.9832 57.1972 71.868 56.6908 71.7288C56.4364 71.6616 56.1892 71.604 55.9564 71.5344L55.2844 71.3352C54.8548 71.2128 54.4756 71.0712 54.1396 70.9584C53.8036 70.8456 53.518 70.7352 53.2876 70.6416L52.7548 70.428C52.6921 70.4052 52.6312 70.378 52.5724 70.3464C52.6378 70.3606 52.702 70.3799 52.7644 70.404L53.3044 70.596C53.5444 70.6824 53.8252 70.7856 54.1636 70.8912C54.502 70.9968 54.8836 71.1312 55.3108 71.2488L55.9804 71.4432C56.2204 71.508 56.4604 71.5632 56.7148 71.6304C57.2212 71.7648 57.7708 71.8704 58.3468 71.9952C60.8531 72.4938 63.4078 72.7063 65.962 72.6288C66.55 72.6048 67.1092 72.588 67.63 72.5376C67.8916 72.516 68.1436 72.5016 68.3836 72.4752L69.0796 72.396C69.5212 72.3528 69.9196 72.2832 70.2796 72.2328C70.6396 72.1824 70.93 72.1296 71.1748 72.084L71.7388 71.9832C71.8074 71.9679 71.8773 71.9591 71.9476 71.9568Z"
    fill="#263238" />
  <g opacity="0.3">
    <path
      d="M31.6732 89.4192C30.0953 89.6968 28.6244 90.4036 27.4216 91.462C26.2189 92.5203 25.3308 93.8895 24.8548 95.4192C25.678 95.148 26.4628 94.44 27.0628 93.8112C28.6252 92.172 30.5524 91.0752 32.8036 90.8352C34.354 90.6672 35.8372 91.0752 37.2868 91.644C37.942 91.9032 38.674 92.0472 39.2596 92.4432L40.0348 92.6208C38.2132 90 34.8244 88.9104 31.6732 89.4192Z"
      fill="black" />
  </g>
  <g opacity="0.3">
    <path
      d="M53.8132 70.8C56.1532 72.9216 59.218 74.4289 62.3692 74.6569C65.5204 74.8849 68.5396 73.8768 71.1604 72.1104C64.7596 73.1136 58.9348 72.7728 53.8132 70.8Z"
      fill="black" />
  </g>
  <g opacity="0.3">
    <path
      d="M94.0156 93.5376C93.4996 93.2112 92.8444 93.2184 92.2372 93.2976C88.4308 93.7488 84.7468 96.3408 84.37 100.522C85.9732 97.4208 89.2708 95.148 92.7484 95.448C93.334 95.4984 94.03 95.568 94.4044 95.1144C94.7788 94.6608 94.5292 93.8664 94.0156 93.5376Z"
      fill="black" />
  </g>
  <path
    d="M21.0724 113.52L52.2868 113.362C52.2868 113.362 52.0804 113.964 53.374 113.964L63.694 113.892C63.694 113.892 64.4572 113.964 64.4692 113.362C64.4692 113.362 88.6684 113.77 94.6468 113.938C95.0932 113.95 95.8852 113.678 95.5132 113.11L93.4276 110.611L58.9012 107.251L34.4212 109.824L26.0212 106.79H25.7428C25.6296 106.79 25.5179 106.817 25.4173 106.869C25.3166 106.92 25.2299 106.996 25.1644 107.088L20.8444 113.088C20.816 113.129 20.7994 113.178 20.7965 113.228C20.7936 113.278 20.8045 113.328 20.828 113.373C20.8515 113.417 20.8866 113.455 20.9297 113.48C20.9728 113.506 21.0221 113.52 21.0724 113.52Z"
    fill="#455A64" />
  <path opacity="0.2" d="M34.27 112.798L89.878 113.227L76.8004 109.176L60.4972 109.634L44.1844 108.984L34.27 112.798Z"
    fill="black" />
  <path
    d="M58.5916 111.698L58.9012 104.856C58.9012 104.856 58.9636 101.093 54.43 99.8376C49.8964 98.5824 44.2468 100.181 38.9692 100.466C33.6916 100.752 33.754 100.351 33.754 100.351L29.47 106.966L46.2964 109.418C46.2964 109.418 56.0452 109.987 56.23 110.045C56.4148 110.102 58.5916 111.698 58.5916 111.698Z"
    fill="white" />
  <path
    d="M58.5364 111.941L58.9012 105.511C58.9012 105.511 58.8388 101.76 63.37 100.495C67.9012 99.2305 73.5508 100.836 78.8284 101.122C82.522 101.321 83.6668 101.287 84.022 101.249C84.0714 101.244 84.1214 101.252 84.1666 101.272C84.2118 101.293 84.2505 101.326 84.2788 101.366L88.33 107.621L71.506 110.074C71.506 110.074 61.7572 110.645 61.57 110.7C61.3828 110.755 58.5364 111.941 58.5364 111.941Z"
    fill="white" />
  <path
    d="M22.1428 113.011L29.47 106.966C29.47 106.966 44.65 104.4 49.798 105.312C54.946 106.224 57.8836 107.993 58.5916 111.756L53.6476 113.011C51.6052 111.975 49.3563 111.411 47.0668 111.36C43.342 111.302 34.0276 113.014 34.0276 113.014L22.1428 113.011Z"
    fill="#E0E0E0" />
  <path
    d="M63.8356 113.011L58.618 111.698C58.618 111.698 58.99 105.72 67.4644 104.722C67.4644 104.722 69.8644 103.944 78.3628 105.54C86.8612 107.136 87.7396 107.081 87.7396 107.081L94.81 113.352C94.81 113.352 90.5884 113.695 87.1108 113.011C83.6332 112.327 77.5492 109.987 70.9684 110.674C64.3876 111.36 63.8356 113.011 63.8356 113.011Z"
    fill="#E0E0E0" />
  <path d="M29.47 106.966L33.6172 100.565L26.2612 106.435L21.6148 113.011H22.1428L29.47 106.966Z" fill="#E0E0E0" />
  <path
    d="M87.7108 107.081L84.3316 101.402C84.3316 101.402 91.0636 107.254 91.1212 107.419C91.1788 107.585 94.7884 113.352 94.7884 113.352L87.7108 107.081Z"
    fill="#E0E0E0" />
  <path d="M53.374 113.011H63.8068L58.5916 111.698L58.318 111.756" fill="#263238" />
  <path
    d="M58.5916 111.698C58.5556 111.698 58.5916 110.203 58.6684 108.365C58.7452 106.526 58.8388 105.034 58.8724 105.036C58.906 105.038 58.8724 106.529 58.7932 108.37C58.714 110.21 58.6252 111.701 58.5916 111.698Z"
    fill="#263238" />
  <path
    d="M36.7804 105.91C36.7345 105.925 36.687 105.936 36.6388 105.941L36.2236 106.013L34.6828 106.253L29.4796 107.04L29.5084 107.028L28.5076 107.798L23.65 111.502L22.1692 112.615L21.7612 112.913C21.715 112.949 21.666 112.982 21.6148 113.011C21.6541 112.967 21.6984 112.928 21.7468 112.894L22.138 112.577L23.5948 111.43L28.4308 107.686L29.4316 106.918H29.446H29.4604L34.6732 106.186L36.2164 105.979L36.634 105.931C36.6818 105.919 36.7309 105.911 36.7804 105.91Z"
    fill="#263238" />
  <path
    d="M57.9052 108.108C57.9052 108.108 57.8884 108.094 57.8596 108.06L57.7324 107.906C57.622 107.774 57.454 107.58 57.2212 107.347C56.5603 106.691 55.8027 106.141 54.9748 105.715C53.7442 105.089 52.4209 104.665 51.0556 104.46C49.3813 104.216 47.6906 104.104 45.9988 104.124C42.9228 104.113 39.8508 104.346 36.8116 104.82C35.6452 105.002 34.7068 105.182 34.0588 105.312L33.3124 105.463L33.118 105.502C33.0957 105.505 33.0731 105.505 33.0508 105.502L33.1156 105.48L33.3076 105.432C33.4756 105.391 33.7252 105.329 34.0492 105.257C34.6924 105.113 35.6308 104.918 36.7972 104.726C39.8384 104.225 42.9164 103.979 45.9988 103.992C47.6974 103.971 49.3949 104.087 51.0748 104.34C52.4502 104.552 53.7815 104.988 55.0156 105.631C55.8483 106.067 56.6052 106.634 57.2572 107.311C57.4333 107.494 57.5984 107.687 57.7516 107.89L57.8692 108.05C57.8839 108.068 57.896 108.087 57.9052 108.108Z"
    fill="#263238" />
  <path
    d="M57.9052 107.28C57.9052 107.28 57.8884 107.266 57.862 107.234L57.7444 107.095C57.694 107.03 57.6292 106.956 57.55 106.87C57.4708 106.783 57.382 106.68 57.274 106.572C56.6664 105.96 55.9746 105.438 55.2196 105.022C54.0939 104.408 52.8792 103.975 51.6196 103.738C50.0771 103.456 48.5125 103.312 46.9444 103.308C44.0941 103.25 41.2433 103.4 38.4148 103.757C37.3276 103.896 36.454 104.033 35.8492 104.134L35.1556 104.249L34.9732 104.278H34.9108L34.9708 104.261L35.1508 104.22C35.3068 104.186 35.5396 104.136 35.842 104.081C36.442 103.966 37.318 103.814 38.4028 103.666C41.2339 103.282 44.0906 103.122 46.9468 103.186C48.5218 103.19 50.0931 103.338 51.6412 103.627C52.9085 103.872 54.1286 104.318 55.2556 104.947C56.0141 105.372 56.7035 105.909 57.3004 106.541C57.406 106.654 57.4972 106.754 57.5716 106.848C57.646 106.942 57.7108 107.016 57.7564 107.088L57.8644 107.237C57.8797 107.249 57.8934 107.264 57.9052 107.28Z"
    fill="#263238" />
  <path
    d="M57.9052 106.438C57.9052 106.438 57.8884 106.426 57.862 106.394L57.7468 106.255C57.6972 106.19 57.6324 106.115 57.5524 106.032C57.4724 105.949 57.3812 105.85 57.2788 105.737C56.6794 105.128 55.9956 104.61 55.2484 104.196C54.1382 103.584 52.9388 103.15 51.694 102.91C50.1669 102.627 48.6174 102.484 47.0644 102.48C44.2411 102.416 41.4169 102.557 38.614 102.902C37.5364 103.034 36.67 103.166 36.07 103.265L35.3812 103.378L35.2012 103.404C35.1806 103.408 35.1594 103.408 35.1388 103.404L35.1988 103.387L35.3764 103.349C35.5348 103.318 35.7652 103.267 36.0628 103.212C36.658 103.099 37.5244 102.953 38.602 102.809C41.4084 102.438 44.2392 102.285 47.0692 102.35C48.6287 102.357 50.1842 102.509 51.7156 102.804C52.9704 103.052 54.1776 103.498 55.2916 104.126C56.0412 104.551 56.7231 105.084 57.3148 105.71C57.4204 105.821 57.5068 105.922 57.5812 106.013C57.6556 106.104 57.718 106.181 57.766 106.253L57.8716 106.399C57.8841 106.411 57.8954 106.424 57.9052 106.438Z"
    fill="#263238" />
  <path
    d="M57.9052 105.6C57.9052 105.6 57.8884 105.588 57.862 105.557L57.7492 105.42C57.6508 105.3 57.5092 105.125 57.2956 104.911C55.843 103.413 53.9803 102.377 51.9412 101.933C50.5732 101.628 49.0252 101.614 47.4076 101.635C44.1676 101.654 41.2372 101.794 39.1276 102.017C38.0716 102.122 37.2076 102.235 36.634 102.324L35.9572 102.425L35.7796 102.449C35.7598 102.452 35.7394 102.452 35.7196 102.449C35.7392 102.442 35.7592 102.438 35.7796 102.434L35.9524 102.396C36.106 102.367 36.3316 102.322 36.6244 102.274C37.21 102.17 38.0644 102.034 39.118 101.926C41.8725 101.649 44.6393 101.514 47.4076 101.52C49.0228 101.501 50.5852 101.52 51.9676 101.832C53.1928 102.096 54.3588 102.584 55.4068 103.272C56.1133 103.727 56.7585 104.271 57.3268 104.89C57.4816 105.058 57.6274 105.234 57.7636 105.418L57.8692 105.562C57.8823 105.573 57.8943 105.586 57.9052 105.6Z"
    fill="#263238" />
  <path
    d="M57.9052 104.767C57.9052 104.767 57.8908 104.767 57.8644 104.724L57.7516 104.587C57.6556 104.467 57.5116 104.29 57.3148 104.069C56.7678 103.444 56.1455 102.889 55.462 102.418C54.9907 102.095 54.4862 101.824 53.9572 101.609C53.3454 101.369 52.711 101.191 52.0636 101.078C50.5757 100.83 49.066 100.737 47.5588 100.8C44.3452 100.896 41.446 101.206 39.3436 101.369C38.2924 101.453 37.4428 101.515 36.8524 101.549L36.1756 101.582H35.998L36.1732 101.566L36.85 101.508L39.3364 101.287C41.4364 101.102 44.3356 100.778 47.5564 100.682C49.0733 100.616 50.5929 100.71 52.09 100.963C52.747 101.081 53.3903 101.265 54.01 101.513C54.5445 101.734 55.0531 102.013 55.5268 102.346C56.2112 102.827 56.8293 103.395 57.3652 104.038C57.5572 104.263 57.6964 104.446 57.7852 104.573L57.8884 104.717C57.8954 104.733 57.901 104.75 57.9052 104.767Z"
    fill="#263238" />
  <path
    d="M59.4124 107.88C59.4124 107.88 59.4244 107.858 59.4508 107.822L59.5708 107.666C59.728 107.466 59.8971 107.275 60.0772 107.095C60.7415 106.433 61.5081 105.882 62.3476 105.463C63.5936 104.843 64.933 104.431 66.3124 104.244C67.9956 104.022 69.6939 103.937 71.3908 103.99C74.4738 104.033 77.5478 104.335 80.5804 104.892C81.742 105.108 82.6756 105.319 83.3188 105.475C83.6404 105.552 83.8876 105.619 84.0556 105.662L84.2452 105.715C84.2676 105.72 84.2894 105.727 84.31 105.737C84.2877 105.741 84.265 105.741 84.2428 105.737L84.0484 105.696L83.3068 105.53C82.6612 105.391 81.7276 105.192 80.5636 104.99C77.5338 104.459 74.4665 104.169 71.3908 104.124C69.6999 104.071 68.0074 104.151 66.3292 104.364C64.9601 104.544 63.6288 104.943 62.386 105.545C61.5501 105.955 60.7827 106.492 60.1108 107.136C59.8708 107.364 59.7028 107.554 59.59 107.686L59.4604 107.837L59.4124 107.88Z"
    fill="#263238" />
  <path
    d="M59.4268 107.04L59.4628 106.987L59.5732 106.841C59.6212 106.776 59.686 106.699 59.7628 106.601C59.8396 106.502 59.9308 106.409 60.0388 106.301C60.6479 105.679 61.3478 105.154 62.1148 104.743C63.2519 104.134 64.4796 103.711 65.7508 103.49C67.3039 103.229 68.8776 103.11 70.4524 103.135C73.3096 103.127 76.1631 103.342 78.9868 103.778C80.0692 103.946 80.9404 104.114 81.5404 104.242C81.8404 104.302 82.0708 104.357 82.2292 104.393L82.4068 104.436C82.4274 104.44 82.4475 104.447 82.4668 104.455C82.4461 104.458 82.4251 104.458 82.4044 104.455L82.2244 104.424L81.5308 104.297C80.9284 104.184 80.0572 104.03 78.9724 103.872C76.1509 103.463 73.3033 103.261 70.4524 103.267C68.8853 103.242 67.3191 103.357 65.7724 103.61C64.5105 103.824 63.29 104.235 62.1556 104.827C61.3917 105.229 60.69 105.739 60.0724 106.342C59.962 106.447 59.8684 106.546 59.7916 106.632C59.7148 106.718 59.6428 106.793 59.5924 106.855L59.4724 106.992L59.4268 107.04Z"
    fill="#263238" />
  <path
    d="M59.4436 106.21C59.4436 106.21 59.4436 106.19 59.4772 106.157L59.5876 106.013C59.6456 105.929 59.708 105.849 59.7748 105.773C59.8609 105.668 59.9523 105.568 60.0484 105.473C60.651 104.858 61.3428 104.337 62.1004 103.927C63.2252 103.318 64.4408 102.894 65.7004 102.672C67.2376 102.405 68.7963 102.281 70.3564 102.302C73.1872 102.289 76.0148 102.495 78.814 102.917C79.8868 103.08 80.7508 103.243 81.3436 103.366C81.6412 103.426 81.8716 103.481 82.0276 103.514L82.2028 103.558C82.2238 103.561 82.2441 103.567 82.2628 103.577C82.2421 103.58 82.2211 103.58 82.2004 103.577L82.0228 103.548L81.334 103.421C80.7388 103.313 79.8724 103.164 78.7996 103.013C76.0029 102.616 73.1811 102.423 70.3564 102.434C68.804 102.414 67.2529 102.533 65.722 102.792C64.4729 103.009 63.2655 103.421 62.1436 104.011C61.3889 104.412 60.6954 104.919 60.0844 105.516C59.9764 105.619 59.8828 105.718 59.806 105.804C59.7292 105.89 59.6596 105.962 59.6092 106.022L59.4892 106.162C59.4604 106.195 59.446 106.212 59.4436 106.21Z"
    fill="#263238" />
  <path
    d="M59.458 104.767C59.6332 104.518 59.8352 104.289 60.0604 104.083C60.6775 103.524 61.3873 103.076 62.158 102.761C62.6841 102.535 63.2216 102.337 63.7684 102.168C64.3914 101.957 65.0281 101.79 65.674 101.666C67.0468 101.41 68.5852 101.426 70.1788 101.482C73.3804 101.582 76.2556 101.978 78.3388 102.221L80.8012 102.518L81.4708 102.598L81.6436 102.622L81.7036 102.634H81.6436H81.4684L80.7964 102.576C80.2132 102.523 79.3684 102.434 78.3292 102.319C76.246 102.096 73.3732 101.717 70.1812 101.616C68.5852 101.566 67.0612 101.542 65.7004 101.789C65.0585 101.907 64.4251 102.067 63.8044 102.269C63.2164 102.451 62.6764 102.641 62.1964 102.845C61.4306 103.151 60.7209 103.583 60.0964 104.122C59.9991 104.207 59.9062 104.296 59.818 104.39C59.7491 104.455 59.6842 104.524 59.6236 104.597L59.506 104.729C59.4748 104.755 59.4604 104.77 59.458 104.767Z"
    fill="#263238" />
  <path
    d="M69.8836 106.944V111.005L71.23 109.788L72.5476 110.942L72.6244 106.987C72.6244 106.987 70.4596 106.872 69.8836 106.944Z"
    fill="#E14242" />
  <path
    d="M85.1068 109.303L85.0372 109.291L84.838 109.246L84.0772 109.063C83.4148 108.905 82.4548 108.686 81.262 108.451C80.0692 108.216 78.6436 107.971 77.0548 107.707L74.566 107.297C73.6792 107.14 72.7827 107.043 71.8828 107.009C70.982 106.971 70.0797 106.984 69.1804 107.047C68.3433 107.099 67.5122 107.222 66.6964 107.417C65.3149 107.758 64.019 108.382 62.89 109.248C62.4582 109.581 62.0478 109.941 61.6612 110.326C61.3156 110.664 61.0348 110.971 60.8068 111.223L60.2908 111.811L60.1564 111.965C60.1252 111.998 60.1084 112.015 60.106 112.013L60.1468 111.955L60.2716 111.797C60.382 111.655 60.55 111.451 60.7708 111.192C60.9916 110.933 61.27 110.621 61.6108 110.278C61.9938 109.884 62.4027 109.517 62.8348 109.178C63.969 108.291 65.2774 107.654 66.6748 107.306C67.4964 107.106 68.334 106.978 69.178 106.925C70.0821 106.859 70.9892 106.846 71.8948 106.884C72.7997 106.919 73.7011 107.016 74.5924 107.177L77.0812 107.594C78.6676 107.861 80.0956 108.118 81.286 108.365C82.4764 108.612 83.446 108.845 84.0964 109.015C84.4252 109.099 84.6796 109.171 84.8524 109.222L85.0468 109.279C85.0679 109.284 85.0882 109.292 85.1068 109.303Z"
    fill="#263238" />
  <path
    d="M56.8084 112.08C56.8084 112.08 56.7868 112.061 56.7484 112.02L56.5828 111.838C56.5084 111.758 56.422 111.655 56.3116 111.542C56.2012 111.43 56.0716 111.302 55.9228 111.158C55.0738 110.364 54.1143 109.697 53.074 109.178C51.5279 108.416 49.8676 107.912 48.1588 107.686C46.0632 107.429 43.9433 107.444 41.8516 107.731C39.622 108.007 37.5316 108.451 35.6116 108.845C33.6916 109.238 31.9804 109.579 30.5188 109.79C29.3664 109.962 28.2055 110.071 27.0412 110.117C26.6284 110.129 26.3068 110.134 26.0812 110.129C26.2972 110.129 26.6164 110.114 27.0292 110.095C28.1898 110.031 29.3465 109.909 30.4948 109.728C31.9516 109.51 33.6724 109.162 35.578 108.768C37.4836 108.374 39.586 107.918 41.818 107.642C43.9203 107.355 46.051 107.343 48.1564 107.606C49.8766 107.84 51.5463 108.357 53.098 109.135C54.1434 109.652 55.1066 110.321 55.9564 111.12L56.3404 111.514C56.4484 111.631 56.53 111.737 56.602 111.818L56.7604 112.008C56.78 112.029 56.7962 112.054 56.8084 112.08Z"
    fill="#263238" />
  <path
    d="M56.8084 112.922C56.8084 112.922 56.7868 112.903 56.7484 112.862L56.5828 112.68C56.5084 112.601 56.422 112.498 56.3116 112.385L55.9228 112.001C55.0732 111.207 54.1138 110.541 53.074 110.021C51.5279 109.259 49.8676 108.754 48.1588 108.528C46.0632 108.272 43.9433 108.287 41.8516 108.574C39.622 108.85 37.5316 109.294 35.6116 109.687C33.6916 110.081 31.9804 110.424 30.5188 110.633C29.3664 110.805 28.2055 110.915 27.0412 110.962C26.6284 110.962 26.3068 110.976 26.0812 110.962C26.2972 110.962 26.6164 110.947 27.0292 110.928C28.1898 110.865 29.3465 110.743 30.4948 110.563C31.9516 110.342 33.6724 109.997 35.578 109.591C37.4836 109.186 39.586 108.744 41.818 108.466C43.9203 108.178 46.051 108.166 48.1564 108.43C49.8763 108.665 51.5459 109.181 53.098 109.958C54.1399 110.489 55.0975 111.171 55.9396 111.982L56.3236 112.375C56.4316 112.493 56.5132 112.598 56.5852 112.68L56.7436 112.872C56.794 112.898 56.8108 112.92 56.8084 112.922Z"
    fill="#263238" />
  <path
    d="M54.3412 112.207C54.2945 112.178 54.2504 112.145 54.2092 112.109C54.1228 112.044 54.0052 111.936 53.8372 111.816C53.3764 111.467 52.8875 111.156 52.3756 110.887C51.6162 110.488 50.8165 110.171 49.99 109.942C48.9776 109.661 47.9396 109.484 46.8916 109.411C44.982 109.316 43.0677 109.412 41.1772 109.697L39.454 109.937L38.974 110.002C38.9198 110.007 38.865 110.007 38.8108 110.002C38.8632 109.984 38.917 109.971 38.9716 109.963L39.4372 109.877C39.8404 109.802 40.426 109.702 41.1556 109.594C43.0509 109.284 44.9736 109.176 46.8916 109.272C47.9478 109.344 48.9935 109.527 50.0116 109.817C50.8449 110.054 51.6497 110.381 52.4116 110.794C52.9198 111.069 53.4018 111.39 53.8516 111.754C54.0148 111.881 54.1276 111.994 54.2092 112.066C54.2595 112.106 54.3039 112.154 54.3412 112.207Z"
    fill="#263238" />
  <path
    d="M45.1012 95.2224L53.578 93.3912C53.578 93.3912 56.7556 92.7504 57.37 93.0888C57.9844 93.4272 61.5244 96.2592 61.8292 96.5232C62.134 96.7872 65.518 100.843 65.518 100.843C65.518 100.843 65.4412 102.127 63.5836 101.611C62.6236 101.347 58.5628 97.7952 58.5628 97.7952L57.61 97.0464C57.61 97.0464 59.0908 99.3408 59.062 100.094C59.0332 100.848 58.09 102.353 57.766 102.559C57.442 102.766 55.8196 102.482 55.8196 102.482C55.8196 102.482 54.6676 103.726 53.7628 102.746C53.7628 102.746 52.2196 104.352 50.9668 103.421L50.2948 102.103L49.654 101.606C49.654 101.606 49.5556 102.514 48.934 102.614C48.3124 102.715 41.3404 101.213 41.3404 101.213L43.7404 94.6536L45.1012 95.2224Z"
    fill="#FFBF9D" />
  <path
    d="M54.1132 97.5432C54.1841 97.5764 54.2497 97.6201 54.3076 97.6728C54.4276 97.7664 54.598 97.9128 54.7876 98.088C55.3123 98.5652 55.7809 99.1007 56.1844 99.684C56.296 99.8563 56.3878 100.041 56.458 100.234C56.5355 100.415 56.5597 100.615 56.5276 100.81C56.4831 101.128 56.3976 101.439 56.2732 101.736C56.1961 101.937 56.0971 102.13 55.978 102.31C55.937 102.378 55.8822 102.437 55.8172 102.482C55.8172 102.482 55.8652 102.413 55.9372 102.283C56.0391 102.098 56.1242 101.903 56.1916 101.702C56.3008 101.41 56.3757 101.107 56.4148 100.798C56.4232 100.711 56.4232 100.623 56.4148 100.536C56.3986 100.447 56.3745 100.359 56.3428 100.274C56.2724 100.091 56.1831 99.9159 56.0764 99.7512C55.6783 99.1799 55.2276 98.6472 54.73 98.16C54.3556 97.7736 54.1012 97.5576 54.1132 97.5432Z"
    fill="#FF9A6C" />
  <path
    d="M49.738 98.2968C49.8198 98.2542 49.9083 98.2258 49.9996 98.2128C50.2463 98.159 50.5005 98.1485 50.7508 98.1816C51.5837 98.304 52.3348 98.7498 52.8412 99.4224C53.1038 99.7975 53.3025 100.214 53.4292 100.654C53.5352 101.007 53.6155 101.368 53.6692 101.734C53.7172 102.043 53.7436 102.298 53.758 102.473C53.769 102.564 53.769 102.655 53.758 102.746C53.7364 102.746 53.6932 102.362 53.5756 101.748C53.5063 101.39 53.4166 101.035 53.3068 100.687C53.1793 100.259 52.984 99.8537 52.7284 99.4872C52.4601 99.1358 52.1238 98.8419 51.7396 98.6232C51.4255 98.4423 51.0817 98.3187 50.7244 98.2584C50.3955 98.2219 50.063 98.2348 49.738 98.2968Z"
    fill="#FF9A6C" />
  <path
    d="M54.7588 95.0519C54.7588 95.0519 54.8068 95.0279 54.9028 95.0063C54.962 94.9945 55.0225 94.9905 55.0828 94.9943C55.1636 94.993 55.2442 95.0019 55.3228 95.0208C55.7696 95.1359 56.1815 95.3583 56.5228 95.6687C56.8698 95.9613 57.1808 96.294 57.4492 96.6599C57.5723 96.8029 57.6713 96.965 57.742 97.1399C57.6092 97.008 57.4849 96.8677 57.37 96.7199C57.0841 96.3747 56.7702 96.0536 56.4316 95.7599C56.1041 95.4628 55.7171 95.2386 55.2964 95.1024C55.1193 95.0676 54.9392 95.0507 54.7588 95.0519Z"
    fill="#FF9A6C" />
  <path
    d="M43.6132 93.7657L39.37 92.1121L31.558 92.5129L27.6652 97.7641L26.1028 105.326C26.1028 105.326 40.4092 102.185 40.8628 102.142C41.3164 102.098 42.046 101.364 42.046 101.364L43.5724 101.683L45.5284 95.1313L43.6132 93.7657Z"
    fill="#E14242" />
  <path
    d="M46.1692 94.7808L46.1116 94.7664L45.9484 94.7064L45.3172 94.4664L43.0108 93.576L39.5956 92.2416L37.582 91.4472C36.8707 91.1463 36.1393 90.8953 35.3932 90.696C34.6471 90.503 33.8728 90.4437 33.106 90.5208C32.393 90.5949 31.6931 90.7644 31.0252 91.0248C29.8929 91.4784 28.8335 92.0962 27.8812 92.8584C27.058 93.4968 26.4412 94.0584 25.9972 94.4544L25.498 94.9032L25.366 95.016C25.3348 95.0424 25.318 95.0544 25.318 95.052C25.3287 95.0359 25.3417 95.0214 25.3564 95.0088L25.4812 94.884L25.9612 94.4184C26.386 94.02 27.0028 93.4392 27.8212 92.7888C28.7736 92.0104 29.8375 91.3794 30.9772 90.9168C31.6547 90.6499 32.3651 90.4756 33.0892 90.3984C33.8695 90.32 34.6574 90.3793 35.4172 90.5736C36.1696 90.7743 36.9067 91.0285 37.6228 91.3344L39.634 92.136L43.0396 93.4944L45.3316 94.4208L45.9532 94.68L46.1116 94.7496L46.1692 94.7808Z"
    fill="#263238" />
  <path
    d="M80.9956 106.284C80.8252 105.998 80.7556 105.593 81.1708 105.106L82.3132 104.597C82.4436 104.243 82.6326 103.913 82.8724 103.622C83.1652 103.356 83.5924 103.015 83.5924 103.015C83.5924 103.015 84.2236 102.142 84.8308 101.777C85.438 101.412 86.9212 101.023 87.4324 100.577C87.9436 100.13 89.5468 98.7288 90.6652 99.264C91.7836 99.7992 92.5852 101.678 93.4588 102.074C94.3324 102.47 94.6588 103.783 94.99 104.318C95.3212 104.854 95.6956 105.242 95.7436 105.655C95.7916 106.068 96.7396 106.896 96.91 108.012C97.0804 109.128 96.9844 109.519 96.4732 109.932C95.962 110.345 94.966 111.173 93.97 111.319C93.4108 111.401 92.6452 111.451 92.0812 111.48C91.8571 111.492 91.6347 111.436 91.4423 111.321C91.2499 111.205 91.0963 111.035 91.0012 110.832L90.9316 110.686C90.9316 110.686 88.3804 111.974 87.166 111.804C85.9516 111.634 86.446 110.59 86.446 110.59C86.446 110.59 85.2052 111.79 84.4276 111.562C83.65 111.334 83.2276 111.367 83.1652 110.686C83.1028 110.004 83.674 109.226 83.674 109.226C83.674 109.226 82.5076 109.253 82.4116 108.475C82.3784 107.922 82.4866 107.369 82.726 106.87L81.79 106.764C81.6297 106.75 81.4748 106.699 81.3371 106.616C81.1994 106.533 81.0826 106.419 80.9956 106.284Z"
    fill="#FFBF9D" />
  <path
    d="M87.526 101.076C87.497 101.172 87.4584 101.264 87.4108 101.352C87.3618 101.459 87.3057 101.562 87.2428 101.662C87.1658 101.796 87.0817 101.927 86.9908 102.053C86.7545 102.382 86.4938 102.692 86.2108 102.982C85.894 103.308 85.5292 103.651 85.1404 104.004C84.7516 104.357 84.3916 104.698 84.0748 105.022C83.7963 105.308 83.5389 105.613 83.3044 105.936C82.906 106.493 82.7524 106.896 82.726 106.879C82.7528 106.783 82.7889 106.69 82.834 106.601C82.8766 106.491 82.9288 106.385 82.99 106.284C83.0623 106.147 83.1425 106.014 83.23 105.886C83.4587 105.551 83.714 105.236 83.9932 104.942C84.3052 104.611 84.67 104.266 85.0564 103.913C85.4428 103.56 85.81 103.222 86.1292 102.902C86.4122 102.62 86.676 102.318 86.9188 102C87.3292 101.455 87.502 101.062 87.526 101.076Z"
    fill="#FF9A6C" />
  <path
    d="M90.6916 102.13C90.6856 102.164 90.6751 102.197 90.6604 102.228C90.6364 102.293 90.6004 102.384 90.5476 102.502C90.3998 102.831 90.2323 103.152 90.046 103.462C89.4306 104.497 88.6147 105.4 87.646 106.116C87.0868 106.543 86.53 106.913 86.0332 107.256C85.5364 107.599 85.0948 107.921 84.7444 108.216C84.4659 108.441 84.1999 108.682 83.9476 108.936C83.8624 109.038 83.7702 109.133 83.6716 109.222C83.7413 109.108 83.8217 109.001 83.9116 108.902C84.1519 108.63 84.4109 108.374 84.6868 108.137C85.0348 107.837 85.4716 107.506 85.966 107.155C86.4604 106.805 87.0148 106.435 87.5692 106.01C88.0914 105.618 88.5738 105.175 89.0092 104.688C89.362 104.287 89.683 103.86 89.9692 103.409C90.2092 103.022 90.3844 102.689 90.502 102.468C90.5567 102.351 90.62 102.238 90.6916 102.13Z"
    fill="#FF9A6C" />
  <path
    d="M91.0828 102.432C91.1044 102.458 90.922 102.66 90.67 102.881C90.418 103.102 90.19 103.26 90.1756 103.234C90.1612 103.207 90.3364 103.008 90.5884 102.787C90.7283 102.637 90.8963 102.517 91.0828 102.432Z"
    fill="#FF9A6C" />
  <path
    d="M92.5948 105.36C92.5742 105.467 92.5412 105.571 92.4964 105.67C92.3875 105.945 92.2474 106.208 92.0788 106.452C91.5058 107.247 90.7785 107.919 89.9404 108.427C88.9804 109.042 88.0852 109.546 87.4588 109.944C87.1444 110.141 86.8924 110.306 86.7196 110.424C86.6333 110.489 86.5418 110.547 86.446 110.597C86.5179 110.518 86.5984 110.447 86.686 110.386C86.8516 110.256 87.0964 110.081 87.406 109.872C88.0228 109.452 88.9156 108.936 89.8684 108.324C90.6933 107.823 91.417 107.172 92.002 106.404C92.2277 106.073 92.4259 105.724 92.5948 105.36Z"
    fill="#FF9A6C" />
  <path
    d="M95.0788 106.942C95.0554 107.014 95.0223 107.082 94.9804 107.146C94.9132 107.273 94.8028 107.45 94.6588 107.664C94.2753 108.218 93.8336 108.73 93.3412 109.19C93.0693 109.442 92.7833 109.677 92.4844 109.896C92.237 110.072 91.9789 110.232 91.7116 110.376C91.5988 110.438 91.4932 110.486 91.3996 110.53C91.306 110.573 91.2244 110.606 91.1596 110.63C91.0916 110.664 91.0187 110.686 90.9436 110.695C90.9436 110.676 91.2316 110.556 91.6636 110.297C91.9212 110.146 92.1703 109.981 92.41 109.802C92.6788 109.598 92.9668 109.363 93.2524 109.099C93.737 108.642 94.1818 108.144 94.582 107.611C94.8916 107.203 95.05 106.932 95.0788 106.942Z"
    fill="#FF9A6C" />
  <path
    d="M83.3164 104.194C82.9766 104.381 82.6227 104.541 82.258 104.674C81.9053 104.838 81.5421 104.979 81.1708 105.096C81.1516 105.058 81.6148 104.808 82.21 104.558C82.8052 104.309 83.302 104.16 83.3164 104.194Z"
    fill="#FF9A6C" />
  <path
    d="M84.01 99.7369C84.4264 99.7239 84.8432 99.7367 85.258 99.7753C84.4261 99.8297 83.5915 99.8297 82.7596 99.7753C83.1752 99.7367 83.5928 99.7238 84.01 99.7369Z"
    fill="#E14242" />
</svg>