<svg xmlns="http://www.w3.org/2000/svg" width="24" height="24" viewBox="0 0 24 24" fill="none">
    <path
        d="M12 2C6.48583 2 2 6.48583 2 12C2 17.5142 6.48583 22 12 22C17.5142 22 22 17.5142 22 12C22 6.48583 17.5142 2 12 2ZM8.66667 10.3333C8.66667 8.4925 10.2033 7 12 7C13.7967 7 15.3333 8.4925 15.3333 10.3333V11.1667C15.3333 13.0075 13.7967 14.5 12 14.5C10.2033 14.5 8.66667 13.0075 8.66667 11.1667V10.3333ZM12 20.3333C9.9725 20.3333 8.1125 19.6033 6.66583 18.395C7.365 17.0758 8.73583 16.1667 10.3333 16.1667H13.6667C15.2642 16.1667 16.635 17.0758 17.3342 18.395C15.8875 19.6033 14.0275 20.3333 12 20.3333Z"
        fill="currentColor" fill-opacity="0.8" style="mix-blend-mode:multiply" />
</svg>