<svg width="24" height="24" viewBox="0 0 24 24" fill="none" xmlns="http://www.w3.org/2000/svg">
    <path
        d="M17.8035 9.89213L14.1159 9.35625L12.4686 6.01702C12.4207 5.9357 12.3525 5.8683 12.2705 5.82146C12.1886 5.77463 12.0959 5.75 12.0015 5.75C11.9071 5.75 11.8144 5.77463 11.7325 5.82146C11.6505 5.8683 11.5822 5.9357 11.5344 6.01702L9.88401 9.35625L6.19638 9.89213C6.10021 9.90601 6.00985 9.94652 5.9355 10.0091C5.86115 10.0716 5.80578 10.1537 5.77566 10.2461C5.74554 10.3385 5.74186 10.4374 5.76504 10.5318C5.78822 10.6262 5.83733 10.7122 5.90683 10.7801L8.57582 13.3808L7.94619 17.0539C7.92978 17.1496 7.9405 17.2481 7.97712 17.3381C8.01374 17.4281 8.07481 17.5061 8.15343 17.5632C8.23204 17.6203 8.32507 17.6542 8.42198 17.6612C8.5189 17.6682 8.61584 17.648 8.70184 17.6028L11.9999 15.8691L15.298 17.6028C15.384 17.648 15.481 17.6682 15.5779 17.6612C15.6748 17.6542 15.7678 17.6203 15.8464 17.5632C15.9251 17.5061 15.9861 17.4281 16.0227 17.3381C16.0594 17.2481 16.0701 17.1496 16.0537 17.0539L15.4241 13.3808L18.093 10.7801C18.1625 10.7122 18.2116 10.6263 18.2349 10.532C18.2581 10.4377 18.2545 10.3389 18.2245 10.2465C18.1945 10.1542 18.1393 10.072 18.0651 10.0094C17.9908 9.94679 17.9006 9.90617 17.8045 9.89213H17.8035Z"
        fill="currentColor" fill-opacity="0.64" style="mix-blend-mode:multiply" />
</svg>