<svg width="24" height="24" viewBox="0 0 24 24" fill="none" xmlns="http://www.w3.org/2000/svg">
    <path
        d="M17.3125 5.75H6.89583C6.7577 5.75 6.62522 5.80487 6.52755 5.90255C6.42987 6.00022 6.375 6.1327 6.375 6.27083V8.875C6.375 9.42753 6.59449 9.95744 6.98519 10.3481C7.3759 10.7388 7.9058 10.9583 8.45833 10.9583H8.5C8.61305 11.7359 8.9743 12.4562 9.52991 13.0118C10.0855 13.5674 10.8058 13.9286 11.5833 14.0417V15.6458H12.625V14.0417C13.4026 13.9286 14.1228 13.5674 14.6784 13.0118C15.234 12.4562 15.5953 11.7359 15.7083 10.9583H15.75C16.3025 10.9583 16.8324 10.7388 17.2231 10.3481C17.6138 9.95744 17.8333 9.42753 17.8333 8.875V6.27083C17.8333 6.1327 17.7785 6.00022 17.6808 5.90255C17.5831 5.80487 17.4506 5.75 17.3125 5.75ZM7.41667 8.875V6.79167H8.45833V9.91667C8.18207 9.91667 7.91711 9.80692 7.72176 9.61157C7.52641 9.41622 7.41667 9.15127 7.41667 8.875ZM16.7917 8.875C16.7917 9.15127 16.6819 9.41622 16.4866 9.61157C16.2912 9.80692 16.0263 9.91667 15.75 9.91667V6.79167H16.7917V8.875Z"
        fill="currentColor" fill-opacity="0.64" style="mix-blend-mode:multiply" />
    <path
        d="M13.1458 16.1667H11.0625C8.45833 16.1667 8.45833 18.25 8.45833 18.25H15.75C15.75 18.25 15.75 16.1667 13.1458 16.1667Z"
        fill="currentColor" fill-opacity="0.64" style="mix-blend-mode:multiply" />
</svg>