<svg width="20" height="20" viewBox="0 0 20 20" fill="none" xmlns="http://www.w3.org/2000/svg">
<path d="M19.8808 4.57083L17.3808 0.404166C17.3068 0.280907 17.2021 0.178907 17.0769 0.108085C16.9518 0.0372625 16.8105 2.7348e-05 16.6667 0H3.33334C3.18954 2.7348e-05 3.0482 0.0372625 2.92306 0.108085C2.79791 0.178907 2.69322 0.280907 2.61917 0.404166L0.119172 4.57083C0.0412467 4.70042 5.29978e-05 4.84878 5.13873e-06 5C-0.00154396 5.88207 0.347203 6.72867 0.969596 7.35372C1.59199 7.97877 2.4371 8.33112 3.31917 8.33333H3.32584C4.14895 8.33543 4.94335 8.03092 5.55417 7.47916C6.1632 8.02961 6.9549 8.33437 7.77583 8.33437C8.59676 8.33437 9.38846 8.02961 9.9975 7.47916C10.6068 8.03078 11.3993 8.33625 12.2212 8.33625C13.0431 8.33625 13.8357 8.03078 14.445 7.47916C14.9233 7.91065 15.5166 8.194 16.1528 8.29479C16.7891 8.39559 17.4409 8.30949 18.0291 8.04696C18.6174 7.78443 19.1167 7.35676 19.4666 6.81587C19.8165 6.27499 20.0018 5.64416 20 5C19.9999 4.84878 19.9587 4.70042 19.8808 4.57083Z" fill="currentColor"/>
<path d="M16.68 10C15.9054 10.0006 15.1412 9.82144 14.4475 9.47667L14.435 9.4825C13.8495 9.77445 13.2119 9.94758 12.5591 9.99192C11.9064 10.0363 11.2513 9.95092 10.6317 9.74083C10.4149 9.66796 10.2033 9.58054 9.99832 9.47917L9.98916 9.48333C9.40383 9.77547 8.76638 9.94865 8.11369 9.99285C7.46101 10.0371 6.80603 9.95139 6.18666 9.74083C5.97018 9.66795 5.75886 9.58053 5.55416 9.47917C4.86174 9.82299 4.09892 10.0013 3.32583 10C3.04898 9.99736 2.7728 9.97228 2.5 9.925V18.3333C2.5 18.5543 2.58779 18.7663 2.74408 18.9226C2.90036 19.0789 3.11232 19.1667 3.33333 19.1667H8.33333V14.1667H11.6667V19.1667H16.6667C16.8877 19.1667 17.0996 19.0789 17.2559 18.9226C17.4122 18.7663 17.5 18.5543 17.5 18.3333V9.92167C17.2293 9.97016 16.955 9.99636 16.68 10Z" fill="currentColor"/>
</svg>
