<svg width="33" height="32" viewBox="0 0 33 32" fill="none" xmlns="http://www.w3.org/2000/svg">
<path d="M29.9156 9.25313C29.7562 8.65949 29.4437 8.11814 29.0094 7.68324C28.575 7.24834 28.0341 6.93514 27.4406 6.775C25.2562 6.1875 16.5 6.1875 16.5 6.1875C16.5 6.1875 7.74375 6.1875 5.55937 6.77187C4.96569 6.9315 4.42445 7.24452 3.99002 7.6795C3.55558 8.11448 3.24325 8.65611 3.08437 9.25C2.5 11.4375 2.5 16 2.5 16C2.5 16 2.5 20.5625 3.08437 22.7469C3.40625 23.9531 4.35625 24.9031 5.55937 25.225C7.74375 25.8125 16.5 25.8125 16.5 25.8125C16.5 25.8125 25.2562 25.8125 27.4406 25.225C28.6469 24.9031 29.5938 23.9531 29.9156 22.7469C30.5 20.5625 30.5 16 30.5 16C30.5 16 30.5 11.4375 29.9156 9.25313ZM13.7188 20.1875V11.8125L20.9688 15.9688L13.7188 20.1875Z" fill="#E14242"/>
</svg>
