<svg width="21" height="20" viewBox="0 0 21 20" fill="none" xmlns="http://www.w3.org/2000/svg">
  <path
    d="M18.8334 9.99906C18.8332 8.40656 18.3767 6.84746 17.518 5.50633C16.6593 4.16521 15.4342 3.09822 13.9879 2.4317C12.5416 1.76518 10.9346 1.52703 9.35714 1.74544C7.77969 1.96386 6.29785 2.6297 5.08706 3.66413C3.87626 4.69856 2.98723 6.05826 2.52519 7.58226C2.06316 9.10627 2.04748 10.7307 2.48 12.2634C2.91253 13.796 3.77516 15.1726 4.96575 16.2302C6.15635 17.2879 7.62506 17.9822 9.198 18.231V12.4081H7.08203V9.99906H9.198V8.16295C9.198 6.07476 10.4424 4.92059 12.3452 4.92059C12.9703 4.92955 13.594 4.98386 14.2112 5.08309V7.13448H13.1598C12.8433 7.09246 12.5231 7.17786 12.2695 7.3719C12.016 7.56593 11.8499 7.85272 11.8077 8.1692C11.7958 8.25783 11.7939 8.34752 11.8022 8.43656V9.99906H14.1112L13.7417 12.4081H11.7973V18.231C13.7584 17.922 15.5448 16.9229 16.8348 15.4137C18.1247 13.9045 18.8335 11.9844 18.8334 9.99906Z"
    fill="currentColor" />
</svg>