<svg width="16" height="16" viewBox="0 0 16 16" fill="none" xmlns="http://www.w3.org/2000/svg">
<g clip-path="url(#clip0_25_617)">
<path d="M15.8613 12.4689C15.6194 13.0279 15.3329 13.5424 15.0011 14.0155C14.5488 14.6604 14.1784 15.1068 13.893 15.3547C13.4505 15.7616 12.9765 15.97 12.4688 15.9818C12.1044 15.9818 11.6649 15.8781 11.1533 15.6678C10.6401 15.4584 10.1684 15.3547 9.73708 15.3547C9.28475 15.3547 8.79963 15.4584 8.28073 15.6678C7.76104 15.8781 7.34239 15.9878 7.0223 15.9986C6.5355 16.0194 6.05028 15.8051 5.56595 15.3547C5.25683 15.0851 4.87017 14.6229 4.40698 13.9681C3.91001 13.2688 3.50143 12.458 3.18134 11.5336C2.83853 10.5351 2.66669 9.56821 2.66669 8.63214C2.66669 7.55987 2.89838 6.63506 3.36247 5.86007C3.7272 5.23757 4.21242 4.74653 4.8197 4.38604C5.42699 4.02556 6.08317 3.84186 6.78981 3.83011C7.17647 3.83011 7.68351 3.94971 8.31362 4.18477C8.94194 4.42061 9.34539 4.54021 9.52227 4.54021C9.65451 4.54021 10.1027 4.40036 10.8625 4.12156C11.581 3.863 12.1874 3.75594 12.6841 3.79811C14.0303 3.90675 15.0416 4.4374 15.7142 5.39342C14.5103 6.12288 13.9147 7.14458 13.9266 8.45525C13.9374 9.47616 14.3078 10.3257 15.0357 11.0003C15.3655 11.3133 15.7339 11.5553 16.1438 11.7272C16.0549 11.9849 15.9611 12.2318 15.8613 12.4689ZM12.774 0.320091C12.774 1.12027 12.4817 1.8674 11.899 2.55894C11.1958 3.38104 10.3453 3.85608 9.42292 3.78112C9.41116 3.68513 9.40435 3.58409 9.40435 3.47792C9.40435 2.70975 9.73876 1.88765 10.3326 1.21547C10.6291 0.875136 11.0062 0.592152 11.4634 0.36641C11.9197 0.144037 12.3513 0.0210593 12.7572 0C12.7691 0.106972 12.774 0.213951 12.774 0.320081V0.320091Z" fill="white"/>
</g>
<defs>
<clipPath id="clip0_25_617">
<rect width="16" height="16" fill="white"/>
</clipPath>
</defs>
</svg>
