<svg width="33" height="32" viewBox="0 0 33 32" fill="none" xmlns="http://www.w3.org/2000/svg">
  <path
    d="M23.8563 16.7406C23.8438 14.6094 24.8094 13.0031 26.7594 11.8188C25.6688 10.2563 24.0188 9.39688 21.8438 9.23125C19.7844 9.06875 17.5312 10.4313 16.7062 10.4313C15.8344 10.4313 13.8406 9.2875 12.2719 9.2875C9.03438 9.3375 5.59375 11.8687 5.59375 17.0188C5.59375 18.5406 5.87187 20.1125 6.42812 21.7313C7.17187 23.8625 9.85312 29.0844 12.65 29C14.1125 28.9656 15.1469 27.9625 17.05 27.9625C18.8969 27.9625 19.8531 29 21.4844 29C24.3063 28.9594 26.7313 24.2125 27.4375 22.075C23.6531 20.2906 23.8563 16.85 23.8563 16.7406ZM20.5719 7.20938C22.1562 5.32812 22.0125 3.61563 21.9656 3C20.5656 3.08125 18.9469 3.95313 18.025 5.025C17.0094 6.175 16.4125 7.59688 16.5406 9.2C18.0531 9.31563 19.4344 8.5375 20.5719 7.20938Z"
    fill="black" />
</svg>