<svg width="16" height="16" viewBox="0 0 16 16" fill="none" xmlns="http://www.w3.org/2000/svg">
    <path
        d="M7.99896 0.66689C8.10763 0.667303 8.21453 0.694461 8.31022 0.745968C8.4059 0.797474 8.48744 0.871744 8.54763 0.962223L8.5923 1.03956L10.4936 4.89356L14.747 5.51022C15.241 5.58222 15.467 6.13689 15.2156 6.52756L15.169 6.59089L15.117 6.64822L12.0343 9.64756L12.761 13.8842C12.7799 13.9947 12.7707 14.1082 12.7341 14.2142C12.6976 14.3203 12.635 14.4154 12.552 14.4908C12.469 14.5662 12.3684 14.6195 12.2594 14.6457C12.1504 14.6719 12.0365 14.6703 11.9283 14.6409L11.861 14.6176L11.7936 14.5869L7.9983 12.5869L4.1943 14.5869C4.1243 14.6236 4.05296 14.6469 3.98096 14.6576L3.9103 14.6642C3.81725 14.6676 3.72452 14.6516 3.63804 14.6171C3.55157 14.5825 3.47325 14.5304 3.40811 14.4638C3.34296 14.3973 3.29243 14.3179 3.25975 14.2307C3.22706 14.1436 3.21294 14.0505 3.2183 13.9576L3.22696 13.8842L3.95363 9.64756L0.87163 6.64756C0.791932 6.56993 0.732906 6.47361 0.699923 6.36735C0.666939 6.2611 0.661045 6.14828 0.682774 6.03917C0.704504 5.93006 0.753169 5.82811 0.824343 5.7426C0.895516 5.65709 0.986939 5.59073 1.0903 5.54956L1.16563 5.52556L1.24163 5.51022L5.4943 4.89356L7.3963 1.04022C7.44935 0.925963 7.53468 0.829729 7.64177 0.763389C7.74887 0.697049 7.87303 0.663503 7.99896 0.66689ZM7.99896 2.84956V11.1669C8.05266 11.1669 8.10616 11.1734 8.1583 11.1862L8.23496 11.2102L8.30963 11.2436L11.2183 12.7762L10.661 9.52756C10.6335 9.36701 10.6657 9.20195 10.7516 9.06356L10.7983 8.99756L10.853 8.93756L13.217 6.63556L9.9563 6.16356C9.79513 6.14016 9.64811 6.05859 9.54296 5.93422L9.4943 5.86956L9.4543 5.79889L7.99896 2.84956Z"
        fill="currentColor" />
</svg>