<svg width="24" height="24" viewBox="0 0 24 24" fill="none" xmlns="http://www.w3.org/2000/svg">
    <path fill-rule="evenodd" clip-rule="evenodd"
        d="M12 2C12.3461 2 12.6621 2.19648 12.8152 2.50681L15.4128 7.77089L21.2216 8.61488C21.564 8.66464 21.8485 8.90449 21.9555 9.23359C22.0624 9.56269 21.9732 9.92396 21.7255 10.1655L17.5222 14.2628L18.5142 20.0481C18.5727 20.3892 18.4324 20.7339 18.1525 20.9373C17.8725 21.1407 17.5013 21.1674 17.195 21.0064L12 18.2744L6.80497 21.0064C6.49869 21.1674 6.12753 21.1407 5.84755 20.9373C5.56757 20.7339 5.42734 20.3892 5.48582 20.0481L6.47778 14.2628L2.27455 10.1655C2.02676 9.92396 1.93759 9.56269 2.04453 9.23359C2.15146 8.90449 2.43596 8.66464 2.7784 8.61488L8.58719 7.77089L11.1848 2.50681C11.3379 2.19648 11.6539 2 12 2ZM12 4.96348L10.0062 9.00408C9.87374 9.27242 9.61775 9.45842 9.32163 9.50144L4.86268 10.1493L8.08913 13.2944C8.30336 13.5033 8.40113 13.8042 8.35057 14.0991L7.58917 18.5397L11.5769 16.4426C11.8418 16.3033 12.1582 16.3033 12.4231 16.4426L16.4108 18.5397L15.6494 14.0991C15.5989 13.8042 15.6966 13.5033 15.9109 13.2944L19.1373 10.1493L14.6784 9.50144C14.3822 9.45842 14.1263 9.27242 13.9938 9.00408L12 4.96348Z"
        fill="currentColor" fill-opacity="0.8" style="mix-blend-mode:multiply" />
</svg>