<svg width="16" height="16" viewBox="0 0 16 16" fill="none" xmlns="http://www.w3.org/2000/svg">
    <path
        d="M14.191 5.75158L10.2576 5.17998L8.50053 1.61813C8.44944 1.5314 8.37661 1.4595 8.28922 1.40954C8.20182 1.35959 8.10291 1.33331 8.00225 1.33331C7.90159 1.33331 7.80267 1.35959 7.71528 1.40954C7.62789 1.4595 7.55505 1.5314 7.50396 1.61813L5.7436 5.17998L1.81012 5.75158C1.70754 5.76639 1.61115 5.8096 1.53185 5.87632C1.45254 5.94305 1.39349 6.03063 1.36136 6.12916C1.32922 6.22769 1.3253 6.33325 1.35002 6.4339C1.37475 6.53455 1.42714 6.62627 1.50127 6.69871L4.34819 9.47286L3.67659 13.3908C3.65909 13.4929 3.67051 13.5979 3.70958 13.694C3.74864 13.79 3.81378 13.8731 3.89764 13.934C3.9815 13.9949 4.08072 14.0312 4.1841 14.0386C4.28748 14.0461 4.39088 14.0245 4.48262 13.9763L8.00058 12.127L11.5185 13.9763C11.6103 14.0245 11.7137 14.0461 11.8171 14.0386C11.9204 14.0312 12.0197 13.9949 12.1035 13.934C12.1874 13.8731 12.2525 13.79 12.2916 13.694C12.3306 13.5979 12.3421 13.4929 12.3246 13.3908L11.653 9.47286L14.4999 6.69871C14.574 6.62635 14.6264 6.53471 14.6512 6.43414C14.676 6.33358 14.6721 6.22809 14.6401 6.12958C14.6081 6.03108 14.5492 5.94348 14.4701 5.87669C14.3909 5.80989 14.2946 5.76656 14.1921 5.75158H14.191Z"
        fill="currentColor" />
</svg>