<svg width="24" height="24" viewBox="0 0 24 24" fill="none" xmlns="http://www.w3.org/2000/svg">
    <path
        d="M14.6042 7C14.1329 7 13.7032 7.1625 13.3542 7.42604C13.8099 8.03437 14.0834 8.78698 14.0834 9.60417V10.125C14.0834 10.6214 13.9829 11.0948 13.8021 11.5266C14.0495 11.6297 14.3198 11.6875 14.6042 11.6875C15.7547 11.6875 16.6875 10.7547 16.6875 9.60417V9.08333C16.6875 7.93281 15.7547 7 14.6042 7Z"
        fill="currentColor" fill-opacity="0.64" style="mix-blend-mode:multiply" />
    <path
        d="M10.4375 12.7292C8.99948 12.7292 7.83333 11.563 7.83333 10.125V9.60417C7.83333 8.16615 8.99948 7 10.4375 7C11.8755 7 13.0417 8.16615 13.0417 9.60417V10.125C13.0417 11.563 11.8755 12.7292 10.4375 12.7292Z"
        fill="currentColor" fill-opacity="0.64" style="mix-blend-mode:multiply" />
    <path
        d="M17.6453 13.4609C16.9766 13.1536 15.8302 12.7292 14.6042 12.7292C13.9818 12.7292 13.3802 12.8391 12.8506 12.987C13.0464 13.0276 13.2427 13.0688 13.4391 13.1188C14.9552 13.5052 16.0276 14.8245 16.1433 16.375H17.7292C18.0167 16.375 18.25 16.1417 18.25 15.8542V14.4068C18.25 13.9995 18.0157 13.6307 17.6453 13.4609Z"
        fill="currentColor" fill-opacity="0.64" style="mix-blend-mode:multiply" />
    <path
        d="M14.6042 17.4167H6.27083C5.98333 17.4167 5.75 17.1833 5.75 16.8958V16.6484C5.75 15.4635 6.54531 14.4208 7.69323 14.1281C8.46094 13.9323 9.40677 13.7708 10.4375 13.7708C11.4682 13.7708 12.4141 13.9323 13.1818 14.1281C14.3297 14.4208 15.125 15.4635 15.125 16.6484V16.8958C15.125 17.1833 14.8917 17.4167 14.6042 17.4167Z"
        fill="currentColor" fill-opacity="0.64" style="mix-blend-mode:multiply" />
</svg>