<svg width="20" height="18" viewBox="0 0 20 18" fill="none" xmlns="http://www.w3.org/2000/svg">
<path d="M0 12.0304V16.1972C0 16.4182 0.0877998 16.6301 0.244084 16.7864C0.400369 16.9427 0.612336 17.0305 0.833356 17.0305H4.16678C4.3878 17.0305 4.59977 16.9427 4.75605 16.7864C4.91234 16.6301 5.00014 16.4182 5.00014 16.1972V12.0304H0Z" fill="currentColor"/>
<path d="M5.00014 10.3637V1.19675C5.00014 0.975733 4.91234 0.763765 4.75605 0.607481C4.59977 0.451196 4.3878 0.363396 4.16678 0.363396H0.833356C0.612336 0.363396 0.400369 0.451196 0.244084 0.607481C0.0877998 0.763765 0 0.975733 0 1.19675V10.3637H5.00014Z" fill="currentColor"/>
<path d="M6.66685 12.0304V16.1972C6.66685 16.4182 6.75465 16.6301 6.91093 16.7864C7.06722 16.9427 7.27918 17.0305 7.5002 17.0305H10.8336C11.0546 17.0305 11.2666 16.9427 11.4229 16.7864C11.5792 16.6301 11.667 16.4182 11.667 16.1972V12.0304H6.66685Z" fill="currentColor"/>
<path d="M11.667 10.3637V1.19675C11.667 0.975733 11.5792 0.763765 11.4229 0.607481C11.2666 0.451196 11.0546 0.363396 10.8336 0.363396H7.5002C7.27918 0.363396 7.06722 0.451196 6.91093 0.607481C6.75465 0.763765 6.66685 0.975733 6.66685 1.19675V10.3637H11.667Z" fill="currentColor"/>
<path d="M13.742 10.7245L18.6005 9.54448L16.4379 0.636737C16.3858 0.42206 16.2506 0.236861 16.062 0.121849C15.8734 0.00683628 15.6468 -0.028579 15.4321 0.0233873L12.192 0.810075C11.9782 0.863295 11.7943 0.998981 11.6803 1.18747C11.5663 1.37596 11.5315 1.60191 11.5836 1.81594L13.742 10.7245Z" fill="currentColor"/>
<path d="M19.9764 15.2138L18.9938 11.1645L14.1346 12.3437L15.1179 16.393C15.1437 16.4994 15.1902 16.5996 15.2548 16.6881C15.3193 16.7765 15.4007 16.8513 15.4942 16.9082C15.5877 16.9652 15.6915 17.0032 15.7996 17.02C15.9078 17.0368 16.0182 17.0322 16.1246 17.0063L19.3639 16.2205C19.5786 16.1682 19.7637 16.0328 19.8786 15.844C19.9934 15.6552 20.0286 15.4285 19.9764 15.2138Z" fill="currentColor"/>
</svg>
