<svg width="24" height="24" viewBox="0 0 24 24" fill="none" xmlns="http://www.w3.org/2000/svg">
    <path
        d="M5.00003 20.4739V3.52609C4.9979 3.22472 5.10505 2.92966 5.30783 2.67852C5.51061 2.42739 5.79982 2.23155 6.1386 2.11599C6.47738 2.00042 6.85037 1.97036 7.21002 2.02964C7.56968 2.08892 7.8997 2.23485 8.15801 2.44883L18.463 10.9303C18.8069 11.2146 19 11.5992 19 12C19 12.4008 18.8069 12.7854 18.463 13.0697L8.15801 21.5512C7.8997 21.7651 7.56968 21.9111 7.21002 21.9704C6.85037 22.0296 6.47738 21.9996 6.1386 21.884C5.79982 21.7684 5.51061 21.5726 5.30783 21.3215C5.10505 21.0703 4.9979 20.7753 5.00003 20.4739Z"
        fill="currentColor" fill-opacity="0.8" style="mix-blend-mode:multiply" />
</svg>