<svg version="1.1" id="Layer_1" xmlns="http://www.w3.org/2000/svg" xmlns:xlink="http://www.w3.org/1999/xlink" x="0px" y="0px"
	 width="100%" viewBox="0 0 512 512" enable-background="new 0 0 512 512" xml:space="preserve">
<path fill="#FEFEFE" opacity="1.000000" stroke="none" 
	d="
M1.000000,186.000000 
	C1.000000,124.000000 1.000000,62.500000 1.000000,1.000000 
	C171.666672,1.000000 342.333344,1.000000 513.000000,1.000000 
	C513.000000,171.666672 513.000000,342.333344 513.000000,513.000000 
	C342.333344,513.000000 171.666672,513.000000 1.000000,513.000000 
	C1.000000,404.166656 1.000000,295.333344 1.000000,186.000000 
M4.991287,300.500000 
	C4.991757,334.830475 4.988858,369.160950 4.994958,403.491425 
	C4.996577,412.599243 6.616667,414.238617 15.703209,414.239960 
	C102.863815,414.252869 190.024536,414.319031 277.184814,414.147064 
	C284.377502,414.132874 290.580933,414.586975 294.436005,421.679993 
	C295.352173,423.365662 297.102051,424.624634 298.554138,425.988647 
	C327.712860,453.378967 369.222076,458.688171 404.525604,439.707703 
	C407.162415,438.290070 410.337677,437.873993 414.128876,436.731262 
	C413.271423,444.461243 414.487854,449.846039 419.033844,454.344879 
	C434.780548,469.928345 450.386810,485.653687 466.076538,501.294861 
	C470.727722,505.931671 476.313324,508.698608 482.945404,508.963379 
	C493.184204,509.372162 502.606171,503.717438 506.622803,494.580719 
	C511.008789,484.603912 509.758179,475.097473 502.245453,467.278442 
	C488.399017,452.867401 474.027313,438.962433 459.989929,424.732697 
	C453.860870,418.519714 448.252472,411.570221 437.155762,413.723907 
	C437.872955,409.665344 438.708954,406.238708 440.301666,403.209961 
	C460.424225,364.943298 451.185760,318.004303 417.940582,291.219971 
	C415.027313,288.872864 413.956177,286.644318 413.965485,282.989014 
	C414.081726,237.325821 414.041260,191.662216 414.027710,145.998703 
	C414.025574,138.859818 411.971313,136.798538 404.836609,136.751633 
	C399.050873,136.713593 393.264679,136.743912 387.102448,136.743912 
	C387.102448,134.627487 387.109619,132.997116 387.101196,131.366791 
	C387.064087,124.190109 386.174286,122.896034 379.317993,120.485054 
	C376.814667,119.604759 374.282715,118.720268 371.691620,118.191986 
	C365.404114,116.910042 359.074158,115.836075 352.609680,114.650497 
	C352.609680,111.163963 353.001007,107.943161 352.490448,104.872314 
	C352.052704,102.239403 351.321259,98.713875 349.448853,97.414650 
	C337.817078,89.343735 334.691101,78.266029 336.651215,64.979729 
	C336.915894,63.185528 336.594391,61.312065 336.723175,59.487930 
	C336.802216,58.368359 337.011902,57.164097 337.520355,56.183186 
	C342.920441,45.766365 340.051636,38.898132 328.901184,35.903893 
	C292.308014,26.077513 255.699020,16.310150 219.116943,6.442816 
	C212.492538,4.656009 206.050919,4.799154 199.442627,6.617382 
	C179.729294,12.041373 159.966141,17.284925 140.212082,22.560171 
	C123.189026,27.106115 106.149391,31.589941 89.121872,36.119213 
	C81.640709,38.109173 77.782555,43.434128 78.909454,50.374126 
	C79.901894,56.486069 84.226204,59.268173 89.732277,60.719627 
	C100.177078,63.472980 110.592911,66.348747 121.092880,68.873856 
	C125.066864,69.829544 126.749924,71.398178 126.605232,75.836639 
	C126.236206,87.157158 126.493240,98.497757 126.469849,109.830254 
	C126.466881,111.265663 126.284996,112.700699 126.206139,113.843956 
	C121.497200,113.843956 117.198540,113.949242 112.906410,113.826401 
	C89.888847,113.167641 66.910011,113.135445 44.405258,119.006439 
	C32.661736,122.070053 32.360088,122.652939 31.913504,134.915771 
	C31.896477,135.383255 31.719837,135.844910 31.628796,136.258347 
	C31.243433,136.435242 30.954391,136.682388 30.663715,136.684326 
	C25.498148,136.718857 20.332386,136.729462 15.166659,136.733429 
	C6.782733,136.739899 4.991521,138.540421 4.991284,147.010559 
	C4.989862,197.840378 4.990717,248.670181 4.991287,300.500000 
z"/>
<path fill="#050506" opacity="1.000000" stroke="none" 
	d="
M4.991048,300.000000 
	C4.990717,248.670181 4.989862,197.840378 4.991284,147.010559 
	C4.991521,138.540421 6.782733,136.739899 15.166659,136.733429 
	C20.332386,136.729462 25.498148,136.718857 30.663715,136.684326 
	C30.954391,136.682388 31.243433,136.435242 31.628796,136.258347 
	C31.719837,135.844910 31.896477,135.383255 31.913504,134.915771 
	C32.360088,122.652939 32.661736,122.070053 44.405258,119.006439 
	C66.910011,113.135445 89.888847,113.167641 112.906410,113.826401 
	C117.198540,113.949242 121.497200,113.843956 126.206139,113.843956 
	C126.284996,112.700699 126.466881,111.265663 126.469849,109.830254 
	C126.493240,98.497757 126.236206,87.157158 126.605232,75.836639 
	C126.749924,71.398178 125.066864,69.829544 121.092880,68.873856 
	C110.592911,66.348747 100.177078,63.472980 89.732277,60.719627 
	C84.226204,59.268173 79.901894,56.486069 78.909454,50.374126 
	C77.782555,43.434128 81.640709,38.109173 89.121872,36.119213 
	C106.149391,31.589941 123.189026,27.106115 140.212082,22.560171 
	C159.966141,17.284925 179.729294,12.041373 199.442627,6.617382 
	C206.050919,4.799154 212.492538,4.656009 219.116943,6.442816 
	C255.699020,16.310150 292.308014,26.077513 328.901184,35.903893 
	C340.051636,38.898132 342.920441,45.766365 337.520355,56.183186 
	C337.011902,57.164097 336.802216,58.368359 336.723175,59.487930 
	C336.594391,61.312065 336.915894,63.185528 336.651215,64.979729 
	C334.691101,78.266029 337.817078,89.343735 349.448853,97.414650 
	C351.321259,98.713875 352.052704,102.239403 352.490448,104.872314 
	C353.001007,107.943161 352.609680,111.163963 352.609680,114.650497 
	C359.074158,115.836075 365.404114,116.910042 371.691620,118.191986 
	C374.282715,118.720268 376.814667,119.604759 379.317993,120.485054 
	C386.174286,122.896034 387.064087,124.190109 387.101196,131.366791 
	C387.109619,132.997116 387.102448,134.627487 387.102448,136.743912 
	C393.264679,136.743912 399.050873,136.713593 404.836609,136.751633 
	C411.971313,136.798538 414.025574,138.859818 414.027710,145.998703 
	C414.041260,191.662216 414.081726,237.325821 413.965485,282.989014 
	C413.956177,286.644318 415.027313,288.872864 417.940582,291.219971 
	C451.185760,318.004303 460.424225,364.943298 440.301666,403.209961 
	C438.708954,406.238708 437.872955,409.665344 437.155762,413.723907 
	C448.252472,411.570221 453.860870,418.519714 459.989929,424.732697 
	C474.027313,438.962433 488.399017,452.867401 502.245453,467.278442 
	C509.758179,475.097473 511.008789,484.603912 506.622803,494.580719 
	C502.606171,503.717438 493.184204,509.372162 482.945404,508.963379 
	C476.313324,508.698608 470.727722,505.931671 466.076538,501.294861 
	C450.386810,485.653687 434.780548,469.928345 419.033844,454.344879 
	C414.487854,449.846039 413.271423,444.461243 414.128876,436.731262 
	C410.337677,437.873993 407.162415,438.290070 404.525604,439.707703 
	C369.222076,458.688171 327.712860,453.378967 298.554138,425.988647 
	C297.102051,424.624634 295.352173,423.365662 294.436005,421.679993 
	C290.580933,414.586975 284.377502,414.132874 277.184814,414.147064 
	C190.024536,414.319031 102.863815,414.252869 15.703209,414.239960 
	C6.616667,414.238617 4.996577,412.599243 4.994958,403.491425 
	C4.988858,369.160950 4.991757,334.830475 4.991048,300.000000 
M33.105301,385.384399 
	C32.856293,385.133850 32.607285,384.883301 32.300053,384.785248 
	C32.300053,384.785248 32.453705,384.730072 32.313358,383.834961 
	C32.194302,381.179138 31.972105,378.523346 31.971226,375.867493 
	C31.947165,302.884094 31.945641,229.900681 31.940380,156.917267 
	C31.940239,154.976303 31.940361,153.035339 31.940361,150.964539 
	C27.355261,150.964539 23.428392,150.964539 18.985830,150.964539 
	C18.985830,152.831299 18.985815,154.458206 18.985832,156.085114 
	C18.986563,232.234482 18.984697,308.383850 18.995707,384.533203 
	C18.996260,388.360474 19.108202,392.187744 19.025188,396.750793 
	C19.079769,397.492798 19.134352,398.234833 19.324612,399.858521 
	C20.465899,399.988342 21.607136,400.231232 22.748480,400.231750 
	C80.311493,400.257172 137.874512,400.264374 195.437531,400.253387 
	C196.745041,400.253143 198.052521,400.021667 199.360016,399.898041 
	C199.388443,399.530640 199.416870,399.163239 199.445297,398.795837 
	C195.010880,397.106018 190.576462,395.416199 186.114075,393.833374 
	C186.114075,393.833374 186.215805,393.789978 185.691971,393.276917 
	C183.577957,392.671051 181.463943,392.065155 179.191849,391.439972 
	C179.191849,391.439972 179.338623,391.501648 178.885818,391.080261 
	C178.277679,390.994598 177.669525,390.908936 176.708725,390.358734 
	C176.139343,390.313293 175.569946,390.267883 174.325745,389.859039 
	C172.578552,389.501495 170.831360,389.143951 169.081314,388.888336 
	C169.081314,388.888336 169.175385,388.848969 168.652466,388.273682 
	C143.370834,382.603394 117.759102,380.253418 91.878204,380.767365 
	C74.733711,381.107819 57.625332,381.712921 41.250217,387.820190 
	C39.496674,388.474213 37.240833,387.781433 35.101776,387.884338 
	C35.101776,387.884338 35.264709,387.757111 34.994774,387.232269 
	C34.364399,386.773041 33.734024,386.313843 33.059643,385.934143 
	C33.059643,385.934143 33.150486,385.931000 33.105301,385.384399 
M395.513977,277.526337 
	C396.842773,278.008789 398.171539,278.491241 399.718018,279.052704 
	C399.718018,236.025711 399.718018,193.559174 399.718018,150.968613 
	C397.933868,150.968613 396.461456,150.968613 394.100525,150.766357 
	C391.862091,150.766357 389.623657,150.766357 387.307312,150.766357 
	C387.307312,192.491440 387.307312,233.437912 387.307312,274.554535 
	C389.974152,275.403442 392.480621,276.201294 395.513977,277.526337 
M487.717499,493.951324 
	C495.864380,490.358948 497.606659,482.359161 491.263306,475.919434 
	C476.003296,460.427612 460.517487,445.158386 445.199005,429.723694 
	C443.261322,427.771362 441.790344,427.469360 439.853912,429.562042 
	C436.927155,432.725006 433.878448,435.775055 430.281372,439.215485 
	C428.573608,440.880951 426.764191,442.314270 429.374054,444.901123 
	C445.051727,460.440796 460.574615,476.137085 476.310760,491.616882 
	C479.142151,494.402161 482.710724,496.487732 487.717499,493.951324 
M114.266647,44.028278 
	C109.687500,45.306637 105.108353,46.584991 99.284119,48.210934 
	C101.819313,49.088642 103.000351,49.580051 104.224960,49.909431 
	C135.305038,58.268982 166.410004,66.537079 197.458908,75.010643 
	C205.003220,77.069572 212.195374,77.582764 219.949707,75.416214 
	C248.239517,67.512062 276.670929,60.114964 305.045715,52.514580 
	C309.502716,51.320740 313.942810,50.063747 318.390686,48.835949 
	C318.365601,48.437187 318.340515,48.038425 318.315430,47.639660 
	C313.529755,46.441578 308.744080,45.243500 303.186096,43.974571 
	C300.684296,43.164639 298.211334,42.248394 295.676239,41.561325 
	C271.943878,35.129314 248.153122,28.906321 224.484100,22.250095 
	C214.825394,19.533863 205.556274,18.281876 195.792053,22.010315 
	C188.995087,24.605709 181.729568,25.974440 174.672638,27.888474 
	C154.799866,33.278515 134.926697,38.667179 114.266647,44.028278 
M152.728516,124.984344 
	C153.502808,125.236839 154.277115,125.489342 155.547943,126.171112 
	C156.372482,126.418846 157.197021,126.666580 158.513092,127.439583 
	C172.111801,132.761902 186.250259,135.539536 200.795135,136.376846 
	C226.950684,137.882507 251.775772,132.985367 275.182098,121.056419 
	C277.740234,119.752670 278.778564,118.238365 278.738983,115.299080 
	C278.575348,103.142288 278.684540,90.981979 278.652588,78.823059 
	C278.649292,77.570114 278.373352,76.317886 278.132843,74.301910 
	C274.555176,75.386703 271.436920,76.332207 267.429047,77.297279 
	C252.187637,81.364929 236.904297,85.283714 221.721802,89.560509 
	C213.646011,91.835403 205.826965,92.032578 197.719543,89.646660 
	C185.455154,86.037422 173.058914,82.873451 160.703629,79.576820 
	C154.229843,77.849480 147.723923,76.242607 140.578476,74.413948 
	C140.578476,86.307213 140.576004,97.251617 140.579147,108.196014 
	C140.582642,120.408920 140.584854,120.408920 152.728516,124.984344 
M369.540375,132.209030 
	C364.079315,131.136078 358.618256,130.063110 352.544739,128.869827 
	C352.544739,136.831299 352.569946,143.962479 352.534698,151.093369 
	C352.515472,154.978287 350.699432,157.830017 347.125916,159.330032 
	C343.516083,160.845322 340.180328,160.014984 337.547211,157.218475 
	C335.050232,154.566559 332.824860,151.658905 329.865479,148.131073 
	C327.032593,151.392059 325.200378,153.546951 323.318207,155.657272 
	C320.231567,159.118027 316.682648,161.339264 311.890564,159.265579 
	C307.315582,157.285858 306.609192,153.363373 306.705353,148.898819 
	C306.854523,141.977173 306.744720,135.049942 306.744720,127.972786 
	C297.520050,128.008224 289.433594,128.660995 281.643250,133.185867 
	C268.467926,140.838531 253.962784,145.299484 238.961929,147.896454 
	C231.666962,149.159363 224.276352,149.869843 216.915039,150.832230 
	C216.915039,228.750793 216.915039,306.434082 216.915039,383.296753 
	C234.885361,378.519409 252.741516,373.772430 270.786469,368.975250 
	C270.763672,369.135284 270.853424,368.811432 270.847504,368.489349 
	C270.829163,367.490417 270.758484,366.492462 270.736176,365.493500 
	C269.877441,327.042755 286.486877,298.598175 320.120026,280.235962 
	C334.968903,272.129120 351.225769,269.883057 368.861816,270.893829 
	C370.144501,270.893829 371.427155,270.893829 373.082214,270.893829 
	C373.082214,258.316986 373.082214,245.863022 373.082184,233.409073 
	C373.082092,201.448288 373.098145,169.487473 373.044159,137.526779 
	C373.040741,135.487778 374.199524,132.444595 369.540375,132.209030 
M45.948116,206.500000 
	C45.948116,261.371490 45.948116,316.243011 45.948116,370.842194 
	C99.480667,362.879578 151.480530,365.399811 202.495193,384.255402 
	C202.495193,382.473022 202.495255,381.161407 202.495193,379.849762 
	C202.493668,348.696747 202.491364,317.543762 202.490768,286.390747 
	C202.489960,242.743210 202.463913,199.095642 202.540558,155.448242 
	C202.546722,151.939499 202.058624,150.216599 197.783966,149.976837 
	C174.673355,148.680557 152.991165,142.250702 132.739212,130.969391 
	C130.648773,129.804916 128.117294,128.868729 125.769737,128.819717 
	C109.137482,128.472366 92.483017,127.867363 75.870155,128.406967 
	C65.876312,128.731598 55.944576,130.968109 45.948116,132.350525 
	C45.948116,157.543961 45.948116,181.521973 45.948116,206.500000 
M384.969299,288.440704 
	C373.734467,284.598267 362.094666,283.318085 350.494049,285.236603 
	C318.467224,290.533234 296.479614,308.715881 287.630524,339.920990 
	C278.789459,371.097961 287.358948,398.673584 312.435150,419.353851 
	C337.344086,439.896118 365.585541,442.591675 394.703430,428.716461 
	C404.243256,424.170532 412.987091,420.812714 423.641022,427.607605 
	C424.600281,424.852661 426.499939,422.235901 425.835358,420.839813 
	C421.845184,412.457672 423.254578,404.956451 427.584229,397.138672 
	C450.312744,356.098969 430.085297,304.019562 384.969299,288.440704 
M304.725464,67.226097 
	C301.519653,68.106140 298.253479,68.820961 295.141479,69.957741 
	C294.082642,70.344505 292.684967,71.785507 292.673584,72.759178 
	C292.512695,86.531113 292.564087,100.305534 292.564087,114.441383 
	C297.452789,114.204048 301.857178,113.990227 306.001862,113.789017 
	C306.729187,108.619621 306.337006,103.407112 308.340881,99.389771 
	C310.390442,95.280800 314.787689,92.342194 318.160431,88.894356 
	C319.091797,87.942238 320.091888,87.050056 320.952698,86.038689 
	C321.577820,85.304260 322.467865,84.426720 322.482635,83.599487 
	C322.605438,76.711609 322.552307,69.820595 322.552307,62.474106 
	C316.355530,64.116661 310.931305,65.554451 304.725464,67.226097 
M320.729980,117.522972 
	C320.729980,124.085587 320.729980,130.648209 320.729980,137.087692 
	C323.971161,135.455124 326.824219,132.864777 329.620911,132.924301 
	C332.590576,132.987488 335.506714,135.564728 338.613281,137.128174 
	C338.613281,129.915543 337.968353,122.711815 338.779053,115.675812 
	C339.758118,107.178917 335.870178,101.944832 329.585815,97.794846 
	C322.471527,102.100677 319.165527,108.195282 320.729980,117.522972 
M242.500000,400.246613 
	C254.578354,400.246613 266.656708,400.246613 279.240295,400.246613 
	C277.132019,394.466766 275.278107,389.384216 273.305695,383.976898 
	C254.671478,386.862244 236.489014,390.633942 219.812576,400.245117 
	C227.041733,400.245117 234.270874,400.245117 242.500000,400.246613 
z"/>
<path fill="#E9ECEF" opacity="1.000000" stroke="none" 
	d="
M45.948116,206.000000 
	C45.948116,181.521973 45.948116,157.543961 45.948116,132.350525 
	C55.944576,130.968109 65.876312,128.731598 75.870155,128.406967 
	C92.483017,127.867363 109.137482,128.472366 125.769737,128.819717 
	C128.117294,128.868729 130.648773,129.804916 132.739212,130.969391 
	C152.991165,142.250702 174.673355,148.680557 197.783966,149.976837 
	C202.058624,150.216599 202.546722,151.939499 202.540558,155.448242 
	C202.463913,199.095642 202.489960,242.743210 202.490768,286.390747 
	C202.491364,317.543762 202.493668,348.696747 202.495193,379.849762 
	C202.495255,381.161407 202.495193,382.473022 202.495193,384.255402 
	C151.480530,365.399811 99.480667,362.879578 45.948116,370.842194 
	C45.948116,316.243011 45.948116,261.371490 45.948116,206.000000 
M65.285042,188.148911 
	C66.603561,193.155991 70.198349,193.991989 74.838654,194.025711 
	C93.767342,194.163193 112.737160,193.913284 131.607010,195.125839 
	C145.469696,196.016632 159.196365,198.988770 172.992065,200.974915 
	C178.424927,201.757080 181.760895,199.804443 182.593231,195.559341 
	C183.408432,191.401611 180.663940,188.129364 175.470886,187.147354 
	C141.877792,180.794968 108.079384,177.431656 73.844772,179.872849 
	C68.775421,180.234329 65.612198,182.054474 65.285042,188.148911 
M152.141190,234.215134 
	C159.344315,235.481506 166.527313,236.881851 173.757553,237.967667 
	C178.668198,238.705154 182.117371,236.300568 182.713913,232.228348 
	C183.267151,228.451767 180.679352,225.064255 176.176895,224.205994 
	C141.878311,217.667953 107.358627,214.183228 72.407875,216.979568 
	C67.998329,217.332367 64.953194,220.453049 65.171295,224.279404 
	C65.394981,228.204010 68.533676,230.966354 73.080231,230.884048 
	C77.235718,230.808838 81.407333,230.007523 85.534050,230.229279 
	C107.449257,231.406906 129.352570,232.805969 152.141190,234.215134 
M70.420952,304.504059 
	C71.908310,304.579498 73.394882,304.695618 74.883141,304.724182 
	C94.167793,305.094116 113.494064,304.804016 132.723434,306.032654 
	C146.272003,306.898315 159.690872,309.810394 173.163834,311.834137 
	C178.268768,312.600922 181.961472,310.404572 182.615509,306.131348 
	C183.208359,302.257935 180.642166,298.876678 176.220154,298.032410 
	C142.087784,291.515411 107.736458,288.125031 72.950623,290.760590 
	C69.188980,291.045624 66.425270,292.430420 65.495399,296.134308 
	C64.559219,299.863281 66.189972,302.584473 70.420952,304.504059 
M95.500870,340.899994 
	C121.547531,340.640320 147.265457,343.656372 172.787170,348.642212 
	C177.955658,349.651886 181.637283,347.671051 182.538101,343.451813 
	C183.439194,339.231293 180.789749,335.904449 175.645172,334.954803 
	C169.275787,333.778992 162.909103,332.569366 156.509445,331.580292 
	C128.795670,327.297119 100.954208,325.571869 72.944748,327.763580 
	C67.880859,328.159821 64.983253,331.002106 65.181984,335.008850 
	C65.393974,339.282898 68.723831,341.794434 74.051697,341.625549 
	C80.869118,341.409454 87.685059,341.146637 95.500870,340.899994 
M117.802132,267.712860 
	C121.619980,267.972290 125.469101,268.006317 129.250137,268.530945 
	C143.898315,270.563568 158.524490,272.754608 173.159561,274.881805 
	C178.411606,275.645233 181.906296,273.548553 182.628479,269.217377 
	C183.293442,265.229523 180.622803,261.977295 175.751678,261.049011 
	C142.952759,254.798660 109.939133,251.381104 76.504044,253.643158 
	C68.043938,254.215546 64.656792,256.608704 65.226028,261.580811 
	C65.787735,266.487030 69.618607,267.874329 77.953499,267.654694 
	C90.917557,267.313049 103.898308,267.604553 117.802132,267.712860 
z"/>
<path fill="#E9EDF0" opacity="1.000000" stroke="none" 
	d="
M367.971344,270.647339 
	C351.225769,269.883057 334.968903,272.129120 320.120026,280.235962 
	C286.486877,298.598175 269.877441,327.042755 270.736176,365.493500 
	C270.758484,366.492462 270.829163,367.490417 270.847504,368.489349 
	C270.853424,368.811432 270.763672,369.135284 270.786469,368.975250 
	C252.741516,373.772430 234.885361,378.519409 216.915039,383.296753 
	C216.915039,306.434082 216.915039,228.750793 216.915039,150.832230 
	C224.276352,149.869843 231.666962,149.159363 238.961929,147.896454 
	C253.962784,145.299484 268.467926,140.838531 281.643250,133.185867 
	C289.433594,128.660995 297.520050,128.008224 306.744720,127.972786 
	C306.744720,135.049942 306.854523,141.977173 306.705353,148.898819 
	C306.609192,153.363373 307.315582,157.285858 311.890564,159.265579 
	C316.682648,161.339264 320.231567,159.118027 323.318207,155.657272 
	C325.200378,153.546951 327.032593,151.392059 329.865479,148.131073 
	C332.824860,151.658905 335.050232,154.566559 337.547211,157.218475 
	C340.180328,160.014984 343.516083,160.845322 347.125916,159.330032 
	C350.699432,157.830017 352.515472,154.978287 352.534698,151.093369 
	C352.569946,143.962479 352.544739,136.831299 352.544739,128.869827 
	C358.618256,130.063110 364.079315,131.136078 369.719604,132.672424 
	C369.264282,135.945526 368.084900,138.753662 368.076721,141.565216 
	C367.951569,184.592316 367.979248,227.619888 367.971344,270.647339 
M284.467560,217.999359 
	C270.500183,220.086975 256.515747,222.069183 242.575302,224.323410 
	C238.120026,225.043839 235.549286,228.753738 236.470871,232.550613 
	C237.489120,236.745712 240.397934,238.519943 244.667694,238.078751 
	C245.495468,237.993210 246.327240,237.907944 247.142944,237.749359 
	C279.292938,231.499466 311.665771,228.484024 344.433258,230.841476 
	C350.154938,231.253113 353.563293,228.702377 353.860901,224.335678 
	C354.156311,220.000946 350.897949,216.895844 345.221527,216.954529 
	C325.273560,217.160690 305.327911,217.594406 284.467560,217.999359 
M279.223175,269.656525 
	C285.017517,269.090881 290.805664,268.126434 296.607422,268.035889 
	C312.739929,267.784180 328.878113,267.864380 345.013977,267.881500 
	C350.223907,267.887024 353.655640,265.389618 353.869781,261.169830 
	C354.074677,257.132294 351.094971,254.290634 346.123138,253.892548 
	C311.167206,251.093552 276.651703,254.659836 242.358765,261.208832 
	C237.107071,262.211731 234.740311,267.663666 237.473831,271.948700 
	C239.750778,275.518036 243.204926,275.327454 246.815079,274.743439 
	C257.312317,273.045258 267.821564,271.421448 279.223175,269.656525 
M329.441223,179.165878 
	C300.374451,178.545456 271.666168,181.784393 243.168137,187.228775 
	C238.296829,188.159424 235.727707,191.445770 236.442551,195.516418 
	C237.139679,199.486084 240.202774,201.506073 245.010284,201.083176 
	C246.328644,200.967209 247.622589,200.596649 248.938705,200.429214 
	C266.078339,198.248657 283.167999,195.338593 300.376709,194.139236 
	C315.437286,193.089569 330.632141,193.980591 345.767700,193.985275 
	C350.524841,193.986740 353.853333,191.096878 353.870239,187.063171 
	C353.886444,183.195831 350.906921,180.304840 346.376068,180.006088 
	C341.062378,179.655731 335.739258,179.448303 329.441223,179.165878 
M276.340485,303.558655 
	C277.902405,296.565460 275.203705,293.085907 268.162567,293.943481 
	C259.919586,294.947357 251.749054,296.562347 243.559998,297.986511 
	C238.390701,298.885529 235.638748,302.200714 236.437332,306.359955 
	C237.251785,310.601959 240.876648,312.653015 246.079529,311.782410 
	C253.949417,310.465546 261.851593,309.301453 269.661713,307.692291 
	C271.922394,307.226501 273.915009,305.459686 276.340485,303.558655 
M264.181061,334.431671 
	C261.595093,333.816681 258.967346,332.562195 256.432373,332.727844 
	C251.986588,333.018341 247.589417,334.136658 243.187149,334.987122 
	C238.364899,335.918701 235.758408,339.105530 236.401535,343.144409 
	C237.048172,347.205505 240.693619,349.607147 245.391556,348.834900 
	C249.973267,348.081726 254.534134,347.180542 259.076569,346.214752 
	C265.637848,344.819672 267.390472,341.268524 264.181061,334.431671 
z"/>
<path fill="#8F9AD0" opacity="1.000000" stroke="none" 
	d="
M158.021561,126.914322 
	C157.197021,126.666580 156.372482,126.418846 155.208191,125.611649 
	C154.029343,124.858963 153.190262,124.665733 152.351181,124.472496 
	C140.584854,120.408920 140.582642,120.408920 140.579147,108.196014 
	C140.576004,97.251617 140.578476,86.307213 140.578476,74.413948 
	C147.723923,76.242607 154.229843,77.849480 160.703629,79.576820 
	C173.058914,82.873451 185.455154,86.037422 197.719543,89.646660 
	C205.826965,92.032578 213.646011,91.835403 221.721802,89.560509 
	C236.904297,85.283714 252.187637,81.364929 267.784210,77.810486 
	C268.094299,89.961433 268.111298,101.599854 267.982147,113.236656 
	C267.897217,120.888390 266.409546,122.522827 259.274323,125.121544 
	C248.538040,129.031815 237.686340,132.117935 226.221985,133.252991 
	C208.271133,135.030289 190.577789,134.234436 173.035278,129.944702 
	C168.080002,128.732971 163.028778,127.913620 158.021561,126.914322 
z"/>
<path fill="#5D679D" opacity="1.000000" stroke="none" 
	d="
M115.053696,44.056389 
	C134.926697,38.667179 154.799866,33.278515 174.672638,27.888474 
	C181.729568,25.974440 188.995087,24.605709 195.792053,22.010315 
	C205.556274,18.281876 214.825394,19.533863 224.484100,22.250095 
	C248.153122,28.906321 271.943878,35.129314 295.676239,41.561325 
	C298.211334,42.248394 300.684296,43.164639 303.332214,44.282703 
	C299.672241,45.725578 295.890228,46.950062 292.056091,47.980457 
	C267.601868,54.552322 243.201508,61.345730 218.624130,67.421982 
	C213.105423,68.786369 206.706680,68.666824 201.140915,67.379929 
	C183.735489,63.355503 166.510620,58.534599 149.263062,53.848328 
	C137.818008,50.738636 126.453987,47.330780 115.053696,44.056389 
z"/>
<path fill="#83CBFD" opacity="1.000000" stroke="none" 
	d="
M19.188932,398.976837 
	C19.134352,398.234833 19.079769,397.492798 19.431873,396.332367 
	C20.402601,395.219879 21.503899,394.469971 21.438566,393.841370 
	C21.140781,390.976044 20.078026,388.145599 20.072517,385.301117 
	C19.980921,337.998077 20.007524,290.694824 20.006727,243.391602 
	C20.006254,215.409424 19.992424,187.427216 20.011713,159.445053 
	C20.015881,153.400970 21.256533,152.223770 26.081224,151.939865 
	C31.849092,151.600479 30.979837,155.458267 30.979912,158.910248 
	C30.981380,226.700424 30.987343,294.490601 30.950504,362.280731 
	C30.949345,364.413025 30.313662,366.543884 30.300346,368.677460 
	C30.266409,374.116821 28.412489,379.830902 32.453705,384.730072 
	C32.453705,384.730072 32.300053,384.785248 32.311127,384.996704 
	C32.598297,385.449097 32.874390,385.690063 33.150486,385.931000 
	C33.150486,385.931000 33.059643,385.934143 33.087334,386.249298 
	C33.831585,386.962006 34.548149,387.359558 35.264709,387.757111 
	C35.264709,387.757111 35.101776,387.884338 35.092949,388.198944 
	C34.904350,389.885956 34.724586,391.258392 34.487938,393.065063 
	C38.194931,392.828094 41.373909,392.624878 44.742359,392.409546 
	C44.341698,391.156158 44.026421,390.169891 43.500145,388.523529 
	C49.603630,386.965027 55.261360,384.746246 61.080215,384.178345 
	C79.198776,382.410034 97.350136,380.608154 115.598579,382.949860 
	C129.989426,384.796570 144.416000,386.367432 158.832809,388.007111 
	C162.267822,388.397766 165.727203,388.574066 169.175385,388.848969 
	C169.175385,388.848969 169.081314,388.888336 169.223938,389.149811 
	C171.243057,389.692230 172.465591,394.514954 175.000565,390.222473 
	C175.569946,390.267883 176.139343,390.313293 177.058029,390.888184 
	C178.051102,391.445648 178.694855,391.473663 179.338623,391.501648 
	C179.338623,391.501648 179.191849,391.439972 179.313126,391.840088 
	C181.694870,392.756775 183.955338,393.273376 186.215805,393.789978 
	C186.215805,393.789978 186.114075,393.833374 186.215515,394.131317 
	C188.070786,395.659729 189.824585,396.890198 192.798706,398.976837 
	C133.959961,398.976837 76.574448,398.976837 19.188932,398.976837 
M28.999237,231.500000 
	C28.999237,208.232010 28.999237,184.964005 28.999237,161.696014 
	C28.564062,161.702896 28.128889,161.709793 27.693714,161.716675 
	C27.693714,230.574066 27.693714,299.431427 27.693714,368.288818 
	C28.128889,368.288574 28.564062,368.288330 28.999237,368.288055 
	C28.999237,323.025391 28.999237,277.762695 28.999237,231.500000 
z"/>
<path fill="#EDAA9D" opacity="1.000000" stroke="none" 
	d="
M385.324341,288.621521 
	C430.085297,304.019562 450.312744,356.098969 427.584229,397.138672 
	C423.254578,404.956451 421.845184,412.457672 425.835358,420.839813 
	C426.499939,422.235901 424.600281,424.852661 423.641022,427.607605 
	C412.987091,420.812714 404.243256,424.170532 394.703430,428.716461 
	C365.585541,442.591675 337.344086,439.896118 312.435150,419.353851 
	C287.358948,398.673584 278.789459,371.097961 287.630524,339.920990 
	C296.479614,308.715881 318.467224,290.533234 350.494049,285.236603 
	C362.094666,283.318085 373.734467,284.598267 385.324341,288.621521 
M323.945618,419.611359 
	C339.034180,428.902161 355.315308,431.900940 372.775879,429.058411 
	C407.931427,423.335266 433.558350,389.647369 429.910400,353.848694 
	C426.168304,317.125885 393.440674,288.985229 357.161438,291.295837 
	C326.577759,293.243713 301.226868,313.892212 293.462036,343.179596 
	C285.811584,372.035645 297.760986,402.448090 323.945618,419.611359 
z"/>
<path fill="#3D4972" opacity="1.000000" stroke="none" 
	d="
M114.660172,44.042336 
	C126.453987,47.330780 137.818008,50.738636 149.263062,53.848328 
	C166.510620,58.534599 183.735489,63.355503 201.140915,67.379929 
	C206.706680,68.666824 213.105423,68.786369 218.624130,67.421982 
	C243.201508,61.345730 267.601868,54.552322 292.056091,47.980457 
	C295.890228,46.950062 299.672241,45.725578 303.718384,44.318127 
	C308.744080,45.243500 313.529755,46.441578 318.315430,47.639660 
	C318.340515,48.038425 318.365601,48.437187 318.390686,48.835949 
	C313.942810,50.063747 309.502716,51.320740 305.045715,52.514580 
	C276.670929,60.114964 248.239517,67.512062 219.949707,75.416214 
	C212.195374,77.582764 205.003220,77.069572 197.458908,75.010643 
	C166.410004,66.537079 135.305038,58.268982 104.224960,49.909431 
	C103.000351,49.580051 101.819313,49.088642 99.284119,48.210934 
	C105.108353,46.584991 109.687500,45.306637 114.660172,44.042336 
z"/>
<path fill="#C36E5B" opacity="1.000000" stroke="none" 
	d="
M430.881561,438.873108 
	C433.878448,435.775055 436.927155,432.725006 439.853912,429.562042 
	C441.790344,427.469360 443.261322,427.771362 445.199005,429.723694 
	C460.517487,445.158386 476.003296,460.427612 491.263306,475.919434 
	C497.606659,482.359161 495.864380,490.358948 487.217285,493.660828 
	C482.458466,489.732269 478.009308,486.292023 473.981842,482.413849 
	C466.203644,474.923889 458.627686,467.221985 451.035004,459.541656 
	C444.270111,452.698669 437.595856,445.766113 430.881561,438.873108 
z"/>
<path fill="#F9F9F9" opacity="1.000000" stroke="none" 
	d="
M305.116272,67.109161 
	C310.931305,65.554451 316.355530,64.116661 322.552307,62.474106 
	C322.552307,69.820595 322.605438,76.711609 322.482635,83.599487 
	C322.467865,84.426720 321.577820,85.304260 320.952698,86.038689 
	C320.091888,87.050056 319.091797,87.942238 318.160431,88.894356 
	C314.787689,92.342194 310.390442,95.280800 308.340881,99.389771 
	C306.337006,103.407112 306.729187,108.619621 306.001862,113.789017 
	C301.857178,113.990227 297.452789,114.204048 292.564087,114.441383 
	C292.564087,100.305534 292.512695,86.531113 292.673584,72.759178 
	C292.684967,71.785507 294.082642,70.344505 295.141479,69.957741 
	C298.253479,68.820961 301.519653,68.106140 305.116272,67.109161 
z"/>
<path fill="#84C5F5" opacity="1.000000" stroke="none" 
	d="
M394.987091,276.999176 
	C392.480621,276.201294 389.974152,275.403442 387.307312,274.554535 
	C387.307312,233.437912 387.307312,192.491440 387.307312,150.766357 
	C389.623657,150.766357 391.862091,150.766357 394.550385,151.338348 
	C394.995850,193.606613 394.991455,235.302902 394.987091,276.999176 
z"/>
<path fill="#757FB2" opacity="1.000000" stroke="none" 
	d="
M158.267334,127.176949 
	C163.028778,127.913620 168.080002,128.732971 173.035278,129.944702 
	C190.577789,134.234436 208.271133,135.030289 226.221985,133.252991 
	C237.686340,132.117935 248.538040,129.031815 259.274323,125.121544 
	C266.409546,122.522827 267.897217,120.888390 267.982147,113.236656 
	C268.111298,101.599854 268.094299,89.961433 268.229004,77.800705 
	C271.436920,76.332207 274.555176,75.386703 278.132843,74.301910 
	C278.373352,76.317886 278.649292,77.570114 278.652588,78.823059 
	C278.684540,90.981979 278.575348,103.142288 278.738983,115.299080 
	C278.778564,118.238365 277.740234,119.752670 275.182098,121.056419 
	C251.775772,132.985367 226.950684,137.882507 200.795135,136.376846 
	C186.250259,135.539536 172.111801,132.761902 158.267334,127.176949 
z"/>
<path fill="#DBDCDF" opacity="1.000000" stroke="none" 
	d="
M368.416565,270.770569 
	C367.979248,227.619888 367.951569,184.592316 368.076721,141.565216 
	C368.084900,138.753662 369.264282,135.945526 370.039001,132.869629 
	C374.199524,132.444595 373.040741,135.487778 373.044159,137.526779 
	C373.098145,169.487473 373.082092,201.448288 373.082184,233.409073 
	C373.082214,245.863022 373.082214,258.316986 373.082214,270.893829 
	C371.427155,270.893829 370.144501,270.893829 368.416565,270.770569 
z"/>
<path fill="#56AFF2" opacity="1.000000" stroke="none" 
	d="
M395.250549,277.262756 
	C394.991455,235.302902 394.995850,193.606613 394.994659,151.439484 
	C396.461456,150.968613 397.933868,150.968613 399.718018,150.968613 
	C399.718018,193.559174 399.718018,236.025711 399.718018,279.052704 
	C398.171539,278.491241 396.842773,278.008789 395.250549,277.262756 
z"/>
<path fill="#F2E286" opacity="1.000000" stroke="none" 
	d="
M320.729919,117.029251 
	C319.165527,108.195282 322.471527,102.100677 329.585815,97.794846 
	C335.870178,101.944832 339.758118,107.178917 338.779053,115.675812 
	C337.968353,122.711815 338.613281,129.915543 338.613281,137.128174 
	C335.506714,135.564728 332.590576,132.987488 329.620911,132.924301 
	C326.824219,132.864777 323.971161,135.455124 320.729980,137.087692 
	C320.729980,130.648209 320.729980,124.085587 320.729919,117.029251 
z"/>
<path fill="#86C5F4" opacity="1.000000" stroke="none" 
	d="
M242.000015,400.245850 
	C234.270874,400.245117 227.041733,400.245117 219.812576,400.245117 
	C236.489014,390.633942 254.671478,386.862244 273.305695,383.976898 
	C275.278107,389.384216 277.132019,394.466766 279.240295,400.246613 
	C266.656708,400.246613 254.578354,400.246613 242.000015,400.245850 
z"/>
<path fill="#8AC3EE" opacity="1.000000" stroke="none" 
	d="
M32.383530,384.282532 
	C28.412489,379.830902 30.266409,374.116821 30.300346,368.677460 
	C30.313662,366.543884 30.949345,364.413025 30.950504,362.280731 
	C30.987343,294.490601 30.981380,226.700424 30.979912,158.910248 
	C30.979837,155.458267 31.849092,151.600479 26.081224,151.939865 
	C21.256533,152.223770 20.015881,153.400970 20.011713,159.445053 
	C19.992424,187.427216 20.006254,215.409424 20.006727,243.391602 
	C20.007524,290.694824 19.980921,337.998077 20.072517,385.301117 
	C20.078026,388.145599 21.140781,390.976044 21.438566,393.841370 
	C21.503899,394.469971 20.402601,395.219879 19.503418,395.964478 
	C19.108202,392.187744 18.996260,388.360474 18.995707,384.533203 
	C18.984697,308.383850 18.986563,232.234482 18.985832,156.085114 
	C18.985815,154.458206 18.985830,152.831299 18.985830,150.964539 
	C23.428392,150.964539 27.355261,150.964539 31.940361,150.964539 
	C31.940361,153.035339 31.940239,154.976303 31.940380,156.917267 
	C31.945641,229.900681 31.947165,302.884094 31.971226,375.867493 
	C31.972105,378.523346 32.194302,381.179138 32.383530,384.282532 
z"/>
<path fill="#9B4F43" opacity="1.000000" stroke="none" 
	d="
M430.581482,439.044312 
	C437.595856,445.766113 444.270111,452.698669 451.035004,459.541656 
	C458.627686,467.221985 466.203644,474.923889 473.981842,482.413849 
	C478.009308,486.292023 482.458466,489.732269 486.856506,493.679749 
	C482.710724,496.487732 479.142151,494.402161 476.310760,491.616882 
	C460.574615,476.137085 445.051727,460.440796 429.374054,444.901123 
	C426.764191,442.314270 428.573608,440.880951 430.581482,439.044312 
z"/>
<path fill="#8AC3EE" opacity="1.000000" stroke="none" 
	d="
M168.913925,388.561340 
	C165.727203,388.574066 162.267822,388.397766 158.832809,388.007111 
	C144.416000,386.367432 129.989426,384.796570 115.598579,382.949860 
	C97.350136,380.608154 79.198776,382.410034 61.080215,384.178345 
	C55.261360,384.746246 49.603630,386.965027 43.500145,388.523529 
	C44.026421,390.169891 44.341698,391.156158 44.742359,392.409546 
	C41.373909,392.624878 38.194931,392.828094 34.487938,393.065063 
	C34.724586,391.258392 34.904350,389.885956 35.151058,388.113464 
	C37.240833,387.781433 39.496674,388.474213 41.250217,387.820190 
	C57.625332,381.712921 74.733711,381.107819 91.878204,380.767365 
	C117.759102,380.253418 143.370834,382.603394 168.913925,388.561340 
z"/>
<path fill="#8AC3EE" opacity="1.000000" stroke="none" 
	d="
M19.256771,399.417664 
	C76.574448,398.976837 133.959961,398.976837 192.798706,398.976837 
	C189.824585,396.890198 188.070786,395.659729 186.229507,394.077820 
	C190.576462,395.416199 195.010880,397.106018 199.445297,398.795837 
	C199.416870,399.163239 199.388443,399.530640 199.360016,399.898041 
	C198.052521,400.021667 196.745041,400.253143 195.437531,400.253387 
	C137.874512,400.264374 80.311493,400.257172 22.748480,400.231750 
	C21.607136,400.231232 20.465899,399.988342 19.256771,399.417664 
z"/>
<path fill="#8AC3EE" opacity="1.000000" stroke="none" 
	d="
M174.663147,390.040771 
	C172.465591,394.514954 171.243057,389.692230 169.225372,389.098816 
	C170.831360,389.143951 172.578552,389.501495 174.663147,390.040771 
z"/>
<path fill="#8AC3EE" opacity="1.000000" stroke="none" 
	d="
M185.953888,393.533447 
	C183.955338,393.273376 181.694870,392.756775 179.392151,391.849731 
	C181.463943,392.065155 183.577957,392.671051 185.953888,393.533447 
z"/>
<path fill="#757FB2" opacity="1.000000" stroke="none" 
	d="
M152.539856,124.728424 
	C153.190262,124.665733 154.029343,124.858963 154.959915,125.397018 
	C154.277115,125.489342 153.502808,125.236839 152.539856,124.728424 
z"/>
<path fill="#8AC3EE" opacity="1.000000" stroke="none" 
	d="
M35.129745,387.494690 
	C34.548149,387.359558 33.831585,386.962006 33.109337,386.209534 
	C33.734024,386.313843 34.364399,386.773041 35.129745,387.494690 
z"/>
<path fill="#8AC3EE" opacity="1.000000" stroke="none" 
	d="
M179.112213,391.290955 
	C178.694855,391.473663 178.051102,391.445648 177.234360,391.120453 
	C177.669525,390.908936 178.277679,390.994598 179.112213,391.290955 
z"/>
<path fill="#8AC3EE" opacity="1.000000" stroke="none" 
	d="
M33.127892,385.657715 
	C32.874390,385.690063 32.598297,385.449097 32.340240,384.920441 
	C32.607285,384.883301 32.856293,385.133850 33.127892,385.657715 
z"/>
<path fill="#060607" opacity="1.000000" stroke="none" 
	d="
M65.230392,187.771988 
	C65.612198,182.054474 68.775421,180.234329 73.844772,179.872849 
	C108.079384,177.431656 141.877792,180.794968 175.470886,187.147354 
	C180.663940,188.129364 183.408432,191.401611 182.593231,195.559341 
	C181.760895,199.804443 178.424927,201.757080 172.992065,200.974915 
	C159.196365,198.988770 145.469696,196.016632 131.607010,195.125839 
	C112.737160,193.913284 93.767342,194.163193 74.838654,194.025711 
	C70.198349,193.991989 66.603561,193.155991 65.230392,187.771988 
z"/>
<path fill="#060607" opacity="1.000000" stroke="none" 
	d="
M151.700592,234.171722 
	C129.352570,232.805969 107.449257,231.406906 85.534050,230.229279 
	C81.407333,230.007523 77.235718,230.808838 73.080231,230.884048 
	C68.533676,230.966354 65.394981,228.204010 65.171295,224.279404 
	C64.953194,220.453049 67.998329,217.332367 72.407875,216.979568 
	C107.358627,214.183228 141.878311,217.667953 176.176895,224.205994 
	C180.679352,225.064255 183.267151,228.451767 182.713913,232.228348 
	C182.117371,236.300568 178.668198,238.705154 173.757553,237.967667 
	C166.527313,236.881851 159.344315,235.481506 151.700592,234.171722 
z"/>
<path fill="#060607" opacity="1.000000" stroke="none" 
	d="
M70.056366,304.333832 
	C66.189972,302.584473 64.559219,299.863281 65.495399,296.134308 
	C66.425270,292.430420 69.188980,291.045624 72.950623,290.760590 
	C107.736458,288.125031 142.087784,291.515411 176.220154,298.032410 
	C180.642166,298.876678 183.208359,302.257935 182.615509,306.131348 
	C181.961472,310.404572 178.268768,312.600922 173.163834,311.834137 
	C159.690872,309.810394 146.272003,306.898315 132.723434,306.032654 
	C113.494064,304.804016 94.167793,305.094116 74.883141,304.724182 
	C73.394882,304.695618 71.908310,304.579498 70.056366,304.333832 
z"/>
<path fill="#060607" opacity="1.000000" stroke="none" 
	d="
M95.001251,340.901978 
	C87.685059,341.146637 80.869118,341.409454 74.051697,341.625549 
	C68.723831,341.794434 65.393974,339.282898 65.181984,335.008850 
	C64.983253,331.002106 67.880859,328.159821 72.944748,327.763580 
	C100.954208,325.571869 128.795670,327.297119 156.509445,331.580292 
	C162.909103,332.569366 169.275787,333.778992 175.645172,334.954803 
	C180.789749,335.904449 183.439194,339.231293 182.538101,343.451813 
	C181.637283,347.671051 177.955658,349.651886 172.787170,348.642212 
	C147.265457,343.656372 121.547531,340.640320 95.001251,340.901978 
z"/>
<path fill="#050606" opacity="1.000000" stroke="none" 
	d="
M117.337051,267.670288 
	C103.898308,267.604553 90.917557,267.313049 77.953499,267.654694 
	C69.618607,267.874329 65.787735,266.487030 65.226028,261.580811 
	C64.656792,256.608704 68.043938,254.215546 76.504044,253.643158 
	C109.939133,251.381104 142.952759,254.798660 175.751678,261.049011 
	C180.622803,261.977295 183.293442,265.229523 182.628479,269.217377 
	C181.906296,273.548553 178.411606,275.645233 173.159561,274.881805 
	C158.524490,272.754608 143.898315,270.563568 129.250137,268.530945 
	C125.469101,268.006317 121.619980,267.972290 117.337051,267.670288 
z"/>
<path fill="#060607" opacity="1.000000" stroke="none" 
	d="
M284.924500,217.970551 
	C305.327911,217.594406 325.273560,217.160690 345.221527,216.954529 
	C350.897949,216.895844 354.156311,220.000946 353.860901,224.335678 
	C353.563293,228.702377 350.154938,231.253113 344.433258,230.841476 
	C311.665771,228.484024 279.292938,231.499466 247.142944,237.749359 
	C246.327240,237.907944 245.495468,237.993210 244.667694,238.078751 
	C240.397934,238.519943 237.489120,236.745712 236.470871,232.550613 
	C235.549286,228.753738 238.120026,225.043839 242.575302,224.323410 
	C256.515747,222.069183 270.500183,220.086975 284.924500,217.970551 
z"/>
<path fill="#060607" opacity="1.000000" stroke="none" 
	d="
M278.774658,269.712524 
	C267.821564,271.421448 257.312317,273.045258 246.815079,274.743439 
	C243.204926,275.327454 239.750778,275.518036 237.473831,271.948700 
	C234.740311,267.663666 237.107071,262.211731 242.358765,261.208832 
	C276.651703,254.659836 311.167206,251.093552 346.123138,253.892548 
	C351.094971,254.290634 354.074677,257.132294 353.869781,261.169830 
	C353.655640,265.389618 350.223907,267.887024 345.013977,267.881500 
	C328.878113,267.864380 312.739929,267.784180 296.607422,268.035889 
	C290.805664,268.126434 285.017517,269.090881 278.774658,269.712524 
z"/>
<path fill="#060607" opacity="1.000000" stroke="none" 
	d="
M329.930725,179.172394 
	C335.739258,179.448303 341.062378,179.655731 346.376068,180.006088 
	C350.906921,180.304840 353.886444,183.195831 353.870239,187.063171 
	C353.853333,191.096878 350.524841,193.986740 345.767700,193.985275 
	C330.632141,193.980591 315.437286,193.089569 300.376709,194.139236 
	C283.167999,195.338593 266.078339,198.248657 248.938705,200.429214 
	C247.622589,200.596649 246.328644,200.967209 245.010284,201.083176 
	C240.202774,201.506073 237.139679,199.486084 236.442551,195.516418 
	C235.727707,191.445770 238.296829,188.159424 243.168137,187.228775 
	C271.666168,181.784393 300.374451,178.545456 329.930725,179.172394 
z"/>
<path fill="#080809" opacity="1.000000" stroke="none" 
	d="
M276.185486,303.923981 
	C273.915009,305.459686 271.922394,307.226501 269.661713,307.692291 
	C261.851593,309.301453 253.949417,310.465546 246.079529,311.782410 
	C240.876648,312.653015 237.251785,310.601959 236.437332,306.359955 
	C235.638748,302.200714 238.390701,298.885529 243.559998,297.986511 
	C251.749054,296.562347 259.919586,294.947357 268.162567,293.943481 
	C275.203705,293.085907 277.902405,296.565460 276.185486,303.923981 
z"/>
<path fill="#080809" opacity="1.000000" stroke="none" 
	d="
M264.466675,334.700287 
	C267.390472,341.268524 265.637848,344.819672 259.076569,346.214752 
	C254.534134,347.180542 249.973267,348.081726 245.391556,348.834900 
	C240.693619,349.607147 237.048172,347.205505 236.401535,343.144409 
	C235.758408,339.105530 238.364899,335.918701 243.187149,334.987122 
	C247.589417,334.136658 251.986588,333.018341 256.432373,332.727844 
	C258.967346,332.562195 261.595093,333.816681 264.466675,334.700287 
z"/>
<path fill="#8AC7FD" opacity="1.000000" stroke="none" 
	d="
M28.999237,232.000000 
	C28.999237,277.762695 28.999237,323.025391 28.999237,368.288055 
	C28.564062,368.288330 28.128889,368.288574 27.693714,368.288818 
	C27.693714,299.431427 27.693714,230.574066 27.693714,161.716675 
	C28.128889,161.709793 28.564062,161.702896 28.999237,161.696014 
	C28.999237,184.964005 28.999237,208.232010 28.999237,232.000000 
z"/>
<path fill="#090606" opacity="1.000000" stroke="none" 
	d="
M323.640686,419.411316 
	C297.760986,402.448090 285.811584,372.035645 293.462036,343.179596 
	C301.226868,313.892212 326.577759,293.243713 357.161438,291.295837 
	C393.440674,288.985229 426.168304,317.125885 429.910400,353.848694 
	C433.558350,389.647369 407.931427,423.335266 372.775879,429.058411 
	C355.315308,431.900940 339.034180,428.902161 323.640686,419.411316 
M396.252472,318.219269 
	C378.604248,304.401367 359.330017,301.403198 338.576294,310.009308 
	C315.277313,319.670868 301.970398,344.635498 306.088440,370.344452 
	C309.902130,394.153198 331.298798,413.992279 355.227783,415.906738 
	C379.975739,417.886658 402.321320,404.597900 411.774841,382.278564 
	C421.179626,360.074249 415.342560,335.317047 396.252472,318.219269 
z"/>
<path fill="#FDFDFD" opacity="1.000000" stroke="none" 
	d="
M396.518188,318.457703 
	C415.342560,335.317047 421.179626,360.074249 411.774841,382.278564 
	C402.321320,404.597900 379.975739,417.886658 355.227783,415.906738 
	C331.298798,413.992279 309.902130,394.153198 306.088440,370.344452 
	C301.970398,344.635498 315.277313,319.670868 338.576294,310.009308 
	C359.330017,301.403198 378.604248,304.401367 396.518188,318.457703 
z"/>
</svg>