<svg width="304" height="304" viewBox="0 0 304 304" fill="none" xmlns="http://www.w3.org/2000/svg">
<g clip-path="url(#clip0_1409_79376)">
<path d="M207.492 187.429C235.393 159.528 235.393 114.292 207.492 86.3912C179.591 58.4903 134.355 58.4903 106.455 86.3912C78.554 114.292 78.554 159.528 106.455 187.429C134.355 215.33 179.591 215.33 207.492 187.429Z" fill="#FFEDED"/>
<path d="M148.859 66.6843C148.837 66.6771 148.808 66.6699 148.751 66.6699C148.578 66.6771 148.32 66.7058 148.277 66.7202C148.234 66.7346 147.731 66.9214 147.724 66.9214C147.695 66.9357 147.666 66.9501 147.673 66.9573C147.673 66.9573 147.831 67.1082 148.535 66.907C148.923 66.8064 148.916 66.7202 148.859 66.6843Z" fill="#B42323"/>
<path d="M147.745 66.1024C147.795 66.0952 148.047 66.0377 148.068 66.009C148.054 65.9946 148.04 66.0018 148.018 66.0018C147.91 66.0018 147.659 66.0305 147.616 66.0377C147.566 66.0521 147.508 66.0808 147.523 66.0952C147.544 66.1167 147.645 66.1167 147.745 66.1024Z" fill="#B42323"/>
<path d="M149.986 65.8509C150.159 65.8724 150.159 65.8724 150.353 65.8581C150.367 65.8581 150.539 65.8509 150.82 65.8078C150.82 65.8078 151.143 65.7575 151.193 65.7431C151.179 65.7288 151.179 65.7288 151.129 65.7288C151.114 65.7288 149.993 65.7359 148.909 65.9012L149.491 65.8796C149.656 65.8724 149.814 65.8293 149.986 65.8509Z" fill="#B42323"/>
<path d="M148.708 66.0808C148.701 66.0808 148.693 66.0737 148.693 66.0665C148.722 66.0521 148.737 66.0521 149.168 66.0234C149.311 66.0162 149.512 66.0018 149.627 65.9874C149.649 65.9874 149.671 65.9803 149.692 65.9731C149.663 65.9659 149.635 65.9587 149.606 65.9587C148.392 65.93 147.343 66.1958 147.149 66.2748C147.228 66.3251 148.6 66.167 148.679 66.1383C148.679 66.1168 148.693 66.1024 148.708 66.0808Z" fill="#B42323"/>
<path d="M149.85 66.3683C149.879 66.3611 149.907 66.3539 149.929 66.3467C149.979 66.3252 150.022 66.2964 150.073 66.2749C150.159 66.239 150.245 66.2102 150.331 66.1743C150.382 66.1528 150.382 66.1456 150.389 66.1384C150.389 66.1312 150.382 66.1312 150.353 66.124C150.109 66.1168 149.62 66.2677 149.584 66.2893C149.584 66.2893 149.584 66.2893 149.584 66.2964C149.613 66.3252 149.613 66.3252 149.469 66.4329C149.505 66.4401 149.85 66.3683 149.85 66.3683Z" fill="#B42323"/>
<path d="M146.416 67.417C146.394 67.4026 146.366 67.4098 146.344 67.4026C146.236 67.3955 146.136 67.4098 146.136 67.4098C145.834 67.4457 145.446 67.5679 145.417 67.5894V67.5966C145.468 67.611 146.021 67.5894 146.28 67.5104C146.373 67.4888 146.466 67.4457 146.416 67.417Z" fill="#B42323"/>
<path d="M146.509 68.7174C146.488 68.6887 146.473 68.66 146.315 68.6312C146.287 68.624 146.258 68.624 146.229 68.6168C145.978 68.5809 145.719 68.545 145.468 68.5091C145.152 68.4732 144.052 68.5881 143.858 68.7246C143.858 68.7318 143.858 68.739 143.858 68.7462C143.93 68.7965 144.024 68.7893 144.081 68.8611C144.167 68.9832 144.117 69.0192 144.081 69.0479C144.017 69.0982 143.226 69.3424 143.025 69.3784C142.939 69.3927 142.932 69.3855 142.896 69.3712C142.91 69.17 143.154 69.1916 143.219 69.0335C143.097 69.012 142.407 69.1126 142.278 69.249C142.264 69.2634 142.249 69.285 142.249 69.3065C142.235 69.4574 142.271 69.6011 142.242 69.7519C142.235 69.8094 142.256 69.8741 142.228 69.9315C142.192 70.0321 142.091 70.1039 142.07 70.2117C142.07 70.2333 142.062 70.2548 142.077 70.2692C142.192 70.5206 144.103 70.1471 144.692 69.8597C144.821 69.795 145.288 69.3424 145.109 69.285C144.907 69.2203 144.699 69.2562 144.491 69.2347C144.95 69.1125 145.425 69.091 145.884 68.9689C145.892 68.9761 146.495 68.7462 146.509 68.7174Z" fill="#B42323"/>
<path d="M141.976 67.0506C142.774 66.986 143.528 66.6986 144.325 66.6052C143.492 66.792 143.492 66.792 143.442 66.8207L146.222 66.3179C146.28 66.3107 146.359 66.2891 146.459 66.2317C146.438 66.2173 146.394 66.2173 146.366 66.2173C145.791 66.2676 141.897 66.871 140.999 67.2015C141.366 67.2805 141.682 67.0722 142.027 67.0291C142.012 67.0363 141.991 67.0435 141.976 67.0506Z" fill="#B42323"/>
<path d="M140.266 71.9359C140.259 71.9359 140.245 71.9287 140.238 71.9287C140.194 71.9287 140.144 71.9359 140.051 71.9646C139.67 72.0939 139.332 72.331 138.937 72.4172C138.276 72.5609 138.075 72.604 138.025 72.6759C138.025 72.683 138.032 72.6902 138.032 72.6902C138.075 72.7118 138.111 72.719 138.255 72.7333C138.477 72.7621 138.499 72.7692 138.535 72.8124C138.592 72.8842 138.535 72.9991 138.614 73.0638C138.643 73.0853 138.794 73.1213 138.952 73.15C139.95 73.3081 140.482 73.0566 140.482 73.0494C140.633 72.9632 140.539 72.3885 140.539 72.3813C140.496 72.1442 140.302 71.9431 140.266 71.9359Z" fill="#B42323"/>
<path d="M142.982 68.4371C142.96 68.4299 142.917 68.4156 142.81 68.4012C142.256 68.3581 141.789 68.5449 141.754 68.5808C141.754 68.588 141.754 68.588 141.761 68.588C141.811 68.6095 141.869 68.5952 141.912 68.6383C141.912 68.6742 141.912 68.6814 141.825 68.7676C141.775 68.8179 141.639 68.9544 141.754 68.9615C141.94 68.9687 142.594 68.7029 142.673 68.6742C142.982 68.5521 143.075 68.4802 142.982 68.4371Z" fill="#B42323"/>
<path d="M192.164 83.3872C191.912 82.6616 191.345 82.0941 191.115 81.3613C190.971 80.8943 191.144 80.4274 191.093 79.9604C191.036 79.4144 191.179 79.321 191.546 79.1486C192.049 78.9115 191.848 78.6673 191.23 77.9561C189.225 75.6284 189.211 75.5853 189.11 75.183C189.132 75.1543 189.168 75.1255 189.19 75.0968C189.233 75.0968 189.29 75.0968 189.333 75.0968C188.845 74.1413 187.156 74.1701 187.264 72.7117C187.2 72.6471 187.121 72.5608 187.056 72.5034C187.092 72.4459 187.142 72.3669 187.185 72.3166C187.221 72.3166 187.264 72.3238 187.293 72.3238C186.977 72.1657 186.05 71.7706 186.036 71.7634C185.411 71.5048 184.556 71.3539 184.398 71.3324C183.816 71.2318 183.471 70.7217 182.947 70.5134C182.214 70.226 180.576 69.6513 179.908 69.4502C178.687 69.091 178.687 69.0909 178.514 69.1341C178.514 69.1341 178.514 69.1341 178.507 69.1341C177.171 68.7533 177.171 68.7533 176.503 68.6527C176.488 68.6527 176.474 68.6384 176.467 68.6455C176.467 68.6527 176.474 68.6527 176.474 68.6527C176.488 68.6599 176.503 68.6671 176.517 68.6743C177.264 68.9976 177.264 68.9976 177.472 69.1341C177.408 69.1197 177.408 69.1197 176.56 68.8036C176.208 68.6743 176.079 68.6312 175.655 68.5234C172.472 67.7835 169.929 67.9702 169.908 67.9702C169.994 68.0636 169.994 68.0636 170.439 68.2217C169.965 68.509 169.002 68.43 168.485 68.3869C168.464 68.3869 165.834 68.2217 165.683 68.3151C164.721 68.9473 166.28 69.8094 166.301 69.8094C170.511 70.9588 170.547 71.0235 170.755 71.3683C170.77 71.397 171.955 74.1341 170.942 75.0393C170.533 75.4057 170.525 75.4273 170.518 75.4919C170.475 75.7506 170.77 75.8727 170.784 76.1026C170.806 76.4618 170.547 76.7707 170.619 77.1371C171.201 77.2017 171.833 76.8066 172.379 77.3167C173.313 78.1788 172.501 78.8684 172.494 78.8684C171.855 79.2276 171.043 78.9187 170.432 79.3641C170.094 79.6084 169.563 80.4202 169.548 80.9949C169.541 81.2679 170.892 87.6833 172.25 88.7321C175.842 90.8011 175.957 90.7437 176.294 90.5569C176.855 90.2551 178.751 87.0798 178.773 87.0511C179.053 86.5841 178.967 85.9519 179.434 85.5711C179.678 85.3772 179.699 85.3772 180.763 85.4275C184.103 85.5999 184.103 85.5999 184.383 85.0683C184.664 84.5223 184.822 84.2205 185.468 84.1415C187.02 83.9547 188.572 84.393 190.123 84.199C190.763 84.12 191.409 84.1487 192.034 83.9835C192.027 83.9763 192.336 83.8829 192.164 83.3872Z" fill="#B42323"/>
<path d="M152.415 76.0809C152.716 75.7217 152.716 75.5062 152.408 75.4487C152.4 75.4487 151.445 75.3697 151.143 75.7073C150.971 75.9013 151.136 76.6125 151.244 76.7562C151.517 77.1082 152.4 76.0953 152.415 76.0809Z" fill="#B42323"/>
<path d="M162.997 65.8798C162.774 65.8941 162.551 65.8941 162.329 65.8941C163.011 65.966 165.238 66.124 165.597 66.1456C164.082 66.1168 162.875 66.1025 161.646 65.9372C161.359 65.9013 161.258 65.9372 161.122 65.9803C161.093 66.0594 160.849 66.4114 160.59 66.5191C160.051 66.124 158.155 66.4832 158.069 66.512C158.183 66.6197 158.356 66.6556 158.464 66.785C158.449 66.7993 158.428 66.8281 158.421 66.8424C158.629 66.8855 158.715 66.9071 159.477 66.8927C158.097 67.1154 158.011 66.9215 157.961 66.7921C157.077 66.5048 156.905 66.8209 156.826 66.9717C156.208 67.1226 155.547 66.9286 154.951 67.216C154.958 67.2376 154.965 67.2663 154.972 67.295C155.109 67.3525 155.209 67.3884 156.186 67.5321C156.912 67.6327 157.673 67.3669 158.363 67.7907C158.263 67.8985 158.263 67.8985 158.069 67.9631C158.528 68.2361 160.382 68.0206 160.375 67.5824C160.332 67.5465 160.26 67.5034 160.217 67.4746C160.389 67.3525 161.668 67.058 161.926 67.0795C163.457 67.2376 164.139 66.8784 164.196 66.7634C164.175 66.749 164.153 66.7275 164.132 66.7131C165.561 66.8281 166.208 66.8855 166.711 66.7562C166.61 66.7131 166.61 66.7131 166.366 66.67C166.38 66.67 169.649 66.7921 169.822 66.7993C169.017 66.6413 168.974 66.6269 168.679 66.5479C169.477 66.6125 170.267 66.7634 171.072 66.8352C170.36 66.591 169.125 66.318 169.118 66.318C169.089 66.3108 166.072 65.8007 165.382 65.8223C165.396 65.8654 165.425 65.9229 165.461 65.9588C165.332 65.9516 165.217 65.9516 164.929 65.8079C164.728 65.7074 162.077 65.4487 161.718 65.6571C161.811 65.7648 161.84 65.7864 162.997 65.8798Z" fill="#B42323"/>
<path d="M149.836 66.7849C149.749 66.8424 149.685 66.9214 149.598 66.9789C149.476 67.0507 149.462 67.0579 149.074 67.1872C149.132 67.1226 149.203 67.0364 149.261 66.9717C149.29 66.9358 149.325 66.9071 149.34 66.864C149.318 66.8424 149.06 66.7849 148.715 66.9573C148.744 66.9645 148.772 66.9717 148.801 66.9861C148.801 66.9933 148.794 67.0076 148.794 67.0148C148.413 67.1585 148.004 67.0651 147.616 67.1298C147.659 67.1729 147.731 67.1369 147.767 67.1872C147.695 67.2591 147.695 67.2591 147.695 67.2734C147.745 67.3094 147.745 67.3094 148.801 67.3309C148.442 67.3956 147.501 67.5536 147.364 67.726C147.364 67.7332 147.371 67.7404 147.371 67.7404C147.371 67.7404 148.578 67.7189 148.744 67.6973C148.851 67.6757 148.851 67.6757 149.642 67.3668C149.642 67.374 149.649 67.4099 149.606 67.4602C149.606 67.4674 149.598 67.4674 149.591 67.4746C149.958 67.3094 149.958 67.3094 150.899 66.9645C151.1 66.8927 151.114 66.8855 151.15 66.8496C151.107 66.8208 151.107 66.8208 151.042 66.8137C151.035 66.8137 149.994 66.7634 149.886 66.7849C149.857 66.7777 149.843 66.7777 149.836 66.7849Z" fill="#B42323"/>
<path d="M157.494 77.9489C157.946 78.0638 158.485 79.6227 158.492 79.6443C158.614 80.025 158.751 80.4202 158.981 80.4561C159.627 80.5567 161.344 78.5595 161.359 78.5379C161.409 78.4733 161.459 78.3871 161.481 78.3081L157.408 75.7505C157.566 75.6931 157.716 75.65 158.945 75.5494C159.484 75.5063 159.757 75.4847 159.778 75.3554C159.85 75.0249 158.816 73.0062 158.104 72.6183C157.788 72.4459 157.4 72.4243 157.127 72.1513C156.84 71.864 157.084 71.318 156.625 71.1168C156.201 70.93 155.145 70.9516 154.376 70.9731C153.593 70.9875 153.586 70.9875 153.485 70.9444C153.478 70.8151 153.471 70.6858 153.78 69.6656C153.535 69.4573 152.609 69.2993 152.336 69.2562C150.892 69.1053 145.755 71.0378 146.323 71.8065C146.883 72.5752 149.613 72.9488 150.015 72.8985C150.037 72.6686 150.058 72.5177 151.208 72.7835C152.185 73.0134 152.407 72.8338 152.551 72.7117C152.738 72.9128 153.162 73.6528 153.162 73.66C153.363 74.1198 153.334 74.637 153.514 75.1112C153.737 75.7002 154.635 75.9589 154.347 76.7994C154.34 76.8138 153.492 78.6313 150.597 78.4948C149.735 78.4517 148.895 78.1069 148.011 78.2434C147.623 78.3009 147.415 78.854 147.479 78.969C147.58 79.1486 148.018 79.3713 149.563 79.3857C150.741 79.4 150.741 79.4 152.321 80.8799C152.113 80.9877 152.113 80.9877 151.258 81.0021C151.545 81.5121 154.505 83.301 155.288 83.1645C155.295 83.0567 155.295 83.0567 155.159 82.9202C155.087 82.8484 155.087 82.8484 154.132 81.0236C155.202 81.5337 155.504 81.7995 155.978 82.4461C156.071 82.5754 156.136 82.6688 156.208 82.6688C156.603 82.6831 157.666 81.5481 157.487 81.1529C157.091 80.2909 155.906 79.9676 155.906 78.8397C155.913 77.8914 157.479 77.9417 157.494 77.9489Z" fill="#B42323"/>
<path d="M145.245 66.5622C145.274 66.6053 145.568 66.5765 145.812 66.5191C145.863 66.5047 145.949 66.4903 145.963 66.476V66.4688C145.956 66.4688 145.942 66.4616 145.927 66.4688C145.82 66.4688 145.266 66.5262 145.245 66.5622Z" fill="#B42323"/>
<path d="M168.32 78.7247L169.046 78.8253C169.046 78.8253 169.247 78.8109 169.34 78.696C169.398 78.6241 169.383 78.5595 169.369 78.502C169.34 78.3799 169.232 78.3009 169.189 78.1931C169.168 78.1213 169.182 78.071 169.189 78.035C169.189 78.0279 169.197 78.0135 169.189 78.0063C169.189 78.0063 169.125 77.9201 168.873 77.8626C168.55 77.8195 167.508 78.0207 167.875 78.4733C167.961 78.581 168.119 78.696 168.32 78.7247Z" fill="#B42323"/>
<path d="M156.423 70.6641C156.431 70.6641 156.438 70.6569 156.445 70.6569C156.409 70.5276 155.568 69.917 154.836 69.7805C154.189 69.6655 154.239 70.1469 154.34 70.3121C154.663 70.8509 156.409 70.6641 156.423 70.6641Z" fill="#B42323"/>
<path d="M152.788 65.8295C152.573 65.8367 152.206 65.8582 152.12 65.8798C152.156 65.887 152.185 65.887 152.214 65.887C152.544 65.8941 152.839 66.0235 152.839 66.0235C152.774 66.124 152.63 66.0666 152.566 66.1671C152.587 66.2318 153.169 66.2031 153.212 66.1959C153.428 66.16 154.203 65.8582 154.239 65.7505C154.168 65.7002 154.081 65.7433 154.01 65.7145C154.124 65.6068 154.283 65.6714 154.405 65.5996C154.39 65.5924 154.39 65.5924 154.347 65.5852C153.751 65.5709 152.932 65.6499 152.824 65.6786C152.932 65.7505 153.068 65.7074 153.176 65.7576C153.183 65.8079 153.104 65.8223 152.788 65.8295Z" fill="#B42323"/>
<path d="M149.232 67.7475C149.074 67.7906 149.017 67.8122 149.175 67.999C149.304 68.1642 149.764 68.2145 150.245 68.0349C150.518 67.9271 151.1 67.6398 150.913 67.5535C150.892 67.5464 150.856 67.5392 150.827 67.5392C150.446 67.5104 149.304 67.7331 149.232 67.7475Z" fill="#B42323"/>
<path d="M156.157 66.6125C156.157 66.6053 156.15 66.5982 156.15 66.5982C156.136 66.591 156.114 66.591 156.1 66.591C156.086 66.591 156.064 66.591 156.05 66.591C155.748 66.5766 155.446 66.591 155.145 66.5766C154.8 66.5622 154.448 66.5119 154.103 66.4976C153.851 66.4904 153.701 66.4904 153.643 66.4976C153.722 66.5479 154.692 66.7203 155.231 66.7562C155.504 66.7706 155.633 66.7706 156.05 66.6556C156.086 66.6413 156.122 66.6269 156.157 66.6125Z" fill="#B42323"/>
<path d="M153.708 66.2892C153.715 66.2964 153.715 66.2964 153.715 66.3036C153.823 66.3251 154.9 66.2676 155.216 66.2317C155.353 66.2174 155.389 66.203 155.41 66.1527C155.432 66.0952 155.331 66.088 155.346 66.0306C155.353 66.0018 155.382 65.9803 155.374 65.9515C155.374 65.9515 155.374 65.9444 155.374 65.9372C155.374 65.9372 155.367 65.9156 155.346 65.8941C155.303 65.8653 155.281 65.8653 155.216 65.8582C155.18 65.8582 155.116 65.8653 155.044 65.8869C154.785 65.9587 154.57 66.1455 154.29 66.1527C153.938 66.1599 153.823 66.1671 153.708 66.2892Z" fill="#B42323"/>
<path d="M156.395 65.6425C157.178 65.542 157.185 65.542 157.199 65.5204C157.178 65.5132 157.149 65.5132 157.127 65.5061C157.12 65.5061 156.38 65.4845 156.15 65.5132C155.892 65.542 155.942 65.6497 155.942 65.6497C155.978 65.6928 156.157 65.6713 156.395 65.6425Z" fill="#B42323"/>
<path d="M157.939 65.8366C158.255 65.8509 158.349 65.8581 158.435 65.93C158.428 65.9371 158.421 65.9515 158.413 65.9587C158.313 65.9802 158.205 65.9802 157.896 65.9731C157.041 65.9443 156.811 65.9659 156.754 65.9802C156.546 66.0305 156.452 66.2245 156.517 66.282C156.538 66.2963 156.538 66.2963 157.077 66.3323C157.293 66.3466 157.487 66.4616 157.702 66.4616C158.241 66.4616 158.751 66.2892 159.283 66.2461C159.613 66.2173 159.944 66.2963 160.274 66.2532C160.296 66.2532 160.332 66.2389 160.346 66.2317C160.339 66.2101 160.339 66.2101 160.145 66.0952C160.145 66.088 160.145 66.0808 160.145 66.0736C160.202 66.0593 160.26 66.0593 160.317 66.0521C160.777 66.009 160.784 65.9946 160.806 65.9515C160.77 65.9228 160.712 65.9228 160.691 65.8797C160.784 65.815 160.935 65.8437 160.957 65.6857C161.079 65.6139 161.222 65.6282 161.337 65.5492C161.309 65.542 161.28 65.5276 161.251 65.5205C160.734 65.4702 158.773 65.5133 158.564 65.5636C158.65 65.6139 158.751 65.5995 158.844 65.6139C158.679 65.6785 158.291 65.6354 158.126 65.6139C157.558 65.5492 157.185 65.7575 157.185 65.7575C157.228 65.8078 157.867 65.8366 157.939 65.8366Z" fill="#B42323"/>
<path d="M150.892 68.3581C150.935 68.3725 155.928 69.5722 157.652 68.7532C158.119 68.5305 157.285 68.1785 157.271 68.1785C156.833 68.0133 154.405 67.9989 153.895 68.0205C153.435 68.042 153.255 67.5607 153.37 67.4888C153.42 67.4601 153.492 67.4601 153.657 67.4673C154.512 67.5248 154.218 67.1368 154.132 67.1081C153.93 67.0219 153.715 67.0865 153.514 67.0434C153.277 66.9931 153.083 66.8279 152.846 66.7704C152.774 66.7561 152.537 66.7058 152.379 66.6914C152.242 66.6986 151.725 66.9572 151.696 67.0578C151.797 67.0865 151.804 67.0937 152.02 67.0937C152.264 67.0937 152.594 67.0937 152.645 67.1584C152.738 67.2805 152.178 67.6325 152.156 67.6469C151.84 67.7834 151.481 67.7475 151.179 67.9199C150.583 68.2575 150.755 68.315 150.892 68.3581Z" fill="#B42323"/>
<path d="M142.831 66.9644H142.838C142.838 66.9644 142.838 66.9644 142.831 66.9644C142.659 66.9859 141.172 67.2661 141.085 67.3307C141.143 67.3523 141.208 67.3738 142.831 66.9644Z" fill="#B42323"/>
<path d="M134.067 69.7087C134.067 69.7159 134.074 69.7302 134.081 69.7446C134.11 69.7518 134.146 69.7518 134.175 69.7374C134.663 69.6081 135.123 69.3854 135.611 69.2489C136.495 69.0047 137.4 68.861 138.277 68.5952C138.478 68.5305 138.478 68.5305 138.823 68.2216C138.823 68.2072 138.823 68.1857 138.823 68.1713C138.557 68.1354 138.313 68.2431 138.061 68.2862C138.291 68.1929 138.291 68.1929 138.37 68.0779C138.363 68.0707 138.356 68.0564 138.349 68.0492C138.32 68.0492 138.284 68.042 138.255 68.042C137.257 68.0995 137.257 68.0995 132.3 69.9098C131.869 70.0679 131.524 70.19 131.05 70.6714C131.057 70.6785 131.071 70.6929 131.078 70.7001C132.149 70.5995 133.068 70.0392 134.067 69.7087Z" fill="#B42323"/>
<path d="M140.741 67.9487C140.834 67.9918 141.2 67.9271 141.552 67.8697C142.975 67.6182 143.679 67.5751 143.679 67.5679C144.117 67.5536 144.548 67.5895 144.986 67.532C145.331 67.4817 146.703 67.101 146.71 67.101C146.976 67.0291 146.998 67.0076 147.034 66.9789C146.883 66.9142 146.675 66.9501 146.667 66.9501C146.265 67.022 145.877 67.1872 145.475 67.259C146.035 66.9932 146.639 66.8352 147.192 66.5478C147.177 66.5478 147.156 66.5406 147.149 66.5334C147.134 66.5334 145.511 66.7562 145.403 66.9358C145.324 67.0651 145.015 67.3524 143.873 67.2303C143.873 67.2231 143.866 67.2087 143.858 67.2016C143.894 67.18 143.937 67.1585 143.973 67.1369C143.988 67.1297 144.002 67.1225 144.009 67.1154C144.21 67.0076 144.728 67.0866 144.606 66.7921C144.577 66.7849 141.287 67.1585 141.121 67.5392C141.136 67.5536 141.136 67.5536 142.745 67.2806C142.529 67.453 142.249 67.4458 142.005 67.532C142.041 67.5464 142.048 67.5464 142.443 67.4889C142.551 67.4746 142.745 67.4386 143.133 67.4386C142.752 67.5392 141.567 67.7116 140.913 67.7691C140.683 67.7835 140.633 67.8984 140.741 67.9487Z" fill="#B42323"/>
<path d="M130.46 72.1728C130.647 72.2949 130.87 72.1728 131.057 72.2446C131.064 72.259 131.071 72.2734 131.071 72.2877C130.898 72.4961 130.618 72.5607 130.417 72.7331C130.647 72.8193 132.838 72.6397 134.21 72.1584C134.656 72.0004 134.835 71.9357 135.051 71.9285C135.058 71.9429 135.072 71.9573 135.08 71.9644C134.929 72.1009 134.929 72.1009 134.907 72.1369C134.965 72.259 135.633 72.6613 135.633 72.6685C136.387 72.6757 136.387 72.6757 137.299 72.1728C137.328 72.1512 137.335 72.1512 137.343 72.144C137.278 72.1081 137.278 72.1081 136.531 72.2231C136.674 72.0291 137.508 71.7561 137.953 71.9429C138.111 72.0075 138.147 72.0075 138.219 71.986C138.226 71.986 138.672 71.792 138.715 71.4903C138.434 71.167 138.42 70.7216 138.693 70.5564C138.93 70.4127 141.014 69.1339 141.028 68.9759C140.97 68.9184 140.906 68.8825 140.841 68.8322C140.841 68.8035 140.841 68.7747 140.841 68.7532C140.834 68.7532 140.827 68.7604 140.82 68.7604C139.943 69.0908 139.203 69.7302 138.262 69.9026C138.298 69.5506 138.672 69.565 138.851 69.3638C138.837 69.3494 138.815 69.3207 138.808 69.2992C138.456 69.3063 138.118 69.45 137.766 69.4069C137.91 69.292 138.097 69.2561 138.233 69.1267C138.226 69.1124 138.219 69.098 138.212 69.0836C137.73 69.0621 137.278 69.292 136.797 69.2992C137.184 69.0334 137.673 69.019 138.082 68.8035C137.809 68.7388 133.564 69.7589 133.499 70.2043C133.535 70.2403 133.578 70.2834 133.607 70.3265C133.499 70.4127 133.499 70.4199 132.996 70.5204C132.163 70.6929 132.105 70.7647 132.069 70.8653C132.098 70.894 132.148 70.9228 132.192 70.9228C132.601 70.9802 133.003 70.8365 133.413 70.8868C133.7 70.9228 133.93 71.1383 134.225 71.1742C133.614 71.3754 132.896 71.3466 132.594 71.3322C130.625 71.2388 130.166 71.9788 130.46 72.1728Z" fill="#B42323"/>
<path d="M144.591 82.0796C144.706 81.9431 144.548 81.9 144.419 81.8784C144.412 81.8784 143.858 81.7922 143.664 81.9072C143.399 82.0724 143.327 82.4173 143.384 82.5106C143.528 82.7405 144.44 82.2592 144.591 82.0796Z" fill="#B42323"/>
<path d="M144.692 79.4288C144.721 79.4288 144.8 79.4145 144.85 79.3714C144.95 79.2708 144.929 79.0409 144.886 78.9547C144.807 78.8038 144.677 78.6889 144.613 78.538C144.498 78.2722 144.491 77.9705 144.333 77.719C144.311 77.6831 144.275 77.6328 144.246 77.6041C144.074 77.3958 143.801 77.3239 143.629 77.1084C143.521 76.9719 143.585 76.7779 143.471 76.6486C143.456 76.6342 143.427 76.6271 143.406 76.6199C143.176 76.6486 142.17 77.3527 142.127 77.3814C141.998 77.4748 141.825 77.6041 141.703 77.7047L140.547 78.6386C140.97 78.8254 140.97 78.8254 140.927 79.0625C140.87 79.357 140.87 79.357 140.913 79.3642C140.978 79.3714 141.129 79.3211 141.437 79.2061C141.883 79.0337 142.63 78.7535 143.334 78.9188C143.808 79.0265 144.175 79.4288 144.692 79.4288Z" fill="#B42323"/>
<path d="M142.659 80.8871C142.652 80.8871 141.61 80.7506 141.208 80.8871C140.97 80.9661 140.798 81.3684 140.877 81.4762C141.028 81.6989 142.501 81.4043 142.838 81.1385C142.946 81.0667 143.004 80.9517 142.659 80.8871Z" fill="#B42323"/>
<path d="M117.148 134.76C116.724 134.782 116.732 135.436 116.933 135.594C117.069 135.701 117.96 136.219 118.082 135.816C118.154 135.572 117.666 134.825 117.148 134.76Z" fill="#B42323"/>
<path d="M197.257 92.0151C197.264 91.9936 197.286 91.9577 197.286 91.9361C197.257 91.7709 197.121 91.426 196.891 91.2177C196.848 91.1818 196.797 91.1387 196.754 91.1099C196.388 90.8585 195.921 90.801 195.576 90.4993C195.332 90.2838 195.224 89.9317 194.872 89.8312C194.448 89.7881 194.024 89.824 193.601 89.7737C193.191 89.7306 192.803 89.5654 192.386 89.5654C192.121 89.5582 192.185 89.9174 191.963 89.9605C191.718 90.0036 191.589 89.7162 191.352 89.7593C191.316 89.7665 191.266 89.7809 191.23 89.7881C191.036 90.097 191.201 90.5855 190.734 90.7579C190.641 90.6717 190.03 89.6731 189.98 89.3498C189.872 88.6314 188.651 87.7765 188.162 87.949C188.162 88.2938 188.557 88.3584 188.651 88.6458C188.385 89.0553 187.882 88.7967 187.559 89.0337C187.652 89.1631 188.098 89.2564 188.356 89.2924C188.802 89.3642 189.973 90.291 189.017 90.643C189.197 91.1459 189.736 90.9591 190.059 91.189C190.397 91.426 190.353 91.5625 190.238 91.893C190.303 92.0008 190.361 92.0582 191.136 92.2378C191.647 92.36 191.812 92.4031 191.97 92.4677C192.322 92.6186 192.595 92.8916 192.947 93.0424C192.99 93.0568 193.047 93.0855 193.091 93.0999C193.22 93.143 193.392 93.2005 194.47 93.3082C195.44 93.4016 197.157 92.8916 197.185 92.5827C197.214 92.3815 197.092 92.1947 197.099 91.9936C197.149 91.972 197.149 91.972 197.257 92.0151Z" fill="#B42323"/>
<path d="M118.923 133.589C119.131 134.236 121.523 135.277 121.667 135.012C121.746 134.861 119.871 130.134 119.849 130.105C119.605 129.767 118.865 128.747 116.926 128.474C115.798 128.453 114.849 128.891 114.835 128.912C114.921 129.085 115.733 129.236 116.502 129.099C117.594 128.898 118.096 129.401 118.096 129.588C118.017 129.66 117.845 129.746 117.615 129.48C117.601 129.48 117.586 129.487 117.572 129.494C117.457 129.947 118.118 130.385 118.556 130.672C119.368 131.211 119.361 131.42 119.347 132.045C119.339 132.361 119.339 132.548 119.44 132.849C119.512 133.058 119.562 133.208 119.54 133.309C119.454 133.611 119.124 133.474 118.923 133.589Z" fill="#B42323"/>
<path d="M121.775 137.972C121.976 138.202 121.61 138.604 121.962 138.762C122.565 139.042 122.795 138.173 123.348 138.309C123.413 138.324 123.463 138.345 123.643 138.446C124.541 138.949 126.186 139.581 126.193 139.581C126.279 139.595 126.337 139.602 126.365 139.523C126.48 139.25 126.33 138.934 126.502 138.676C127.041 137.857 122.615 135.86 122.307 135.809C122.227 135.802 122.213 135.809 122.17 135.824C122.148 135.888 122.148 135.888 122.192 135.974C122.644 136.829 122.17 137.483 122.127 137.505C122.012 137.548 121.667 137.361 121.2 137.102C120.331 136.628 120.23 136.628 120.173 136.621C120.18 136.643 120.173 136.671 120.187 136.686C120.625 137.217 121.315 137.447 121.775 137.972Z" fill="#B42323"/>
<path d="M149.764 98.5024C149.318 98.5096 150.058 99.2639 150.216 99.4148C151.2 100.385 151.825 99.9249 151.825 99.9249C152.084 99.6519 150.216 98.5886 149.764 98.5024Z" fill="#B42323"/>
<path d="M109.562 83.2364C109.576 83.222 109.591 83.2148 109.605 83.2004C109.598 83.2076 109.591 83.2076 109.584 83.2148L109.562 83.2364Z" fill="#B42323"/>
<path d="M100.331 93.3659C94.5115 100.464 90.51 110.665 90.51 110.665V112.655C90.6752 112.741 90.6752 112.741 91.5014 119.796C91.2931 119.724 91.0129 119.638 90.7974 119.573C90.8908 120.443 92.306 124.703 92.3204 124.739C92.6796 124.48 93.046 124.207 92.4497 122.095C92.1767 121.132 91.8678 120.047 92.3132 115.478C93.283 116.886 93.1968 117.555 93.0962 118.402C93.0244 119.006 92.9382 119.688 93.046 120.17C93.2759 121.204 93.6638 122.188 93.9368 123.216C94.2888 124.537 95.3305 125.572 95.5316 126.958C95.6969 128.079 95.0144 129.257 95.7831 130.328C95.8836 130.471 96.0776 130.63 96.2141 130.744C96.4656 130.96 96.7529 131.29 97.0259 131.47C97.9742 132.109 98.9943 132.648 99.957 133.273C100.941 133.913 102.306 133.697 103.147 134.667C105.079 136.894 105.079 136.894 105.898 137.282C106.02 137.339 106.186 137.418 106.3 137.483C109.907 139.344 109.828 144.602 114.038 145.91C116.969 143.475 116.811 147.577 116.61 149.452C116.545 150.041 116.545 150.041 114.699 151.966C114.677 152.002 112.22 155.759 112.385 156.679C112.414 156.83 112.443 157.031 112.479 157.182C113.132 159.682 116.789 167.182 116.818 167.239C117.773 168.899 119.526 169.818 120.604 171.363C121.423 172.534 121.703 174.373 121.387 176.536C121.372 176.636 120.137 187.01 122.026 193.576C124.419 201.902 129.261 202.772 129.304 202.779C125.69 198.957 125.69 198.957 126.76 197.24C126.38 196.371 126.38 196.371 126.337 192.779C126.538 192.786 126.538 192.786 127.357 193.102C127.378 193.009 127.378 193.009 126.868 191.263C127.881 190.846 127.881 190.846 128.018 190.279C128.111 190.25 128.14 190.236 128.233 190.207C129.469 191.141 130.338 190.157 130.166 189.51L129.965 188.806C133.111 189.819 137.084 182.75 137.12 182.671C137.903 181.866 139.282 181.708 139.835 181.679C141.1 181.607 141.574 180.314 142.601 179.883C143.061 179.689 143.384 179.79 143.636 179.919C144.074 180.142 144.103 180.156 144.318 179.747C144.778 178.849 145.022 177.865 145.403 176.938C145.611 176.413 145.496 175.767 146.028 175.372C146.646 174.919 146.876 174.747 146.725 174.251C146.696 174.158 146.682 174.028 146.689 173.935C149.627 173.899 151.545 171.406 151.56 171.377C151.574 171.349 151.588 171.306 151.596 171.27C151.646 170.939 151.473 170.623 151.524 170.285C151.603 169.783 152.451 169.366 151.962 168.856C151.617 168.489 151.093 168.662 150.705 168.425C149.448 167.649 148.973 166.155 147.817 165.3C146.085 164.021 144.203 162.972 142.414 161.794C141.423 160.975 141.782 159.617 141.344 158.611C140.417 157.404 139.965 155.824 138.966 154.667C137.651 153.159 135.525 152.764 134.246 151.212C133.233 149.976 132.838 148.353 131.689 147.203C131.523 147.038 131.265 146.844 131.057 146.736C124.742 143.388 119.749 140.745 117.299 145.824C115.812 143.719 109.95 144.164 111.574 141.039C112.558 139.15 112.22 137.39 112.213 137.383C110.941 136.061 109.088 136.319 107.565 135.666C108.678 134.143 108.678 134.143 108.585 133.216C109.813 131.872 109.813 131.872 110.561 130.529C110.359 130.17 108.499 127.16 105.884 132.828C105.007 132.454 103.994 133.51 103.175 132.562C101.257 130.342 101.049 128.309 101.099 127.289C101.164 126.032 102.428 125.479 102.787 124.394C103.01 123.704 102.206 123.043 102.723 122.346C103.398 121.441 105.941 120.184 106.502 120.004C107.5 119.674 110.309 121.434 110.323 121.455C110.431 121.42 110.568 121.362 110.676 121.326C110.532 120.989 110.216 120.78 110.029 120.478C110.086 120.385 110.158 120.263 110.216 120.17C110.949 120.033 115.941 121.312 115.956 121.333C117.644 123.172 115.352 125.644 116.94 127.497C120.158 125.845 117.163 122.318 118.456 119.968C119.799 117.54 122.587 117.849 124.612 116.7C124.584 116.685 124.577 116.685 124.577 116.685C124.541 116.592 124.49 116.463 124.447 116.369C124.49 116.276 124.548 116.161 124.591 116.075C124.692 116.082 124.821 116.089 124.921 116.089C124.972 115.981 125.036 115.838 125.087 115.73C125.008 115.665 124.907 115.579 124.828 115.514L126.969 110.945C126.761 111.656 126.013 113.79 126.006 113.79C126.279 113.725 126.279 113.725 127.572 110.679C127.63 111.075 127.838 111.441 127.781 111.85C128.463 111.269 128.657 110.263 129.534 109.853C129.555 109.839 132.874 109.307 133.075 109.393C134.196 107.037 134.196 107.037 136.014 106.24C136.243 106.333 136.243 106.333 141.028 105.428C140.956 105.5 140.87 105.593 140.798 105.658C140.978 105.809 141.243 105.981 141.466 106.053C141.43 106.153 141.38 106.297 141.344 106.398C138.47 107.224 138.47 107.224 138.269 107.691C139.821 108.266 145.597 107.159 145.504 104.702C144.685 104.911 144.376 105.715 143.772 106.175C143.312 105.852 142.932 105.586 142.623 105.363C142.996 105.414 143.384 105.133 143.391 105.126C143.399 105.119 143.399 105.112 143.406 105.112C143.406 105.105 143.406 105.105 143.406 105.097C143.377 105.083 143.37 105.076 143.269 105.062C142.616 104.939 142.314 104.681 142.213 104.573C141.962 104.314 141.976 104.113 142.091 103.869C142.134 103.776 142.12 103.761 142.113 103.747C142.106 103.747 142.098 103.747 142.091 103.754C142.041 103.79 141.674 104.214 141.725 104.638C141.229 104.142 141.229 103.804 141.251 103C140.762 102.597 140.741 102.54 140.604 102.159C141.531 102.224 142.192 102.274 142.666 101.491C142.386 100.916 142.386 100.916 135.065 102.561C140.705 99.7166 140.705 99.7166 145.396 99.9177C146.129 100.916 151.222 100.291 152.307 99.3215C152.278 98.7252 152.278 98.7252 152.86 98.0643C152.838 97.9206 152.831 97.8559 152.81 97.7194C152.479 97.5183 152.149 97.3099 151.811 97.1088C151.517 97.001 151.509 97.001 151.509 97.001C151.294 96.9507 150.626 96.7855 149.232 97.1303C149.225 97.0298 149.211 96.9004 149.203 96.7999C149.728 96.4263 149.907 96.4191 151.373 96.376H151.387C151.466 96.3688 151.581 96.3545 151.639 96.3042C151.746 96.1749 151.05 94.9608 149.677 94.8458C149.369 94.8171 149.369 94.8171 149.239 94.7165C149.239 94.4435 149.527 94.2423 149.433 93.9478C149.304 93.5455 148.808 93.4665 148.679 93.057C148.629 92.8846 148.736 92.7912 149.017 92.5972C149.426 92.3098 149.426 92.3098 149.203 91.0095C148.636 87.748 148.636 87.748 147.386 88.9118C147.192 89.0914 147.407 89.429 147.134 89.5799C146.825 89.7523 146.509 89.3859 146.2 89.5943C145.496 90.0756 145.496 90.0756 145.346 90.0756C144.426 90.0397 144.081 89.156 143.42 88.7465C143.37 88.4736 144.175 87.0942 144.742 86.8931C144.368 86.6057 143.851 86.6488 143.485 86.3471C143.399 86.2752 143.363 86.189 143.305 85.916C143.284 85.8226 143.248 85.6071 142.321 84.8959C142.113 84.7379 142.062 84.7235 141.876 84.6804C140.834 84.6014 139.886 84.0338 138.815 84.0913C138.672 85.0396 137.307 85.4491 137.716 86.6344C137.422 87.0152 136.804 86.9649 136.595 87.4606C136.351 88.0353 136.825 88.5957 136.646 89.1704C136.639 89.192 135.877 91.4909 134.455 91.3328C134.146 91.2969 133.413 91.2753 133.384 91.8069C133.291 91.8644 133.248 91.886 132.91 91.9937C132.098 93.1935 132.386 95.1547 130.511 95.672C130.295 94.7811 129.526 94.2783 129.038 93.5814C129.756 92.669 129.742 92.2308 129.713 91.6848C129.842 91.6417 130.065 91.5555 130.194 91.5124C130.194 91.4478 130.252 91.34 130.259 91.2825C130.151 91.225 130 91.1604 129.886 91.1245C129.476 90.3055 128.535 90.5857 127.931 90.169C127.314 89.7451 127.213 88.9333 126.638 88.4807C126.538 88.4017 126.401 88.3083 126.294 88.2508C125.733 87.9419 125.158 88.2293 124.591 88.1934C124.462 87.985 124.462 87.985 124.713 86.5482C124.799 86.0453 124.799 86.0454 123.714 85.564C123.966 84.0338 128.413 82.6545 130.309 82.0654C130.295 81.541 129.72 81.5697 129.512 81.2392C132.623 81.7493 132.623 81.7493 134.914 80.5567C133.715 80.3556 133.463 80.3125 132.723 79.4648C133.952 79.4576 135.116 80.6358 136.387 79.6515C136.322 79.5653 136.207 79.472 136.107 79.4288C136.114 79.4217 136.883 78.9619 137.328 79.5222C139.469 79.5007 139.469 79.5007 140.123 79.2421C140.266 79.1846 140.446 79.084 140.561 78.9906C140.884 78.7176 140.676 78.2291 140.985 77.9489C141.265 77.6903 141.653 77.8627 141.962 77.7047C142.141 77.5897 142.235 77.3958 142.386 77.2521C142.371 77.2305 141.351 75.0394 140.001 77.1587C138.815 77.3814 137.299 79.436 136.48 77.9489C136.832 77.2736 138.435 77.3239 138.011 76.3828C137.149 76.4044 136.574 77.0653 135.834 77.3598C135.834 76.9288 136.962 76.1888 136.976 76.1817C136.94 76.1529 136.94 76.1529 136.272 75.8871C138.118 74.4 138.118 74.4 138.205 74.1701C138.169 74.1127 138.111 74.0336 138.075 73.9762C139.117 73.1715 139.117 73.1715 142.91 72.4244C142.702 72.3238 142.702 72.3238 142.328 72.2592C139.605 71.9646 134.548 75.492 134.505 75.5279C134.512 75.5926 134.519 75.6716 134.526 75.7362C134.792 75.8296 135.08 75.8656 135.353 75.9446C135.345 75.9949 135.338 76.0667 135.338 76.1242C134.684 76.2032 134.577 76.2248 134.232 76.3756C134.182 76.5049 134.182 76.5049 134.182 76.5049C134.225 76.5337 134.289 76.5696 134.332 76.5983C133.47 77.3311 132.192 77.2305 131.394 78.0926C131.136 77.5251 131.136 77.5251 132.192 76.9719C131.789 76.7061 131.789 76.7061 129.957 77.3311C129.857 77.367 129.275 77.5035 127.529 76.7995C127.472 76.5911 127.572 76.3756 127.508 76.1673C125.949 76.0308 125.23 76.7133 123.801 78.0711C123.794 77.5969 124.282 77.3814 124.375 76.9647C123.556 76.8139 122.709 77.2305 121.911 76.8067C122.378 76.5911 122.975 76.6558 123.312 76.1601C123.262 76.0883 123.255 76.0739 123.212 76.0021C122.989 76.038 122.953 76.0452 122.429 75.7937C122.4 75.686 122.342 75.5423 122.285 75.4417C121.868 75.3842 121.531 75.6429 121.15 75.7434C121.243 75.6572 121.38 75.5495 121.487 75.4848C121.222 75.5638 121.222 75.5638 120.762 75.7722C121.071 75.4633 121.071 75.4633 121.847 74.9891L120.582 75.4633C120.582 75.4633 113.801 79.7378 111.078 82.166C107.967 84.9031 105.065 87.5899 100.331 93.3659Z" fill="#B42323"/>
<path d="M127.687 140.436C127.235 140.558 127.544 141.197 127.96 141.427C128.262 141.592 129.332 141.808 129.411 141.722C129.455 141.679 129.419 141.528 128.751 141.025C128.003 140.472 127.874 140.457 127.687 140.436Z" fill="#B42323"/>
<path d="M204.326 111.225C204.556 111.175 204.779 111.089 205.016 111.06C205.289 111.024 205.576 111.218 205.842 111.031C205.993 110.924 206.072 110.579 206.065 110.004C206.065 109.71 206.007 109.516 205.95 109.3C205.856 108.948 205.885 108.84 206.115 108.582C206.216 108.474 206.381 108.294 206.402 108C206.424 107.712 206.287 107.454 206.165 107.296C206.108 107.217 206.014 107.116 205.943 107.037C205.741 106.843 205.504 106.692 205.31 106.505C205.167 106.362 205.124 106.283 205.109 106.24C205.095 106.211 205.095 106.204 205.073 106.197C205.002 106.189 203.32 106.031 204.104 106.915C204.154 106.972 204.183 107.001 204.312 107.066C204.262 107.087 204.19 107.095 204.139 107.102C203.385 107.188 203.184 107.288 202.983 107.389C202.839 107.461 202.66 107.605 202.609 107.899C202.616 108.014 202.616 108.172 202.825 108.388C202.99 108.553 203.22 108.589 203.407 108.718C203.392 108.732 203.378 108.754 203.364 108.768C202.925 109.178 202.401 110.076 202.401 110.09C202.2 110.457 202.157 110.643 202.229 110.852C202.351 111.189 203.414 111.441 204.326 111.225Z" fill="#B42323"/>
<path d="M212.875 134.387C212.947 134.408 212.997 134.387 213.062 134.358C213.069 134.358 213.471 134.135 213.471 134.121C213.536 134.013 213.371 133.841 213.026 133.676C212.653 133.503 212.006 133.367 212.15 133.733C212.236 133.934 212.66 134.322 212.875 134.387Z" fill="#B42323"/>
<path d="M207.947 110.033C207.875 110.018 207.875 110.062 207.868 110.133L208.321 110.335C208.112 110.126 208.026 110.054 207.947 110.033Z" fill="#B42323"/>
<path d="M225.325 120.795C226.13 121.815 226.697 122.864 227.02 124.006C226.633 122.203 226.173 119.789 225.72 118.007C223.565 110.909 223.529 110.773 221.927 107.109L220.16 103.373L220.153 103.359C220.081 103.23 220.016 103.1 219.937 102.971C220.002 103.172 220.023 103.251 220.749 104.832C220.584 104.638 220.461 104.422 220.318 104.214C220.433 104.911 220.892 105.442 221.187 106.053C221.151 106.06 221.094 106.075 221.058 106.089C219.693 103.855 218.723 101.412 217.336 99.1994C218.091 100.14 218.536 101.297 219.42 102.145C219.334 101.606 217.286 98.0427 215.77 96.1964C214.678 94.8746 214.578 94.6806 214.477 94.4938C214.549 94.5441 214.635 94.6231 214.7 94.6878C214.592 94.5154 214.527 94.4148 214.226 94.0484C214.19 94.0628 214.14 94.0772 214.096 94.0915C213.989 93.9981 213.788 93.8257 213.083 92.8774C213.155 92.9349 213.249 93.0139 213.328 93.0714C213.299 92.6475 211.877 91.2754 211.769 91.1963C211.776 91.4191 211.776 91.419 211.948 91.8501C211.431 91.4406 211.352 90.715 210.842 90.2983C210.856 90.6073 211.108 90.83 211.129 91.1389C210.756 91.534 210.756 91.534 210.691 91.8285C210.598 92.2739 211.115 95.1548 211.122 95.1763C211.589 97.0944 211.359 97.6261 211.331 97.6835C210.627 99.0701 210.627 99.0701 209.621 99.3574C209.254 99.4652 209.226 99.5729 209.247 100.004C209.247 100.061 209.628 105.809 211.92 105.586C212.652 105.514 212.71 104.358 212.731 103.797C212.854 103.97 215.145 108.718 215.418 110.054C215.548 110.694 215.67 111.29 216.209 111.484C216.388 111.326 216.927 109.961 216.812 109.2C216.539 107.468 216.776 107.36 217.3 107.138C217.437 106.793 217.444 106.649 216.654 105.608C216.108 104.889 216.108 104.889 215.691 103C215.533 102.281 216.402 101.75 216.058 100.995C215.16 99.027 215.16 99.027 215.145 98.9264C215.138 98.8617 215.138 98.7827 215.131 98.718C215.167 98.6893 215.21 98.6606 215.239 98.6318C215.706 98.991 217.049 100.773 217.056 101.175C217.013 101.168 216.948 101.146 216.905 101.139C217.2 104.659 217.2 104.659 218.069 106.319C218.823 107.763 220.591 108.201 221.359 109.638C221.173 109.544 221.051 109.379 220.892 109.243C220.849 109.25 220.799 109.264 220.756 109.271C220.778 109.429 220.828 109.58 220.864 109.738C220.275 109.315 219.743 108.812 219.096 108.481C219.484 109.774 220.282 110.917 220.454 112.282C219.729 111.994 220.052 110.909 219.24 110.694C219.204 110.723 219.154 110.758 219.118 110.787C219.118 110.802 219.434 112.741 219.492 112.892C219.556 113.086 219.887 114.07 219.729 114.394C219.29 114.192 219.29 114.192 219.197 114.185C219.082 114.3 219.01 114.451 218.903 114.566C218.917 114.602 218.931 114.659 218.946 114.695L218.931 114.688C216.905 113.812 216.905 113.812 216.819 114.006C216.719 114.027 216.575 114.056 216.467 114.078C216.122 113.675 215.634 113.33 215.102 113.014L216.043 113.546C215.921 113.359 215.584 112.863 214.765 112.619C214.484 112.533 214.42 112.519 213.96 111.362C213.622 110.514 213.285 109.329 213.601 108.531C213.73 108.201 213.723 106.606 213.364 106.434C213.321 106.419 212.243 106.031 212.243 106.62C212.243 106.872 212.775 109.774 213.356 111.254C213.594 111.85 213.594 111.922 213.594 111.951C213.522 111.987 213.507 111.994 213.198 111.951C212.983 111.915 212.688 111.865 212.473 111.822C211.905 111.024 211.115 110.406 210.684 109.508C210.461 109.049 210.368 108.531 210.037 108.122C209.477 107.404 208.845 107.08 208.522 106.944C208.522 106.944 208.514 106.944 208.514 106.937C209.068 106.707 210.282 105.04 209.161 104.595C208.96 104.516 208.716 104.465 208.55 104.429C207.796 104.271 207.66 104.243 207.724 104.056C207.846 103.675 208.737 103.194 208.22 102.978C208.206 102.971 206.797 102.504 206.41 102.935C206.374 102.978 206.374 103.05 206.366 103.107C206.28 103.574 206.46 104.041 206.374 104.508C206.302 104.896 205.899 105.133 205.914 105.557C206.014 105.636 206.259 105.694 206.884 105.493C207.114 105.421 207.315 105.356 207.408 105.464C207.818 105.924 207.035 106.268 207.07 106.728C207.142 107.662 207.516 107.921 207.997 108.244C208.744 108.754 208.845 108.812 208.96 108.977C208.938 109.121 208.816 109.228 208.845 109.379C208.931 109.853 209.226 110.256 209.276 110.744C209.233 111.211 208.795 110.78 208.479 110.464C208.342 110.327 208.342 110.327 207.889 110.133C207.889 110.737 208.4 111.211 208.32 111.836C208.277 112.174 207.925 112.238 207.437 112.289C207.308 112.303 207.106 112.325 207.128 112.475C207.135 112.555 207.25 112.835 208.263 113.158C208.687 113.294 209.571 113.575 209.513 113.869C209.254 113.79 209.111 113.797 208.752 113.797C208.744 113.819 208.744 113.833 208.744 113.905C208.579 113.876 208.486 113.919 208.371 113.963C208.083 114.085 207.947 114.379 207.681 114.523C207.358 114.703 206.977 114.753 206.654 114.925C206.647 114.954 206.639 114.983 206.632 115.011C206.733 115.076 206.754 115.09 207.767 115.306C207.681 115.464 207.573 115.629 207.466 115.737C206.424 115.313 206.302 115.126 205.957 114.624C206 114.868 206.079 115.184 206.151 115.421C206.079 115.514 205.986 115.636 205.921 115.73C205.677 115.744 205.346 115.751 205.102 115.723C204.707 115.213 204.707 115.213 203.881 114.904C203.802 114.983 203.694 115.09 203.622 115.177C203.766 115.428 203.953 115.773 204.103 116.032C203.996 116.06 203.852 116.103 203.744 116.132C208.227 119.257 205.691 123.97 205.648 124.006C203.392 123.029 201.409 121.556 199.19 120.514C199.233 120.752 199.326 121.068 199.419 121.29C199.391 121.348 197.487 127.605 198.198 128.115C197.315 129.94 197.315 129.94 197.214 130.105C198.866 130.543 199.211 130.637 199.843 131.032C199.728 132.21 199.728 132.21 199.736 132.239L203.938 132.311C205.023 132.548 205.749 131.319 205.497 130.234C206.963 127.971 206.999 127.964 208.766 127.9C209.491 125.91 209.491 125.91 209.707 125.831C210.634 125.486 210.856 126.635 211.532 126.872C212.523 126.003 213.277 125.479 213.946 126.635C213.974 126.686 216.065 131.93 216.79 134.883C216.661 135.177 216.561 135.551 216.625 135.709C216.697 135.881 216.977 135.91 216.948 136.161C216.92 136.391 216.762 136.578 216.74 136.808C216.726 136.995 216.841 137.074 216.884 137.102C216.898 137.11 216.927 137.124 216.963 137.131C216.812 137.828 216.316 137.727 214.463 137.347C214.635 138.237 215.569 139.875 215.584 139.883C215.986 139.351 215.813 138.64 216.137 138.079C216.23 138.13 216.359 138.194 216.453 138.237C216.877 137.921 217.164 137.469 217.566 137.131C217.566 137.11 217.566 137.088 217.573 137.074C217.767 137.002 217.954 136.872 218.04 136.643C218.062 136.578 218.084 136.492 218.098 136.42C218.148 136.168 218.134 135.91 218.184 135.658C218.191 135.637 218.191 135.622 218.198 135.608C218.263 135.816 218.335 136.068 218.4 136.255C218.443 135.931 218.464 135.788 218.299 135.256C218.335 135.127 218.378 134.997 218.4 134.868C218.486 134.444 218.357 134.344 218.22 134.279C218.155 134.258 218.055 134.243 217.947 134.243C217.818 133.891 217.66 133.46 217.459 132.914C217.509 132.835 217.581 132.727 217.638 132.634C217.645 132.684 217.653 132.734 217.674 132.778C217.674 132.785 218.005 133.632 218.033 133.661C218.184 133.647 218.414 132.62 218.486 132.066C218.486 132.059 218.543 131.549 218.529 131.276L219.398 133.532C219.405 133.568 219.405 133.568 219.391 138.417L219.7 142.648C219.801 142.447 219.923 142.167 219.994 141.952C220.296 141.082 220.246 140.156 220.375 139.258C220.785 136.341 220.785 136.341 221.122 136.233C221.575 136.506 222.38 137.476 222.315 138.345C222.487 138.194 222.696 137.979 222.832 137.799C222.947 137.828 223.091 137.871 223.199 137.9C224.398 135.536 223.385 132.77 224.564 130.407C224.765 130.407 225.045 130.522 225.189 130.665C225.117 130.745 225.016 130.845 224.937 130.924C225.124 131.398 225.217 131.535 225.505 131.887C225.454 132.361 225.454 132.361 225.102 132.993C225.296 133.474 225.282 133.999 225.426 134.487C226.862 134.214 225.512 132.368 226.216 131.484C226.791 131.556 226.819 131.765 226.826 132.232C226.74 132.311 226.625 132.411 226.539 132.49C226.625 132.857 226.625 132.857 226.518 134.02C226.431 134.085 226.309 134.171 226.216 134.236C226.331 136.664 227.703 138.999 226.733 141.506C226.633 141.528 226.482 141.549 226.374 141.564C225.584 140.515 226.446 138.245 224.614 138.094C224.528 138.288 224.334 138.518 224.147 138.618C223.974 138.482 223.73 138.309 223.543 138.194C223.522 138.396 223.572 138.683 223.666 138.87C223.17 139.064 222.717 138.683 222.236 138.74C222.121 138.956 221.992 139.258 221.92 139.487C222.006 139.552 222.121 139.631 222.207 139.696C221.927 141.025 221.41 143.489 222.509 145.357C222.609 145.307 222.739 145.242 222.839 145.199C222.875 145.091 222.918 144.955 222.947 144.854C223.306 145.457 223.22 146.233 223.687 146.794C223.831 146.621 223.989 146.37 224.082 146.161C224.176 146.355 224.348 146.6 224.513 146.743C223.084 151.636 222.868 152.39 221.884 153.504C221.216 153.202 221.151 153.015 221.165 152.261C220.972 152.196 220.67 152.21 220.49 152.304C218.256 151.327 219.635 148.065 217.25 147.182C216.525 147.821 216.553 148.87 215.957 149.581C215.842 149.588 215.698 149.595 215.584 149.595C215.217 149.057 211.632 142.419 211.474 141.657C211.424 141.42 211.704 141.125 211.898 140.975C212.344 140.623 212.344 140.623 213.119 137.706C212.681 137.131 212.588 137.023 212.308 136.722C211.719 136.908 211.719 136.908 209.951 135.795C209.736 135.895 209.463 136.054 209.276 136.204C207.121 134.351 204.132 136.377 201.948 134.645C201.682 134.523 201.632 134.509 201.589 134.487C200.835 134.38 200.576 134.351 200.138 133.166C200.037 133.022 200.03 133.022 200.023 133.015C199.901 133.065 199.728 133.115 199.613 133.187C198.945 133.597 199.01 134.53 198.356 134.947C197.53 135.464 196.467 135.076 195.669 135.666C195.432 135.838 195.361 136.276 195.246 136.549C194.024 139.516 194.024 139.516 193.076 139.624C192.221 139.725 190.619 140.249 190.382 140.45C189.671 141.018 184.304 145.63 184.304 145.637C183.622 147.131 184.189 148.798 183.687 150.314C183.263 151.593 181.244 151.557 181.301 153.223C181.38 155.723 181.855 158.188 182.128 160.666C182.243 161.708 184.369 165.896 185.001 166.054C188.119 166.83 191.431 166.715 194.398 168.137C194.491 168.181 194.585 168.31 194.635 168.403C195.03 169.064 194.333 169.768 194.714 170.429C195.08 171.076 195.863 171.097 196.395 171.492C196.373 172.829 196.373 172.829 195.468 173.813C192.968 176.55 192.968 176.55 192.853 177.541C192.674 179.107 192.429 181.256 189.046 184.962C187.487 186.665 185.332 187.57 183.572 188.993C181.926 190.315 181.086 192.333 179.513 193.713C173.385 199.101 173.234 199.18 172.408 199.589C171.847 199.862 171.538 200.02 170.777 200.839C172.501 202.118 175.317 201.371 176.237 201.119L179.972 200.063L184.822 198.375C185.985 197.786 186.905 196.802 188.119 196.277C189.506 195.681 191.064 195.703 192.444 195.078C195.741 193.583 199.678 189.704 200.116 189.208C201.891 187.211 206.41 184.79 207.739 184.1C209.851 182.944 213.45 179.23 214.571 177.678C214.226 177.419 214.226 177.419 213.5 177.319C213.421 177.053 213.421 177.053 214.714 174.388C215.196 173.403 215.318 172.311 215.655 171.277C216.532 168.604 217.976 166.147 218.673 163.403L220.907 154.782C220.986 155.098 220.986 155.098 220.734 156.377C220.964 156.291 221.216 156.047 221.352 155.838C220.849 162.757 216.805 168.461 214.786 174.855C215.591 174.776 215.591 174.776 215.878 174.948C219.096 171.636 219.096 171.636 219.362 171.162C219.305 171.27 219.226 171.413 219.168 171.521C219.283 171.327 219.434 171.069 219.542 170.867L219.657 170.652L220.368 169.258C220.684 168.619 221.079 167.821 222.035 165.601C221.984 165.724 221.949 165.831 221.905 165.939C222.688 164.007 223.68 161.593 224.326 159.703C224.894 157.749 225.699 155.149 226.18 153.173C226.295 152.57 226.403 152.016 226.503 151.492C226.575 149.811 226.618 149.552 227.61 143.87C227.61 143.891 227.617 143.927 227.624 143.949C227.99 135.867 227.99 135.867 228.077 135.5C228.084 135.515 228.091 135.529 228.098 135.543C228.127 132.986 228.041 132.074 227.789 129.43L227.049 123.992C226.676 122.914 226.187 121.894 225.325 120.795ZM211.74 111.836C211.776 111.836 211.79 111.843 212.056 112.009C211.927 111.958 211.812 111.915 211.711 111.879V111.872C211.711 111.858 211.726 111.85 211.74 111.836ZM218.371 131.19C218.364 131.204 218.349 131.219 218.342 131.233C218.213 131.463 218.213 131.736 218.127 131.987C218.033 132.26 217.875 132.318 217.767 132.368C217.688 132.404 217.617 132.433 217.595 132.562C217.595 132.569 217.595 132.584 217.595 132.591C216.905 131.937 216.352 131.362 215.727 126.089C215.892 125.96 216.173 125.852 216.388 125.845L218.428 131.14C218.407 131.14 218.392 131.154 218.371 131.19Z" fill="#B42323"/>
<path d="M218.116 175.104C218.116 175.104 218.203 174.923 218.392 174.589C218.587 174.24 218.876 173.747 219.246 173.101C219.629 172.455 220.092 171.642 220.585 170.655C221.091 169.675 221.692 168.557 222.264 167.236C223.501 164.652 224.754 161.371 225.933 157.481C227.091 153.583 228.083 149.039 228.568 143.937C229.053 138.842 229.046 133.202 228.25 127.236C227.41 121.284 225.839 114.991 223.183 108.771C221.866 105.657 220.331 102.543 218.471 99.5307C216.633 96.5113 214.577 93.5281 212.203 90.7192C209.836 87.9102 207.26 85.1811 204.393 82.6988C201.527 80.2092 198.437 77.901 195.151 75.8106C191.836 73.7638 188.412 71.9855 184.931 70.4903C181.449 68.9879 177.874 67.8628 174.32 66.9555C170.766 66.0337 167.191 65.4894 163.673 65.1555C160.155 64.7998 156.689 64.778 153.323 64.9522C146.577 65.2789 140.251 66.6217 134.548 68.4653C128.852 70.3597 123.785 72.8202 119.435 75.484C115.078 78.1478 111.43 81.0294 108.448 83.7802C105.48 86.5457 103.077 89.1151 101.304 91.3579C100.371 92.4466 99.6322 93.4846 98.9736 94.3628C98.3005 95.2338 97.7793 96.0105 97.3668 96.6419C96.947 97.2589 96.6285 97.7307 96.4041 98.0646C96.187 98.3839 96.064 98.5436 96.064 98.5436C96.064 98.5436 96.1581 98.3694 96.368 98.0428C96.5851 97.7089 96.8963 97.2226 97.2944 96.5984C97.6997 95.9597 98.2064 95.1758 98.8723 94.2975C99.5237 93.4047 100.247 92.3595 101.174 91.2563C102.933 88.9917 105.314 86.4005 108.282 83.606C111.264 80.8261 114.904 77.9228 119.276 75.2227C123.64 72.5299 128.714 70.0403 134.439 68.1241C140.172 66.2587 146.527 64.8942 153.308 64.5603C156.696 64.3788 160.177 64.4006 163.717 64.749C167.249 65.0829 170.846 65.6273 174.421 66.5491C177.997 67.4564 181.594 68.5959 185.097 70.0984C188.6 71.6008 192.046 73.3864 195.382 75.4477C198.69 77.5526 201.795 79.8753 204.676 82.3794C207.564 84.8762 210.148 87.6271 212.529 90.4506C214.917 93.2741 216.98 96.279 218.826 99.313C220.686 102.347 222.228 105.483 223.545 108.611C226.208 114.875 227.772 121.197 228.597 127.185C229.379 133.18 229.364 138.849 228.865 143.966C228.358 149.083 227.345 153.641 226.158 157.546C224.949 161.444 223.668 164.725 222.409 167.301C221.83 168.615 221.207 169.733 220.693 170.705C220.194 171.693 219.716 172.491 219.318 173.137C218.934 173.776 218.638 174.262 218.428 174.603C218.225 174.937 218.116 175.104 218.116 175.104Z" fill="white"/>
<path d="M304 303.813C304 303.914 235.94 304 152.007 304C68.0404 304 0 303.914 0 303.813C0 303.713 68.0404 303.626 152.007 303.626C235.94 303.626 304 303.705 304 303.813Z" fill="#263238"/>
<path d="M207.803 72.9899C208.841 68.0473 211.38 62.0486 218.48 57.2209C226.149 51.9981 242.332 50.8343 252.044 52.343C260.414 53.5068 270.68 55.504 276.835 61.9983C282.99 68.4927 286.573 78.4929 284.636 87.7388C282.593 97.4731 274.892 104.729 266.476 107.94C263.131 109.212 259.673 109.945 256.169 110.333C255.958 112.366 254.946 114.298 253.598 115.721C251.932 117.474 249.829 118.594 247.754 119.643C248.904 116.884 249.195 113.695 248.633 110.713C245.777 110.706 242.914 110.562 240.078 110.376C234.108 109.981 228.053 109.406 222.48 106.97C216.907 104.528 209.873 98.6226 207.797 92.315C205.615 85.72 206.369 79.8291 207.803 72.9899Z" fill="white"/>
<path d="M207.803 72.9899C207.803 72.9899 207.79 73.0977 207.751 73.3204C207.704 73.5431 207.645 73.8664 207.565 74.283C207.413 75.1307 207.169 76.3879 206.931 78.0403C206.706 79.6854 206.475 81.7401 206.508 84.1467C206.547 86.5534 206.904 89.3264 207.869 92.236C208.848 95.1383 210.818 97.9185 213.33 100.426C215.856 102.911 218.95 105.225 222.586 106.855C226.248 108.45 230.4 109.312 234.783 109.772C239.173 110.268 243.813 110.333 248.626 110.541L248.752 110.548L248.778 110.677C249.32 113.501 249.115 116.784 247.892 119.715L247.681 119.485C249.479 118.573 251.35 117.596 252.937 116.13C254.517 114.686 255.753 112.631 255.998 110.318L256.011 110.175L256.143 110.16C260.619 109.657 265.246 108.587 269.563 106.36C273.854 104.133 277.853 100.807 280.762 96.4458C283.056 92.9831 284.557 88.9385 284.881 84.7861C285.225 80.6481 284.583 76.4885 283.202 72.7528C281.84 69.0027 279.817 65.6119 277.331 62.8317C274.885 59.994 271.778 58.0758 268.631 56.6677C265.464 55.2812 262.212 54.3832 259.032 53.7079C255.852 53.047 252.718 52.5728 249.697 52.2208C246.669 51.9119 243.721 51.8544 240.898 51.9406C238.075 52.0269 235.365 52.2639 232.8 52.6447C230.235 53.0254 227.808 53.5355 225.561 54.1964C223.313 54.8717 221.244 55.7123 219.439 56.7683C215.849 58.9379 213.231 61.6607 211.519 64.1823C209.8 66.7182 208.947 69.0243 208.458 70.5832C208.207 71.3663 208.055 71.9769 207.955 72.3864C207.863 72.7816 207.803 72.9899 207.803 72.9899C207.803 72.9899 207.936 72.1278 208.398 70.5401C208.868 68.9668 209.707 66.6464 211.42 64.0817C213.132 61.5313 215.743 58.7727 219.359 56.5672C221.177 55.4896 223.26 54.6347 225.514 53.945C227.775 53.2769 230.208 52.7524 232.78 52.3645C235.351 51.9694 238.069 51.7251 240.905 51.6317C243.741 51.5383 246.696 51.5886 249.737 51.8904C252.778 52.2424 255.905 52.7022 259.105 53.3631C262.298 54.0312 265.564 54.9292 268.763 56.3229C271.937 57.7382 275.097 59.6779 277.582 62.5587C280.101 65.3748 282.144 68.8016 283.526 72.5948C284.927 76.3736 285.582 80.5906 285.231 84.8005C284.907 89.0175 283.38 93.134 281.053 96.647C278.105 101.072 274.059 104.427 269.722 106.676C265.359 108.924 260.691 109.995 256.189 110.505L256.335 110.347C256.07 112.775 254.781 114.902 253.155 116.389C251.522 117.897 249.625 118.882 247.82 119.794L247.43 119.995L247.608 119.564C248.798 116.705 249.003 113.501 248.481 110.742L248.633 110.879C243.807 110.663 239.159 110.591 234.756 110.081C230.36 109.607 226.182 108.731 222.493 107.114C218.817 105.455 215.717 103.12 213.178 100.605C210.659 98.0766 208.676 95.2604 207.698 92.3078C206.739 89.3695 206.395 86.5677 206.369 84.1539C206.349 81.7257 206.594 79.6782 206.838 78.0259C207.354 74.7213 207.803 72.9899 207.803 72.9899Z" fill="#263238"/>
<path d="M225.389 74.0532L222.824 87.9903H221.891L223.101 81.3809H214.527L213.317 87.9903H212.385L214.95 74.0532H215.882L214.712 80.4398H223.286L224.456 74.0532H225.389Z" fill="#CA301E"/>
<path d="M230.624 74.9728L229.62 80.4686H236.436L236.27 81.3666H229.454L228.39 87.0779H236.303L236.118 87.9903H227.286L229.851 74.0532H238.425L238.24 74.9656H230.624V74.9728Z" fill="#CA301E"/>
<path d="M242.114 74.0532H243.047L240.647 87.0707H248.031L247.846 87.9831H239.549L242.114 74.0532Z" fill="#CA301E"/>
<path d="M252.831 74.0532H253.763L251.363 87.0707H258.748L258.563 87.9831H250.266L252.831 74.0532Z" fill="#CA301E"/>
<path d="M260.671 82.3579C260.671 77.8391 263.62 73.9597 268.347 73.9597C272.122 73.9597 274.231 76.2658 274.231 79.6926C274.231 84.2114 271.262 88.0907 266.535 88.0907C262.76 88.0907 260.671 85.7847 260.671 82.3579ZM273.272 79.7285C273.272 76.8405 271.566 74.8936 268.274 74.8936C264.228 74.8936 261.604 78.2989 261.604 82.3219C261.604 85.2099 263.329 87.1568 266.621 87.1568C270.674 87.1568 273.272 83.7516 273.272 79.7285Z" fill="#CA301E"/>
<path d="M275.526 87.2934C275.526 86.8121 275.877 86.4385 276.293 86.4385C276.716 86.4385 277.047 86.7977 277.047 87.2144C277.047 87.6957 276.697 88.0693 276.26 88.0693C275.857 88.0693 275.526 87.7101 275.526 87.2934ZM278.184 74.0532H279.248L277.232 83.9888H276.538L278.184 74.0532Z" fill="#CA301E"/>
<path d="M7.99287 74.9296C10.5117 64.3547 21.162 57.1348 31.0652 56.0931C41.2858 55.0227 52.0089 54.7353 62.9501 55.2741C76.7076 55.0083 90.6501 60.5831 95.344 71.4957C100.044 82.4154 98.233 96.2231 88.9577 103.659C82.8492 108.551 74.8168 110.232 66.9299 110.871C67.3861 114.729 69.5214 118.429 72.8732 120.498C68.4636 120.247 64.1533 118.451 60.8874 115.498C59.519 114.262 58.3554 112.825 57.3968 111.259C49.6091 111.295 41.8213 110.663 34.146 109.363C27.6341 108.256 20.9372 106.539 15.9459 102.265C8.42259 95.828 5.51375 85.3393 7.99287 74.9296Z" fill="white"/>
<path d="M7.99278 74.9297C7.99278 74.9297 7.97956 75.0518 7.93328 75.2889C7.88701 75.5332 7.8209 75.878 7.72834 76.3378C7.62257 76.7976 7.55646 77.3795 7.45729 78.062C7.3449 78.7444 7.29863 79.5491 7.23252 80.4542C7.15319 82.2646 7.17302 84.5204 7.62257 87.1067C8.07873 89.6786 8.93154 92.6025 10.5512 95.4833C11.3379 96.9344 12.356 98.3353 13.5064 99.7003C14.1146 100.354 14.7228 101.037 15.4235 101.64C15.7607 101.956 16.1045 102.272 16.4813 102.56C16.8449 102.861 17.2283 103.141 17.6184 103.414C20.7454 105.634 24.5996 107.114 28.7844 108.134C32.9823 109.14 37.5241 109.808 42.3038 110.34C47.0902 110.85 52.141 111.123 57.3968 111.101H57.4827L57.529 111.173C60.6956 116.489 66.6125 119.959 72.8863 120.326L72.7938 120.656C69.7064 118.788 67.2537 115.096 66.7645 110.9L66.7447 110.713L66.9232 110.699C71.3658 110.318 75.934 109.665 80.3567 108.106C82.5582 107.323 84.7398 106.338 86.7628 105.016C88.7924 103.709 90.6501 102.064 92.2301 100.124C93.7043 98.3569 94.8216 96.2807 95.7009 94.1327C96.5735 91.9775 97.1685 89.7001 97.4329 87.394C97.704 85.0951 97.7635 82.7675 97.4991 80.4902C97.2346 78.22 96.7785 75.9858 96.0645 73.8737C95.3307 71.7687 94.4249 69.75 93.1821 67.9971C92.8912 67.5445 92.5276 67.1566 92.2103 66.7327L91.7144 66.1077C91.5425 65.9066 91.3508 65.727 91.1723 65.5402C90.8087 65.1666 90.4451 64.7858 90.0749 64.4195L88.8981 63.4065C88.5147 63.0545 88.0982 62.7599 87.6883 62.4654C87.2718 62.1708 86.8686 61.8548 86.4455 61.5818C85.5794 61.0717 84.7464 60.4898 83.8473 60.0659C83.4044 59.836 82.9681 59.6133 82.5251 59.3834C82.0756 59.1895 81.6261 58.9955 81.1765 58.8015C80.284 58.3849 79.3651 58.0903 78.4594 57.767C74.8167 56.517 71.108 55.8633 67.4984 55.5831C66.5926 55.54 65.7002 55.4394 64.8011 55.4538C63.9086 55.4394 63.0227 55.461 62.1368 55.4035C60.3717 55.3173 58.6462 55.267 56.9406 55.2239C50.1247 55.073 43.7781 55.2382 37.9935 55.6334C35.1045 55.8489 32.3411 56.0357 29.7628 56.4021C27.1845 56.8044 24.8178 57.5731 22.6956 58.5142C18.4382 60.4036 15.1988 63.0473 12.9841 65.5905C10.7363 68.1264 9.51331 70.5762 8.86543 72.2788C8.48861 73.1122 8.34978 73.809 8.19772 74.2544C8.07211 74.6998 7.99278 74.9297 7.99278 74.9297C7.99278 74.9297 8.04567 74.6926 8.17789 74.24C8.31672 73.7874 8.44894 73.0906 8.81916 72.2501C9.4472 70.5331 10.657 68.0618 12.9048 65.4899C15.1194 62.918 18.3654 60.2455 22.6427 58.3202C24.7715 57.3575 27.1581 56.5745 29.7496 56.165C32.3477 55.7842 35.0979 55.5903 37.9935 55.3676C43.7847 54.9581 50.1379 54.7713 56.9604 54.915C58.6661 54.9581 60.4048 55.0012 62.1567 55.0874C63.0359 55.1377 63.9218 55.1233 64.8209 55.1377C65.7134 55.1233 66.6191 55.2167 67.5314 55.2598C71.1608 55.5328 74.8894 56.1865 78.5652 57.4366C79.4775 57.767 80.4096 58.0616 81.3021 58.4783C81.7517 58.6722 82.2078 58.8734 82.664 59.0673C83.1069 59.2972 83.5499 59.5199 83.9994 59.7498C84.9051 60.1737 85.7447 60.7628 86.624 61.2728C87.0537 61.553 87.4569 61.8691 87.88 62.1637C88.3032 62.4654 88.7196 62.7599 89.1097 63.1191L90.2997 64.1465C90.6765 64.5128 91.0401 64.9008 91.4103 65.2815C91.5954 65.4755 91.7872 65.6623 91.959 65.8634L92.4615 66.4956C92.7854 66.9267 93.1556 67.3218 93.4531 67.7816C94.7158 69.5632 95.6414 71.6251 96.3884 73.7515C97.1156 75.8924 97.5784 78.1553 97.8428 80.4542C98.1073 82.7603 98.0478 85.1167 97.7767 87.4515C97.5057 89.7935 96.9107 92.0996 96.0248 94.2907C95.1323 96.4675 93.9952 98.5796 92.4945 100.376C90.8881 102.351 88.9973 104.018 86.9413 105.347C84.8919 106.683 82.6904 107.675 80.4691 108.465C76.0001 110.031 71.4121 110.692 66.9562 111.065L67.1083 110.857C67.5843 114.938 69.9643 118.53 72.9656 120.347L73.5805 120.721L72.8731 120.678C66.5067 120.304 60.4973 116.777 57.2778 111.36L57.4034 111.432C52.1344 111.446 47.077 111.166 42.284 110.649C37.491 110.11 32.9493 109.427 28.7315 108.407C24.5269 107.373 20.6462 105.871 17.4994 103.623C17.1027 103.343 16.7193 103.062 16.3557 102.754C15.9789 102.466 15.6351 102.143 15.2913 101.82C14.5839 101.209 13.9757 100.512 13.3609 99.8512C12.204 98.4646 11.1793 97.0494 10.3926 95.5838C8.77288 92.6743 7.92667 89.7217 7.47712 87.1354C7.0408 84.5348 7.03419 82.2646 7.12674 80.4471C7.20607 79.5347 7.25235 78.7301 7.37796 78.0476C7.47712 77.3579 7.55646 76.776 7.66884 76.3234C7.76801 75.8708 7.84073 75.526 7.89362 75.2817C7.95973 75.0447 7.99278 74.9297 7.99278 74.9297Z" fill="#263238"/>
<path d="M35.8118 73.9744V93.2635H29.8289V86.1513H24.3021V93.2635H18.3125V73.9744H24.2954V80.8064H29.8222V73.9744H35.8118Z" fill="#CA301E"/>
<path d="M37.7952 85.713C37.7952 81.1368 41.1668 77.9111 45.8606 77.9111C50.5742 77.9111 53.926 81.1368 53.926 85.713C53.926 90.2892 50.5808 93.5364 45.8606 93.5364C41.1668 93.5436 37.7952 90.2892 37.7952 85.713ZM48.1149 85.713C48.1149 83.7589 47.1233 82.7675 45.8606 82.7675C44.5979 82.7675 43.6062 83.7589 43.6062 85.713C43.6062 87.6671 44.5979 88.6872 45.8606 88.6872C47.1233 88.6872 48.1149 87.6743 48.1149 85.713Z" fill="#CA301E"/>
<path d="M55.7241 72.8176H61.4559V93.2634H55.7241V72.8176Z" fill="#CA301E"/>
<path d="M77.7123 85.1669V93.2705H72.3838V91.2877C71.7227 92.8036 70.4071 93.5507 68.4503 93.5507C65.0522 93.5507 63.3003 91.453 63.3003 88.8667C63.3003 85.9428 65.3299 84.3192 69.6402 84.3192H71.9475C71.769 83.1626 70.9558 82.5519 69.3361 82.5519C68.0933 82.5519 66.6983 82.9901 65.786 83.7373L63.9614 79.628C65.5877 78.5289 68.047 77.9182 70.2022 77.9182C74.9753 77.9182 77.7123 80.1525 77.7123 85.1669ZM71.9805 88.3638V87.3149H70.5592C69.3427 87.3149 68.8073 87.7532 68.8073 88.5793C68.8073 89.269 69.3163 89.7934 70.1757 89.7934C70.9691 89.7934 71.6764 89.3552 71.9805 88.3638Z" fill="#CA301E"/>
<path d="M79.4907 73.9744H86.3397L85.196 85.8783H80.6344L79.4907 73.9744ZM79.5701 90.239C79.5701 88.3927 80.9385 86.9847 82.9152 86.9847C84.8919 86.9847 86.2604 88.3927 86.2604 90.239C86.2604 92.0566 84.8919 93.5437 82.9152 93.5437C80.9385 93.5437 79.5701 92.0566 79.5701 90.239Z" fill="#CA301E"/>
<path d="M282.224 258.705L262.906 268.209L269.458 303.813H289.78L282.224 258.705Z" fill="#AE7461"/>
<path d="M206.858 159.895C204.214 160.298 201.417 158.48 200.498 155.75C200.221 154.931 200.108 154.012 200.359 153.178C200.617 152.352 201.305 151.648 202.111 151.605C201.04 150.8 200.227 149.55 200.029 148.157C199.831 146.756 200.293 145.233 201.305 144.349C202.316 143.458 203.87 143.315 204.947 144.112C204.921 142.582 205.78 141.08 207.056 140.427L212.788 141.863L206.858 159.895Z" fill="#263238"/>
<path d="M215.545 224.825L215.472 206.721C215.472 206.721 203.48 204.587 203.434 191.548C203.407 185.248 204.326 172.273 205.285 160.542C206.316 147.927 216.087 138.286 227.742 138.386L228.899 138.393C241.381 139.291 247.648 151.318 246.471 164.852L243.476 219.408L227.068 229.372L215.545 224.825Z" fill="#AE7461"/>
<path d="M215.472 206.721C215.472 206.721 223.035 207.475 231.147 203.244C231.147 203.244 227.451 211.333 215.485 210.054L215.472 206.721Z" fill="#6F4439"/>
<path d="M219.141 182.274C219.148 182.159 218.004 181.936 216.153 181.663C215.684 181.605 215.241 181.498 215.161 181.153C215.056 180.779 215.254 180.233 215.485 179.637C215.935 178.401 216.411 177.108 216.907 175.75C218.883 170.219 220.318 165.671 220.113 165.585C219.908 165.499 218.136 169.917 216.166 175.449C215.69 176.814 215.234 178.114 214.805 179.357C214.619 179.939 214.309 180.592 214.547 181.361C214.672 181.742 215.016 182.022 215.314 182.115C215.618 182.216 215.882 182.223 216.113 182.245C217.971 182.367 219.135 182.388 219.141 182.274Z" fill="#263238"/>
<path d="M226.969 173.854C226.929 174.838 227.663 175.686 228.608 175.75C229.554 175.815 230.347 175.068 230.387 174.084C230.426 173.099 229.693 172.252 228.747 172.187C227.802 172.122 227.008 172.869 226.969 173.854Z" fill="#263238"/>
<path d="M225.944 167.467C226.156 167.711 227.464 166.677 229.309 166.698C231.153 166.691 232.495 167.733 232.7 167.489C232.8 167.381 232.588 166.943 232 166.469C231.424 166.002 230.439 165.542 229.289 165.535C228.139 165.535 227.174 165.98 226.612 166.447C226.037 166.921 225.838 167.359 225.944 167.467Z" fill="#263238"/>
<path d="M227.213 185.147C226.922 185.039 226.215 186.62 224.576 187.539C222.956 188.488 221.316 188.251 221.244 188.574C221.204 188.718 221.581 188.998 222.301 189.113C223.015 189.235 224.08 189.134 225.098 188.552C226.116 187.97 226.777 187.072 227.068 186.383C227.365 185.679 227.346 185.19 227.213 185.147Z" fill="#263238"/>
<path d="M225.541 158.954C225.752 159.486 227.577 159.119 229.752 159.277C231.927 159.385 233.705 159.967 233.97 159.464C234.089 159.22 233.758 158.731 233.024 158.243C232.297 157.762 231.16 157.323 229.858 157.244C228.555 157.165 227.378 157.46 226.605 157.855C225.825 158.25 225.448 158.695 225.541 158.954Z" fill="#263238"/>
<path d="M210.639 173.854C210.6 174.838 211.334 175.686 212.279 175.75C213.224 175.815 214.018 175.068 214.057 174.084C214.097 173.099 213.363 172.252 212.418 172.187C211.472 172.122 210.679 172.869 210.639 173.854Z" fill="#263238"/>
<path d="M207.817 166.936C208.028 167.18 209.33 166.145 211.175 166.167C213.019 166.16 214.361 167.202 214.566 166.957C214.666 166.849 214.454 166.411 213.866 165.937C213.29 165.47 212.305 165.01 211.155 165.003C210.005 165.003 209.04 165.449 208.478 165.916C207.909 166.39 207.711 166.828 207.817 166.936Z" fill="#263238"/>
<path d="M208.729 161.469C209.146 161.857 210.461 161.152 212.127 160.844C213.78 160.477 215.248 160.621 215.499 160.089C215.605 159.838 215.32 159.421 214.646 159.105C213.978 158.782 212.914 158.609 211.77 158.839C210.633 159.069 209.701 159.651 209.185 160.211C208.663 160.779 208.537 161.275 208.729 161.469Z" fill="#263238"/>
<path d="M244.448 177.525C244.541 175.513 246.147 173.94 247.992 174.141C250.226 174.393 252.712 175.793 252.527 180.822C252.196 189.738 244.032 187.539 244.025 187.281C244.018 187.108 244.283 181.253 244.448 177.525Z" fill="#AE7461"/>
<path d="M245.936 184.005C245.975 183.976 246.074 184.12 246.312 184.249C246.544 184.378 246.947 184.472 247.377 184.321C248.256 184.012 249.043 182.547 249.142 180.944C249.195 180.133 249.063 179.357 248.825 178.703C248.6 178.042 248.23 177.568 247.793 177.467C247.364 177.338 247.046 177.611 246.934 177.855C246.815 178.1 246.861 178.279 246.815 178.294C246.788 178.315 246.643 178.136 246.722 177.769C246.762 177.597 246.868 177.388 247.066 177.223C247.271 177.058 247.562 176.979 247.866 177.029C248.494 177.101 249.043 177.762 249.307 178.473C249.605 179.192 249.77 180.068 249.71 180.98C249.591 182.776 248.686 184.422 247.483 184.738C246.901 184.874 246.425 184.666 246.187 184.443C245.942 184.22 245.903 184.019 245.936 184.005Z" fill="#6F4439"/>
<path d="M217.726 153.02C217.707 153.02 217.687 153.027 217.667 153.027C217.621 153.027 217.568 153.027 217.521 153.034L217.726 153.02Z" fill="#CA301E"/>
<path d="M253.783 161.698C253.644 160.901 253.168 160.211 252.547 159.773C252.943 159.313 253.248 158.775 253.419 158.171C253.889 156.476 253.248 154.493 251.905 153.494C253.347 152.029 253.968 149.672 253.459 147.596C252.943 145.52 251.324 143.817 249.393 143.336C249.532 140.656 248.269 137.941 246.2 136.475C244.131 135.01 241.341 134.837 239.133 136.051C237.5 131.784 232.152 129.794 228.45 132.071C226.037 130.168 223.445 128.192 220.47 127.962C217.495 127.739 214.15 130.081 214.256 133.321C212.134 132.675 209.866 132.359 207.724 132.926C205.582 133.494 203.579 135.074 202.832 137.323C202.078 139.579 202.865 142.445 204.835 143.523C202.958 145.592 202.872 149.27 204.643 151.447C205.159 152.079 205.807 152.553 206.521 152.862C206.475 153.415 206.462 153.983 206.488 154.557C206.488 154.557 206.719 153.976 207.123 153.092C208.736 153.588 210.567 153.307 211.902 152.187C213.383 153.976 215.856 154.708 217.971 153.99C220.087 153.272 221.733 151.145 222.017 148.76C223.181 149.988 224.926 150.534 226.513 150.168C228.099 149.802 229.488 148.523 230.083 146.885C231.828 149.076 234.843 149.953 237.361 149.004C237.388 150.743 238.188 152.359 239.371 153.509C239.259 154.996 239.027 156.684 239.113 158.782C240.111 182.252 244.005 188.919 245.209 177.884C245.334 176.706 248.263 175.779 248.884 171.031C249.347 170.951 249.797 170.815 250.22 170.592C251.112 170.125 251.866 169.292 252.157 168.265C252.448 167.237 252.223 166.023 251.502 165.283C252.97 165.003 254.061 163.286 253.783 161.698Z" fill="#263238"/>
<path d="M237.731 150.513C237.705 150.52 237.712 150.793 237.864 151.253C238.016 151.713 238.333 152.366 238.961 152.977C239.569 153.581 240.535 154.134 241.691 154.127C242.829 154.134 244.131 153.616 245.03 152.467L244.554 152.431C244.937 153.092 245.473 153.681 246.108 154.119C247.469 155.053 249.135 155.262 250.464 154.78C251.819 154.306 252.725 153.243 253.228 152.273C253.737 151.282 253.869 150.355 253.876 149.737C253.869 149.112 253.763 148.782 253.737 148.789C253.618 148.767 253.902 150.226 252.871 152.036C252.362 152.905 251.502 153.825 250.306 154.206C249.129 154.601 247.641 154.407 246.432 153.573C245.863 153.178 245.394 152.668 245.05 152.093L244.832 151.727L244.574 152.058C243.82 153.049 242.683 153.537 241.685 153.566C240.667 153.609 239.801 153.164 239.206 152.654C237.996 151.598 237.824 150.456 237.731 150.513Z" fill="#455A64"/>
<path d="M189.253 266.068C189.253 257.72 193.101 215.04 193.101 215.04L215.34 211.268L215.439 211.419C222.724 222.339 237.778 222.087 244.752 210.931L262.364 213.768L265.676 259.983L265.26 290.889L264.645 303.813H190C190.046 300.889 189.253 271.478 189.253 266.068Z" fill="#CA301E"/>
<path d="M283.936 259.854L262.965 271.198L260.486 258.317L261.141 213.689C261.141 213.689 272.208 213.215 276.835 229.343C281.675 246.226 283.936 259.854 283.936 259.854Z" fill="#CA301E"/>
<path d="M167.152 261.894L187.203 276.104L192.75 265.3L197.629 214.278C197.629 214.278 186.899 212.267 179.059 230.407C171.225 248.539 167.152 261.894 167.152 261.894Z" fill="#CA301E"/>
<path d="M188.056 230.399C188.05 230.399 188.05 230.443 188.056 230.529C188.063 230.629 188.069 230.751 188.076 230.895C188.103 231.24 188.129 231.714 188.175 232.31C188.261 233.56 188.387 235.335 188.539 237.512C188.83 241.901 189.14 247.979 189.292 254.689C189.438 261.406 189.392 267.491 189.299 271.887C189.246 274.071 189.2 275.846 189.167 277.103C189.154 277.699 189.14 278.173 189.134 278.518C189.134 278.669 189.134 278.791 189.134 278.885C189.134 278.971 189.14 279.014 189.14 279.014C189.147 279.014 189.154 278.971 189.16 278.892C189.167 278.791 189.173 278.669 189.187 278.525C189.207 278.18 189.233 277.706 189.266 277.11C189.332 275.882 189.411 274.1 189.478 271.902C189.616 267.498 189.696 261.413 189.55 254.689C189.398 247.972 189.054 241.894 188.724 237.504C188.559 235.306 188.407 233.532 188.281 232.31C188.221 231.714 188.175 231.247 188.136 230.902C188.116 230.759 188.103 230.636 188.089 230.536C188.069 230.443 188.063 230.399 188.056 230.399Z" fill="#263238"/>
<path d="M213.416 264.387C213.403 264.394 213.456 264.524 213.562 264.761C213.687 265.034 213.839 265.371 214.031 265.795C214.434 266.7 215.089 267.958 215.908 269.509C217.601 272.577 220.186 276.708 223.716 280.623C227.22 284.574 230.981 287.462 233.824 289.265C234.181 289.488 234.518 289.704 234.842 289.912C235.166 290.099 235.477 290.278 235.768 290.444C236.343 290.781 236.845 291.061 237.269 291.263C237.659 291.457 237.976 291.615 238.234 291.744C238.458 291.852 238.577 291.902 238.577 291.888C238.584 291.873 238.472 291.801 238.26 291.679C238.016 291.536 237.705 291.356 237.328 291.133C236.918 290.911 236.429 290.609 235.86 290.257C235.576 290.084 235.272 289.898 234.948 289.704C234.631 289.495 234.3 289.273 233.95 289.043C231.147 287.189 227.438 284.287 223.961 280.364C220.457 276.471 217.859 272.39 216.12 269.373C215.274 267.843 214.586 266.607 214.15 265.723C213.938 265.321 213.76 264.99 213.621 264.725C213.495 264.495 213.423 264.38 213.416 264.387Z" fill="#263238"/>
<path d="M188.413 268.518L181.703 219.559L169.559 221.57C169.559 221.57 166.69 262.728 167.219 275.249C167.384 279.157 167.133 285.724 169.572 289.998C173.737 297.304 185.948 297.312 189.729 289.768C191.699 286.557 190.846 282.002 190.43 279.689L188.413 268.518Z" fill="#AE7461"/>
<path d="M168.528 224.458L166.485 214.724L164.819 202.123L164.759 191.361C164.759 191.361 165.05 190.241 166.399 190.751C167.741 191.261 167.728 197.144 167.728 197.144L168.316 201.44C168.316 201.44 169.618 204.573 169.797 204.249C169.975 203.926 169.684 198.014 169.684 198.014L169.632 185.205C169.632 185.205 169.909 183.761 171.39 183.94C172.21 184.041 172.944 185.154 173.175 187.008C173.413 188.861 173.235 192.101 173.347 193.157C173.459 194.213 173.916 200.348 173.916 200.348L175.244 185.722C175.244 185.722 175.139 181.081 176.976 181.354C178.814 181.627 178.252 185.097 178.424 186.505C178.603 187.913 177.816 197.841 178.497 200.42C179.184 202.992 179.33 201.606 179.33 201.606C179.33 201.606 179.541 197.065 179.707 193.488C179.872 189.91 180.705 187.683 182.014 187.144C183.33 186.605 182.94 194.896 182.94 194.896L182.642 206.426L183.852 209.817L185.544 206.168C185.544 206.168 184.857 202.008 186.926 199.774C189.028 197.496 189.96 199.343 189.96 199.343L188.433 216.333C187.858 219.178 181.981 225.737 181.981 225.737L183.687 242.073L168.137 244.394L168.528 224.458Z" fill="#AE7461"/>
<path d="M172.858 217.906C172.95 217.971 173.519 217.03 174.544 215.629C175.555 214.285 177.195 212.36 179.621 211.958C180.692 211.771 181.75 211.951 182.55 212.453L182.847 212.64L183.012 212.281C183.726 210.686 184.546 209.249 185.009 208.244C185.498 207.231 185.716 206.577 185.637 206.548C185.577 206.527 185.26 207.08 184.672 208.028C184.103 209.012 183.264 210.262 182.417 212.037L182.874 211.857C181.948 211.239 180.718 211.024 179.522 211.232C178.193 211.448 177.029 212.123 176.157 212.913C175.277 213.704 174.643 214.573 174.16 215.32C173.208 216.829 172.792 217.863 172.858 217.906Z" fill="#6F4439"/>
<path d="M266 239.207C266.093 239.207 266.027 247.533 265.848 257.807C265.67 268.08 265.445 276.399 265.352 276.399C265.26 276.399 265.326 268.073 265.504 257.799C265.683 247.526 265.908 239.207 266 239.207Z" fill="#263238"/>
<g opacity="0.3">
<path d="M265.815 250.788L269.491 267.642L265.484 269.861L265.815 250.788Z" fill="black"/>
</g>
<g opacity="0.3">
<path d="M242.71 280.975C242.207 280.587 241.592 280.407 240.997 280.221C235.173 278.41 229.699 275.257 225.052 271.032C224.589 270.608 223.875 270.874 223.762 271.521C223.762 271.528 223.762 271.528 223.762 271.535L223.809 271.514C227.438 275.458 231.458 278.971 235.775 281.988C237.474 283.173 239.351 284.323 241.368 284.229C242.293 284.186 243.371 283.683 243.509 282.685C243.595 282.024 243.219 281.37 242.71 280.975Z" fill="black"/>
</g>
<path d="M55.1555 223.474L70.0038 220.5L90.6367 222.849L106.054 227.296L90.2731 244.653L69.4287 241.829L60.0741 236.075L55.1555 223.474Z" fill="#FFBF9D"/>
<path d="M63.2739 198.129C63.8425 190.025 64.4044 181.929 64.973 173.825L63.9284 161.95C61.2906 158.264 52.3592 159.687 48.6438 162.022C44.9284 164.364 42.6939 168.803 41.656 173.337C40.9684 176.339 40.6048 179.716 38.4761 181.771C36.0366 184.127 32.0238 183.926 29.8421 186.562C28.4142 188.287 28.1497 190.866 28.6654 193.114C29.1744 195.363 30.3578 197.353 31.561 199.271C32.6452 200.995 33.7823 202.726 35.3226 203.976C36.8564 205.227 38.8728 205.952 40.7304 205.42C39.719 208.28 41.1734 211.764 43.6789 213.165C46.1845 214.559 49.4041 213.977 51.6055 212.08C53.8136 210.176 55.0432 207.145 55.2548 204.091C55.4201 205.852 57.2712 207.03 58.8776 206.714C60.4841 206.398 61.7402 204.954 62.3815 203.323C63.0227 201.699 63.1483 199.896 63.2739 198.129Z" fill="#263238"/>
<path d="M64.6756 162.474C71.075 155.355 79.1933 151.684 88.3297 152.395C93.4863 152.797 95.5158 154.162 99.1387 155.606C102.755 157.05 105.928 159.529 107.859 163.15C110.153 167.453 111.99 172.202 112.09 177.173C112.189 182.281 112.288 187.425 111.521 192.468C110.761 197.511 109.075 202.497 105.988 206.355L93.9226 207.461C87.338 207.073 80.6675 206.671 74.4069 204.429C68.1463 202.188 62.2361 197.856 59.3074 191.44C55.235 182.511 58.2761 169.594 64.6756 162.474Z" fill="#263238"/>
<path d="M95.7538 158.997L91.655 158.078L75.2597 163.401C72.9591 163.308 70.9758 165.14 70.6981 167.618L68.6421 220.888L90.6633 231.355L91.8136 220.033C91.8136 220.033 102.504 219.925 106.278 206.685C108.156 200.104 109.306 189.005 109.981 179.896C110.576 171.706 105.062 159.924 95.7538 158.997Z" fill="#FFBF9D"/>
<path d="M87.9 201.75C88.0454 201.045 88.4619 200.449 88.9577 200.061C89.956 199.285 91.3179 199.336 92.25 200.169C93.1822 201.01 93.6251 202.59 93.3276 203.991C92.6996 204.767 91.8005 205.248 90.8551 205.248C90.7097 205.248 90.5576 205.241 90.4122 205.219C89.6982 205.133 88.9908 204.796 88.4884 204.171C87.9859 203.56 87.7215 202.619 87.9 201.75Z" fill="#FF9A6C"/>
<path d="M103.542 190.938C103.449 191.857 102.656 192.54 101.77 192.446C100.884 192.36 100.236 191.548 100.329 190.622C100.421 189.702 101.215 189.02 102.1 189.106C102.986 189.199 103.634 190.018 103.542 190.938Z" fill="#263238"/>
<path d="M106.761 184.184C106.53 184.378 105.452 183.215 103.727 182.949C102.008 182.661 100.619 183.423 100.467 183.164C100.388 183.049 100.646 182.669 101.254 182.324C101.856 181.972 102.834 181.699 103.905 181.871C104.976 182.044 105.822 182.618 106.278 183.136C106.748 183.66 106.873 184.098 106.761 184.184Z" fill="#263238"/>
<path d="M94.4579 197.856C94.4645 197.748 95.5619 197.712 97.3271 197.748C97.77 197.77 98.1997 197.741 98.3187 197.425C98.4708 197.094 98.3518 196.556 98.2129 195.967C97.9551 194.745 97.6774 193.466 97.3932 192.13C96.2759 186.67 95.5289 182.209 95.7338 182.166C95.9387 182.116 97.0097 186.505 98.127 191.965C98.3914 193.308 98.6493 194.587 98.8872 195.816C98.9798 196.383 99.1847 197.044 98.8674 197.727C98.7021 198.064 98.3451 198.273 98.0543 198.309C97.7634 198.359 97.5122 198.323 97.294 198.301C95.5289 198.122 94.4447 197.964 94.4579 197.856Z" fill="#263238"/>
<path d="M91.8269 220.026C91.8269 220.026 83.3648 219.3 75.7688 212.576C75.7688 212.576 78.9751 222.662 91.622 223.345L91.8269 220.026Z" fill="#FF9A6C"/>
<path d="M89.2222 198.359C89.5064 198.387 89.242 200.413 90.6501 202.109C92.0517 203.804 94.0746 203.883 94.0548 204.171C94.0614 204.3 93.559 204.494 92.7128 204.386C91.8864 204.285 90.7163 203.811 89.8568 202.777C88.9974 201.742 88.733 200.499 88.7792 199.652C88.8189 198.797 89.0966 198.323 89.2222 198.359Z" fill="#263238"/>
<path d="M106.708 177.547C106.358 177.956 105.082 177.446 103.522 177.345C101.968 177.187 100.633 177.482 100.348 177.022C100.223 176.799 100.454 176.376 101.049 176.002C101.637 175.628 102.603 175.348 103.667 175.434C104.738 175.521 105.65 175.959 106.173 176.426C106.701 176.893 106.867 177.345 106.708 177.547Z" fill="#263238"/>
<path d="M84.9976 188.825C84.8786 189.745 85.4935 190.614 86.3727 190.765C87.252 190.916 88.0651 190.298 88.1841 189.386C88.3031 188.466 87.6883 187.597 86.8091 187.446C85.9298 187.288 85.1233 187.906 84.9976 188.825Z" fill="#263238"/>
<path d="M83.4243 181.21C83.6028 181.462 84.9118 180.621 86.6439 180.822C88.376 181.002 89.5461 182.108 89.7577 181.9C89.8568 181.807 89.6982 181.376 89.1891 180.873C88.6867 180.377 87.8008 179.845 86.7232 179.723C85.6456 179.608 84.7002 179.932 84.1317 180.312C83.5565 180.707 83.3384 181.103 83.4243 181.21Z" fill="#263238"/>
<path d="M84.9513 175.291C85.2488 175.758 86.6305 175.47 88.2304 175.628C89.8435 175.736 91.1656 176.253 91.5226 175.844C91.6813 175.643 91.5094 175.19 90.9541 174.716C90.4054 174.249 89.46 173.804 88.356 173.71C87.2519 173.617 86.2603 173.897 85.6587 174.271C85.0505 174.651 84.8257 175.068 84.9513 175.291Z" fill="#263238"/>
<path d="M70.989 190.708C71.1213 189.702 70.361 187.152 69.4685 186.85C67.0753 186.052 62.6327 185.578 61.7006 192.324C60.4247 201.556 69.2107 201.045 69.2636 200.78C69.2966 200.579 70.5329 194.192 70.989 190.708Z" fill="#FFBF9D"/>
<path d="M67.3793 197.03C67.3462 196.994 67.214 197.116 66.9496 197.202C66.6918 197.281 66.2554 197.295 65.8389 197.044C64.9927 196.541 64.4506 194.867 64.6423 193.201C64.7349 192.36 65.0126 191.584 65.3762 190.966C65.7265 190.334 66.1959 189.925 66.6587 189.917C67.1215 189.874 67.4057 190.226 67.4719 190.499C67.5512 190.78 67.4719 190.952 67.5115 190.973C67.5314 191.002 67.7165 190.851 67.6966 190.456C67.69 190.269 67.6173 190.032 67.4454 189.824C67.2669 189.609 66.9826 189.472 66.6587 189.458C65.9976 189.4 65.3167 189.961 64.9134 190.636C64.4771 191.311 64.1531 192.18 64.0474 193.122C63.8424 194.989 64.4771 196.872 65.6538 197.461C66.229 197.726 66.7513 197.612 67.0421 197.439C67.333 197.252 67.4057 197.051 67.3793 197.03Z" fill="#FF9A6C"/>
<path d="M69.1114 186.843L71.0815 189.494C81.2426 180.65 101.532 158.006 100.395 159.364C100.395 159.364 94.2067 155.879 87.1396 156.504C80.0658 157.122 66.5463 159.644 66.0241 168.595C65.5018 177.539 69.1114 186.843 69.1114 186.843Z" fill="#263238"/>
<path d="M64.0077 163.43C64.0871 163.509 62.7847 164.78 61.2774 167.302C59.7701 169.795 58.157 173.696 57.8397 178.265C57.5223 182.841 58.5735 186.958 59.7172 189.666C60.8609 192.41 61.9715 193.876 61.879 193.941C61.8525 193.962 61.555 193.617 61.0857 192.935C60.6163 192.252 59.9948 191.211 59.3668 189.846C58.1107 187.13 56.967 182.92 57.291 178.222C57.6215 173.523 59.3337 169.544 60.9534 167.065C61.76 165.815 62.5202 164.881 63.0822 164.292C63.6441 163.696 63.9879 163.401 64.0077 163.43Z" fill="#455A64"/>
<path d="M27.3893 259.222L18.1604 303.813H35.4217L42.7467 271.672L27.3893 259.222Z" fill="#FFBF9D"/>
<path d="M134.626 232.598L135.241 257.534L125.529 241.276L102.768 241.039L107.858 250.838C113.174 259.402 116.4 266.6 123.381 274.826C126.865 278.928 130.111 284.646 131.691 285.846C135.486 288.727 141.171 291.047 146.123 286.392C153.025 279.905 152.198 267.412 150.023 254.66C147.604 240.5 145.759 226.053 145.759 226.053L134.626 232.598Z" fill="#FFBF9D"/>
<path d="M137.191 272.06C137.052 272.103 136.358 268.877 135.856 264.811C135.347 260.745 135.221 257.404 135.36 257.383C135.505 257.368 135.862 260.659 136.372 264.703C136.874 268.748 137.337 272.017 137.191 272.06Z" fill="#FF9A6C"/>
<path d="M124.359 197.181L126.726 209.695L126.528 212.174C126.528 212.174 128.663 218.603 129.271 219.889C129.88 221.168 134.858 226.714 134.858 226.714L134.653 234.595L145.898 232.576C145.898 232.576 145.541 225.723 145.911 224.681C146.281 223.639 145.858 221.621 145.396 220.356C144.933 219.099 142.619 211.376 142.619 211.376C142.619 211.376 142.612 201.232 140.708 201.929C140.272 202.087 139.446 202.77 139.446 202.77C139.446 202.77 139.677 209.3 139.075 209.824L137.833 209.832C137.833 209.832 135.644 201.01 134.977 199.53C134.309 198.043 133.496 197.216 132.398 197.691C132.398 197.691 131.823 198.502 131.949 198.912C132.074 199.314 134.745 209.013 134.223 209.128C133.707 209.243 133.496 208.345 133.496 208.345C133.496 208.345 130.488 196.441 130.051 195.923C129.615 195.406 128.657 194.781 127.771 195.485L128.875 202.375C128.875 202.375 127.215 197.044 126.058 196.642C124.895 196.232 124.359 197.181 124.359 197.181Z" fill="#FFBF9D"/>
<path d="M138.758 219.034C138.679 219.085 138.256 218.165 137.178 216.944C136.12 215.758 134.21 214.314 131.737 213.955L131.552 213.926L131.499 213.747C131.248 212.892 130.99 211.994 130.726 211.067L130.713 211.01L130.719 210.945C130.746 210.6 130.759 210.205 130.752 209.817C130.739 208.502 130.574 207.231 130.19 206.139C129.999 205.6 129.747 205.09 129.41 204.745C129.093 204.386 128.624 204.278 128.3 204.422L128.419 204.257C127.936 206.096 127.519 207.619 127.215 208.682C126.911 209.745 126.713 210.342 126.667 210.327C126.62 210.313 126.726 209.688 126.951 208.603C127.176 207.518 127.526 205.974 127.962 204.12L127.989 204.005L128.081 203.962C128.657 203.682 129.324 203.89 129.747 204.336C130.184 204.774 130.461 205.342 130.68 205.931C131.109 207.116 131.294 208.452 131.308 209.817C131.308 210.227 131.301 210.622 131.268 211.01L131.255 210.888C131.513 211.814 131.77 212.72 132.008 213.574L131.777 213.373C134.468 213.797 136.378 215.392 137.423 216.692C137.945 217.353 138.289 217.942 138.494 218.359C138.692 218.79 138.785 219.02 138.758 219.034Z" fill="#FF9A6C"/>
<path d="M134.203 210.6C134.177 210.442 135.81 209.997 137.866 210.126C139.922 210.241 141.502 210.873 141.455 211.024C141.416 211.197 139.816 210.837 137.833 210.73C135.849 210.608 134.23 210.773 134.203 210.6Z" fill="#FF9A6C"/>
<path d="M120.829 232.785C116.816 229.466 101.135 226.017 100.124 225.371C100.124 225.371 96.0577 232.813 83.3977 236.93C70.7376 241.053 60.1071 222.483 60.1071 222.483L45.7282 223.998C45.7282 223.998 44.5052 247.483 44.287 263.568C44.2209 268.295 44.4721 272.426 44.5845 275.077C45.0605 286.758 49.1461 303.806 49.1461 303.806H109.835L112.724 266.406L115.587 272.584L133.509 253.23C133.516 253.238 124.842 236.096 120.829 232.785Z" fill="#CA301E"/>
<path d="M45.7283 223.905C38.2182 225.629 31.4949 235.888 23.4294 256.011L45.3383 273.769L45.7283 223.905Z" fill="#CA301E"/>
<path d="M113.67 245.824C113.709 245.824 113.756 246.197 113.808 246.88C113.861 247.562 113.914 248.546 113.947 249.761C114.02 252.196 114.013 255.565 113.808 259.279C113.604 262.994 113.24 266.341 112.896 268.755C112.724 269.962 112.566 270.932 112.44 271.6C112.314 272.268 112.222 272.635 112.189 272.627C112.109 272.613 112.275 271.119 112.519 268.705C112.764 266.291 113.061 262.951 113.273 259.251C113.478 255.551 113.551 252.196 113.57 249.768C113.59 247.332 113.59 245.824 113.67 245.824Z" fill="#263238"/>
<path d="M46.4093 240.579C46.4489 240.586 46.4026 241.053 46.3035 241.894C46.1779 242.857 46.0192 244.042 45.8341 245.436C45.4308 248.424 44.8887 252.555 44.578 257.146C44.2541 261.736 44.2805 265.903 44.3797 268.92C44.4392 270.328 44.4921 271.521 44.5317 272.491C44.5714 273.331 44.578 273.805 44.5383 273.805C44.4987 273.813 44.426 273.346 44.3202 272.505C44.2078 271.665 44.0954 270.443 43.9896 268.935C43.7913 265.91 43.7054 261.715 44.0293 257.095C44.3466 252.476 44.9482 248.338 45.4507 245.364C45.7019 243.877 45.92 242.677 46.0919 241.851C46.2638 241.025 46.3762 240.572 46.4093 240.579Z" fill="#263238"/>
<g opacity="0.3">
<path d="M86.6304 286.701C81.1499 286.78 73.9307 289.165 69.1179 292.003C70.1492 292.283 71.1541 291.658 71.1541 291.658C77.7585 288.676 84.8256 291.701 91.3441 288.504C90.3723 286.945 88.3691 286.679 86.6304 286.701Z" fill="black"/>
</g>
</g>
<defs>
<clipPath id="clip0_1409_79376">
<rect width="304" height="304" fill="white"/>
</clipPath>
</defs>
</svg>
