<svg width="335" height="231" viewBox="0 0 335 231" fill="none" xmlns="http://www.w3.org/2000/svg">
<g clip-path="url(#clip0_1409_79741)">
<path d="M309.648 225.901H19.8133C14.461 225.901 10.126 221.473 10.126 216.006V26.9411C10.126 21.4742 14.461 17.0464 19.8133 17.0464H309.648C315 17.0464 319.335 21.4742 319.335 26.9411V216.006C319.335 221.473 315 225.901 309.648 225.901Z" fill="#161C24" style="mix-blend-mode:multiply"/>
<path d="M323.172 230.689H11.8349C5.2991 230.689 0 225.276 0 218.6V212.414H335V218.6C335.007 225.276 329.708 230.689 323.172 230.689Z" fill="#161C24" style="mix-blend-mode:multiply"/>
<path d="M134.246 210.458L138.408 217.208H196.904L200.761 210.458H134.246Z" fill="#161C24" style="mix-blend-mode:multiply"/>
<path d="M316.676 210.458C316.676 210.573 248.047 210.661 163.407 210.661C78.7416 210.661 10.126 210.573 10.126 210.458C10.126 210.342 78.7416 210.254 163.407 210.254C248.047 210.254 316.676 210.342 316.676 210.458Z" fill="#161C24" style="mix-blend-mode:multiply"/>
<path d="M307.095 204.936H21.1563C19.9529 204.936 18.9822 203.938 18.9822 202.716V31.2805C18.9822 30.0513 19.9596 29.0598 21.1563 29.0598H307.095C308.298 29.0598 309.269 30.0581 309.269 31.2805V202.709C309.269 203.938 308.292 204.936 307.095 204.936Z" fill="#F6F8FA"/>
<path d="M308.957 205.195H18.6699L18.9824 42.2075H308.957V205.195Z" fill="white"/>
<path d="M42.7917 35.8508C42.7917 37.1615 41.7545 38.2209 40.4713 38.2209C39.1881 38.2209 38.1509 37.1615 38.1509 35.8508C38.1509 34.5401 39.1881 33.4807 40.4713 33.4807C41.7545 33.4807 42.7917 34.5469 42.7917 35.8508Z" fill="#161C24" style="mix-blend-mode:multiply"/>
<path d="M28.7361 35.8508C28.7361 37.1615 27.6989 38.2209 26.4156 38.2209C25.1324 38.2209 24.0952 37.1615 24.0952 35.8508C24.0952 34.5401 25.1324 33.4807 26.4156 33.4807C27.6989 33.4875 28.7361 34.5469 28.7361 35.8508Z" fill="#161C24" style="mix-blend-mode:multiply"/>
<path d="M35.4846 35.8508C35.4846 37.1615 34.4474 38.2209 33.1642 38.2209C31.881 38.2209 30.8438 37.1615 30.8438 35.8508C30.8438 34.5401 31.881 33.4807 33.1642 33.4807C34.4474 33.4875 35.4846 34.5469 35.4846 35.8508Z" fill="#161C24" style="mix-blend-mode:multiply"/>
<path d="M309.269 189.453H18.6699V205.194H309.269V189.453Z" fill="#161C24" style="mix-blend-mode:multiply"/>
<path d="M29.6471 199.144V199.646H27.3333V199.246L28.5833 198.037C28.8891 197.738 28.9423 197.555 28.9423 197.371C28.9423 197.079 28.7428 196.909 28.3572 196.909C28.0514 196.909 27.7987 197.018 27.6192 197.242L27.2136 196.923C27.453 196.59 27.8918 196.393 28.4038 196.393C29.0886 196.393 29.5274 196.746 29.5274 197.317C29.5274 197.629 29.441 197.915 29.0088 198.329L28.1711 199.144H29.6471Z" fill="white"/>
<path d="M29.9666 197.555C29.9666 197.324 30.1329 197.174 30.3324 197.174C30.532 197.174 30.6983 197.324 30.6983 197.555C30.6983 197.772 30.532 197.935 30.3324 197.935C30.1329 197.935 29.9666 197.772 29.9666 197.555ZM29.9666 199.3C29.9666 199.069 30.1329 198.92 30.3324 198.92C30.532 198.92 30.6983 199.069 30.6983 199.3C30.6983 199.517 30.532 199.68 30.3324 199.68C30.1329 199.68 29.9666 199.517 29.9666 199.3Z" fill="white"/>
<path d="M32.1606 196.441V199.646H31.5821V196.937H30.9172V196.434H32.1606V196.441Z" fill="white"/>
<path d="M35.5847 198.92H35.0262V199.646H34.4611V198.92H32.739V198.505L34.2882 196.441H34.9065L33.4504 198.417H34.481V197.772H35.0262V198.417H35.5847V198.92Z" fill="white"/>
<path d="M278.897 197.636H40.7107V198.743H278.897V197.636Z" fill="white"/>
<path d="M114.965 196.441H40.5312V199.402H114.965V196.441Z" fill="#B42323"/>
<path d="M117.371 198.193C117.371 200.237 115.749 201.894 113.748 201.894C111.747 201.894 110.124 200.237 110.124 198.193C110.124 196.149 111.747 194.492 113.748 194.492C115.742 194.492 117.371 196.149 117.371 198.193Z" fill="#B42323"/>
<path d="M284.895 198.159C284.895 198.798 284.389 199.198 283.744 199.198C282.887 199.198 282.388 198.635 282.388 197.602C282.388 196.502 283.013 195.898 283.924 195.898C284.236 195.898 284.536 195.966 284.748 196.101L284.536 196.55C284.363 196.434 284.157 196.393 283.937 196.393C283.345 196.393 282.973 196.767 282.973 197.5V197.507C283.159 197.283 283.465 197.174 283.811 197.174C284.436 197.174 284.895 197.555 284.895 198.159ZM284.329 198.186C284.329 197.854 284.083 197.643 283.704 197.643C283.325 197.643 283.066 197.874 283.066 198.193C283.066 198.492 283.299 198.736 283.718 198.736C284.077 198.73 284.329 198.519 284.329 198.186Z" fill="white"/>
<path d="M285.181 197.059C285.181 196.828 285.347 196.679 285.547 196.679C285.746 196.679 285.912 196.828 285.912 197.059C285.912 197.276 285.746 197.439 285.547 197.439C285.347 197.439 285.181 197.276 285.181 197.059ZM285.181 198.804C285.181 198.573 285.347 198.424 285.547 198.424C285.746 198.424 285.912 198.573 285.912 198.804C285.912 199.022 285.746 199.185 285.547 199.185C285.347 199.185 285.181 199.022 285.181 198.804Z" fill="white"/>
<path d="M286.291 197.548C286.291 196.495 286.856 195.898 287.601 195.898C288.352 195.898 288.917 196.495 288.917 197.548C288.917 198.601 288.352 199.198 287.601 199.198C286.856 199.198 286.291 198.601 286.291 197.548ZM288.325 197.548C288.325 196.774 288.033 196.414 287.601 196.414C287.175 196.414 286.876 196.774 286.876 197.548C286.876 198.322 287.175 198.682 287.601 198.682C288.033 198.682 288.325 198.322 288.325 197.548Z" fill="white"/>
<path d="M289.303 197.548C289.303 196.495 289.868 195.898 290.613 195.898C291.364 195.898 291.929 196.495 291.929 197.548C291.929 198.601 291.364 199.198 290.613 199.198C289.868 199.198 289.303 198.601 289.303 197.548ZM291.337 197.548C291.337 196.774 291.045 196.414 290.613 196.414C290.187 196.414 289.888 196.774 289.888 197.548C289.888 198.322 290.187 198.682 290.613 198.682C291.045 198.682 291.337 198.322 291.337 197.548Z" fill="white"/>
<path d="M297.003 197.351H295.912V194.152H299.037V195.259H297.003V197.351Z" fill="white"/>
<path d="M299.044 201.521H295.912V198.329H296.996V200.414H299.044V201.521Z" fill="white"/>
<path d="M304.023 201.521H300.898V200.414H302.94V198.322H304.023V201.521Z" fill="white"/>
<path d="M304.03 197.344H302.946V195.259H300.898V194.152H304.03V197.344Z" fill="white"/>
<path d="M58.4761 51.8984H41.3688L32.8118 67.0291L41.3688 82.1665H58.4761L67.0332 67.0291L58.4761 51.8984Z" fill="#F6F8FA"/>
<path d="M42.7652 69.99C42.0006 69.1276 41.2293 68.2515 40.6708 67.2328C40.1123 66.2142 39.7799 65.0325 39.966 63.878C40.0724 63.2057 40.3516 62.5673 40.3982 61.8882C40.458 60.951 40.0724 59.9731 40.3982 59.0971C40.9035 57.7253 42.712 57.5147 43.809 56.5708C44.6601 55.8305 45.079 54.6353 46.0164 54.0173C46.8342 53.474 47.8914 53.4876 48.8555 53.6302C49.8195 53.7728 50.7969 54.0173 51.761 53.8883C52.4525 53.7932 53.0974 53.508 53.7756 53.3382C54.4538 53.1684 55.2051 53.1209 55.8035 53.4808C56.4019 53.8407 56.741 54.71 56.3487 55.294C57.4723 54.7643 58.8952 55.6608 59.201 56.8764C59.5069 58.0988 58.8952 59.4163 57.9444 60.2244C56.9936 61.0325 55.7636 61.4061 54.5535 61.637C51.1227 62.2957 47.3927 61.9222 44.434 60.0274" fill="#161C24" style="mix-blend-mode:multiply"/>
<path d="M58.6288 73.732C58.5158 71.5657 57.9174 67.1243 57.339 63.1107C56.714 58.7916 52.9441 55.6948 48.6822 55.9868L48.2567 56.014C43.7089 56.598 41.6544 60.8697 42.3526 65.5012L43.689 82.1734H54.7925C54.7925 82.1734 54.5332 79.2464 54.5265 79.2193C54.5265 79.2125 58.8682 78.2142 58.6288 73.732Z" fill="#FFBE9D"/>
<path d="M54.5266 79.1447C54.5266 79.1447 51.7673 79.5657 48.6956 77.8748C48.6956 77.8748 50.258 81.0055 54.613 80.306L54.5266 79.1447Z" fill="#EB996E"/>
<path d="M55.9219 66.9544C55.9551 67.2939 55.7024 67.5995 55.3567 67.6403C55.011 67.681 54.7051 67.4433 54.6719 67.1038C54.6386 66.7642 54.8913 66.4586 55.2304 66.4179C55.5828 66.3771 55.8886 66.6148 55.9219 66.9544Z" fill="#161C24" style="mix-blend-mode:multiply"/>
<path d="M56.5338 65.3653C56.4607 65.4536 55.962 65.1276 55.2905 65.1752C54.619 65.2159 54.1469 65.603 54.0671 65.5215C54.0272 65.4876 54.1004 65.3314 54.2998 65.1548C54.4993 64.9782 54.8517 64.8016 55.2706 64.7745C55.6894 64.7473 56.0551 64.8831 56.2679 65.0325C56.4939 65.1752 56.5737 65.3246 56.5338 65.3653Z" fill="#161C24" style="mix-blend-mode:multiply"/>
<path d="M49.5527 67.4162C49.586 67.7557 49.3333 68.0613 48.9876 68.1021C48.6418 68.1428 48.336 67.9052 48.3027 67.5656C48.2695 67.226 48.5222 66.9204 48.8613 66.8797C49.2136 66.8457 49.5195 67.0834 49.5527 67.4162Z" fill="#161C24" style="mix-blend-mode:multiply"/>
<path d="M49.9115 65.9425C49.8384 66.0307 49.3397 65.7048 48.6682 65.7523C47.9966 65.7931 47.5246 66.1801 47.4448 66.0986C47.4049 66.0647 47.478 65.9085 47.6841 65.7319C47.8836 65.5554 48.236 65.3788 48.6549 65.3516C49.0737 65.3245 49.4394 65.4603 49.6522 65.6097C49.8716 65.7591 49.9514 65.9017 49.9115 65.9425Z" fill="#161C24" style="mix-blend-mode:multiply"/>
<path d="M52.6978 70.8864C52.6911 70.8457 53.1034 70.7438 53.7815 70.608C53.9544 70.5808 54.114 70.5333 54.1339 70.4111C54.1672 70.282 54.0807 70.0987 53.9877 69.8949C53.7948 69.4807 53.602 69.046 53.3893 68.591C52.5582 66.7303 51.9398 65.2023 52.013 65.1683C52.0861 65.1343 52.8241 66.6148 53.6552 68.4756C53.8547 68.9374 54.0475 69.372 54.2337 69.7931C54.3134 69.99 54.4398 70.2073 54.3666 70.479C54.3267 70.6148 54.2071 70.7167 54.1007 70.7574C53.9943 70.7981 53.8946 70.8049 53.8081 70.8185C53.1233 70.8932 52.7044 70.9272 52.6978 70.8864Z" fill="#161C24" style="mix-blend-mode:multiply"/>
<path d="M49.9118 63.233C49.8587 63.4232 49.1805 63.3824 48.3959 63.5318C47.6047 63.6676 46.9864 63.9461 46.8667 63.7899C46.8135 63.7152 46.9132 63.5318 47.1592 63.3281C47.4052 63.1311 47.7975 62.9274 48.2696 62.8459C48.7417 62.7576 49.1805 62.8052 49.4797 62.907C49.7789 63.0089 49.9318 63.1447 49.9118 63.233Z" fill="#161C24" style="mix-blend-mode:multiply"/>
<path d="M56.1554 63.3892C56.0491 63.5522 55.5703 63.4232 55.0118 63.4503C54.4533 63.4639 53.9879 63.6269 53.8682 63.4707C53.8151 63.396 53.8815 63.233 54.0744 63.07C54.2672 62.907 54.5996 62.7644 54.9852 62.7508C55.3709 62.7373 55.71 62.8527 55.9161 63.0021C56.1288 63.1515 56.2086 63.3077 56.1554 63.3892Z" fill="#161C24" style="mix-blend-mode:multiply"/>
<path d="M42.9313 68.788C42.8515 68.7608 39.8529 68.0817 40.1521 71.1445C40.4513 74.2005 43.6959 73.209 43.6893 73.1207C43.6826 73.0256 42.9313 68.788 42.9313 68.788Z" fill="#FFBE9D"/>
<path d="M42.3596 72.1088C42.3463 72.102 42.313 72.1496 42.2266 72.2039C42.1468 72.2514 42.0006 72.2922 41.8343 72.2514C41.5085 72.1631 41.1894 71.681 41.1229 71.1309C41.0897 70.8525 41.1229 70.5808 41.1961 70.3567C41.2625 70.1258 41.3955 69.956 41.5484 69.9085C41.7014 69.8542 41.8277 69.9424 41.8676 70.0239C41.9141 70.1054 41.9008 70.1666 41.9208 70.1733C41.9274 70.1801 41.9806 70.119 41.9407 69.99C41.9208 69.9289 41.8809 69.861 41.8011 69.8134C41.7213 69.7591 41.6149 69.7387 41.5019 69.7659C41.2758 69.8066 41.083 70.0443 41.0032 70.2956C40.9101 70.5469 40.8636 70.8525 40.9035 71.1649C40.9833 71.7761 41.349 72.3261 41.7944 72.4076C42.0072 72.4416 42.1801 72.3601 42.2665 72.2786C42.3596 72.1835 42.3729 72.1156 42.3596 72.1088Z" fill="#EB996E"/>
<path d="M57.1131 58.9206C56.907 60.1362 54.4934 61.2499 52.4855 61.1956C50.6371 61.1413 49.7262 60.2041 48.3832 59.5386C47.5321 59.1175 47.5321 59.1175 46.3819 59.3077C45.4511 59.4639 44.9657 60.5844 44.4404 61.3858C45.4378 63.6065 45.0322 66.1871 44.6133 68.5912C44.5668 68.856 44.5069 69.1412 44.3075 69.3246C43.9684 69.6302 43.4232 69.4468 43.0974 69.1344C42.5655 68.6387 42.3261 67.9053 42.1533 67.1922C41.7543 65.5691 41.6081 63.8713 41.8541 62.2211C42.1067 60.5708 42.7716 58.9613 43.8819 57.7321C45.2649 56.1906 47.2795 55.3009 49.3273 55.1923C51.3685 55.0836 53.423 55.7288 55.1317 56.8765C55.9229 57.413 56.6676 58.0649 57.1131 58.9206Z" fill="#161C24" style="mix-blend-mode:multiply"/>
<path d="M53.1372 72.4349C52.6252 72.1904 52.1199 71.9527 51.6079 71.7083C51.5215 71.6675 51.4284 71.6268 51.3287 71.6336C51.2223 71.6471 51.1359 71.7286 51.0627 71.8169C50.7104 72.2515 50.6173 72.9171 50.8965 73.4128C51.1691 73.9086 51.8141 74.1666 52.326 73.9493C52.8646 73.7184 53.1305 73.0801 53.1704 72.4824L53.1372 72.4349Z" fill="#EB996E"/>
<path d="M52.3795 74.0646C52.4061 74.0918 52.0604 74.3159 51.4819 74.1461C51.2027 74.0578 50.8836 73.8405 50.6907 73.4874C50.4913 73.141 50.4181 72.652 50.591 72.2106C50.6708 71.9933 50.8038 71.7964 50.9633 71.647C51.0431 71.5722 51.1229 71.5043 51.2226 71.45C51.3224 71.3753 51.5285 71.3685 51.6216 71.4229C51.9673 71.6198 52.2067 71.7896 52.4394 71.9458C52.8848 72.2514 53.1508 72.4551 53.1242 72.5026C53.0976 72.5434 52.7918 72.4144 52.313 72.1631C52.0338 72.0137 51.7678 71.8711 51.4952 71.7285C51.4288 71.7081 51.4354 71.7081 51.3756 71.742C51.3157 71.7828 51.2426 71.8371 51.1894 71.8982C51.0697 72.0205 50.97 72.1699 50.9102 72.3396C50.7772 72.6792 50.8237 73.0527 50.97 73.3379C51.1163 73.6232 51.3423 73.8133 51.5684 73.9152C52.0338 74.1121 52.3729 74.0035 52.3795 74.0646Z" fill="#161C24" style="mix-blend-mode:multiply"/>
<path d="M51.9005 67.0292C51.8672 67.0292 51.8739 66.7439 51.7342 66.2686C51.6013 65.8 51.2821 65.1141 50.5907 64.5912C49.9191 64.0682 48.8221 63.7762 47.7649 64.1837C46.7144 64.5572 45.8102 65.6981 45.8235 67.0292C45.8102 68.3602 46.7144 69.5011 47.7649 69.8747C48.8221 70.2821 49.9191 69.9901 50.5907 69.4672C51.2821 68.9443 51.6079 68.2584 51.7342 67.7898C51.8739 67.3144 51.8672 67.0292 51.9005 67.0292C51.9138 67.0292 51.9204 67.0971 51.9271 67.2329C51.9337 67.3687 51.9204 67.5725 51.8672 67.8237C51.7675 68.3263 51.4683 69.0733 50.7369 69.6641C50.0322 70.255 48.8287 70.6081 47.6519 70.1803C46.4817 69.7864 45.4578 68.5164 45.4711 67.0292C45.4578 65.5419 46.4817 64.272 47.6519 63.8781C48.8354 63.4435 50.0322 63.7966 50.7369 64.3942C51.4683 64.985 51.7675 65.7389 51.8672 66.2346C51.9204 66.4859 51.9337 66.6896 51.9271 66.8254C51.9204 66.9613 51.9138 67.0292 51.9005 67.0292Z" fill="#161C24" style="mix-blend-mode:multiply"/>
<path d="M59.3676 66.7303C59.3343 66.7303 59.3343 66.4519 59.208 65.9901C59.0817 65.5351 58.7692 64.8695 58.091 64.3602C57.4394 63.8508 56.3689 63.5724 55.3384 63.9663C54.3145 64.3262 53.4368 65.44 53.4501 66.7371C53.4368 68.0342 54.3211 69.1411 55.3384 69.5079C56.3689 69.9017 57.4394 69.6233 58.091 69.114C58.7692 68.6046 59.0817 67.9391 59.208 67.4841C59.341 67.0087 59.3343 66.7303 59.3676 66.7303C59.3809 66.7303 59.3875 66.7982 59.3942 66.934C59.4008 67.0631 59.3875 67.26 59.341 67.5113C59.2479 68.0002 58.9553 68.7269 58.2439 69.3109C57.5591 69.8882 56.3889 70.2345 55.232 69.8135C54.0884 69.4264 53.0911 68.1904 53.1044 66.7371C53.0911 65.2838 54.0884 64.0478 55.232 63.6607C56.3822 63.2396 57.5524 63.586 58.2439 64.1632C58.9553 64.7405 59.2479 65.4739 59.341 65.9629C59.3942 66.2074 59.4008 66.4043 59.3942 66.5401C59.3875 66.6624 59.3809 66.7303 59.3676 66.7303Z" fill="#161C24" style="mix-blend-mode:multiply"/>
<path d="M53.2763 66.024C53.2098 66.0919 52.9106 65.8949 52.5117 65.9085C52.1127 65.9085 51.8268 66.119 51.7537 66.0511C51.6606 66.0036 51.9399 65.5622 52.505 65.5486C53.0702 65.5486 53.3627 65.9764 53.2763 66.024Z" fill="#161C24" style="mix-blend-mode:multiply"/>
<path d="M45.8368 66.5741C45.8966 66.6556 45.3116 67.1921 44.5403 67.783C43.769 68.3738 43.0908 68.7881 43.0377 68.7066C42.9778 68.6251 43.5629 68.0886 44.3342 67.4977C45.1054 66.9137 45.777 66.4994 45.8368 66.5741Z" fill="#161C24" style="mix-blend-mode:multiply"/>
<path d="M107.544 66.8797C107.544 66.9748 99.8515 67.0563 90.3636 67.0563C80.8758 67.0563 73.1831 66.9748 73.1831 66.8797C73.1831 66.7846 80.8758 66.7031 90.3636 66.7031C99.8581 66.7031 107.544 66.7778 107.544 66.8797Z" fill="#161C24" style="mix-blend-mode:multiply"/>
<path d="M91.6603 70.5469C91.6603 70.642 87.578 70.7235 82.5382 70.7235C77.4984 70.7235 73.416 70.642 73.416 70.5469C73.416 70.4519 77.4984 70.3704 82.5382 70.3704C87.5713 70.3704 91.6603 70.4519 91.6603 70.5469Z" fill="#161C24" style="mix-blend-mode:multiply"/>
<path d="M210.475 94.0103C210.475 94.0103 219.604 98.5535 222.815 110.289C226.026 122.024 235.84 152.584 235.84 152.584C235.84 152.584 241.452 159.327 242.057 164.319C242.655 169.31 241.458 181.392 239.65 183.646C237.848 185.901 235.275 185.527 235.275 185.527L211.652 183.239L202.35 119.62L210.475 94.0103Z" fill="#B42323"/>
<path d="M132.358 92.8965C132.358 92.8965 115.47 98.309 111.261 103.015L125.091 168.733L124.871 189.466H204.95C204.95 188.441 205.668 120.625 205.668 120.625L210.475 94.0102L182.011 88.8897L176.4 84.3872L144.731 86.0239L139.918 90.9406L132.358 92.8965Z" fill="#B42323"/>
<g opacity="0.3">
<path d="M138.774 149.908C138.528 149.351 138.176 148.747 137.59 148.624C136.626 148.421 135.981 149.589 135.656 150.533C133.056 158.057 129.612 164.978 125.137 171.511L124.931 181.602C129.599 177.589 134.2 173.29 137.178 167.85C140.15 162.417 141.287 155.592 138.774 149.908Z" fill="#1C2530"/>
</g>
<path d="M111.261 103.022C111.261 103.022 105.696 110.771 103.383 115.83C101.069 120.889 81.9202 163.375 80.77 167.762C79.6131 172.149 76.6411 185.969 85.3909 189.174H103.383L121.441 151.871L122.365 108.577L111.261 103.022Z" fill="#B42323"/>
<path d="M104.539 162.227C104.513 162.254 104.14 161.867 103.309 161.385C102.485 160.91 101.195 160.36 99.5327 159.986C98.7016 159.803 97.7774 159.653 96.7801 159.592C95.7827 159.531 94.7123 159.545 93.6219 159.803C91.4411 160.299 89.2736 161.711 87.5648 163.687C85.8295 165.664 84.7657 168 84.134 170.2C83.4957 172.407 83.2231 174.478 83.0503 176.21C82.8841 177.949 82.8176 179.361 82.7577 180.339C82.7311 180.794 82.7045 181.168 82.6912 181.467C82.6713 181.725 82.658 181.86 82.6447 181.86C82.6314 181.86 82.6248 181.725 82.6248 181.467C82.6248 181.168 82.6248 180.794 82.6314 180.339C82.6513 179.361 82.6779 177.942 82.8109 176.19C82.9505 174.445 83.2032 172.353 83.8282 170.105C84.4465 167.871 85.5303 165.473 87.3055 163.45C89.0541 161.426 91.2881 159.979 93.5554 159.484C94.6857 159.226 95.7894 159.219 96.8 159.3C97.8106 159.375 98.7481 159.538 99.5859 159.742C101.268 160.149 102.558 160.74 103.376 161.263C103.781 161.528 104.08 161.765 104.267 161.942C104.453 162.119 104.546 162.22 104.539 162.227Z" fill="#161C24" style="mix-blend-mode:multiply"/>
<path d="M96.0022 154.798C96.0022 154.771 96.215 154.737 96.6072 154.696C96.9995 154.648 97.5713 154.635 98.2761 154.675C98.9809 154.709 99.8186 154.832 100.729 155.049C101.634 155.28 102.618 155.619 103.595 156.088C104.566 156.57 105.443 157.134 106.188 157.711C106.926 158.302 107.545 158.886 108.017 159.429C108.489 159.966 108.841 160.428 109.047 160.767C109.26 161.107 109.373 161.297 109.353 161.31C109.3 161.351 108.814 160.611 107.837 159.599C107.352 159.09 106.727 158.533 105.995 157.976C105.251 157.426 104.393 156.883 103.442 156.414C102.485 155.952 101.534 155.619 100.65 155.375C99.7588 155.144 98.9476 155.001 98.2561 154.94C96.8798 154.791 96.0088 154.866 96.0022 154.798Z" fill="#161C24" style="mix-blend-mode:multiply"/>
<path d="M112.272 152.753C112.265 152.781 111.972 152.753 111.441 152.686C110.909 152.618 110.137 152.536 109.187 152.461C107.285 152.312 104.639 152.278 101.74 152.631C98.8477 152.991 96.2813 153.663 94.4662 154.261C93.5553 154.56 92.8239 154.825 92.3253 155.022C91.8266 155.212 91.5407 155.307 91.5341 155.287C91.5274 155.266 91.7867 155.124 92.2787 154.893C92.7641 154.655 93.4822 154.356 94.393 154.023C96.2015 153.358 98.7813 152.638 101.707 152.278C104.626 151.925 107.305 152 109.213 152.21C110.171 152.312 110.942 152.434 111.467 152.543C111.986 152.658 112.278 152.733 112.272 152.753Z" fill="#161C24" style="mix-blend-mode:multiply"/>
<path d="M163.521 116.455C163.514 116.462 163.454 116.387 163.335 116.231C163.208 116.054 163.042 115.83 162.843 115.558C162.404 114.934 161.792 114.071 161.034 112.998C159.478 110.757 157.318 107.64 154.764 103.966L155.044 103.925C154.073 106.832 153.003 110.044 151.879 113.419L151.806 113.63L151.626 113.507C151.507 113.433 151.38 113.345 151.254 113.263C149.765 112.299 148.448 111.137 147.338 109.881C146.227 108.618 145.303 107.273 144.539 105.929C143.009 103.233 142.085 100.577 141.46 98.3293C140.835 96.0747 140.509 94.2003 140.297 92.9168C140.19 92.2988 140.11 91.8098 140.044 91.4363C140.011 91.2665 139.978 91.1443 139.958 91.056C139.924 90.9813 139.911 90.9338 139.918 90.9338C139.991 90.8998 140.184 91.6129 140.43 92.8964C140.689 94.1731 141.048 96.0339 141.7 98.2682C142.351 100.496 143.289 103.124 144.818 105.772C145.582 107.097 146.493 108.414 147.59 109.657C148.694 110.886 149.984 112.027 151.44 112.971C151.566 113.052 151.693 113.134 151.806 113.209L151.553 113.304C152.69 109.929 153.767 106.723 154.744 103.823L154.844 103.518L155.024 103.783C157.53 107.484 159.658 110.628 161.187 112.89C161.919 113.983 162.497 114.866 162.923 115.504C163.109 115.789 163.255 116.02 163.375 116.204C163.481 116.36 163.528 116.448 163.521 116.455Z" fill="#161C24" style="mix-blend-mode:multiply"/>
<g opacity="0.3">
<path d="M184.371 147.823C183.627 155.423 185.269 163.246 188.999 169.86C192.722 176.482 198.188 182.377 204.989 185.548C205.209 178.804 204.89 170.859 205.109 164.115L184.371 147.823Z" fill="#1C2530"/>
</g>
<path d="M183.62 138.947C183.62 138.947 180.714 139.769 182.895 145.861C185.076 151.945 185.801 151.579 187.257 157.276C188.713 162.967 190.408 168.169 192.955 171.388C195.501 174.607 204.956 181.168 204.956 181.168L213.44 172.998C213.44 172.998 212.044 166.906 212.376 162.77C212.708 158.635 213.559 148.482 213.44 146.75C213.32 145.018 211.498 140.808 211.498 140.808V137.929L207.137 124.217C207.137 124.217 204.71 123.103 203.866 127.063L202.409 122.859C202.409 122.859 200.109 122.485 199.504 127.314C198.899 132.142 199.989 138.825 199.989 138.825L198.779 147.239L196.964 152.93L195.388 153.175C195.388 153.175 193.015 152.516 191.718 147.952C190.402 143.402 186.891 137.956 183.62 138.947Z" fill="#FFBE9D"/>
<path d="M210.587 160.475C210.581 160.475 210.567 160.366 210.548 160.163C210.534 159.925 210.514 159.626 210.488 159.253C210.441 158.424 210.381 157.276 210.308 155.843C210.175 152.889 209.996 148.774 209.783 143.973L209.823 144.074C209.431 143.599 208.739 143.456 208.107 143.619C207.462 143.776 206.891 144.183 206.532 144.794C205.794 146.01 205.747 147.599 205.521 149.134C205.062 152.604 204.623 155.905 204.225 158.92C204.025 160.421 203.812 161.854 203.52 163.178C203.24 164.502 202.848 165.711 202.469 166.791C202.097 167.871 201.764 168.848 201.558 169.731C201.352 170.614 201.266 171.388 201.286 172.027C201.312 173.303 201.678 173.955 201.618 173.969C201.605 173.976 201.538 173.813 201.412 173.494C201.312 173.168 201.173 172.679 201.146 172.034C201.106 171.388 201.173 170.587 201.366 169.691C201.558 168.794 201.877 167.803 202.237 166.716C202.602 165.629 202.975 164.441 203.24 163.124C203.513 161.813 203.713 160.387 203.905 158.886C204.298 155.871 204.723 152.57 205.175 149.1C205.282 148.326 205.361 147.565 205.494 146.798C205.627 146.037 205.834 145.276 206.246 144.625C206.631 143.959 207.31 143.47 208.028 143.3C208.739 143.117 209.583 143.28 210.069 143.877L210.102 143.925V143.979C210.262 148.781 210.401 152.896 210.501 155.857C210.534 157.29 210.567 158.438 210.587 159.273C210.594 159.646 210.594 159.945 210.594 160.183C210.607 160.366 210.601 160.475 210.587 160.475Z" fill="#EB996E"/>
<path d="M205.954 144.876C205.934 144.883 205.801 144.611 205.594 144.102C205.395 143.592 205.129 142.839 204.883 141.881C204.637 140.93 204.404 139.769 204.271 138.472C204.205 137.82 204.158 137.127 204.238 136.407C204.311 135.687 204.517 134.927 204.969 134.282C205.355 133.725 205.9 133.277 206.519 133.093L206.652 133.052L206.718 133.175C207.948 135.389 209.012 137.344 209.763 138.75C210.109 139.409 210.395 139.959 210.634 140.414C210.834 140.808 210.933 141.025 210.914 141.039C210.894 141.052 210.761 140.849 210.528 140.475C210.269 140.041 209.949 139.504 209.57 138.866C208.766 137.487 207.662 135.558 206.419 133.351L206.618 133.433C206.086 133.596 205.601 133.983 205.255 134.492C204.85 135.076 204.65 135.769 204.577 136.448C204.504 137.134 204.537 137.806 204.597 138.445C204.71 139.728 204.91 140.876 205.129 141.827C205.342 142.777 205.568 143.538 205.727 144.061C205.88 144.577 205.973 144.869 205.954 144.876Z" fill="#EB996E"/>
<path d="M203.925 145.99C203.899 145.99 203.872 145.711 203.846 145.202C203.826 144.618 203.792 143.898 203.759 143.049C203.699 141.229 203.646 138.716 203.606 135.939C203.586 133.161 203.48 130.642 203.712 128.815C203.826 127.905 204.005 127.178 204.165 126.696C204.325 126.207 204.458 125.963 204.478 125.969C204.537 125.99 204.105 127.042 203.952 128.849C203.786 130.648 203.925 133.161 203.945 135.939C203.985 138.716 203.999 141.229 203.999 143.049C203.992 143.898 203.979 144.618 203.972 145.209C203.965 145.711 203.945 145.99 203.925 145.99Z" fill="#EB996E"/>
<path d="M196.752 168.815C196.705 168.774 197.23 168.136 197.889 166.974C198.221 166.397 198.56 165.677 198.873 164.862C199.172 164.034 199.444 163.103 199.631 162.105C199.803 161.1 199.863 160.136 199.863 159.253C199.85 158.37 199.777 157.575 199.664 156.923C199.444 155.606 199.165 154.818 199.225 154.798C199.245 154.791 199.331 154.981 199.464 155.334C199.604 155.687 199.757 156.217 199.903 156.876C200.049 157.541 200.149 158.35 200.182 159.246C200.202 160.149 200.143 161.141 199.97 162.166C199.784 163.192 199.498 164.142 199.172 164.978C198.833 165.806 198.46 166.533 198.095 167.103C197.736 167.674 197.41 168.115 197.157 168.394C196.911 168.686 196.772 168.835 196.752 168.815Z" fill="#EB996E"/>
<path d="M211.645 164.557L219.005 167.164C219.005 167.164 226.033 163.45 230.88 167.164C235.727 170.879 239.936 180.665 238.606 184.624C238.606 184.624 235.262 188.842 232.715 189.46C230.169 190.078 220.275 187.633 216.16 186.743C212.031 185.854 204.943 181.147 204.943 181.147L211.645 164.557Z" fill="#FFBE9D"/>
<path d="M212.549 175.64C212.523 175.64 212.496 175.402 212.469 174.974C212.443 174.465 212.403 173.86 212.363 173.161C212.283 171.626 212.183 169.507 212.15 167.158C212.117 164.808 212.183 162.682 212.323 161.147C212.39 160.38 212.469 159.762 212.543 159.334C212.616 158.906 212.669 158.675 212.696 158.682C212.749 158.689 212.636 159.633 212.563 161.161C212.489 162.689 212.463 164.808 212.496 167.151C212.536 169.446 212.576 171.524 212.602 173.154C212.609 173.922 212.609 174.546 212.596 174.974C212.589 175.402 212.569 175.64 212.549 175.64Z" fill="#EB996E"/>
<path d="M236.824 166.872C236.77 166.927 236.012 165.854 234.377 164.618C232.761 163.382 230.142 162.064 227.043 161.888C223.938 161.718 221.192 162.73 219.457 163.776C217.695 164.821 216.831 165.799 216.784 165.738C216.771 165.725 216.977 165.473 217.389 165.066C217.808 164.658 218.453 164.115 219.331 163.558C221.066 162.438 223.872 161.358 227.063 161.534C230.255 161.718 232.927 163.11 234.53 164.414C235.341 165.066 235.933 165.684 236.298 166.132C236.664 166.587 236.837 166.865 236.824 166.872Z" fill="#161C24" style="mix-blend-mode:multiply"/>
<path d="M235.88 160.604C235.833 160.679 234.849 159.66 232.815 158.879C230.814 158.078 227.709 157.711 224.524 158.628C222.935 159.083 221.479 159.728 220.235 160.448C218.992 161.174 217.955 161.969 217.13 162.689C216.306 163.409 215.674 164.04 215.242 164.475C214.81 164.916 214.571 165.154 214.551 165.141C214.537 165.127 214.743 164.855 215.149 164.38C215.555 163.911 216.16 163.253 216.977 162.499C217.789 161.745 218.826 160.916 220.082 160.163C221.339 159.416 222.815 158.743 224.437 158.281C227.702 157.344 230.887 157.765 232.908 158.641C233.932 159.069 234.69 159.565 235.175 159.945C235.428 160.129 235.594 160.305 235.714 160.414C235.827 160.529 235.887 160.597 235.88 160.604Z" fill="#161C24" style="mix-blend-mode:multiply"/>
<path d="M235.94 155.171C235.92 155.239 234.636 154.838 232.495 154.546C231.425 154.39 230.142 154.302 228.719 154.302C227.296 154.322 225.734 154.444 224.111 154.723C222.496 155.022 220.986 155.456 219.637 155.932C218.3 156.427 217.123 156.957 216.173 157.48C214.264 158.506 213.187 159.327 213.147 159.273C213.134 159.253 213.393 159.042 213.885 158.669C214.125 158.478 214.431 158.261 214.796 158.03C215.162 157.799 215.574 157.514 216.053 157.263C216.997 156.713 218.181 156.156 219.524 155.633C220.88 155.137 222.409 154.689 224.045 154.383C225.687 154.098 227.27 153.983 228.712 153.983C230.155 154.003 231.452 154.118 232.522 154.309C233.061 154.377 233.539 154.506 233.965 154.594C234.39 154.682 234.749 154.784 235.035 154.872C235.627 155.035 235.946 155.144 235.94 155.171Z" fill="#161C24" style="mix-blend-mode:multiply"/>
<path d="M179.531 88.6658C179.531 88.6658 179.87 89.3177 180.043 90.6624C180.223 92.0002 180.196 94.0104 179.764 96.4959C179.545 97.7387 179.252 99.1037 178.813 100.564C178.355 102.024 177.663 103.518 176.878 105.08C175.296 108.204 173.295 111.606 170.988 115.239L170.715 115.667V115.158C170.708 112.761 170.708 110.241 170.702 107.62L170.961 107.749C168.98 109.379 166.899 111.097 164.751 112.869L164.804 112.788C163.368 117.447 162.417 122.635 162.045 128.034C161.44 136.299 161.925 144.204 162.311 151.375C162.637 158.553 162.85 165.025 163.069 170.451C163.282 175.884 163.474 180.271 163.634 183.307C163.72 184.808 163.787 185.983 163.834 186.798C163.86 187.185 163.88 187.483 163.893 187.708C163.907 187.911 163.9 188.02 163.9 188.02C163.9 188.02 163.88 187.918 163.853 187.714C163.834 187.497 163.8 187.191 163.76 186.811C163.687 186.017 163.594 184.835 163.494 183.321C163.295 180.285 163.062 175.898 162.823 170.465C162.584 165.032 162.304 158.567 161.985 151.395C161.586 144.231 161.088 136.306 161.693 128.014C162.072 122.594 163.022 117.379 164.478 112.693L164.492 112.645L164.532 112.611C166.679 110.846 168.767 109.134 170.748 107.504L171.008 107.294V107.633C171.001 110.248 171.001 112.767 170.994 115.172L170.722 115.09C175.289 107.857 179.006 101.569 179.578 96.4824C180.037 94.0172 180.09 92.0274 179.937 90.6895C179.87 90.0172 179.744 89.5215 179.664 89.1819C179.578 88.8423 179.531 88.6658 179.531 88.6658Z" fill="#161C24" style="mix-blend-mode:multiply"/>
<path d="M167.61 176.271L167.37 176.264C166.406 176.292 165.549 177.188 165.549 178.173C165.549 179.157 166.4 180.061 167.357 180.095C168.321 180.129 169.232 179.286 169.292 178.309C169.358 177.324 168.567 176.366 167.61 176.271Z" fill="white"/>
<path d="M167.61 150.098L167.37 150.091C166.406 150.118 165.549 151.015 165.549 152C165.549 152.984 166.4 153.888 167.357 153.921C168.321 153.955 169.232 153.113 169.292 152.135C169.358 151.151 168.567 150.193 167.61 150.098Z" fill="white"/>
<path d="M167.357 126.682C168.321 126.716 169.232 125.874 169.292 124.896C169.359 123.918 168.561 122.961 167.603 122.866L167.364 122.859C166.4 122.886 165.542 123.782 165.542 124.767C165.549 125.745 166.4 126.648 167.357 126.682Z" fill="white"/>
<path d="M138.654 57.9969C136.321 55.362 133.974 52.693 132.271 49.5963C130.569 46.4995 129.559 42.8799 130.124 39.3756C130.45 37.3247 131.307 35.3757 131.44 33.3044C131.626 30.4521 130.45 27.4708 131.44 24.8019C132.989 20.6253 138.495 19.9802 141.832 17.0939C144.432 14.8461 145.695 11.1992 148.561 9.30451C151.061 7.65427 154.272 7.68823 157.218 8.11607C160.163 8.54391 163.129 9.30452 166.081 8.89705C168.182 8.60503 170.163 7.74256 172.224 7.21964C174.285 6.69672 176.579 6.5609 178.414 7.64748C180.249 8.73406 181.28 11.3962 180.076 13.1822C183.494 11.5728 187.835 14.296 188.773 18.0175C189.71 21.7391 187.835 25.7662 184.937 28.2178C182.038 30.6762 178.294 31.8171 174.598 32.5302C164.126 34.5471 152.77 33.4062 143.747 27.6202" fill="#161C24" style="mix-blend-mode:multiply"/>
<path d="M175.462 93.956C174.95 89.9085 174.531 86.5333 174.504 86.1122C174.504 86.1122 187.749 83.0698 187.017 69.3925C186.665 62.7847 184.85 49.2228 183.075 36.9784C181.166 23.8308 169.671 14.3911 156.685 15.274L155.396 15.3622C141.526 17.1415 135.263 30.1737 137.391 44.2789L144.871 91.5927C144.871 91.5927 148.062 102.058 154.897 103.871L163.514 116.448L164.937 111.036L171.359 105.324C171.359 105.324 172.835 103.694 174.524 100.509C175.927 97.9016 175.635 95.2259 175.462 93.956Z" fill="#FFBE9D"/>
<path d="M174.518 85.9085C174.518 85.9085 166.107 87.1921 156.739 82.0376C156.739 82.0376 161.506 91.5927 174.777 89.4467L174.518 85.9085Z" fill="#EB996E"/>
<path d="M178.78 48.7336C178.886 49.7591 178.115 50.6963 177.064 50.8321C176.014 50.9611 175.083 50.2345 174.977 49.209C174.877 48.1836 175.641 47.2396 176.685 47.1106C177.742 46.9747 178.673 47.7014 178.78 48.7336Z" fill="#161C24" style="mix-blend-mode:multiply"/>
<path d="M180.648 43.8849C180.429 44.1565 178.906 43.1582 176.851 43.3076C174.797 43.4231 173.354 44.6047 173.115 44.367C172.995 44.2584 173.208 43.783 173.833 43.2533C174.451 42.7236 175.522 42.1735 176.805 42.092C178.088 42.0105 179.199 42.418 179.85 42.873C180.508 43.3144 180.754 43.7626 180.648 43.8849Z" fill="#161C24" style="mix-blend-mode:multiply"/>
<path d="M159.352 50.1531C159.458 51.1785 158.687 52.1157 157.636 52.2515C156.586 52.3806 155.655 51.6539 155.549 50.6285C155.449 49.603 156.214 48.659 157.258 48.53C158.315 48.3942 159.246 49.1208 159.352 50.1531Z" fill="#161C24" style="mix-blend-mode:multiply"/>
<path d="M160.456 45.6573C160.236 45.929 158.714 44.9307 156.659 45.0801C154.605 45.1955 153.162 46.3772 152.923 46.1395C152.803 46.0308 153.016 45.5555 153.641 45.0257C154.252 44.496 155.33 43.946 156.606 43.8645C157.889 43.783 159 44.1904 159.651 44.6454C160.323 45.0869 160.569 45.5351 160.456 45.6573Z" fill="#161C24" style="mix-blend-mode:multiply"/>
<path d="M168.94 60.727C168.92 60.6115 170.183 60.2923 172.237 59.8849C172.756 59.7966 173.248 59.654 173.315 59.2804C173.414 58.8866 173.155 58.3229 172.862 57.7117C172.284 56.4486 171.679 55.1243 171.041 53.7321C168.501 48.0615 166.626 43.3892 166.852 43.2873C167.078 43.1855 169.319 47.6948 171.852 53.3654C172.464 54.7643 173.049 56.0954 173.607 57.3721C173.846 57.9698 174.232 58.6353 174.019 59.457C173.906 59.8645 173.541 60.1837 173.208 60.2991C172.876 60.4282 172.583 60.4553 172.324 60.4893C170.249 60.7473 168.96 60.8424 168.94 60.727Z" fill="#161C24" style="mix-blend-mode:multiply"/>
<path d="M160.449 37.3856C160.282 37.9697 158.215 37.8407 155.821 38.3025C153.421 38.7167 151.519 39.5724 151.167 39.0766C151.007 38.839 151.313 38.2821 152.064 37.6709C152.809 37.0665 154.019 36.4553 155.455 36.1904C156.891 35.9323 158.235 36.075 159.139 36.3806C160.043 36.693 160.515 37.114 160.449 37.3856Z" fill="#161C24" style="mix-blend-mode:multiply"/>
<path d="M179.491 37.8543C179.158 38.3569 177.709 37.9562 176.007 38.0513C174.298 38.0852 172.882 38.5878 172.516 38.1124C172.357 37.8815 172.549 37.3858 173.154 36.89C173.746 36.401 174.763 35.9596 175.934 35.9121C177.104 35.8713 178.148 36.2313 178.773 36.6795C179.404 37.1345 179.637 37.6099 179.491 37.8543Z" fill="#161C24" style="mix-blend-mode:multiply"/>
<path d="M139.153 54.3297C138.92 54.2414 129.778 52.1769 130.683 61.5079C131.587 70.8321 141.48 67.7965 141.474 67.5249C141.46 67.2532 139.153 54.3297 139.153 54.3297Z" fill="#FFBE9D"/>
<path d="M137.424 64.4621C137.384 64.435 137.278 64.5912 137.018 64.7474C136.766 64.8968 136.327 65.0258 135.835 64.89C134.838 64.6251 133.874 63.1447 133.667 61.4673C133.561 60.6184 133.661 59.7966 133.887 59.0971C134.1 58.3841 134.485 57.868 134.964 57.7321C135.436 57.5691 135.808 57.834 135.948 58.0853C136.094 58.3365 136.054 58.5267 136.108 58.5335C136.134 58.5539 136.287 58.3569 136.181 57.9766C136.128 57.7933 135.995 57.5827 135.762 57.4265C135.523 57.2635 135.197 57.2092 134.858 57.2771C134.159 57.3994 133.588 58.126 133.335 58.8934C133.043 59.6676 132.916 60.598 133.036 61.5487C133.275 63.4231 134.386 65.0869 135.749 65.3382C136.407 65.4469 136.925 65.1956 137.178 64.9443C137.424 64.6862 137.457 64.4757 137.424 64.4621Z" fill="#EB996E"/>
<path d="M182.41 24.2382C181.785 27.9529 174.412 31.3485 168.301 31.1719C162.67 31.0022 159.884 28.1499 155.788 26.1193C153.195 24.8358 153.195 24.8358 149.685 25.4199C146.839 25.8952 145.37 29.318 143.767 31.7696C146.806 38.5403 145.576 46.4112 144.293 53.7457C144.153 54.5538 143.973 55.4299 143.368 55.9732C142.344 56.8968 140.676 56.3467 139.672 55.4027C138.056 53.8883 137.318 51.6472 136.793 49.4808C135.589 44.5369 135.124 39.3553 135.888 34.3162C136.653 29.2772 138.694 24.3876 142.065 20.6253C146.274 15.9259 152.431 13.2162 158.661 12.8902C164.891 12.5643 171.147 14.5337 176.36 18.0243C178.78 19.6338 181.04 21.6304 182.41 24.2382Z" fill="#161C24" style="mix-blend-mode:multiply"/>
<path d="M170.282 65.4467C168.733 64.7065 167.177 63.9662 165.628 63.2328C165.362 63.1037 165.076 62.9747 164.784 63.0155C164.451 63.063 164.192 63.3143 163.979 63.5723C162.902 64.9102 162.63 66.9204 163.461 68.428C164.299 69.9356 166.26 70.7302 167.829 70.0647C169.478 69.3652 170.282 67.4093 170.409 65.5893L170.282 65.4467Z" fill="#EB996E"/>
<path d="M167.976 70.4044C167.989 70.4451 167.763 70.5809 167.298 70.6828C166.839 70.7711 166.121 70.8118 165.296 70.5334C164.478 70.2685 163.554 69.6166 162.982 68.5707C162.404 67.5521 162.191 66.1191 162.697 64.822C162.936 64.1769 163.315 63.6064 163.774 63.1582C164.006 62.9341 164.252 62.7439 164.532 62.5742C164.678 62.4927 164.857 62.4112 165.07 62.3976C165.276 62.384 165.462 62.4384 165.609 62.5063C165.915 62.6421 166.107 62.7915 166.333 62.9273C166.553 63.0631 166.759 63.199 166.965 63.328C167.364 63.586 167.743 63.8237 168.095 64.0546C169.478 64.9511 170.303 65.5419 170.256 65.6302C170.21 65.7117 169.292 65.2703 167.849 64.4893C167.484 64.2855 167.091 64.0682 166.673 63.8373C166.46 63.7151 166.24 63.5928 166.021 63.4706C165.802 63.3484 165.556 63.1922 165.363 63.1175C165.15 63.0428 165.057 63.0496 164.851 63.165C164.645 63.294 164.425 63.4706 164.239 63.6608C163.853 64.0478 163.541 64.53 163.335 65.0801C162.909 66.1735 163.062 67.3619 163.534 68.2651C164 69.1752 164.751 69.7728 165.456 70.0716C166.167 70.3772 166.819 70.4179 167.258 70.4179C167.71 70.3976 167.962 70.35 167.976 70.4044Z" fill="#161C24" style="mix-blend-mode:multiply"/>
<path d="M166.513 48.9647C166.46 48.9715 166.519 48.0955 166.147 46.6014C165.781 45.1413 164.824 42.9885 162.67 41.3179C161.599 40.503 160.256 39.8171 158.707 39.5387C157.171 39.2738 155.429 39.3213 153.78 39.9665C152.949 40.2653 152.145 40.7067 151.413 41.2704C150.669 41.8205 149.99 42.5064 149.432 43.3009C148.282 44.8697 147.63 46.8799 147.61 48.9512C147.63 51.0225 148.275 53.0394 149.432 54.6082C149.99 55.4027 150.669 56.0886 151.413 56.6455C152.151 57.2092 152.949 57.6574 153.78 57.9494C155.429 58.5946 157.171 58.6421 158.707 58.3772C160.256 58.0988 161.599 57.4129 162.67 56.598C164.824 54.9341 165.781 52.7814 166.147 51.3145C166.519 49.834 166.453 48.9647 166.513 48.9647C166.519 48.9647 166.519 49.0191 166.519 49.1209C166.519 49.25 166.513 49.3994 166.513 49.5827C166.513 49.7865 166.499 50.0377 166.453 50.3366C166.413 50.6354 166.38 50.9749 166.273 51.3552C166.12 52.1158 165.781 53.019 165.243 53.9834C164.698 54.9409 163.906 55.946 162.816 56.8017C161.732 57.6506 160.356 58.3705 158.76 58.6693C157.178 58.9545 155.383 58.9137 153.674 58.2618C152.81 57.963 151.978 57.5012 151.214 56.9172C150.443 56.3467 149.738 55.6404 149.159 54.8187C147.963 53.1956 147.284 51.1107 147.264 48.958C147.284 46.8052 147.963 44.7203 149.159 43.0972C149.738 42.2755 150.443 41.5692 151.214 40.9987C151.978 40.4215 152.81 39.9597 153.674 39.6609C155.383 39.0022 157.178 38.9614 158.76 39.2534C160.356 39.5522 161.732 40.2789 162.816 41.121C163.906 41.9767 164.698 42.9818 165.243 43.9393C165.781 44.9036 166.12 45.8069 166.273 46.5675C166.38 46.941 166.413 47.2873 166.453 47.5861C166.499 47.885 166.513 48.1362 166.513 48.34C166.513 48.5233 166.519 48.6795 166.519 48.8018C166.519 48.9104 166.513 48.9647 166.513 48.9647Z" fill="#161C24" style="mix-blend-mode:multiply"/>
<path d="M189.278 48.0548C189.225 48.0616 189.285 47.2059 188.919 45.7526C188.56 44.3265 187.629 42.228 185.528 40.6117C184.491 39.8172 183.181 39.1448 181.672 38.88C180.176 38.6219 178.481 38.6695 176.872 39.301C176.061 39.5863 175.283 40.0209 174.565 40.571C173.84 41.1075 173.182 41.7798 172.636 42.554C171.513 44.082 170.881 46.0378 170.861 48.0616C170.881 50.0854 171.513 52.0412 172.63 53.5692C173.175 54.3434 173.833 55.0089 174.558 55.5522C175.276 56.1023 176.054 56.5369 176.865 56.8222C178.474 57.4469 180.163 57.5013 181.666 57.2364C183.175 56.9648 184.485 56.2924 185.522 55.5047C187.623 53.8816 188.554 51.7899 188.906 50.3638C189.285 48.8969 189.225 48.048 189.278 48.0548C189.292 48.0548 189.292 48.2653 189.285 48.6592C189.285 48.8562 189.278 49.1074 189.232 49.3927C189.192 49.6847 189.159 50.0174 189.059 50.3842C188.733 51.8375 187.822 54.0038 185.688 55.6948C184.631 56.5233 183.288 57.2296 181.732 57.5148C180.189 57.7933 178.441 57.7525 176.772 57.1142C175.934 56.8222 175.123 56.3739 174.378 55.8035C173.627 55.2466 172.942 54.5607 172.377 53.7594C171.207 52.177 170.549 50.1465 170.535 48.048C170.555 45.9496 171.214 43.919 172.384 42.3367C172.949 41.5353 173.634 40.8426 174.385 40.2925C175.13 39.7289 175.941 39.2807 176.779 38.9886C178.447 38.3503 180.196 38.3095 181.739 38.588C183.294 38.88 184.638 39.5863 185.695 40.408C187.829 42.099 188.74 44.2586 189.066 45.7187C189.165 46.0854 189.205 46.4181 189.238 46.7102C189.285 46.9954 189.298 47.2467 189.292 47.4436C189.292 47.8443 189.292 48.0548 189.278 48.0548Z" fill="#161C24" style="mix-blend-mode:multiply"/>
<path d="M170.701 45.9019C170.661 45.9426 170.442 45.7525 170.043 45.5555C169.644 45.3586 169.046 45.1685 168.367 45.182C167.696 45.1888 167.098 45.4061 166.705 45.6167C166.306 45.8272 166.1 46.0241 166.06 45.9902C166.027 45.963 166.18 45.6914 166.579 45.4061C166.971 45.1209 167.609 44.8425 168.361 44.8289C169.105 44.8153 169.757 45.0666 170.163 45.3382C170.562 45.6167 170.728 45.8747 170.701 45.9019Z" fill="#161C24" style="mix-blend-mode:multiply"/>
<path d="M148.016 47.5862C148.075 47.6677 146.207 49.1889 143.847 50.9817C141.486 52.7814 139.532 54.1736 139.472 54.0989C139.412 54.0174 141.28 52.5029 143.641 50.7033C146.001 48.8969 147.962 47.5047 148.016 47.5862Z" fill="#161C24" style="mix-blend-mode:multiply"/>
<g opacity="0.3">
<path d="M140.15 91.7827C139.226 100.998 142.657 110.73 149.89 116.312C150.456 116.754 151.174 117.182 151.839 116.937C152.304 116.767 152.603 116.312 152.849 115.871C154.91 112.224 155.602 108.197 155.01 104.027C153.866 107.11 152.882 110.132 151.726 113.358C145.416 109.453 141.486 101.141 140.15 91.7827Z" fill="#1C2530"/>
</g>
<path opacity="0.3" d="M164.651 112.74L169.964 110.757L170.841 119.932C170.841 119.932 176.573 109.263 178.946 104.394C181.32 99.5246 180.097 90.9338 180.097 90.9338C180.097 90.9338 180.948 98.4177 175.203 107.959L170.868 115.158V107.62L164.651 112.74Z" fill="#1C2530"/>
<g opacity="0.3">
<path d="M102.87 159.368C100.503 158.227 97.7773 158.071 95.1776 158.383C92.4317 158.709 89.6724 159.572 87.5182 161.344C85.364 163.117 83.9079 165.915 84.1739 168.726L84.4398 168.767C86.2948 163.647 89.9783 159.918 94.7322 159.463C99.4861 159.015 104.12 161.175 107.385 164.733C107.066 162.071 105.237 160.509 102.87 159.368Z" fill="#1C2530"/>
</g>
<g opacity="0.3">
<path d="M237.17 164.604C235.388 162.641 232.888 161.453 230.308 160.991C225.78 160.183 220.92 161.623 217.509 164.774L218.52 163.932C221.093 162.39 224.058 161.48 227.043 161.568C230.022 161.657 233.007 162.784 235.168 164.882C237.156 166.818 238.346 169.426 239.483 171.972C239.929 169.337 238.945 166.567 237.17 164.604Z" fill="#1C2530"/>
</g>
<path d="M202.935 121.996C202.915 121.99 203.001 121.725 203.174 121.256C203.38 120.72 203.633 120.061 203.932 119.28C204.577 117.616 205.455 115.314 206.392 112.761C207.323 110.2 208.128 107.871 208.706 106.18C208.979 105.392 209.211 104.727 209.398 104.183C209.564 103.715 209.67 103.457 209.69 103.464C209.71 103.47 209.65 103.742 209.524 104.224C209.398 104.706 209.198 105.406 208.939 106.261C208.42 107.973 207.649 110.323 206.718 112.883C205.787 115.443 204.863 117.732 204.165 119.375C203.813 120.197 203.52 120.856 203.307 121.311C203.081 121.759 202.955 122.003 202.935 121.996Z" fill="#161C24" style="mix-blend-mode:multiply"/>
<path d="M119.114 122.662C119.021 122.682 118.296 119.45 117.498 115.443C116.7 111.436 116.128 108.176 116.221 108.156C116.314 108.136 117.039 111.368 117.837 115.375C118.635 119.382 119.207 122.642 119.114 122.662Z" fill="#161C24" style="mix-blend-mode:multiply"/>
<path d="M117.857 163.062C118.069 163.171 115.423 141.901 115.423 141.901C115.423 141.901 117.092 125.759 118.029 125.012L118.056 119.314C118.056 119.314 120.642 117.711 121.334 120.299C121.334 120.299 123.628 118.268 124.027 123.103C124.426 127.945 124.512 132.889 124.512 132.889L129.612 145.915L130.449 146.349C130.449 146.349 131.546 136.142 132.185 134.642C132.823 133.141 133.262 129.487 135.675 130.037C138.096 130.587 138.295 132.631 137.863 135.959C137.431 139.287 136.885 142.723 137.092 144.876C137.291 147.029 138.248 151.762 137.956 155.517C137.663 159.28 135.649 163.246 133.528 166.03C131.413 168.815 127.371 174.573 125.17 176.312C124.399 176.916 117.857 163.062 117.857 163.062Z" fill="#FFBE9D"/>
<path d="M120.43 145.752C120.403 145.752 120.41 145.426 120.443 144.842C120.489 144.19 120.543 143.361 120.609 142.37C120.762 140.285 121.001 137.405 121.287 134.227C121.434 132.645 121.573 131.13 121.699 129.752C121.766 129.066 121.806 128.421 121.719 127.83C121.64 127.239 121.414 126.73 121.081 126.363C120.41 125.616 119.539 125.426 119 125.433C118.435 125.426 118.142 125.582 118.129 125.548C118.122 125.535 118.196 125.501 118.335 125.439C118.481 125.385 118.701 125.317 118.993 125.297C119.565 125.256 120.496 125.406 121.261 126.2C121.64 126.594 121.906 127.164 121.999 127.789C122.105 128.421 122.065 129.093 122.012 129.786C121.892 131.171 121.759 132.679 121.626 134.268C121.34 137.446 121.061 140.319 120.848 142.397C120.735 143.382 120.642 144.21 120.569 144.855C120.509 145.433 120.456 145.752 120.43 145.752Z" fill="#EB996E"/>
<path d="M123.176 137.052C123.223 137.093 122.658 137.603 122.272 138.73C121.86 139.837 121.713 141.507 121.421 143.321C121.148 145.141 120.876 146.784 120.67 147.966C120.457 149.154 120.304 149.881 120.257 149.874C120.211 149.867 120.277 149.12 120.43 147.925C120.576 146.73 120.809 145.08 121.082 143.26C121.368 141.453 121.554 139.776 122.046 138.628C122.279 138.058 122.558 137.643 122.784 137.385C123.003 137.141 123.163 137.039 123.176 137.052Z" fill="#EB996E"/>
<path d="M121.301 120.013C121.327 120.007 121.387 120.244 121.48 120.686C121.573 121.12 121.686 121.752 121.813 122.54C122.065 124.108 122.345 126.288 122.524 128.713C122.697 131.137 122.737 133.338 122.71 134.927C122.697 135.721 122.677 136.366 122.644 136.808C122.617 137.249 122.591 137.494 122.564 137.494C122.511 137.494 122.504 136.509 122.464 134.927C122.425 133.338 122.351 131.151 122.179 128.74C122.006 126.329 121.766 124.149 121.573 122.574C121.381 120.998 121.248 120.027 121.301 120.013Z" fill="#EB996E"/>
<path d="M136.015 139.959C136.068 140.04 135.27 140.414 134.299 140.108C133.322 139.81 132.87 139.042 132.956 139.008C133.036 138.94 133.541 139.518 134.399 139.776C135.25 140.047 135.988 139.857 136.015 139.959Z" fill="#EB996E"/>
<path d="M118.143 160.414L104.666 166.2H96.6339C96.6339 166.2 88.6952 168.733 87.4718 176.332C86.2484 183.938 86.0756 187.85 89.5662 188.787C93.0568 189.724 102.917 189.833 107.804 188.176C112.691 186.519 125.49 175.966 125.49 175.966L126.726 168.332L118.143 160.414Z" fill="#FFBE9D"/>
<path d="M121.301 168.815C121.281 168.828 121.148 168.706 120.915 168.455C120.676 168.217 120.383 167.823 120.038 167.321C119.373 166.302 118.641 164.76 118.156 162.967C117.651 161.175 117.438 159.497 117.325 158.288C117.225 157.08 117.225 156.326 117.272 156.319C117.325 156.312 117.405 157.059 117.564 158.254C117.737 159.45 117.99 161.1 118.482 162.866C118.961 164.638 119.639 166.152 120.237 167.185C120.856 168.217 121.348 168.774 121.301 168.815Z" fill="#EB996E"/>
<path d="M127.165 171.232C127.092 171.205 127.697 170.159 127.93 168.278C128.043 167.348 128.03 166.213 127.77 164.998C127.511 163.782 126.946 162.533 126.121 161.365C125.304 160.19 124.379 159.171 123.608 158.186C122.824 157.202 122.199 156.244 121.786 155.375C121.374 154.506 121.181 153.738 121.108 153.202C121.042 152.665 121.068 152.366 121.088 152.366C121.155 152.353 121.135 153.582 122.006 155.259C122.431 156.095 123.07 157.018 123.854 157.976C124.639 158.94 125.569 159.959 126.407 161.154C127.252 162.342 127.843 163.66 128.089 164.916C128.342 166.173 128.322 167.348 128.176 168.298C128.03 169.256 127.77 169.996 127.557 170.485C127.458 170.73 127.358 170.913 127.285 171.035C127.218 171.178 127.178 171.239 127.165 171.232Z" fill="#EB996E"/>
<path d="M106.394 138.085C106.308 138.132 104.838 135.395 103.11 131.98C101.381 128.564 100.051 125.759 100.131 125.711C100.218 125.664 101.687 128.401 103.416 131.817C105.144 135.239 106.474 138.044 106.394 138.085Z" fill="white"/>
<path d="M128.189 113.311C128.103 113.27 129.013 110.995 130.217 108.224C131.427 105.453 132.478 103.24 132.564 103.28C132.65 103.321 131.739 105.596 130.536 108.367C129.326 111.131 128.275 113.345 128.189 113.311Z" fill="white"/>
<path d="M149.525 129.392C149.452 129.453 148.083 127.891 146.473 125.902C144.858 123.912 143.615 122.248 143.688 122.187C143.761 122.126 145.13 123.688 146.739 125.677C148.355 127.667 149.598 129.331 149.525 129.392Z" fill="white"/>
<path d="M144.618 151.511C144.539 151.457 145.569 149.867 146.919 147.966C148.269 146.064 149.425 144.57 149.499 144.631C149.578 144.686 148.548 146.275 147.198 148.176C145.848 150.071 144.698 151.565 144.618 151.511Z" fill="white"/>
<path d="M138.01 182.757C137.97 182.777 137.664 182.261 137.232 181.392C136.793 180.522 136.228 179.307 135.662 177.942C135.091 176.57 134.632 175.314 134.319 174.39C134.014 173.467 133.854 172.882 133.901 172.869C133.947 172.855 134.186 173.405 134.552 174.302C134.971 175.32 135.45 176.502 135.982 177.806C136.527 179.103 137.025 180.271 137.458 181.29C137.83 182.173 138.056 182.73 138.01 182.757Z" fill="white"/>
<path d="M156.786 169.473C156.766 169.568 154.957 169.29 152.75 168.855C150.536 168.421 148.761 167.986 148.781 167.891C148.801 167.796 150.609 168.074 152.817 168.509C155.024 168.944 156.806 169.378 156.786 169.473Z" fill="white"/>
<path d="M171.346 140.278C171.273 140.21 173.002 138.2 175.196 135.776C177.39 133.358 179.232 131.45 179.298 131.518C179.372 131.586 177.643 133.596 175.449 136.02C173.255 138.438 171.42 140.346 171.346 140.278Z" fill="white"/>
<path d="M186.001 179.212C185.928 179.273 183.78 176.733 181.2 173.534C178.621 170.336 176.593 167.694 176.666 167.633C176.739 167.572 178.887 170.112 181.466 173.31C184.046 176.509 186.074 179.151 186.001 179.212Z" fill="white"/>
<path d="M95.0516 162.621C95.0981 162.716 93.1367 163.735 90.9958 165.412C88.8482 167.076 87.3655 168.747 87.2858 168.672C87.2525 168.645 87.5783 168.19 88.19 167.517C88.795 166.852 89.6993 165.983 90.783 165.134C91.8668 164.292 92.9306 163.633 93.7218 163.205C94.5197 162.784 95.0316 162.58 95.0516 162.621Z" fill="white"/>
<path d="M100.53 147.613C100.61 147.667 99.9117 148.883 98.9676 150.329C98.0235 151.776 97.199 152.903 97.1192 152.849C97.0395 152.794 97.7376 151.579 98.6817 150.132C99.6258 148.686 100.45 147.558 100.53 147.613Z" fill="white"/>
<path d="M112.876 162.349C112.803 162.397 112.105 161.209 111.746 159.558C111.374 157.915 111.5 156.536 111.587 156.543C111.693 156.543 111.726 157.881 112.085 159.477C112.431 161.079 112.97 162.302 112.876 162.349Z" fill="white"/>
<path d="M114.706 115.545C114.719 115.64 113.575 115.891 112.146 116.095C110.716 116.306 109.546 116.394 109.533 116.292C109.52 116.197 110.663 115.946 112.093 115.742C113.522 115.538 114.692 115.443 114.706 115.545Z" fill="white"/>
<path d="M123.974 98.7506C124.021 98.8389 123.017 99.4977 121.733 100.224C120.45 100.951 119.366 101.474 119.32 101.386C119.273 101.297 120.277 100.639 121.561 99.9119C122.85 99.1853 123.928 98.6692 123.974 98.7506Z" fill="white"/>
<path d="M150.044 105.847C149.971 105.908 148.821 104.496 147.478 102.696C146.135 100.897 145.111 99.3958 145.19 99.3347C145.264 99.2736 146.414 100.686 147.757 102.486C149.093 104.279 150.117 105.786 150.044 105.847Z" fill="white"/>
<path d="M183.135 122.73C183.069 122.791 181.858 121.521 180.741 119.674C179.611 117.827 179.033 116.163 179.113 116.129C179.206 116.088 179.924 117.671 181.034 119.491C182.138 121.304 183.215 122.662 183.135 122.73Z" fill="white"/>
<path d="M195.768 126.981C195.854 127.022 195.243 128.598 194.398 130.492C193.554 132.394 192.802 133.901 192.709 133.861C192.623 133.82 193.235 132.244 194.079 130.35C194.923 128.448 195.681 126.941 195.768 126.981Z" fill="white"/>
<path d="M197.529 109.372C197.456 109.433 195.953 107.715 194.172 105.528C192.39 103.341 191.007 101.515 191.08 101.453C191.153 101.392 192.656 103.111 194.438 105.297C196.219 107.491 197.602 109.311 197.529 109.372Z" fill="white"/>
<path d="M178.241 95.0698C178.148 95.0765 178.008 93.6029 177.942 91.7761C177.869 89.956 177.895 88.4756 177.989 88.4688C178.082 88.462 178.221 89.9357 178.288 91.7625C178.354 93.5825 178.334 95.063 178.241 95.0698Z" fill="white"/>
<path d="M193.972 94.18C193.986 94.2751 192.144 94.6079 189.87 94.9202C187.59 95.2326 185.735 95.4024 185.721 95.3073C185.708 95.2123 187.543 94.8795 189.824 94.5671C192.097 94.2547 193.959 94.0781 193.972 94.18Z" fill="white"/>
<path d="M218.746 112.767C218.659 112.808 217.555 110.655 216.272 107.959C214.996 105.263 214.025 103.036 214.111 102.995C214.198 102.954 215.301 105.107 216.585 107.803C217.861 110.499 218.832 112.72 218.746 112.767Z" fill="white"/>
<path d="M214.57 128.829C214.477 128.808 214.737 127.076 215.149 124.964C215.561 122.846 215.973 121.148 216.066 121.168C216.16 121.189 215.9 122.92 215.488 125.032C215.076 127.144 214.664 128.842 214.57 128.829Z" fill="white"/>
<path d="M226.059 141.487C225.966 141.521 225.089 139.185 224.085 136.272C223.087 133.358 222.349 130.968 222.442 130.934C222.536 130.9 223.413 133.236 224.417 136.149C225.415 139.069 226.153 141.453 226.059 141.487Z" fill="white"/>
<path d="M224.464 148.889C224.444 148.978 222.855 148.638 221.106 147.66C219.351 146.696 218.201 145.521 218.267 145.46C218.334 145.378 219.557 146.411 221.272 147.355C222.974 148.305 224.49 148.788 224.464 148.889Z" fill="white"/>
<path d="M239.184 165.779C239.098 165.82 238.566 164.787 237.994 163.477C237.423 162.166 237.03 161.073 237.117 161.032C237.203 160.991 237.735 162.023 238.307 163.334C238.879 164.645 239.271 165.738 239.184 165.779Z" fill="white"/>
<path d="M152.245 189.33C152.152 189.344 151.919 187.993 151.726 186.322C151.533 184.651 151.46 183.286 151.553 183.273C151.646 183.259 151.879 184.611 152.072 186.281C152.265 187.952 152.338 189.317 152.245 189.33Z" fill="white"/>
<path d="M197.41 188.163C197.317 188.142 197.51 186.825 197.842 185.222C198.175 183.619 198.52 182.336 198.614 182.356C198.707 182.377 198.514 183.694 198.181 185.297C197.849 186.899 197.503 188.183 197.41 188.163Z" fill="white"/>
<path d="M206.066 53.5012L211.904 42.9885C209.318 38.7033 207.828 33.6643 207.828 28.2654C207.828 12.7341 220.155 0.143311 235.361 0.143311C250.567 0.143311 262.894 12.7341 262.894 28.2654C262.894 43.7967 250.567 56.3874 235.361 56.3874C229.011 56.3874 223.167 54.1871 218.513 50.4995L218.52 50.5131L206.066 53.5012Z" fill="#F6F8FA"/>
<path d="M206.066 53.5013C206.658 53.3655 210.601 52.4419 218.54 50.5879L218.666 50.5607L218.586 50.4521L218.579 50.4385L218.46 50.5607C220.029 51.8035 221.911 53.0259 224.125 54.0514C226.339 55.0565 228.878 55.8714 231.678 56.2517C233.074 56.4351 234.537 56.5505 236.039 56.4758C236.791 56.4351 237.555 56.4147 238.326 56.3468C239.091 56.2313 239.869 56.1091 240.653 55.9868C243.772 55.3553 246.957 54.1464 249.935 52.2653C252.907 50.3842 255.66 47.8375 257.867 44.7068C260.068 41.5761 261.737 37.8681 262.521 33.841C263.293 29.8138 263.233 25.5015 262.196 21.3249C261.152 17.162 259.204 13.1009 256.291 9.75962L255.168 8.49648C254.795 8.06864 254.357 7.72229 253.958 7.3284C253.539 6.96168 253.16 6.54063 252.708 6.21466L251.385 5.20278C250.959 4.84964 250.487 4.56441 250.015 4.27918C249.55 3.98716 249.084 3.70194 248.619 3.40992C248.127 3.16544 247.641 2.92775 247.156 2.68327C246.664 2.45237 246.192 2.18072 245.68 2.01095C241.677 0.387867 237.416 -0.230128 233.333 0.0754733C229.251 0.374283 225.348 1.56952 222.004 3.49821C218.646 5.40651 215.814 7.95997 213.626 10.8055C211.432 13.6577 209.889 16.7952 208.932 19.9259C207.981 23.0702 207.722 26.1874 207.735 29.0736C207.815 31.9666 208.334 34.6355 209.085 36.9717C209.836 39.3146 210.827 41.3316 211.844 43.0226V42.9411C208.154 49.6915 206.352 52.9852 206.066 53.5013C206.359 52.9852 208.201 49.7186 211.977 43.0294L212.004 42.9886L211.977 42.9479C210.973 41.2569 210.002 39.2467 209.264 36.9174C208.533 34.588 208.028 31.9462 207.961 29.0736C207.961 26.2077 208.227 23.1246 209.178 20.0142C210.135 16.9175 211.671 13.8139 213.846 10.9956C216.013 8.18408 218.819 5.66457 222.143 3.78343C225.454 1.88192 229.317 0.707048 233.346 0.41503C237.376 0.123011 241.591 0.734211 245.54 2.33692C246.046 2.4999 246.511 2.77155 246.996 3.00245C247.475 3.24014 247.961 3.47783 248.439 3.72231C248.898 4.00754 249.357 4.29277 249.816 4.57799C250.281 4.86322 250.746 5.14166 251.165 5.49479L252.468 6.49309C252.914 6.81227 253.286 7.22653 253.698 7.59326C254.091 7.98035 254.53 8.3267 254.895 8.74775L256.006 9.99732C258.885 13.2978 260.806 17.3114 261.837 21.42C262.86 25.5422 262.927 29.807 262.169 33.7866C261.398 37.7662 259.756 41.4402 257.581 44.5302C255.407 47.6338 252.688 50.16 249.749 52.0208C246.81 53.8952 243.659 55.0972 240.574 55.7288C239.796 55.851 239.025 55.9733 238.273 56.0887C237.509 56.1566 236.751 56.177 236.013 56.2245C234.523 56.306 233.074 56.1906 231.691 56.014C228.912 55.6473 226.392 54.8459 224.191 53.8612C221.99 52.8561 220.115 51.6541 218.546 50.4317L218.034 50.031L218.427 50.5539L218.433 50.5675L218.48 50.4317C210.588 52.3808 206.658 53.3587 206.066 53.5013Z" fill="#161C24" style="mix-blend-mode:multiply"/>
<path d="M242.794 27.0905C242.794 28.6049 243.998 29.8409 245.487 29.8409C246.977 29.8409 248.18 28.6117 248.18 27.0905C248.18 25.5761 246.977 24.3401 245.487 24.3401C243.998 24.3401 242.794 25.5693 242.794 27.0905Z" fill="#161C24" style="mix-blend-mode:multiply"/>
<path d="M232.03 27.0905C232.03 28.6049 233.233 29.8409 234.723 29.8409C236.212 29.8409 237.416 28.6117 237.416 27.0905C237.416 25.5761 236.212 24.3401 234.723 24.3401C233.233 24.3401 232.03 25.5693 232.03 27.0905Z" fill="#161C24" style="mix-blend-mode:multiply"/>
<path d="M221.285 25.7186C220.541 27.0361 220.986 28.7135 222.269 29.4741C223.559 30.2347 225.202 29.7797 225.946 28.469C226.691 27.1516 226.245 25.4742 224.962 24.7135C223.679 23.9529 222.03 24.4011 221.285 25.7186Z" fill="#161C24" style="mix-blend-mode:multiply"/>
</g>
<defs>
<clipPath id="clip0_1409_79741">
<rect width="335" height="230.689" fill="white"/>
</clipPath>
</defs>
</svg>
