<svg width="375" height="457" viewBox="0 0 375 457" fill="none" xmlns="http://www.w3.org/2000/svg">
<path fill-rule="evenodd" clip-rule="evenodd" d="M0 431.458L0 0H375V423.683C329.213 441.05 278.721 452.596 225.312 457H127.688C82.6992 453.29 39.7807 444.513 0 431.458Z" fill="url(#paint0_linear_25_602)"/>
<mask id="mask0_25_602" style="mask-type:alpha" maskUnits="userSpaceOnUse" x="0" y="0" width="375" height="457">
<path fill-rule="evenodd" clip-rule="evenodd" d="M0 431.458L0 0H375V423.683C329.213 441.05 278.721 452.596 225.312 457H127.688C82.6992 453.29 39.7807 444.513 0 431.458Z" fill="url(#paint1_linear_25_602)"/>
</mask>
<g mask="url(#mask0_25_602)">
<path d="M251.964 269.118C251.964 269.118 264.084 256.238 267.916 241.746C267.916 241.746 313.451 245.938 318.055 213.711C322.658 181.486 243.968 181.486 225.902 193.13C207.837 204.775 208.919 236.598 250.354 239.237C250.354 239.237 262.146 254.65 251.964 269.118Z" fill="white"/>
<path d="M208.851 273.089C208.183 265.786 212.272 258.799 219.069 256.046C224.626 253.795 231.772 252.853 239.222 257.049C255.477 266.203 241.504 285.19 255.477 298.1C269.448 311.01 282.457 310.42 294.02 336.416C304.131 359.149 307.886 396.9 266.504 402.93C225.123 408.96 207.087 345.027 207.433 331.631C207.779 318.238 219.22 311.794 214.222 300.561C211.221 293.816 209.637 281.696 208.851 273.089Z" fill="#595959"/>
<path d="M226.928 300.938C226.928 300.938 205.292 305.266 201.83 317.815C198.369 330.365 218.274 361.088 214.379 376.667C210.484 392.244 201.423 419.073 201.423 419.073H281.019C281.019 419.073 267.605 391.812 257.22 375.368C246.834 358.924 258.532 353.981 261.994 343.595C265.456 333.209 261.994 318.363 253.46 305.394C249.017 298.641 226.928 300.938 226.928 300.938Z" fill="white"/>
<path d="M211.678 386.571L262.637 384.401C262.637 384.401 282.751 414.154 284.742 431.677C286.734 449.201 281.02 464 281.02 464H244.917L241.222 432.872L232.571 464H194.339C194.339 464 199.147 417.53 211.678 386.571Z" fill="#C1121F"/>
<path d="M201.805 318.363C201.805 318.363 187.934 369.873 187.146 380.022C186.358 390.171 204.626 392.587 210.467 368.522C216.309 344.456 201.805 318.363 201.805 318.363Z" fill="white"/>
<path d="M253.46 305.394C253.46 305.394 284.475 348.796 288.765 358.029C293.054 367.26 276.784 375.914 262.893 355.413C249.002 334.912 253.46 305.394 253.46 305.394Z" fill="white"/>
<path d="M194.339 347.107C194.339 347.107 182.418 369.4 187.315 382.329C192.212 395.258 216.464 360.643 194.339 347.107Z" fill="white"/>
<path d="M197.765 356.709L185.777 332.063L180.998 331.631C180.998 331.631 186.408 374.43 192.118 379.766C193.864 381.398 196.262 380.467 198.75 378.389C206.646 371.791 206.668 359.641 198.949 352.835L197.765 356.709Z" fill="#F69B6C"/>
<path d="M288.895 360.422L300.669 383.499L297.19 387.098C297.19 387.098 267.85 360.109 266.553 352.401C266.156 350.045 268.255 348.559 271.362 347.632C281.223 344.691 288.895 360.422 288.895 360.422Z" fill="#F69B6C"/>
<path d="M181.647 336.417C181.647 336.417 173.012 324.143 172.866 320.981C172.718 317.818 177.53 325.565 177.53 325.565C177.53 325.565 174.736 320.115 174.839 316.038C174.943 311.962 180.006 324.515 180.006 324.515C180.006 324.515 176.706 315.221 177.996 314.412C179.285 313.602 181.722 322.358 181.722 322.358C181.722 322.358 180.908 315.168 182.001 314.86C183.094 314.551 184.647 324.231 184.647 324.231C184.647 324.231 184.869 321.565 185.392 321.155C186.687 320.139 186.251 325.965 186.145 327.148C185.987 328.918 187.441 335.485 187.441 335.485L181.647 336.417Z" fill="#F69B6C"/>
<path d="M223.11 321.124C223.607 321.703 233.686 322.729 236.417 307.873C238.212 298.102 238.715 284.917 238.715 284.917C238.715 284.917 244.497 284.805 245.638 277.443C246.777 270.081 239.908 269.068 236.431 277.052C236.431 277.052 237.162 265.846 231.318 264.079C225.474 262.313 215.678 263.072 212.502 267.427C209.325 271.782 204.762 286.878 212.107 293.349C219.451 299.822 223.794 296.883 223.794 296.883C223.794 296.883 217.303 314.355 223.11 321.124Z" fill="#F69B6C"/>
<path d="M219.112 273.528C219.112 273.528 218.979 277.864 216.62 281.773C214.258 285.682 221.807 281.939 221.807 281.939" stroke="#27334D" stroke-width="1.33333" stroke-miterlimit="10"/>
<path d="M222.981 275.687C222.829 276.188 223.075 276.704 223.528 276.841C223.982 276.978 224.473 276.684 224.623 276.183C224.775 275.683 224.53 275.166 224.076 275.029C223.622 274.892 223.132 275.186 222.981 275.687Z" fill="#27334D"/>
<path d="M214.422 276.323C214.27 276.823 214.516 277.34 214.969 277.478C215.423 277.615 215.914 277.32 216.065 276.82C216.215 276.319 215.971 275.802 215.517 275.665C215.064 275.528 214.573 275.822 214.422 276.323Z" fill="#27334D"/>
<path d="M224.309 273.664C224.309 273.664 225.494 273.675 226.568 275.303" stroke="#27334D" stroke-width="1.33333" stroke-miterlimit="10"/>
<path d="M213.102 276.292C213.102 276.292 213.466 275.165 215.343 274.628" stroke="#27334D" stroke-width="1.33333" stroke-miterlimit="10"/>
<path d="M239.758 276.211C239.758 276.211 241.032 273.828 241.95 273.954C242.868 274.081 244.006 274.475 243.955 276.976C243.903 279.476 242.493 280.649 241.403 281.256C240.315 281.863 239.274 281.069 239.223 279.607C239.173 278.147 241.296 277.782 241.04 276.799C240.783 275.816 239.758 276.211 239.758 276.211Z" fill="#DD7D52"/>
<path d="M217.777 287C217.777 287 211.394 288.594 215.224 290.852C219.054 293.11 223.03 291.36 223.5 289.5C223.969 287.64 221.861 287 217.777 287Z" fill="#A8522F"/>
<path d="M231.951 259.404C231.951 259.404 224.067 276.386 208.505 278.542C208.505 278.542 204.321 260.329 220.228 255.606C233.825 251.568 231.951 259.404 231.951 259.404Z" fill="#595959"/>
<path d="M225.438 263.194C225.438 263.194 225.922 278.347 236.432 277.052L238.084 270.162L232.803 261.108L225.438 263.194Z" fill="#595959"/>
<path d="M251.45 339.898C251.45 339.898 245.754 353.886 226.96 345.37" stroke="#27334D" stroke-width="1.33333" stroke-miterlimit="10"/>
<path d="M221.472 305.394C221.472 305.394 213.283 323.903 224.668 325.388C236.053 326.873 236.834 305.394 236.834 305.394" stroke="#EFDDD4" stroke-width="1.33333" stroke-miterlimit="10"/>
<path d="M187.441 335.485C187.441 335.485 191.741 334.652 190.369 338.425C188.997 342.197 182.649 343.165 180.152 342.713C178.217 342.362 179.971 338.955 181.912 338.261" stroke="white" stroke-width="1.33333" stroke-miterlimit="10"/>
<path d="M234.568 393.716C234.568 393.716 233.045 410.647 234.568 413.946C236.09 417.244 241.47 420.289 241.47 420.289" stroke="#75020B" stroke-width="1.33333" stroke-miterlimit="10"/>
<path d="M210.013 390.893L265.348 388.587" stroke="#75020B" stroke-width="1.33333" stroke-miterlimit="10"/>
<path d="M245.763 389.403C245.763 389.403 251.371 410.189 275.299 408.218" stroke="#75020B" stroke-width="1.33333" stroke-miterlimit="10"/>
<path d="M226.96 390.186C226.96 390.186 227.519 413.195 203.129 413.944" stroke="#75020B" stroke-width="1.33333" stroke-miterlimit="10"/>
<path d="M271.121 411.383C271.121 411.383 283.555 431.898 275.299 464" stroke="#75020B" stroke-width="1.33333" stroke-miterlimit="10"/>
<path d="M237.681 429.43L224.228 463.971" stroke="#75020B" stroke-width="1.33333" stroke-miterlimit="10"/>
<path d="M301.886 382.127C301.886 382.127 315.663 380.964 318.512 381.669C321.361 382.374 307.05 387.46 305.081 388.115C303.111 388.771 306.979 389.333 307.226 390.633C307.472 391.934 297.164 388.043 295.644 385.637C294.125 383.231 301.886 382.127 301.886 382.127Z" fill="#F69B6C"/>
<path d="M45.704 395.593C45.704 395.593 30.1904 388.335 26.5773 387.934C22.9636 387.533 37.4165 399.578 39.4244 401.183C41.4316 402.789 36.6953 401.785 35.8517 403.191C35.008 404.596 48.6556 404.493 51.4529 402.348C54.2508 400.203 45.704 395.593 45.704 395.593Z" fill="#DD7D52"/>
<path d="M139.386 252.09C139.386 252.09 151.507 239.21 155.338 224.718C155.338 224.718 200.874 228.909 205.477 196.683C210.081 164.458 131.39 164.458 113.325 176.102C95.2591 187.747 96.3427 219.57 137.776 222.209C137.776 222.209 149.568 237.622 139.386 252.09Z" fill="white"/>
<path d="M65.4031 369.41L45.7041 395.593L51.453 402.348L76.6207 383.051L65.4031 369.41Z" fill="#DD7D52"/>
<path d="M133.422 320.409C133.422 320.409 167.446 345.812 174.129 368.383C177.779 380.71 147.362 395.311 147.362 395.311L133.422 320.409Z" fill="#C1121F"/>
<path d="M126.31 314.434C126.31 314.434 107.119 300.287 91.3371 343.086C88.7297 350.158 91.3371 422.301 91.3371 422.301C91.3371 422.301 150.726 422.842 153.171 419.418C155.617 415.995 158.63 334.659 126.31 314.434Z" fill="white"/>
<path d="M154.339 391.528C154.339 391.528 159.15 397.219 167.834 397.219C176.519 397.219 183.861 377.622 176.516 357.86C169.17 338.098 153.928 348.786 153.928 348.786L154.339 391.528Z" fill="#C1121F"/>
<path d="M165.685 314.545C165.685 314.545 149.423 378.95 158.189 388.821C166.955 398.69 175.193 388.548 175.193 369.332C175.193 350.115 171.171 315.243 171.171 315.243L165.685 314.545Z" fill="#F69B6C"/>
<path d="M170.973 317.266C170.973 317.266 176.555 304.274 175.766 300.884C174.978 297.495 172.202 307.128 172.202 307.128C172.202 307.128 173.529 300.528 172.202 296.247C170.875 291.965 169.27 306.756 169.27 306.756C169.27 306.756 169.983 295.94 168.378 295.469C166.772 294.998 166.809 304.988 166.809 304.988C166.809 304.988 165.523 297.139 164.275 297.139C163.026 297.139 164.275 307.842 164.275 307.842C164.275 307.842 161.599 306.661 159.815 306.359C158.031 306.058 163.096 310.156 163.561 311.376C164.257 313.201 164.668 318.678 164.668 318.678L170.973 317.266Z" fill="#F69B6C"/>
<path d="M104.861 318.656L65.0421 369.298L70.3862 394.738L71.5449 394.025C95.7194 379.164 111.387 346.273 104.861 318.656Z" fill="#C1121F"/>
<path d="M124.11 331.607C123.532 332.281 111.804 333.475 108.626 316.187C106.536 304.817 105.95 289.474 105.95 289.474C105.95 289.474 99.2224 289.342 97.8961 280.776C96.5698 272.209 104.563 271.029 108.608 280.321C108.608 280.321 107.759 267.28 114.559 265.225C121.359 263.17 132.76 264.053 136.455 269.12C140.152 274.187 145.462 291.755 136.915 299.286C128.368 306.818 123.314 303.397 123.314 303.397C123.314 303.397 130.868 323.73 124.11 331.607Z" fill="#F69B6C"/>
<path d="M105.37 275.557C105.37 275.557 108.615 277.099 108.504 285.926C108.483 287.634 114.721 282.251 113.093 277.602C111.466 272.953 112.175 266.7 115.53 267.976C118.886 269.253 120.47 268.981 122.472 267.335C124.473 265.689 127.339 266.905 128.684 270.664C130.028 274.422 130.232 270.274 134.643 271.088C139.054 271.903 135.318 278.244 140.141 277.616C144.965 276.988 147.804 269.05 143.181 265.865C138.558 262.681 142.29 257.805 137.014 254.818C131.738 251.831 129.368 259.836 126.75 258.754C124.132 257.671 121.488 244.101 113.017 247.078C104.545 250.055 104.771 257.692 105.583 262.445C106.395 267.197 101.721 273.656 102.607 273.974C103.493 274.292 105.37 275.557 105.37 275.557Z" fill="#595959"/>
<path d="M128.764 276.22C128.764 276.22 128.917 281.266 131.664 285.815C134.41 290.363 125.626 286.008 125.626 286.008" stroke="#27334D" stroke-width="1.33333" stroke-miterlimit="10"/>
<path d="M124.261 278.732C124.437 279.315 124.152 279.916 123.624 280.075C123.096 280.235 122.526 279.892 122.35 279.31C122.174 278.728 122.459 278.126 122.986 277.966C123.515 277.807 124.085 278.15 124.261 278.732Z" fill="#27334D"/>
<path d="M134.221 279.473C134.397 280.055 134.112 280.656 133.584 280.816C133.056 280.975 132.486 280.633 132.309 280.05C132.134 279.468 132.419 278.866 132.946 278.707C133.475 278.547 134.045 278.89 134.221 279.473Z" fill="#27334D"/>
<path d="M122.715 276.378C122.715 276.378 121.336 276.39 120.087 278.286" stroke="#27334D" stroke-width="1.33333" stroke-miterlimit="10"/>
<path d="M135.757 279.436C135.757 279.436 135.333 278.124 133.15 277.5" stroke="#27334D" stroke-width="1.33333" stroke-miterlimit="10"/>
<path d="M133.324 290.75C133.324 290.75 128.611 294.392 123.182 290.408C117.753 286.425 115.44 292.746 122.283 297.554C129.126 302.362 134.779 297.449 135.536 295.617C136.294 293.786 137.078 290.199 133.324 290.75Z" fill="white"/>
<path d="M104.737 279.341C104.737 279.341 103.255 276.569 102.186 276.716C101.119 276.863 99.7938 277.322 99.8536 280.232C99.9127 283.141 101.555 284.506 102.823 285.213C104.09 285.919 105.301 284.995 105.36 283.295C105.418 281.595 102.948 281.17 103.246 280.026C103.544 278.882 104.737 279.341 104.737 279.341Z" fill="#DD7D52"/>
<path d="M90.1783 419.074C90.1783 419.074 134.92 421.303 153.927 415.844V464H122.828L122.375 452.781L118.86 464H90.1783V419.074Z" fill="#595959"/>
<path d="M185.464 191.273C185.464 191.659 185.455 192.221 185.438 192.96C185.422 193.681 185.388 194.47 185.338 195.326C185.287 196.166 185.22 197.013 185.136 197.869C185.052 198.709 184.952 199.439 184.834 200.06C184.767 200.11 184.666 200.161 184.532 200.211C184.398 200.261 184.255 200.303 184.104 200.337C183.953 200.37 183.802 200.396 183.651 200.412C183.5 200.429 183.365 200.438 183.248 200.438C182.761 200.438 182.35 200.362 182.014 200.211C181.695 200.06 181.494 199.766 181.41 199.33C181.326 198.944 181.251 198.356 181.183 197.567C181.133 196.778 181.083 195.922 181.032 194.999C180.982 194.076 180.94 193.161 180.906 192.255C180.89 191.348 180.881 190.576 180.881 189.938C181.217 189.754 181.595 189.611 182.014 189.51C182.451 189.393 182.879 189.334 183.298 189.334C183.987 189.334 184.515 189.493 184.885 189.812C185.271 190.131 185.464 190.618 185.464 191.273ZM180.831 203.963C180.831 203.274 181.041 202.712 181.46 202.276C181.897 201.822 182.493 201.596 183.248 201.596C184.003 201.596 184.591 201.822 185.01 202.276C185.447 202.712 185.665 203.274 185.665 203.963C185.665 204.651 185.447 205.221 185.01 205.675C184.591 206.111 184.003 206.329 183.248 206.329C182.493 206.329 181.897 206.111 181.46 205.675C181.041 205.221 180.831 204.651 180.831 203.963Z" fill="#595959"/>
<path d="M178.717 199.758C178.717 200.798 178.558 201.73 178.239 202.553C177.92 203.358 177.467 204.038 176.879 204.592C176.309 205.146 175.621 205.566 174.815 205.851C174.009 206.136 173.111 206.279 172.121 206.279C171.13 206.279 170.232 206.128 169.427 205.826C168.621 205.524 167.924 205.096 167.337 204.542C166.766 203.971 166.321 203.283 166.002 202.477C165.684 201.671 165.524 200.765 165.524 199.758C165.524 198.767 165.684 197.869 166.002 197.064C166.321 196.258 166.766 195.578 167.337 195.024C167.924 194.453 168.621 194.017 169.427 193.715C170.232 193.413 171.13 193.262 172.121 193.262C173.111 193.262 174.009 193.421 174.815 193.74C175.621 194.042 176.309 194.479 176.879 195.049C177.467 195.603 177.92 196.283 178.239 197.089C178.558 197.895 178.717 198.784 178.717 199.758ZM169.905 199.758C169.905 200.782 170.098 201.571 170.484 202.124C170.887 202.662 171.441 202.93 172.146 202.93C172.851 202.93 173.388 202.653 173.757 202.099C174.143 201.545 174.336 200.765 174.336 199.758C174.336 198.751 174.143 197.978 173.757 197.441C173.371 196.887 172.826 196.61 172.121 196.61C171.416 196.61 170.87 196.887 170.484 197.441C170.098 197.978 169.905 198.751 169.905 199.758Z" fill="#595959"/>
<path d="M163.352 205.851C163.167 205.884 162.89 205.926 162.521 205.977C162.168 206.044 161.808 206.077 161.438 206.077C161.069 206.077 160.733 206.052 160.431 206.002C160.146 205.952 159.902 205.851 159.701 205.7C159.5 205.549 159.34 205.347 159.223 205.095C159.122 204.827 159.072 204.483 159.072 204.063V189.46C159.256 189.426 159.525 189.384 159.877 189.334C160.247 189.267 160.616 189.233 160.985 189.233C161.354 189.233 161.682 189.258 161.967 189.309C162.269 189.359 162.521 189.46 162.722 189.611C162.924 189.762 163.075 189.972 163.176 190.24C163.293 190.492 163.352 190.828 163.352 191.247V205.851Z" fill="#595959"/>
<path d="M156.295 205.851C156.11 205.884 155.833 205.926 155.464 205.977C155.112 206.044 154.751 206.077 154.381 206.077C154.012 206.077 153.676 206.052 153.374 206.002C153.089 205.952 152.846 205.851 152.644 205.7C152.443 205.549 152.283 205.347 152.166 205.095C152.065 204.827 152.015 204.483 152.015 204.063V189.46C152.199 189.426 152.468 189.384 152.82 189.334C153.19 189.267 153.559 189.233 153.928 189.233C154.298 189.233 154.625 189.258 154.91 189.309C155.212 189.359 155.464 189.46 155.666 189.611C155.867 189.762 156.018 189.972 156.119 190.24C156.236 190.492 156.295 190.828 156.295 191.247V205.851Z" fill="#595959"/>
<path d="M144.591 206.279C143.601 206.279 142.678 206.145 141.822 205.876C140.983 205.591 140.244 205.171 139.606 204.617C138.985 204.063 138.49 203.367 138.121 202.527C137.768 201.688 137.592 200.706 137.592 199.581C137.592 198.474 137.768 197.525 138.121 196.736C138.49 195.931 138.968 195.276 139.556 194.772C140.143 194.252 140.815 193.874 141.57 193.639C142.325 193.388 143.098 193.262 143.886 193.262C144.776 193.262 145.582 193.396 146.304 193.665C147.042 193.933 147.672 194.302 148.192 194.772C148.729 195.242 149.14 195.805 149.426 196.459C149.728 197.114 149.879 197.827 149.879 198.6C149.879 199.17 149.719 199.607 149.401 199.909C149.082 200.211 148.637 200.404 148.066 200.488L141.847 201.419C142.032 201.973 142.409 202.393 142.98 202.678C143.551 202.947 144.205 203.081 144.944 203.081C145.632 203.081 146.278 202.997 146.883 202.829C147.504 202.645 148.007 202.435 148.393 202.2C148.662 202.368 148.889 202.603 149.073 202.905C149.258 203.207 149.35 203.526 149.35 203.862C149.35 204.617 148.998 205.179 148.293 205.549C147.756 205.834 147.151 206.027 146.48 206.128C145.808 206.229 145.179 206.279 144.591 206.279ZM143.886 196.384C143.484 196.384 143.131 196.451 142.829 196.585C142.544 196.72 142.309 196.896 142.124 197.114C141.939 197.315 141.797 197.55 141.696 197.819C141.612 198.071 141.562 198.331 141.545 198.6L145.85 197.895C145.8 197.559 145.615 197.223 145.296 196.887C144.978 196.552 144.508 196.384 143.886 196.384Z" fill="#595959"/>
<path d="M135.178 205.776C134.993 205.826 134.7 205.876 134.297 205.927C133.911 205.977 133.525 206.002 133.138 206.002C132.752 206.002 132.408 205.969 132.106 205.901C131.821 205.851 131.577 205.75 131.376 205.599C131.175 205.448 131.023 205.238 130.923 204.97C130.822 204.701 130.772 204.349 130.772 203.912V199.985H125.937V205.776C125.753 205.826 125.459 205.876 125.056 205.927C124.67 205.977 124.284 206.002 123.898 206.002C123.512 206.002 123.168 205.969 122.866 205.901C122.58 205.851 122.337 205.75 122.136 205.599C121.934 205.448 121.783 205.238 121.682 204.97C121.582 204.701 121.531 204.349 121.531 203.912V190.618C121.716 190.585 122.01 190.543 122.413 190.492C122.815 190.425 123.201 190.392 123.571 190.392C123.957 190.392 124.292 190.425 124.578 190.492C124.88 190.543 125.132 190.643 125.333 190.794C125.535 190.946 125.686 191.155 125.786 191.424C125.887 191.692 125.937 192.045 125.937 192.481V196.51H130.772V190.618C130.956 190.585 131.25 190.543 131.653 190.492C132.056 190.425 132.442 190.392 132.811 190.392C133.197 190.392 133.533 190.425 133.818 190.492C134.12 190.543 134.372 190.643 134.574 190.794C134.775 190.946 134.926 191.155 135.027 191.424C135.128 191.692 135.178 192.045 135.178 192.481V205.776Z" fill="#595959"/>
<path d="M284.478 218.381C284.763 218.381 285.074 218.356 285.41 218.306C285.762 218.239 286.022 218.155 286.19 218.054V216.04L284.377 216.191C283.907 216.224 283.521 216.325 283.219 216.493C282.917 216.661 282.766 216.913 282.766 217.248C282.766 217.584 282.892 217.861 283.144 218.079C283.412 218.281 283.857 218.381 284.478 218.381ZM284.277 208.486C285.183 208.486 286.006 208.579 286.744 208.763C287.499 208.948 288.137 209.233 288.658 209.619C289.195 209.989 289.606 210.467 289.891 211.055C290.177 211.625 290.319 212.305 290.319 213.094V218.734C290.319 219.17 290.194 219.531 289.942 219.817C289.707 220.085 289.421 220.32 289.086 220.522C287.995 221.176 286.459 221.504 284.478 221.504C283.588 221.504 282.783 221.42 282.061 221.252C281.356 221.084 280.743 220.832 280.223 220.496C279.719 220.161 279.325 219.733 279.04 219.212C278.771 218.692 278.637 218.088 278.637 217.399C278.637 216.241 278.981 215.352 279.669 214.731C280.357 214.109 281.423 213.723 282.867 213.572L286.165 213.22V213.044C286.165 212.557 285.947 212.213 285.51 212.011C285.091 211.793 284.478 211.684 283.672 211.684C283.035 211.684 282.413 211.751 281.809 211.885C281.205 212.02 280.659 212.188 280.173 212.389C279.954 212.238 279.77 212.011 279.619 211.709C279.468 211.39 279.392 211.063 279.392 210.727C279.392 210.291 279.493 209.947 279.694 209.695C279.912 209.426 280.24 209.2 280.676 209.015C281.163 208.83 281.734 208.696 282.388 208.612C283.06 208.528 283.689 208.486 284.277 208.486Z" fill="#C1121F"/>
<path d="M276.54 221.075C276.355 221.109 276.078 221.151 275.709 221.201C275.357 221.268 274.996 221.302 274.626 221.302C274.257 221.302 273.921 221.277 273.619 221.227C273.334 221.176 273.091 221.075 272.889 220.924C272.688 220.773 272.528 220.572 272.411 220.32C272.31 220.052 272.26 219.707 272.26 219.288V204.684C272.444 204.651 272.713 204.609 273.065 204.558C273.435 204.491 273.804 204.458 274.173 204.458C274.543 204.458 274.87 204.483 275.155 204.533C275.457 204.584 275.709 204.684 275.911 204.835C276.112 204.987 276.263 205.196 276.364 205.465C276.481 205.717 276.54 206.052 276.54 206.472V221.075Z" fill="#C1121F"/>
<path d="M270.096 214.982C270.096 216.023 269.936 216.955 269.618 217.777C269.299 218.583 268.845 219.263 268.258 219.817C267.687 220.37 266.999 220.79 266.193 221.075C265.388 221.361 264.49 221.504 263.499 221.504C262.509 221.504 261.611 221.352 260.805 221.05C259.999 220.748 259.303 220.32 258.715 219.766C258.145 219.195 257.7 218.507 257.381 217.702C257.062 216.896 256.902 215.989 256.902 214.982C256.902 213.992 257.062 213.094 257.381 212.288C257.7 211.483 258.145 210.803 258.715 210.249C259.303 209.678 259.999 209.242 260.805 208.94C261.611 208.637 262.509 208.486 263.499 208.486C264.49 208.486 265.388 208.646 266.193 208.965C266.999 209.267 267.687 209.703 268.258 210.274C268.845 210.828 269.299 211.508 269.618 212.313C269.936 213.119 270.096 214.009 270.096 214.982ZM261.284 214.982C261.284 216.006 261.477 216.795 261.863 217.349C262.265 217.886 262.819 218.155 263.524 218.155C264.229 218.155 264.767 217.878 265.136 217.324C265.522 216.77 265.715 215.989 265.715 214.982C265.715 213.975 265.522 213.203 265.136 212.666C264.75 212.112 264.204 211.835 263.499 211.835C262.794 211.835 262.249 212.112 261.863 212.666C261.477 213.203 261.284 213.975 261.284 214.982Z" fill="#C1121F"/>
<path d="M254.489 221C254.304 221.05 254.01 221.101 253.607 221.151C253.221 221.201 252.835 221.227 252.449 221.227C252.063 221.227 251.719 221.193 251.417 221.126C251.131 221.075 250.888 220.975 250.687 220.824C250.485 220.673 250.334 220.463 250.233 220.194C250.133 219.926 250.082 219.573 250.082 219.137V215.209H245.248V221C245.063 221.05 244.77 221.101 244.367 221.151C243.981 221.201 243.595 221.227 243.209 221.227C242.823 221.227 242.479 221.193 242.176 221.126C241.891 221.075 241.648 220.975 241.446 220.824C241.245 220.673 241.094 220.463 240.993 220.194C240.892 219.926 240.842 219.573 240.842 219.137V205.843C241.027 205.809 241.32 205.767 241.723 205.717C242.126 205.65 242.512 205.616 242.881 205.616C243.267 205.616 243.603 205.65 243.888 205.717C244.191 205.767 244.442 205.868 244.644 206.019C244.845 206.17 244.996 206.38 245.097 206.648C245.198 206.917 245.248 207.269 245.248 207.706V211.734H250.082V205.843C250.267 205.809 250.561 205.767 250.964 205.717C251.366 205.65 251.753 205.616 252.122 205.616C252.508 205.616 252.844 205.65 253.129 205.717C253.431 205.767 253.683 205.868 253.884 206.019C254.086 206.17 254.237 206.38 254.337 206.648C254.438 206.917 254.489 207.269 254.489 207.706V221Z" fill="#C1121F"/>
</g>
<defs>
<linearGradient id="paint0_linear_25_602" x1="176.5" y1="-185" x2="176.5" y2="459" gradientUnits="userSpaceOnUse">
<stop stop-color="white"/>
<stop offset="1" stop-color="#FDEBED"/>
</linearGradient>
<linearGradient id="paint1_linear_25_602" x1="176.5" y1="-185" x2="176.5" y2="459" gradientUnits="userSpaceOnUse">
<stop stop-color="white"/>
<stop offset="1" stop-color="#FDEBED"/>
</linearGradient>
</defs>
</svg>
